<svg viewBox="0 0 1586 237"
  xmlns="http://www.w3.org/2000/svg"
  xmlns:xlink="http://www.w3.org/1999/xlink"
  xmlns:vr="http://vr/wagonmap" preserveAspectRatio="xMinYMin meet">
  <defs>
    <svg id="pet-seat-icon" viewBox="0 0 620 620"
      xmlns="http://www.w3.org/2000/svg" preserveAspectRatio="xMinYMin meet">
      <g fill-rule="evenodd">
        <path d="M42.2 15.868a2.013 2.013 0 01-.716.132H27.548a2 2 0 01-1.02-.279l-7.883-4.669-2.736-6.519A2.5 2.5 0 0013.604 3h-2.676l1.26 3h-1.204a6 6 0 00-6 6v.099l-3.699 1.416a2 2 0 00-1.152 2.584l1.263 3.274A6 6 0 006.906 23h3.078v4.388c0 1.256.395 2.481 1.127 3.501l1.873 2.606V45h1.5a2.5 2.5 0 002.5-2.5v-9.004c0-.837-.263-1.654-.752-2.334l-1.87-2.606a2.002 2.002 0 01-.378-1.169V23a4 4 0 00-4-4H6.906a2 2 0 01-1.867-1.284l-.454-1.18 1.64-.627c1.581-.606 2.787-2.116 2.76-3.81V12c-.019-1.12.883-1.997 2-1.997h2.883l1.09 2.597a4.002 4.002 0 001.65 1.893l7.881 4.669a5.996 5.996 0 003.06.838h13.934c.735 0 1.462-.134 2.148-.397l2.748-1.053a2.5 2.5 0 001.605-2.334v-2.564L42.2 15.868zm4.067 8.562a2.499 2.499 0 00-3.228-1.44l-1.4.537 1.212 3.169c.088.228.133.471.133.715v17.584h1.5a2.5 2.5 0 002.5-2.5V27.41a6.01 6.01 0 00-.397-2.146l-.32-.834zm-9.445 4.117a4.001 4.001 0 00-4.668-1.384l-9.359 3.59a6.001 6.001 0 00-3.853 5.663L18.984 45l1.493-.007a2.501 2.501 0 002.488-2.52l-.023-6.097a2.005 2.005 0 011.288-1.889l9.356-3.589 3.016 4.153a2 2 0 01.382 1.175V45h1.5a2.5 2.5 0 002.5-2.5v-6.277c0-1.266-.4-2.5-1.145-3.524l-3.017-4.152z"/>
      </g>
    </svg>
  </defs>
  <g id="CED_up" stroke="none" stroke-width="1" fill="none" fill-rule="evenodd">
    <path fill="#FFF" d="M0 0h1586v237H0z"/>
    <g id="Pet-seat-indicators" transform="translate(522 7)">
      <path id="pet_seat_indicator_113" vr:x="0" vr:y="166" vr:width="57" vr:height="57" d="M0 166h57v57H0z"/>
      <path id="pet_seat_indicator_114" vr:x="0" vr:y="90" vr:width="57" vr:height="88" d="M0 90h57v88H0z"/>
      <path id="pet_seat_indicator_111" vr:x="33" vr:y="0" vr:width="57" vr:height="90" d="M33 0h57v90H33z"/>
      <path id="pet_seat_indicator_107" vr:x="89" vr:y="0" vr:width="57" vr:height="90" d="M89 0h57v90H89z"/>
      <path id="pet_seat_indicator_103" vr:x="145" vr:y="0" vr:width="57" vr:height="90" d="M145 0h57v90h-57z"/>
      <path id="pet_seat_indicator_99" vr:x="201" vr:y="0" vr:width="57" vr:height="90" d="M201 0h57v90h-57z"/>
      <path id="pet_seat_indicator_95" vr:x="257" vr:y="0" vr:width="67" vr:height="90" d="M257 0h67v90h-67z"/>
      <path id="pet_seat_indicator_91" vr:x="324" vr:y="0" vr:width="67" vr:height="90" d="M324 0h67v90h-67z"/>
      <path id="pet_seat_indicator_87" vr:x="390" vr:y="0" vr:width="57" vr:height="90" d="M390 0h57v90h-57z"/>
      <path id="pet_seat_indicator_83" vr:x="446" vr:y="0" vr:width="57" vr:height="90" d="M446 0h57v90h-57z"/>
      <path id="pet_seat_indicator_79" vr:x="502" vr:y="0" vr:width="57" vr:height="90" d="M502 0h57v90h-57z"/>
      <path id="pet_seat_indicator_75" vr:x="558" vr:y="0" vr:width="57" vr:height="90" d="M558 0h57v90h-57z"/>
      <path id="pet_seat_indicator_71" vr:x="614" vr:y="0" vr:width="57" vr:height="90" d="M614 0h57v90h-57z"/>
      <path id="pet_seat_indicator_67" vr:x="670" vr:y="0" vr:width="65" vr:height="90" d="M670 0h65v90h-65z"/>
      <path id="pet_seat_indicator_109" vr:x="56" vr:y="166" vr:width="57" vr:height="57" d="M56 166h57v57H56z"/>
      <path id="pet_seat_indicator_110" vr:x="56" vr:y="90" vr:width="57" vr:height="88" d="M56 90h57v88H56z"/>
      <path id="pet_seat_indicator_105" vr:x="112" vr:y="166" vr:width="57" vr:height="57" d="M112 166h57v57h-57z"/>
      <path id="pet_seat_indicator_106" vr:x="112" vr:y="90" vr:width="57" vr:height="88" d="M112 90h57v88h-57z"/>
      <path id="pet_seat_indicator_101" vr:x="168" vr:y="166" vr:width="57" vr:height="57" d="M168 166h57v57h-57z"/>
      <path id="pet_seat_indicator_102" vr:x="168" vr:y="90" vr:width="57" vr:height="88" d="M168 90h57v88h-57z"/>
      <path id="pet_seat_indicator_97" vr:x="224" vr:y="166" vr:width="57" vr:height="57" d="M224 166h57v57h-57z"/>
      <path id="pet_seat_indicator_98" vr:x="224" vr:y="90" vr:width="57" vr:height="88" d="M224 90h57v88h-57z"/>
      <path id="pet_seat_indicator_93" vr:x="280" vr:y="166" vr:width="57" vr:height="57" d="M280 166h57v57h-57z"/>
      <path id="pet_seat_indicator_94" vr:x="280" vr:y="90" vr:width="57" vr:height="88" d="M280 90h57v88h-57z"/>
      <path id="pet_seat_indicator_89" vr:x="336" vr:y="166" vr:width="57" vr:height="57" d="M336 166h57v57h-57z"/>
      <path id="pet_seat_indicator_90" vr:x="336" vr:y="90" vr:width="57" vr:height="88" d="M336 90h57v88h-57z"/>
      <path id="pet_seat_indicator_85" vr:x="392" vr:y="166" vr:width="67" vr:height="57" d="M392 166h67v57h-67z"/>
      <path id="pet_seat_indicator_86" vr:x="392" vr:y="90" vr:width="67" vr:height="88" d="M392 90h67v88h-67z"/>
      <path id="pet_seat_indicator_81" vr:x="459" vr:y="166" vr:width="67" vr:height="57" d="M459 166h67v57h-67z"/>
      <path id="pet_seat_indicator_82" vr:x="459" vr:y="90" vr:width="67" vr:height="88" d="M459 90h67v88h-67z"/>
      <path id="pet_seat_indicator_77" vr:x="525" vr:y="166" vr:width="57" vr:height="57" d="M525 166h57v57h-57z"/>
      <path id="pet_seat_indicator_78" vr:x="525" vr:y="90" vr:width="57" vr:height="88" d="M525 90h57v88h-57z"/>
      <path id="pet_seat_indicator_73" vr:x="581" vr:y="166" vr:width="57" vr:height="57" d="M581 166h57v57h-57z"/>
      <path id="pet_seat_indicator_74" vr:x="581" vr:y="90" vr:width="57" vr:height="88" d="M581 90h57v88h-57z"/>
      <path id="pet_seat_indicator_69" vr:x="637" vr:y="166" vr:width="67" vr:height="57" d="M637 166h67v57h-67z"/>
      <path id="pet_seat_indicator_70" vr:x="637" vr:y="90" vr:width="67" vr:height="88" d="M637 90h67v88h-67z"/>
    </g>
    <g transform="translate(3 2)">
      <path d="M1329 3h214v75h37v151h-251c-11.046 0-20-8.954-20-20V23c0-11.046 8.954-20 20-20z" fill="#F2F2F2" transform="matrix(-1 0 0 1 2889 0)"/>
      <path d="M20 3h329v72h40v74h40v80H20c-11.046 0-20-8.954-20-20V23C0 11.954 8.954 3 20 3z" fill="#F2F2F2"/>
      <path d="M969.8 229.503h16.415c.186-5.135.285-10.919.285-17.423 0-19.851-.916-32.977-2.442-41.383-.821-4.522-1.802-7.63-2.932-9.644-.518-.924-1.053-1.593-1.63-2.024-.479-.36-.978-.527-1.496-.527-.495 0-.97.18-1.427.537-.579.453-1.117 1.152-1.639 2.107-1.14 2.085-2.131 5.276-2.961 9.846-1.544 8.505-2.473 21.629-2.473 41.088 0 6.49.104 12.276.3 17.423h0z" stroke="#E2D2BA" stroke-width="3" fill="#E2D2BA"/>
      <path fill="#E2D2BA" d="M833 5h20v44h-20z"/>
      <path d="M1560 3.5c5.945 0 11.33 2.517 15.227 6.597 3.872 4.054 6.273 9.654 6.273 15.842h0v181.122c0 6.188-2.4 11.788-6.273 15.842-3.897 4.08-9.282 6.597-15.227 6.597h0H20c-5.945 0-11.33-2.517-15.227-6.597C.901 218.85-1.5 213.25-1.5 207.061h0V25.939c0-6.188 2.4-11.788 6.273-15.842C8.67 6.017 14.055 3.5 20 3.5h1540z" stroke="#DFDFDF" stroke-width="3"/>
      <path fill="#DCDCDC" d="M1254 5h3v73h-3zM1343 5h3v73h-3zM1306 77h3v151h-3z"/>
      <path fill="#DCDCDC" transform="rotate(90 1300 76.5)" d="M1298.5 30.5h3v92h-3z"/>
      <g id="Stairs" transform="translate(347 2)">
        <path d="M1.584 71.5v-70h123v35.104L104.424 71.5H1.585z" stroke="#DCDCDC" stroke-width="3"/>
        <g transform="translate(15.966 3.08)" stroke="#DCDCDC" stroke-linecap="square" stroke-width="2">
          <path d="M0 66.459v-66M13.973 66.459v-66M27.947 66.459v-66M41.92 66.459v-66M55.894 66.459v-66"/>
        </g>
        <path d="M79.017 27.754l9.193 9.193-9.193 9.192-2.828-2.828 4.35-4.35H50.016v-4h30.551l-4.38-4.378 2.83-2.829z" stroke="#FFF" fill="#DCDCDC"/>
      </g>
      <path fill="#E2D2BA" d="M1223 198h76v30h-76zM438 198h70v30h-70z"/>
      <path fill="#DCDCDC" d="M549 3h3v53h-3zM427 148h3v80h-3zM387 74h3v75h-3z"/>
      <path fill="#DCDCDC" transform="rotate(90 408.5 148.5)" d="M407 127h3v43h-3z"/>
      <path fill="#DCDCDC" d="M516 134h3v95h-3z"/>
      <g transform="translate(408)">
        <g transform="translate(46 228)">
          <path fill="#C2D6D6" d="M0 2h39v3H0z"/>
          <path fill="#9FC1B7" d="M0 0h39v3H0z"/>
        </g>
        <g transform="translate(166 228)">
          <path fill="#C2D6D6" d="M0 2.026h62v3H0z"/>
          <path fill="#9FC1B7" d="M0 .026h62v3H0z"/>
        </g>
        <g transform="translate(286 228)">
          <path fill="#C2D6D6" d="M0 2.026h62v3H0z"/>
          <path fill="#9FC1B7" d="M0 .026h62v3H0z"/>
        </g>
        <g transform="translate(401 228)">
          <path fill="#C2D6D6" d="M0 2.026h62v3H0z"/>
          <path fill="#9FC1B7" d="M0 .026h62v3H0z"/>
        </g>
        <g transform="translate(502 227.974)">
          <path fill="#C2D6D6" d="M0 2.026h62v3H0z"/>
          <path fill="#9FC1B7" d="M0 .026h62v3H0z"/>
        </g>
        <g transform="translate(639 227.974)">
          <path fill="#C2D6D6" d="M0 2.026h62v3H0z"/>
          <path fill="#9FC1B7" d="M0 .026h62v3H0z"/>
        </g>
        <g transform="translate(750 228)">
          <path fill="#C2D6D6" d="M0 2.026h62v3H0z"/>
          <path fill="#9FC1B7" d="M0 .026h62v3H0z"/>
        </g>
        <g transform="translate(166)">
          <path fill="#C2D6D6" d="M0 0h62v3H0z"/>
          <path fill="#9FC1B7" d="M0 2h62v3H0z"/>
        </g>
        <g>
          <path fill="#C2D6D6" d="M0 0h39v3H0z"/>
          <path fill="#9FC1B7" d="M0 2h39v3H0z"/>
        </g>
        <g transform="translate(95)">
          <path fill="#C2D6D6" d="M0 0h39v3H0z"/>
          <path fill="#9FC1B7" d="M0 2h39v3H0z"/>
        </g>
        <g transform="translate(286)">
          <path fill="#C2D6D6" d="M0 0h62v3H0z"/>
          <path fill="#9FC1B7" d="M0 2h62v3H0z"/>
        </g>
        <g transform="translate(401)">
          <path fill="#C2D6D6" d="M0 0h62v3H0z"/>
          <path fill="#9FC1B7" d="M0 2h62v3H0z"/>
        </g>
        <g transform="translate(502)">
          <path fill="#C2D6D6" d="M0 0h62v3H0z"/>
          <path fill="#9FC1B7" d="M0 2h62v3H0z"/>
        </g>
        <g transform="translate(639)">
          <path fill="#C2D6D6" d="M0 0h62v3H0z"/>
          <path fill="#9FC1B7" d="M0 2h62v3H0z"/>
        </g>
        <g transform="translate(750)">
          <path fill="#C2D6D6" d="M0 0h62v3H0z"/>
          <path fill="#9FC1B7" d="M0 2h62v3H0z"/>
        </g>
      </g>
    </g>
    <g id="Seats" transform="translate(528 15)">
      <g id="seat_111" transform="translate(33)">
        <path d="M41 .5c.966 0 1.841.392 2.475 1.025A3.489 3.489 0 0144.5 4h0v35c0 .966-.392 1.841-1.025 2.475A3.489 3.489 0 0141 42.5h0H.5V.5z" id="seat_111_shape" stroke="#1B50AF" fill="#FFF"/>
        <path id="Line" stroke="#1B50AF" fill="#FFF" stroke-linecap="square" d="M9.5.5v42.012"/>
        <g id="seatnumber_111" transform="translate(18 16)" fill="#1B50AF">
          <path d="M2.64 12.2V3.528H.144V2.024c1.68-.048 2.464-.16 3.024-1.424h1.68v11.6H2.64zm5.904 0V3.528H6.048V2.024c1.68-.048 2.464-.16 3.024-1.424h1.68v11.6H8.544zm5.904 0V3.528h-2.496V2.024c1.68-.048 2.464-.16 3.024-1.424h1.68v11.6h-2.208z"/>
        </g>
        <g id="seatnumber_111-with-service-icon" transform="translate(18 16)">
          <path d="M2.64 12.2V3.528H.144V2.024c1.68-.048 2.464-.16 3.024-1.424h1.68v11.6H2.64zm5.904 0V3.528H6.048V2.024c1.68-.048 2.464-.16 3.024-1.424h1.68v11.6H8.544zm5.904 0V3.528h-2.496V2.024c1.68-.048 2.464-.16 3.024-1.424h1.68v11.6h-2.208z" transform="translate(0 10)"/>
          <use id="pet-seat-icon-seatnumber_111" xlink:href="#pet-seat-icon" transform="translate(0 -12)"/>
        </g>
      </g>
      <g id="seat_107" transform="translate(89)">
        <path d="M41 .5c.966 0 1.841.392 2.475 1.025A3.489 3.489 0 0144.5 4h0v35c0 .966-.392 1.841-1.025 2.475A3.489 3.489 0 0141 42.5h0H.5V.5z" id="seat_107_shape" stroke="#1B50AF" fill="#FFF"/>
        <path id="Line" stroke="#1B50AF" fill="#FFF" stroke-linecap="square" d="M9.5.5v42.012"/>
        <g id="seatnumber_107" transform="translate(14 16)" fill="#1B50AF">
          <path d="M3.16 12.2V3.528H.664V2.024c1.68-.048 2.464-.16 3.024-1.424h1.68v11.6H3.16zm4.048-5.824c0-3.52 1.568-5.984 4.672-5.984 3.088 0 4.656 2.464 4.656 5.984 0 3.536-1.568 6.032-4.656 6.032-3.104 0-4.672-2.496-4.672-6.032zm7.072 0c0-2.768-.832-4.32-2.4-4.32s-2.416 1.552-2.416 4.32c0 2.784.848 4.368 2.416 4.368s2.4-1.584 2.4-4.368zM17.128.6h8.528v1.856c-3.024 3.088-4.496 5.568-4.72 9.744h-2.432c.192-4.032 2.336-7.296 4.928-9.744h-6.304V.6z"/>
        </g>
        <g id="seatnumber_107-with-service-icon" transform="translate(14 16)">
          <path d="M3.16 12.2V3.528H.664V2.024c1.68-.048 2.464-.16 3.024-1.424h1.68v11.6H3.16zm4.048-5.824c0-3.52 1.568-5.984 4.672-5.984 3.088 0 4.656 2.464 4.656 5.984 0 3.536-1.568 6.032-4.656 6.032-3.104 0-4.672-2.496-4.672-6.032zm7.072 0c0-2.768-.832-4.32-2.4-4.32s-2.416 1.552-2.416 4.32c0 2.784.848 4.368 2.416 4.368s2.4-1.584 2.4-4.368zM17.128.6h8.528v1.856c-3.024 3.088-4.496 5.568-4.72 9.744h-2.432c.192-4.032 2.336-7.296 4.928-9.744h-6.304V.6z" transform="translate(0 10)"/>
          <use id="pet-seat-icon-seatnumber_107" xlink:href="#pet-seat-icon" transform="translate(0 -12)"/>
        </g>
      </g>
      <g id="seat_103" transform="translate(145)">
        <path d="M41 .5c.966 0 1.841.392 2.475 1.025A3.489 3.489 0 0144.5 4h0v35c0 .966-.392 1.841-1.025 2.475A3.489 3.489 0 0141 42.5h0H.5V.5z" id="seat_103_shape" stroke="#1B50AF" fill="#FFF"/>
        <path id="Line" stroke="#1B50AF" fill="#FFF" stroke-linecap="square" d="M9.5.5v42.012"/>
        <g id="seatnumber_103" transform="translate(13 16)" fill="#1B50AF">
          <path d="M3.328 12.2V3.528H.832V2.024c1.68-.048 2.464-.16 3.024-1.424h1.68v11.6H3.328zm4.048-5.824c0-3.52 1.568-5.984 4.672-5.984 3.088 0 4.656 2.464 4.656 5.984 0 3.536-1.568 6.032-4.656 6.032-3.104 0-4.672-2.496-4.672-6.032zm7.072 0c0-2.768-.832-4.32-2.4-4.32s-2.416 1.552-2.416 4.32c0 2.784.848 4.368 2.416 4.368s2.4-1.584 2.4-4.368zm9.856 2.56c0-1.36-1.264-1.904-2.912-1.904h-.464V5.304h.384c1.664 0 2.704-.608 2.704-1.696 0-1.008-.88-1.552-1.84-1.552-1.328 0-2.176.848-2.288 2.048h-2.096C18.048 1.8 19.648.392 22.304.392c1.936 0 3.936.928 3.936 3.12 0 1.12-.688 2.064-1.568 2.544a3.035 3.035 0 011.872 2.816c0 2.352-2.032 3.536-4.48 3.536-2.656 0-4.224-1.728-4.368-3.856h2.08c.16 1.168.912 2.192 2.352 2.192 1.2 0 2.176-.72 2.176-1.808z"/>
        </g>
        <g id="seatnumber_103-with-service-icon" transform="translate(13 16)">
          <path d="M3.328 12.2V3.528H.832V2.024c1.68-.048 2.464-.16 3.024-1.424h1.68v11.6H3.328zm4.048-5.824c0-3.52 1.568-5.984 4.672-5.984 3.088 0 4.656 2.464 4.656 5.984 0 3.536-1.568 6.032-4.656 6.032-3.104 0-4.672-2.496-4.672-6.032zm7.072 0c0-2.768-.832-4.32-2.4-4.32s-2.416 1.552-2.416 4.32c0 2.784.848 4.368 2.416 4.368s2.4-1.584 2.4-4.368zm9.856 2.56c0-1.36-1.264-1.904-2.912-1.904h-.464V5.304h.384c1.664 0 2.704-.608 2.704-1.696 0-1.008-.88-1.552-1.84-1.552-1.328 0-2.176.848-2.288 2.048h-2.096C18.048 1.8 19.648.392 22.304.392c1.936 0 3.936.928 3.936 3.12 0 1.12-.688 2.064-1.568 2.544a3.035 3.035 0 011.872 2.816c0 2.352-2.032 3.536-4.48 3.536-2.656 0-4.224-1.728-4.368-3.856h2.08c.16 1.168.912 2.192 2.352 2.192 1.2 0 2.176-.72 2.176-1.808z" transform="translate(0 10)"/>
          <use id="pet-seat-icon-seatnumber_103" xlink:href="#pet-seat-icon" transform="translate(0 -12)"/>
        </g>
      </g>
      <g id="seat_99" transform="translate(201)">
        <path d="M41 .5c.966 0 1.841.392 2.475 1.025A3.489 3.489 0 0144.5 4h0v35c0 .966-.392 1.841-1.025 2.475A3.489 3.489 0 0141 42.5h0H.5V.5z" id="seat_99_shape" stroke="#1B50AF" fill="#FFF"/>
        <path id="Line" stroke="#1B50AF" fill="#FFF" stroke-linecap="square" d="M9.5.5v42.012"/>
        <g id="seatnumber_99" transform="translate(17 16)" fill="#1B50AF">
          <path d="M7.152 7.192c-.496.624-1.424 1.104-2.656 1.104-2.128 0-3.92-1.472-3.92-3.968 0-2.384 1.808-3.936 4.32-3.936C8 .392 9.36 2.888 9.36 6.136c0 3.328-1.248 6.272-4.704 6.272-2.528 0-3.712-1.728-3.84-3.2h2.16c.112.96.864 1.504 1.824 1.504 1.456 0 2.352-1.376 2.352-3.52zm-2.256-5.12c-1.2 0-2.08.88-2.08 2.272 0 1.36.88 2.256 2.08 2.256 1.2 0 2.112-.896 2.112-2.256 0-1.376-.912-2.272-2.112-2.272zm12.208 5.12c-.496.624-1.424 1.104-2.656 1.104-2.128 0-3.92-1.472-3.92-3.968 0-2.384 1.808-3.936 4.32-3.936 3.104 0 4.464 2.496 4.464 5.744 0 3.328-1.248 6.272-4.704 6.272-2.528 0-3.712-1.728-3.84-3.2h2.16c.112.96.864 1.504 1.824 1.504 1.456 0 2.352-1.376 2.352-3.52zm-2.256-5.12c-1.2 0-2.08.88-2.08 2.272 0 1.36.88 2.256 2.08 2.256 1.2 0 2.112-.896 2.112-2.256 0-1.376-.912-2.272-2.112-2.272z"/>
        </g>
        <g id="seatnumber_99-with-service-icon" transform="translate(17 16)">
          <path d="M7.152 7.192c-.496.624-1.424 1.104-2.656 1.104-2.128 0-3.92-1.472-3.92-3.968 0-2.384 1.808-3.936 4.32-3.936C8 .392 9.36 2.888 9.36 6.136c0 3.328-1.248 6.272-4.704 6.272-2.528 0-3.712-1.728-3.84-3.2h2.16c.112.96.864 1.504 1.824 1.504 1.456 0 2.352-1.376 2.352-3.52zm-2.256-5.12c-1.2 0-2.08.88-2.08 2.272 0 1.36.88 2.256 2.08 2.256 1.2 0 2.112-.896 2.112-2.256 0-1.376-.912-2.272-2.112-2.272zm12.208 5.12c-.496.624-1.424 1.104-2.656 1.104-2.128 0-3.92-1.472-3.92-3.968 0-2.384 1.808-3.936 4.32-3.936 3.104 0 4.464 2.496 4.464 5.744 0 3.328-1.248 6.272-4.704 6.272-2.528 0-3.712-1.728-3.84-3.2h2.16c.112.96.864 1.504 1.824 1.504 1.456 0 2.352-1.376 2.352-3.52zm-2.256-5.12c-1.2 0-2.08.88-2.08 2.272 0 1.36.88 2.256 2.08 2.256 1.2 0 2.112-.896 2.112-2.256 0-1.376-.912-2.272-2.112-2.272z" transform="translate(0 10)"/>
          <use id="pet-seat-icon-seatnumber_99" xlink:href="#pet-seat-icon" transform="translate(0 -12)"/>
        </g>
      </g>
      <g id="seat_95" transform="matrix(-1 0 0 1 302 0)">
        <path d="M41 .5c.966 0 1.841.392 2.475 1.025A3.489 3.489 0 0144.5 4h0v35c0 .966-.392 1.841-1.025 2.475A3.489 3.489 0 0141 42.5h0H.5V.5z" id="seat_95_shape" stroke="#1B50AF" fill="#FFF" transform="rotate(-180 22.5 21.5)"/>
        <path id="Line" stroke="#1B50AF" fill="#FFF" stroke-linecap="square" d="M35.5 42.5V.488"/>
        <g id="seatnumber_95" transform="translate(9.568 16.392)" fill="#1B50AF">
          <path d="M6.576 6.8c-.496.624-1.424 1.104-2.656 1.104C1.792 7.904 0 6.432 0 3.936 0 1.552 1.808 0 4.32 0c3.104 0 4.464 2.496 4.464 5.744 0 3.328-1.248 6.272-4.704 6.272-2.528 0-3.712-1.728-3.84-3.2H2.4c.112.96.864 1.504 1.824 1.504 1.456 0 2.352-1.376 2.352-3.52zM4.32 1.68c-1.2 0-2.08.88-2.08 2.272 0 1.36.88 2.256 2.08 2.256 1.2 0 2.112-.896 2.112-2.256 0-1.376-.912-2.272-2.112-2.272zM16.512 8c0-1.584-1.072-2.368-2.144-2.368-1.024 0-1.76.512-1.984 1.056l-2.016-.096.768-6.384h7.152v1.856h-5.344l-.32 2.48c.48-.352 1.232-.64 2.304-.64 1.984 0 3.824 1.408 3.824 4.08 0 2.56-1.984 4.032-4.368 4.032-2.72 0-4.16-1.856-4.288-3.856h2.08c.128 1.2.816 2.192 2.24 2.192 1.216 0 2.096-.88 2.096-2.352z" transform="matrix(-1 0 0 1 18.752 0)"/>
        </g>
        <g id="seatnumber_95-with-service-icon" transform="translate(9.568 16.392)">
          <path d="M6.576 6.8c-.496.624-1.424 1.104-2.656 1.104C1.792 7.904 0 6.432 0 3.936 0 1.552 1.808 0 4.32 0c3.104 0 4.464 2.496 4.464 5.744 0 3.328-1.248 6.272-4.704 6.272-2.528 0-3.712-1.728-3.84-3.2H2.4c.112.96.864 1.504 1.824 1.504 1.456 0 2.352-1.376 2.352-3.52zM4.32 1.68c-1.2 0-2.08.88-2.08 2.272 0 1.36.88 2.256 2.08 2.256 1.2 0 2.112-.896 2.112-2.256 0-1.376-.912-2.272-2.112-2.272zM16.512 8c0-1.584-1.072-2.368-2.144-2.368-1.024 0-1.76.512-1.984 1.056l-2.016-.096.768-6.384h7.152v1.856h-5.344l-.32 2.48c.48-.352 1.232-.64 2.304-.64 1.984 0 3.824 1.408 3.824 4.08 0 2.56-1.984 4.032-4.368 4.032-2.72 0-4.16-1.856-4.288-3.856h2.08c.128 1.2.816 2.192 2.24 2.192 1.216 0 2.096-.88 2.096-2.352z" transform="translate(0 10)"/>
          <use id="pet-seat-icon-seatnumber_95" xlink:href="#pet-seat-icon" transform="translate(0 -12)"/>
        </g>
      </g>
      <g id="seat_91" transform="translate(334)">
        <path d="M41 .5c.966 0 1.841.392 2.475 1.025A3.489 3.489 0 0144.5 4h0v35c0 .966-.392 1.841-1.025 2.475A3.489 3.489 0 0141 42.5h0H.5V.5z" id="seat_91_shape" stroke="#1B50AF" fill="#FFF" transform="rotate(-180 22.5 21.5)"/>
        <path id="Line" stroke="#1B50AF" fill="#FFF" stroke-linecap="square" d="M35.5 42.5V.488"/>
        <g id="seatnumber_91" transform="translate(11.6 16.392)" fill="#1B50AF">
          <path d="M6.576 6.8c-.496.624-1.424 1.104-2.656 1.104C1.792 7.904 0 6.432 0 3.936 0 1.552 1.808 0 4.32 0c3.104 0 4.464 2.496 4.464 5.744 0 3.328-1.248 6.272-4.704 6.272-2.528 0-3.712-1.728-3.84-3.2H2.4c.112.96.864 1.504 1.824 1.504 1.456 0 2.352-1.376 2.352-3.52zM4.32 1.68c-1.2 0-2.08.88-2.08 2.272 0 1.36.88 2.256 2.08 2.256 1.2 0 2.112-.896 2.112-2.256 0-1.376-.912-2.272-2.112-2.272zm7.6 10.128V3.136H9.424V1.632c1.68-.048 2.464-.16 3.024-1.424h1.68v11.6H11.92z"/>
        </g>
        <g id="seatnumber_91-with-service-icon" transform="translate(11.6 16.392)">
          <path d="M6.576 6.8c-.496.624-1.424 1.104-2.656 1.104C1.792 7.904 0 6.432 0 3.936 0 1.552 1.808 0 4.32 0c3.104 0 4.464 2.496 4.464 5.744 0 3.328-1.248 6.272-4.704 6.272-2.528 0-3.712-1.728-3.84-3.2H2.4c.112.96.864 1.504 1.824 1.504 1.456 0 2.352-1.376 2.352-3.52zM4.32 1.68c-1.2 0-2.08.88-2.08 2.272 0 1.36.88 2.256 2.08 2.256 1.2 0 2.112-.896 2.112-2.256 0-1.376-.912-2.272-2.112-2.272zm7.6 10.128V3.136H9.424V1.632c1.68-.048 2.464-.16 3.024-1.424h1.68v11.6H11.92z" transform="translate(0 10)"/>
          <use id="pet-seat-icon-seatnumber_91" xlink:href="#pet-seat-icon" transform="translate(0 -12)"/>
        </g>
      </g>
      <g id="seat_87" transform="translate(390)">
        <path d="M41 .5c.966 0 1.841.392 2.475 1.025A3.489 3.489 0 0144.5 4h0v35c0 .966-.392 1.841-1.025 2.475A3.489 3.489 0 0141 42.5h0H.5V.5z" id="seat_87_shape" stroke="#1B50AF" fill="#FFF" transform="rotate(-180 22.5 21.5)"/>
        <path id="Line" stroke="#1B50AF" fill="#FFF" stroke-linecap="square" d="M35.5 42.5V.488"/>
        <g id="seatnumber_87" transform="translate(10.528 16.392)" fill="#1B50AF" fill-rule="nonzero">
          <path d="M8.432 2.976c0 1.04-.416 2.016-1.408 2.624 1.296.736 1.76 1.776 1.76 2.896 0 2.272-1.936 3.52-4.4 3.52C1.936 12.016 0 10.768 0 8.496 0 7.376.48 6.32 1.776 5.6.816 5.056.352 4.016.352 2.992.352 1.264 1.936 0 4.384 0c2.464 0 4.048 1.264 4.048 2.976zM4.384 1.664c-1.152 0-1.888.624-1.888 1.584 0 .96.736 1.664 1.888 1.664s1.904-.704 1.904-1.664-.752-1.584-1.904-1.584zM2.256 8.4c0 1.152.832 1.952 2.128 1.952 1.312 0 2.144-.8 2.144-1.952s-.832-1.904-2.144-1.904c-1.296 0-2.128.752-2.128 1.904zM9.472.208H18v1.856c-3.024 3.088-4.496 5.568-4.72 9.744h-2.432c.192-4.032 2.336-7.296 4.928-9.744H9.472V.208z"/>
        </g>
        <g id="seatnumber_87-with-service-icon" transform="translate(10.528 16.392)" fill-rule="nonzero">
          <path d="M8.432 2.976c0 1.04-.416 2.016-1.408 2.624 1.296.736 1.76 1.776 1.76 2.896 0 2.272-1.936 3.52-4.4 3.52C1.936 12.016 0 10.768 0 8.496 0 7.376.48 6.32 1.776 5.6.816 5.056.352 4.016.352 2.992.352 1.264 1.936 0 4.384 0c2.464 0 4.048 1.264 4.048 2.976zM4.384 1.664c-1.152 0-1.888.624-1.888 1.584 0 .96.736 1.664 1.888 1.664s1.904-.704 1.904-1.664-.752-1.584-1.904-1.584zM2.256 8.4c0 1.152.832 1.952 2.128 1.952 1.312 0 2.144-.8 2.144-1.952s-.832-1.904-2.144-1.904c-1.296 0-2.128.752-2.128 1.904zM9.472.208H18v1.856c-3.024 3.088-4.496 5.568-4.72 9.744h-2.432c.192-4.032 2.336-7.296 4.928-9.744H9.472V.208z" transform="translate(0 10)"/>
          <use id="pet-seat-icon-seatnumber_87" xlink:href="#pet-seat-icon" transform="translate(0 -12)"/>
        </g>
      </g>
      <g id="seat_83" transform="translate(446)">
        <path d="M41 .5c.966 0 1.841.392 2.475 1.025A3.489 3.489 0 0144.5 4h0v35c0 .966-.392 1.841-1.025 2.475A3.489 3.489 0 0141 42.5h0H.5V.5z" id="seat_83_shape" stroke="#1B50AF" fill="#FFF" transform="rotate(-180 22.5 21.5)"/>
        <path id="Line" stroke="#1B50AF" fill="#FFF" stroke-linecap="square" d="M35.5 42.5V.488"/>
        <g id="seatnumber_83" transform="translate(9.696 16.392)" fill="#1B50AF">
          <path d="M8.432 2.976c0 1.04-.416 2.016-1.408 2.624 1.296.736 1.76 1.776 1.76 2.896 0 2.272-1.936 3.52-4.4 3.52C1.936 12.016 0 10.768 0 8.496 0 7.376.48 6.32 1.776 5.6.816 5.056.352 4.016.352 2.992.352 1.264 1.936 0 4.384 0c2.464 0 4.048 1.264 4.048 2.976zM4.384 1.664c-1.152 0-1.888.624-1.888 1.584 0 .96.736 1.664 1.888 1.664s1.904-.704 1.904-1.664-.752-1.584-1.904-1.584zM2.256 8.4c0 1.152.832 1.952 2.128 1.952 1.312 0 2.144-.8 2.144-1.952s-.832-1.904-2.144-1.904c-1.296 0-2.128.752-2.128 1.904zm14.224.144c0-1.36-1.264-1.904-2.912-1.904h-.464V4.912h.384c1.664 0 2.704-.608 2.704-1.696 0-1.008-.88-1.552-1.84-1.552-1.328 0-2.176.848-2.288 2.048H9.968C10.224 1.408 11.824 0 14.48 0c1.936 0 3.936.928 3.936 3.12 0 1.12-.688 2.064-1.568 2.544A3.035 3.035 0 0118.72 8.48c0 2.352-2.032 3.536-4.48 3.536-2.656 0-4.224-1.728-4.368-3.856h2.08c.16 1.168.912 2.192 2.352 2.192 1.2 0 2.176-.72 2.176-1.808z"/>
        </g>
        <g id="seatnumber_83-with-service-icon" transform="translate(9.696 16.392)">
          <path d="M8.432 2.976c0 1.04-.416 2.016-1.408 2.624 1.296.736 1.76 1.776 1.76 2.896 0 2.272-1.936 3.52-4.4 3.52C1.936 12.016 0 10.768 0 8.496 0 7.376.48 6.32 1.776 5.6.816 5.056.352 4.016.352 2.992.352 1.264 1.936 0 4.384 0c2.464 0 4.048 1.264 4.048 2.976zM4.384 1.664c-1.152 0-1.888.624-1.888 1.584 0 .96.736 1.664 1.888 1.664s1.904-.704 1.904-1.664-.752-1.584-1.904-1.584zM2.256 8.4c0 1.152.832 1.952 2.128 1.952 1.312 0 2.144-.8 2.144-1.952s-.832-1.904-2.144-1.904c-1.296 0-2.128.752-2.128 1.904zm14.224.144c0-1.36-1.264-1.904-2.912-1.904h-.464V4.912h.384c1.664 0 2.704-.608 2.704-1.696 0-1.008-.88-1.552-1.84-1.552-1.328 0-2.176.848-2.288 2.048H9.968C10.224 1.408 11.824 0 14.48 0c1.936 0 3.936.928 3.936 3.12 0 1.12-.688 2.064-1.568 2.544A3.035 3.035 0 0118.72 8.48c0 2.352-2.032 3.536-4.48 3.536-2.656 0-4.224-1.728-4.368-3.856h2.08c.16 1.168.912 2.192 2.352 2.192 1.2 0 2.176-.72 2.176-1.808z" transform="translate(0 10)"/>
          <use id="pet-seat-icon-seatnumber_83" xlink:href="#pet-seat-icon" transform="translate(0 -12)"/>
        </g>
      </g>
      <g id="seat_79" transform="translate(502)">
        <path d="M41 .5c.966 0 1.841.392 2.475 1.025A3.489 3.489 0 0144.5 4h0v35c0 .966-.392 1.841-1.025 2.475A3.489 3.489 0 0141 42.5h0H.5V.5z" id="seat_79_shape" stroke="#1B50AF" fill="#FFF" transform="rotate(-180 22.5 21.5)"/>
        <path id="Line" stroke="#1B50AF" fill="#FFF" stroke-linecap="square" d="M35.5 42.5V.488"/>
        <g id="seatnumber_79" transform="translate(9.896 16.392)" fill="#1B50AF">
          <path d="M0 .208h8.528v1.856c-3.024 3.088-4.496 5.568-4.72 9.744H1.376c.192-4.032 2.336-7.296 4.928-9.744H0V.208zM15.312 6.8c-.496.624-1.424 1.104-2.656 1.104-2.128 0-3.92-1.472-3.92-3.968C8.736 1.552 10.544 0 13.056 0c3.104 0 4.464 2.496 4.464 5.744 0 3.328-1.248 6.272-4.704 6.272-2.528 0-3.712-1.728-3.84-3.2h2.16c.112.96.864 1.504 1.824 1.504 1.456 0 2.352-1.376 2.352-3.52zm-2.256-5.12c-1.2 0-2.08.88-2.08 2.272 0 1.36.88 2.256 2.08 2.256 1.2 0 2.112-.896 2.112-2.256 0-1.376-.912-2.272-2.112-2.272z"/>
        </g>
        <g id="seatnumber_79-with-service-icon" transform="translate(9.896 16.392)">
          <path d="M0 .208h8.528v1.856c-3.024 3.088-4.496 5.568-4.72 9.744H1.376c.192-4.032 2.336-7.296 4.928-9.744H0V.208zM15.312 6.8c-.496.624-1.424 1.104-2.656 1.104-2.128 0-3.92-1.472-3.92-3.968C8.736 1.552 10.544 0 13.056 0c3.104 0 4.464 2.496 4.464 5.744 0 3.328-1.248 6.272-4.704 6.272-2.528 0-3.712-1.728-3.84-3.2h2.16c.112.96.864 1.504 1.824 1.504 1.456 0 2.352-1.376 2.352-3.52zm-2.256-5.12c-1.2 0-2.08.88-2.08 2.272 0 1.36.88 2.256 2.08 2.256 1.2 0 2.112-.896 2.112-2.256 0-1.376-.912-2.272-2.112-2.272z" transform="translate(0 10)"/>
          <use id="pet-seat-icon-seatnumber_79" xlink:href="#pet-seat-icon" transform="translate(0 -12)"/>
        </g>
      </g>
      <g id="seat_75" transform="translate(558)">
        <path d="M41 .5c.966 0 1.841.392 2.475 1.025A3.489 3.489 0 0144.5 4h0v35c0 .966-.392 1.841-1.025 2.475A3.489 3.489 0 0141 42.5h0H.5V.5z" id="seat_75_shape" stroke="#1B50AF" fill="#FFF" transform="rotate(-180 22.5 21.5)"/>
        <path id="Line" stroke="#1B50AF" fill="#FFF" stroke-linecap="square" d="M35.5 42.5V.488"/>
        <g id="seatnumber_75" transform="translate(9.888 16.6)" fill="#1B50AF">
          <path d="M0 0h8.528v1.856C5.504 4.944 4.032 7.424 3.808 11.6H1.376c.192-4.032 2.336-7.296 4.928-9.744H0V0zm15.296 7.792c0-1.584-1.072-2.368-2.144-2.368-1.024 0-1.76.512-1.984 1.056l-2.016-.096L9.92 0h7.152v1.856h-5.344l-.32 2.48c.48-.352 1.232-.64 2.304-.64 1.984 0 3.824 1.408 3.824 4.08 0 2.56-1.984 4.032-4.368 4.032-2.72 0-4.16-1.856-4.288-3.856h2.08c.128 1.2.816 2.192 2.24 2.192 1.216 0 2.096-.88 2.096-2.352z"/>
        </g>
        <g id="seatnumber_75-with-service-icon" transform="translate(9.888 16.6)">
          <path d="M0 0h8.528v1.856C5.504 4.944 4.032 7.424 3.808 11.6H1.376c.192-4.032 2.336-7.296 4.928-9.744H0V0zm15.296 7.792c0-1.584-1.072-2.368-2.144-2.368-1.024 0-1.76.512-1.984 1.056l-2.016-.096L9.92 0h7.152v1.856h-5.344l-.32 2.48c.48-.352 1.232-.64 2.304-.64 1.984 0 3.824 1.408 3.824 4.08 0 2.56-1.984 4.032-4.368 4.032-2.72 0-4.16-1.856-4.288-3.856h2.08c.128 1.2.816 2.192 2.24 2.192 1.216 0 2.096-.88 2.096-2.352z" transform="translate(0 10)"/>
          <use id="pet-seat-icon-seatnumber_75" xlink:href="#pet-seat-icon" transform="translate(0 -12)"/>
        </g>
      </g>
      <g id="seat_71" transform="translate(614)">
        <path d="M41 .5c.966 0 1.841.392 2.475 1.025A3.489 3.489 0 0144.5 4h0v35c0 .966-.392 1.841-1.025 2.475A3.489 3.489 0 0141 42.5h0H.5V.5z" id="seat_71_shape" stroke="#1B50AF" fill="#FFF" transform="rotate(-180 22.5 21.5)"/>
        <path id="Line" stroke="#1B50AF" fill="#FFF" stroke-linecap="square" d="M35.5 42.5V.488"/>
        <g id="seatnumber_71" transform="translate(11.92 16.6)" fill="#1B50AF">
          <path d="M0 0h8.528v1.856C5.504 4.944 4.032 7.424 3.808 11.6H1.376c.192-4.032 2.336-7.296 4.928-9.744H0V0zm10.704 11.6V2.928H8.208V1.424c1.68-.048 2.464-.16 3.024-1.424h1.68v11.6h-2.208z"/>
        </g>
        <g id="seatnumber_71-with-service-icon" transform="translate(11.92 16.6)">
          <path d="M0 0h8.528v1.856C5.504 4.944 4.032 7.424 3.808 11.6H1.376c.192-4.032 2.336-7.296 4.928-9.744H0V0zm10.704 11.6V2.928H8.208V1.424c1.68-.048 2.464-.16 3.024-1.424h1.68v11.6h-2.208z" transform="translate(0 10)"/>
          <use id="pet-seat-icon-seatnumber_71" xlink:href="#pet-seat-icon" transform="translate(0 -12)"/>
        </g>
      </g>
      <g id="seat_67" transform="translate(670)">
        <path d="M41 .5c.966 0 1.841.392 2.475 1.025A3.489 3.489 0 0144.5 4h0v35c0 .966-.392 1.841-1.025 2.475A3.489 3.489 0 0141 42.5h0H.5V.5z" id="seat_67_shape" stroke="#1B50AF" fill="#FFF" transform="rotate(-180 22.5 21.5)"/>
        <path id="Line" stroke="#1B50AF" fill="#FFF" stroke-linecap="square" d="M35.5 42.5V.488"/>
        <g id="seatnumber_67" transform="translate(10.536 16.392)" fill="#1B50AF">
          <path d="M2.208 5.216c.496-.624 1.424-1.104 2.64-1.104 2.144 0 3.936 1.456 3.936 3.968 0 2.384-1.808 3.936-4.32 3.936C1.36 12.016 0 9.52 0 6.272 0 2.944 1.232 0 4.704 0c2.528 0 3.712 1.712 3.84 3.2h-2.16c-.112-.96-.88-1.52-1.824-1.52-1.456 0-2.352 1.376-2.352 3.536zm2.256 5.136c1.2 0 2.08-.896 2.08-2.304 0-1.36-.88-2.256-2.08-2.256-1.216 0-2.128.896-2.128 2.256 0 1.392.912 2.304 2.128 2.304zM9.36.208h8.528v1.856c-3.024 3.088-4.496 5.568-4.72 9.744h-2.432c.192-4.032 2.336-7.296 4.928-9.744H9.36V.208z"/>
        </g>
        <g id="seatnumber_67-with-service-icon" transform="translate(10.536 16.392)">
          <path d="M2.208 5.216c.496-.624 1.424-1.104 2.64-1.104 2.144 0 3.936 1.456 3.936 3.968 0 2.384-1.808 3.936-4.32 3.936C1.36 12.016 0 9.52 0 6.272 0 2.944 1.232 0 4.704 0c2.528 0 3.712 1.712 3.84 3.2h-2.16c-.112-.96-.88-1.52-1.824-1.52-1.456 0-2.352 1.376-2.352 3.536zm2.256 5.136c1.2 0 2.08-.896 2.08-2.304 0-1.36-.88-2.256-2.08-2.256-1.216 0-2.128.896-2.128 2.256 0 1.392.912 2.304 2.128 2.304zM9.36.208h8.528v1.856c-3.024 3.088-4.496 5.568-4.72 9.744h-2.432c.192-4.032 2.336-7.296 4.928-9.744H9.36V.208z" transform="translate(0 10)"/>
          <use id="pet-seat-icon-seatnumber_67" xlink:href="#pet-seat-icon" transform="translate(0 -12)"/>
        </g>
      </g>
      <g id="seat_70" transform="translate(637 121)">
        <path d="M41 .5c.966 0 1.841.392 2.475 1.025A3.489 3.489 0 0144.5 4h0v35c0 .966-.392 1.841-1.025 2.475A3.489 3.489 0 0141 42.5h0H.5V.5z" id="seat_70_shape" stroke="#1B50AF" fill="#FFF" transform="rotate(-180 22.5 21.5)"/>
        <path id="Line" stroke="#1B50AF" fill="#FFF" stroke-linecap="square" d="M35.5 42.5V.488"/>
        <g id="seatnumber_70" transform="translate(9.568 16.392)" fill="#1B50AF">
          <path d="M0 .208h8.528v1.856c-3.024 3.088-4.496 5.568-4.72 9.744H1.376c.192-4.032 2.336-7.296 4.928-9.744H0V.208zm8.848 5.776C8.848 2.464 10.416 0 13.52 0c3.088 0 4.656 2.464 4.656 5.984 0 3.536-1.568 6.032-4.656 6.032-3.104 0-4.672-2.496-4.672-6.032zm7.072 0c0-2.768-.832-4.32-2.4-4.32s-2.416 1.552-2.416 4.32c0 2.784.848 4.368 2.416 4.368s2.4-1.584 2.4-4.368z"/>
        </g>
        <g id="seatnumber_70-with-service-icon" transform="translate(9.568 16.392)">
          <path d="M0 .208h8.528v1.856c-3.024 3.088-4.496 5.568-4.72 9.744H1.376c.192-4.032 2.336-7.296 4.928-9.744H0V.208zm8.848 5.776C8.848 2.464 10.416 0 13.52 0c3.088 0 4.656 2.464 4.656 5.984 0 3.536-1.568 6.032-4.656 6.032-3.104 0-4.672-2.496-4.672-6.032zm7.072 0c0-2.768-.832-4.32-2.4-4.32s-2.416 1.552-2.416 4.32c0 2.784.848 4.368 2.416 4.368s2.4-1.584 2.4-4.368z" transform="translate(0 10)"/>
          <use id="pet-seat-icon-seatnumber_70" xlink:href="#pet-seat-icon" transform="translate(0 -12)"/>
        </g>
      </g>
      <g id="seat_69" transform="translate(637 164)">
        <path d="M41 .5c.966 0 1.841.392 2.475 1.025A3.489 3.489 0 0144.5 4h0v35c0 .966-.392 1.841-1.025 2.475A3.489 3.489 0 0141 42.5h0H.5V.5z" id="seat_69_shape" stroke="#1B50AF" fill="#FFF" transform="rotate(-180 22.5 21.5)"/>
        <path id="Line" stroke="#1B50AF" fill="#FFF" stroke-linecap="square" d="M35.5 42.5V.488"/>
        <g id="seatnumber_69" transform="translate(9.64 16.392)" fill="#1B50AF">
          <path d="M2.208 5.216c.496-.624 1.424-1.104 2.64-1.104 2.144 0 3.936 1.456 3.936 3.968 0 2.384-1.808 3.936-4.32 3.936C1.36 12.016 0 9.52 0 6.272 0 2.944 1.232 0 4.704 0c2.528 0 3.712 1.712 3.84 3.2h-2.16c-.112-.96-.88-1.52-1.824-1.52-1.456 0-2.352 1.376-2.352 3.536zm2.256 5.136c1.2 0 2.08-.896 2.08-2.304 0-1.36-.88-2.256-2.08-2.256-1.216 0-2.128.896-2.128 2.256 0 1.392.912 2.304 2.128 2.304zM16.512 6.8c-.496.624-1.424 1.104-2.656 1.104-2.128 0-3.92-1.472-3.92-3.968C9.936 1.552 11.744 0 14.256 0c3.104 0 4.464 2.496 4.464 5.744 0 3.328-1.248 6.272-4.704 6.272-2.528 0-3.712-1.728-3.84-3.2h2.16c.112.96.864 1.504 1.824 1.504 1.456 0 2.352-1.376 2.352-3.52zm-2.256-5.12c-1.2 0-2.08.88-2.08 2.272 0 1.36.88 2.256 2.08 2.256 1.2 0 2.112-.896 2.112-2.256 0-1.376-.912-2.272-2.112-2.272z"/>
        </g>
        <g id="seatnumber_69-with-service-icon" transform="translate(9.64 16.392)">
          <path d="M2.208 5.216c.496-.624 1.424-1.104 2.64-1.104 2.144 0 3.936 1.456 3.936 3.968 0 2.384-1.808 3.936-4.32 3.936C1.36 12.016 0 9.52 0 6.272 0 2.944 1.232 0 4.704 0c2.528 0 3.712 1.712 3.84 3.2h-2.16c-.112-.96-.88-1.52-1.824-1.52-1.456 0-2.352 1.376-2.352 3.536zm2.256 5.136c1.2 0 2.08-.896 2.08-2.304 0-1.36-.88-2.256-2.08-2.256-1.216 0-2.128.896-2.128 2.256 0 1.392.912 2.304 2.128 2.304zM16.512 6.8c-.496.624-1.424 1.104-2.656 1.104-2.128 0-3.92-1.472-3.92-3.968C9.936 1.552 11.744 0 14.256 0c3.104 0 4.464 2.496 4.464 5.744 0 3.328-1.248 6.272-4.704 6.272-2.528 0-3.712-1.728-3.84-3.2h2.16c.112.96.864 1.504 1.824 1.504 1.456 0 2.352-1.376 2.352-3.52zm-2.256-5.12c-1.2 0-2.08.88-2.08 2.272 0 1.36.88 2.256 2.08 2.256 1.2 0 2.112-.896 2.112-2.256 0-1.376-.912-2.272-2.112-2.272z" transform="translate(0 10)"/>
          <use id="pet-seat-icon-seatnumber_69" xlink:href="#pet-seat-icon" transform="translate(0 -12)"/>
        </g>
      </g>
      <g id="seat_74" transform="translate(581 121)">
        <path d="M41 .5c.966 0 1.841.392 2.475 1.025A3.489 3.489 0 0144.5 4h0v35c0 .966-.392 1.841-1.025 2.475A3.489 3.489 0 0141 42.5h0H.5V.5z" id="seat_74_shape" stroke="#1B50AF" fill="#FFF" transform="rotate(-180 22.5 21.5)"/>
        <path id="Line" stroke="#1B50AF" fill="#FFF" stroke-linecap="square" d="M35.5 42.5V.488"/>
        <g id="seatnumber_74" transform="translate(9.8 16.6)" fill="#1B50AF">
          <path d="M0 0h8.528v1.856C5.504 4.944 4.032 7.424 3.808 11.6H1.376c.192-4.032 2.336-7.296 4.928-9.744H0V0zm18.24 8.816h-1.984V11.6h-2.192V8.816H8.336V7.088L14.096 0h2.16v6.944h1.984v1.872zm-7.488-1.872h3.312V2.8l-3.312 4.144z"/>
        </g>
        <g id="seatnumber_74-with-service-icon" transform="translate(9.8 16.6)">
          <path d="M0 0h8.528v1.856C5.504 4.944 4.032 7.424 3.808 11.6H1.376c.192-4.032 2.336-7.296 4.928-9.744H0V0zm18.24 8.816h-1.984V11.6h-2.192V8.816H8.336V7.088L14.096 0h2.16v6.944h1.984v1.872zm-7.488-1.872h3.312V2.8l-3.312 4.144z" transform="translate(0 10)"/>
          <use id="pet-seat-icon-seatnumber_74" xlink:href="#pet-seat-icon" transform="translate(0 -12)"/>
        </g>
      </g>
      <g id="seat_73" transform="translate(581 164)">
        <path d="M41 .5c.966 0 1.841.392 2.475 1.025A3.489 3.489 0 0144.5 4h0v35c0 .966-.392 1.841-1.025 2.475A3.489 3.489 0 0141 42.5h0H.5V.5z" id="seat_73_shape" stroke="#1B50AF" fill="#FFF" transform="rotate(-180 22.5 21.5)"/>
        <path id="Line" stroke="#1B50AF" fill="#FFF" stroke-linecap="square" d="M35.5 42.5V.488"/>
        <g id="seatnumber_73" transform="translate(9.96 16.392)" fill="#1B50AF">
          <path d="M0 .208h8.528v1.856c-3.024 3.088-4.496 5.568-4.72 9.744H1.376c.192-4.032 2.336-7.296 4.928-9.744H0V.208zm15.168 8.336c0-1.36-1.264-1.904-2.912-1.904h-.464V4.912h.384c1.664 0 2.704-.608 2.704-1.696 0-1.008-.88-1.552-1.84-1.552-1.328 0-2.176.848-2.288 2.048H8.656C8.912 1.408 10.512 0 13.168 0c1.936 0 3.936.928 3.936 3.12 0 1.12-.688 2.064-1.568 2.544a3.035 3.035 0 011.872 2.816c0 2.352-2.032 3.536-4.48 3.536-2.656 0-4.224-1.728-4.368-3.856h2.08c.16 1.168.912 2.192 2.352 2.192 1.2 0 2.176-.72 2.176-1.808z"/>
        </g>
        <g id="seatnumber_73-with-service-icon" transform="translate(9.96 16.392)">
          <path d="M0 .208h8.528v1.856c-3.024 3.088-4.496 5.568-4.72 9.744H1.376c.192-4.032 2.336-7.296 4.928-9.744H0V.208zm15.168 8.336c0-1.36-1.264-1.904-2.912-1.904h-.464V4.912h.384c1.664 0 2.704-.608 2.704-1.696 0-1.008-.88-1.552-1.84-1.552-1.328 0-2.176.848-2.288 2.048H8.656C8.912 1.408 10.512 0 13.168 0c1.936 0 3.936.928 3.936 3.12 0 1.12-.688 2.064-1.568 2.544a3.035 3.035 0 011.872 2.816c0 2.352-2.032 3.536-4.48 3.536-2.656 0-4.224-1.728-4.368-3.856h2.08c.16 1.168.912 2.192 2.352 2.192 1.2 0 2.176-.72 2.176-1.808z" transform="translate(0 10)"/>
          <use id="pet-seat-icon-seatnumber_73" xlink:href="#pet-seat-icon" transform="translate(0 -12)"/>
        </g>
      </g>
      <g id="seat_78" transform="translate(525 121)">
        <path d="M41 .5c.966 0 1.841.392 2.475 1.025A3.489 3.489 0 0144.5 4h0v35c0 .966-.392 1.841-1.025 2.475A3.489 3.489 0 0141 42.5h0H.5V.5z" id="seat_78_shape" stroke="#1B50AF" fill="#FFF" transform="rotate(-180 22.5 21.5)"/>
        <path id="Line" stroke="#1B50AF" fill="#FFF" stroke-linecap="square" d="M35.5 42.5V.488"/>
        <g id="seatnumber_78" transform="translate(9.744 16.392)" fill="#1B50AF">
          <path d="M0 .208h8.528v1.856c-3.024 3.088-4.496 5.568-4.72 9.744H1.376c.192-4.032 2.336-7.296 4.928-9.744H0V.208zm17.376 2.768c0 1.04-.416 2.016-1.408 2.624 1.296.736 1.76 1.776 1.76 2.896 0 2.272-1.936 3.52-4.4 3.52-2.448 0-4.384-1.248-4.384-3.52 0-1.12.48-2.176 1.776-2.896-.96-.544-1.424-1.584-1.424-2.608C9.296 1.264 10.88 0 13.328 0c2.464 0 4.048 1.264 4.048 2.976zm-4.048-1.312c-1.152 0-1.888.624-1.888 1.584 0 .96.736 1.664 1.888 1.664s1.904-.704 1.904-1.664-.752-1.584-1.904-1.584zM11.2 8.4c0 1.152.832 1.952 2.128 1.952 1.312 0 2.144-.8 2.144-1.952s-.832-1.904-2.144-1.904c-1.296 0-2.128.752-2.128 1.904z"/>
        </g>
        <g id="seatnumber_78-with-service-icon" transform="translate(9.744 16.392)">
          <path d="M0 .208h8.528v1.856c-3.024 3.088-4.496 5.568-4.72 9.744H1.376c.192-4.032 2.336-7.296 4.928-9.744H0V.208zm17.376 2.768c0 1.04-.416 2.016-1.408 2.624 1.296.736 1.76 1.776 1.76 2.896 0 2.272-1.936 3.52-4.4 3.52-2.448 0-4.384-1.248-4.384-3.52 0-1.12.48-2.176 1.776-2.896-.96-.544-1.424-1.584-1.424-2.608C9.296 1.264 10.88 0 13.328 0c2.464 0 4.048 1.264 4.048 2.976zm-4.048-1.312c-1.152 0-1.888.624-1.888 1.584 0 .96.736 1.664 1.888 1.664s1.904-.704 1.904-1.664-.752-1.584-1.904-1.584zM11.2 8.4c0 1.152.832 1.952 2.128 1.952 1.312 0 2.144-.8 2.144-1.952s-.832-1.904-2.144-1.904c-1.296 0-2.128.752-2.128 1.904z" transform="translate(0 10)"/>
          <use id="pet-seat-icon-seatnumber_78" xlink:href="#pet-seat-icon" transform="translate(0 -12)"/>
        </g>
      </g>
      <g id="seat_77" transform="translate(525 164)">
        <path d="M41 .5c.966 0 1.841.392 2.475 1.025A3.489 3.489 0 0144.5 4h0v35c0 .966-.392 1.841-1.025 2.475A3.489 3.489 0 0141 42.5h0H.5V.5z" id="seat_77_shape" stroke="#1B50AF" fill="#FFF" transform="rotate(-180 22.5 21.5)"/>
        <path id="Line" stroke="#1B50AF" fill="#FFF" stroke-linecap="square" d="M35.5 42.5V.488"/>
        <g id="seatnumber_77" transform="translate(10.792 16.6)" fill="#1B50AF">
          <path d="M0 0h8.528v1.856C5.504 4.944 4.032 7.424 3.808 11.6H1.376c.192-4.032 2.336-7.296 4.928-9.744H0V0zm8.16 0h8.528v1.856c-3.024 3.088-4.496 5.568-4.72 9.744H9.536c.192-4.032 2.336-7.296 4.928-9.744H8.16V0z"/>
        </g>
        <g id="seatnumber_77-with-service-icon" transform="translate(10.792 16.6)">
          <path d="M0 0h8.528v1.856C5.504 4.944 4.032 7.424 3.808 11.6H1.376c.192-4.032 2.336-7.296 4.928-9.744H0V0zm8.16 0h8.528v1.856c-3.024 3.088-4.496 5.568-4.72 9.744H9.536c.192-4.032 2.336-7.296 4.928-9.744H8.16V0z" transform="translate(0 10)"/>
          <use id="pet-seat-icon-seatnumber_77" xlink:href="#pet-seat-icon" transform="translate(0 -12)"/>
        </g>
      </g>
      <g id="seat_82" transform="translate(469 121)">
        <path d="M41 .5c.966 0 1.841.392 2.475 1.025A3.489 3.489 0 0144.5 4h0v35c0 .966-.392 1.841-1.025 2.475A3.489 3.489 0 0141 42.5h0H.5V.5z" id="seat_82_shape" stroke="#1B50AF" fill="#FFF" transform="rotate(-180 22.5 21.5)"/>
        <path id="Line" stroke="#1B50AF" fill="#FFF" stroke-linecap="square" d="M35.5 42.5V.488"/>
        <g id="seatnumber_82" transform="translate(9.976 16.392)" fill="#1B50AF">
          <path d="M8.432 2.976c0 1.04-.416 2.016-1.408 2.624 1.296.736 1.76 1.776 1.76 2.896 0 2.272-1.936 3.52-4.4 3.52C1.936 12.016 0 10.768 0 8.496 0 7.376.48 6.32 1.776 5.6.816 5.056.352 4.016.352 2.992.352 1.264 1.936 0 4.384 0c2.464 0 4.048 1.264 4.048 2.976zM4.384 1.664c-1.152 0-1.888.624-1.888 1.584 0 .96.736 1.664 1.888 1.664s1.904-.704 1.904-1.664-.752-1.584-1.904-1.584zM2.256 8.4c0 1.152.832 1.952 2.128 1.952 1.312 0 2.144-.8 2.144-1.952s-.832-1.904-2.144-1.904c-1.296 0-2.128.752-2.128 1.904zm15.888-5.28c0 2.176-2.112 4.448-5.68 6.832h5.952v1.856H9.888v-1.792c3.728-3.008 6.032-4.944 6.032-6.784 0-1.008-.64-1.6-1.712-1.6-.976 0-1.968.592-1.968 2.32h-2.144C10.064 1.552 11.76 0 14.336 0c2.32 0 3.808 1.104 3.808 3.12z"/>
        </g>
        <g id="seatnumber_82-with-service-icon" transform="translate(9.976 16.392)">
          <path d="M8.432 2.976c0 1.04-.416 2.016-1.408 2.624 1.296.736 1.76 1.776 1.76 2.896 0 2.272-1.936 3.52-4.4 3.52C1.936 12.016 0 10.768 0 8.496 0 7.376.48 6.32 1.776 5.6.816 5.056.352 4.016.352 2.992.352 1.264 1.936 0 4.384 0c2.464 0 4.048 1.264 4.048 2.976zM4.384 1.664c-1.152 0-1.888.624-1.888 1.584 0 .96.736 1.664 1.888 1.664s1.904-.704 1.904-1.664-.752-1.584-1.904-1.584zM2.256 8.4c0 1.152.832 1.952 2.128 1.952 1.312 0 2.144-.8 2.144-1.952s-.832-1.904-2.144-1.904c-1.296 0-2.128.752-2.128 1.904zm15.888-5.28c0 2.176-2.112 4.448-5.68 6.832h5.952v1.856H9.888v-1.792c3.728-3.008 6.032-4.944 6.032-6.784 0-1.008-.64-1.6-1.712-1.6-.976 0-1.968.592-1.968 2.32h-2.144C10.064 1.552 11.76 0 14.336 0c2.32 0 3.808 1.104 3.808 3.12z" transform="translate(0 10)"/>
          <use id="pet-seat-icon-seatnumber_82" xlink:href="#pet-seat-icon" transform="translate(0 -12)"/>
        </g>
      </g>
      <g id="seat_81" transform="translate(469 164)">
        <path d="M41 .5c.966 0 1.841.392 2.475 1.025A3.489 3.489 0 0144.5 4h0v35c0 .966-.392 1.841-1.025 2.475A3.489 3.489 0 0141 42.5h0H.5V.5z" id="seat_81_shape" stroke="#1B50AF" fill="#FFF" transform="rotate(-180 22.5 21.5)"/>
        <path id="Line" stroke="#1B50AF" fill="#FFF" stroke-linecap="square" d="M35.5 42.5V.488"/>
        <g id="seatnumber_81" transform="translate(11.656 16.392)" fill="#1B50AF">
          <path d="M8.432 2.976c0 1.04-.416 2.016-1.408 2.624 1.296.736 1.76 1.776 1.76 2.896 0 2.272-1.936 3.52-4.4 3.52C1.936 12.016 0 10.768 0 8.496 0 7.376.48 6.32 1.776 5.6.816 5.056.352 4.016.352 2.992.352 1.264 1.936 0 4.384 0c2.464 0 4.048 1.264 4.048 2.976zM4.384 1.664c-1.152 0-1.888.624-1.888 1.584 0 .96.736 1.664 1.888 1.664s1.904-.704 1.904-1.664-.752-1.584-1.904-1.584zM2.256 8.4c0 1.152.832 1.952 2.128 1.952 1.312 0 2.144-.8 2.144-1.952s-.832-1.904-2.144-1.904c-1.296 0-2.128.752-2.128 1.904zm9.76 3.408V3.136H9.52V1.632c1.68-.048 2.464-.16 3.024-1.424h1.68v11.6h-2.208z"/>
        </g>
        <g id="seatnumber_81-with-service-icon" transform="translate(11.656 16.392)">
          <path d="M8.432 2.976c0 1.04-.416 2.016-1.408 2.624 1.296.736 1.76 1.776 1.76 2.896 0 2.272-1.936 3.52-4.4 3.52C1.936 12.016 0 10.768 0 8.496 0 7.376.48 6.32 1.776 5.6.816 5.056.352 4.016.352 2.992.352 1.264 1.936 0 4.384 0c2.464 0 4.048 1.264 4.048 2.976zM4.384 1.664c-1.152 0-1.888.624-1.888 1.584 0 .96.736 1.664 1.888 1.664s1.904-.704 1.904-1.664-.752-1.584-1.904-1.584zM2.256 8.4c0 1.152.832 1.952 2.128 1.952 1.312 0 2.144-.8 2.144-1.952s-.832-1.904-2.144-1.904c-1.296 0-2.128.752-2.128 1.904zm9.76 3.408V3.136H9.52V1.632c1.68-.048 2.464-.16 3.024-1.424h1.68v11.6h-2.208z" transform="translate(0 10)"/>
          <use id="pet-seat-icon-seatnumber_81" xlink:href="#pet-seat-icon" transform="translate(0 -12)"/>
        </g>
      </g>
      <g id="seat_86" transform="matrix(-1 0 0 1 437 121)">
        <path d="M41 .5c.966 0 1.841.392 2.475 1.025A3.489 3.489 0 0144.5 4h0v35c0 .966-.392 1.841-1.025 2.475A3.489 3.489 0 0141 42.5h0H.5V.5z" id="seat_86_shape" stroke="#1B50AF" fill="#FFF" transform="rotate(-180 22.5 21.5)"/>
        <path id="Line" stroke="#1B50AF" fill="#FFF" stroke-linecap="square" d="M35.5 42.5V.488"/>
        <g id="seatnumber_86" transform="translate(9.584 16.392)" fill="#1B50AF" fill-rule="nonzero">
          <path d="M8.432 2.976c0 1.04-.416 2.016-1.408 2.624 1.296.736 1.76 1.776 1.76 2.896 0 2.272-1.936 3.52-4.4 3.52C1.936 12.016 0 10.768 0 8.496 0 7.376.48 6.32 1.776 5.6.816 5.056.352 4.016.352 2.992.352 1.264 1.936 0 4.384 0c2.464 0 4.048 1.264 4.048 2.976zM4.384 1.664c-1.152 0-1.888.624-1.888 1.584 0 .96.736 1.664 1.888 1.664s1.904-.704 1.904-1.664-.752-1.584-1.904-1.584zM2.256 8.4c0 1.152.832 1.952 2.128 1.952 1.312 0 2.144-.8 2.144-1.952s-.832-1.904-2.144-1.904c-1.296 0-2.128.752-2.128 1.904zm10.112-3.184c.496-.624 1.424-1.104 2.64-1.104 2.144 0 3.936 1.456 3.936 3.968 0 2.384-1.808 3.936-4.32 3.936-3.104 0-4.464-2.496-4.464-5.744C10.16 2.944 11.392 0 14.864 0c2.528 0 3.712 1.712 3.84 3.2h-2.16c-.112-.96-.88-1.52-1.824-1.52-1.456 0-2.352 1.376-2.352 3.536zm2.256 5.136c1.2 0 2.08-.896 2.08-2.304 0-1.36-.88-2.256-2.08-2.256-1.216 0-2.128.896-2.128 2.256 0 1.392.912 2.304 2.128 2.304z" transform="matrix(-1 0 0 1 18.944 0)"/>
        </g>
        <g id="seatnumber_86-with-service-icon" transform="translate(9.584 16.392)" fill-rule="nonzero">
          <path d="M8.432 2.976c0 1.04-.416 2.016-1.408 2.624 1.296.736 1.76 1.776 1.76 2.896 0 2.272-1.936 3.52-4.4 3.52C1.936 12.016 0 10.768 0 8.496 0 7.376.48 6.32 1.776 5.6.816 5.056.352 4.016.352 2.992.352 1.264 1.936 0 4.384 0c2.464 0 4.048 1.264 4.048 2.976zM4.384 1.664c-1.152 0-1.888.624-1.888 1.584 0 .96.736 1.664 1.888 1.664s1.904-.704 1.904-1.664-.752-1.584-1.904-1.584zM2.256 8.4c0 1.152.832 1.952 2.128 1.952 1.312 0 2.144-.8 2.144-1.952s-.832-1.904-2.144-1.904c-1.296 0-2.128.752-2.128 1.904zm10.112-3.184c.496-.624 1.424-1.104 2.64-1.104 2.144 0 3.936 1.456 3.936 3.968 0 2.384-1.808 3.936-4.32 3.936-3.104 0-4.464-2.496-4.464-5.744C10.16 2.944 11.392 0 14.864 0c2.528 0 3.712 1.712 3.84 3.2h-2.16c-.112-.96-.88-1.52-1.824-1.52-1.456 0-2.352 1.376-2.352 3.536zm2.256 5.136c1.2 0 2.08-.896 2.08-2.304 0-1.36-.88-2.256-2.08-2.256-1.216 0-2.128.896-2.128 2.256 0 1.392.912 2.304 2.128 2.304z" transform="translate(0 10)"/>
          <use id="pet-seat-icon-seatnumber_86" xlink:href="#pet-seat-icon" transform="translate(0 -12)"/>
        </g>
      </g>
      <g id="seat_85" transform="matrix(-1 0 0 1 437 164)">
        <path d="M41 .5c.966 0 1.841.392 2.475 1.025A3.489 3.489 0 0144.5 4h0v35c0 .966-.392 1.841-1.025 2.475A3.489 3.489 0 0141 42.5h0H.5V.5z" id="seat_85_shape" stroke="#1B50AF" fill="#FFF" transform="rotate(-180 22.5 21.5)"/>
        <path id="Line" stroke="#1B50AF" fill="#FFF" stroke-linecap="square" d="M35.5 42.5V.488"/>
        <g id="seatnumber_85" transform="translate(9.624 16.392)" fill="#1B50AF">
          <path d="M8.432 2.976c0 1.04-.416 2.016-1.408 2.624 1.296.736 1.76 1.776 1.76 2.896 0 2.272-1.936 3.52-4.4 3.52C1.936 12.016 0 10.768 0 8.496 0 7.376.48 6.32 1.776 5.6.816 5.056.352 4.016.352 2.992.352 1.264 1.936 0 4.384 0c2.464 0 4.048 1.264 4.048 2.976zM4.384 1.664c-1.152 0-1.888.624-1.888 1.584 0 .96.736 1.664 1.888 1.664s1.904-.704 1.904-1.664-.752-1.584-1.904-1.584zM2.256 8.4c0 1.152.832 1.952 2.128 1.952 1.312 0 2.144-.8 2.144-1.952s-.832-1.904-2.144-1.904c-1.296 0-2.128.752-2.128 1.904zM16.608 8c0-1.584-1.072-2.368-2.144-2.368-1.024 0-1.76.512-1.984 1.056l-2.016-.096.768-6.384h7.152v1.856H13.04l-.32 2.48c.48-.352 1.232-.64 2.304-.64 1.984 0 3.824 1.408 3.824 4.08 0 2.56-1.984 4.032-4.368 4.032-2.72 0-4.16-1.856-4.288-3.856h2.08c.128 1.2.816 2.192 2.24 2.192 1.216 0 2.096-.88 2.096-2.352z" transform="matrix(-1 0 0 1 18.848 0)"/>
        </g>
        <g id="seatnumber_85-with-service-icon" transform="translate(9.624 16.392)">
          <path d="M8.432 2.976c0 1.04-.416 2.016-1.408 2.624 1.296.736 1.76 1.776 1.76 2.896 0 2.272-1.936 3.52-4.4 3.52C1.936 12.016 0 10.768 0 8.496 0 7.376.48 6.32 1.776 5.6.816 5.056.352 4.016.352 2.992.352 1.264 1.936 0 4.384 0c2.464 0 4.048 1.264 4.048 2.976zM4.384 1.664c-1.152 0-1.888.624-1.888 1.584 0 .96.736 1.664 1.888 1.664s1.904-.704 1.904-1.664-.752-1.584-1.904-1.584zM2.256 8.4c0 1.152.832 1.952 2.128 1.952 1.312 0 2.144-.8 2.144-1.952s-.832-1.904-2.144-1.904c-1.296 0-2.128.752-2.128 1.904zM16.608 8c0-1.584-1.072-2.368-2.144-2.368-1.024 0-1.76.512-1.984 1.056l-2.016-.096.768-6.384h7.152v1.856H13.04l-.32 2.48c.48-.352 1.232-.64 2.304-.64 1.984 0 3.824 1.408 3.824 4.08 0 2.56-1.984 4.032-4.368 4.032-2.72 0-4.16-1.856-4.288-3.856h2.08c.128 1.2.816 2.192 2.24 2.192 1.216 0 2.096-.88 2.096-2.352z" transform="translate(0 10)"/>
          <use id="pet-seat-icon-seatnumber_85" xlink:href="#pet-seat-icon" transform="translate(0 -12)"/>
        </g>
      </g>
      <g id="seat_90" transform="matrix(-1 0 0 1 381 121)">
        <path d="M41 .5c.966 0 1.841.392 2.475 1.025A3.489 3.489 0 0144.5 4h0v35c0 .966-.392 1.841-1.025 2.475A3.489 3.489 0 0141 42.5h0H.5V.5z" id="seat_90_shape" stroke="#1B50AF" fill="#FFF" transform="rotate(-180 22.5 21.5)"/>
        <path id="Line" stroke="#1B50AF" fill="#FFF" stroke-linecap="square" d="M35.5 42.5V.488"/>
        <g id="seatnumber_90" transform="translate(9.248 16.392)" fill="#1B50AF">
          <path d="M6.576 6.8c-.496.624-1.424 1.104-2.656 1.104C1.792 7.904 0 6.432 0 3.936 0 1.552 1.808 0 4.32 0c3.104 0 4.464 2.496 4.464 5.744 0 3.328-1.248 6.272-4.704 6.272-2.528 0-3.712-1.728-3.84-3.2H2.4c.112.96.864 1.504 1.824 1.504 1.456 0 2.352-1.376 2.352-3.52zM4.32 1.68c-1.2 0-2.08.88-2.08 2.272 0 1.36.88 2.256 2.08 2.256 1.2 0 2.112-.896 2.112-2.256 0-1.376-.912-2.272-2.112-2.272zm5.744 4.304c0-3.52 1.568-5.984 4.672-5.984 3.088 0 4.656 2.464 4.656 5.984 0 3.536-1.568 6.032-4.656 6.032-3.104 0-4.672-2.496-4.672-6.032zm7.072 0c0-2.768-.832-4.32-2.4-4.32s-2.416 1.552-2.416 4.32c0 2.784.848 4.368 2.416 4.368s2.4-1.584 2.4-4.368z" transform="matrix(-1 0 0 1 19.392 0)"/>
        </g>
        <g id="seatnumber_90-with-service-icon" transform="translate(9.248 16.392)">
          <path d="M6.576 6.8c-.496.624-1.424 1.104-2.656 1.104C1.792 7.904 0 6.432 0 3.936 0 1.552 1.808 0 4.32 0c3.104 0 4.464 2.496 4.464 5.744 0 3.328-1.248 6.272-4.704 6.272-2.528 0-3.712-1.728-3.84-3.2H2.4c.112.96.864 1.504 1.824 1.504 1.456 0 2.352-1.376 2.352-3.52zM4.32 1.68c-1.2 0-2.08.88-2.08 2.272 0 1.36.88 2.256 2.08 2.256 1.2 0 2.112-.896 2.112-2.256 0-1.376-.912-2.272-2.112-2.272zm5.744 4.304c0-3.52 1.568-5.984 4.672-5.984 3.088 0 4.656 2.464 4.656 5.984 0 3.536-1.568 6.032-4.656 6.032-3.104 0-4.672-2.496-4.672-6.032zm7.072 0c0-2.768-.832-4.32-2.4-4.32s-2.416 1.552-2.416 4.32c0 2.784.848 4.368 2.416 4.368s2.4-1.584 2.4-4.368z" transform="translate(0 10)"/>
          <use id="pet-seat-icon-seatnumber_90" xlink:href="#pet-seat-icon" transform="translate(0 -12)"/>
        </g>
      </g>
      <g id="seat_89" transform="matrix(-1 0 0 1 381 164)">
        <path d="M41 .5c.966 0 1.841.392 2.475 1.025A3.489 3.489 0 0144.5 4h0v35c0 .966-.392 1.841-1.025 2.475A3.489 3.489 0 0141 42.5h0H.5V.5z" id="seat_89_shape" stroke="#1B50AF" fill="#FFF" transform="rotate(-180 22.5 21.5)"/>
        <path id="Line" stroke="#1B50AF" fill="#FFF" stroke-linecap="square" d="M35.5 42.5V.488"/>
        <g id="seatnumber_89" transform="translate(9.632 16.392)" fill="#1B50AF" fill-rule="nonzero">
          <path d="M8.432 2.976c0 1.04-.416 2.016-1.408 2.624 1.296.736 1.76 1.776 1.76 2.896 0 2.272-1.936 3.52-4.4 3.52C1.936 12.016 0 10.768 0 8.496 0 7.376.48 6.32 1.776 5.6.816 5.056.352 4.016.352 2.992.352 1.264 1.936 0 4.384 0c2.464 0 4.048 1.264 4.048 2.976zM4.384 1.664c-1.152 0-1.888.624-1.888 1.584 0 .96.736 1.664 1.888 1.664s1.904-.704 1.904-1.664-.752-1.584-1.904-1.584zM2.256 8.4c0 1.152.832 1.952 2.128 1.952 1.312 0 2.144-.8 2.144-1.952s-.832-1.904-2.144-1.904c-1.296 0-2.128.752-2.128 1.904zm14.368-1.6c-.496.624-1.424 1.104-2.656 1.104-2.128 0-3.92-1.472-3.92-3.968 0-2.384 1.808-3.936 4.32-3.936 3.104 0 4.464 2.496 4.464 5.744 0 3.328-1.248 6.272-4.704 6.272-2.528 0-3.712-1.728-3.84-3.2h2.16c.112.96.864 1.504 1.824 1.504 1.456 0 2.352-1.376 2.352-3.52zm-2.256-5.12c-1.2 0-2.08.88-2.08 2.272 0 1.36.88 2.256 2.08 2.256 1.2 0 2.112-.896 2.112-2.256 0-1.376-.912-2.272-2.112-2.272z" transform="matrix(-1 0 0 1 18.832 0)"/>
        </g>
        <g id="seatnumber_89-with-service-icon" transform="translate(9.632 16.392)" fill-rule="nonzero">
          <path d="M8.432 2.976c0 1.04-.416 2.016-1.408 2.624 1.296.736 1.76 1.776 1.76 2.896 0 2.272-1.936 3.52-4.4 3.52C1.936 12.016 0 10.768 0 8.496 0 7.376.48 6.32 1.776 5.6.816 5.056.352 4.016.352 2.992.352 1.264 1.936 0 4.384 0c2.464 0 4.048 1.264 4.048 2.976zM4.384 1.664c-1.152 0-1.888.624-1.888 1.584 0 .96.736 1.664 1.888 1.664s1.904-.704 1.904-1.664-.752-1.584-1.904-1.584zM2.256 8.4c0 1.152.832 1.952 2.128 1.952 1.312 0 2.144-.8 2.144-1.952s-.832-1.904-2.144-1.904c-1.296 0-2.128.752-2.128 1.904zm14.368-1.6c-.496.624-1.424 1.104-2.656 1.104-2.128 0-3.92-1.472-3.92-3.968 0-2.384 1.808-3.936 4.32-3.936 3.104 0 4.464 2.496 4.464 5.744 0 3.328-1.248 6.272-4.704 6.272-2.528 0-3.712-1.728-3.84-3.2h2.16c.112.96.864 1.504 1.824 1.504 1.456 0 2.352-1.376 2.352-3.52zm-2.256-5.12c-1.2 0-2.08.88-2.08 2.272 0 1.36.88 2.256 2.08 2.256 1.2 0 2.112-.896 2.112-2.256 0-1.376-.912-2.272-2.112-2.272z" transform="translate(0 10)"/>
          <use id="pet-seat-icon-seatnumber_89" xlink:href="#pet-seat-icon" transform="translate(0 -12)"/>
        </g>
      </g>
      <g id="seat_94" transform="matrix(-1 0 0 1 325 121)">
        <path d="M41 .5c.966 0 1.841.392 2.475 1.025A3.489 3.489 0 0144.5 4h0v35c0 .966-.392 1.841-1.025 2.475A3.489 3.489 0 0141 42.5h0H.5V.5z" id="seat_94_shape" stroke="#1B50AF" fill="#FFF" transform="rotate(-180 22.5 21.5)"/>
        <path id="Line" stroke="#1B50AF" fill="#FFF" stroke-linecap="square" d="M35.5 42.5V.488"/>
        <g id="seatnumber_94" transform="translate(9.48 16.392)" fill="#1B50AF">
          <path d="M6.576 6.8c-.496.624-1.424 1.104-2.656 1.104C1.792 7.904 0 6.432 0 3.936 0 1.552 1.808 0 4.32 0c3.104 0 4.464 2.496 4.464 5.744 0 3.328-1.248 6.272-4.704 6.272-2.528 0-3.712-1.728-3.84-3.2H2.4c.112.96.864 1.504 1.824 1.504 1.456 0 2.352-1.376 2.352-3.52zM4.32 1.68c-1.2 0-2.08.88-2.08 2.272 0 1.36.88 2.256 2.08 2.256 1.2 0 2.112-.896 2.112-2.256 0-1.376-.912-2.272-2.112-2.272zm15.136 7.344h-1.984v2.784H15.28V9.024H9.552V7.296l5.76-7.088h2.16v6.944h1.984v1.872zm-7.488-1.872h3.312V3.008l-3.312 4.144z" transform="matrix(-1 0 0 1 19.456 0)"/>
        </g>
        <g id="seatnumber_94-with-service-icon" transform="translate(9.48 16.392)">
          <path d="M6.576 6.8c-.496.624-1.424 1.104-2.656 1.104C1.792 7.904 0 6.432 0 3.936 0 1.552 1.808 0 4.32 0c3.104 0 4.464 2.496 4.464 5.744 0 3.328-1.248 6.272-4.704 6.272-2.528 0-3.712-1.728-3.84-3.2H2.4c.112.96.864 1.504 1.824 1.504 1.456 0 2.352-1.376 2.352-3.52zM4.32 1.68c-1.2 0-2.08.88-2.08 2.272 0 1.36.88 2.256 2.08 2.256 1.2 0 2.112-.896 2.112-2.256 0-1.376-.912-2.272-2.112-2.272zm15.136 7.344h-1.984v2.784H15.28V9.024H9.552V7.296l5.76-7.088h2.16v6.944h1.984v1.872zm-7.488-1.872h3.312V3.008l-3.312 4.144z" transform="translate(0 10)"/>
          <use id="pet-seat-icon-seatnumber_94" xlink:href="#pet-seat-icon" transform="translate(0 -12)"/>
        </g>
      </g>
      <g id="seat_93" transform="matrix(-1 0 0 1 325 164)">
        <path d="M41 .5c.966 0 1.841.392 2.475 1.025A3.489 3.489 0 0144.5 4h0v35c0 .966-.392 1.841-1.025 2.475A3.489 3.489 0 0141 42.5h0H.5V.5z" id="seat_93_shape" stroke="#1B50AF" fill="#FFF" transform="rotate(-180 22.5 21.5)"/>
        <path id="Line" stroke="#1B50AF" fill="#FFF" stroke-linecap="square" d="M35.5 42.5V.488"/>
        <g id="seatnumber_93" transform="translate(9.64 16.392)" fill="#1B50AF">
          <path d="M6.576 6.8c-.496.624-1.424 1.104-2.656 1.104C1.792 7.904 0 6.432 0 3.936 0 1.552 1.808 0 4.32 0c3.104 0 4.464 2.496 4.464 5.744 0 3.328-1.248 6.272-4.704 6.272-2.528 0-3.712-1.728-3.84-3.2H2.4c.112.96.864 1.504 1.824 1.504 1.456 0 2.352-1.376 2.352-3.52zM4.32 1.68c-1.2 0-2.08.88-2.08 2.272 0 1.36.88 2.256 2.08 2.256 1.2 0 2.112-.896 2.112-2.256 0-1.376-.912-2.272-2.112-2.272zm12.064 6.864c0-1.36-1.264-1.904-2.912-1.904h-.464V4.912h.384c1.664 0 2.704-.608 2.704-1.696 0-1.008-.88-1.552-1.84-1.552-1.328 0-2.176.848-2.288 2.048H9.872C10.128 1.408 11.728 0 14.384 0c1.936 0 3.936.928 3.936 3.12 0 1.12-.688 2.064-1.568 2.544a3.035 3.035 0 011.872 2.816c0 2.352-2.032 3.536-4.48 3.536-2.656 0-4.224-1.728-4.368-3.856h2.08c.16 1.168.912 2.192 2.352 2.192 1.2 0 2.176-.72 2.176-1.808z" transform="matrix(-1 0 0 1 18.624 0)"/>
        </g>
        <g id="seatnumber_93-with-service-icon" transform="translate(9.64 16.392)">
          <path d="M6.576 6.8c-.496.624-1.424 1.104-2.656 1.104C1.792 7.904 0 6.432 0 3.936 0 1.552 1.808 0 4.32 0c3.104 0 4.464 2.496 4.464 5.744 0 3.328-1.248 6.272-4.704 6.272-2.528 0-3.712-1.728-3.84-3.2H2.4c.112.96.864 1.504 1.824 1.504 1.456 0 2.352-1.376 2.352-3.52zM4.32 1.68c-1.2 0-2.08.88-2.08 2.272 0 1.36.88 2.256 2.08 2.256 1.2 0 2.112-.896 2.112-2.256 0-1.376-.912-2.272-2.112-2.272zm12.064 6.864c0-1.36-1.264-1.904-2.912-1.904h-.464V4.912h.384c1.664 0 2.704-.608 2.704-1.696 0-1.008-.88-1.552-1.84-1.552-1.328 0-2.176.848-2.288 2.048H9.872C10.128 1.408 11.728 0 14.384 0c1.936 0 3.936.928 3.936 3.12 0 1.12-.688 2.064-1.568 2.544a3.035 3.035 0 011.872 2.816c0 2.352-2.032 3.536-4.48 3.536-2.656 0-4.224-1.728-4.368-3.856h2.08c.16 1.168.912 2.192 2.352 2.192 1.2 0 2.176-.72 2.176-1.808z" transform="translate(0 10)"/>
          <use id="pet-seat-icon-seatnumber_93" xlink:href="#pet-seat-icon" transform="translate(0 -12)"/>
        </g>
      </g>
      <g id="seat_97" transform="translate(224 164)">
        <path d="M41 .5c.966 0 1.841.392 2.475 1.025A3.489 3.489 0 0144.5 4h0v35c0 .966-.392 1.841-1.025 2.475A3.489 3.489 0 0141 42.5h0H.5V.5z" id="seat_97_shape" stroke="#1B50AF" fill="#FFF"/>
        <path id="Line" stroke="#1B50AF" fill="#FFF" stroke-linecap="square" d="M9.5.5v42.012"/>
        <g id="seatnumber_97" transform="translate(18 16)" fill="#1B50AF">
          <path d="M7.048 7.192c-.496.624-1.424 1.104-2.656 1.104-2.128 0-3.92-1.472-3.92-3.968C.472 1.944 2.28.392 4.792.392c3.104 0 4.464 2.496 4.464 5.744 0 3.328-1.248 6.272-4.704 6.272-2.528 0-3.712-1.728-3.84-3.2h2.16c.112.96.864 1.504 1.824 1.504 1.456 0 2.352-1.376 2.352-3.52zm-2.256-5.12c-1.2 0-2.08.88-2.08 2.272 0 1.36.88 2.256 2.08 2.256 1.2 0 2.112-.896 2.112-2.256 0-1.376-.912-2.272-2.112-2.272zM9.848.6h8.528v1.856c-3.024 3.088-4.496 5.568-4.72 9.744h-2.432c.192-4.032 2.336-7.296 4.928-9.744H9.848V.6z"/>
        </g>
        <g id="seatnumber_97-with-service-icon" transform="translate(18 16)">
          <path d="M7.048 7.192c-.496.624-1.424 1.104-2.656 1.104-2.128 0-3.92-1.472-3.92-3.968C.472 1.944 2.28.392 4.792.392c3.104 0 4.464 2.496 4.464 5.744 0 3.328-1.248 6.272-4.704 6.272-2.528 0-3.712-1.728-3.84-3.2h2.16c.112.96.864 1.504 1.824 1.504 1.456 0 2.352-1.376 2.352-3.52zm-2.256-5.12c-1.2 0-2.08.88-2.08 2.272 0 1.36.88 2.256 2.08 2.256 1.2 0 2.112-.896 2.112-2.256 0-1.376-.912-2.272-2.112-2.272zM9.848.6h8.528v1.856c-3.024 3.088-4.496 5.568-4.72 9.744h-2.432c.192-4.032 2.336-7.296 4.928-9.744H9.848V.6z" transform="translate(0 10)"/>
          <use id="pet-seat-icon-seatnumber_97" xlink:href="#pet-seat-icon" transform="translate(0 -12)"/>
        </g>
      </g>
      <g id="seat_98" transform="translate(224 121)">
        <path d="M41 .5c.966 0 1.841.392 2.475 1.025A3.489 3.489 0 0144.5 4h0v35c0 .966-.392 1.841-1.025 2.475A3.489 3.489 0 0141 42.5h0H.5V.5z" id="seat_98_shape" stroke="#1B50AF" fill="#FFF"/>
        <path id="Line" stroke="#1B50AF" fill="#FFF" stroke-linecap="square" d="M9.5.5v42.012"/>
        <g id="seatnumber_98" transform="translate(17 16)" fill="#1B50AF">
          <path d="M7 7.192c-.496.624-1.424 1.104-2.656 1.104-2.128 0-3.92-1.472-3.92-3.968 0-2.384 1.808-3.936 4.32-3.936 3.104 0 4.464 2.496 4.464 5.744 0 3.328-1.248 6.272-4.704 6.272-2.528 0-3.712-1.728-3.84-3.2h2.16c.112.96.864 1.504 1.824 1.504C6.104 10.712 7 9.336 7 7.192zm-2.256-5.12c-1.2 0-2.08.88-2.08 2.272 0 1.36.88 2.256 2.08 2.256 1.2 0 2.112-.896 2.112-2.256 0-1.376-.912-2.272-2.112-2.272zm14.272 1.296c0 1.04-.416 2.016-1.408 2.624 1.296.736 1.76 1.776 1.76 2.896 0 2.272-1.936 3.52-4.4 3.52-2.448 0-4.384-1.248-4.384-3.52 0-1.12.48-2.176 1.776-2.896-.96-.544-1.424-1.584-1.424-2.608 0-1.728 1.584-2.992 4.032-2.992 2.464 0 4.048 1.264 4.048 2.976zm-4.048-1.312c-1.152 0-1.888.624-1.888 1.584 0 .96.736 1.664 1.888 1.664s1.904-.704 1.904-1.664-.752-1.584-1.904-1.584zM12.84 8.792c0 1.152.832 1.952 2.128 1.952 1.312 0 2.144-.8 2.144-1.952s-.832-1.904-2.144-1.904c-1.296 0-2.128.752-2.128 1.904z"/>
        </g>
        <g id="seatnumber_98-with-service-icon" transform="translate(17 16)">
          <path d="M7 7.192c-.496.624-1.424 1.104-2.656 1.104-2.128 0-3.92-1.472-3.92-3.968 0-2.384 1.808-3.936 4.32-3.936 3.104 0 4.464 2.496 4.464 5.744 0 3.328-1.248 6.272-4.704 6.272-2.528 0-3.712-1.728-3.84-3.2h2.16c.112.96.864 1.504 1.824 1.504C6.104 10.712 7 9.336 7 7.192zm-2.256-5.12c-1.2 0-2.08.88-2.08 2.272 0 1.36.88 2.256 2.08 2.256 1.2 0 2.112-.896 2.112-2.256 0-1.376-.912-2.272-2.112-2.272zm14.272 1.296c0 1.04-.416 2.016-1.408 2.624 1.296.736 1.76 1.776 1.76 2.896 0 2.272-1.936 3.52-4.4 3.52-2.448 0-4.384-1.248-4.384-3.52 0-1.12.48-2.176 1.776-2.896-.96-.544-1.424-1.584-1.424-2.608 0-1.728 1.584-2.992 4.032-2.992 2.464 0 4.048 1.264 4.048 2.976zm-4.048-1.312c-1.152 0-1.888.624-1.888 1.584 0 .96.736 1.664 1.888 1.664s1.904-.704 1.904-1.664-.752-1.584-1.904-1.584zM12.84 8.792c0 1.152.832 1.952 2.128 1.952 1.312 0 2.144-.8 2.144-1.952s-.832-1.904-2.144-1.904c-1.296 0-2.128.752-2.128 1.904z" transform="translate(0 10)"/>
          <use id="pet-seat-icon-seatnumber_98" xlink:href="#pet-seat-icon" transform="translate(0 -12)"/>
        </g>
      </g>
      <g id="seat_101" transform="translate(168 164)">
        <path d="M41 .5c.966 0 1.841.392 2.475 1.025A3.489 3.489 0 0144.5 4h0v35c0 .966-.392 1.841-1.025 2.475A3.489 3.489 0 0141 42.5h0H.5V.5z" id="seat_101_shape" stroke="#1B50AF" fill="#FFF"/>
        <path id="Line" stroke="#1B50AF" fill="#FFF" stroke-linecap="square" d="M9.5.5v42.012"/>
        <g id="seatnumber_101" transform="translate(15 16)" fill="#1B50AF">
          <path d="M3.288 12.2V3.528H.792V2.024c1.68-.048 2.464-.16 3.024-1.424h1.68v11.6H3.288zm4.048-5.824c0-3.52 1.568-5.984 4.672-5.984 3.088 0 4.656 2.464 4.656 5.984 0 3.536-1.568 6.032-4.656 6.032-3.104 0-4.672-2.496-4.672-6.032zm7.072 0c0-2.768-.832-4.32-2.4-4.32s-2.416 1.552-2.416 4.32c0 2.784.848 4.368 2.416 4.368s2.4-1.584 2.4-4.368zM19.8 12.2V3.528h-2.496V2.024c1.68-.048 2.464-.16 3.024-1.424h1.68v11.6H19.8z"/>
        </g>
        <g id="seatnumber_101-with-service-icon" transform="translate(15 16)">
          <path d="M3.288 12.2V3.528H.792V2.024c1.68-.048 2.464-.16 3.024-1.424h1.68v11.6H3.288zm4.048-5.824c0-3.52 1.568-5.984 4.672-5.984 3.088 0 4.656 2.464 4.656 5.984 0 3.536-1.568 6.032-4.656 6.032-3.104 0-4.672-2.496-4.672-6.032zm7.072 0c0-2.768-.832-4.32-2.4-4.32s-2.416 1.552-2.416 4.32c0 2.784.848 4.368 2.416 4.368s2.4-1.584 2.4-4.368zM19.8 12.2V3.528h-2.496V2.024c1.68-.048 2.464-.16 3.024-1.424h1.68v11.6H19.8z" transform="translate(0 10)"/>
          <use id="pet-seat-icon-seatnumber_101" xlink:href="#pet-seat-icon" transform="translate(0 -12)"/>
        </g>
      </g>
      <g id="seat_102" transform="translate(168 121)">
        <path d="M41 .5c.966 0 1.841.392 2.475 1.025A3.489 3.489 0 0144.5 4h0v35c0 .966-.392 1.841-1.025 2.475A3.489 3.489 0 0141 42.5h0H.5V.5z" id="seat_102_shape" stroke="#1B50AF" fill="#FFF"/>
        <path id="Line" stroke="#1B50AF" fill="#FFF" stroke-linecap="square" d="M9.5.5v42.012"/>
        <g id="seatnumber_102" transform="translate(14 16)" fill="#1B50AF">
          <path d="M2.608 12.2V3.528H.112V2.024c1.68-.048 2.464-.16 3.024-1.424h1.68v11.6H2.608zm4.048-5.824c0-3.52 1.568-5.984 4.672-5.984 3.088 0 4.656 2.464 4.656 5.984 0 3.536-1.568 6.032-4.656 6.032-3.104 0-4.672-2.496-4.672-6.032zm7.072 0c0-2.768-.832-4.32-2.4-4.32s-2.416 1.552-2.416 4.32c0 2.784.848 4.368 2.416 4.368s2.4-1.584 2.4-4.368zm11.52-2.864c0 2.176-2.112 4.448-5.68 6.832h5.952V12.2h-8.528v-1.792c3.728-3.008 6.032-4.944 6.032-6.784 0-1.008-.64-1.6-1.712-1.6-.976 0-1.968.592-1.968 2.32H17.2c-.032-2.4 1.664-3.952 4.24-3.952 2.32 0 3.808 1.104 3.808 3.12z"/>
        </g>
        <g id="seatnumber_102-with-service-icon" transform="translate(14 16)">
          <path d="M2.608 12.2V3.528H.112V2.024c1.68-.048 2.464-.16 3.024-1.424h1.68v11.6H2.608zm4.048-5.824c0-3.52 1.568-5.984 4.672-5.984 3.088 0 4.656 2.464 4.656 5.984 0 3.536-1.568 6.032-4.656 6.032-3.104 0-4.672-2.496-4.672-6.032zm7.072 0c0-2.768-.832-4.32-2.4-4.32s-2.416 1.552-2.416 4.32c0 2.784.848 4.368 2.416 4.368s2.4-1.584 2.4-4.368zm11.52-2.864c0 2.176-2.112 4.448-5.68 6.832h5.952V12.2h-8.528v-1.792c3.728-3.008 6.032-4.944 6.032-6.784 0-1.008-.64-1.6-1.712-1.6-.976 0-1.968.592-1.968 2.32H17.2c-.032-2.4 1.664-3.952 4.24-3.952 2.32 0 3.808 1.104 3.808 3.12z" transform="translate(0 10)"/>
          <use id="pet-seat-icon-seatnumber_102" xlink:href="#pet-seat-icon" transform="translate(0 -12)"/>
        </g>
      </g>
      <g id="seat_105" transform="translate(112 164)">
        <path d="M41 .5c.966 0 1.841.392 2.475 1.025A3.489 3.489 0 0144.5 4h0v35c0 .966-.392 1.841-1.025 2.475A3.489 3.489 0 0141 42.5h0H.5V.5z" id="seat_105_shape" stroke="#1B50AF" fill="#FFF"/>
        <path id="Line" stroke="#1B50AF" fill="#FFF" stroke-linecap="square" d="M9.5.5v42.012"/>
        <g id="seatnumber_105" transform="translate(13 16)" fill="#1B50AF">
          <path d="M3.256 12.2V3.528H.76V2.024C2.44 1.976 3.224 1.864 3.784.6h1.68v11.6H3.256zm4.048-5.824c0-3.52 1.568-5.984 4.672-5.984 3.088 0 4.656 2.464 4.656 5.984 0 3.536-1.568 6.032-4.656 6.032-3.104 0-4.672-2.496-4.672-6.032zm7.072 0c0-2.768-.832-4.32-2.4-4.32S9.56 3.608 9.56 6.376c0 2.784.848 4.368 2.416 4.368s2.4-1.584 2.4-4.368zm9.984 2.016c0-1.584-1.072-2.368-2.144-2.368-1.024 0-1.76.512-1.984 1.056l-2.016-.096L18.984.6h7.152v1.856h-5.344l-.32 2.48c.48-.352 1.232-.64 2.304-.64 1.984 0 3.824 1.408 3.824 4.08 0 2.56-1.984 4.032-4.368 4.032-2.72 0-4.16-1.856-4.288-3.856h2.08c.128 1.2.816 2.192 2.24 2.192 1.216 0 2.096-.88 2.096-2.352z"/>
        </g>
        <g id="seatnumber_105-with-service-icon" transform="translate(13 16)">
          <path d="M3.256 12.2V3.528H.76V2.024C2.44 1.976 3.224 1.864 3.784.6h1.68v11.6H3.256zm4.048-5.824c0-3.52 1.568-5.984 4.672-5.984 3.088 0 4.656 2.464 4.656 5.984 0 3.536-1.568 6.032-4.656 6.032-3.104 0-4.672-2.496-4.672-6.032zm7.072 0c0-2.768-.832-4.32-2.4-4.32S9.56 3.608 9.56 6.376c0 2.784.848 4.368 2.416 4.368s2.4-1.584 2.4-4.368zm9.984 2.016c0-1.584-1.072-2.368-2.144-2.368-1.024 0-1.76.512-1.984 1.056l-2.016-.096L18.984.6h7.152v1.856h-5.344l-.32 2.48c.48-.352 1.232-.64 2.304-.64 1.984 0 3.824 1.408 3.824 4.08 0 2.56-1.984 4.032-4.368 4.032-2.72 0-4.16-1.856-4.288-3.856h2.08c.128 1.2.816 2.192 2.24 2.192 1.216 0 2.096-.88 2.096-2.352z" transform="translate(0 10)"/>
          <use id="pet-seat-icon-seatnumber_105" xlink:href="#pet-seat-icon" transform="translate(0 -12)"/>
        </g>
      </g>
      <g id="seat_106" transform="translate(112 121)">
        <path d="M41 .5c.966 0 1.841.392 2.475 1.025A3.489 3.489 0 0144.5 4h0v35c0 .966-.392 1.841-1.025 2.475A3.489 3.489 0 0141 42.5h0H.5V.5z" id="seat_106_shape" stroke="#1B50AF" fill="#FFF"/>
        <path id="Line" stroke="#1B50AF" fill="#FFF" stroke-linecap="square" d="M9.5.5v42.012"/>
        <g id="seatnumber_106" transform="translate(13 16)" fill="#1B50AF">
          <path d="M3.216 12.2V3.528H.72V2.024C2.4 1.976 3.184 1.864 3.744.6h1.68v11.6H3.216zm4.048-5.824c0-3.52 1.568-5.984 4.672-5.984 3.088 0 4.656 2.464 4.656 5.984 0 3.536-1.568 6.032-4.656 6.032-3.104 0-4.672-2.496-4.672-6.032zm7.072 0c0-2.768-.832-4.32-2.4-4.32S9.52 3.608 9.52 6.376c0 2.784.848 4.368 2.416 4.368s2.4-1.584 2.4-4.368zm5.744-.768c.496-.624 1.424-1.104 2.64-1.104 2.144 0 3.936 1.456 3.936 3.968 0 2.384-1.808 3.936-4.32 3.936-3.104 0-4.464-2.496-4.464-5.744 0-3.328 1.232-6.272 4.704-6.272 2.528 0 3.712 1.712 3.84 3.2h-2.16c-.112-.96-.88-1.52-1.824-1.52-1.456 0-2.352 1.376-2.352 3.536zm2.256 5.136c1.2 0 2.08-.896 2.08-2.304 0-1.36-.88-2.256-2.08-2.256-1.216 0-2.128.896-2.128 2.256 0 1.392.912 2.304 2.128 2.304z"/>
        </g>
        <g id="seatnumber_106-with-service-icon" transform="translate(13 16)">
          <path d="M3.216 12.2V3.528H.72V2.024C2.4 1.976 3.184 1.864 3.744.6h1.68v11.6H3.216zm4.048-5.824c0-3.52 1.568-5.984 4.672-5.984 3.088 0 4.656 2.464 4.656 5.984 0 3.536-1.568 6.032-4.656 6.032-3.104 0-4.672-2.496-4.672-6.032zm7.072 0c0-2.768-.832-4.32-2.4-4.32S9.52 3.608 9.52 6.376c0 2.784.848 4.368 2.416 4.368s2.4-1.584 2.4-4.368zm5.744-.768c.496-.624 1.424-1.104 2.64-1.104 2.144 0 3.936 1.456 3.936 3.968 0 2.384-1.808 3.936-4.32 3.936-3.104 0-4.464-2.496-4.464-5.744 0-3.328 1.232-6.272 4.704-6.272 2.528 0 3.712 1.712 3.84 3.2h-2.16c-.112-.96-.88-1.52-1.824-1.52-1.456 0-2.352 1.376-2.352 3.536zm2.256 5.136c1.2 0 2.08-.896 2.08-2.304 0-1.36-.88-2.256-2.08-2.256-1.216 0-2.128.896-2.128 2.256 0 1.392.912 2.304 2.128 2.304z" transform="translate(0 10)"/>
          <use id="pet-seat-icon-seatnumber_106" xlink:href="#pet-seat-icon" transform="translate(0 -12)"/>
        </g>
      </g>
      <g id="seat_109" transform="translate(56 164)">
        <path d="M41 .5c.966 0 1.841.392 2.475 1.025A3.489 3.489 0 0144.5 4h0v35c0 .966-.392 1.841-1.025 2.475A3.489 3.489 0 0141 42.5h0H.5V.5z" id="seat_109_shape" stroke="#1B50AF" fill="#FFF"/>
        <path id="Line" stroke="#1B50AF" fill="#FFF" stroke-linecap="square" d="M9.5.5v42.012"/>
        <g id="seatnumber_109" transform="translate(13 16)" fill="#1B50AF">
          <path d="M3.264 12.2V3.528H.768V2.024c1.68-.048 2.464-.16 3.024-1.424h1.68v11.6H3.264zm4.048-5.824c0-3.52 1.568-5.984 4.672-5.984 3.088 0 4.656 2.464 4.656 5.984 0 3.536-1.568 6.032-4.656 6.032-3.104 0-4.672-2.496-4.672-6.032zm7.072 0c0-2.768-.832-4.32-2.4-4.32s-2.416 1.552-2.416 4.32c0 2.784.848 4.368 2.416 4.368s2.4-1.584 2.4-4.368zm10 .816c-.496.624-1.424 1.104-2.656 1.104-2.128 0-3.92-1.472-3.92-3.968 0-2.384 1.808-3.936 4.32-3.936 3.104 0 4.464 2.496 4.464 5.744 0 3.328-1.248 6.272-4.704 6.272-2.528 0-3.712-1.728-3.84-3.2h2.16c.112.96.864 1.504 1.824 1.504 1.456 0 2.352-1.376 2.352-3.52zm-2.256-5.12c-1.2 0-2.08.88-2.08 2.272 0 1.36.88 2.256 2.08 2.256 1.2 0 2.112-.896 2.112-2.256 0-1.376-.912-2.272-2.112-2.272z"/>
        </g>
        <g id="seatnumber_109-with-service-icon" transform="translate(13 16)">
          <path d="M3.264 12.2V3.528H.768V2.024c1.68-.048 2.464-.16 3.024-1.424h1.68v11.6H3.264zm4.048-5.824c0-3.52 1.568-5.984 4.672-5.984 3.088 0 4.656 2.464 4.656 5.984 0 3.536-1.568 6.032-4.656 6.032-3.104 0-4.672-2.496-4.672-6.032zm7.072 0c0-2.768-.832-4.32-2.4-4.32s-2.416 1.552-2.416 4.32c0 2.784.848 4.368 2.416 4.368s2.4-1.584 2.4-4.368zm10 .816c-.496.624-1.424 1.104-2.656 1.104-2.128 0-3.92-1.472-3.92-3.968 0-2.384 1.808-3.936 4.32-3.936 3.104 0 4.464 2.496 4.464 5.744 0 3.328-1.248 6.272-4.704 6.272-2.528 0-3.712-1.728-3.84-3.2h2.16c.112.96.864 1.504 1.824 1.504 1.456 0 2.352-1.376 2.352-3.52zm-2.256-5.12c-1.2 0-2.08.88-2.08 2.272 0 1.36.88 2.256 2.08 2.256 1.2 0 2.112-.896 2.112-2.256 0-1.376-.912-2.272-2.112-2.272z" transform="translate(0 10)"/>
          <use id="pet-seat-icon-seatnumber_109" xlink:href="#pet-seat-icon" transform="translate(0 -12)"/>
        </g>
      </g>
      <g id="seat_113" transform="translate(0 164)">
        <path d="M41 .5c.966 0 1.841.392 2.475 1.025A3.489 3.489 0 0144.5 4h0v35c0 .966-.392 1.841-1.025 2.475A3.489 3.489 0 0141 42.5h0H.5V.5z" id="seat_113_shape" stroke="#1B50AF" fill="#FFF"/>
        <path id="Line" stroke="#1B50AF" fill="#FFF" stroke-linecap="square" d="M9.5.5v42.012"/>
        <g id="seatnumber_113" transform="translate(16.184 16.392)" fill="#1B50AF">
          <path d="M2.496 11.808V3.136H0V1.632c1.68-.048 2.464-.16 3.024-1.424h1.68v11.6H2.496zm5.904 0V3.136H5.904V1.632c1.68-.048 2.464-.16 3.024-1.424h1.68v11.6H8.4zm10.368-3.264c0-1.36-1.264-1.904-2.912-1.904h-.464V4.912h.384c1.664 0 2.704-.608 2.704-1.696 0-1.008-.88-1.552-1.84-1.552-1.328 0-2.176.848-2.288 2.048h-2.096C12.512 1.408 14.112 0 16.768 0c1.936 0 3.936.928 3.936 3.12 0 1.12-.688 2.064-1.568 2.544a3.035 3.035 0 011.872 2.816c0 2.352-2.032 3.536-4.48 3.536-2.656 0-4.224-1.728-4.368-3.856h2.08c.16 1.168.912 2.192 2.352 2.192 1.2 0 2.176-.72 2.176-1.808z"/>
        </g>
        <g id="seatnumber_113-with-service-icon" transform="translate(16.184 16.392)">
          <path d="M2.496 11.808V3.136H0V1.632c1.68-.048 2.464-.16 3.024-1.424h1.68v11.6H2.496zm5.904 0V3.136H5.904V1.632c1.68-.048 2.464-.16 3.024-1.424h1.68v11.6H8.4zm10.368-3.264c0-1.36-1.264-1.904-2.912-1.904h-.464V4.912h.384c1.664 0 2.704-.608 2.704-1.696 0-1.008-.88-1.552-1.84-1.552-1.328 0-2.176.848-2.288 2.048h-2.096C12.512 1.408 14.112 0 16.768 0c1.936 0 3.936.928 3.936 3.12 0 1.12-.688 2.064-1.568 2.544a3.035 3.035 0 011.872 2.816c0 2.352-2.032 3.536-4.48 3.536-2.656 0-4.224-1.728-4.368-3.856h2.08c.16 1.168.912 2.192 2.352 2.192 1.2 0 2.176-.72 2.176-1.808z" transform="translate(0 10)"/>
          <use id="pet-seat-icon-seatnumber_113" xlink:href="#pet-seat-icon" transform="translate(0 -12)"/>
        </g>
      </g>
      <g id="seat_114" transform="translate(0 121)">
        <path d="M41 .5c.966 0 1.841.392 2.475 1.025A3.489 3.489 0 0144.5 4h0v35c0 .966-.392 1.841-1.025 2.475A3.489 3.489 0 0141 42.5h0H.5V.5z" id="seat_114_shape" stroke="#1B50AF" fill="#FFF"/>
        <path id="Line" stroke="#1B50AF" fill="#FFF" stroke-linecap="square" d="M9.5.5v42.012"/>
        <g id="seatnumber_114" transform="translate(15 17)" fill="#1B50AF" fill-rule="nonzero">
          <path d="M2.496 11.6V2.928H0V1.424C1.68 1.376 2.464 1.264 3.024 0h1.68v11.6H2.496zm5.904 0V2.928H5.904V1.424c1.68-.048 2.464-.16 3.024-1.424h1.68v11.6H8.4zm13.44-2.784h-1.984V11.6h-2.192V8.816h-5.728V7.088L17.696 0h2.16v6.944h1.984v1.872zm-7.488-1.872h3.312V2.8l-3.312 4.144z"/>
        </g>
        <g id="seatnumber_114-with-service-icon" transform="translate(15 17)" fill-rule="nonzero">
          <path d="M2.496 11.6V2.928H0V1.424C1.68 1.376 2.464 1.264 3.024 0h1.68v11.6H2.496zm5.904 0V2.928H5.904V1.424c1.68-.048 2.464-.16 3.024-1.424h1.68v11.6H8.4zm13.44-2.784h-1.984V11.6h-2.192V8.816h-5.728V7.088L17.696 0h2.16v6.944h1.984v1.872zm-7.488-1.872h3.312V2.8l-3.312 4.144z" transform="translate(0 10)"/>
          <use id="pet-seat-icon-seatnumber_114" xlink:href="#pet-seat-icon" transform="translate(0 -12)"/>
        </g>
      </g>
      <g id="seat_110" transform="translate(56 121)">
        <path d="M41 .5c.966 0 1.841.392 2.475 1.025A3.489 3.489 0 0144.5 4h0v35c0 .966-.392 1.841-1.025 2.475A3.489 3.489 0 0141 42.5h0H.5V.5z" id="seat_110_shape" stroke="#1B50AF" fill="#FFF"/>
        <path id="Line" stroke="#1B50AF" fill="#FFF" stroke-linecap="square" d="M9.5.5v42.012"/>
        <g id="seatnumber_110" transform="translate(16 16)" fill="#1B50AF">
          <path d="M2.496 11.808V3.136H0V1.632c1.68-.048 2.464-.16 3.024-1.424h1.68v11.6H2.496zm5.904 0V3.136H5.904V1.632c1.68-.048 2.464-.16 3.024-1.424h1.68v11.6H8.4zm4.048-5.824C12.448 2.464 14.016 0 17.12 0c3.088 0 4.656 2.464 4.656 5.984 0 3.536-1.568 6.032-4.656 6.032-3.104 0-4.672-2.496-4.672-6.032zm7.072 0c0-2.768-.832-4.32-2.4-4.32s-2.416 1.552-2.416 4.32c0 2.784.848 4.368 2.416 4.368s2.4-1.584 2.4-4.368z"/>
        </g>
        <g id="seatnumber_110-with-service-icon" transform="translate(16 16)">
          <path d="M2.496 11.808V3.136H0V1.632c1.68-.048 2.464-.16 3.024-1.424h1.68v11.6H2.496zm5.904 0V3.136H5.904V1.632c1.68-.048 2.464-.16 3.024-1.424h1.68v11.6H8.4zm4.048-5.824C12.448 2.464 14.016 0 17.12 0c3.088 0 4.656 2.464 4.656 5.984 0 3.536-1.568 6.032-4.656 6.032-3.104 0-4.672-2.496-4.672-6.032zm7.072 0c0-2.768-.832-4.32-2.4-4.32s-2.416 1.552-2.416 4.32c0 2.784.848 4.368 2.416 4.368s2.4-1.584 2.4-4.368z" transform="translate(0 10)"/>
          <use id="pet-seat-icon-seatnumber_110" xlink:href="#pet-seat-icon" transform="translate(0 -12)"/>
        </g>
      </g>
    </g>
    <g id="Service-badges" transform="translate(448 12)">
      <g id="service-badge" transform="translate(826)">
        <circle stroke="#fff" stroke-width="2" fill="#f2f2f2" cx="29" cy="29" r="28"/>
        <g id="Icon/Service/WC" transform="translate(17 17)">
          <path d="M0 0h24v24H0z"/>
          <path d="M19.16 7a5.221 5.221 0 014.78 3.146l-.853.377c-.518.228-1.101.055-1.468-.378A3.221 3.221 0 0019.16 9c-1.781 0-3.23 1.458-3.23 3.25s1.449 3.25 3.23 3.25a3.22 3.22 0 002.46-1.145c.367-.432.95-.605 1.468-.377l.854.376a5.22 5.22 0 01-4.782 3.146c-2.877 0-5.218-2.354-5.218-5.25 0-2.895 2.341-5.25 5.218-5.25zm-12.177.165c1.017 0 1.83.703 1.979 1.709l.951 6.46 1.383-5.572.374-1.511a1.25 1.25 0 011.213-.949h1.083l-.44 1.775-1.671 6.739a1.978 1.978 0 01-1.937 1.519l-.101-.002a1.982 1.982 0 01-1.882-1.707l-.951-6.46-.952 6.46a1.98 1.98 0 01-1.883 1.707c-.968.033-1.805-.577-2.038-1.517L0 7.302h1.083a1.25 1.25 0 011.213.949l.3 1.209 1.457 5.874.952-6.46a1.963 1.963 0 011.978-1.709z" fill="#1b50af"/>
        </g>
      </g>
      <g id="service-badge" transform="translate(0 153)">
        <circle stroke="#fff" stroke-width="2" fill="#f2f2f2" cx="29" cy="29" r="28"/>
        <g id="Icon/Service/Coffee" transform="translate(17 17)">
          <path d="M0 0h24v24H0z"/>
          <path d="M16 9c.654 0 1.236.315 1.6.802A3.976 3.976 0 0120 9c2.206 0 4 1.794 4 4s-1.794 4-4 4h-1.25v-.75c0-.69.56-1.25 1.25-1.25 1.103 0 2-.897 2-2s-.897-2-2-2-2 .897-2 2v.046c0 2.39-.742 4.675-2.148 6.61l-1.316 1.812a2.616 2.616 0 00-.3.532H19v.75c0 .69-.56 1.25-1.25 1.25H2.25C1.56 24 1 23.44 1 22.75V22h4.763a2.616 2.616 0 00-.299-.532l-1.316-1.812A11.176 11.176 0 012 13.046V11c0-1.103.897-2 2-2h12zm0 2H4v2.046a9.19 9.19 0 001.766 5.434l1.316 1.811c.376.518.636 1.096.772 1.709h4.292a4.576 4.576 0 01.772-1.709l1.316-1.811A9.19 9.19 0 0016 13.046V11zm.028-11v1.395c0 .591-.176 1.17-.504 1.663l-1.328 1.993a.995.995 0 00-.168.554v.145c0 .69-.56 1.25-1.25 1.25h-.75V5.606c0-.593.175-1.171.504-1.664l1.328-1.993a.999.999 0 00.168-.554V1.25c0-.69.56-1.25 1.25-1.25h.75zm-5 0v1.395c0 .591-.176 1.17-.504 1.663L9.196 5.051a.995.995 0 00-.168.554v.145c0 .69-.56 1.25-1.25 1.25h-.75V5.606c0-.593.175-1.171.504-1.664L8.86 1.948a.999.999 0 00.168-.554V1.25c0-.69.56-1.25 1.25-1.25h.75z" fill="#1b50af"/>
        </g>
      </g>
    </g>
    <g id="Dynamic-service-areas" transform="translate(528 57)">
      <g id="servicearea_67-114">
        <path d="M0 0h715v80H0z"/>
      </g>
    </g>
  </g>
</svg>
