<svg viewBox="0 0 1586 237"
  xmlns="http://www.w3.org/2000/svg"
  xmlns:xlink="http://www.w3.org/1999/xlink"
  xmlns:vr="http://vr/wagonmap" preserveAspectRatio="xMinYMin meet">
  <defs>
    <svg id="pet-seat-icon" viewBox="0 0 620 620"
      xmlns="http://www.w3.org/2000/svg" preserveAspectRatio="xMinYMin meet">
      <g fill-rule="evenodd">
        <path d="M42.2 15.868a2.013 2.013 0 01-.716.132H27.548a2 2 0 01-1.02-.279l-7.883-4.669-2.736-6.519A2.5 2.5 0 0013.604 3h-2.676l1.26 3h-1.204a6 6 0 00-6 6v.099l-3.699 1.416a2 2 0 00-1.152 2.584l1.263 3.274A6 6 0 006.906 23h3.078v4.388c0 1.256.395 2.481 1.127 3.501l1.873 2.606V45h1.5a2.5 2.5 0 002.5-2.5v-9.004c0-.837-.263-1.654-.752-2.334l-1.87-2.606a2.002 2.002 0 01-.378-1.169V23a4 4 0 00-4-4H6.906a2 2 0 01-1.867-1.284l-.454-1.18 1.64-.627c1.581-.606 2.787-2.116 2.76-3.81V12c-.019-1.12.883-1.997 2-1.997h2.883l1.09 2.597a4.002 4.002 0 001.65 1.893l7.881 4.669a5.996 5.996 0 003.06.838h13.934c.735 0 1.462-.134 2.148-.397l2.748-1.053a2.5 2.5 0 001.605-2.334v-2.564L42.2 15.868zm4.067 8.562a2.499 2.499 0 00-3.228-1.44l-1.4.537 1.212 3.169c.088.228.133.471.133.715v17.584h1.5a2.5 2.5 0 002.5-2.5V27.41a6.01 6.01 0 00-.397-2.146l-.32-.834zm-9.445 4.117a4.001 4.001 0 00-4.668-1.384l-9.359 3.59a6.001 6.001 0 00-3.853 5.663L18.984 45l1.493-.007a2.501 2.501 0 002.488-2.52l-.023-6.097a2.005 2.005 0 011.288-1.889l9.356-3.589 3.016 4.153a2 2 0 01.382 1.175V45h1.5a2.5 2.5 0 002.5-2.5v-6.277c0-1.266-.4-2.5-1.145-3.524l-3.017-4.152z"/>
      </g>
    </svg>
  </defs>
  <g id="CEMT" stroke="none" stroke-width="1" fill="none" fill-rule="evenodd">
    <path fill="#FFF" d="M0 0h1586v237H0z"/>
    <g transform="translate(3)">
      <path d="M1560 5.724c5.944 0 11.33 2.512 15.226 6.584 3.873 4.047 6.274 9.636 6.274 15.813h0V208.88c0 6.177-2.4 11.766-6.274 15.813-3.897 4.072-9.282 6.584-15.226 6.584h0H20c-5.944 0-11.33-2.512-15.226-6.584C.901 220.645-1.5 215.056-1.5 208.88h0V28.12c0-6.177 2.4-11.766 6.274-15.813C8.671 8.236 14.056 5.724 20 5.724h0z" stroke="#DFDFDF" stroke-width="3"/>
      <g transform="translate(16)">
        <path d="M36 40V6H2c0 18.778 15.222 34 34 34z" stroke="#F2F2F2" stroke-width="2"/>
        <path fill="#DCDCDC" d="M1 0h3v9H1zM34 0h3v9h-3z"/>
        <path fill="#DCDCDC" d="M0 4h38v3H0z"/>
        <g transform="rotate(-90 9 -1)">
          <path fill="#C2D6D6" d="M2 0h3v18.857H2z"/>
          <path fill="#9FC1B7" d="M0 0h3v18.857H0z"/>
        </g>
      </g>
      <g transform="translate(16 197)">
        <g transform="matrix(1 0 0 -1 0 40)">
          <path d="M36 40V6H2c0 18.778 15.222 34 34 34z" stroke="#F2F2F2" stroke-width="2"/>
          <path fill="#DCDCDC" d="M1 0h3v9H1zM34 0h3v9h-3z"/>
          <path fill="#DCDCDC" d="M0 4h38v3H0z"/>
          <g transform="rotate(-90 9 -1)">
            <path fill="#C2D6D6" d="M2 0h3v18.857H2z"/>
            <path fill="#9FC1B7" d="M0 0h3v18.857H0z"/>
          </g>
        </g>
      </g>
      <g transform="translate(1527)">
        <g transform="matrix(-1 0 0 1 38 0)">
          <path d="M36 40V6H2c0 18.778 15.222 34 34 34z" stroke="#F2F2F2" stroke-width="2"/>
          <path fill="#DCDCDC" d="M1 0h3v9H1zM34 0h3v9h-3z"/>
          <path fill="#DCDCDC" d="M0 4h38v3H0z"/>
          <g transform="rotate(-90 9 -1)">
            <path fill="#C2D6D6" d="M2 0h3v18.857H2z"/>
            <path fill="#9FC1B7" d="M0 0h3v18.857H0z"/>
          </g>
        </g>
      </g>
      <g transform="translate(1527 197)">
        <g transform="rotate(180 19 20)">
          <path d="M36 40V6H2c0 18.778 15.222 34 34 34z" stroke="#F2F2F2" stroke-width="2"/>
          <path fill="#DCDCDC" d="M1 0h3v9H1zM34 0h3v9h-3z"/>
          <path fill="#DCDCDC" d="M0 4h38v3H0z"/>
          <g transform="rotate(-90 9 -1)">
            <path fill="#C2D6D6" d="M2 0h3v18.857H2z"/>
            <path fill="#9FC1B7" d="M0 0h3v18.857H0z"/>
          </g>
        </g>
      </g>
      <path fill="#DCDCDC" transform="rotate(180 131.5 81.224)" d="M130 7.224h3v148h-3z"/>
      <path fill="#DCDCDC" d="M1230 7h3v149h-3zM1340 7h3v149h-3zM1522 7h3v115h-3z"/>
      <path fill="#DCDCDC" transform="rotate(180 186.5 154.5)" d="M133 153h107v3H133z"/>
      <path fill="#DCDCDC" transform="rotate(180 351.5 81.5)" d="M350 7h3v149h-3z"/>
      <path fill="#DCDCDC" transform="rotate(180 461.5 81.5)" d="M460 7h3v149h-3z"/>
      <path fill="#DCDCDC" transform="rotate(180 571.5 81.5)" d="M570 7h3v149h-3z"/>
      <path fill="#DCDCDC" transform="rotate(180 681.5 81.5)" d="M680 7h3v149h-3z"/>
      <path fill="#DCDCDC" transform="rotate(180 791.5 81.5)" d="M790 7h3v149h-3z"/>
      <path fill="#DCDCDC" transform="rotate(180 901.5 81.5)" d="M900 7h3v149h-3z"/>
      <path fill="#DCDCDC" transform="rotate(180 1011.5 81.5)" d="M1010 7h3v149h-3z"/>
      <path fill="#DCDCDC" transform="rotate(180 1121.5 81.5)" d="M1120 7h3v149h-3z"/>
      <path fill="#DCDCDC" transform="rotate(180 1451.5 81.5)" d="M1450 7h3v149h-3z"/>
      <path fill="#DCDCDC" transform="rotate(180 241.5 81.5)" d="M240 7h3v149h-3z"/>
      <path fill="#DCDCDC" transform="rotate(180 406.5 154.5)" d="M353 153h107v3H353z"/>
      <path fill="#DCDCDC" transform="rotate(180 296.5 154.5)" d="M243 153h107v3H243z"/>
      <path fill="#DCDCDC" transform="rotate(180 516.5 154.5)" d="M463 153h107v3H463z"/>
      <path fill="#DCDCDC" transform="rotate(180 626.5 154.5)" d="M573 153h107v3H573z"/>
      <path fill="#DCDCDC" transform="rotate(180 736.5 154.5)" d="M683 153h107v3H683z"/>
      <path fill="#DCDCDC" transform="rotate(180 846.5 154.5)" d="M793 153h107v3H793z"/>
      <path fill="#DCDCDC" transform="rotate(180 1396.5 154.5)" d="M1343 153h107v3h-107z"/>
      <path fill="#DCDCDC" transform="rotate(180 956.5 154.5)" d="M903 153h107v3H903z"/>
      <path fill="#DCDCDC" transform="rotate(180 1066.5 154.5)" d="M1013 153h107v3h-107z"/>
      <path fill="#DCDCDC" transform="rotate(180 1176.5 154.5)" d="M1123 153h107v3h-107z"/>
      <path fill="#DCDCDC" transform="rotate(180 1286.5 154.5)" d="M1233 153h107v3h-107z"/>
      <path fill="#DCDCDC" transform="rotate(180 1472.5 154.5)" d="M1453 153h39v3h-39z"/>
      <path stroke="#DCDCDC" stroke-width="3" stroke-linecap="square" d="M1492 154l31-32"/>
      <path fill="#DCDCDC" d="M56 7h3v115h-3z"/>
      <path fill="#DCDCDC" transform="rotate(180 113.5 154.5)" d="M91 153h45v3H91z"/>
      <path stroke="#DCDCDC" stroke-width="3" stroke-linecap="square" d="M58.5 122.5l32 31"/>
      <g transform="translate(62 2)">
        <g transform="rotate(-90 48.423 -43.31)">
          <path fill="#C2D6D6" d="M2 0h3v64.78H2z"/>
          <path fill="#9FC1B7" d="M0 0h3v64.78H0z"/>
        </g>
        <g transform="matrix(0 1 1 0 91.73 227.888)">
          <path fill="#C2D6D6" d="M2 0h3v64.78H2z"/>
          <path fill="#9FC1B7" d="M0 0h3v64.78H0z"/>
        </g>
        <g transform="matrix(0 1 1 0 .73 227.888)">
          <path fill="#C2D6D6" d="M2 0h3v64.78H2z"/>
          <path fill="#9FC1B7" d="M0 0h3v64.78H0z"/>
        </g>
        <g transform="matrix(0 1 1 0 200.88 227.888)">
          <path fill="#C2D6D6" d="M2 0h3v64.78H2z"/>
          <path fill="#9FC1B7" d="M0 0h3v64.78H0z"/>
        </g>
        <g transform="matrix(0 1 1 0 316.86 227.888)">
          <path fill="#C2D6D6" d="M2 0h3v64.78H2z"/>
          <path fill="#9FC1B7" d="M0 0h3v64.78H0z"/>
        </g>
        <g transform="matrix(0 1 1 0 422.86 227.888)">
          <path fill="#C2D6D6" d="M2 0h3v64.78H2z"/>
          <path fill="#9FC1B7" d="M0 0h3v64.78H0z"/>
        </g>
        <g transform="rotate(-90 102.996 -97.884)">
          <path fill="#C2D6D6" d="M2 0h3v64.78H2z"/>
          <path fill="#9FC1B7" d="M0 0h3v64.78H0z"/>
        </g>
        <g transform="matrix(0 1 1 0 532.86 227.888)">
          <path fill="#C2D6D6" d="M2 0h3v64.78H2z"/>
          <path fill="#9FC1B7" d="M0 0h3v64.78H0z"/>
        </g>
        <g transform="rotate(-90 158.986 -153.874)">
          <path fill="#C2D6D6" d="M2 0h3v64.78H2z"/>
          <path fill="#9FC1B7" d="M0 0h3v64.78H0z"/>
        </g>
        <g transform="rotate(-90 213.986 -208.874)">
          <path fill="#C2D6D6" d="M2 0h3v64.78H2z"/>
          <path fill="#9FC1B7" d="M0 0h3v64.78H0z"/>
        </g>
        <g transform="rotate(-90 268.986 -263.874)">
          <path fill="#C2D6D6" d="M2 0h3v64.78H2z"/>
          <path fill="#9FC1B7" d="M0 0h3v64.78H0z"/>
        </g>
        <g transform="rotate(-90 323.986 -318.874)">
          <path fill="#C2D6D6" d="M2 0h3v64.78H2z"/>
          <path fill="#9FC1B7" d="M0 0h3v64.78H0z"/>
        </g>
        <g transform="rotate(-90 378.986 -373.874)">
          <path fill="#C2D6D6" d="M2 0h3v64.78H2z"/>
          <path fill="#9FC1B7" d="M0 0h3v64.78H0z"/>
        </g>
        <g transform="rotate(-90 433.986 -428.874)">
          <path fill="#C2D6D6" d="M2 0h3v64.78H2z"/>
          <path fill="#9FC1B7" d="M0 0h3v64.78H0z"/>
        </g>
        <g transform="rotate(-90 488.986 -483.874)">
          <path fill="#C2D6D6" d="M2 0h3v64.78H2z"/>
          <path fill="#9FC1B7" d="M0 0h3v64.78H0z"/>
        </g>
        <g transform="rotate(-90 543.486 -538.374)">
          <path fill="#C2D6D6" d="M2 0h3v64.78H2z"/>
          <path fill="#9FC1B7" d="M0 0h3v64.78H0z"/>
        </g>
        <g transform="rotate(-90 597.986 -592.874)">
          <path fill="#C2D6D6" d="M2 0h3v64.78H2z"/>
          <path fill="#9FC1B7" d="M0 0h3v64.78H0z"/>
        </g>
        <g transform="rotate(-90 652.986 -647.874)">
          <path fill="#C2D6D6" d="M2 0h3v64.78H2z"/>
          <path fill="#9FC1B7" d="M0 0h3v64.78H0z"/>
        </g>
        <g transform="matrix(0 1 1 0 642.86 227.888)">
          <path fill="#C2D6D6" d="M2 0h3v64.78H2z"/>
          <path fill="#9FC1B7" d="M0 0h3v64.78H0z"/>
        </g>
        <g transform="matrix(0 1 1 0 752.86 227.888)">
          <path fill="#C2D6D6" d="M2 0h3v64.78H2z"/>
          <path fill="#9FC1B7" d="M0 0h3v64.78H0z"/>
        </g>
        <g transform="matrix(0 1 1 0 862.86 227.888)">
          <path fill="#C2D6D6" d="M2 0h3v64.78H2z"/>
          <path fill="#9FC1B7" d="M0 0h3v64.78H0z"/>
        </g>
        <g transform="matrix(0 1 1 0 972.86 227.888)">
          <path fill="#C2D6D6" d="M2 0h3v64.78H2z"/>
          <path fill="#9FC1B7" d="M0 0h3v64.78H0z"/>
        </g>
        <g transform="matrix(0 1 1 0 1081.86 227.888)">
          <path fill="#C2D6D6" d="M2 0h3v64.78H2z"/>
          <path fill="#9FC1B7" d="M0 0h3v64.78H0z"/>
        </g>
        <g transform="matrix(0 1 1 0 1190.86 227.888)">
          <path fill="#C2D6D6" d="M2 0h3v64.78H2z"/>
          <path fill="#9FC1B7" d="M0 0h3v64.78H0z"/>
        </g>
        <g transform="matrix(0 1 1 0 1300.86 227.888)">
          <path fill="#C2D6D6" d="M2 0h3v64.78H2z"/>
          <path fill="#9FC1B7" d="M0 0h3v64.78H0z"/>
        </g>
        <g transform="matrix(0 1 1 0 1392.86 227.888)">
          <path fill="#C2D6D6" d="M2 0h3v64.78H2z"/>
          <path fill="#9FC1B7" d="M0 0h3v64.78H0z"/>
        </g>
      </g>
    </g>
    <g id="Cabins" transform="translate(136 7)">
      <g id="cabin_1-3">
        <path id="cabin_hilight_1-3" fill="#D5EEFA" d="M0 0h107v146H0z"/>
        <path d="M78.692 8h16.616A3.692 3.692 0 0199 11.692v16.616A3.692 3.692 0 0195.308 32H78.692A3.692 3.692 0 0175 28.308V11.692A3.692 3.692 0 0178.692 8z" fill="#E2D2BA"/>
        <g id="bed_3" transform="translate(6 6)">
          <path id="highlight_3" fill="#FFF" d="M0 2h39v37H0z"/>
          <path d="M2 0v2l35-.001V0h2v45h-2v-6H2v6H0V0h2zm35 3.999L2 4v31h1v-1a4 4 0 014-4h25a4 4 0 014 4v1h1V3.999zM32 31H7a3 3 0 00-3 3v1h31v-1a3 3 0 00-3-3z" fill="#1B50AF" fill-rule="nonzero"/>
          <path d="M21.292 21.144c0-1.19-1.106-1.666-2.548-1.666h-.406v-1.512h.336c1.456 0 2.366-.532 2.366-1.484 0-.882-.77-1.358-1.61-1.358-1.162 0-1.904.742-2.002 1.792h-1.834c.224-2.016 1.624-3.248 3.948-3.248 1.694 0 3.444.812 3.444 2.73 0 .98-.602 1.806-1.372 2.226a2.656 2.656 0 011.638 2.464c0 2.058-1.778 3.094-3.92 3.094-2.324 0-3.696-1.512-3.822-3.374h1.82c.14 1.022.798 1.918 2.058 1.918 1.05 0 1.904-.63 1.904-1.582z" id="bednumber_3" fill="#1B50AF"/>
        </g>
        <g id="bed_2" transform="translate(6 51)">
          <path id="highlight_2" fill="#FFF" d="M0 0h39v39H0z"/>
          <path d="M2 0v35h1v-1a4 4 0 014-4h25a4 4 0 014 4v1h1V0h2v45h-2v-6H2v6H0V0h2zm30 31H7a3 3 0 00-3 3v1h31v-1a3 3 0 00-3-3z" fill="#1B50AF" fill-rule="nonzero"/>
          <path d="M22.993 16.398c0 1.904-1.848 3.892-4.97 5.978h5.208V24h-7.462v-1.568c3.262-2.632 5.278-4.326 5.278-5.936 0-.882-.56-1.4-1.498-1.4-.854 0-1.722.518-1.722 2.03h-1.876c-.028-2.1 1.456-3.458 3.71-3.458 2.03 0 3.332.966 3.332 2.73z" id="bednumber_2" fill="#1B50AF"/>
        </g>
        <g id="bed_1" transform="translate(6 96)">
          <path id="highlight_1" fill="#FFF" d="M0 0h39v39H0z"/>
          <path d="M2 0v35h1v-1a4 4 0 014-4h25a4 4 0 014 4v1h1V0h2v45h-2v-6H2v6H0V0h2zm30 31H7a3 3 0 00-3 3v1h31v-1a3 3 0 00-3-3z" fill="#1B50AF" fill-rule="nonzero"/>
          <path d="M19.101 24v-7.588h-2.184v-1.316c1.47-.042 2.156-.14 2.646-1.246h1.47V24h-1.932z" id="bednumber_1" fill="#1B50AF"/>
        </g>
      </g>
      <g id="cabin_4-6" transform="translate(110)">
        <path id="cabin_hilight_4-6" fill="#D5EEFA" d="M0 0h107v146H0z"/>
        <path d="M11.692 8h16.616A3.692 3.692 0 0132 11.692v16.616A3.692 3.692 0 0128.308 32H11.692A3.692 3.692 0 018 28.308V11.692A3.692 3.692 0 0111.692 8z" fill="#E2D2BA"/>
        <g id="bed_6" transform="translate(62 6)">
          <path id="highlight_6" fill="#FFF" d="M0 2h39v37H0z"/>
          <path d="M2 0v2l35-.001V0h2v45h-2v-6H2v6H0V0h2zm35 3.999L2 4v31h1v-1a4 4 0 014-4h25a4 4 0 014 4v1h1V3.999zM32 31H7a3 3 0 00-3 3v1h31v-1a3 3 0 00-3-3z" fill="#1B50AF" fill-rule="nonzero"/>
          <path d="M17.596 18.232c.434-.546 1.246-.966 2.31-.966 1.876 0 3.444 1.274 3.444 3.472 0 2.086-1.582 3.444-3.78 3.444-2.716 0-3.906-2.184-3.906-5.026 0-2.912 1.078-5.488 4.116-5.488 2.212 0 3.248 1.498 3.36 2.8h-1.89c-.098-.84-.77-1.33-1.596-1.33-1.274 0-2.058 1.204-2.058 3.094zm1.974 4.494c1.05 0 1.82-.784 1.82-2.016 0-1.19-.77-1.974-1.82-1.974-1.064 0-1.862.784-1.862 1.974 0 1.218.798 2.016 1.862 2.016z" id="bednumber_6" fill="#1B50AF"/>
        </g>
        <g id="bed_5" transform="translate(62 51)">
          <path id="highlight_5" fill="#FFF" d="M0 0h39v39H0z"/>
          <path d="M2 0v35h1v-1a4 4 0 014-4h25a4 4 0 014 4v1h1V0h2v45h-2v-6H2v6H0V0h2zm30 31H7a3 3 0 00-3 3v1h31v-1a3 3 0 00-3-3z" fill="#1B50AF" fill-rule="nonzero"/>
          <path d="M21.341 20.668c0-1.386-.938-2.072-1.876-2.072-.896 0-1.54.448-1.736.924l-1.764-.084.672-5.586h6.258v1.624h-4.676l-.28 2.17c.42-.308 1.078-.56 2.016-.56 1.736 0 3.346 1.232 3.346 3.57 0 2.24-1.736 3.528-3.822 3.528-2.38 0-3.64-1.624-3.752-3.374h1.82c.112 1.05.714 1.918 1.96 1.918 1.064 0 1.834-.77 1.834-2.058z" id="bednumber_5" fill="#1B50AF"/>
        </g>
        <g id="bed_4" transform="translate(62 96)">
          <path id="highlight_4" fill="#FFF" d="M0 0h39v39H0z"/>
          <path d="M2 0v35h1v-1a4 4 0 014-4h25a4 4 0 014 4v1h1V0h2v45h-2v-6H2v6H0V0h2zm30 31H7a3 3 0 00-3 3v1h31v-1a3 3 0 00-3-3z" fill="#1B50AF" fill-rule="nonzero"/>
          <path d="M23.84 21.564h-1.736V24h-1.918v-2.436h-5.012v-1.512l5.04-6.202h1.89v6.076h1.736v1.638zm-6.552-1.638h2.898V16.3l-2.898 3.626z" id="bednumber_4" fill="#1B50AF"/>
        </g>
      </g>
      <g id="cabin_7-9" transform="translate(220)">
        <path id="cabin_hilight_7-9" fill="#D5EEFA" d="M0 0h107v146H0z"/>
        <path d="M78.692 8h16.616A3.692 3.692 0 0199 11.692v16.616A3.692 3.692 0 0195.308 32H78.692A3.692 3.692 0 0175 28.308V11.692A3.692 3.692 0 0178.692 8z" fill="#E2D2BA"/>
        <g id="bed_9" transform="translate(6 6)">
          <path id="highlight_9" fill="#FFF" d="M0 2h39v37H0z"/>
          <path d="M2 0v2l35-.001V0h2v45h-2v-6H2v6H0V0h2zm35 3.999L2 4v31h1v-1a4 4 0 014-4h25a4 4 0 014 4v1h1V3.999zM32 31H7a3 3 0 00-3 3v1h31v-1a3 3 0 00-3-3z" fill="#1B50AF" fill-rule="nonzero"/>
          <path d="M21.362 19.618c-.434.546-1.246.966-2.324.966-1.862 0-3.43-1.288-3.43-3.472 0-2.086 1.582-3.444 3.78-3.444 2.716 0 3.906 2.184 3.906 5.026 0 2.912-1.092 5.488-4.116 5.488-2.212 0-3.248-1.512-3.36-2.8h1.89c.098.84.756 1.316 1.596 1.316 1.274 0 2.058-1.204 2.058-3.08zm-1.974-4.48c-1.05 0-1.82.77-1.82 1.988 0 1.19.77 1.974 1.82 1.974s1.848-.784 1.848-1.974c0-1.204-.798-1.988-1.848-1.988z" id="bednumber_9" fill="#1B50AF"/>
        </g>
        <g id="bed_8" transform="translate(6 51)">
          <path id="highlight_8" fill="#FFF" d="M0 0h39v39H0z"/>
          <path d="M2 0v35h1v-1a4 4 0 014-4h25a4 4 0 014 4v1h1V0h2v45h-2v-6H2v6H0V0h2zm30 31H7a3 3 0 00-3 3v1h31v-1a3 3 0 00-3-3z" fill="#1B50AF" fill-rule="nonzero"/>
          <path d="M23.035 16.272c0 .91-.364 1.764-1.232 2.296 1.134.644 1.54 1.554 1.54 2.534 0 1.988-1.694 3.08-3.85 3.08-2.142 0-3.836-1.092-3.836-3.08 0-.98.42-1.904 1.554-2.534-.84-.476-1.246-1.386-1.246-2.282 0-1.512 1.386-2.618 3.528-2.618 2.156 0 3.542 1.106 3.542 2.604zm-3.542-1.148c-1.008 0-1.652.546-1.652 1.386 0 .84.644 1.456 1.652 1.456s1.666-.616 1.666-1.456-.658-1.386-1.666-1.386zm-1.862 5.894c0 1.008.728 1.708 1.862 1.708 1.148 0 1.876-.7 1.876-1.708s-.728-1.666-1.876-1.666c-1.134 0-1.862.658-1.862 1.666z" id="bednumber_8" fill="#1B50AF"/>
        </g>
        <g id="bed_7" transform="translate(6 96)">
          <path id="highlight_7" fill="#FFF" d="M0 0h39v39H0z"/>
          <path d="M2 0v35h1v-1a4 4 0 014-4h25a4 4 0 014 4v1h1V0h2v45h-2v-6H2v6H0V0h2zm30 31H7a3 3 0 00-3 3v1h31v-1a3 3 0 00-3-3z" fill="#1B50AF" fill-rule="nonzero"/>
          <path d="M15.888 13.85h7.462v1.624c-2.646 2.702-3.934 4.872-4.13 8.526h-2.128c.168-3.528 2.044-6.384 4.312-8.526h-5.516V13.85z" id="bednumber_7" fill="#1B50AF"/>
        </g>
      </g>
      <g id="cabin_10-12" transform="translate(330)">
        <path id="cabin_hilight_10-12" fill="#D5EEFA" d="M0 0h107v146H0z"/>
        <path d="M11.692 8h16.616A3.692 3.692 0 0132 11.692v16.616A3.692 3.692 0 0128.308 32H11.692A3.692 3.692 0 018 28.308V11.692A3.692 3.692 0 0111.692 8z" fill="#E2D2BA"/>
        <g id="bed_12" transform="translate(62 6)">
          <path id="highlight_12" fill="#FFF" d="M0 2h39v37H0z"/>
          <path d="M2 0v2l35-.001V0h2v45h-2v-6H2v6H0V0h2zm35 3.999L2 4v31h1v-1a4 4 0 014-4h25a4 4 0 014 4v1h1V3.999zM32 31H7a3 3 0 00-3 3v1h31v-1a3 3 0 00-3-3z" fill="#1B50AF" fill-rule="nonzero"/>
          <path d="M15.048 24v-7.588h-2.184v-1.316c1.47-.042 2.156-.14 2.646-1.246h1.47V24h-1.932zm10.528-7.602c0 1.904-1.848 3.892-4.97 5.978h5.208V24h-7.462v-1.568c3.262-2.632 5.278-4.326 5.278-5.936 0-.882-.56-1.4-1.498-1.4-.854 0-1.722.518-1.722 2.03h-1.876c-.028-2.1 1.456-3.458 3.71-3.458 2.03 0 3.332.966 3.332 2.73z" id="bednumber_12" fill="#1B50AF"/>
        </g>
        <g id="bed_11" transform="translate(62 51)">
          <path id="highlight_11" fill="#FFF" d="M0 0h39v39H0z"/>
          <path d="M2 0v35h1v-1a4 4 0 014-4h25a4 4 0 014 4v1h1V0h2v45h-2v-6H2v6H0V0h2zm30 31H7a3 3 0 00-3 3v1h31v-1a3 3 0 00-3-3z" fill="#1B50AF" fill-rule="nonzero"/>
          <path d="M16.518 24v-7.588h-2.184v-1.316c1.47-.042 2.156-.14 2.646-1.246h1.47V24h-1.932zm5.166 0v-7.588H19.5v-1.316c1.47-.042 2.156-.14 2.646-1.246h1.47V24h-1.932z" id="bednumber_11" fill="#1B50AF"/>
        </g>
        <g id="bed_10" transform="translate(62 96)">
          <path id="highlight_10" fill="#FFF" d="M0 0h39v39H0z"/>
          <path d="M2 0v35h1v-1a4 4 0 014-4h25a4 4 0 014 4v1h1V0h2v45h-2v-6H2v6H0V0h2zm30 31H7a3 3 0 00-3 3v1h31v-1a3 3 0 00-3-3z" fill="#1B50AF" fill-rule="nonzero"/>
          <path d="M14.46 24v-7.588h-2.184v-1.316c1.47-.042 2.156-.14 2.646-1.246h1.47V24H14.46zm3.542-5.096c0-3.08 1.372-5.236 4.088-5.236 2.702 0 4.074 2.156 4.074 5.236 0 3.094-1.372 5.278-4.074 5.278-2.716 0-4.088-2.184-4.088-5.278zm6.188 0c0-2.422-.728-3.78-2.1-3.78s-2.114 1.358-2.114 3.78c0 2.436.742 3.822 2.114 3.822 1.372 0 2.1-1.386 2.1-3.822z" id="bednumber_10" fill="#1B50AF"/>
        </g>
      </g>
      <g id="cabin_13-15" transform="translate(440)">
        <path id="cabin_hilight_13-15" fill="#D5EEFA" d="M0 0h107v146H0z"/>
        <path d="M78.692 8h16.616A3.692 3.692 0 0199 11.692v16.616A3.692 3.692 0 0195.308 32H78.692A3.692 3.692 0 0175 28.308V11.692A3.692 3.692 0 0178.692 8z" fill="#E2D2BA"/>
        <g id="bed_15" transform="translate(6 6)">
          <path id="highlight_15" fill="#FFF" d="M0 2h39v37H0z"/>
          <path d="M2 0v2l35-.001V0h2v45h-2v-6H2v6H0V0h2zm35 3.999L2 4v31h1v-1a4 4 0 014-4h25a4 4 0 014 4v1h1V3.999zM32 31H7a3 3 0 00-3 3v1h31v-1a3 3 0 00-3-3z" fill="#1B50AF" fill-rule="nonzero"/>
          <path d="M14.74 24v-7.588h-2.184v-1.316c1.47-.042 2.156-.14 2.646-1.246h1.47V24H14.74zm9.184-3.332c0-1.386-.938-2.072-1.876-2.072-.896 0-1.54.448-1.736.924l-1.764-.084.672-5.586h6.258v1.624h-4.676l-.28 2.17c.42-.308 1.078-.56 2.016-.56 1.736 0 3.346 1.232 3.346 3.57 0 2.24-1.736 3.528-3.822 3.528-2.38 0-3.64-1.624-3.752-3.374h1.82c.112 1.05.714 1.918 1.96 1.918 1.064 0 1.834-.77 1.834-2.058z" id="bednumber_15" fill="#1B50AF"/>
        </g>
        <g id="bed_14" transform="translate(6 51)">
          <path id="highlight_14" fill="#FFF" d="M0 0h39v39H0z"/>
          <path d="M2 0v35h1v-1a4 4 0 014-4h25a4 4 0 014 4v1h1V0h2v45h-2v-6H2v6H0V0h2zm30 31H7a3 3 0 00-3 3v1h31v-1a3 3 0 00-3-3z" fill="#1B50AF" fill-rule="nonzero"/>
          <path d="M14.663 24v-7.588h-2.184v-1.316c1.47-.042 2.156-.14 2.646-1.246h1.47V24h-1.932zm11.76-2.436h-1.736V24h-1.918v-2.436h-5.012v-1.512l5.04-6.202h1.89v6.076h1.736v1.638zm-6.552-1.638h2.898V16.3l-2.898 3.626z" id="bednumber_14" fill="#1B50AF"/>
        </g>
        <g id="bed_13" transform="translate(6 96)">
          <path id="highlight_13" fill="#FFF" d="M0 0h39v39H0z"/>
          <path d="M2 0v35h1v-1a4 4 0 014-4h25a4 4 0 014 4v1h1V0h2v45h-2v-6H2v6H0V0h2zm30 31H7a3 3 0 00-3 3v1h31v-1a3 3 0 00-3-3z" fill="#1B50AF" fill-rule="nonzero"/>
          <path d="M14.803 24v-7.588h-2.184v-1.316c1.47-.042 2.156-.14 2.646-1.246h1.47V24h-1.932zm9.072-2.856c0-1.19-1.106-1.666-2.548-1.666h-.406v-1.512h.336c1.456 0 2.366-.532 2.366-1.484 0-.882-.77-1.358-1.61-1.358-1.162 0-1.904.742-2.002 1.792h-1.834c.224-2.016 1.624-3.248 3.948-3.248 1.694 0 3.444.812 3.444 2.73 0 .98-.602 1.806-1.372 2.226a2.656 2.656 0 011.638 2.464c0 2.058-1.778 3.094-3.92 3.094-2.324 0-3.696-1.512-3.822-3.374h1.82c.14 1.022.798 1.918 2.058 1.918 1.05 0 1.904-.63 1.904-1.582z" id="bednumber_13" fill="#1B50AF"/>
        </g>
      </g>
      <g id="cabin_16-18" transform="translate(550)">
        <path id="cabin_hilight_16-18" fill="#D5EEFA" d="M0 0h107v146H0z"/>
        <path d="M11.692 8h16.616A3.692 3.692 0 0132 11.692v16.616A3.692 3.692 0 0128.308 32H11.692A3.692 3.692 0 018 28.308V11.692A3.692 3.692 0 0111.692 8z" fill="#E2D2BA"/>
        <g id="bed_18" transform="translate(62 6)">
          <path id="highlight_18" fill="#FFF" d="M0 2h39v37H0z"/>
          <path d="M2 0v2l35-.001V0h2v45h-2v-6H2v6H0V0h2zm35 3.999L2 4v31h1v-1a4 4 0 014-4h25a4 4 0 014 4v1h1V3.999zM32 31H7a3 3 0 00-3 3v1h31v-1a3 3 0 00-3-3z" fill="#1B50AF" fill-rule="nonzero"/>
          <path d="M14.614 24v-7.588H12.43v-1.316c1.47-.042 2.156-.14 2.646-1.246h1.47V24h-1.932zm11.004-7.728c0 .91-.364 1.764-1.232 2.296 1.134.644 1.54 1.554 1.54 2.534 0 1.988-1.694 3.08-3.85 3.08-2.142 0-3.836-1.092-3.836-3.08 0-.98.42-1.904 1.554-2.534-.84-.476-1.246-1.386-1.246-2.282 0-1.512 1.386-2.618 3.528-2.618 2.156 0 3.542 1.106 3.542 2.604zm-3.542-1.148c-1.008 0-1.652.546-1.652 1.386 0 .84.644 1.456 1.652 1.456s1.666-.616 1.666-1.456-.658-1.386-1.666-1.386zm-1.862 5.894c0 1.008.728 1.708 1.862 1.708 1.148 0 1.876-.7 1.876-1.708s-.728-1.666-1.876-1.666c-1.134 0-1.862.658-1.862 1.666z" id="bednumber_18" fill="#1B50AF"/>
        </g>
        <g id="bed_17" transform="translate(62 51)">
          <path id="highlight_17" fill="#FFF" d="M0 0h39v39H0z"/>
          <path d="M2 0v35h1v-1a4 4 0 014-4h25a4 4 0 014 4v1h1V0h2v45h-2v-6H2v6H0V0h2zm30 31H7a3 3 0 00-3 3v1h31v-1a3 3 0 00-3-3z" fill="#1B50AF" fill-rule="nonzero"/>
          <path d="M15.531 24v-7.588h-2.184v-1.316c1.47-.042 2.156-.14 2.646-1.246h1.47V24h-1.932zm2.94-10.15h7.462v1.624c-2.646 2.702-3.934 4.872-4.13 8.526h-2.128c.168-3.528 2.044-6.384 4.312-8.526h-5.516V13.85z" id="bednumber_17" fill="#1B50AF"/>
        </g>
        <g id="bed_16" transform="translate(62 96)">
          <path id="highlight_16" fill="#FFF" d="M0 0h39v39H0z"/>
          <path d="M2 0v35h1v-1a4 4 0 014-4h25a4 4 0 014 4v1h1V0h2v45h-2v-6H2v6H0V0h2zm30 31H7a3 3 0 00-3 3v1h31v-1a3 3 0 00-3-3z" fill="#1B50AF" fill-rule="nonzero"/>
          <path d="M14.705 24v-7.588h-2.184v-1.316c1.47-.042 2.156-.14 2.646-1.246h1.47V24h-1.932zm5.474-5.768c.434-.546 1.246-.966 2.31-.966 1.876 0 3.444 1.274 3.444 3.472 0 2.086-1.582 3.444-3.78 3.444-2.716 0-3.906-2.184-3.906-5.026 0-2.912 1.078-5.488 4.116-5.488 2.212 0 3.248 1.498 3.36 2.8h-1.89c-.098-.84-.77-1.33-1.596-1.33-1.274 0-2.058 1.204-2.058 3.094zm1.974 4.494c1.05 0 1.82-.784 1.82-2.016 0-1.19-.77-1.974-1.82-1.974-1.064 0-1.862.784-1.862 1.974 0 1.218.798 2.016 1.862 2.016z" id="bednumber_16" fill="#1B50AF"/>
        </g>
      </g>
      <g id="cabin_19-21" transform="translate(660)">
        <path id="cabin_hilight_19-21" fill="#D5EEFA" d="M0 0h107v146H0z"/>
        <path d="M78.692 8h16.616A3.692 3.692 0 0199 11.692v16.616A3.692 3.692 0 0195.308 32H78.692A3.692 3.692 0 0175 28.308V11.692A3.692 3.692 0 0178.692 8z" fill="#E2D2BA"/>
        <g id="bed_21" transform="translate(6 6)">
          <path id="highlight_21" fill="#FFF" d="M0 2h39v37H0z"/>
          <path d="M2 0v2l35-.001V0h2v45h-2v-6H2v6H0V0h2zm35 3.999L2 4v31h1v-1a4 4 0 014-4h25a4 4 0 014 4v1h1V3.999zM32 31H7a3 3 0 00-3 3v1h31v-1a3 3 0 00-3-3z" fill="#1B50AF" fill-rule="nonzero"/>
          <path d="M20.41 16.398c0 1.904-1.848 3.892-4.97 5.978h5.208V24h-7.462v-1.568c3.262-2.632 5.278-4.326 5.278-5.936 0-.882-.56-1.4-1.498-1.4-.854 0-1.722.518-1.722 2.03h-1.876c-.028-2.1 1.456-3.458 3.71-3.458 2.03 0 3.332.966 3.332 2.73zM23.154 24v-7.588H20.97v-1.316c1.47-.042 2.156-.14 2.646-1.246h1.47V24h-1.932z" id="bednumber_21" fill="#1B50AF"/>
        </g>
        <g id="bed_20" transform="translate(6 51)">
          <path id="highlight_20" fill="#FFF" d="M0 0h39v39H0z"/>
          <path d="M2 0v35h1v-1a4 4 0 014-4h25a4 4 0 014 4v1h1V0h2v45h-2v-6H2v6H0V0h2zm30 31H7a3 3 0 00-3 3v1h31v-1a3 3 0 00-3-3z" fill="#1B50AF" fill-rule="nonzero"/>
          <path d="M18.352 16.398c0 1.904-1.848 3.892-4.97 5.978h5.208V24h-7.462v-1.568c3.262-2.632 5.278-4.326 5.278-5.936 0-.882-.56-1.4-1.498-1.4-.854 0-1.722.518-1.722 2.03H11.31c-.028-2.1 1.456-3.458 3.71-3.458 2.03 0 3.332.966 3.332 2.73zm1.12 2.506c0-3.08 1.372-5.236 4.088-5.236 2.702 0 4.074 2.156 4.074 5.236 0 3.094-1.372 5.278-4.074 5.278-2.716 0-4.088-2.184-4.088-5.278zm6.188 0c0-2.422-.728-3.78-2.1-3.78s-2.114 1.358-2.114 3.78c0 2.436.742 3.822 2.114 3.822 1.372 0 2.1-1.386 2.1-3.822z" id="bednumber_20" fill="#1B50AF"/>
        </g>
        <g id="bed_19" transform="translate(6 96)">
          <path id="highlight_19" fill="#FFF" d="M0 0h39v39H0z"/>
          <path d="M2 0v35h1v-1a4 4 0 014-4h25a4 4 0 014 4v1h1V0h2v45h-2v-6H2v6H0V0h2zm30 31H7a3 3 0 00-3 3v1h31v-1a3 3 0 00-3-3z" fill="#1B50AF" fill-rule="nonzero"/>
          <path d="M14.747 24v-7.588h-2.184v-1.316c1.47-.042 2.156-.14 2.646-1.246h1.47V24h-1.932zm9.198-4.382c-.434.546-1.246.966-2.324.966-1.862 0-3.43-1.288-3.43-3.472 0-2.086 1.582-3.444 3.78-3.444 2.716 0 3.906 2.184 3.906 5.026 0 2.912-1.092 5.488-4.116 5.488-2.212 0-3.248-1.512-3.36-2.8h1.89c.098.84.756 1.316 1.596 1.316 1.274 0 2.058-1.204 2.058-3.08zm-1.974-4.48c-1.05 0-1.82.77-1.82 1.988 0 1.19.77 1.974 1.82 1.974s1.848-.784 1.848-1.974c0-1.204-.798-1.988-1.848-1.988z" id="bednumber_19" fill="#1B50AF"/>
        </g>
      </g>
      <g id="cabin_22-24" transform="translate(770)">
        <path id="cabin_hilight_22-24" fill="#D5EEFA" d="M0 0h107v146H0z"/>
        <path d="M11.692 8h16.616A3.692 3.692 0 0132 11.692v16.616A3.692 3.692 0 0128.308 32H11.692A3.692 3.692 0 018 28.308V11.692A3.692 3.692 0 0111.692 8z" fill="#E2D2BA"/>
        <g id="bed_24" transform="translate(62 6)">
          <path id="highlight_24" fill="#FFF" d="M0 2h39v37H0z"/>
          <path d="M2 0v2l35-.001V0h2v45h-2v-6H2v6H0V0h2zm35 3.999L2 4v31h1v-1a4 4 0 014-4h25a4 4 0 014 4v1h1V3.999zM32 31H7a3 3 0 00-3 3v1h31v-1a3 3 0 00-3-3z" fill="#1B50AF" fill-rule="nonzero"/>
          <path d="M18.555 16.398c0 1.904-1.848 3.892-4.97 5.978h5.208V24h-7.462v-1.568c3.262-2.632 5.278-4.326 5.278-5.936 0-.882-.56-1.4-1.498-1.4-.854 0-1.722.518-1.722 2.03h-1.876c-.028-2.1 1.456-3.458 3.71-3.458 2.03 0 3.332.966 3.332 2.73zm9.338 5.166h-1.736V24h-1.918v-2.436h-5.012v-1.512l5.04-6.202h1.89v6.076h1.736v1.638zm-6.552-1.638h2.898V16.3l-2.898 3.626z" id="bednumber_24" fill="#1B50AF"/>
        </g>
        <g id="bed_23" transform="translate(62 51)">
          <path id="highlight_23" fill="#FFF" d="M0 0h39v39H0z"/>
          <path d="M2 0v35h1v-1a4 4 0 014-4h25a4 4 0 014 4v1h1V0h2v45h-2v-6H2v6H0V0h2zm30 31H7a3 3 0 00-3 3v1h31v-1a3 3 0 00-3-3z" fill="#1B50AF" fill-rule="nonzero"/>
          <path d="M18.695 16.398c0 1.904-1.848 3.892-4.97 5.978h5.208V24h-7.462v-1.568c3.262-2.632 5.278-4.326 5.278-5.936 0-.882-.56-1.4-1.498-1.4-.854 0-1.722.518-1.722 2.03h-1.876c-.028-2.1 1.456-3.458 3.71-3.458 2.03 0 3.332.966 3.332 2.73zm6.65 4.746c0-1.19-1.106-1.666-2.548-1.666h-.406v-1.512h.336c1.456 0 2.366-.532 2.366-1.484 0-.882-.77-1.358-1.61-1.358-1.162 0-1.904.742-2.002 1.792h-1.834c.224-2.016 1.624-3.248 3.948-3.248 1.694 0 3.444.812 3.444 2.73 0 .98-.602 1.806-1.372 2.226a2.656 2.656 0 011.638 2.464c0 2.058-1.778 3.094-3.92 3.094-2.324 0-3.696-1.512-3.822-3.374h1.82c.14 1.022.798 1.918 2.058 1.918 1.05 0 1.904-.63 1.904-1.582z" id="bednumber_23" fill="#1B50AF"/>
        </g>
        <g id="bed_22" transform="translate(62 96)">
          <path id="highlight_22" fill="#FFF" d="M0 0h39v39H0z"/>
          <path d="M2 0v35h1v-1a4 4 0 014-4h25a4 4 0 014 4v1h1V0h2v45h-2v-6H2v6H0V0h2zm30 31H7a3 3 0 00-3 3v1h31v-1a3 3 0 00-3-3z" fill="#1B50AF" fill-rule="nonzero"/>
          <path d="M18.94 16.398c0 1.904-1.848 3.892-4.97 5.978h5.208V24h-7.462v-1.568c3.262-2.632 5.278-4.326 5.278-5.936 0-.882-.56-1.4-1.498-1.4-.854 0-1.722.518-1.722 2.03h-1.876c-.028-2.1 1.456-3.458 3.71-3.458 2.03 0 3.332.966 3.332 2.73zm8.106 0c0 1.904-1.848 3.892-4.97 5.978h5.208V24h-7.462v-1.568c3.262-2.632 5.278-4.326 5.278-5.936 0-.882-.56-1.4-1.498-1.4-.854 0-1.722.518-1.722 2.03h-1.876c-.028-2.1 1.456-3.458 3.71-3.458 2.03 0 3.332.966 3.332 2.73z" id="bednumber_22" fill="#1B50AF"/>
        </g>
      </g>
      <g id="cabin_25-27" transform="translate(880)">
        <path id="cabin_hilight_25-27" fill="#D5EEFA" d="M0 0h107v146H0z"/>
        <path d="M78.692 8h16.616A3.692 3.692 0 0199 11.692v16.616A3.692 3.692 0 0195.308 32H78.692A3.692 3.692 0 0175 28.308V11.692A3.692 3.692 0 0178.692 8z" fill="#E2D2BA"/>
        <g id="bed_27" transform="translate(6 6)">
          <path id="highlight_27" fill="#FFF" d="M0 2h39v37H0z"/>
          <path d="M2 0v2l35-.001V0h2v45h-2v-6H2v6H0V0h2zm35 3.999L2 4v31h1v-1a4 4 0 014-4h25a4 4 0 014 4v1h1V3.999zM32 31H7a3 3 0 00-3 3v1h31v-1a3 3 0 00-3-3z" fill="#1B50AF" fill-rule="nonzero"/>
          <path d="M19.423 16.398c0 1.904-1.848 3.892-4.97 5.978h5.208V24h-7.462v-1.568c3.262-2.632 5.278-4.326 5.278-5.936 0-.882-.56-1.4-1.498-1.4-.854 0-1.722.518-1.722 2.03h-1.876c-.028-2.1 1.456-3.458 3.71-3.458 2.03 0 3.332.966 3.332 2.73zm.518-2.548h7.462v1.624c-2.646 2.702-3.934 4.872-4.13 8.526h-2.128c.168-3.528 2.044-6.384 4.312-8.526h-5.516V13.85z" id="bednumber_27" fill="#1B50AF"/>
        </g>
        <g id="bed_26" transform="translate(6 51)">
          <path id="highlight_26" fill="#FFF" d="M0 0h39v39H0z"/>
          <path d="M2 0v35h1v-1a4 4 0 014-4h25a4 4 0 014 4v1h1V0h2v45h-2v-6H2v6H0V0h2zm30 31H7a3 3 0 00-3 3v1h31v-1a3 3 0 00-3-3z" fill="#1B50AF" fill-rule="nonzero"/>
          <path d="M18.597 16.398c0 1.904-1.848 3.892-4.97 5.978h5.208V24h-7.462v-1.568c3.262-2.632 5.278-4.326 5.278-5.936 0-.882-.56-1.4-1.498-1.4-.854 0-1.722.518-1.722 2.03h-1.876c-.028-2.1 1.456-3.458 3.71-3.458 2.03 0 3.332.966 3.332 2.73zm3.052 1.834c.434-.546 1.246-.966 2.31-.966 1.876 0 3.444 1.274 3.444 3.472 0 2.086-1.582 3.444-3.78 3.444-2.716 0-3.906-2.184-3.906-5.026 0-2.912 1.078-5.488 4.116-5.488 2.212 0 3.248 1.498 3.36 2.8h-1.89c-.098-.84-.77-1.33-1.596-1.33-1.274 0-2.058 1.204-2.058 3.094zm1.974 4.494c1.05 0 1.82-.784 1.82-2.016 0-1.19-.77-1.974-1.82-1.974-1.064 0-1.862.784-1.862 1.974 0 1.218.798 2.016 1.862 2.016z" id="bednumber_26" fill="#1B50AF"/>
        </g>
        <g id="bed_25" transform="translate(6 96)">
          <path id="highlight_25" fill="#FFF" d="M0 0h39v39H0z"/>
          <path d="M2 0v35h1v-1a4 4 0 014-4h25a4 4 0 014 4v1h1V0h2v45h-2v-6H2v6H0V0h2zm30 31H7a3 3 0 00-3 3v1h31v-1a3 3 0 00-3-3z" fill="#1B50AF" fill-rule="nonzero"/>
          <path d="M18.632 16.398c0 1.904-1.848 3.892-4.97 5.978h5.208V24h-7.462v-1.568c3.262-2.632 5.278-4.326 5.278-5.936 0-.882-.56-1.4-1.498-1.4-.854 0-1.722.518-1.722 2.03H11.59c-.028-2.1 1.456-3.458 3.71-3.458 2.03 0 3.332.966 3.332 2.73zm6.762 4.27c0-1.386-.938-2.072-1.876-2.072-.896 0-1.54.448-1.736.924l-1.764-.084.672-5.586h6.258v1.624h-4.676l-.28 2.17c.42-.308 1.078-.56 2.016-.56 1.736 0 3.346 1.232 3.346 3.57 0 2.24-1.736 3.528-3.822 3.528-2.38 0-3.64-1.624-3.752-3.374h1.82c.112 1.05.714 1.918 1.96 1.918 1.064 0 1.834-.77 1.834-2.058z" id="bednumber_25" fill="#1B50AF"/>
        </g>
      </g>
      <g id="cabin_28-30" transform="translate(990)">
        <path id="cabin_hilight_28-30" fill="#D5EEFA" d="M0 0h107v146H0z"/>
        <path d="M11.692 8h16.616A3.692 3.692 0 0132 11.692v16.616A3.692 3.692 0 0128.308 32H11.692A3.692 3.692 0 018 28.308V11.692A3.692 3.692 0 0111.692 8z" fill="#E2D2BA"/>
        <g id="bed_30" transform="translate(62 6)">
          <path id="highlight_30" fill="#FFF" d="M0 2h39v37H0z"/>
          <path d="M2 0v2l35-.001V0h2v45h-2v-6H2v6H0V0h2zm35 3.999L2 4v31h1v-1a4 4 0 014-4h25a4 4 0 014 4v1h1V3.999zM32 31H7a3 3 0 00-3 3v1h31v-1a3 3 0 00-3-3z" fill="#1B50AF" fill-rule="nonzero"/>
          <path d="M16.651 21.144c0-1.19-1.106-1.666-2.548-1.666h-.406v-1.512h.336c1.456 0 2.366-.532 2.366-1.484 0-.882-.77-1.358-1.61-1.358-1.162 0-1.904.742-2.002 1.792h-1.834c.224-2.016 1.624-3.248 3.948-3.248 1.694 0 3.444.812 3.444 2.73 0 .98-.602 1.806-1.372 2.226a2.656 2.656 0 011.638 2.464c0 2.058-1.778 3.094-3.92 3.094-2.324 0-3.696-1.512-3.822-3.374h1.82c.14 1.022.798 1.918 2.058 1.918 1.05 0 1.904-.63 1.904-1.582zm3.066-2.24c0-3.08 1.372-5.236 4.088-5.236 2.702 0 4.074 2.156 4.074 5.236 0 3.094-1.372 5.278-4.074 5.278-2.716 0-4.088-2.184-4.088-5.278zm6.188 0c0-2.422-.728-3.78-2.1-3.78s-2.114 1.358-2.114 3.78c0 2.436.742 3.822 2.114 3.822 1.372 0 2.1-1.386 2.1-3.822z" id="bednumber_30" fill="#1B50AF"/>
        </g>
        <g id="bed_29" transform="translate(62 51)">
          <path id="highlight_29" fill="#FFF" d="M0 0h39v39H0z"/>
          <path d="M2 0v35h1v-1a4 4 0 014-4h25a4 4 0 014 4v1h1V0h2v45h-2v-6H2v6H0V0h2zm30 31H7a3 3 0 00-3 3v1h31v-1a3 3 0 00-3-3z" fill="#1B50AF" fill-rule="nonzero"/>
          <path d="M18.639 16.398c0 1.904-1.848 3.892-4.97 5.978h5.208V24h-7.462v-1.568c3.262-2.632 5.278-4.326 5.278-5.936 0-.882-.56-1.4-1.498-1.4-.854 0-1.722.518-1.722 2.03h-1.876c-.028-2.1 1.456-3.458 3.71-3.458 2.03 0 3.332.966 3.332 2.73zm6.776 3.22c-.434.546-1.246.966-2.324.966-1.862 0-3.43-1.288-3.43-3.472 0-2.086 1.582-3.444 3.78-3.444 2.716 0 3.906 2.184 3.906 5.026 0 2.912-1.092 5.488-4.116 5.488-2.212 0-3.248-1.512-3.36-2.8h1.89c.098.84.756 1.316 1.596 1.316 1.274 0 2.058-1.204 2.058-3.08zm-1.974-4.48c-1.05 0-1.82.77-1.82 1.988 0 1.19.77 1.974 1.82 1.974s1.848-.784 1.848-1.974c0-1.204-.798-1.988-1.848-1.988z" id="bednumber_29" fill="#1B50AF"/>
        </g>
        <g id="bed_28" transform="translate(62 96)">
          <path id="highlight_28" fill="#FFF" d="M0 0h39v39H0z"/>
          <path d="M2 0v35h1v-1a4 4 0 014-4h25a4 4 0 014 4v1h1V0h2v45h-2v-6H2v6H0V0h2zm30 31H7a3 3 0 00-3 3v1h31v-1a3 3 0 00-3-3z" fill="#1B50AF" fill-rule="nonzero"/>
          <path d="M18.506 16.398c0 1.904-1.848 3.892-4.97 5.978h5.208V24h-7.462v-1.568c3.262-2.632 5.278-4.326 5.278-5.936 0-.882-.56-1.4-1.498-1.4-.854 0-1.722.518-1.722 2.03h-1.876c-.028-2.1 1.456-3.458 3.71-3.458 2.03 0 3.332.966 3.332 2.73zm8.582-.126c0 .91-.364 1.764-1.232 2.296 1.134.644 1.54 1.554 1.54 2.534 0 1.988-1.694 3.08-3.85 3.08-2.142 0-3.836-1.092-3.836-3.08 0-.98.42-1.904 1.554-2.534-.84-.476-1.246-1.386-1.246-2.282 0-1.512 1.386-2.618 3.528-2.618 2.156 0 3.542 1.106 3.542 2.604zm-3.542-1.148c-1.008 0-1.652.546-1.652 1.386 0 .84.644 1.456 1.652 1.456s1.666-.616 1.666-1.456-.658-1.386-1.666-1.386zm-1.862 5.894c0 1.008.728 1.708 1.862 1.708 1.148 0 1.876-.7 1.876-1.708s-.728-1.666-1.876-1.666c-1.134 0-1.862.658-1.862 1.666z" id="bednumber_28" fill="#1B50AF"/>
        </g>
      </g>
      <g id="cabin_31-33" transform="translate(1100)">
        <path id="cabin_hilight_31-33" fill="#D5EEFA" d="M0 0h107v146H0z"/>
        <path d="M78.692 8h16.616A3.692 3.692 0 0199 11.692v16.616A3.692 3.692 0 0195.308 32H78.692A3.692 3.692 0 0175 28.308V11.692A3.692 3.692 0 0178.692 8z" fill="#E2D2BA"/>
        <g id="bed_33" transform="translate(6 6)">
          <path id="highlight_33" fill="#FFF" d="M0 2h39v37H0z"/>
          <path d="M2 0v2l35-.001V0h2v45h-2v-6H2v6H0V0h2zm35 3.999L2 4v31h1v-1a4 4 0 014-4h25a4 4 0 014 4v1h1V3.999zM32 31H7a3 3 0 00-3 3v1h31v-1a3 3 0 00-3-3z" fill="#1B50AF" fill-rule="nonzero"/>
          <path d="M16.994 21.144c0-1.19-1.106-1.666-2.548-1.666h-.406v-1.512h.336c1.456 0 2.366-.532 2.366-1.484 0-.882-.77-1.358-1.61-1.358-1.162 0-1.904.742-2.002 1.792h-1.834c.224-2.016 1.624-3.248 3.948-3.248 1.694 0 3.444.812 3.444 2.73 0 .98-.602 1.806-1.372 2.226a2.656 2.656 0 011.638 2.464c0 2.058-1.778 3.094-3.92 3.094-2.324 0-3.696-1.512-3.822-3.374h1.82c.14 1.022.798 1.918 2.058 1.918 1.05 0 1.904-.63 1.904-1.582zm8.596 0c0-1.19-1.106-1.666-2.548-1.666h-.406v-1.512h.336c1.456 0 2.366-.532 2.366-1.484 0-.882-.77-1.358-1.61-1.358-1.162 0-1.904.742-2.002 1.792h-1.834c.224-2.016 1.624-3.248 3.948-3.248 1.694 0 3.444.812 3.444 2.73 0 .98-.602 1.806-1.372 2.226a2.656 2.656 0 011.638 2.464c0 2.058-1.778 3.094-3.92 3.094-2.324 0-3.696-1.512-3.822-3.374h1.82c.14 1.022.798 1.918 2.058 1.918 1.05 0 1.904-.63 1.904-1.582z" id="bednumber_33" fill="#1B50AF"/>
        </g>
        <g id="bed_32" transform="translate(6 51)">
          <path id="highlight_32" fill="#FFF" d="M0 0h39v39H0z"/>
          <path d="M2 45H0V0h2v35h1v-1a4 4 0 014-4h25a4 4 0 014 4v1h1V0h2v45h-2v-6H2v6zm30-14H7a3 3 0 00-3 3v1h31v-1a3 3 0 00-3-3z" fill="#1B50AF" fill-rule="nonzero"/>
          <path d="M17.239 21.144c0-1.19-1.106-1.666-2.548-1.666h-.406v-1.512h.336c1.456 0 2.366-.532 2.366-1.484 0-.882-.77-1.358-1.61-1.358-1.162 0-1.904.742-2.002 1.792h-1.834c.224-2.016 1.624-3.248 3.948-3.248 1.694 0 3.444.812 3.444 2.73 0 .98-.602 1.806-1.372 2.226a2.656 2.656 0 011.638 2.464c0 2.058-1.778 3.094-3.92 3.094-2.324 0-3.696-1.512-3.822-3.374h1.82c.14 1.022.798 1.918 2.058 1.918 1.05 0 1.904-.63 1.904-1.582zm10.052-4.746c0 1.904-1.848 3.892-4.97 5.978h5.208V24h-7.462v-1.568c3.262-2.632 5.278-4.326 5.278-5.936 0-.882-.56-1.4-1.498-1.4-.854 0-1.722.518-1.722 2.03h-1.876c-.028-2.1 1.456-3.458 3.71-3.458 2.03 0 3.332.966 3.332 2.73z" id="bednumber_32" fill="#1B50AF"/>
        </g>
        <g id="bed_31" transform="translate(6 96)">
          <path id="highlight_31" fill="#FFF" d="M0 0h39v39H0z"/>
          <path d="M2 45H0V0h2v35h1v-1a4 4 0 014-4h25a4 4 0 014 4v1h1V0h2v45h-2v-6H2v6zm30-14H7a3 3 0 00-3 3v1h31v-1a3 3 0 00-3-3z" fill="#1B50AF" fill-rule="nonzero"/>
          <path d="M18.709 21.144c0-1.19-1.106-1.666-2.548-1.666h-.406v-1.512h.336c1.456 0 2.366-.532 2.366-1.484 0-.882-.77-1.358-1.61-1.358-1.162 0-1.904.742-2.002 1.792h-1.834c.224-2.016 1.624-3.248 3.948-3.248 1.694 0 3.444.812 3.444 2.73 0 .98-.602 1.806-1.372 2.226a2.656 2.656 0 011.638 2.464c0 2.058-1.778 3.094-3.92 3.094-2.324 0-3.696-1.512-3.822-3.374h1.82c.14 1.022.798 1.918 2.058 1.918 1.05 0 1.904-.63 1.904-1.582zM23.399 24v-7.588h-2.184v-1.316c1.47-.042 2.156-.14 2.646-1.246h1.47V24h-1.932z" id="bednumber_31" fill="#1B50AF"/>
        </g>
      </g>
      <g id="cabin_34-35" transform="translate(1210)">
        <path id="cabin_hilight_34-35" fill="#D5EEFA" d="M0 0h107v146H0z"/>
        <path d="M11.692 8h16.616A3.692 3.692 0 0132 11.692v16.616A3.692 3.692 0 0128.308 32H11.692A3.692 3.692 0 018 28.308V11.692A3.692 3.692 0 0111.692 8z" fill="#E2D2BA"/>
        <g id="bed_35" transform="translate(62 31)">
          <path id="highlight_35" fill="#FFF" d="M0 2h39v37H0z"/>
          <path d="M2 0v2l35-.001V0h2v45h-2v-6H2v6H0V0h2zm35 3.999L2 4v31h1v-1a4 4 0 014-4h25a4 4 0 014 4v1h1V3.999zM32 31H7a3 3 0 00-3 3v1h31v-1a3 3 0 00-3-3z" fill="#1B50AF" fill-rule="nonzero"/>
          <path d="M16.931 21.144c0-1.19-1.106-1.666-2.548-1.666h-.406v-1.512h.336c1.456 0 2.366-.532 2.366-1.484 0-.882-.77-1.358-1.61-1.358-1.162 0-1.904.742-2.002 1.792h-1.834c.224-2.016 1.624-3.248 3.948-3.248 1.694 0 3.444.812 3.444 2.73 0 .98-.602 1.806-1.372 2.226a2.656 2.656 0 011.638 2.464c0 2.058-1.778 3.094-3.92 3.094-2.324 0-3.696-1.512-3.822-3.374h1.82c.14 1.022.798 1.918 2.058 1.918 1.05 0 1.904-.63 1.904-1.582zm8.708-.476c0-1.386-.938-2.072-1.876-2.072-.896 0-1.54.448-1.736.924l-1.764-.084.672-5.586h6.258v1.624h-4.676l-.28 2.17c.42-.308 1.078-.56 2.016-.56 1.736 0 3.346 1.232 3.346 3.57 0 2.24-1.736 3.528-3.822 3.528-2.38 0-3.64-1.624-3.752-3.374h1.82c.112 1.05.714 1.918 1.96 1.918 1.064 0 1.834-.77 1.834-2.058z" id="bednumber_35" fill="#1B50AF"/>
        </g>
        <g id="bed_34" transform="translate(62 76)">
          <path id="highlight_34" fill="#FFF" d="M0 0h39v39H0z"/>
          <path d="M2 45H0V0h2v35h1v-1a4 4 0 014-4h25a4 4 0 014 4v1h1V0h2v45h-2v-6H2v6zm30-14H7a3 3 0 00-3 3v1h31v-1a3 3 0 00-3-3z" fill="#1B50AF" fill-rule="nonzero"/>
          <path d="M16.854 21.144c0-1.19-1.106-1.666-2.548-1.666H13.9v-1.512h.336c1.456 0 2.366-.532 2.366-1.484 0-.882-.77-1.358-1.61-1.358-1.162 0-1.904.742-2.002 1.792h-1.834c.224-2.016 1.624-3.248 3.948-3.248 1.694 0 3.444.812 3.444 2.73 0 .98-.602 1.806-1.372 2.226a2.656 2.656 0 011.638 2.464c0 2.058-1.778 3.094-3.92 3.094-2.324 0-3.696-1.512-3.822-3.374h1.82c.14 1.022.798 1.918 2.058 1.918 1.05 0 1.904-.63 1.904-1.582zm11.284.42h-1.736V24h-1.918v-2.436h-5.012v-1.512l5.04-6.202h1.89v6.076h1.736v1.638zm-6.552-1.638h2.898V16.3l-2.898 3.626z" id="bednumber_34" fill="#1B50AF"/>
        </g>
      </g>
    </g>
    <g id="Service-badges" transform="translate(68 53)">
      <g id="service-badge">
        <circle stroke="#fff" stroke-width="2" fill="#f2f2f2" cx="29" cy="29" r="28"/>
        <g id="Icon/Service/WC" transform="translate(17 17)">
          <path d="M0 0h24v24H0z"/>
          <path d="M19.16 7a5.221 5.221 0 014.78 3.146l-.853.377c-.518.228-1.101.055-1.468-.378A3.221 3.221 0 0019.16 9c-1.781 0-3.23 1.458-3.23 3.25s1.449 3.25 3.23 3.25a3.22 3.22 0 002.46-1.145c.367-.432.95-.605 1.468-.377l.854.376a5.22 5.22 0 01-4.782 3.146c-2.877 0-5.218-2.354-5.218-5.25 0-2.895 2.341-5.25 5.218-5.25zm-12.177.165c1.017 0 1.83.703 1.979 1.709l.951 6.46 1.383-5.572.374-1.511a1.25 1.25 0 011.213-.949h1.083l-.44 1.775-1.671 6.739a1.978 1.978 0 01-1.937 1.519l-.101-.002a1.982 1.982 0 01-1.882-1.707l-.951-6.46-.952 6.46a1.98 1.98 0 01-1.883 1.707c-.968.033-1.805-.577-2.038-1.517L0 7.302h1.083a1.25 1.25 0 011.213.949l.3 1.209 1.457 5.874.952-6.46a1.963 1.963 0 011.978-1.709z" fill="#1b50af"/>
        </g>
      </g>
      <g id="service-badge" transform="translate(1393)">
        <circle stroke="#fff" stroke-width="2" fill="#f2f2f2" cx="29" cy="29" r="28"/>
        <g id="Icon/Service/WC" transform="translate(17 17)">
          <path d="M0 0h24v24H0z"/>
          <path d="M19.16 7a5.221 5.221 0 014.78 3.146l-.853.377c-.518.228-1.101.055-1.468-.378A3.221 3.221 0 0019.16 9c-1.781 0-3.23 1.458-3.23 3.25s1.449 3.25 3.23 3.25a3.22 3.22 0 002.46-1.145c.367-.432.95-.605 1.468-.377l.854.376a5.22 5.22 0 01-4.782 3.146c-2.877 0-5.218-2.354-5.218-5.25 0-2.895 2.341-5.25 5.218-5.25zm-12.177.165c1.017 0 1.83.703 1.979 1.709l.951 6.46 1.383-5.572.374-1.511a1.25 1.25 0 011.213-.949h1.083l-.44 1.775-1.671 6.739a1.978 1.978 0 01-1.937 1.519l-.101-.002a1.982 1.982 0 01-1.882-1.707l-.951-6.46-.952 6.46a1.98 1.98 0 01-1.883 1.707c-.968.033-1.805-.577-2.038-1.517L0 7.302h1.083a1.25 1.25 0 011.213.949l.3 1.209 1.457 5.874.952-6.46a1.963 1.963 0 011.978-1.709z" fill="#1b50af"/>
        </g>
      </g>
      <g id="service-badge" transform="translate(114)">
        <circle stroke="#fff" stroke-width="2" fill="#f2f2f2" cx="29" cy="29" r="28"/>
        <g id="Icon" transform="translate(17 17)">
          <path d="M0 24h24V0H0z"/>
          <path d="M21.1 7.934a1.006 1.006 0 01-.358.066h-6.968a.999.999 0 01-.51-.14L9.323 5.527l-1.368-3.26A1.25 1.25 0 006.802 1.5H5.464l.63 1.5h-.602a3 3 0 00-3 3v.05l-1.85.708A1 1 0 00.068 8.05l.631 1.636A3 3 0 003.453 11.5h1.54v2.194c0 .628.197 1.24.563 1.75l.936 1.303V22.5h.75c.69 0 1.25-.56 1.25-1.25v-4.502a2 2 0 00-.376-1.167l-.935-1.303a1 1 0 01-.189-.585V11.5a2 2 0 00-2-2H3.453a1 1 0 01-.933-.642l-.227-.59.82-.314c.79-.302 1.393-1.058 1.38-1.904V6a.985.985 0 011-.998h1.441L7.48 6.3c.167.396.456.728.825.947l3.94 2.334c.464.274.992.419 1.53.419h6.968c.367 0 .73-.067 1.074-.198l1.374-.527a1.25 1.25 0 00.802-1.167V6.826L21.1 7.934zm2.034 4.281a1.25 1.25 0 00-1.614-.72l-.7.269.606 1.584a.994.994 0 01.066.357v8.792h.75c.69 0 1.25-.559 1.25-1.25v-7.542c0-.367-.067-.73-.198-1.073l-.16-.417zm-4.723 2.059a2 2 0 00-2.334-.692l-4.68 1.794a3 3 0 00-1.926 2.832l.021 4.292.747-.003a1.25 1.25 0 001.244-1.26l-.012-3.049a1.003 1.003 0 01.644-.944l4.678-1.795 1.508 2.077a1 1 0 01.191.587V22.5h.75c.69 0 1.25-.56 1.25-1.25v-3.139c0-.633-.2-1.25-.572-1.762l-1.509-2.075z" fill="#1b50af"/>
        </g>
      </g>
      <g id="service-badge" transform="translate(1280)">
        <circle stroke="#fff" stroke-width="2" fill="#f2f2f2" cx="29" cy="29" r="28"/>
        <g id="Icon" transform="translate(17 17)">
          <path d="M0 24h24V0H0z"/>
          <path d="M21.1 7.934a1.006 1.006 0 01-.358.066h-6.968a.999.999 0 01-.51-.14L9.323 5.527l-1.368-3.26A1.25 1.25 0 006.802 1.5H5.464l.63 1.5h-.602a3 3 0 00-3 3v.05l-1.85.708A1 1 0 00.068 8.05l.631 1.636A3 3 0 003.453 11.5h1.54v2.194c0 .628.197 1.24.563 1.75l.936 1.303V22.5h.75c.69 0 1.25-.56 1.25-1.25v-4.502a2 2 0 00-.376-1.167l-.935-1.303a1 1 0 01-.189-.585V11.5a2 2 0 00-2-2H3.453a1 1 0 01-.933-.642l-.227-.59.82-.314c.79-.302 1.393-1.058 1.38-1.904V6a.985.985 0 011-.998h1.441L7.48 6.3c.167.396.456.728.825.947l3.94 2.334c.464.274.992.419 1.53.419h6.968c.367 0 .73-.067 1.074-.198l1.374-.527a1.25 1.25 0 00.802-1.167V6.826L21.1 7.934zm2.034 4.281a1.25 1.25 0 00-1.614-.72l-.7.269.606 1.584a.994.994 0 01.066.357v8.792h.75c.69 0 1.25-.559 1.25-1.25v-7.542c0-.367-.067-.73-.198-1.073l-.16-.417zm-4.723 2.059a2 2 0 00-2.334-.692l-4.68 1.794a3 3 0 00-1.926 2.832l.021 4.292.747-.003a1.25 1.25 0 001.244-1.26l-.012-3.049a1.003 1.003 0 01.644-.944l4.678-1.795 1.508 2.077a1 1 0 01.191.587V22.5h.75c.69 0 1.25-.56 1.25-1.25v-3.139c0-.633-.2-1.25-.572-1.762l-1.509-2.075z" fill="#1b50af"/>
        </g>
      </g>
    </g>
  </g>
</svg>
