<svg viewBox="0 0 1586 237"
  xmlns="http://www.w3.org/2000/svg"
  xmlns:xlink="http://www.w3.org/1999/xlink"
  xmlns:vr="http://vr/wagonmap" preserveAspectRatio="xMinYMin meet">
  <defs>
    <svg id="pet-seat-icon" viewBox="0 0 620 620"
      xmlns="http://www.w3.org/2000/svg" preserveAspectRatio="xMinYMin meet">
      <g fill-rule="evenodd">
        <path d="M42.2 15.868a2.013 2.013 0 01-.716.132H27.548a2 2 0 01-1.02-.279l-7.883-4.669-2.736-6.519A2.5 2.5 0 0013.604 3h-2.676l1.26 3h-1.204a6 6 0 00-6 6v.099l-3.699 1.416a2 2 0 00-1.152 2.584l1.263 3.274A6 6 0 006.906 23h3.078v4.388c0 1.256.395 2.481 1.127 3.501l1.873 2.606V45h1.5a2.5 2.5 0 002.5-2.5v-9.004c0-.837-.263-1.654-.752-2.334l-1.87-2.606a2.002 2.002 0 01-.378-1.169V23a4 4 0 00-4-4H6.906a2 2 0 01-1.867-1.284l-.454-1.18 1.64-.627c1.581-.606 2.787-2.116 2.76-3.81V12c-.019-1.12.883-1.997 2-1.997h2.883l1.09 2.597a4.002 4.002 0 001.65 1.893l7.881 4.669a5.996 5.996 0 003.06.838h13.934c.735 0 1.462-.134 2.148-.397l2.748-1.053a2.5 2.5 0 001.605-2.334v-2.564L42.2 15.868zm4.067 8.562a2.499 2.499 0 00-3.228-1.44l-1.4.537 1.212 3.169c.088.228.133.471.133.715v17.584h1.5a2.5 2.5 0 002.5-2.5V27.41a6.01 6.01 0 00-.397-2.146l-.32-.834zm-9.445 4.117a4.001 4.001 0 00-4.668-1.384l-9.359 3.59a6.001 6.001 0 00-3.853 5.663L18.984 45l1.493-.007a2.501 2.501 0 002.488-2.52l-.023-6.097a2.005 2.005 0 011.288-1.889l9.356-3.589 3.016 4.153a2 2 0 01.382 1.175V45h1.5a2.5 2.5 0 002.5-2.5v-6.277c0-1.266-.4-2.5-1.145-3.524l-3.017-4.152z"/>
      </g>
    </svg>
  </defs>
  <g id="EDG_down" stroke="none" stroke-width="1" fill="none" fill-rule="evenodd">
    <path fill="#FFF" d="M0 0h1586v237H0z"/>
    <g id="Pet-seat-indicators" transform="translate(777 7)">
      <path id="pet_seat_indicator_37" vr:x="0" vr:y="0" vr:width="128" vr:height="57" d="M0 0h128v57H0z"/>
      <path id="pet_seat_indicator_38" vr:x="0" vr:y="45" vr:width="128" vr:height="67" d="M0 45h128v67H0z"/>
      <path id="pet_seat_indicator_41" vr:x="127" vr:y="0" vr:width="57" vr:height="57" d="M127 0h57v57h-57z"/>
      <path id="pet_seat_indicator_42" vr:x="127" vr:y="45" vr:width="57" vr:height="67" d="M127 45h57v67h-57z"/>
      <path id="pet_seat_indicator_45" vr:x="183" vr:y="0" vr:width="57" vr:height="57" d="M183 0h57v57h-57z"/>
      <path id="pet_seat_indicator_46" vr:x="183" vr:y="45" vr:width="57" vr:height="67" d="M183 45h57v67h-57z"/>
      <path id="pet_seat_indicator_39" vr:x="0" vr:y="166" vr:width="128" vr:height="57" d="M0 166h128v57H0z"/>
      <path id="pet_seat_indicator_43" vr:x="127" vr:y="166" vr:width="57" vr:height="57" d="M127 166h57v57h-57z"/>
      <path id="pet_seat_indicator_47" vr:x="183" vr:y="166" vr:width="57" vr:height="57" d="M183 166h57v57h-57z"/>
      <path id="pet_seat_indicator_40" vr:x="0" vr:y="111" vr:width="128" vr:height="67" d="M0 111h128v67H0z"/>
      <path id="pet_seat_indicator_44" vr:x="127" vr:y="111" vr:width="57" vr:height="67" d="M127 111h57v67h-57z"/>
      <path id="pet_seat_indicator_48" vr:x="183" vr:y="111" vr:width="57" vr:height="67" d="M183 111h57v67h-57z"/>
      <path id="pet_seat_indicator_49" vr:x="239" vr:y="0" vr:width="57" vr:height="57" d="M239 0h57v57h-57z"/>
      <path id="pet_seat_indicator_50" vr:x="239" vr:y="45" vr:width="57" vr:height="67" d="M239 45h57v67h-57z"/>
      <path id="pet_seat_indicator_51" vr:x="239" vr:y="166" vr:width="57" vr:height="57" d="M239 166h57v57h-57z"/>
      <path id="pet_seat_indicator_52" vr:x="239" vr:y="111" vr:width="57" vr:height="67" d="M239 111h57v67h-57z"/>
      <path id="pet_seat_indicator_53" vr:x="499" vr:y="0" vr:width="57" vr:height="57" d="M499 0h57v57h-57z"/>
      <path id="pet_seat_indicator_54" vr:x="499" vr:y="45" vr:width="57" vr:height="67" d="M499 45h57v67h-57z"/>
      <path id="pet_seat_indicator_55" vr:x="499" vr:y="166" vr:width="57" vr:height="57" d="M499 166h57v57h-57z"/>
      <path id="pet_seat_indicator_56" vr:x="499" vr:y="111" vr:width="57" vr:height="67" d="M499 111h57v67h-57z"/>
      <path id="pet_seat_indicator_57" vr:x="555" vr:y="0" vr:width="66" vr:height="57" d="M555 0h66v57h-66z"/>
      <path id="pet_seat_indicator_58" vr:x="555" vr:y="45" vr:width="66" vr:height="67" d="M555 45h66v67h-66z"/>
      <path id="pet_seat_indicator_59" vr:x="555" vr:y="166" vr:width="66" vr:height="57" d="M555 166h66v57h-66z"/>
      <path id="pet_seat_indicator_60" vr:x="555" vr:y="111" vr:width="66" vr:height="67" d="M555 111h66v67h-66z"/>
      <path id="pet_seat_indicator_61" vr:x="621" vr:y="0" vr:width="66" vr:height="57" d="M621 0h66v57h-66z"/>
      <path id="pet_seat_indicator_62" vr:x="621" vr:y="45" vr:width="66" vr:height="67" d="M621 45h66v67h-66z"/>
      <path id="pet_seat_indicator_63" vr:x="621" vr:y="166" vr:width="66" vr:height="57" d="M621 166h66v57h-66z"/>
      <path id="pet_seat_indicator_64" vr:x="621" vr:y="111" vr:width="66" vr:height="67" d="M621 111h66v67h-66z"/>
    </g>
    <g transform="translate(2)">
      <g transform="translate(0 5)" fill="#F2F2F2">
        <path transform="matrix(-1 0 0 1 634 0)" d="M291 167h52v59h-52z"/>
        <path d="M0 0h73.5v80c0 12.15-9.85 22-22 22H0V0z" transform="rotate(180 36.75 51)"/>
        <path transform="rotate(180 188.75 51)" d="M152 0h73.5v102H152z"/>
        <path transform="rotate(180 188.75 195)" d="M152 164h73.5v62H152z"/>
        <path d="M0 164h73.5v40c0 12.15-9.85 22-22 22H0v-62z" transform="matrix(-1 0 0 1 73.5 0)"/>
        <path d="M1465 143h117v60c0 12.15-9.85 22-22 22h-95v-82z"/>
        <path d="M1465 1h117v60c0 12.15-9.85 22-22 22h-95V1z" transform="matrix(1 0 0 -1 0 84)"/>
      </g>
      <g transform="translate(1387 4.999)" fill="#E2D2BA" stroke="#E2D2BA" stroke-width="3">
        <path d="M9 154.501c.24 0 .407.269.602.504.506.613.98 1.534 1.445 2.712 1.072 2.715 2.029 6.697 2.837 11.635 1.618 9.891 2.616 23.556 2.616 38.649 0 6.12-.164 12.006-.467 17.5h0H1.967a319.328 319.328 0 01-.467-17.5c0-15.093.998-28.758 2.616-38.649.808-4.938 1.765-8.92 2.837-11.635.466-1.178.939-2.099 1.445-2.712.195-.235.361-.504.602-.504zM16.05 1.5c.292 5.504.45 11.388.45 17.501 0 15.37-.998 29.287-2.617 39.36-.809 5.032-1.766 9.09-2.84 11.857-.467 1.203-.941 2.144-1.45 2.77-.192.236-.353.513-.593.513s-.401-.277-.593-.513c-.509-.626-.983-1.567-1.45-2.77-1.074-2.767-2.031-6.825-2.84-11.857C2.498 48.288 1.5 34.371 1.5 19.001c0-6.113.158-11.997.45-17.501h0z"/>
      </g>
      <path d="M1561 5.763c5.944 0 11.33 2.51 15.226 6.58 3.873 4.047 6.274 9.635 6.274 15.81h0v180.699c0 6.175-2.4 11.763-6.274 15.808-3.897 4.07-9.282 6.582-15.226 6.582h0H21c-5.944 0-11.329-2.512-15.226-6.582C1.901 220.615-.5 215.027-.5 208.852h0v-180.7c0-6.174 2.4-11.762 6.274-15.808C9.671 8.274 15.056 5.763 21 5.763h0z" stroke="#DFDFDF" stroke-width="3"/>
      <g id="Stairs" transform="translate(247 3.493)">
        <path d="M12.737 2.263h110v43.569l-20.315 34.905H12.737V2.263z" stroke="#DCDCDC" stroke-width="3"/>
        <g transform="translate(27 2.09)" stroke="#DCDCDC" stroke-linecap="square" stroke-width="2">
          <path d="M0 77.78v-77M14 77.78v-77M28 77.78v-77M42 77.78v-77"/>
        </g>
        <path d="M24.5 31.8l9.192 9.192-9.192 9.192-2.828-2.828 4.349-4.35H-.5v-4h26.55l-4.378-4.378L24.5 31.8z" stroke="#FFF" fill="#DCDCDC"/>
      </g>
      <g transform="translate(412 2)">
        <g transform="rotate(-90 2.957 2.194)">
          <path fill="#C2D6D6" d="M1.743 0h2.614v102.361H1.743z"/>
          <path fill="#9FC1B7" d="M0 0h2.614v102.361H0z"/>
        </g>
        <g transform="matrix(0 1 1 0 1.149 227.853)">
          <path fill="#C2D6D6" d="M2 0h3v101.317H2z"/>
          <path fill="#9FC1B7" d="M0 0h3v101.317H0z"/>
        </g>
        <g transform="rotate(-90 71.119 -65.967)">
          <path fill="#C2D6D6" d="M2 0h3v102.361H2z"/>
          <path fill="#9FC1B7" d="M0 0h3v102.361H0z"/>
        </g>
        <g transform="matrix(0 1 1 0 137.085 227.853)">
          <path fill="#C2D6D6" d="M2 0h3v101.317H2z"/>
          <path fill="#9FC1B7" d="M0 0h3v101.317H0z"/>
        </g>
        <g transform="rotate(-90 134.61 -129.458)">
          <path fill="#C2D6D6" d="M2 0h3v80H2z"/>
          <path fill="#9FC1B7" d="M0-.001h3v80H0z"/>
        </g>
        <g transform="matrix(0 1 1 0 264.067 227.853)">
          <path fill="#C2D6D6" d="M2 0h3v79H2z"/>
          <path fill="#9FC1B7" d="M0 0h3v79H0z"/>
        </g>
        <g transform="rotate(-90 197.578 -192.426)">
          <path fill="#C2D6D6" d="M2 0h3v102.361H2z"/>
          <path fill="#9FC1B7" d="M0 0h3v102.361H0z"/>
        </g>
        <g transform="matrix(0 1 1 0 390.004 227.853)">
          <path fill="#C2D6D6" d="M2 0h3v101.317H2z"/>
          <path fill="#9FC1B7" d="M0 0h3v101.317H0z"/>
        </g>
        <g transform="rotate(-90 261.046 -255.895)">
          <path fill="#C2D6D6" d="M2 0h3v102.361H2z"/>
          <path fill="#9FC1B7" d="M0 0h3v102.361H0z"/>
        </g>
        <g transform="matrix(0 1 1 0 516.94 227.853)">
          <path fill="#C2D6D6" d="M2 0h3v101.317H2z"/>
          <path fill="#9FC1B7" d="M0 0h3v101.317H0z"/>
        </g>
        <g transform="rotate(-90 451.476 -446.325)">
          <path fill="#C2D6D6" d="M2 0h3v102.361H2z"/>
          <path fill="#9FC1B7" d="M0 0h3v102.361H0z"/>
        </g>
        <g transform="matrix(0 1 1 0 897.8 227.853)">
          <path fill="#C2D6D6" d="M2 0h3v102.361H2z"/>
          <path fill="#9FC1B7" d="M0 0h3v102.361H0z"/>
        </g>
      </g>
      <g id="Stairs" transform="translate(1130 157.592)">
        <path d="M109.325 73.325H1.675V37.23l20.26-34.904h87.39v71z" stroke="#DCDCDC" stroke-width="3"/>
        <g transform="rotate(180 40.5 36.412)" stroke="#DCDCDC" stroke-linecap="square" stroke-width="2">
          <path d="M0 70.78v-70M14 70.78v-70M28 70.78v-70M42 70.78v-70M56 70.78v-70"/>
        </g>
        <path d="M85.5 28.293l9.192 9.192-9.192 9.193-2.828-2.829L87.02 39.5H60.5v-4h26.55l-4.378-4.379 2.828-2.828z" stroke="#FFF" fill="#DCDCDC" transform="matrix(-1 0 0 1 154.985 0)"/>
      </g>
      <g transform="translate(1154 98)">
        <path d="M8.648 1.531h36.704v43H8.648v-43z" stroke="#DCDCDC" stroke-width="3"/>
        <path stroke="#DCDCDC" stroke-width="2" stroke-linecap="square" d="M27 44.973V3.043M18 44.018V2.088M36 44.018V3.088"/>
        <path d="M24.5 13.347l9.192 9.192-9.192 9.192-2.828-2.828 4.349-4.35H-.5v-4h26.55l-4.378-4.378 2.828-2.828z" stroke="#FFF" fill="#DCDCDC"/>
      </g>
      <g transform="translate(385 197)">
        <g transform="matrix(1 0 0 -1 0 40)">
          <path d="M36 40V6H2c0 18.778 15.222 34 34 34z" stroke="#F2F2F2" stroke-width="2"/>
          <path fill="#DCDCDC" d="M1 0h3v9H1zM34 0h3v9h-3z"/>
          <path fill="#DCDCDC" d="M0 4h38v3H0z"/>
          <g transform="rotate(-90 9 -1)">
            <path fill="#C2D6D6" d="M2 0h3v18.857H2z"/>
            <path fill="#9FC1B7" d="M0 0h3v18.857H0z"/>
          </g>
        </g>
      </g>
      <g transform="translate(385)">
        <path d="M36 40V6H2c0 18.778 15.222 34 34 34z" stroke="#F2F2F2" stroke-width="2"/>
        <path fill="#DCDCDC" d="M1 0h3v9H1zM34 0h3v9h-3z"/>
        <path fill="#DCDCDC" d="M0 4h38v3H0z"/>
        <g transform="rotate(-90 9 -1)">
          <path fill="#C2D6D6" d="M2 0h3v18.857H2z"/>
          <path fill="#9FC1B7" d="M0 0h3v18.857H0z"/>
        </g>
      </g>
      <path fill="#DCDCDC" d="M224 170h3v61h-3zM0 167h227v3H0z"/>
      <path fill="#DCDCDC" transform="rotate(180 225.5 57)" d="M224 7h3v100h-3z"/>
      <path fill="#DCDCDC" transform="rotate(180 152.5 57)" d="M151 7h3v100h-3z"/>
      <path fill="#DCDCDC" transform="rotate(180 73.5 57)" d="M72 7h3v100h-3z"/>
      <path fill="#DCDCDC" transform="rotate(180 152.5 200)" d="M151 168h3v64h-3z"/>
      <path fill="#DCDCDC" transform="rotate(180 73.5 200)" d="M72 168h3v64h-3z"/>
      <path fill="#DCDCDC" transform="rotate(180 113.5 107.5)" d="M0 106h227v3H0z"/>
      <g transform="translate(1084)">
        <g transform="matrix(-1 0 0 1 38 0)">
          <path d="M36 40V6H2c0 18.778 15.222 34 34 34z" stroke="#F2F2F2" stroke-width="2"/>
          <path fill="#DCDCDC" d="M1 0h3v9H1zM34 0h3v9h-3z"/>
          <path fill="#DCDCDC" d="M0 4h38v3H0z"/>
          <g transform="rotate(-90 9 -1)">
            <path fill="#C2D6D6" d="M2 0h3v18.857H2z"/>
            <path fill="#9FC1B7" d="M0 0h3v18.857H0z"/>
          </g>
        </g>
      </g>
      <g transform="translate(1084 197)">
        <g transform="rotate(180 19 20)">
          <path d="M36 40V6H2c0 18.778 15.222 34 34 34z" stroke="#F2F2F2" stroke-width="2"/>
          <path fill="#DCDCDC" d="M1 0h3v9H1zM34 0h3v9h-3z"/>
          <path fill="#DCDCDC" d="M0 4h38v3H0z"/>
          <g transform="rotate(-90 9 -1)">
            <path fill="#C2D6D6" d="M2 0h3v18.857H2z"/>
            <path fill="#9FC1B7" d="M0 0h3v18.857H0z"/>
          </g>
        </g>
      </g>
      <path fill="#DCDCDC" d="M1271 136h3v94h-3zM1462 136h3v94h-3zM1462 7h3v94h-3zM433 7h3v94h-3zM1271 7h3v94h-3zM1200 7h3v75h-3zM1161 82h3v78h-3z"/>
      <path stroke="#DCDCDC" stroke-width="3" d="M1139 6v76h132"/>
      <path fill="#DCDCDC" d="M1071 136h3v94h-3zM433 136h3v94h-3z"/>
      <path fill="#DCDCDC" transform="rotate(90 741.5 107.5)" d="M740 77h3v61h-3z"/>
      <path fill="#DCDCDC" transform="rotate(45 687.379 131.621)" d="M685.879 97.121h3v69h-3z"/>
      <path fill="#DCDCDC" d="M772 7h3v14h-3zM772 63h3v167h-3z"/>
      <path fill="#DCDCDC" transform="rotate(180 343.5 157)" d="M342 84h3v146h-3z"/>
      <path fill="#DCDCDC" d="M289 171h3v59h-3z"/>
      <path fill="#DCDCDC" transform="rotate(180 317 172.5)" d="M289 171h56v3h-56z"/>
      <path fill="#DCDCDC" d="M1071 7h3v94h-3z"/>
      <g transform="translate(307 105)">
        <path stroke="#DCDCDC" stroke-width="3" d="M1.5 44.5v-43h35v43z"/>
        <path stroke="#DCDCDC" stroke-width="2" stroke-linecap="square" d="M19 44V1M10 45V2M28 45V2"/>
        <path d="M20.485 13.293l-9.192 9.192 9.192 9.193 2.829-2.829-4.35-4.349h26.521v-4h-26.55l4.379-4.379-2.829-2.828z" stroke="#FFF" fill="#DCDCDC"/>
      </g>
      <path fill="#DCDCDC" d="M1465 147h119v3h-119z"/>
      <path fill="#DCDCDC" transform="rotate(180 1524.5 87.5)" d="M1465 86h119v3h-119z"/>
    </g>
    <g id="Seats" transform="translate(854 15)">
      <g id="seat_64" transform="translate(559 121)">
        <path d="M41 .5c.966 0 1.841.392 2.475 1.025A3.489 3.489 0 0144.5 4h0v35c0 .966-.392 1.841-1.025 2.475A3.489 3.489 0 0141 42.5h0H.5V.5z" id="seat_64_shape" stroke="#1B50AF" fill="#FFF" transform="rotate(-180 22.5 21.5)"/>
        <path id="Line" stroke="#1B50AF" stroke-linecap="square" d="M35.5 42.5V.488"/>
        <g id="seatnumber_64" transform="translate(9 16)" fill="#1B50AF">
          <path d="M2.752 5.608c.496-.624 1.424-1.104 2.64-1.104 2.144 0 3.936 1.456 3.936 3.968 0 2.384-1.808 3.936-4.32 3.936-3.104 0-4.464-2.496-4.464-5.744C.544 3.336 1.776.392 5.248.392c2.528 0 3.712 1.712 3.84 3.2h-2.16c-.112-.96-.88-1.52-1.824-1.52-1.456 0-2.352 1.376-2.352 3.536zm2.256 5.136c1.2 0 2.08-.896 2.08-2.304 0-1.36-.88-2.256-2.08-2.256-1.216 0-2.128.896-2.128 2.256 0 1.392.912 2.304 2.128 2.304zm14.976-1.328H18V12.2h-2.192V9.416H10.08V7.688L15.84.6H18v6.944h1.984v1.872zm-7.488-1.872h3.312V3.4l-3.312 4.144z"/>
        </g>
        <g id="seatnumber_64-with-service-icon" transform="translate(9 16)">
          <path d="M2.752 5.608c.496-.624 1.424-1.104 2.64-1.104 2.144 0 3.936 1.456 3.936 3.968 0 2.384-1.808 3.936-4.32 3.936-3.104 0-4.464-2.496-4.464-5.744C.544 3.336 1.776.392 5.248.392c2.528 0 3.712 1.712 3.84 3.2h-2.16c-.112-.96-.88-1.52-1.824-1.52-1.456 0-2.352 1.376-2.352 3.536zm2.256 5.136c1.2 0 2.08-.896 2.08-2.304 0-1.36-.88-2.256-2.08-2.256-1.216 0-2.128.896-2.128 2.256 0 1.392.912 2.304 2.128 2.304zm14.976-1.328H18V12.2h-2.192V9.416H10.08V7.688L15.84.6H18v6.944h1.984v1.872zm-7.488-1.872h3.312V3.4l-3.312 4.144z" transform="translate(0 10)"/>
          <use id="pet-seat-icon-seatnumber_64" xlink:href="#pet-seat-icon" transform="translate(0 -12)"/>
        </g>
      </g>
      <g id="seat_63" transform="translate(559 164)">
        <path d="M41 .5c.966 0 1.841.392 2.475 1.025A3.489 3.489 0 0144.5 4h0v35c0 .966-.392 1.841-1.025 2.475A3.489 3.489 0 0141 42.5h0H.5V.5z" id="seat_63_shape" stroke="#1B50AF" fill="#FFF" transform="rotate(-180 22.5 21.5)"/>
        <path id="Line" stroke="#1B50AF" stroke-linecap="square" d="M35.5 42.5V.488"/>
        <g id="seatnumber_63" transform="translate(9 16)" fill="#1B50AF">
          <path d="M2.912 5.608c.496-.624 1.424-1.104 2.64-1.104 2.144 0 3.936 1.456 3.936 3.968 0 2.384-1.808 3.936-4.32 3.936-3.104 0-4.464-2.496-4.464-5.744C.704 3.336 1.936.392 5.408.392c2.528 0 3.712 1.712 3.84 3.2h-2.16c-.112-.96-.88-1.52-1.824-1.52-1.456 0-2.352 1.376-2.352 3.536zm2.256 5.136c1.2 0 2.08-.896 2.08-2.304 0-1.36-.88-2.256-2.08-2.256-1.216 0-2.128.896-2.128 2.256 0 1.392.912 2.304 2.128 2.304zm11.904-1.808c0-1.36-1.264-1.904-2.912-1.904h-.464V5.304h.384c1.664 0 2.704-.608 2.704-1.696 0-1.008-.88-1.552-1.84-1.552-1.328 0-2.176.848-2.288 2.048H10.56C10.816 1.8 12.416.392 15.072.392c1.936 0 3.936.928 3.936 3.12 0 1.12-.688 2.064-1.568 2.544a3.035 3.035 0 011.872 2.816c0 2.352-2.032 3.536-4.48 3.536-2.656 0-4.224-1.728-4.368-3.856h2.08c.16 1.168.912 2.192 2.352 2.192 1.2 0 2.176-.72 2.176-1.808z"/>
        </g>
        <g id="seatnumber_63-with-service-icon" transform="translate(9 16)">
          <path d="M2.912 5.608c.496-.624 1.424-1.104 2.64-1.104 2.144 0 3.936 1.456 3.936 3.968 0 2.384-1.808 3.936-4.32 3.936-3.104 0-4.464-2.496-4.464-5.744C.704 3.336 1.936.392 5.408.392c2.528 0 3.712 1.712 3.84 3.2h-2.16c-.112-.96-.88-1.52-1.824-1.52-1.456 0-2.352 1.376-2.352 3.536zm2.256 5.136c1.2 0 2.08-.896 2.08-2.304 0-1.36-.88-2.256-2.08-2.256-1.216 0-2.128.896-2.128 2.256 0 1.392.912 2.304 2.128 2.304zm11.904-1.808c0-1.36-1.264-1.904-2.912-1.904h-.464V5.304h.384c1.664 0 2.704-.608 2.704-1.696 0-1.008-.88-1.552-1.84-1.552-1.328 0-2.176.848-2.288 2.048H10.56C10.816 1.8 12.416.392 15.072.392c1.936 0 3.936.928 3.936 3.12 0 1.12-.688 2.064-1.568 2.544a3.035 3.035 0 011.872 2.816c0 2.352-2.032 3.536-4.48 3.536-2.656 0-4.224-1.728-4.368-3.856h2.08c.16 1.168.912 2.192 2.352 2.192 1.2 0 2.176-.72 2.176-1.808z" transform="translate(0 10)"/>
          <use id="pet-seat-icon-seatnumber_63" xlink:href="#pet-seat-icon" transform="translate(0 -12)"/>
        </g>
      </g>
      <g id="seat_60" transform="translate(484 121)">
        <path d="M41 .5c.966 0 1.841.392 2.475 1.025A3.489 3.489 0 0144.5 4h0v35c0 .966-.392 1.841-1.025 2.475A3.489 3.489 0 0141 42.5h0H.5V.5z" id="seat_60_shape" stroke="#1B50AF" fill="#FFF"/>
        <path id="Line" stroke="#1B50AF" fill="#FFF" stroke-linecap="square" d="M9.5.5v42.012"/>
        <g id="seatnumber_60" transform="translate(17 16)" fill="#1B50AF">
          <path d="M2.52 5.608c.496-.624 1.424-1.104 2.64-1.104 2.144 0 3.936 1.456 3.936 3.968 0 2.384-1.808 3.936-4.32 3.936-3.104 0-4.464-2.496-4.464-5.744C.312 3.336 1.544.392 5.016.392c2.528 0 3.712 1.712 3.84 3.2h-2.16c-.112-.96-.88-1.52-1.824-1.52-1.456 0-2.352 1.376-2.352 3.536zm2.256 5.136c1.2 0 2.08-.896 2.08-2.304 0-1.36-.88-2.256-2.08-2.256-1.216 0-2.128.896-2.128 2.256 0 1.392.912 2.304 2.128 2.304zm5.584-4.368c0-3.52 1.568-5.984 4.672-5.984 3.088 0 4.656 2.464 4.656 5.984 0 3.536-1.568 6.032-4.656 6.032-3.104 0-4.672-2.496-4.672-6.032zm7.072 0c0-2.768-.832-4.32-2.4-4.32s-2.416 1.552-2.416 4.32c0 2.784.848 4.368 2.416 4.368s2.4-1.584 2.4-4.368z"/>
        </g>
        <g id="seatnumber_60-with-service-icon" transform="translate(17 16)">
          <path d="M2.52 5.608c.496-.624 1.424-1.104 2.64-1.104 2.144 0 3.936 1.456 3.936 3.968 0 2.384-1.808 3.936-4.32 3.936-3.104 0-4.464-2.496-4.464-5.744C.312 3.336 1.544.392 5.016.392c2.528 0 3.712 1.712 3.84 3.2h-2.16c-.112-.96-.88-1.52-1.824-1.52-1.456 0-2.352 1.376-2.352 3.536zm2.256 5.136c1.2 0 2.08-.896 2.08-2.304 0-1.36-.88-2.256-2.08-2.256-1.216 0-2.128.896-2.128 2.256 0 1.392.912 2.304 2.128 2.304zm5.584-4.368c0-3.52 1.568-5.984 4.672-5.984 3.088 0 4.656 2.464 4.656 5.984 0 3.536-1.568 6.032-4.656 6.032-3.104 0-4.672-2.496-4.672-6.032zm7.072 0c0-2.768-.832-4.32-2.4-4.32s-2.416 1.552-2.416 4.32c0 2.784.848 4.368 2.416 4.368s2.4-1.584 2.4-4.368z" transform="translate(0 10)"/>
          <use id="pet-seat-icon-seatnumber_60" xlink:href="#pet-seat-icon" transform="translate(0 -12)"/>
        </g>
      </g>
      <g id="seat_59" transform="translate(484 164)">
        <path d="M41 .5c.966 0 1.841.392 2.475 1.025A3.489 3.489 0 0144.5 4h0v35c0 .966-.392 1.841-1.025 2.475A3.489 3.489 0 0141 42.5h0H.5V.5z" id="seat_59_shape" stroke="#1B50AF" fill="#FFF"/>
        <path id="Line" stroke="#1B50AF" fill="#FFF" stroke-linecap="square" d="M9.5.5v42.012"/>
        <g id="seatnumber_59" transform="translate(17 16)" fill="#1B50AF">
          <path d="M7.128 8.392c0-1.584-1.072-2.368-2.144-2.368-1.024 0-1.76.512-1.984 1.056L.984 6.984 1.752.6h7.152v1.856H3.56l-.32 2.48c.48-.352 1.232-.64 2.304-.64 1.984 0 3.824 1.408 3.824 4.08 0 2.56-1.984 4.032-4.368 4.032-2.72 0-4.16-1.856-4.288-3.856h2.08c.128 1.2.816 2.192 2.24 2.192 1.216 0 2.096-.88 2.096-2.352zm9.984-1.2c-.496.624-1.424 1.104-2.656 1.104-2.128 0-3.92-1.472-3.92-3.968 0-2.384 1.808-3.936 4.32-3.936 3.104 0 4.464 2.496 4.464 5.744 0 3.328-1.248 6.272-4.704 6.272-2.528 0-3.712-1.728-3.84-3.2h2.16c.112.96.864 1.504 1.824 1.504 1.456 0 2.352-1.376 2.352-3.52zm-2.256-5.12c-1.2 0-2.08.88-2.08 2.272 0 1.36.88 2.256 2.08 2.256 1.2 0 2.112-.896 2.112-2.256 0-1.376-.912-2.272-2.112-2.272z"/>
        </g>
        <g id="seatnumber_59-with-service-icon" transform="translate(17 16)">
          <path d="M7.128 8.392c0-1.584-1.072-2.368-2.144-2.368-1.024 0-1.76.512-1.984 1.056L.984 6.984 1.752.6h7.152v1.856H3.56l-.32 2.48c.48-.352 1.232-.64 2.304-.64 1.984 0 3.824 1.408 3.824 4.08 0 2.56-1.984 4.032-4.368 4.032-2.72 0-4.16-1.856-4.288-3.856h2.08c.128 1.2.816 2.192 2.24 2.192 1.216 0 2.096-.88 2.096-2.352zm9.984-1.2c-.496.624-1.424 1.104-2.656 1.104-2.128 0-3.92-1.472-3.92-3.968 0-2.384 1.808-3.936 4.32-3.936 3.104 0 4.464 2.496 4.464 5.744 0 3.328-1.248 6.272-4.704 6.272-2.528 0-3.712-1.728-3.84-3.2h2.16c.112.96.864 1.504 1.824 1.504 1.456 0 2.352-1.376 2.352-3.52zm-2.256-5.12c-1.2 0-2.08.88-2.08 2.272 0 1.36.88 2.256 2.08 2.256 1.2 0 2.112-.896 2.112-2.256 0-1.376-.912-2.272-2.112-2.272z" transform="translate(0 10)"/>
          <use id="pet-seat-icon-seatnumber_59" xlink:href="#pet-seat-icon" transform="translate(0 -12)"/>
        </g>
      </g>
      <g id="seat_56" transform="translate(428 121)">
        <path d="M41 .5c.966 0 1.841.392 2.475 1.025A3.489 3.489 0 0144.5 4h0v35c0 .966-.392 1.841-1.025 2.475A3.489 3.489 0 0141 42.5h0H.5V.5z" id="seat_56_shape" stroke="#1B50AF" fill="#FFF"/>
        <path id="Line" stroke="#1B50AF" fill="#FFF" stroke-linecap="square" d="M9.5.5v42.012"/>
        <g id="seatnumber_56" transform="translate(17 16)" fill="#1B50AF">
          <path d="M7.08 8.392c0-1.584-1.072-2.368-2.144-2.368-1.024 0-1.76.512-1.984 1.056L.936 6.984 1.704.6h7.152v1.856H3.512l-.32 2.48c.48-.352 1.232-.64 2.304-.64 1.984 0 3.824 1.408 3.824 4.08 0 2.56-1.984 4.032-4.368 4.032-2.72 0-4.16-1.856-4.288-3.856h2.08c.128 1.2.816 2.192 2.24 2.192 1.216 0 2.096-.88 2.096-2.352zm5.728-2.784c.496-.624 1.424-1.104 2.64-1.104 2.144 0 3.936 1.456 3.936 3.968 0 2.384-1.808 3.936-4.32 3.936-3.104 0-4.464-2.496-4.464-5.744 0-3.328 1.232-6.272 4.704-6.272 2.528 0 3.712 1.712 3.84 3.2h-2.16c-.112-.96-.88-1.52-1.824-1.52-1.456 0-2.352 1.376-2.352 3.536zm2.256 5.136c1.2 0 2.08-.896 2.08-2.304 0-1.36-.88-2.256-2.08-2.256-1.216 0-2.128.896-2.128 2.256 0 1.392.912 2.304 2.128 2.304z"/>
        </g>
        <g id="seatnumber_56-with-service-icon" transform="translate(17 16)">
          <path d="M7.08 8.392c0-1.584-1.072-2.368-2.144-2.368-1.024 0-1.76.512-1.984 1.056L.936 6.984 1.704.6h7.152v1.856H3.512l-.32 2.48c.48-.352 1.232-.64 2.304-.64 1.984 0 3.824 1.408 3.824 4.08 0 2.56-1.984 4.032-4.368 4.032-2.72 0-4.16-1.856-4.288-3.856h2.08c.128 1.2.816 2.192 2.24 2.192 1.216 0 2.096-.88 2.096-2.352zm5.728-2.784c.496-.624 1.424-1.104 2.64-1.104 2.144 0 3.936 1.456 3.936 3.968 0 2.384-1.808 3.936-4.32 3.936-3.104 0-4.464-2.496-4.464-5.744 0-3.328 1.232-6.272 4.704-6.272 2.528 0 3.712 1.712 3.84 3.2h-2.16c-.112-.96-.88-1.52-1.824-1.52-1.456 0-2.352 1.376-2.352 3.536zm2.256 5.136c1.2 0 2.08-.896 2.08-2.304 0-1.36-.88-2.256-2.08-2.256-1.216 0-2.128.896-2.128 2.256 0 1.392.912 2.304 2.128 2.304z" transform="translate(0 10)"/>
          <use id="pet-seat-icon-seatnumber_56" xlink:href="#pet-seat-icon" transform="translate(0 -12)"/>
        </g>
      </g>
      <g id="seat_55" transform="translate(428 164)">
        <path d="M41 .5c.966 0 1.841.392 2.475 1.025A3.489 3.489 0 0144.5 4h0v35c0 .966-.392 1.841-1.025 2.475A3.489 3.489 0 0141 42.5h0H.5V.5z" id="seat_55_shape" stroke="#1B50AF" fill="#FFF"/>
        <path id="Line" stroke="#1B50AF" fill="#FFF" stroke-linecap="square" d="M9.5.5v42.012"/>
        <g id="seatnumber_55" transform="translate(17 16)" fill="#1B50AF">
          <path d="M7.12 8.392c0-1.584-1.072-2.368-2.144-2.368-1.024 0-1.76.512-1.984 1.056L.976 6.984 1.744.6h7.152v1.856H3.552l-.32 2.48c.48-.352 1.232-.64 2.304-.64 1.984 0 3.824 1.408 3.824 4.08 0 2.56-1.984 4.032-4.368 4.032-2.72 0-4.16-1.856-4.288-3.856h2.08c.128 1.2.816 2.192 2.24 2.192 1.216 0 2.096-.88 2.096-2.352zm9.968 0c0-1.584-1.072-2.368-2.144-2.368-1.024 0-1.76.512-1.984 1.056l-2.016-.096L11.712.6h7.152v1.856H13.52l-.32 2.48c.48-.352 1.232-.64 2.304-.64 1.984 0 3.824 1.408 3.824 4.08 0 2.56-1.984 4.032-4.368 4.032-2.72 0-4.16-1.856-4.288-3.856h2.08c.128 1.2.816 2.192 2.24 2.192 1.216 0 2.096-.88 2.096-2.352z"/>
        </g>
        <g id="seatnumber_55-with-service-icon" transform="translate(17 16)">
          <path d="M7.12 8.392c0-1.584-1.072-2.368-2.144-2.368-1.024 0-1.76.512-1.984 1.056L.976 6.984 1.744.6h7.152v1.856H3.552l-.32 2.48c.48-.352 1.232-.64 2.304-.64 1.984 0 3.824 1.408 3.824 4.08 0 2.56-1.984 4.032-4.368 4.032-2.72 0-4.16-1.856-4.288-3.856h2.08c.128 1.2.816 2.192 2.24 2.192 1.216 0 2.096-.88 2.096-2.352zm9.968 0c0-1.584-1.072-2.368-2.144-2.368-1.024 0-1.76.512-1.984 1.056l-2.016-.096L11.712.6h7.152v1.856H13.52l-.32 2.48c.48-.352 1.232-.64 2.304-.64 1.984 0 3.824 1.408 3.824 4.08 0 2.56-1.984 4.032-4.368 4.032-2.72 0-4.16-1.856-4.288-3.856h2.08c.128 1.2.816 2.192 2.24 2.192 1.216 0 2.096-.88 2.096-2.352z" transform="translate(0 10)"/>
          <use id="pet-seat-icon-seatnumber_55" xlink:href="#pet-seat-icon" transform="translate(0 -12)"/>
        </g>
      </g>
      <g id="seat_62" transform="translate(559 43)">
        <path d="M41 .5c.966 0 1.841.392 2.475 1.025A3.489 3.489 0 0144.5 4h0v35c0 .966-.392 1.841-1.025 2.475A3.489 3.489 0 0141 42.5h0H.5V.5z" id="seat_62_shape" stroke="#1B50AF" fill="#FFF" transform="rotate(-180 22.5 21.5)"/>
        <path id="Line" stroke="#1B50AF" stroke-linecap="square" d="M35.5 42.5V.488"/>
        <g id="seatnumber_62" transform="translate(9 16)" fill="#1B50AF">
          <path d="M3.192 5.608c.496-.624 1.424-1.104 2.64-1.104 2.144 0 3.936 1.456 3.936 3.968 0 2.384-1.808 3.936-4.32 3.936-3.104 0-4.464-2.496-4.464-5.744C.984 3.336 2.216.392 5.688.392c2.528 0 3.712 1.712 3.84 3.2h-2.16c-.112-.96-.88-1.52-1.824-1.52-1.456 0-2.352 1.376-2.352 3.536zm2.256 5.136c1.2 0 2.08-.896 2.08-2.304 0-1.36-.88-2.256-2.08-2.256-1.216 0-2.128.896-2.128 2.256 0 1.392.912 2.304 2.128 2.304zm13.568-7.232c0 2.176-2.112 4.448-5.68 6.832h5.952V12.2H10.76v-1.792c3.728-3.008 6.032-4.944 6.032-6.784 0-1.008-.64-1.6-1.712-1.6-.976 0-1.968.592-1.968 2.32h-2.144c-.032-2.4 1.664-3.952 4.24-3.952 2.32 0 3.808 1.104 3.808 3.12z"/>
        </g>
        <g id="seatnumber_62-with-service-icon" transform="translate(9 16)">
          <path d="M3.192 5.608c.496-.624 1.424-1.104 2.64-1.104 2.144 0 3.936 1.456 3.936 3.968 0 2.384-1.808 3.936-4.32 3.936-3.104 0-4.464-2.496-4.464-5.744C.984 3.336 2.216.392 5.688.392c2.528 0 3.712 1.712 3.84 3.2h-2.16c-.112-.96-.88-1.52-1.824-1.52-1.456 0-2.352 1.376-2.352 3.536zm2.256 5.136c1.2 0 2.08-.896 2.08-2.304 0-1.36-.88-2.256-2.08-2.256-1.216 0-2.128.896-2.128 2.256 0 1.392.912 2.304 2.128 2.304zm13.568-7.232c0 2.176-2.112 4.448-5.68 6.832h5.952V12.2H10.76v-1.792c3.728-3.008 6.032-4.944 6.032-6.784 0-1.008-.64-1.6-1.712-1.6-.976 0-1.968.592-1.968 2.32h-2.144c-.032-2.4 1.664-3.952 4.24-3.952 2.32 0 3.808 1.104 3.808 3.12z" transform="translate(0 10)"/>
          <use id="pet-seat-icon-seatnumber_62" xlink:href="#pet-seat-icon" transform="translate(0 -12)"/>
        </g>
      </g>
      <g id="seat_61" transform="translate(559)">
        <path d="M41 .5c.966 0 1.841.392 2.475 1.025A3.489 3.489 0 0144.5 4h0v35c0 .966-.392 1.841-1.025 2.475A3.489 3.489 0 0141 42.5h0H.5V.5z" id="seat_61_shape" stroke="#1B50AF" fill="#FFF" transform="rotate(-180 22.5 21.5)"/>
        <path id="Line" stroke="#1B50AF" stroke-linecap="square" d="M35.5 42.5V.488"/>
        <g id="seatnumber_61" transform="translate(11 16)" fill="#1B50AF">
          <path d="M2.872 5.608c.496-.624 1.424-1.104 2.64-1.104 2.144 0 3.936 1.456 3.936 3.968 0 2.384-1.808 3.936-4.32 3.936-3.104 0-4.464-2.496-4.464-5.744C.664 3.336 1.896.392 5.368.392c2.528 0 3.712 1.712 3.84 3.2h-2.16c-.112-.96-.88-1.52-1.824-1.52-1.456 0-2.352 1.376-2.352 3.536zm2.256 5.136c1.2 0 2.08-.896 2.08-2.304 0-1.36-.88-2.256-2.08-2.256C3.912 6.184 3 7.08 3 8.44c0 1.392.912 2.304 2.128 2.304zm7.44 1.456V3.528h-2.496V2.024c1.68-.048 2.464-.16 3.024-1.424h1.68v11.6h-2.208z"/>
        </g>
        <g id="seatnumber_61-with-service-icon" transform="translate(11 16)">
          <path d="M2.872 5.608c.496-.624 1.424-1.104 2.64-1.104 2.144 0 3.936 1.456 3.936 3.968 0 2.384-1.808 3.936-4.32 3.936-3.104 0-4.464-2.496-4.464-5.744C.664 3.336 1.896.392 5.368.392c2.528 0 3.712 1.712 3.84 3.2h-2.16c-.112-.96-.88-1.52-1.824-1.52-1.456 0-2.352 1.376-2.352 3.536zm2.256 5.136c1.2 0 2.08-.896 2.08-2.304 0-1.36-.88-2.256-2.08-2.256C3.912 6.184 3 7.08 3 8.44c0 1.392.912 2.304 2.128 2.304zm7.44 1.456V3.528h-2.496V2.024c1.68-.048 2.464-.16 3.024-1.424h1.68v11.6h-2.208z" transform="translate(0 10)"/>
          <use id="pet-seat-icon-seatnumber_61" xlink:href="#pet-seat-icon" transform="translate(0 -12)"/>
        </g>
      </g>
      <g id="seat_58" transform="translate(484 43)">
        <path d="M41 .5c.966 0 1.841.392 2.475 1.025A3.489 3.489 0 0144.5 4h0v35c0 .966-.392 1.841-1.025 2.475A3.489 3.489 0 0141 42.5h0H.5V.5z" id="seat_58_shape" stroke="#1B50AF" fill="#FFF"/>
        <path id="Line" stroke="#1B50AF" fill="#FFF" stroke-linecap="square" d="M9.5.5v42.012"/>
        <g id="seatnumber_58" transform="translate(17 16)" fill="#1B50AF">
          <path d="M6.976 8.392c0-1.584-1.072-2.368-2.144-2.368-1.024 0-1.76.512-1.984 1.056L.832 6.984 1.6.6h7.152v1.856H3.408l-.32 2.48c.48-.352 1.232-.64 2.304-.64 1.984 0 3.824 1.408 3.824 4.08 0 2.56-1.984 4.032-4.368 4.032-2.72 0-4.16-1.856-4.288-3.856h2.08c.128 1.2.816 2.192 2.24 2.192 1.216 0 2.096-.88 2.096-2.352zm12.048-5.024c0 1.04-.416 2.016-1.408 2.624 1.296.736 1.76 1.776 1.76 2.896 0 2.272-1.936 3.52-4.4 3.52-2.448 0-4.384-1.248-4.384-3.52 0-1.12.48-2.176 1.776-2.896-.96-.544-1.424-1.584-1.424-2.608 0-1.728 1.584-2.992 4.032-2.992 2.464 0 4.048 1.264 4.048 2.976zm-4.048-1.312c-1.152 0-1.888.624-1.888 1.584 0 .96.736 1.664 1.888 1.664S16.88 4.6 16.88 3.64s-.752-1.584-1.904-1.584zm-2.128 6.736c0 1.152.832 1.952 2.128 1.952 1.312 0 2.144-.8 2.144-1.952s-.832-1.904-2.144-1.904c-1.296 0-2.128.752-2.128 1.904z"/>
        </g>
        <g id="seatnumber_58-with-service-icon" transform="translate(17 16)">
          <path d="M6.976 8.392c0-1.584-1.072-2.368-2.144-2.368-1.024 0-1.76.512-1.984 1.056L.832 6.984 1.6.6h7.152v1.856H3.408l-.32 2.48c.48-.352 1.232-.64 2.304-.64 1.984 0 3.824 1.408 3.824 4.08 0 2.56-1.984 4.032-4.368 4.032-2.72 0-4.16-1.856-4.288-3.856h2.08c.128 1.2.816 2.192 2.24 2.192 1.216 0 2.096-.88 2.096-2.352zm12.048-5.024c0 1.04-.416 2.016-1.408 2.624 1.296.736 1.76 1.776 1.76 2.896 0 2.272-1.936 3.52-4.4 3.52-2.448 0-4.384-1.248-4.384-3.52 0-1.12.48-2.176 1.776-2.896-.96-.544-1.424-1.584-1.424-2.608 0-1.728 1.584-2.992 4.032-2.992 2.464 0 4.048 1.264 4.048 2.976zm-4.048-1.312c-1.152 0-1.888.624-1.888 1.584 0 .96.736 1.664 1.888 1.664S16.88 4.6 16.88 3.64s-.752-1.584-1.904-1.584zm-2.128 6.736c0 1.152.832 1.952 2.128 1.952 1.312 0 2.144-.8 2.144-1.952s-.832-1.904-2.144-1.904c-1.296 0-2.128.752-2.128 1.904z" transform="translate(0 10)"/>
          <use id="pet-seat-icon-seatnumber_58" xlink:href="#pet-seat-icon" transform="translate(0 -12)"/>
        </g>
      </g>
      <g id="seat_57" transform="translate(484)">
        <path d="M41 .5c.966 0 1.841.392 2.475 1.025A3.489 3.489 0 0144.5 4h0v35c0 .966-.392 1.841-1.025 2.475A3.489 3.489 0 0141 42.5h0H.5V.5z" id="seat_57_shape" stroke="#1B50AF" fill="#FFF"/>
        <path id="Line" stroke="#1B50AF" fill="#FFF" stroke-linecap="square" d="M9.5.5v42.012"/>
        <g id="seatnumber_57" transform="translate(18 16)" fill="#1B50AF">
          <path d="M7.024 8.392c0-1.584-1.072-2.368-2.144-2.368-1.024 0-1.76.512-1.984 1.056L.88 6.984 1.648.6H8.8v1.856H3.456l-.32 2.48c.48-.352 1.232-.64 2.304-.64 1.984 0 3.824 1.408 3.824 4.08 0 2.56-1.984 4.032-4.368 4.032-2.72 0-4.16-1.856-4.288-3.856h2.08c.128 1.2.816 2.192 2.24 2.192 1.216 0 2.096-.88 2.096-2.352zM9.856.6h8.528v1.856c-3.024 3.088-4.496 5.568-4.72 9.744h-2.432c.192-4.032 2.336-7.296 4.928-9.744H9.856V.6z"/>
        </g>
        <g id="seatnumber_57-with-service-icon" transform="translate(18 16)">
          <path d="M7.024 8.392c0-1.584-1.072-2.368-2.144-2.368-1.024 0-1.76.512-1.984 1.056L.88 6.984 1.648.6H8.8v1.856H3.456l-.32 2.48c.48-.352 1.232-.64 2.304-.64 1.984 0 3.824 1.408 3.824 4.08 0 2.56-1.984 4.032-4.368 4.032-2.72 0-4.16-1.856-4.288-3.856h2.08c.128 1.2.816 2.192 2.24 2.192 1.216 0 2.096-.88 2.096-2.352zM9.856.6h8.528v1.856c-3.024 3.088-4.496 5.568-4.72 9.744h-2.432c.192-4.032 2.336-7.296 4.928-9.744H9.856V.6z" transform="translate(0 10)"/>
          <use id="pet-seat-icon-seatnumber_57" xlink:href="#pet-seat-icon" transform="translate(0 -12)"/>
        </g>
      </g>
      <g id="seat_54" transform="translate(428 43)">
        <path d="M41 .5c.966 0 1.841.392 2.475 1.025A3.489 3.489 0 0144.5 4h0v35c0 .966-.392 1.841-1.025 2.475A3.489 3.489 0 0141 42.5h0H.5V.5z" id="seat_54_shape" stroke="#1B50AF" fill="#FFF"/>
        <path id="Line" stroke="#1B50AF" fill="#FFF" stroke-linecap="square" d="M9.5.5v42.012"/>
        <g id="seatnumber_54" transform="translate(17 16)" fill="#1B50AF">
          <path d="M7.032 8.392c0-1.584-1.072-2.368-2.144-2.368-1.024 0-1.76.512-1.984 1.056L.888 6.984 1.656.6h7.152v1.856H3.464l-.32 2.48c.48-.352 1.232-.64 2.304-.64 1.984 0 3.824 1.408 3.824 4.08 0 2.56-1.984 4.032-4.368 4.032-2.72 0-4.16-1.856-4.288-3.856h2.08c.128 1.2.816 2.192 2.24 2.192 1.216 0 2.096-.88 2.096-2.352zm12.912 1.024H17.96V12.2h-2.192V9.416H10.04V7.688L15.8.6h2.16v6.944h1.984v1.872zm-7.488-1.872h3.312V3.4l-3.312 4.144z"/>
        </g>
        <g id="seatnumber_54-with-service-icon" transform="translate(17 16)">
          <path d="M7.032 8.392c0-1.584-1.072-2.368-2.144-2.368-1.024 0-1.76.512-1.984 1.056L.888 6.984 1.656.6h7.152v1.856H3.464l-.32 2.48c.48-.352 1.232-.64 2.304-.64 1.984 0 3.824 1.408 3.824 4.08 0 2.56-1.984 4.032-4.368 4.032-2.72 0-4.16-1.856-4.288-3.856h2.08c.128 1.2.816 2.192 2.24 2.192 1.216 0 2.096-.88 2.096-2.352zm12.912 1.024H17.96V12.2h-2.192V9.416H10.04V7.688L15.8.6h2.16v6.944h1.984v1.872zm-7.488-1.872h3.312V3.4l-3.312 4.144z" transform="translate(0 10)"/>
          <use id="pet-seat-icon-seatnumber_54" xlink:href="#pet-seat-icon" transform="translate(0 -12)"/>
        </g>
      </g>
      <g id="seat_53" transform="translate(428)">
        <path d="M41 .5c.966 0 1.841.392 2.475 1.025A3.489 3.489 0 0144.5 4h0v35c0 .966-.392 1.841-1.025 2.475A3.489 3.489 0 0141 42.5h0H.5V.5z" id="seat_53_shape" stroke="#1B50AF" fill="#FFF"/>
        <path id="Line" stroke="#1B50AF" fill="#FFF" stroke-linecap="square" d="M9.5.5v42.012"/>
        <g id="seatnumber_53" transform="translate(17 16)" fill="#1B50AF">
          <path d="M7.192 8.392c0-1.584-1.072-2.368-2.144-2.368-1.024 0-1.76.512-1.984 1.056l-2.016-.096L1.816.6h7.152v1.856H3.624l-.32 2.48c.48-.352 1.232-.64 2.304-.64 1.984 0 3.824 1.408 3.824 4.08 0 2.56-1.984 4.032-4.368 4.032-2.72 0-4.16-1.856-4.288-3.856h2.08c.128 1.2.816 2.192 2.24 2.192 1.216 0 2.096-.88 2.096-2.352zm9.84.544c0-1.36-1.264-1.904-2.912-1.904h-.464V5.304h.384c1.664 0 2.704-.608 2.704-1.696 0-1.008-.88-1.552-1.84-1.552-1.328 0-2.176.848-2.288 2.048H10.52C10.776 1.8 12.376.392 15.032.392c1.936 0 3.936.928 3.936 3.12 0 1.12-.688 2.064-1.568 2.544a3.035 3.035 0 011.872 2.816c0 2.352-2.032 3.536-4.48 3.536-2.656 0-4.224-1.728-4.368-3.856h2.08c.16 1.168.912 2.192 2.352 2.192 1.2 0 2.176-.72 2.176-1.808z"/>
        </g>
        <g id="seatnumber_53-with-service-icon" transform="translate(17 16)">
          <path d="M7.192 8.392c0-1.584-1.072-2.368-2.144-2.368-1.024 0-1.76.512-1.984 1.056l-2.016-.096L1.816.6h7.152v1.856H3.624l-.32 2.48c.48-.352 1.232-.64 2.304-.64 1.984 0 3.824 1.408 3.824 4.08 0 2.56-1.984 4.032-4.368 4.032-2.72 0-4.16-1.856-4.288-3.856h2.08c.128 1.2.816 2.192 2.24 2.192 1.216 0 2.096-.88 2.096-2.352zm9.84.544c0-1.36-1.264-1.904-2.912-1.904h-.464V5.304h.384c1.664 0 2.704-.608 2.704-1.696 0-1.008-.88-1.552-1.84-1.552-1.328 0-2.176.848-2.288 2.048H10.52C10.776 1.8 12.376.392 15.032.392c1.936 0 3.936.928 3.936 3.12 0 1.12-.688 2.064-1.568 2.544a3.035 3.035 0 011.872 2.816c0 2.352-2.032 3.536-4.48 3.536-2.656 0-4.224-1.728-4.368-3.856h2.08c.16 1.168.912 2.192 2.352 2.192 1.2 0 2.176-.72 2.176-1.808z" transform="translate(0 10)"/>
          <use id="pet-seat-icon-seatnumber_53" xlink:href="#pet-seat-icon" transform="translate(0 -12)"/>
        </g>
      </g>
      <g id="seat_52" transform="translate(168 121)">
        <path d="M41 .5c.966 0 1.841.392 2.475 1.025A3.489 3.489 0 0144.5 4h0v35c0 .966-.392 1.841-1.025 2.475A3.489 3.489 0 0141 42.5h0H.5V.5z" id="seat_52_shape" stroke="#1B50AF" fill="#FFF" transform="rotate(-180 22.5 21.5)"/>
        <path id="Line" stroke="#1B50AF" stroke-linecap="square" d="M35.419 42.5V.488"/>
        <g id="seatnumber_52" transform="translate(10 16)" fill="#1B50AF">
          <path d="M6.429 8.392c0-1.584-1.072-2.368-2.144-2.368-1.024 0-1.76.512-1.984 1.056L.285 6.984 1.053.6h7.152v1.856H2.86l-.32 2.48c.48-.352 1.232-.64 2.304-.64 1.984 0 3.824 1.408 3.824 4.08 0 2.56-1.984 4.032-4.368 4.032-2.72 0-4.16-1.856-4.288-3.856h2.08c.128 1.2.816 2.192 2.24 2.192 1.216 0 2.096-.88 2.096-2.352zm11.504-4.88c0 2.176-2.112 4.448-5.68 6.832h5.952V12.2H9.677v-1.792c3.728-3.008 6.032-4.944 6.032-6.784 0-1.008-.64-1.6-1.712-1.6-.976 0-1.968.592-1.968 2.32H9.885c-.032-2.4 1.664-3.952 4.24-3.952 2.32 0 3.808 1.104 3.808 3.12z"/>
        </g>
        <g id="seatnumber_52-with-service-icon" transform="translate(10 16)">
          <path d="M6.429 8.392c0-1.584-1.072-2.368-2.144-2.368-1.024 0-1.76.512-1.984 1.056L.285 6.984 1.053.6h7.152v1.856H2.86l-.32 2.48c.48-.352 1.232-.64 2.304-.64 1.984 0 3.824 1.408 3.824 4.08 0 2.56-1.984 4.032-4.368 4.032-2.72 0-4.16-1.856-4.288-3.856h2.08c.128 1.2.816 2.192 2.24 2.192 1.216 0 2.096-.88 2.096-2.352zm11.504-4.88c0 2.176-2.112 4.448-5.68 6.832h5.952V12.2H9.677v-1.792c3.728-3.008 6.032-4.944 6.032-6.784 0-1.008-.64-1.6-1.712-1.6-.976 0-1.968.592-1.968 2.32H9.885c-.032-2.4 1.664-3.952 4.24-3.952 2.32 0 3.808 1.104 3.808 3.12z" transform="translate(0 10)"/>
          <use id="pet-seat-icon-seatnumber_52" xlink:href="#pet-seat-icon" transform="translate(0 -12)"/>
        </g>
      </g>
      <g id="seat_51" transform="translate(168 164)">
        <path d="M41 .5c.966 0 1.841.392 2.475 1.025A3.489 3.489 0 0144.5 4h0v35c0 .966-.392 1.841-1.025 2.475A3.489 3.489 0 0141 42.5h0H.5V.5z" id="seat_51_shape" stroke="#1B50AF" fill="#FFF" transform="rotate(-180 22.5 21.5)"/>
        <path id="Line" stroke="#1B50AF" stroke-linecap="square" d="M35.419 42.5V.488"/>
        <g id="seatnumber_51" transform="translate(11 16)" fill="#1B50AF">
          <path d="M7.109 8.392c0-1.584-1.072-2.368-2.144-2.368-1.024 0-1.76.512-1.984 1.056L.965 6.984 1.733.6h7.152v1.856H3.54l-.32 2.48c.48-.352 1.232-.64 2.304-.64 1.984 0 3.824 1.408 3.824 4.08 0 2.56-1.984 4.032-4.368 4.032-2.72 0-4.16-1.856-4.288-3.856h2.08c.128 1.2.816 2.192 2.24 2.192 1.216 0 2.096-.88 2.096-2.352zm5.376 3.808V3.528H9.989V2.024c1.68-.048 2.464-.16 3.024-1.424h1.68v11.6h-2.208z"/>
        </g>
        <g id="seatnumber_51-with-service-icon" transform="translate(11 16)">
          <path d="M7.109 8.392c0-1.584-1.072-2.368-2.144-2.368-1.024 0-1.76.512-1.984 1.056L.965 6.984 1.733.6h7.152v1.856H3.54l-.32 2.48c.48-.352 1.232-.64 2.304-.64 1.984 0 3.824 1.408 3.824 4.08 0 2.56-1.984 4.032-4.368 4.032-2.72 0-4.16-1.856-4.288-3.856h2.08c.128 1.2.816 2.192 2.24 2.192 1.216 0 2.096-.88 2.096-2.352zm5.376 3.808V3.528H9.989V2.024c1.68-.048 2.464-.16 3.024-1.424h1.68v11.6h-2.208z" transform="translate(0 10)"/>
          <use id="pet-seat-icon-seatnumber_51" xlink:href="#pet-seat-icon" transform="translate(0 -12)"/>
        </g>
      </g>
      <g id="seat_48" transform="translate(112 121)">
        <path d="M.5.5h40.397c.967 0 1.842.392 2.475 1.025A3.489 3.489 0 0144.397 4h0v35c0 .966-.392 1.841-1.025 2.475a3.489 3.489 0 01-2.475 1.025h0H.5V.5z" id="seat_48_shape" stroke="#1B50AF" fill="#FFF" transform="rotate(-180 22.449 21.5)"/>
        <path id="Line" stroke="#1B50AF" fill="#FFF" stroke-linecap="square" d="M35.419 42.5V.488"/>
        <g id="seatnumber_48" transform="translate(8 16)" fill="#1B50AF">
          <path d="M10.789 9.416H8.805V12.2H6.613V9.416H.885V7.688L6.645.6h2.16v6.944h1.984v1.872zM3.3 7.544h3.312V3.4L3.3 7.544zm16.768-4.176c0 1.04-.416 2.016-1.408 2.624 1.296.736 1.76 1.776 1.76 2.896 0 2.272-1.936 3.52-4.4 3.52-2.448 0-4.384-1.248-4.384-3.52 0-1.12.48-2.176 1.776-2.896-.96-.544-1.424-1.584-1.424-2.608 0-1.728 1.584-2.992 4.032-2.992 2.464 0 4.048 1.264 4.048 2.976zM16.02 2.056c-1.152 0-1.888.624-1.888 1.584 0 .96.736 1.664 1.888 1.664s1.904-.704 1.904-1.664-.752-1.584-1.904-1.584zm-2.128 6.736c0 1.152.832 1.952 2.128 1.952 1.312 0 2.144-.8 2.144-1.952s-.832-1.904-2.144-1.904c-1.296 0-2.128.752-2.128 1.904z"/>
        </g>
        <g id="seatnumber_48-with-service-icon" transform="translate(8 16)">
          <path d="M10.789 9.416H8.805V12.2H6.613V9.416H.885V7.688L6.645.6h2.16v6.944h1.984v1.872zM3.3 7.544h3.312V3.4L3.3 7.544zm16.768-4.176c0 1.04-.416 2.016-1.408 2.624 1.296.736 1.76 1.776 1.76 2.896 0 2.272-1.936 3.52-4.4 3.52-2.448 0-4.384-1.248-4.384-3.52 0-1.12.48-2.176 1.776-2.896-.96-.544-1.424-1.584-1.424-2.608 0-1.728 1.584-2.992 4.032-2.992 2.464 0 4.048 1.264 4.048 2.976zM16.02 2.056c-1.152 0-1.888.624-1.888 1.584 0 .96.736 1.664 1.888 1.664s1.904-.704 1.904-1.664-.752-1.584-1.904-1.584zm-2.128 6.736c0 1.152.832 1.952 2.128 1.952 1.312 0 2.144-.8 2.144-1.952s-.832-1.904-2.144-1.904c-1.296 0-2.128.752-2.128 1.904z" transform="translate(0 10)"/>
          <use id="pet-seat-icon-seatnumber_48" xlink:href="#pet-seat-icon" transform="translate(0 -12)"/>
        </g>
      </g>
      <g id="seat_47" transform="translate(112 164)">
        <path d="M.5.5h40.397c.967 0 1.842.392 2.475 1.025A3.489 3.489 0 0144.397 4h0v35c0 .966-.392 1.841-1.025 2.475a3.489 3.489 0 01-2.475 1.025h0H.5V.5z" id="seat_47_shape" stroke="#1B50AF" fill="#FFF" transform="rotate(-180 22.449 21.5)"/>
        <path id="Line" stroke="#1B50AF" fill="#FFF" stroke-linecap="square" d="M35.419 42.5V.488"/>
        <g id="seatnumber_47" transform="translate(9 16)" fill="#1B50AF">
          <path d="M10.837 9.416H8.853V12.2H6.66V9.416H.933V7.688L6.693.6h2.16v6.944h1.984v1.872zM3.349 7.544H6.66V3.4L3.349 7.544zM10.9.6h8.528v1.856c-3.024 3.088-4.496 5.568-4.72 9.744h-2.432c.192-4.032 2.336-7.296 4.928-9.744H10.9V.6z"/>
        </g>
        <g id="seatnumber_47-with-service-icon" transform="translate(9 16)">
          <path d="M10.837 9.416H8.853V12.2H6.66V9.416H.933V7.688L6.693.6h2.16v6.944h1.984v1.872zM3.349 7.544H6.66V3.4L3.349 7.544zM10.9.6h8.528v1.856c-3.024 3.088-4.496 5.568-4.72 9.744h-2.432c.192-4.032 2.336-7.296 4.928-9.744H10.9V.6z" transform="translate(0 10)"/>
          <use id="pet-seat-icon-seatnumber_47" xlink:href="#pet-seat-icon" transform="translate(0 -12)"/>
        </g>
      </g>
      <g id="seat_44" transform="translate(56 121)">
        <path d="M.5.5h40.397c.967 0 1.842.392 2.475 1.025A3.489 3.489 0 0144.397 4h0v35c0 .966-.392 1.841-1.025 2.475a3.489 3.489 0 01-2.475 1.025h0H.5V.5z" id="seat_44_shape" stroke="#1B50AF" fill="#FFF" transform="rotate(-180 22.449 21.5)"/>
        <path id="Line" stroke="#1B50AF" fill="#FFF" stroke-linecap="square" d="M35.419 42.5V.488"/>
        <g id="seatnumber_44" transform="translate(8 16)" fill="#1B50AF">
          <path d="M10.845 9.416H8.86V12.2H6.669V9.416H.94V7.688L6.7.6h2.16v6.944h1.984v1.872zM3.357 7.544h3.312V3.4L3.357 7.544zm17.632 1.872h-1.984V12.2h-2.192V9.416h-5.728V7.688L16.845.6h2.16v6.944h1.984v1.872zM13.5 7.544h3.312V3.4L13.5 7.544z"/>
        </g>
        <g id="seatnumber_44-with-service-icon" transform="translate(8 16)">
          <path d="M10.845 9.416H8.86V12.2H6.669V9.416H.94V7.688L6.7.6h2.16v6.944h1.984v1.872zM3.357 7.544h3.312V3.4L3.357 7.544zm17.632 1.872h-1.984V12.2h-2.192V9.416h-5.728V7.688L16.845.6h2.16v6.944h1.984v1.872zM13.5 7.544h3.312V3.4L13.5 7.544z" transform="translate(0 10)"/>
          <use id="pet-seat-icon-seatnumber_44" xlink:href="#pet-seat-icon" transform="translate(0 -12)"/>
        </g>
      </g>
      <g id="seat_43" transform="translate(56 164)">
        <path d="M.5.5h40.397c.967 0 1.842.392 2.475 1.025A3.489 3.489 0 0144.397 4h0v35c0 .966-.392 1.841-1.025 2.475a3.489 3.489 0 01-2.475 1.025h0H.5V.5z" id="seat_43_shape" stroke="#1B50AF" fill="#FFF" transform="rotate(-180 22.449 21.5)"/>
        <path id="Line" stroke="#1B50AF" fill="#FFF" stroke-linecap="square" d="M35.419 42.5V.488"/>
        <g id="seatnumber_43" transform="translate(9 16)" fill="#1B50AF">
          <path d="M10.005 9.416H8.02V12.2H5.829V9.416H.1V7.688L5.86.6h2.16v6.944h1.984v1.872zM2.517 7.544h3.312V3.4L2.517 7.544zm14.56 1.392c0-1.36-1.264-1.904-2.912-1.904H13.7V5.304h.384c1.664 0 2.704-.608 2.704-1.696 0-1.008-.88-1.552-1.84-1.552-1.328 0-2.176.848-2.288 2.048h-2.096C10.82 1.8 12.42.392 15.077.392c1.936 0 3.936.928 3.936 3.12 0 1.12-.688 2.064-1.568 2.544a3.035 3.035 0 011.872 2.816c0 2.352-2.032 3.536-4.48 3.536-2.656 0-4.224-1.728-4.368-3.856h2.08c.16 1.168.912 2.192 2.352 2.192 1.2 0 2.176-.72 2.176-1.808z"/>
        </g>
        <g id="seatnumber_43-with-service-icon" transform="translate(9 16)">
          <path d="M10.005 9.416H8.02V12.2H5.829V9.416H.1V7.688L5.86.6h2.16v6.944h1.984v1.872zM2.517 7.544h3.312V3.4L2.517 7.544zm14.56 1.392c0-1.36-1.264-1.904-2.912-1.904H13.7V5.304h.384c1.664 0 2.704-.608 2.704-1.696 0-1.008-.88-1.552-1.84-1.552-1.328 0-2.176.848-2.288 2.048h-2.096C10.82 1.8 12.42.392 15.077.392c1.936 0 3.936.928 3.936 3.12 0 1.12-.688 2.064-1.568 2.544a3.035 3.035 0 011.872 2.816c0 2.352-2.032 3.536-4.48 3.536-2.656 0-4.224-1.728-4.368-3.856h2.08c.16 1.168.912 2.192 2.352 2.192 1.2 0 2.176-.72 2.176-1.808z" transform="translate(0 10)"/>
          <use id="pet-seat-icon-seatnumber_43" xlink:href="#pet-seat-icon" transform="translate(0 -12)"/>
        </g>
      </g>
      <g id="seat_40" transform="translate(0 121)">
        <path d="M.5.5h40.397c.967 0 1.842.392 2.475 1.025A3.489 3.489 0 0144.397 4h0v35c0 .966-.392 1.841-1.025 2.475a3.489 3.489 0 01-2.475 1.025h0H.5V.5z" id="seat_40_shape" stroke="#1B50AF" fill="#FFF" transform="rotate(-180 22.449 21.5)"/>
        <path id="Line" stroke="#1B50AF" fill="#FFF" stroke-linecap="square" d="M35.419 42.5V.488"/>
        <g id="seatnumber_40" transform="translate(8 16)" fill="#1B50AF">
          <path d="M10.613 9.416H8.629V12.2H6.437V9.416H.709V7.688L6.469.6h2.16v6.944h1.984v1.872zM3.125 7.544h3.312V3.4L3.125 7.544zm8.24-1.168c0-3.52 1.568-5.984 4.672-5.984 3.088 0 4.656 2.464 4.656 5.984 0 3.536-1.568 6.032-4.656 6.032-3.104 0-4.672-2.496-4.672-6.032zm7.072 0c0-2.768-.832-4.32-2.4-4.32s-2.416 1.552-2.416 4.32c0 2.784.848 4.368 2.416 4.368s2.4-1.584 2.4-4.368z"/>
        </g>
        <g id="seatnumber_40-with-service-icon" transform="translate(8 16)">
          <path d="M10.613 9.416H8.629V12.2H6.437V9.416H.709V7.688L6.469.6h2.16v6.944h1.984v1.872zM3.125 7.544h3.312V3.4L3.125 7.544zm8.24-1.168c0-3.52 1.568-5.984 4.672-5.984 3.088 0 4.656 2.464 4.656 5.984 0 3.536-1.568 6.032-4.656 6.032-3.104 0-4.672-2.496-4.672-6.032zm7.072 0c0-2.768-.832-4.32-2.4-4.32s-2.416 1.552-2.416 4.32c0 2.784.848 4.368 2.416 4.368s2.4-1.584 2.4-4.368z" transform="translate(0 10)"/>
          <use id="pet-seat-icon-seatnumber_40" xlink:href="#pet-seat-icon" transform="translate(0 -12)"/>
        </g>
      </g>
      <g id="seat_39" transform="translate(0 164)">
        <path d="M.5.5h40.397c.967 0 1.842.392 2.475 1.025A3.489 3.489 0 0144.397 4h0v35c0 .966-.392 1.841-1.025 2.475a3.489 3.489 0 01-2.475 1.025h0H.5V.5z" id="seat_39_shape" stroke="#1B50AF" fill="#FFF" transform="rotate(-180 22.449 21.5)"/>
        <path id="Line" stroke="#1B50AF" fill="#FFF" stroke-linecap="square" d="M35.419 42.5V.488"/>
        <g id="seatnumber_39" transform="translate(9 16)" fill="#1B50AF">
          <path d="M7.029 8.936c0-1.36-1.264-1.904-2.912-1.904h-.464V5.304h.384c1.664 0 2.704-.608 2.704-1.696 0-1.008-.88-1.552-1.84-1.552-1.328 0-2.176.848-2.288 2.048H.517C.773 1.8 2.373.392 5.029.392c1.936 0 3.936.928 3.936 3.12 0 1.12-.688 2.064-1.568 2.544a3.035 3.035 0 011.872 2.816c0 2.352-2.032 3.536-4.48 3.536-2.656 0-4.224-1.728-4.368-3.856H2.5c.16 1.168.912 2.192 2.352 2.192 1.2 0 2.176-.72 2.176-1.808zm9.968-1.744c-.496.624-1.424 1.104-2.656 1.104-2.128 0-3.92-1.472-3.92-3.968 0-2.384 1.808-3.936 4.32-3.936 3.104 0 4.464 2.496 4.464 5.744 0 3.328-1.248 6.272-4.704 6.272-2.528 0-3.712-1.728-3.84-3.2h2.16c.112.96.864 1.504 1.824 1.504 1.456 0 2.352-1.376 2.352-3.52zm-2.256-5.12c-1.2 0-2.08.88-2.08 2.272 0 1.36.88 2.256 2.08 2.256 1.2 0 2.112-.896 2.112-2.256 0-1.376-.912-2.272-2.112-2.272z"/>
        </g>
        <g id="seatnumber_39-with-service-icon" transform="translate(9 16)">
          <path d="M7.029 8.936c0-1.36-1.264-1.904-2.912-1.904h-.464V5.304h.384c1.664 0 2.704-.608 2.704-1.696 0-1.008-.88-1.552-1.84-1.552-1.328 0-2.176.848-2.288 2.048H.517C.773 1.8 2.373.392 5.029.392c1.936 0 3.936.928 3.936 3.12 0 1.12-.688 2.064-1.568 2.544a3.035 3.035 0 011.872 2.816c0 2.352-2.032 3.536-4.48 3.536-2.656 0-4.224-1.728-4.368-3.856H2.5c.16 1.168.912 2.192 2.352 2.192 1.2 0 2.176-.72 2.176-1.808zm9.968-1.744c-.496.624-1.424 1.104-2.656 1.104-2.128 0-3.92-1.472-3.92-3.968 0-2.384 1.808-3.936 4.32-3.936 3.104 0 4.464 2.496 4.464 5.744 0 3.328-1.248 6.272-4.704 6.272-2.528 0-3.712-1.728-3.84-3.2h2.16c.112.96.864 1.504 1.824 1.504 1.456 0 2.352-1.376 2.352-3.52zm-2.256-5.12c-1.2 0-2.08.88-2.08 2.272 0 1.36.88 2.256 2.08 2.256 1.2 0 2.112-.896 2.112-2.256 0-1.376-.912-2.272-2.112-2.272z" transform="translate(0 10)"/>
          <use id="pet-seat-icon-seatnumber_39" xlink:href="#pet-seat-icon" transform="translate(0 -12)"/>
        </g>
      </g>
      <g id="seat_50" transform="translate(168 43)">
        <path d="M.5.5h40.397c.967 0 1.842.392 2.475 1.025A3.489 3.489 0 0144.397 4h0v35c0 .966-.392 1.841-1.025 2.475a3.489 3.489 0 01-2.475 1.025h0H.5V.5z" id="seat_50_shape" stroke="#1B50AF" fill="#FFF" transform="rotate(-180 22.449 21.5)"/>
        <path id="Line" stroke="#1B50AF" stroke-linecap="square" d="M35.419 42.5V.488"/>
        <g id="seatnumber_50" transform="translate(9 16)" fill="#1B50AF">
          <path d="M6.757 8.392c0-1.584-1.072-2.368-2.144-2.368-1.024 0-1.76.512-1.984 1.056L.613 6.984 1.38.6h7.152v1.856H3.189l-.32 2.48c.48-.352 1.232-.64 2.304-.64 1.984 0 3.824 1.408 3.824 4.08 0 2.56-1.984 4.032-4.368 4.032-2.72 0-4.16-1.856-4.288-3.856h2.08c.128 1.2.816 2.192 2.24 2.192 1.216 0 2.096-.88 2.096-2.352zm3.52-2.016c0-3.52 1.568-5.984 4.672-5.984 3.088 0 4.656 2.464 4.656 5.984 0 3.536-1.568 6.032-4.656 6.032-3.104 0-4.672-2.496-4.672-6.032zm7.072 0c0-2.768-.832-4.32-2.4-4.32s-2.416 1.552-2.416 4.32c0 2.784.848 4.368 2.416 4.368s2.4-1.584 2.4-4.368z"/>
        </g>
        <g id="seatnumber_50-with-service-icon" transform="translate(9 16)">
          <path d="M6.757 8.392c0-1.584-1.072-2.368-2.144-2.368-1.024 0-1.76.512-1.984 1.056L.613 6.984 1.38.6h7.152v1.856H3.189l-.32 2.48c.48-.352 1.232-.64 2.304-.64 1.984 0 3.824 1.408 3.824 4.08 0 2.56-1.984 4.032-4.368 4.032-2.72 0-4.16-1.856-4.288-3.856h2.08c.128 1.2.816 2.192 2.24 2.192 1.216 0 2.096-.88 2.096-2.352zm3.52-2.016c0-3.52 1.568-5.984 4.672-5.984 3.088 0 4.656 2.464 4.656 5.984 0 3.536-1.568 6.032-4.656 6.032-3.104 0-4.672-2.496-4.672-6.032zm7.072 0c0-2.768-.832-4.32-2.4-4.32s-2.416 1.552-2.416 4.32c0 2.784.848 4.368 2.416 4.368s2.4-1.584 2.4-4.368z" transform="translate(0 10)"/>
          <use id="pet-seat-icon-seatnumber_50" xlink:href="#pet-seat-icon" transform="translate(0 -12)"/>
        </g>
      </g>
      <g id="seat_49" transform="translate(168)">
        <path d="M.5.5h40.397c.967 0 1.842.392 2.475 1.025A3.489 3.489 0 0144.397 4h0v35c0 .966-.392 1.841-1.025 2.475a3.489 3.489 0 01-2.475 1.025h0H.5V.5z" id="seat_49_shape" stroke="#1B50AF" fill="#FFF" transform="rotate(-180 22.449 21.5)"/>
        <path id="Line" stroke="#1B50AF" stroke-linecap="square" d="M35.419 42.5V.488"/>
        <g id="seatnumber_49" transform="translate(9 16)" fill="#1B50AF">
          <path d="M9.94 9.416H7.958V12.2H5.765V9.416H.037V7.688L5.797.6h2.16v6.944H9.94v1.872zM2.454 7.544h3.312V3.4L2.453 7.544zm14.704-.352c-.496.624-1.424 1.104-2.656 1.104-2.128 0-3.92-1.472-3.92-3.968 0-2.384 1.808-3.936 4.32-3.936 3.104 0 4.464 2.496 4.464 5.744 0 3.328-1.248 6.272-4.704 6.272-2.528 0-3.712-1.728-3.84-3.2h2.16c.112.96.864 1.504 1.824 1.504 1.456 0 2.352-1.376 2.352-3.52zM14.9 2.072c-1.2 0-2.08.88-2.08 2.272 0 1.36.88 2.256 2.08 2.256 1.2 0 2.112-.896 2.112-2.256 0-1.376-.912-2.272-2.112-2.272z"/>
        </g>
        <g id="seatnumber_49-with-service-icon" transform="translate(9 16)">
          <path d="M9.94 9.416H7.958V12.2H5.765V9.416H.037V7.688L5.797.6h2.16v6.944H9.94v1.872zM2.454 7.544h3.312V3.4L2.453 7.544zm14.704-.352c-.496.624-1.424 1.104-2.656 1.104-2.128 0-3.92-1.472-3.92-3.968 0-2.384 1.808-3.936 4.32-3.936 3.104 0 4.464 2.496 4.464 5.744 0 3.328-1.248 6.272-4.704 6.272-2.528 0-3.712-1.728-3.84-3.2h2.16c.112.96.864 1.504 1.824 1.504 1.456 0 2.352-1.376 2.352-3.52zM14.9 2.072c-1.2 0-2.08.88-2.08 2.272 0 1.36.88 2.256 2.08 2.256 1.2 0 2.112-.896 2.112-2.256 0-1.376-.912-2.272-2.112-2.272z" transform="translate(0 10)"/>
          <use id="pet-seat-icon-seatnumber_49" xlink:href="#pet-seat-icon" transform="translate(0 -12)"/>
        </g>
      </g>
      <g id="seat_46" transform="translate(112 43)">
        <path d="M.5.5h40.397c.967 0 1.842.392 2.475 1.025A3.489 3.489 0 0144.397 4h0v35c0 .966-.392 1.841-1.025 2.475a3.489 3.489 0 01-2.475 1.025h0H.5V.5z" id="seat_46_shape" stroke="#1B50AF" fill="#FFF" transform="rotate(-180 22.449 21.5)"/>
        <path id="Line" stroke="#1B50AF" fill="#FFF" stroke-linecap="square" d="M35.419 42.5V.488"/>
        <g id="seatnumber_46" transform="translate(8 16)" fill="#1B50AF">
          <path d="M10.893 9.416H8.909V12.2H6.717V9.416H.989V7.688L6.749.6h2.16v6.944h1.984v1.872zM3.405 7.544h3.312V3.4L3.405 7.544zm10.448-1.936c.496-.624 1.424-1.104 2.64-1.104 2.144 0 3.936 1.456 3.936 3.968 0 2.384-1.808 3.936-4.32 3.936-3.104 0-4.464-2.496-4.464-5.744 0-3.328 1.232-6.272 4.704-6.272 2.528 0 3.712 1.712 3.84 3.2h-2.16c-.112-.96-.88-1.52-1.824-1.52-1.456 0-2.352 1.376-2.352 3.536zm2.256 5.136c1.2 0 2.08-.896 2.08-2.304 0-1.36-.88-2.256-2.08-2.256-1.216 0-2.128.896-2.128 2.256 0 1.392.912 2.304 2.128 2.304z"/>
        </g>
        <g id="seatnumber_46-with-service-icon" transform="translate(8 16)">
          <path d="M10.893 9.416H8.909V12.2H6.717V9.416H.989V7.688L6.749.6h2.16v6.944h1.984v1.872zM3.405 7.544h3.312V3.4L3.405 7.544zm10.448-1.936c.496-.624 1.424-1.104 2.64-1.104 2.144 0 3.936 1.456 3.936 3.968 0 2.384-1.808 3.936-4.32 3.936-3.104 0-4.464-2.496-4.464-5.744 0-3.328 1.232-6.272 4.704-6.272 2.528 0 3.712 1.712 3.84 3.2h-2.16c-.112-.96-.88-1.52-1.824-1.52-1.456 0-2.352 1.376-2.352 3.536zm2.256 5.136c1.2 0 2.08-.896 2.08-2.304 0-1.36-.88-2.256-2.08-2.256-1.216 0-2.128.896-2.128 2.256 0 1.392.912 2.304 2.128 2.304z" transform="translate(0 10)"/>
          <use id="pet-seat-icon-seatnumber_46" xlink:href="#pet-seat-icon" transform="translate(0 -12)"/>
        </g>
      </g>
      <g id="seat_45" transform="translate(112)">
        <path d="M.5.5h40.397c.967 0 1.842.392 2.475 1.025A3.489 3.489 0 0144.397 4h0v35c0 .966-.392 1.841-1.025 2.475a3.489 3.489 0 01-2.475 1.025h0H.5V.5z" id="seat_45_shape" stroke="#1B50AF" fill="#FFF" transform="rotate(-180 22.449 21.5)"/>
        <path id="Line" stroke="#1B50AF" fill="#FFF" stroke-linecap="square" d="M35.419 42.5V.488"/>
        <g id="seatnumber_45" transform="translate(9 16)" fill="#1B50AF">
          <path d="M9.933 9.416H7.949V12.2H5.757V9.416H.029V7.688L5.789.6h2.16v6.944h1.984v1.872zM2.445 7.544h3.312V3.4L2.445 7.544zm14.688.848c0-1.584-1.072-2.368-2.144-2.368-1.024 0-1.76.512-1.984 1.056l-2.016-.096L11.757.6h7.152v1.856h-5.344l-.32 2.48c.48-.352 1.232-.64 2.304-.64 1.984 0 3.824 1.408 3.824 4.08 0 2.56-1.984 4.032-4.368 4.032-2.72 0-4.16-1.856-4.288-3.856h2.08c.128 1.2.816 2.192 2.24 2.192 1.216 0 2.096-.88 2.096-2.352z"/>
        </g>
        <g id="seatnumber_45-with-service-icon" transform="translate(9 16)">
          <path d="M9.933 9.416H7.949V12.2H5.757V9.416H.029V7.688L5.789.6h2.16v6.944h1.984v1.872zM2.445 7.544h3.312V3.4L2.445 7.544zm14.688.848c0-1.584-1.072-2.368-2.144-2.368-1.024 0-1.76.512-1.984 1.056l-2.016-.096L11.757.6h7.152v1.856h-5.344l-.32 2.48c.48-.352 1.232-.64 2.304-.64 1.984 0 3.824 1.408 3.824 4.08 0 2.56-1.984 4.032-4.368 4.032-2.72 0-4.16-1.856-4.288-3.856h2.08c.128 1.2.816 2.192 2.24 2.192 1.216 0 2.096-.88 2.096-2.352z" transform="translate(0 10)"/>
          <use id="pet-seat-icon-seatnumber_45" xlink:href="#pet-seat-icon" transform="translate(0 -12)"/>
        </g>
      </g>
      <g id="seat_42" transform="translate(56 43)">
        <path d="M.5.5h40.397c.967 0 1.842.392 2.475 1.025A3.489 3.489 0 0144.397 4h0v35c0 .966-.392 1.841-1.025 2.475a3.489 3.489 0 01-2.475 1.025h0H.5V.5z" id="seat_42_shape" stroke="#1B50AF" fill="#FFF" transform="rotate(-180 22.449 21.5)"/>
        <path id="Line" stroke="#1B50AF" fill="#FFF" stroke-linecap="square" d="M35.419 42.5V.488"/>
        <g id="seatnumber_42" transform="translate(9 16)" fill="#1B50AF">
          <path d="M10.285 9.416H8.3V12.2H6.109V9.416H.38V7.688L6.14.6H8.3v6.944h1.984v1.872zM2.797 7.544h3.312V3.4L2.797 7.544zM19.02 3.512c0 2.176-2.112 4.448-5.68 6.832h5.952V12.2h-8.528v-1.792c3.728-3.008 6.032-4.944 6.032-6.784 0-1.008-.64-1.6-1.712-1.6-.976 0-1.968.592-1.968 2.32h-2.144c-.032-2.4 1.664-3.952 4.24-3.952 2.32 0 3.808 1.104 3.808 3.12z"/>
        </g>
        <g id="seatnumber_42-with-service-icon" transform="translate(9 16)">
          <path d="M10.285 9.416H8.3V12.2H6.109V9.416H.38V7.688L6.14.6H8.3v6.944h1.984v1.872zM2.797 7.544h3.312V3.4L2.797 7.544zM19.02 3.512c0 2.176-2.112 4.448-5.68 6.832h5.952V12.2h-8.528v-1.792c3.728-3.008 6.032-4.944 6.032-6.784 0-1.008-.64-1.6-1.712-1.6-.976 0-1.968.592-1.968 2.32h-2.144c-.032-2.4 1.664-3.952 4.24-3.952 2.32 0 3.808 1.104 3.808 3.12z" transform="translate(0 10)"/>
          <use id="pet-seat-icon-seatnumber_42" xlink:href="#pet-seat-icon" transform="translate(0 -12)"/>
        </g>
      </g>
      <g id="seat_41" transform="translate(56)">
        <path d="M.5.5h40.397c.967 0 1.842.392 2.475 1.025A3.489 3.489 0 0144.397 4h0v35c0 .966-.392 1.841-1.025 2.475a3.489 3.489 0 01-2.475 1.025h0H.5V.5z" id="seat_41_shape" stroke="#1B50AF" fill="#FFF" transform="rotate(-180 22.449 21.5)"/>
        <path id="Line" stroke="#1B50AF" fill="#FFF" stroke-linecap="square" d="M35.419 42.5V.488"/>
        <g id="seatnumber_41" transform="translate(11 16)" fill="#1B50AF">
          <path d="M9.965 9.416H7.98V12.2H5.789V9.416H.06V7.688L5.82.6h2.16v6.944h1.984v1.872zM2.477 7.544h3.312V3.4L2.477 7.544zM12.573 12.2V3.528h-2.496V2.024c1.68-.048 2.464-.16 3.024-1.424h1.68v11.6h-2.208z"/>
        </g>
        <g id="seatnumber_41-with-service-icon" transform="translate(11 16)">
          <path d="M9.965 9.416H7.98V12.2H5.789V9.416H.06V7.688L5.82.6h2.16v6.944h1.984v1.872zM2.477 7.544h3.312V3.4L2.477 7.544zM12.573 12.2V3.528h-2.496V2.024c1.68-.048 2.464-.16 3.024-1.424h1.68v11.6h-2.208z" transform="translate(0 10)"/>
          <use id="pet-seat-icon-seatnumber_41" xlink:href="#pet-seat-icon" transform="translate(0 -12)"/>
        </g>
      </g>
      <g id="seat_38" transform="translate(0 43)">
        <path d="M.5.5h40.397c.967 0 1.842.392 2.475 1.025A3.489 3.489 0 0144.397 4h0v35c0 .966-.392 1.841-1.025 2.475a3.489 3.489 0 01-2.475 1.025h0H.5V.5z" id="seat_38_shape" stroke="#1B50AF" fill="#FFF" transform="rotate(-180 22.449 21.5)"/>
        <path id="Line" stroke="#1B50AF" fill="#FFF" stroke-linecap="square" d="M35.419 42.5V.488"/>
        <g id="seatnumber_38" transform="translate(9 16)" fill="#1B50AF">
          <path d="M6.877 8.936c0-1.36-1.264-1.904-2.912-1.904H3.5V5.304h.384c1.664 0 2.704-.608 2.704-1.696 0-1.008-.88-1.552-1.84-1.552-1.328 0-2.176.848-2.288 2.048H.365C.62 1.8 2.22.392 4.877.392c1.936 0 3.936.928 3.936 3.12 0 1.12-.688 2.064-1.568 2.544a3.035 3.035 0 011.872 2.816c0 2.352-2.032 3.536-4.48 3.536-2.656 0-4.224-1.728-4.368-3.856h2.08c.16 1.168.912 2.192 2.352 2.192 1.2 0 2.176-.72 2.176-1.808zm12.032-5.568c0 1.04-.416 2.016-1.408 2.624 1.296.736 1.76 1.776 1.76 2.896 0 2.272-1.936 3.52-4.4 3.52-2.448 0-4.384-1.248-4.384-3.52 0-1.12.48-2.176 1.776-2.896-.96-.544-1.424-1.584-1.424-2.608 0-1.728 1.584-2.992 4.032-2.992 2.464 0 4.048 1.264 4.048 2.976zM14.86 2.056c-1.152 0-1.888.624-1.888 1.584 0 .96.736 1.664 1.888 1.664s1.904-.704 1.904-1.664-.752-1.584-1.904-1.584zm-2.128 6.736c0 1.152.832 1.952 2.128 1.952 1.312 0 2.144-.8 2.144-1.952s-.832-1.904-2.144-1.904c-1.296 0-2.128.752-2.128 1.904z"/>
        </g>
        <g id="seatnumber_38-with-service-icon" transform="translate(9 16)">
          <path d="M6.877 8.936c0-1.36-1.264-1.904-2.912-1.904H3.5V5.304h.384c1.664 0 2.704-.608 2.704-1.696 0-1.008-.88-1.552-1.84-1.552-1.328 0-2.176.848-2.288 2.048H.365C.62 1.8 2.22.392 4.877.392c1.936 0 3.936.928 3.936 3.12 0 1.12-.688 2.064-1.568 2.544a3.035 3.035 0 011.872 2.816c0 2.352-2.032 3.536-4.48 3.536-2.656 0-4.224-1.728-4.368-3.856h2.08c.16 1.168.912 2.192 2.352 2.192 1.2 0 2.176-.72 2.176-1.808zm12.032-5.568c0 1.04-.416 2.016-1.408 2.624 1.296.736 1.76 1.776 1.76 2.896 0 2.272-1.936 3.52-4.4 3.52-2.448 0-4.384-1.248-4.384-3.52 0-1.12.48-2.176 1.776-2.896-.96-.544-1.424-1.584-1.424-2.608 0-1.728 1.584-2.992 4.032-2.992 2.464 0 4.048 1.264 4.048 2.976zM14.86 2.056c-1.152 0-1.888.624-1.888 1.584 0 .96.736 1.664 1.888 1.664s1.904-.704 1.904-1.664-.752-1.584-1.904-1.584zm-2.128 6.736c0 1.152.832 1.952 2.128 1.952 1.312 0 2.144-.8 2.144-1.952s-.832-1.904-2.144-1.904c-1.296 0-2.128.752-2.128 1.904z" transform="translate(0 10)"/>
          <use id="pet-seat-icon-seatnumber_38" xlink:href="#pet-seat-icon" transform="translate(0 -12)"/>
        </g>
      </g>
      <g id="seat_37">
        <path d="M.5.5h40.397c.967 0 1.842.392 2.475 1.025A3.489 3.489 0 0144.397 4h0v35c0 .966-.392 1.841-1.025 2.475a3.489 3.489 0 01-2.475 1.025h0H.5V.5z" id="seat_37_shape" stroke="#1B50AF" fill="#FFF" transform="rotate(-180 22.449 21.5)"/>
        <path id="Line" stroke="#1B50AF" fill="#FFF" stroke-linecap="square" d="M35.419 42.5V.488"/>
        <g id="seatnumber_37" transform="translate(10 16)" fill="#1B50AF">
          <path d="M6.925 8.936c0-1.36-1.264-1.904-2.912-1.904h-.464V5.304h.384c1.664 0 2.704-.608 2.704-1.696 0-1.008-.88-1.552-1.84-1.552-1.328 0-2.176.848-2.288 2.048H.413C.669 1.8 2.269.392 4.925.392c1.936 0 3.936.928 3.936 3.12 0 1.12-.688 2.064-1.568 2.544a3.035 3.035 0 011.872 2.816c0 2.352-2.032 3.536-4.48 3.536-2.656 0-4.224-1.728-4.368-3.856h2.08c.16 1.168.912 2.192 2.352 2.192 1.2 0 2.176-.72 2.176-1.808zM9.74.6h8.528v1.856c-3.024 3.088-4.496 5.568-4.72 9.744h-2.432c.192-4.032 2.336-7.296 4.928-9.744H9.74V.6z"/>
        </g>
        <g id="seatnumber_37-with-service-icon" transform="translate(10 16)">
          <path d="M6.925 8.936c0-1.36-1.264-1.904-2.912-1.904h-.464V5.304h.384c1.664 0 2.704-.608 2.704-1.696 0-1.008-.88-1.552-1.84-1.552-1.328 0-2.176.848-2.288 2.048H.413C.669 1.8 2.269.392 4.925.392c1.936 0 3.936.928 3.936 3.12 0 1.12-.688 2.064-1.568 2.544a3.035 3.035 0 011.872 2.816c0 2.352-2.032 3.536-4.48 3.536-2.656 0-4.224-1.728-4.368-3.856h2.08c.16 1.168.912 2.192 2.352 2.192 1.2 0 2.176-.72 2.176-1.808zM9.74.6h8.528v1.856c-3.024 3.088-4.496 5.568-4.72 9.744h-2.432c.192-4.032 2.336-7.296 4.928-9.744H9.74V.6z" transform="translate(0 10)"/>
          <use id="pet-seat-icon-seatnumber_37" xlink:href="#pet-seat-icon" transform="translate(0 -12)"/>
        </g>
      </g>
    </g>
    <g id="Dynamic-service-areas" transform="translate(852 80)">
      <g id="servicearea_29-52">
        <path d="M0 0h215v78H0z"/>
      </g>
      <g id="servicearea_53-64" transform="translate(430)">
        <path d="M0 0h176v78H0z"/>
      </g>
    </g>
    <g id="Service-badges" transform="translate(86 15)">
      <g id="service-badge" transform="translate(244 1)">
        <circle stroke="#fff" stroke-width="2" fill="#f2f2f2" cx="29" cy="29" r="28"/>
        <g id="Icon" transform="translate(17 17)">
          <path d="M0 0h24v24H0z"/>
          <path d="M10 4.25V4a1 1 0 011-1h2a1 1 0 011 1v.25c0 .69.56 1.25 1.25 1.25H16V4a3 3 0 00-3-3h-2a3 3 0 00-3 3v1.5h.75c.69 0 1.25-.56 1.25-1.25zM22 18c0 .552-.448 1-1 1h-3V9.5h-.75c-.69 0-1.25.56-1.25 1.25V19H8v-8.25c0-.69-.56-1.25-1.25-1.25H6V19H3c-.551 0-1-.448-1-1V9.5c0-.552.449-1 1-1h18c.552 0 1 .448 1 1V18zM21 6.5H3c-1.655 0-3 1.346-3 3V18c0 1.654 1.345 3 3 3h1v.75c0 .69.56 1.25 1.25 1.25H6v-2h12v2h.75c.69 0 1.25-.56 1.25-1.25V21h1c1.654 0 3-1.346 3-3V9.5c0-1.654-1.346-3-3-3z" fill="#1b50af"/>
        </g>
      </g>
      <g id="service-badge" transform="translate(234 151)">
        <circle stroke="#fff" stroke-width="2" fill="#f2f2f2" cx="29" cy="29" r="28"/>
        <g id="Icon" transform="translate(17 17)">
          <path d="M0 24h24V0H0z"/>
          <path d="M9.448 11.527c.128-.27.128-.583 0-.854L7.655 6.875a4.014 4.014 0 01-.336-1.101L7.074 4.18 8.15 5.382c.257.288.471.611.636.96l1.555 3.294.905-1.916a1 1 0 000-.853l-.652-1.38a6.017 6.017 0 00-.954-1.439L6.32.337c-.663-.742-1.884-.165-1.734.818l.756 4.923c.088.571.258 1.127.505 1.65l2.697 5.715.904-1.916zm6.008 4.259L14.55 17.7a1 1 0 000 .854l1.374 2.91-1.13.535-1.136-2.407-.905 1.915c-.127.27-.127.584 0 .854l.232.491a2 2 0 002.662.955l1.131-.534a2 2 0 00.954-2.662l-2.277-4.826zM16.68 5.775a4.011 4.011 0 01-.336 1.1L9.205 22l-1.13-.535 7.139-15.123c.164-.349.378-.672.636-.96l1.075-1.202-.245 1.595zM17.68.337l-3.32 3.711a6.017 6.017 0 00-.954 1.44L6.266 20.611a2 2 0 00.955 2.663l1.13.533a2 2 0 002.662-.955l7.14-15.125a6.005 6.005 0 00.505-1.65l.755-4.923c.15-.983-1.07-1.56-1.734-.818zM22.75 20h-.25V0h-.75c-.69 0-1.25.56-1.25 1.25V20h-.25c-.69 0-1.25.56-1.25 1.25V22h1.5v2h.75c.69 0 1.25-.56 1.25-1.25V22H24v-.75c0-.69-.56-1.25-1.25-1.25zm-19 0H3.5V1.25C3.5.56 2.94 0 2.25 0H1.5v20h-.25C.56 20 0 20.56 0 21.25V22h1.5v.75c0 .69.56 1.25 1.25 1.25h.75v-2H5v-.75C5 20.56 4.44 20 3.75 20z" fill="#1b50af"/>
        </g>
      </g>
      <g id="service-badge" transform="translate(0 12)">
        <circle stroke="#fff" stroke-width="2" fill="#f2f2f2" cx="29" cy="29" r="28"/>
        <g id="Icon" transform="translate(17 17)">
          <path d="M0 0h24v24H0z"/>
          <path d="M10 4.25V4a1 1 0 011-1h2a1 1 0 011 1v.25c0 .69.56 1.25 1.25 1.25H16V4a3 3 0 00-3-3h-2a3 3 0 00-3 3v1.5h.75c.69 0 1.25-.56 1.25-1.25zM22 18c0 .552-.448 1-1 1h-3V9.5h-.75c-.69 0-1.25.56-1.25 1.25V19H8v-8.25c0-.69-.56-1.25-1.25-1.25H6V19H3c-.551 0-1-.448-1-1V9.5c0-.552.449-1 1-1h18c.552 0 1 .448 1 1V18zM21 6.5H3c-1.655 0-3 1.346-3 3V18c0 1.654 1.345 3 3 3h1v.75c0 .69.56 1.25 1.25 1.25H6v-2h12v2h.75c.69 0 1.25-.56 1.25-1.25V21h1c1.654 0 3-1.346 3-3V9.5c0-1.654-1.346-3-3-3z" fill="#1b50af"/>
        </g>
      </g>
      <g id="service-badge" transform="translate(0 142)">
        <circle stroke="#fff" stroke-width="2" fill="#f2f2f2" cx="29" cy="29" r="28"/>
        <g id="Icon" transform="translate(17 17)">
          <path d="M0 0h24v24H0z"/>
          <path d="M10 4.25V4a1 1 0 011-1h2a1 1 0 011 1v.25c0 .69.56 1.25 1.25 1.25H16V4a3 3 0 00-3-3h-2a3 3 0 00-3 3v1.5h.75c.69 0 1.25-.56 1.25-1.25zM22 18c0 .552-.448 1-1 1h-3V9.5h-.75c-.69 0-1.25.56-1.25 1.25V19H8v-8.25c0-.69-.56-1.25-1.25-1.25H6V19H3c-.551 0-1-.448-1-1V9.5c0-.552.449-1 1-1h18c.552 0 1 .448 1 1V18zM21 6.5H3c-1.655 0-3 1.346-3 3V18c0 1.654 1.345 3 3 3h1v.75c0 .69.56 1.25 1.25 1.25H6v-2h12v2h.75c.69 0 1.25-.56 1.25-1.25V21h1c1.654 0 3-1.346 3-3V9.5c0-1.654-1.346-3-3-3z" fill="#1b50af"/>
        </g>
      </g>
      <g id="service-badge" transform="translate(613 132)">
        <circle stroke="#fff" stroke-width="2" fill="#f2f2f2" cx="29" cy="29" r="28"/>
        <g id="Icon" transform="translate(17 17)">
          <path d="M0 0h24v24H0z"/>
          <path d="M10 4.25V4a1 1 0 011-1h2a1 1 0 011 1v.25c0 .69.56 1.25 1.25 1.25H16V4a3 3 0 00-3-3h-2a3 3 0 00-3 3v1.5h.75c.69 0 1.25-.56 1.25-1.25zM22 18c0 .552-.448 1-1 1h-3V9.5h-.75c-.69 0-1.25.56-1.25 1.25V19H8v-8.25c0-.69-.56-1.25-1.25-1.25H6V19H3c-.551 0-1-.448-1-1V9.5c0-.552.449-1 1-1h18c.552 0 1 .448 1 1V18zM21 6.5H3c-1.655 0-3 1.346-3 3V18c0 1.654 1.345 3 3 3h1v.75c0 .69.56 1.25 1.25 1.25H6v-2h12v2h.75c.69 0 1.25-.56 1.25-1.25V21h1c1.654 0 3-1.346 3-3V9.5c0-1.654-1.346-3-3-3z" fill="#1b50af"/>
        </g>
      </g>
      <g id="service-badge" transform="translate(427 132)">
        <circle stroke="#fff" stroke-width="2" fill="#f2f2f2" cx="29" cy="29" r="28"/>
        <g id="Icon" transform="translate(17 17)">
          <path d="M0 24h24V0H0z"/>
          <path d="M6.955 15.5l1.89-2.648.8 2.648h-2.69zm2.795-7c.69 0 1.25-.56 1.25-1.25V6.5H4.5v.75c0 .69.56 1.25 1.25 1.25h1.036a.998.998 0 01.957.71l.37 1.225-2.786 3.903a1.97 1.97 0 00-.181 2.01c.18.384.481.71.867.916.232.123.494.203.78.224a2.478 2.478 0 01-1.354 1.328 2.499 2.499 0 01-1.42.137 2.484 2.484 0 01-1.29-.685 2.506 2.506 0 01.1-3.629c.244-.218.531-.389.846-.499.186-.065.348-.172.478-.308.216-.228.343-.536.343-.863v-.967a4.464 4.464 0 00-1.997.467c-.426.212-.83.495-1.183.849a4.505 4.505 0 001.088 7.166 4.512 4.512 0 005.276-.802A4.473 4.473 0 008.88 17.5h1.913a1.998 1.998 0 001.632-.843l4.258-6.011 1.502 4.966a1.273 1.273 0 00.451.641c.211.157.47.247.746.247h1.161l-.746-2.47c.154.019.304.052.45.097.2.063.386.158.562.267.258.159.483.362.667.6.323.419.523.936.523 1.506 0 1.378-1.122 2.5-2.5 2.5a2.503 2.503 0 01-2.362-1.679 1.237 1.237 0 00-1.171-.821H15a4.507 4.507 0 004.5 4.5c2.481 0 4.5-2.018 4.5-4.5S21.98 12 19.5 12c-.105 0-.209.008-.312.014l-2.081-6.882A3 3 0 0014.235 3H12v.75c0 .69.56 1.25 1.25 1.25h.985a1 1 0 01.957.71l.759 2.509-4.508 6.317-1.786-5.904a.844.844 0 00-.051-.132h.144z" fill="#1b50af"/>
        </g>
      </g>
      <g id="service-badge" transform="translate(1039)">
        <circle stroke="#fff" stroke-width="2" fill="#f2f2f2" cx="29" cy="29" r="28"/>
        <g id="Icon/Service/WC" transform="translate(17 17)">
          <path d="M0 0h24v24H0z"/>
          <path d="M19.16 7a5.221 5.221 0 014.78 3.146l-.853.377c-.518.228-1.101.055-1.468-.378A3.221 3.221 0 0019.16 9c-1.781 0-3.23 1.458-3.23 3.25s1.449 3.25 3.23 3.25a3.22 3.22 0 002.46-1.145c.367-.432.95-.605 1.468-.377l.854.376a5.22 5.22 0 01-4.782 3.146c-2.877 0-5.218-2.354-5.218-5.25 0-2.895 2.341-5.25 5.218-5.25zm-12.177.165c1.017 0 1.83.703 1.979 1.709l.951 6.46 1.383-5.572.374-1.511a1.25 1.25 0 011.213-.949h1.083l-.44 1.775-1.671 6.739a1.978 1.978 0 01-1.937 1.519l-.101-.002a1.982 1.982 0 01-1.882-1.707l-.951-6.46-.952 6.46a1.98 1.98 0 01-1.883 1.707c-.968.033-1.805-.577-2.038-1.517L0 7.302h1.083a1.25 1.25 0 011.213.949l.3 1.209 1.457 5.874.952-6.46a1.963 1.963 0 011.978-1.709z" fill="#1b50af"/>
        </g>
      </g>
      <g id="service-badge" transform="translate(1029 151)">
        <circle stroke="#fff" stroke-width="2" fill="#f2f2f2" cx="29" cy="29" r="28"/>
        <g id="Icon" transform="translate(17 17)">
          <path d="M0 0h24v24H0z"/>
          <path d="M10 4.25V4a1 1 0 011-1h2a1 1 0 011 1v.25c0 .69.56 1.25 1.25 1.25H16V4a3 3 0 00-3-3h-2a3 3 0 00-3 3v1.5h.75c.69 0 1.25-.56 1.25-1.25zM22 18c0 .552-.448 1-1 1h-3V9.5h-.75c-.69 0-1.25.56-1.25 1.25V19H8v-8.25c0-.69-.56-1.25-1.25-1.25H6V19H3c-.551 0-1-.448-1-1V9.5c0-.552.449-1 1-1h18c.552 0 1 .448 1 1V18zM21 6.5H3c-1.655 0-3 1.346-3 3V18c0 1.654 1.345 3 3 3h1v.75c0 .69.56 1.25 1.25 1.25H6v-2h12v2h.75c.69 0 1.25-.56 1.25-1.25V21h1c1.654 0 3-1.346 3-3V9.5c0-1.654-1.346-3-3-3z" fill="#1b50af"/>
        </g>
      </g>
      <g id="service-badge" transform="translate(1123)">
        <circle stroke="#fff" stroke-width="2" fill="#f2f2f2" cx="29" cy="29" r="28"/>
        <g id="Icon" transform="translate(17 17)">
          <path d="M0 0h24v24H0z"/>
          <path d="M15.25 3h-6.5c-.69 0-1.25.56-1.25 1.25V5h9v-.75c0-.69-.56-1.25-1.25-1.25zM11 20.25V21h.75c.69 0 1.25-.56 1.25-1.25V19h-.75c-.69 0-1.25.56-1.25 1.25zm-3.5-3.5c0 .69.56 1.25 1.25 1.25h6.5c.69 0 1.25-.56 1.25-1.25V16h-9v.75zm10 4.25a1 1 0 01-1 1h-9a1 1 0 01-1-1V3a1 1 0 011-1h9a1 1 0 011 1v18zm-1-21h-9a3 3 0 00-3 3v18a3 3 0 003 3h9a3 3 0 003-3V3a3 3 0 00-3-3z" fill="#1b50af"/>
        </g>
      </g>
    </g>
  </g>
</svg>
