<svg viewBox="0 0 1586 237"
  xmlns="http://www.w3.org/2000/svg"
  xmlns:xlink="http://www.w3.org/1999/xlink"
  xmlns:vr="http://vr/wagonmap" preserveAspectRatio="xMinYMin meet">
  <defs>
    <svg id="pet-seat-icon" viewBox="0 0 620 620"
      xmlns="http://www.w3.org/2000/svg" preserveAspectRatio="xMinYMin meet">
      <g fill-rule="evenodd">
        <path d="M42.2 15.868a2.013 2.013 0 01-.716.132H27.548a2 2 0 01-1.02-.279l-7.883-4.669-2.736-6.519A2.5 2.5 0 0013.604 3h-2.676l1.26 3h-1.204a6 6 0 00-6 6v.099l-3.699 1.416a2 2 0 00-1.152 2.584l1.263 3.274A6 6 0 006.906 23h3.078v4.388c0 1.256.395 2.481 1.127 3.501l1.873 2.606V45h1.5a2.5 2.5 0 002.5-2.5v-9.004c0-.837-.263-1.654-.752-2.334l-1.87-2.606a2.002 2.002 0 01-.378-1.169V23a4 4 0 00-4-4H6.906a2 2 0 01-1.867-1.284l-.454-1.18 1.64-.627c1.581-.606 2.787-2.116 2.76-3.81V12c-.019-1.12.883-1.997 2-1.997h2.883l1.09 2.597a4.002 4.002 0 001.65 1.893l7.881 4.669a5.996 5.996 0 003.06.838h13.934c.735 0 1.462-.134 2.148-.397l2.748-1.053a2.5 2.5 0 001.605-2.334v-2.564L42.2 15.868zm4.067 8.562a2.499 2.499 0 00-3.228-1.44l-1.4.537 1.212 3.169c.088.228.133.471.133.715v17.584h1.5a2.5 2.5 0 002.5-2.5V27.41a6.01 6.01 0 00-.397-2.146l-.32-.834zm-9.445 4.117a4.001 4.001 0 00-4.668-1.384l-9.359 3.59a6.001 6.001 0 00-3.853 5.663L18.984 45l1.493-.007a2.501 2.501 0 002.488-2.52l-.023-6.097a2.005 2.005 0 011.288-1.889l9.356-3.589 3.016 4.153a2 2 0 01.382 1.175V45h1.5a2.5 2.5 0 002.5-2.5v-6.277c0-1.266-.4-2.5-1.145-3.524l-3.017-4.152z"/>
      </g>
    </svg>
  </defs>
  <g id="EDM_down" stroke="none" stroke-width="1" fill="none" fill-rule="evenodd">
    <path fill="#FFF" d="M0 0h1586v237H0z"/>
    <g transform="translate(2 1)">
      <path d="M0 177l53-.5V208c0 12.15-9.85 22-22 22H1l-1-53z" fill="#F2F2F2" transform="matrix(-1 0 0 1 53 0)"/>
      <path d="M1529.5 199.978l24.423-20.224H1582V208.5c0 12.15-9.85 22-22 22h-30l-.5-30.522z" fill="#F2F2F2"/>
      <path d="M0 6l32.5-.5V57c0 12.15-9.85 22-22 22H0V6z" fill="#F2F2F2" transform="rotate(180 16.25 42.25)"/>
      <path d="M1550 5h32.5v48c0 12.15-9.85 22-22 22H1550V5z" fill="#F2F2F2" transform="matrix(1 0 0 -1 0 80)"/>
      <path fill="#DCDCDC" transform="rotate(180 95.5 80.662)" d="M94 5.983h3v149.359h-3z"/>
      <path fill="#DCDCDC" d="M1552 178.26h29v2.988h-29zM1528 198.026h3v31h-3z"/>
      <path fill="#DCDCDC" transform="rotate(50 1541.5 189.526)" d="M1540 174.026h3v31h-3z"/>
      <path fill="#DCDCDC" transform="rotate(50 1530.16 138.098)" d="M1528.66 112.598h3v51h-3z"/>
      <path d="M1561 5.702c5.944 0 11.328 2.501 15.224 6.555 3.875 4.031 6.276 9.6 6.276 15.752h0v179.986c0 6.153-2.401 11.721-6.276 15.752-3.896 4.054-9.28 6.555-15.224 6.555h0H21c-5.944 0-11.328-2.501-15.224-6.555-3.875-4.031-6.276-9.6-6.276-15.752h0V28.009c0-6.153 2.401-11.72 6.276-15.752C9.672 8.203 15.056 5.702 21 5.702h0z" stroke="#DFDFDF" stroke-width="3"/>
      <g transform="translate(1204)">
        <path d="M36 40V6H2c0 18.778 15.222 34 34 34z" stroke="#F2F2F2" stroke-width="2"/>
        <path fill="#DCDCDC" d="M1 0h3v9H1zM34 0h3v9h-3z"/>
        <path fill="#DCDCDC" d="M0 4h38v3H0z"/>
        <g transform="rotate(-90 9 -1)">
          <path fill="#C2D6D6" d="M2 0h3v18.857H2z"/>
          <path fill="#9FC1B7" d="M0 0h3v18.857H0z"/>
        </g>
      </g>
      <g transform="translate(1204 196)">
        <g transform="matrix(1 0 0 -1 0 40)">
          <path d="M36 40V6H2c0 18.778 15.222 34 34 34z" stroke="#F2F2F2" stroke-width="2"/>
          <path fill="#DCDCDC" d="M1 0h3v9H1zM34 0h3v9h-3z"/>
          <path fill="#DCDCDC" d="M0 4h38v3H0z"/>
          <g transform="rotate(-90 9 -1)">
            <path fill="#C2D6D6" d="M2 0h3v18.857H2z"/>
            <path fill="#9FC1B7" d="M0 0h3v18.857H0z"/>
          </g>
        </g>
      </g>
      <g transform="translate(119 2.1)">
        <g transform="rotate(-90 2.98 2.109)">
          <path fill="#C2D6D6" d="M2 0h3v64.503H2z"/>
          <path fill="#9FC1B7" d="M0 0h3v64.503H0z"/>
        </g>
        <g transform="matrix(0 1 1 0 .868 226.716)">
          <path fill="#C2D6D6" d="M2 0h3v64.503H2z"/>
          <path fill="#9FC1B7" d="M0 0h3v64.503H0z"/>
        </g>
        <g transform="matrix(0 1 1 0 120.018 226.716)">
          <path fill="#C2D6D6" d="M2 0h3v64.503H2z"/>
          <path fill="#9FC1B7" d="M0 0h3v64.503H0z"/>
        </g>
        <g transform="matrix(0 1 1 0 235.998 226.716)">
          <path fill="#C2D6D6" d="M2 0h3v64.503H2z"/>
          <path fill="#9FC1B7" d="M0 0h3v64.503H0z"/>
        </g>
        <g transform="matrix(0 1 1 0 341.998 226.716)">
          <path fill="#C2D6D6" d="M2 0h3v64.503H2z"/>
          <path fill="#9FC1B7" d="M0 0h3v64.503H0z"/>
        </g>
        <g transform="matrix(0 1 1 0 451.998 226.716)">
          <path fill="#C2D6D6" d="M2 0h3v64.503H2z"/>
          <path fill="#9FC1B7" d="M0 0h3v64.503H0z"/>
        </g>
        <g transform="rotate(-90 118.544 -113.455)">
          <path fill="#C2D6D6" d="M2 0h3v64.503H2z"/>
          <path fill="#9FC1B7" d="M0 0h3v64.503H0z"/>
        </g>
        <g transform="rotate(-90 173.544 -168.455)">
          <path fill="#C2D6D6" d="M2 0h3v64.503H2z"/>
          <path fill="#9FC1B7" d="M0 0h3v64.503H0z"/>
        </g>
        <g transform="rotate(-90 228.544 -223.455)">
          <path fill="#C2D6D6" d="M2 0h3v64.503H2z"/>
          <path fill="#9FC1B7" d="M0 0h3v64.503H0z"/>
        </g>
        <g transform="rotate(-90 283.544 -278.455)">
          <path fill="#C2D6D6" d="M2 0h3v64.503H2z"/>
          <path fill="#9FC1B7" d="M0 0h3v64.503H0z"/>
        </g>
        <g transform="rotate(-90 338.544 -333.455)">
          <path fill="#C2D6D6" d="M2 0h3v64.503H2z"/>
          <path fill="#9FC1B7" d="M0 0h3v64.503H0z"/>
        </g>
        <g transform="rotate(-90 393.544 -388.455)">
          <path fill="#C2D6D6" d="M2 0h3v64.503H2z"/>
          <path fill="#9FC1B7" d="M0 0h3v64.503H0z"/>
        </g>
        <g transform="rotate(-90 448.544 -443.455)">
          <path fill="#C2D6D6" d="M2 0h3v64.503H2z"/>
          <path fill="#9FC1B7" d="M0 0h3v64.503H0z"/>
        </g>
        <g transform="rotate(-90 503.044 -497.955)">
          <path fill="#C2D6D6" d="M2 0h3v64.503H2z"/>
          <path fill="#9FC1B7" d="M0 0h3v64.503H0z"/>
        </g>
        <g transform="rotate(-90 638.544 -633.455)">
          <path fill="#C2D6D6" d="M2 0h3v64.503H2z"/>
          <path fill="#9FC1B7" d="M0 0h3v64.503H0z"/>
        </g>
        <g transform="rotate(-90 686.55 -681.449)">
          <path fill="#C2D6D6" d="M2 0h3v54H2z"/>
          <path fill="#9FC1B7" d="M0 0h3v54H0z"/>
        </g>
        <g transform="matrix(0 1 1 0 671.998 226.716)">
          <path fill="#C2D6D6" d="M2 0h3v64.503H2z"/>
          <path fill="#9FC1B7" d="M0 0h3v64.503H0z"/>
        </g>
        <g transform="matrix(0 1 1 0 562 226.716)">
          <path fill="#C2D6D6" d="M2 0h3v64.503H2z"/>
          <path fill="#9FC1B7" d="M0 0h3v64.503H0z"/>
        </g>
        <g transform="matrix(0 1 1 0 781.998 226.716)">
          <path fill="#C2D6D6" d="M2 0h3v64.503H2z"/>
          <path fill="#9FC1B7" d="M0 0h3v64.503H0z"/>
        </g>
        <g transform="matrix(0 1 1 0 891.998 226.716)">
          <path fill="#C2D6D6" d="M2 0h3v64.503H2z"/>
          <path fill="#9FC1B7" d="M0 0h3v64.503H0z"/>
        </g>
        <g transform="matrix(0 1 1 0 1000.998 226.716)">
          <path fill="#C2D6D6" d="M2 0h3v64.503H2z"/>
          <path fill="#9FC1B7" d="M0 0h3v64.503H0z"/>
        </g>
        <g transform="matrix(0 1 1 0 1161.998 226.716)">
          <path fill="#C2D6D6" d="M2 0h3v64.503H2z"/>
          <path fill="#9FC1B7" d="M0 0h3v64.503H0z"/>
        </g>
        <g transform="matrix(0 1 1 0 1271.998 226.716)">
          <path fill="#C2D6D6" d="M2 0h3v64.503H2z"/>
          <path fill="#9FC1B7" d="M0 0h3v64.503H0z"/>
        </g>
      </g>
      <path fill="#DCDCDC" d="M1 175h50v3H1zM51 175h3v55h-3z"/>
      <path fill="#DCDCDC" transform="rotate(90 1549.5 65)" d="M1491.5 63.5h116v3h-116z"/>
      <path fill="#DCDCDC" transform="rotate(180 32.5 57.5)" d="M31 7h3v101h-3z"/>
      <path fill="#DCDCDC" d="M1 77h30v3H1zM1551 74h30v3h-30z"/>
      <path stroke="#DCDCDC" stroke-width="3" d="M31 106l64 25"/>
      <path fill="#DCDCDC" transform="rotate(180 150.5 154.5)" d="M97 153h107v3H97z"/>
      <path fill="#DCDCDC" transform="rotate(180 330.5 81.5)" d="M329 7h3v149h-3z"/>
      <path fill="#DCDCDC" transform="rotate(180 347.5 162.5)" d="M346 155h3v15h-3z"/>
      <path fill="#DCDCDC" transform="rotate(180 347.5 221.5)" d="M346 214h3v15h-3z"/>
      <path fill="#DCDCDC" transform="rotate(180 440.5 81.5)" d="M439 7h3v149h-3z"/>
      <path fill="#DCDCDC" transform="rotate(180 550.5 81.5)" d="M549 7h3v149h-3z"/>
      <path fill="#DCDCDC" transform="rotate(180 660.5 81.5)" d="M659 7h3v149h-3z"/>
      <path fill="#DCDCDC" transform="rotate(180 770.5 81.5)" d="M769 7h3v149h-3z"/>
      <path fill="#DCDCDC" transform="rotate(180 880.5 81.5)" d="M879 7h3v149h-3z"/>
      <path fill="#DCDCDC" transform="rotate(180 990.5 81.5)" d="M989 7h3v149h-3z"/>
      <path fill="#DCDCDC" transform="rotate(180 1092.5 81.5)" d="M1091 7h3v149h-3z"/>
      <path fill="#DCDCDC" transform="rotate(180 1367.5 81.5)" d="M1366 7h3v149h-3z"/>
      <path fill="#DCDCDC" transform="rotate(180 1471.5 81.5)" d="M1470 7h3v149h-3z"/>
      <path fill="#DCDCDC" transform="rotate(180 205.5 81.5)" d="M204 7h3v149h-3z"/>
      <path fill="#DCDCDC" transform="rotate(180 385.5 154.5)" d="M332 153h107v3H332z"/>
      <path fill="#DCDCDC" transform="rotate(180 313.5 154.5)" d="M298 153h31v3h-31z"/>
      <path fill="#DCDCDC" transform="rotate(180 495.5 154.5)" d="M442 153h107v3H442z"/>
      <path fill="#DCDCDC" transform="rotate(180 605.5 154.5)" d="M552 153h107v3H552z"/>
      <path fill="#DCDCDC" transform="rotate(180 715.5 154.5)" d="M662 153h107v3H662z"/>
      <path fill="#DCDCDC" transform="rotate(180 825.5 154.5)" d="M772 153h107v3H772z"/>
      <path fill="#DCDCDC" transform="rotate(180 1422.5 154.5)" d="M1369 153h107v3h-107z"/>
      <path fill="#DCDCDC" transform="rotate(180 935.5 154.5)" d="M882 153h107v3H882z"/>
      <path fill="#DCDCDC" transform="rotate(180 1043 154.5)" d="M992 153h102v3H992z"/>
      <path fill="#DCDCDC" transform="rotate(180 260.5 72.5)" d="M259 7h3v131h-3z"/>
      <path stroke="#DCDCDC" stroke-width="3" stroke-linecap="square" d="M1095 154l102-17"/>
      <path stroke="#DCDCDC" stroke-width="3" d="M299 155l-39-18"/>
      <path fill="#DCDCDC" transform="rotate(180 1491.5 154.5)" d="M1471 153h41v3h-41z"/>
      <path fill="#DCDCDC" d="M1311 7h3v135h-3zM1286 140h3v22h-3z"/>
      <path fill="#DCDCDC" transform="rotate(-90 1300 140.5)" d="M1298.5 127h3v27h-3z"/>
      <path fill="#DCDCDC" d="M1286 207h3v23h-3zM1247 7h3v122h-3z"/>
      <path fill="#DCDCDC" transform="rotate(107 1268.248 133.924)" d="M1266.748 111.924h3v44h-3z"/>
      <path fill="#DCDCDC" d="M1197 7h3v131h-3z"/>
      <g id="Steps" transform="translate(311 169)">
        <path stroke="#DCDCDC" stroke-width="3" d="M1.5 44.5v-43h35v43z"/>
        <path stroke="#DCDCDC" stroke-width="2" stroke-linecap="square" d="M19 44V1M10 45V2M28 45V2"/>
        <path d="M36.5 13.293l9.192 9.192-9.192 9.193-2.828-2.829L38.02 24.5H11.5v-4h26.55l-4.378-4.379 2.828-2.828z" stroke="#FFF" fill="#DCDCDC" transform="matrix(-1 0 0 1 56.985 0)"/>
      </g>
      <g id="Steps" transform="matrix(-1 0 0 1 1324 162)">
        <path stroke="#DCDCDC" stroke-width="3" d="M1.5 44.5v-43h35v43z"/>
        <path stroke="#DCDCDC" stroke-width="2" stroke-linecap="square" d="M19 44V1M10 45V2M28 45V2"/>
        <path d="M36.5 13.293l9.192 9.192-9.192 9.193-2.828-2.829L38.02 24.5H11.5v-4h26.55l-4.378-4.379 2.828-2.828z" stroke="#FFF" fill="#DCDCDC" transform="matrix(-1 0 0 1 56.985 0)"/>
      </g>
      <g id="Stairs" transform="rotate(-90 170.791 -34.298)">
        <path stroke="#DCDCDC" stroke-width="2" stroke-linecap="square" d="M13 55.78v-55M27 55.78v-55M41 55.78v-55M55 55.78v-55M68 55.78v-55M81 55.78v-55"/>
        <path d="M24.5 18.71l9.192 9.192-9.192 9.193-2.828-2.829 4.349-4.349H-.5v-4h26.55l-4.378-4.379L24.5 18.71z" stroke="#FFF" fill="#DCDCDC"/>
      </g>
      <g id="Stairs" transform="rotate(-90 725.247 -586.753)">
        <path stroke="#DCDCDC" stroke-width="2" stroke-linecap="square" d="M13 55.78v-55M27 55.78v-55M41 55.78v-55M55 55.78v-55M68 55.78v-55M81 55.78v-55"/>
        <path d="M24.5 18.71l9.192 9.192-9.192 9.193-2.828-2.829 4.349-4.349H-.5v-4h26.55l-4.378-4.379L24.5 18.71z" stroke="#FFF" fill="#DCDCDC"/>
      </g>
    </g>
    <g id="Cabins" transform="translate(99 8)">
      <g id="cabin_101-102">
        <path id="cabin_hilight_101-102" fill="#D5EEFA" d="M0 0h107v146H0z"/>
        <path d="M82.692 4h16.616A3.692 3.692 0 01103 7.692v16.616A3.692 3.692 0 0199.308 28H82.692A3.692 3.692 0 0179 24.308V7.692A3.692 3.692 0 0182.692 4z" fill="#E2D2BA"/>
        <g id="bed_101" transform="translate(5 84)">
          <path id="highlight_101" fill="#FFF" d="M0 0h39v39H0z"/>
          <path d="M2 0v35h1v-1a4 4 0 014-4h25a4 4 0 014 4v1h1V0h2v45h-2v-6H2v6H0V0h2zm30 31H7a3 3 0 00-3 3v1h31v-1a3 3 0 00-3-3z" fill="#1B50AF" fill-rule="nonzero"/>
          <path d="M11.877 24v-7.588H9.693v-1.316c1.47-.042 2.156-.14 2.646-1.246h1.47V24h-1.932zm3.542-5.096c0-3.08 1.372-5.236 4.088-5.236 2.702 0 4.074 2.156 4.074 5.236 0 3.094-1.372 5.278-4.074 5.278-2.716 0-4.088-2.184-4.088-5.278zm6.188 0c0-2.422-.728-3.78-2.1-3.78s-2.114 1.358-2.114 3.78c0 2.436.742 3.822 2.114 3.822 1.372 0 2.1-1.386 2.1-3.822zM26.325 24v-7.588h-2.184v-1.316c1.47-.042 2.156-.14 2.646-1.246h1.47V24h-1.932z" id="bednumber_101" fill="#1B50AF"/>
        </g>
        <g id="bed_102" transform="translate(5 39)">
          <path id="highlight_102" fill="#FFF" d="M0 2h39v37H0z"/>
          <path d="M2 0v2l35-.001V0h2v45h-2v-6H2v6H0V0h2zm35 3.999L2 4v31h1v-1a4 4 0 014-4h25a4 4 0 014 4v1h1V3.999zM32 31H7a3 3 0 00-3 3v1h31v-1a3 3 0 00-3-3z" fill="#1B50AF" fill-rule="nonzero"/>
          <path d="M10.407 24v-7.588H8.223v-1.316c1.47-.042 2.156-.14 2.646-1.246h1.47V24h-1.932zm3.542-5.096c0-3.08 1.372-5.236 4.088-5.236 2.702 0 4.074 2.156 4.074 5.236 0 3.094-1.372 5.278-4.074 5.278-2.716 0-4.088-2.184-4.088-5.278zm6.188 0c0-2.422-.728-3.78-2.1-3.78s-2.114 1.358-2.114 3.78c0 2.436.742 3.822 2.114 3.822 1.372 0 2.1-1.386 2.1-3.822zm10.08-2.506c0 1.904-1.848 3.892-4.97 5.978h5.208V24h-7.462v-1.568c3.262-2.632 5.278-4.326 5.278-5.936 0-.882-.56-1.4-1.498-1.4-.854 0-1.722.518-1.722 2.03h-1.876c-.028-2.1 1.456-3.458 3.71-3.458 2.03 0 3.332.966 3.332 2.73z" id="bednumber_102" fill="#1B50AF"/>
        </g>
      </g>
      <g id="cabin_103-104" transform="translate(235)">
        <path id="cabin_hilight_103-104" fill="#D5EEFA" d="M0 0h107v146H0z"/>
        <path d="M82.692 4h16.616A3.692 3.692 0 01103 7.692v16.616A3.692 3.692 0 0199.308 28H82.692A3.692 3.692 0 0179 24.308V7.692A3.692 3.692 0 0182.692 4z" fill="#E2D2BA"/>
        <g id="bed_103" transform="translate(5 84)">
          <path id="highlight_103" fill="#FFF" d="M0 0h39v39H0z"/>
          <path d="M2 0v35h1v-1a4 4 0 014-4h25a4 4 0 014 4v1h1V0h2v45h-2v-6H2v6H0V0h2zm30 31H7a3 3 0 00-3 3v1h31v-1a3 3 0 00-3-3z" fill="#1B50AF" fill-rule="nonzero"/>
          <path d="M10.162 24v-7.588H7.978v-1.316c1.47-.042 2.156-.14 2.646-1.246h1.47V24h-1.932zm3.542-5.096c0-3.08 1.372-5.236 4.088-5.236 2.702 0 4.074 2.156 4.074 5.236 0 3.094-1.372 5.278-4.074 5.278-2.716 0-4.088-2.184-4.088-5.278zm6.188 0c0-2.422-.728-3.78-2.1-3.78s-2.114 1.358-2.114 3.78c0 2.436.742 3.822 2.114 3.822 1.372 0 2.1-1.386 2.1-3.822zm8.624 2.24c0-1.19-1.106-1.666-2.548-1.666h-.406v-1.512h.336c1.456 0 2.366-.532 2.366-1.484 0-.882-.77-1.358-1.61-1.358-1.162 0-1.904.742-2.002 1.792h-1.834c.224-2.016 1.624-3.248 3.948-3.248 1.694 0 3.444.812 3.444 2.73 0 .98-.602 1.806-1.372 2.226a2.656 2.656 0 011.638 2.464c0 2.058-1.778 3.094-3.92 3.094-2.324 0-3.696-1.512-3.822-3.374h1.82c.14 1.022.798 1.918 2.058 1.918 1.05 0 1.904-.63 1.904-1.582z" id="bednumber_103" fill="#1B50AF"/>
        </g>
        <g id="bed_104" transform="translate(5 39)">
          <path id="highlight_104" fill="#FFF" d="M0 2h39v37H0z"/>
          <path d="M2 0v2l35-.001V0h2v45h-2v-6H2v6H0V0h2zm35 3.999L2 4v31h1v-1a4 4 0 014-4h25a4 4 0 014 4v1h1V3.999zM32 31H7a3 3 0 00-3 3v1h31v-1a3 3 0 00-3-3z" fill="#1B50AF" fill-rule="nonzero"/>
          <path d="M10.022 24v-7.588H7.838v-1.316c1.47-.042 2.156-.14 2.646-1.246h1.47V24h-1.932zm3.542-5.096c0-3.08 1.372-5.236 4.088-5.236 2.702 0 4.074 2.156 4.074 5.236 0 3.094-1.372 5.278-4.074 5.278-2.716 0-4.088-2.184-4.088-5.278zm6.188 0c0-2.422-.728-3.78-2.1-3.78s-2.114 1.358-2.114 3.78c0 2.436.742 3.822 2.114 3.822 1.372 0 2.1-1.386 2.1-3.822zm11.312 2.66h-1.736V24H27.41v-2.436h-5.012v-1.512l5.04-6.202h1.89v6.076h1.736v1.638zm-6.552-1.638h2.898V16.3l-2.898 3.626z" id="bednumber_104" fill="#1B50AF"/>
        </g>
      </g>
      <g id="cabin_105-106" transform="translate(345)">
        <path id="cabin_hilight_105-106" fill="#D5EEFA" d="M0 0h107v146H0z"/>
        <path d="M8.692 4h16.616A3.692 3.692 0 0129 7.692v16.616A3.692 3.692 0 0125.308 28H8.692A3.692 3.692 0 015 24.308V7.692A3.692 3.692 0 018.692 4z" fill="#E2D2BA"/>
        <g id="bed_105" transform="translate(65 84)">
          <path id="highlight_105" fill="#FFF" d="M0 0h39v39H0z"/>
          <path d="M2 0v35h1v-1a4 4 0 014-4h25a4 4 0 014 4v1h1V0h2v45h-2v-6H2v6H0V0h2zm30 31H7a3 3 0 00-3 3v1h31v-1a3 3 0 00-3-3z" fill="#1B50AF" fill-rule="nonzero"/>
          <path d="M10.099 24v-7.588H7.915v-1.316c1.47-.042 2.156-.14 2.646-1.246h1.47V24h-1.932zm3.542-5.096c0-3.08 1.372-5.236 4.088-5.236 2.702 0 4.074 2.156 4.074 5.236 0 3.094-1.372 5.278-4.074 5.278-2.716 0-4.088-2.184-4.088-5.278zm6.188 0c0-2.422-.728-3.78-2.1-3.78s-2.114 1.358-2.114 3.78c0 2.436.742 3.822 2.114 3.822 1.372 0 2.1-1.386 2.1-3.822zm8.736 1.764c0-1.386-.938-2.072-1.876-2.072-.896 0-1.54.448-1.736.924l-1.764-.084.672-5.586h6.258v1.624h-4.676l-.28 2.17c.42-.308 1.078-.56 2.016-.56 1.736 0 3.346 1.232 3.346 3.57 0 2.24-1.736 3.528-3.822 3.528-2.38 0-3.64-1.624-3.752-3.374h1.82c.112 1.05.714 1.918 1.96 1.918 1.064 0 1.834-.77 1.834-2.058z" id="bednumber_105" fill="#1B50AF"/>
        </g>
        <g id="bed_106" transform="translate(65 39)">
          <path id="highlight_106" fill="#FFF" d="M0 2h39v37H0z"/>
          <path d="M2 0v2l35-.001V0h2v45h-2v-6H2v6H0V0h2zm35 3.999L2 4v31h1v-1a4 4 0 014-4h25a4 4 0 014 4v1h1V3.999zM32 31H7a3 3 0 00-3 3v1h31v-1a3 3 0 00-3-3z" fill="#1B50AF" fill-rule="nonzero"/>
          <path d="M10.064 24v-7.588H7.88v-1.316c1.47-.042 2.156-.14 2.646-1.246h1.47V24h-1.932zm3.542-5.096c0-3.08 1.372-5.236 4.088-5.236 2.702 0 4.074 2.156 4.074 5.236 0 3.094-1.372 5.278-4.074 5.278-2.716 0-4.088-2.184-4.088-5.278zm6.188 0c0-2.422-.728-3.78-2.1-3.78s-2.114 1.358-2.114 3.78c0 2.436.742 3.822 2.114 3.822 1.372 0 2.1-1.386 2.1-3.822zm5.026-.672c.434-.546 1.246-.966 2.31-.966 1.876 0 3.444 1.274 3.444 3.472 0 2.086-1.582 3.444-3.78 3.444-2.716 0-3.906-2.184-3.906-5.026 0-2.912 1.078-5.488 4.116-5.488 2.212 0 3.248 1.498 3.36 2.8h-1.89c-.098-.84-.77-1.33-1.596-1.33-1.274 0-2.058 1.204-2.058 3.094zm1.974 4.494c1.05 0 1.82-.784 1.82-2.016 0-1.19-.77-1.974-1.82-1.974-1.064 0-1.862.784-1.862 1.974 0 1.218.798 2.016 1.862 2.016z" id="bednumber_106" fill="#1B50AF"/>
        </g>
      </g>
      <g id="cabin_107-108" transform="translate(455)">
        <path id="cabin_hilight_107-108" fill="#D5EEFA" d="M0 0h107v146H0z"/>
        <path d="M82.692 4h16.616A3.692 3.692 0 01103 7.692v16.616A3.692 3.692 0 0199.308 28H82.692A3.692 3.692 0 0179 24.308V7.692A3.692 3.692 0 0182.692 4z" fill="#E2D2BA"/>
        <g id="bed_107" transform="translate(5 84)">
          <path id="highlight_107" fill="#FFF" d="M0 0h39v39H0z"/>
          <path d="M2 0v35h1v-1a4 4 0 014-4h25a4 4 0 014 4v1h1V0h2v45h-2v-6H2v6H0V0h2zm30 31H7a3 3 0 00-3 3v1h31v-1a3 3 0 00-3-3z" fill="#1B50AF" fill-rule="nonzero"/>
          <path d="M10.89 24v-7.588H8.706v-1.316c1.47-.042 2.156-.14 2.646-1.246h1.47V24H10.89zm3.542-5.096c0-3.08 1.372-5.236 4.088-5.236 2.702 0 4.074 2.156 4.074 5.236 0 3.094-1.372 5.278-4.074 5.278-2.716 0-4.088-2.184-4.088-5.278zm6.188 0c0-2.422-.728-3.78-2.1-3.78s-2.114 1.358-2.114 3.78c0 2.436.742 3.822 2.114 3.822 1.372 0 2.1-1.386 2.1-3.822zm2.492-5.054h7.462v1.624c-2.646 2.702-3.934 4.872-4.13 8.526h-2.128c.168-3.528 2.044-6.384 4.312-8.526h-5.516V13.85z" id="bednumber_107" fill="#1B50AF"/>
        </g>
        <g id="bed_108" transform="translate(5 39)">
          <path id="highlight_108" fill="#FFF" d="M0 2h39v37H0z"/>
          <path d="M2 0v2l35-.001V0h2v45h-2v-6H2v6H0V0h2zm35 3.999L2 4v31h1v-1a4 4 0 014-4h25a4 4 0 014 4v1h1V3.999zM32 31H7a3 3 0 00-3 3v1h31v-1a3 3 0 00-3-3z" fill="#1B50AF" fill-rule="nonzero"/>
          <path d="M9.973 24v-7.588H7.789v-1.316c1.47-.042 2.156-.14 2.646-1.246h1.47V24H9.973zm3.542-5.096c0-3.08 1.372-5.236 4.088-5.236 2.702 0 4.074 2.156 4.074 5.236 0 3.094-1.372 5.278-4.074 5.278-2.716 0-4.088-2.184-4.088-5.278zm6.188 0c0-2.422-.728-3.78-2.1-3.78s-2.114 1.358-2.114 3.78c0 2.436.742 3.822 2.114 3.822 1.372 0 2.1-1.386 2.1-3.822zm10.556-2.632c0 .91-.364 1.764-1.232 2.296 1.134.644 1.54 1.554 1.54 2.534 0 1.988-1.694 3.08-3.85 3.08-2.142 0-3.836-1.092-3.836-3.08 0-.98.42-1.904 1.554-2.534-.84-.476-1.246-1.386-1.246-2.282 0-1.512 1.386-2.618 3.528-2.618 2.156 0 3.542 1.106 3.542 2.604zm-3.542-1.148c-1.008 0-1.652.546-1.652 1.386 0 .84.644 1.456 1.652 1.456s1.666-.616 1.666-1.456-.658-1.386-1.666-1.386zm-1.862 5.894c0 1.008.728 1.708 1.862 1.708 1.148 0 1.876-.7 1.876-1.708s-.728-1.666-1.876-1.666c-1.134 0-1.862.658-1.862 1.666z" id="bednumber_108" fill="#1B50AF"/>
        </g>
      </g>
      <g id="cabin_109-110" transform="translate(565)">
        <path id="cabin_hilight_109-110" fill="#D5EEFA" d="M0 0h107v146H0z"/>
        <path d="M7.692 4h16.616A3.692 3.692 0 0128 7.692v16.616A3.692 3.692 0 0124.308 28H7.692A3.692 3.692 0 014 24.308V7.692A3.692 3.692 0 017.692 4z" fill="#E2D2BA"/>
        <g id="bed_109" transform="translate(65 84)">
          <path id="highlight_109" fill="#FFF" d="M0 0h39v39H0z"/>
          <path d="M2 0v35h1v-1a4 4 0 014-4h25a4 4 0 014 4v1h1V0h2v45h-2v-6H2v6H0V0h2zm30 31H7a3 3 0 00-3 3v1h31v-1a3 3 0 00-3-3z" fill="#1B50AF" fill-rule="nonzero"/>
          <path d="M10.106 24v-7.588H7.922v-1.316c1.47-.042 2.156-.14 2.646-1.246h1.47V24h-1.932zm3.542-5.096c0-3.08 1.372-5.236 4.088-5.236 2.702 0 4.074 2.156 4.074 5.236 0 3.094-1.372 5.278-4.074 5.278-2.716 0-4.088-2.184-4.088-5.278zm6.188 0c0-2.422-.728-3.78-2.1-3.78s-2.114 1.358-2.114 3.78c0 2.436.742 3.822 2.114 3.822 1.372 0 2.1-1.386 2.1-3.822zm8.75.714c-.434.546-1.246.966-2.324.966-1.862 0-3.43-1.288-3.43-3.472 0-2.086 1.582-3.444 3.78-3.444 2.716 0 3.906 2.184 3.906 5.026 0 2.912-1.092 5.488-4.116 5.488-2.212 0-3.248-1.512-3.36-2.8h1.89c.098.84.756 1.316 1.596 1.316 1.274 0 2.058-1.204 2.058-3.08zm-1.974-4.48c-1.05 0-1.82.77-1.82 1.988 0 1.19.77 1.974 1.82 1.974s1.848-.784 1.848-1.974c0-1.204-.798-1.988-1.848-1.988z" id="bednumber_109" fill="#1B50AF"/>
        </g>
        <g id="bed_110" transform="translate(65 39)">
          <path id="highlight_110" fill="#FFF" d="M0 2h39v37H0z"/>
          <path d="M2 0v2l35-.001V0h2v45h-2v-6H2v6H0V0h2zm35 3.999L2 4v31h1v-1a4 4 0 014-4h25a4 4 0 014 4v1h1V3.999zM32 31H7a3 3 0 00-3 3v1h31v-1a3 3 0 00-3-3z" fill="#1B50AF" fill-rule="nonzero"/>
          <path d="M11.877 24v-7.588H9.693v-1.316c1.47-.042 2.156-.14 2.646-1.246h1.47V24h-1.932zm5.166 0v-7.588h-2.184v-1.316c1.47-.042 2.156-.14 2.646-1.246h1.47V24h-1.932zm3.542-5.096c0-3.08 1.372-5.236 4.088-5.236 2.702 0 4.074 2.156 4.074 5.236 0 3.094-1.372 5.278-4.074 5.278-2.716 0-4.088-2.184-4.088-5.278zm6.188 0c0-2.422-.728-3.78-2.1-3.78s-2.114 1.358-2.114 3.78c0 2.436.742 3.822 2.114 3.822 1.372 0 2.1-1.386 2.1-3.822z" id="bednumber_110" fill="#1B50AF"/>
        </g>
      </g>
      <g id="cabin_111-112" transform="translate(675)">
        <path id="cabin_hilight_111-112" fill="#D5EEFA" d="M0 0h107v146H0z"/>
        <path d="M82.692 4h16.616A3.692 3.692 0 01103 7.692v16.616A3.692 3.692 0 0199.308 28H82.692A3.692 3.692 0 0179 24.308V7.692A3.692 3.692 0 0182.692 4z" fill="#E2D2BA"/>
        <g id="bed_111" transform="translate(5 84)">
          <path id="highlight_111" fill="#FFF" d="M0 0h39v39H0z"/>
          <path d="M2 0v35h1v-1a4 4 0 014-4h25a4 4 0 014 4v1h1V0h2v45h-2v-6H2v6H0V0h2zm30 31H7a3 3 0 00-3 3v1h31v-1a3 3 0 00-3-3z" fill="#1B50AF" fill-rule="nonzero"/>
          <path d="M13.935 24v-7.588h-2.184v-1.316c1.47-.042 2.156-.14 2.646-1.246h1.47V24h-1.932zm5.166 0v-7.588h-2.184v-1.316c1.47-.042 2.156-.14 2.646-1.246h1.47V24h-1.932zm5.166 0v-7.588h-2.184v-1.316c1.47-.042 2.156-.14 2.646-1.246h1.47V24h-1.932z" id="bednumber_111" fill="#1B50AF"/>
        </g>
        <g id="bed_112" transform="translate(5 39)">
          <path id="highlight_112" fill="#FFF" d="M0 2h39v37H0z"/>
          <path d="M2 0v2l35-.001V0h2v45h-2v-6H2v6H0V0h2zm35 3.999L2 4v31h1v-1a4 4 0 014-4h25a4 4 0 014 4v1h1V3.999zM32 31H7a3 3 0 00-3 3v1h31v-1a3 3 0 00-3-3z" fill="#1B50AF" fill-rule="nonzero"/>
          <path d="M12.465 24v-7.588h-2.184v-1.316c1.47-.042 2.156-.14 2.646-1.246h1.47V24h-1.932zm5.166 0v-7.588h-2.184v-1.316c1.47-.042 2.156-.14 2.646-1.246h1.47V24h-1.932zm10.528-7.602c0 1.904-1.848 3.892-4.97 5.978h5.208V24h-7.462v-1.568c3.262-2.632 5.278-4.326 5.278-5.936 0-.882-.56-1.4-1.498-1.4-.854 0-1.722.518-1.722 2.03h-1.876c-.028-2.1 1.456-3.458 3.71-3.458 2.03 0 3.332.966 3.332 2.73z" id="bednumber_112" fill="#1B50AF" fill-rule="nonzero"/>
        </g>
      </g>
      <g id="cabin_113-114" transform="translate(785)">
        <path id="cabin_hilight_113-114" fill="#D5EEFA" d="M0 0h107v146H0z"/>
        <path d="M7.692 4h16.616A3.692 3.692 0 0128 7.692v16.616A3.692 3.692 0 0124.308 28H7.692A3.692 3.692 0 014 24.308V7.692A3.692 3.692 0 017.692 4z" fill="#E2D2BA"/>
        <g id="bed_113" transform="translate(65 84)">
          <path id="highlight_113" fill="#FFF" d="M0 0h39v39H0z"/>
          <path d="M2 0v35h1v-1a4 4 0 014-4h25a4 4 0 014 4v1h1V0h2v45h-2v-6H2v6H0V0h2zm30 31H7a3 3 0 00-3 3v1h31v-1a3 3 0 00-3-3z" fill="#1B50AF" fill-rule="nonzero"/>
          <path d="M12.22 24v-7.588h-2.184v-1.316c1.47-.042 2.156-.14 2.646-1.246h1.47V24H12.22zm5.166 0v-7.588h-2.184v-1.316c1.47-.042 2.156-.14 2.646-1.246h1.47V24h-1.932zm9.072-2.856c0-1.19-1.106-1.666-2.548-1.666h-.406v-1.512h.336c1.456 0 2.366-.532 2.366-1.484 0-.882-.77-1.358-1.61-1.358-1.162 0-1.904.742-2.002 1.792H20.76c.224-2.016 1.624-3.248 3.948-3.248 1.694 0 3.444.812 3.444 2.73 0 .98-.602 1.806-1.372 2.226a2.656 2.656 0 011.638 2.464c0 2.058-1.778 3.094-3.92 3.094-2.324 0-3.696-1.512-3.822-3.374h1.82c.14 1.022.798 1.918 2.058 1.918 1.05 0 1.904-.63 1.904-1.582z" id="bednumber_113" fill="#1B50AF"/>
        </g>
        <g id="bed_114" transform="translate(65 39)">
          <path id="highlight_114" fill="#FFF" d="M0 2h39v37H0z"/>
          <path d="M2 0v2l35-.001V0h2v45h-2v-6H2v6H0V0h2zm35 3.999L2 4v31h1v-1a4 4 0 014-4h25a4 4 0 014 4v1h1V3.999zM32 31H7a3 3 0 00-3 3v1h31v-1a3 3 0 00-3-3z" fill="#1B50AF" fill-rule="nonzero"/>
          <path d="M12.08 24v-7.588H9.896v-1.316c1.47-.042 2.156-.14 2.646-1.246h1.47V24H12.08zm5.166 0v-7.588h-2.184v-1.316c1.47-.042 2.156-.14 2.646-1.246h1.47V24h-1.932zm11.76-2.436H27.27V24h-1.918v-2.436H20.34v-1.512l5.04-6.202h1.89v6.076h1.736v1.638zm-6.552-1.638h2.898V16.3l-2.898 3.626z" id="bednumber_114" fill="#1B50AF"/>
        </g>
      </g>
      <g id="cabin_115-116" transform="translate(895)">
        <path id="cabin_hilight_115-116" fill="#D5EEFA" d="M0 0h99v146H0z"/>
        <path d="M74.692 4h16.616A3.692 3.692 0 0195 7.692v16.616A3.692 3.692 0 0191.308 28H74.692A3.692 3.692 0 0171 24.308V7.692A3.692 3.692 0 0174.692 4z" fill="#E2D2BA"/>
        <g id="bed_115" transform="translate(5 84)">
          <path id="highlight_115" fill="#FFF" d="M0 2h39v37H0z"/>
          <path d="M2 0v35h1v-1a4 4 0 014-4h25a4 4 0 014 4v1h1V0h2v45h-2v-6H2v6H0V0h2zm30 31H7a3 3 0 00-3 3v1h31v-1a3 3 0 00-3-3z" fill="#1B50AF" fill-rule="nonzero"/>
          <path d="M12.157 24v-7.588H9.973v-1.316c1.47-.042 2.156-.14 2.646-1.246h1.47V24h-1.932zm5.166 0v-7.588h-2.184v-1.316c1.47-.042 2.156-.14 2.646-1.246h1.47V24h-1.932zm9.184-3.332c0-1.386-.938-2.072-1.876-2.072-.896 0-1.54.448-1.736.924l-1.764-.084.672-5.586h6.258v1.624h-4.676l-.28 2.17c.42-.308 1.078-.56 2.016-.56 1.736 0 3.346 1.232 3.346 3.57 0 2.24-1.736 3.528-3.822 3.528-2.38 0-3.64-1.624-3.752-3.374h1.82c.112 1.05.714 1.918 1.96 1.918 1.064 0 1.834-.77 1.834-2.058z" id="bednumber_115" fill="#1B50AF"/>
        </g>
        <g id="bed_116" transform="translate(5 39)">
          <path id="highlight_116" fill="#FFF" d="M0 2h39v37H0z"/>
          <path d="M2 0v2l35-.001V0h2v45h-2v-6H2v6H0V0h2zm35 3.999L2 4v31h1v-1a4 4 0 014-4h25a4 4 0 014 4v1h1V3.999zM32 31H7a3 3 0 00-3 3v1h31v-1a3 3 0 00-3-3z" fill="#1B50AF" fill-rule="nonzero"/>
          <path d="M12.122 24v-7.588H9.938v-1.316c1.47-.042 2.156-.14 2.646-1.246h1.47V24h-1.932zm5.166 0v-7.588h-2.184v-1.316c1.47-.042 2.156-.14 2.646-1.246h1.47V24h-1.932zm5.474-5.768c.434-.546 1.246-.966 2.31-.966 1.876 0 3.444 1.274 3.444 3.472 0 2.086-1.582 3.444-3.78 3.444-2.716 0-3.906-2.184-3.906-5.026 0-2.912 1.078-5.488 4.116-5.488 2.212 0 3.248 1.498 3.36 2.8h-1.89c-.098-.84-.77-1.33-1.596-1.33-1.274 0-2.058 1.204-2.058 3.094zm1.974 4.494c1.05 0 1.82-.784 1.82-2.016 0-1.19-.77-1.974-1.82-1.974-1.064 0-1.862.784-1.862 1.974 0 1.218.798 2.016 1.862 2.016z" id="bednumber_116" fill="#1B50AF"/>
        </g>
      </g>
      <g id="cabin_117-118" transform="translate(997)">
        <path id="cabin_hilight_117-118" fill="#D5EEFA" d="M0 0h103v129L0 146z"/>
        <path d="M78.692 4h16.616A3.692 3.692 0 0199 7.692v16.616A3.692 3.692 0 0195.308 28H78.692A3.692 3.692 0 0175 24.308V7.692A3.692 3.692 0 0178.692 4z" fill="#E2D2BA"/>
        <g id="bed_117" transform="translate(5 76)">
          <path id="highlight_117" fill="#FFF" d="M0 0h39v39H0z"/>
          <path d="M2 0v35h1v-1a4 4 0 014-4h25a4 4 0 014 4v1h1V0h2v45h-2v-6H2v6H0V0h2zm30 31H7a3 3 0 00-3 3v1h31v-1a3 3 0 00-3-3z" fill="#1B50AF" fill-rule="nonzero"/>
          <path d="M12.948 24v-7.588h-2.184v-1.316c1.47-.042 2.156-.14 2.646-1.246h1.47V24h-1.932zm5.166 0v-7.588H15.93v-1.316c1.47-.042 2.156-.14 2.646-1.246h1.47V24h-1.932zm2.94-10.15h7.462v1.624c-2.646 2.702-3.934 4.872-4.13 8.526h-2.128c.168-3.528 2.044-6.384 4.312-8.526h-5.516V13.85z" id="bednumber_117" fill="#1B50AF"/>
        </g>
        <g id="bed_118" transform="translate(5 31)">
          <path id="highlight_118" fill="#FFF" d="M0 2h39v37H0z"/>
          <path d="M2 0v2l35-.001V0h2v45h-2v-6H2v6H0V0h2zm35 3.999L2 4v31h1v-1a4 4 0 014-4h25a4 4 0 014 4v1h1V3.999zM32 31H7a3 3 0 00-3 3v1h31v-1a3 3 0 00-3-3z" fill="#1B50AF" fill-rule="nonzero"/>
          <path d="M12.031 24v-7.588H9.847v-1.316c1.47-.042 2.156-.14 2.646-1.246h1.47V24h-1.932zm5.166 0v-7.588h-2.184v-1.316c1.47-.042 2.156-.14 2.646-1.246h1.47V24h-1.932zm11.004-7.728c0 .91-.364 1.764-1.232 2.296 1.134.644 1.54 1.554 1.54 2.534 0 1.988-1.694 3.08-3.85 3.08-2.142 0-3.836-1.092-3.836-3.08 0-.98.42-1.904 1.554-2.534-.84-.476-1.246-1.386-1.246-2.282 0-1.512 1.386-2.618 3.528-2.618 2.156 0 3.542 1.106 3.542 2.604zm-3.542-1.148c-1.008 0-1.652.546-1.652 1.386 0 .84.644 1.456 1.652 1.456s1.666-.616 1.666-1.456-.658-1.386-1.666-1.386zm-1.862 5.894c0 1.008.728 1.708 1.862 1.708 1.148 0 1.876-.7 1.876-1.708s-.728-1.666-1.876-1.666c-1.134 0-1.862.658-1.862 1.666z" id="bednumber_118" fill="#1B50AF"/>
        </g>
      </g>
      <g id="cabin_119-120" transform="translate(1272)">
        <path id="cabin_hilight_119-120" fill="#D5EEFA" d="M0 0h101v146H0z"/>
        <path d="M7.692 4h16.616A3.692 3.692 0 0128 7.692v16.616A3.692 3.692 0 0124.308 28H7.692A3.692 3.692 0 014 24.308V7.692A3.692 3.692 0 017.692 4z" fill="#E2D2BA"/>
        <g id="bed_119" transform="translate(58 76)">
          <path id="highlight_119" fill="#FFF" d="M0 0h39v39H0z"/>
          <path d="M2 0v35h1v-1a4 4 0 014-4h25a4 4 0 014 4v1h1V0h2v45h-2v-6H2v6H0V0h2zm30 31H7a3 3 0 00-3 3v1h31v-1a3 3 0 00-3-3z" fill="#1B50AF" fill-rule="nonzero"/>
          <path d="M12.164 24v-7.588H9.98v-1.316c1.47-.042 2.156-.14 2.646-1.246h1.47V24h-1.932zm5.166 0v-7.588h-2.184v-1.316c1.47-.042 2.156-.14 2.646-1.246h1.47V24H17.33zm9.198-4.382c-.434.546-1.246.966-2.324.966-1.862 0-3.43-1.288-3.43-3.472 0-2.086 1.582-3.444 3.78-3.444 2.716 0 3.906 2.184 3.906 5.026 0 2.912-1.092 5.488-4.116 5.488-2.212 0-3.248-1.512-3.36-2.8h1.89c.098.84.756 1.316 1.596 1.316 1.274 0 2.058-1.204 2.058-3.08zm-1.974-4.48c-1.05 0-1.82.77-1.82 1.988 0 1.19.77 1.974 1.82 1.974s1.848-.784 1.848-1.974c0-1.204-.798-1.988-1.848-1.988z" id="bednumber_119" fill="#1B50AF"/>
        </g>
        <g id="bed_120" transform="translate(58 31)">
          <path id="highlight_120" fill="#FFF" d="M0 2h39v37H0z"/>
          <path d="M2 0v2l35-.001V0h2v45h-2v-6H2v6H0V0h2zm35 3.999L2 4v31h1v-1a4 4 0 014-4h25a4 4 0 014 4v1h1V3.999zM32 31H7a3 3 0 00-3 3v1h31v-1a3 3 0 00-3-3z" fill="#1B50AF" fill-rule="nonzero"/>
          <path d="M10.407 24v-7.588H8.223v-1.316c1.47-.042 2.156-.14 2.646-1.246h1.47V24h-1.932zm10.528-7.602c0 1.904-1.848 3.892-4.97 5.978h5.208V24h-7.462v-1.568c3.262-2.632 5.278-4.326 5.278-5.936 0-.882-.56-1.4-1.498-1.4-.854 0-1.722.518-1.722 2.03h-1.876c-.028-2.1 1.456-3.458 3.71-3.458 2.03 0 3.332.966 3.332 2.73zm1.12 2.506c0-3.08 1.372-5.236 4.088-5.236 2.702 0 4.074 2.156 4.074 5.236 0 3.094-1.372 5.278-4.074 5.278-2.716 0-4.088-2.184-4.088-5.278zm6.188 0c0-2.422-.728-3.78-2.1-3.78s-2.114 1.358-2.114 3.78c0 2.436.742 3.822 2.114 3.822 1.372 0 2.1-1.386 2.1-3.822z" id="bednumber_120" fill="#1B50AF"/>
        </g>
      </g>
      <g id="cabin_121-122" transform="translate(1376)">
        <path id="cabin_hilight_121-122" fill="#D5EEFA" d="M0 0h75v114.558L37.793 146H0z"/>
        <path d="M57.462 4h11.076C69.898 4 71 5.79 71 8v18c0 2.21-1.102 4-2.462 4H57.462C56.102 30 55 28.21 55 26V8c0-2.21 1.102-4 2.462-4z" fill="#E2D2BA"/>
        <g id="bed_121" transform="translate(4 76)">
          <path id="highlight_121" fill="#FFF" d="M0 0h39v39H0z"/>
          <path d="M2 0v35h1v-1a4 4 0 014-4h25a4 4 0 014 4v1h1V0h2v45h-2v-6H2v6H0V0h2zm30 31H7a3 3 0 00-3 3v1h31v-1a3 3 0 00-3-3z" fill="#1B50AF" fill-rule="nonzero"/>
          <path d="M12.465 24v-7.588h-2.184v-1.316c1.47-.042 2.156-.14 2.646-1.246h1.47V24h-1.932zm10.528-7.602c0 1.904-1.848 3.892-4.97 5.978h5.208V24h-7.462v-1.568c3.262-2.632 5.278-4.326 5.278-5.936 0-.882-.56-1.4-1.498-1.4-.854 0-1.722.518-1.722 2.03h-1.876c-.028-2.1 1.456-3.458 3.71-3.458 2.03 0 3.332.966 3.332 2.73zM25.737 24v-7.588h-2.184v-1.316c1.47-.042 2.156-.14 2.646-1.246h1.47V24h-1.932z" id="bednumber_121" fill="#1B50AF"/>
        </g>
        <g id="bed_122" transform="translate(4 31)">
          <path id="highlight_122" fill="#FFF" d="M0 2h39v37H0z"/>
          <path d="M2 0v2l35-.001V0h2v45h-2v-6H2v6H0V0h2zm35 3.999L2 4v31h1v-1a4 4 0 014-4h25a4 4 0 014 4v1h1V3.999zM32 31H7a3 3 0 00-3 3v1h31v-1a3 3 0 00-3-3z" fill="#1B50AF" fill-rule="nonzero"/>
          <path d="M10.995 24v-7.588H8.811v-1.316c1.47-.042 2.156-.14 2.646-1.246h1.47V24h-1.932zm10.528-7.602c0 1.904-1.848 3.892-4.97 5.978h5.208V24h-7.462v-1.568c3.262-2.632 5.278-4.326 5.278-5.936 0-.882-.56-1.4-1.498-1.4-.854 0-1.722.518-1.722 2.03h-1.876c-.028-2.1 1.456-3.458 3.71-3.458 2.03 0 3.332.966 3.332 2.73zm8.106 0c0 1.904-1.848 3.892-4.97 5.978h5.208V24h-7.462v-1.568c3.262-2.632 5.278-4.326 5.278-5.936 0-.882-.56-1.4-1.498-1.4-.854 0-1.722.518-1.722 2.03h-1.876c-.028-2.1 1.456-3.458 3.71-3.458 2.03 0 3.332.966 3.332 2.73z" id="bednumber_122" fill="#1B50AF"/>
        </g>
      </g>
    </g>
    <g id="Service-badges" transform="translate(37 16)">
      <g id="service-badge" transform="translate(232 34)">
        <circle stroke="#fff" stroke-width="2" fill="#f2f2f2" cx="29" cy="29" r="28"/>
        <g id="Icon/Service/WC" transform="translate(17 17)">
          <path d="M0 0h24v24H0z"/>
          <path d="M19.16 7a5.221 5.221 0 014.78 3.146l-.853.377c-.518.228-1.101.055-1.468-.378A3.221 3.221 0 0019.16 9c-1.781 0-3.23 1.458-3.23 3.25s1.449 3.25 3.23 3.25a3.22 3.22 0 002.46-1.145c.367-.432.95-.605 1.468-.377l.854.376a5.22 5.22 0 01-4.782 3.146c-2.877 0-5.218-2.354-5.218-5.25 0-2.895 2.341-5.25 5.218-5.25zm-12.177.165c1.017 0 1.83.703 1.979 1.709l.951 6.46 1.383-5.572.374-1.511a1.25 1.25 0 011.213-.949h1.083l-.44 1.775-1.671 6.739a1.978 1.978 0 01-1.937 1.519l-.101-.002a1.982 1.982 0 01-1.882-1.707l-.951-6.46-.952 6.46a1.98 1.98 0 01-1.883 1.707c-.968.033-1.805-.577-2.038-1.517L0 7.302h1.083a1.25 1.25 0 011.213.949l.3 1.209 1.457 5.874.952-6.46a1.963 1.963 0 011.978-1.709z" fill="#1b50af"/>
        </g>
      </g>
      <g id="service-badge" transform="translate(376 34)">
        <circle stroke="#fff" stroke-width="2" fill="#f2f2f2" cx="29" cy="29" r="28"/>
        <g id="Icon" transform="translate(17 17)">
          <path d="M0 0h24v24H0z"/>
          <path d="M22.75 14.5h-5.5c-.69 0-1.25.56-1.25 1.25v.75h8v-.75c0-.69-.56-1.25-1.25-1.25zm-17 0h-1.5c-.69 0-1.25.56-1.25 1.25v.75h4v-.75c0-.69-.56-1.25-1.25-1.25zM7 4.25C7 3.56 6.44 3 5.75 3h-1.5C3.56 3 3 3.56 3 4.25V5h4v-.75zm5.25 10.25c-.69 0-1.25.56-1.25 1.25v.75h4v-.75c0-.69-.56-1.25-1.25-1.25h-1.5zM22.75 3h-5.5C16.56 3 16 3.56 16 4.25V5h8v-.75C24 3.56 23.44 3 22.75 3zM15 4.25C15 3.56 14.44 3 13.75 3h-1.5C11.56 3 11 3.56 11 4.25V5h4v-.75zm-5-1.5c0-.69-.56-1.25-1.25-1.25H8v21h.75c.69 0 1.25-.56 1.25-1.25V19.5h12.75c.69 0 1.25-.56 1.25-1.25v-.75H10V8h12.75C23.44 8 24 7.44 24 6.75V6H10V2.75zm-8 0C2 2.06 1.44 1.5.75 1.5H0v21h.75c.69 0 1.25-.56 1.25-1.25V19.5h3.75c.69 0 1.25-.56 1.25-1.25v-.75H2V8h3.75C6.44 8 7 7.44 7 6.75V6H2V2.75z" fill="#1b50af"/>
        </g>
      </g>
      <g id="service-badge" transform="translate(597 34)">
        <circle stroke="#fff" stroke-width="2" fill="#f2f2f2" cx="29" cy="29" r="28"/>
        <g id="Icon" transform="translate(17 17)">
          <path d="M0 0h24v24H0z"/>
          <path d="M22.75 14.5h-5.5c-.69 0-1.25.56-1.25 1.25v.75h8v-.75c0-.69-.56-1.25-1.25-1.25zm-17 0h-1.5c-.69 0-1.25.56-1.25 1.25v.75h4v-.75c0-.69-.56-1.25-1.25-1.25zM7 4.25C7 3.56 6.44 3 5.75 3h-1.5C3.56 3 3 3.56 3 4.25V5h4v-.75zm5.25 10.25c-.69 0-1.25.56-1.25 1.25v.75h4v-.75c0-.69-.56-1.25-1.25-1.25h-1.5zM22.75 3h-5.5C16.56 3 16 3.56 16 4.25V5h8v-.75C24 3.56 23.44 3 22.75 3zM15 4.25C15 3.56 14.44 3 13.75 3h-1.5C11.56 3 11 3.56 11 4.25V5h4v-.75zm-5-1.5c0-.69-.56-1.25-1.25-1.25H8v21h.75c.69 0 1.25-.56 1.25-1.25V19.5h12.75c.69 0 1.25-.56 1.25-1.25v-.75H10V8h12.75C23.44 8 24 7.44 24 6.75V6H10V2.75zm-8 0C2 2.06 1.44 1.5.75 1.5H0v21h.75c.69 0 1.25-.56 1.25-1.25V19.5h3.75c.69 0 1.25-.56 1.25-1.25v-.75H2V8h3.75C6.44 8 7 7.44 7 6.75V6H2V2.75z" fill="#1b50af"/>
        </g>
      </g>
      <g id="service-badge" transform="translate(817 34)">
        <circle stroke="#fff" stroke-width="2" fill="#f2f2f2" cx="29" cy="29" r="28"/>
        <g id="Icon" transform="translate(17 17)">
          <path d="M0 0h24v24H0z"/>
          <path d="M22.75 14.5h-5.5c-.69 0-1.25.56-1.25 1.25v.75h8v-.75c0-.69-.56-1.25-1.25-1.25zm-17 0h-1.5c-.69 0-1.25.56-1.25 1.25v.75h4v-.75c0-.69-.56-1.25-1.25-1.25zM7 4.25C7 3.56 6.44 3 5.75 3h-1.5C3.56 3 3 3.56 3 4.25V5h4v-.75zm5.25 10.25c-.69 0-1.25.56-1.25 1.25v.75h4v-.75c0-.69-.56-1.25-1.25-1.25h-1.5zM22.75 3h-5.5C16.56 3 16 3.56 16 4.25V5h8v-.75C24 3.56 23.44 3 22.75 3zM15 4.25C15 3.56 14.44 3 13.75 3h-1.5C11.56 3 11 3.56 11 4.25V5h4v-.75zm-5-1.5c0-.69-.56-1.25-1.25-1.25H8v21h.75c.69 0 1.25-.56 1.25-1.25V19.5h12.75c.69 0 1.25-.56 1.25-1.25v-.75H10V8h12.75C23.44 8 24 7.44 24 6.75V6H10V2.75zm-8 0C2 2.06 1.44 1.5.75 1.5H0v21h.75c.69 0 1.25-.56 1.25-1.25V19.5h3.75c.69 0 1.25-.56 1.25-1.25v-.75H2V8h3.75C6.44 8 7 7.44 7 6.75V6H2V2.75z" fill="#1b50af"/>
        </g>
      </g>
      <g id="service-badge" transform="translate(1104 30)">
        <circle stroke="#fff" stroke-width="2" fill="#f2f2f2" cx="29" cy="29" r="28"/>
        <g id="Icon" transform="translate(17 17)">
          <path d="M0 0h24v24H0z"/>
          <path d="M12.086 6.5a3 3 0 012.934 2.373l.072.337a1 1 0 00.978.79h.68c.69 0 1.25.56 1.25 1.25V12h-1.93a3 3 0 01-2.934-2.373l-.072-.335a1.001 1.001 0 00-.979-.792h-.95a.997.997 0 00-.777.371.994.994 0 00-.201.837l.851 4a1 1 0 00.979.792h3.143a2.98 2.98 0 012.928 2.349L19.21 22h-1.054a1.25 1.25 0 01-1.22-.979l-.832-3.738a1 1 0 00-.976-.783h-3.142a3 3 0 01-2.934-2.375l-.359-1.682A3.994 3.994 0 006.5 16c0 2.206 1.794 4 4 4 .905 0 1.738-.305 2.408-.814.466-.356 1.107-.372 1.565-.006l.701.561A5.98 5.98 0 0110.5 22c-3.309 0-6-2.692-6-6a6 6 0 013.767-5.566l-.045-.212c-.156-.734-.082-1.514.284-2.17A2.996 2.996 0 0111.135 6.5zM12.5 2a1.75 1.75 0 110 3.5 1.75 1.75 0 010-3.5z" fill="#1b50af"/>
        </g>
      </g>
      <g id="service-badge" transform="translate(1334 30)">
        <circle stroke="#fff" stroke-width="2" fill="#f2f2f2" cx="29" cy="29" r="28"/>
        <g id="Icon" transform="translate(17 17)">
          <path d="M0 24h24V0H0z"/>
          <path d="M21.1 7.934a1.006 1.006 0 01-.358.066h-6.968a.999.999 0 01-.51-.14L9.323 5.527l-1.368-3.26A1.25 1.25 0 006.802 1.5H5.464l.63 1.5h-.602a3 3 0 00-3 3v.05l-1.85.708A1 1 0 00.068 8.05l.631 1.636A3 3 0 003.453 11.5h1.54v2.194c0 .628.197 1.24.563 1.75l.936 1.303V22.5h.75c.69 0 1.25-.56 1.25-1.25v-4.502a2 2 0 00-.376-1.167l-.935-1.303a1 1 0 01-.189-.585V11.5a2 2 0 00-2-2H3.453a1 1 0 01-.933-.642l-.227-.59.82-.314c.79-.302 1.393-1.058 1.38-1.904V6a.985.985 0 011-.998h1.441L7.48 6.3c.167.396.456.728.825.947l3.94 2.334c.464.274.992.419 1.53.419h6.968c.367 0 .73-.067 1.074-.198l1.374-.527a1.25 1.25 0 00.802-1.167V6.826L21.1 7.934zm2.034 4.281a1.25 1.25 0 00-1.614-.72l-.7.269.606 1.584a.994.994 0 01.066.357v8.792h.75c.69 0 1.25-.559 1.25-1.25v-7.542c0-.367-.067-.73-.198-1.073l-.16-.417zm-4.723 2.059a2 2 0 00-2.334-.692l-4.68 1.794a3 3 0 00-1.926 2.832l.021 4.292.747-.003a1.25 1.25 0 001.244-1.26l-.012-3.049a1.003 1.003 0 01.644-.944l4.678-1.795 1.508 2.077a1 1 0 01.191.587V22.5h.75c.69 0 1.25-.56 1.25-1.25v-3.139c0-.633-.2-1.25-.572-1.762l-1.509-2.075z" fill="#1b50af"/>
        </g>
      </g>
      <g id="service-badge" transform="translate(1216 58)">
        <circle stroke="#fff" stroke-width="2" fill="#f2f2f2" cx="29" cy="29" r="28"/>
        <g id="Icon" transform="translate(17 17)">
          <path d="M0 0h24v24H0z"/>
          <path d="M11.965 13.038l.53-.53-1.98-1.981.329-2.404a3.015 3.015 0 00-1.956-3.229l-.855-.308a3.015 3.015 0 00-3.566 1.24L.453 12.291a2.988 2.988 0 00-.286 2.568c.3.86.961 1.529 1.817 1.837l1.516.546v5.008c0 .69.56 1.25 1.25 1.25h.75v-6.258a2 2 0 00-1.323-1.882l-1.515-.546a.993.993 0 01-.605-.612.995.995 0 01.095-.856l4.014-6.465a1.007 1.007 0 011.188-.413l.856.308c.441.159.716.611.652 1.076l-.328 2.404a2.01 2.01 0 00.567 1.685l1.097 1.097a1.25 1.25 0 001.767 0zM14 11.34v1.16a2 2 0 002 2h1.5a2 2 0 002-2v-1.25c0-.69-.56-1.25-1.25-1.25h-.75v2.5H16v-1.159c0-.53-.211-1.039-.586-1.415l-1.541-1.54-.53.53a1.25 1.25 0 000 1.768l.657.656zm8.75 4.16h-11c-.69 0-1.25.56-1.25 1.25v.75H24v-.75c0-.69-.56-1.25-1.25-1.25zm-.5-1a1.75 1.75 0 100-3.5 1.75 1.75 0 000 3.5zM9.13 3.888A1.75 1.75 0 1010.363.612 1.75 1.75 0 009.13 3.888z" fill="#1b50af"/>
        </g>
      </g>
      <g id="service-badge" transform="translate(1216)">
        <circle stroke="#fff" stroke-width="2" fill="#f2f2f2" cx="29" cy="29" r="28"/>
        <g id="Icon/Service/WC" transform="translate(17 17)">
          <path d="M0 0h24v24H0z"/>
          <path d="M19.16 7a5.221 5.221 0 014.78 3.146l-.853.377c-.518.228-1.101.055-1.468-.378A3.221 3.221 0 0019.16 9c-1.781 0-3.23 1.458-3.23 3.25s1.449 3.25 3.23 3.25a3.22 3.22 0 002.46-1.145c.367-.432.95-.605 1.468-.377l.854.376a5.22 5.22 0 01-4.782 3.146c-2.877 0-5.218-2.354-5.218-5.25 0-2.895 2.341-5.25 5.218-5.25zm-12.177.165c1.017 0 1.83.703 1.979 1.709l.951 6.46 1.383-5.572.374-1.511a1.25 1.25 0 011.213-.949h1.083l-.44 1.775-1.671 6.739a1.978 1.978 0 01-1.937 1.519l-.101-.002a1.982 1.982 0 01-1.882-1.707l-.951-6.46-.952 6.46a1.98 1.98 0 01-1.883 1.707c-.968.033-1.805-.577-2.038-1.517L0 7.302h1.083a1.25 1.25 0 011.213.949l.3 1.209 1.457 5.874.952-6.46a1.963 1.963 0 011.978-1.709z" fill="#1b50af"/>
        </g>
      </g>
      <g id="service-badge" transform="translate(0 21)">
        <circle stroke="#fff" stroke-width="2" fill="#f2f2f2" cx="29" cy="29" r="28"/>
        <g id="Icon" transform="translate(17 17)">
          <path d="M0 0h24v24H0z"/>
          <path d="M10.159 16h-.75v.75c0 .69.56 1.25 1.25 1.25h.75v-.75c0-.69-.56-1.25-1.25-1.25m0 3h-.75v.75c0 .69.56 1.25 1.25 1.25h.75v-.75c0-.69-.56-1.25-1.25-1.25m0 3h-.75v.75c0 .69.56 1.25 1.25 1.25h.75v-.75c0-.69-.56-1.25-1.25-1.25m6-6h-.75v.75c0 .69.56 1.25 1.25 1.25h.75v-.75c0-.69-.56-1.25-1.25-1.25m0 3h-.75v.75c0 .69.56 1.25 1.25 1.25h.75v-.75c0-.69-.56-1.25-1.25-1.25m-3-3h-.75v.75c0 .69.56 1.25 1.25 1.25h.75v-.75c0-.69-.56-1.25-1.25-1.25m0 3h-.75v.75c0 .69.56 1.25 1.25 1.25h.75v-.75c0-.69-.56-1.25-1.25-1.25m0 3h-.75v.75c0 .69.56 1.25 1.25 1.25h.75v-.75c0-.69-.56-1.25-1.25-1.25m-6-6h-.75v.75c0 .69.56 1.25 1.25 1.25h.75v-.75c0-.69-.56-1.25-1.25-1.25m0 3h-.75v.75c0 .69.56 1.25 1.25 1.25h.75v-.75c0-.69-.56-1.25-1.25-1.25m10.158-6H6.5a5.509 5.509 0 015.409-4.5 5.507 5.507 0 015.408 4.5M14.909 2h3.25c.69 0 1.25-.56 1.25-1.25V0h-4.5a4 4 0 00-4 4v2.574a7.513 7.513 0 00-6.375 6.055c-.07.373-.036.784.131 1.197C4.958 14.555 5.703 15 6.487 15h10.845c.791 0 1.544-.451 1.829-1.189.158-.409.192-.813.122-1.182a7.512 7.512 0 00-6.374-6.055V4a2 2 0 012-2" fill="#1b50af"/>
        </g>
      </g>
    </g>
  </g>
</svg>
