<svg viewBox="0 0 1586 237"
  xmlns="http://www.w3.org/2000/svg"
  xmlns:xlink="http://www.w3.org/1999/xlink"
  xmlns:vr="http://vr/wagonmap" preserveAspectRatio="xMinYMin meet">
  <defs>
    <svg id="pet-seat-icon" viewBox="0 0 620 620"
      xmlns="http://www.w3.org/2000/svg" preserveAspectRatio="xMinYMin meet">
      <g fill-rule="evenodd">
        <path d="M42.2 15.868a2.013 2.013 0 01-.716.132H27.548a2 2 0 01-1.02-.279l-7.883-4.669-2.736-6.519A2.5 2.5 0 0013.604 3h-2.676l1.26 3h-1.204a6 6 0 00-6 6v.099l-3.699 1.416a2 2 0 00-1.152 2.584l1.263 3.274A6 6 0 006.906 23h3.078v4.388c0 1.256.395 2.481 1.127 3.501l1.873 2.606V45h1.5a2.5 2.5 0 002.5-2.5v-9.004c0-.837-.263-1.654-.752-2.334l-1.87-2.606a2.002 2.002 0 01-.378-1.169V23a4 4 0 00-4-4H6.906a2 2 0 01-1.867-1.284l-.454-1.18 1.64-.627c1.581-.606 2.787-2.116 2.76-3.81V12c-.019-1.12.883-1.997 2-1.997h2.883l1.09 2.597a4.002 4.002 0 001.65 1.893l7.881 4.669a5.996 5.996 0 003.06.838h13.934c.735 0 1.462-.134 2.148-.397l2.748-1.053a2.5 2.5 0 001.605-2.334v-2.564L42.2 15.868zm4.067 8.562a2.499 2.499 0 00-3.228-1.44l-1.4.537 1.212 3.169c.088.228.133.471.133.715v17.584h1.5a2.5 2.5 0 002.5-2.5V27.41a6.01 6.01 0 00-.397-2.146l-.32-.834zm-9.445 4.117a4.001 4.001 0 00-4.668-1.384l-9.359 3.59a6.001 6.001 0 00-3.853 5.663L18.984 45l1.493-.007a2.501 2.501 0 002.488-2.52l-.023-6.097a2.005 2.005 0 011.288-1.889l9.356-3.589 3.016 4.153a2 2 0 01.382 1.175V45h1.5a2.5 2.5 0 002.5-2.5v-6.277c0-1.266-.4-2.5-1.145-3.524l-3.017-4.152z"/>
      </g>
    </svg>
  </defs>
  <g id="EDM_up" stroke="none" stroke-width="1" fill="none" fill-rule="evenodd">
    <path fill="#FFF" d="M0 0h1586v237H0z"/>
    <g transform="translate(3 2)">
      <path d="M1291.5 3.135h227v168.567l61.5-.202v57.32h-288.5c-11.046 0-20-8.954-20-20V23.136c0-11.046 8.954-20 20-20z" fill="#F2F2F2" transform="matrix(-1 0 0 1 2851.5 0)"/>
      <path d="M20 4.18h211v167.113h60.5v58.572H20c-11.046 0-20-8.954-20-20V24.18c0-11.045 8.954-20 20-20z" fill="#F2F2F2"/>
      <g transform="translate(230 2.18)">
        <path fill="#DFDFDF" fill-rule="nonzero" d="M3 .82v170H0V.82z"/>
        <path fill="#DFDFDF" fill-rule="nonzero" transform="rotate(-90 31.5 168.82)" d="M33 137.82v62h-3v-62z"/>
        <path fill="#DFDFDF" fill-rule="nonzero" transform="rotate(-90 1071.5 169.32)" d="M1073 138.32v62h-3v-62z"/>
        <path fill="#DFDFDF" fill-rule="nonzero" d="M1103 1v170h-3V1z"/>
        <path fill="#DCDCDC" d="M1040 76.82h3v149h-3z"/>
        <path fill="#DCDCDC" transform="rotate(180 61.5 151.32)" d="M60 76.82h3v149h-3z"/>
        <g transform="translate(157 76.82)" fill="#DCDCDC">
          <path transform="rotate(180 1.5 38)" d="M0 0h3v76H0z"/>
          <path transform="rotate(180 52.5 111)" d="M51 73h3v76h-3z"/>
          <path transform="rotate(180 27 74.5)" d="M0 73h54v3H0z"/>
        </g>
        <g transform="translate(402 76.82)" fill="#DCDCDC">
          <path transform="rotate(180 1.5 38)" d="M0 0h3v76H0z"/>
          <path transform="rotate(180 52.5 111)" d="M51 73h3v76h-3z"/>
          <path transform="rotate(180 27 74.5)" d="M0 73h54v3H0z"/>
        </g>
        <path fill="#DCDCDC" transform="rotate(180 306.5 151.32)" d="M305 76.82h3v149h-3z"/>
        <g transform="translate(647 76.82)" fill="#DCDCDC">
          <path transform="rotate(180 1.5 38)" d="M0 0h3v76H0z"/>
          <path transform="rotate(180 52.5 111)" d="M51 73h3v76h-3z"/>
          <path transform="rotate(180 27 74.5)" d="M0 73h54v3H0z"/>
        </g>
        <path fill="#DCDCDC" transform="rotate(180 551.5 151.32)" d="M550 76.82h3v149h-3z"/>
        <g transform="translate(892 76.82)" fill="#DCDCDC">
          <path transform="rotate(180 1.5 38)" d="M0 0h3v76H0z"/>
          <path transform="rotate(180 52.5 111)" d="M51 73h3v76h-3z"/>
          <path transform="rotate(180 27 74.5)" d="M0 73h54v3H0z"/>
        </g>
        <path fill="#DCDCDC" transform="rotate(180 796.5 151.32)" d="M795 76.82h3v149h-3z"/>
        <path fill="#DCDCDC" transform="rotate(180 551.5 78.32)" d="M60 76.821h983v3H60z"/>
      </g>
      <path d="M1560 3.724c5.944 0 11.33 2.512 15.226 6.584 3.873 4.047 6.274 9.636 6.274 15.813h0V206.88c0 6.177-2.4 11.766-6.274 15.813-3.897 4.072-9.282 6.584-15.226 6.584h0H20c-5.944 0-11.33-2.512-15.226-6.584C.901 218.645-1.5 213.056-1.5 206.88h0V26.12c0-6.177 2.4-11.766 6.274-15.813C8.671 6.236 14.056 3.724 20 3.724h0z" stroke="#DFDFDF" stroke-width="3"/>
      <g transform="translate(317)">
        <g transform="matrix(0 1 1 0 .86 227.8)">
          <path fill="#C2D6D6" d="M2 0h3v64.78H2z"/>
          <path fill="#9FC1B7" d="M0 0h3v64.78H0z"/>
        </g>
        <g transform="matrix(0 1 1 0 138.86 227.8)">
          <g>
            <path fill="#C2D6D6" d="M2 0h3v64.78H2z"/>
            <path fill="#9FC1B7" d="M0 0h3v64.78H0z"/>
          </g>
        </g>
        <g transform="matrix(0 1 1 0 247.86 227.8)">
          <path fill="#C2D6D6" d="M2 0h3v64.78H2z"/>
          <path fill="#9FC1B7" d="M0 0h3v64.78H0z"/>
        </g>
        <g transform="rotate(-90 19.03 -13.83)">
          <path fill="#C2D6D6" d="M2 0h3v64.78H2z"/>
          <path fill="#9FC1B7" d="M0 0h3v64.78H0z"/>
        </g>
        <g transform="rotate(-90 74.03 -68.83)">
          <path fill="#C2D6D6" d="M2 0h3v64.78H2z"/>
          <path fill="#9FC1B7" d="M0 0h3v64.78H0z"/>
        </g>
        <g transform="rotate(-90 129.03 -123.83)">
          <path fill="#C2D6D6" d="M2 0h3v64.78H2z"/>
          <path fill="#9FC1B7" d="M0 0h3v64.78H0z"/>
        </g>
        <g transform="rotate(-90 184.03 -178.83)">
          <path fill="#C2D6D6" d="M2 0h3v64.78H2z"/>
          <path fill="#9FC1B7" d="M0 0h3v64.78H0z"/>
        </g>
        <g transform="rotate(-90 239.03 -233.83)">
          <path fill="#C2D6D6" d="M2 0h3v64.78H2z"/>
          <path fill="#9FC1B7" d="M0 0h3v64.78H0z"/>
        </g>
        <g transform="rotate(-90 294.03 -288.83)">
          <path fill="#C2D6D6" d="M2 0h3v64.78H2z"/>
          <path fill="#9FC1B7" d="M0 0h3v64.78H0z"/>
        </g>
        <g transform="rotate(-90 349.03 -343.83)">
          <path fill="#C2D6D6" d="M2 0h3v64.78H2z"/>
          <path fill="#9FC1B7" d="M0 0h3v64.78H0z"/>
        </g>
        <g transform="rotate(-90 403.53 -398.33)">
          <path fill="#C2D6D6" d="M2 0h3v64.78H2z"/>
          <path fill="#9FC1B7" d="M0 0h3v64.78H0z"/>
        </g>
        <g transform="matrix(0 1 1 0 383.86 227.8)">
          <path fill="#C2D6D6" d="M2 0h3v64.78H2z"/>
          <path fill="#9FC1B7" d="M0 0h3v64.78H0z"/>
        </g>
        <g transform="matrix(0 1 1 0 493.86 227.8)">
          <path fill="#C2D6D6" d="M2 0h3v64.78H2z"/>
          <path fill="#9FC1B7" d="M0 0h3v64.78H0z"/>
        </g>
        <g transform="matrix(0 1 1 0 628.86 227.8)">
          <path fill="#C2D6D6" d="M2 0h3v64.78H2z"/>
          <path fill="#9FC1B7" d="M0 0h3v64.78H0z"/>
        </g>
        <g transform="matrix(0 1 1 0 737.86 227.8)">
          <path fill="#C2D6D6" d="M2 0h3v64.78H2z"/>
          <path fill="#9FC1B7" d="M0 0h3v64.78H0z"/>
        </g>
        <g transform="matrix(0 1 1 0 872.86 227.8)">
          <path fill="#C2D6D6" d="M2 0h3v64.78H2z"/>
          <path fill="#9FC1B7" d="M0 0h3v64.78H0z"/>
        </g>
      </g>
      <g id="stairs" transform="translate(232.59 4.493)">
        <g id="Stairs" transform="rotate(-90 75.25 74.75)">
          <path stroke="#DCDCDC" stroke-width="2" stroke-linecap="square" d="M12 55.78v-55M26 55.78v-55M40 55.78v-55M53 55.78v-55M66 55.78v-55"/>
          <path d="M24.5 18.293l9.192 9.192-9.192 9.193-2.828-2.829L26.02 29.5H-.5v-4h26.55l-4.378-4.379 2.828-2.828z" stroke="#FFF" fill="#DCDCDC"/>
        </g>
        <g id="Steps" transform="translate(54.5)">
          <path stroke="#DCDCDC" stroke-width="2" stroke-linecap="square" d="M12 74.78v-74M26 74.78v-74M40 74.78v-74"/>
          <path d="M24.5 27.71l9.192 9.192-9.192 9.193-2.828-2.829 4.349-4.349H-.5v-4h26.55l-4.378-4.379L24.5 27.71z" stroke="#FFF" fill="#DCDCDC"/>
        </g>
        <g id="Stairs" transform="rotate(-90 595.25 -445.25)">
          <path stroke="#DCDCDC" stroke-width="2" stroke-linecap="square" d="M12 55.78v-55M26 55.78v-55M40 55.78v-55M53 55.78v-55M66 55.78v-55"/>
          <path d="M24.5 18.293l9.192 9.192-9.192 9.193-2.828-2.829L26.02 29.5H-.5v-4h26.55l-4.378-4.379 2.828-2.828z" stroke="#FFF" fill="#DCDCDC"/>
        </g>
        <g id="Steps" transform="matrix(-1 0 0 1 1043.5 0)">
          <path stroke="#DCDCDC" stroke-width="2" stroke-linecap="square" d="M12 74.78v-74M26 74.78v-74M40 74.78v-74"/>
          <path d="M24.5 27.71l9.192 9.192-9.192 9.193-2.828-2.829 4.349-4.349H-.5v-4h26.55l-4.378-4.379L24.5 27.71z" stroke="#FFF" fill="#DCDCDC"/>
        </g>
      </g>
    </g>
    <g id="Cabins" transform="translate(296 84)">
      <g id="cabin_201-202">
        <path id="cabin_hilight_201-202" fill="#D5EEFA" d="M0 0h94v73h51v73H0z"/>
        <g id="bed_201" transform="translate(8 80)">
          <path id="highlight_201" fill="#FFF" d="M0 0h39v39H0z"/>
          <path d="M2 35h1v-1a4 4 0 014-4h25a4 4 0 014 4v1h1V0h2v45h-2v-6H2v6H0V0h2v35zm33 0v-1a3 3 0 00-3-3H7a3 3 0 00-3 3v1h31z" fill="#1B50AF" fill-rule="nonzero"/>
          <path d="M15.769 16.398c0 1.904-1.848 3.892-4.97 5.978h5.208V24H8.545v-1.568c3.262-2.632 5.278-4.326 5.278-5.936 0-.882-.56-1.4-1.498-1.4-.854 0-1.722.518-1.722 2.03H8.727c-.028-2.1 1.456-3.458 3.71-3.458 2.03 0 3.332.966 3.332 2.73zm1.12 2.506c0-3.08 1.372-5.236 4.088-5.236 2.702 0 4.074 2.156 4.074 5.236 0 3.094-1.372 5.278-4.074 5.278-2.716 0-4.088-2.184-4.088-5.278zm6.188 0c0-2.422-.728-3.78-2.1-3.78s-2.114 1.358-2.114 3.78c0 2.436.742 3.822 2.114 3.822 1.372 0 2.1-1.386 2.1-3.822zM27.795 24v-7.588h-2.184v-1.316c1.47-.042 2.156-.14 2.646-1.246h1.47V24h-1.932z" id="bednumber_201" fill="#1B50AF"/>
        </g>
        <g id="bed_202" transform="translate(8 35)">
          <path id="highlight_202" fill="#FFF" d="M0 2h39v37H0z"/>
          <path d="M3 35v-1a4 4 0 014-4h25a4 4 0 014 4v1h1V4H2v31h1zm32 0v-1a3 3 0 00-3-3H7a3 3 0 00-3 3v1h31zm2-33V0h2v45h-2v-6H2v6H0V0h2v2h35z" fill="#1B50AF" fill-rule="nonzero"/>
          <path d="M14.299 16.398c0 1.904-1.848 3.892-4.97 5.978h5.208V24H7.075v-1.568c3.262-2.632 5.278-4.326 5.278-5.936 0-.882-.56-1.4-1.498-1.4-.854 0-1.722.518-1.722 2.03H7.257c-.028-2.1 1.456-3.458 3.71-3.458 2.03 0 3.332.966 3.332 2.73zm1.12 2.506c0-3.08 1.372-5.236 4.088-5.236 2.702 0 4.074 2.156 4.074 5.236 0 3.094-1.372 5.278-4.074 5.278-2.716 0-4.088-2.184-4.088-5.278zm6.188 0c0-2.422-.728-3.78-2.1-3.78s-2.114 1.358-2.114 3.78c0 2.436.742 3.822 2.114 3.822 1.372 0 2.1-1.386 2.1-3.822zm10.08-2.506c0 1.904-1.848 3.892-4.97 5.978h5.208V24h-7.462v-1.568c3.262-2.632 5.278-4.326 5.278-5.936 0-.882-.56-1.4-1.498-1.4-.854 0-1.722.518-1.722 2.03h-1.876c-.028-2.1 1.456-3.458 3.71-3.458 2.03 0 3.332.966 3.332 2.73z" id="bednumber_202" fill="#1B50AF"/>
        </g>
      </g>
      <g id="cabin_203-204" transform="translate(97)">
        <path id="cabin_hilight_203-204" fill="#D5EEFA" transform="rotate(-180 72.5 73)" d="M0 0h94v76h51v70H0z"/>
        <g id="bed_203" transform="translate(98 80)">
          <path id="highlight_203" fill="#FFF" d="M0 0h39v39H0z"/>
          <path d="M2 45H0V0h2v35h1v-1a4 4 0 014-4h25a4 4 0 014 4v1h1V0h2v45h-2v-6H2v6zm30-14H7a3 3 0 00-3 3v1h31v-1a3 3 0 00-3-3z" fill="#1B50AF" fill-rule="nonzero"/>
          <path d="M14.054 16.398c0 1.904-1.848 3.892-4.97 5.978h5.208V24H6.83v-1.568c3.262-2.632 5.278-4.326 5.278-5.936 0-.882-.56-1.4-1.498-1.4-.854 0-1.722.518-1.722 2.03H7.012c-.028-2.1 1.456-3.458 3.71-3.458 2.03 0 3.332.966 3.332 2.73zm1.12 2.506c0-3.08 1.372-5.236 4.088-5.236 2.702 0 4.074 2.156 4.074 5.236 0 3.094-1.372 5.278-4.074 5.278-2.716 0-4.088-2.184-4.088-5.278zm6.188 0c0-2.422-.728-3.78-2.1-3.78s-2.114 1.358-2.114 3.78c0 2.436.742 3.822 2.114 3.822 1.372 0 2.1-1.386 2.1-3.822zm8.624 2.24c0-1.19-1.106-1.666-2.548-1.666h-.406v-1.512h.336c1.456 0 2.366-.532 2.366-1.484 0-.882-.77-1.358-1.61-1.358-1.162 0-1.904.742-2.002 1.792h-1.834c.224-2.016 1.624-3.248 3.948-3.248 1.694 0 3.444.812 3.444 2.73 0 .98-.602 1.806-1.372 2.226a2.656 2.656 0 011.638 2.464c0 2.058-1.778 3.094-3.92 3.094-2.324 0-3.696-1.512-3.822-3.374h1.82c.14 1.022.798 1.918 2.058 1.918 1.05 0 1.904-.63 1.904-1.582z" id="bednumber_203" fill="#1B50AF"/>
        </g>
        <g id="bed_204" transform="translate(98 35)">
          <path id="highlight_204" fill="#FFF" d="M0 2h39v37H0z"/>
          <path d="M37 4H2v31h1v-1a4 4 0 014-4h25a4 4 0 014 4v1h1V4zm0-2V0h2v45h-2v-6H2v6H0V0h2v2h35zm-2 33v-1a3 3 0 00-3-3H7a3 3 0 00-3 3v1h31z" fill="#1B50AF" fill-rule="nonzero"/>
          <path d="M13.914 16.398c0 1.904-1.848 3.892-4.97 5.978h5.208V24H6.69v-1.568c3.262-2.632 5.278-4.326 5.278-5.936 0-.882-.56-1.4-1.498-1.4-.854 0-1.722.518-1.722 2.03H6.872c-.028-2.1 1.456-3.458 3.71-3.458 2.03 0 3.332.966 3.332 2.73zm1.12 2.506c0-3.08 1.372-5.236 4.088-5.236 2.702 0 4.074 2.156 4.074 5.236 0 3.094-1.372 5.278-4.074 5.278-2.716 0-4.088-2.184-4.088-5.278zm6.188 0c0-2.422-.728-3.78-2.1-3.78s-2.114 1.358-2.114 3.78c0 2.436.742 3.822 2.114 3.822 1.372 0 2.1-1.386 2.1-3.822zm11.312 2.66h-1.736V24H28.88v-2.436h-5.012v-1.512l5.04-6.202h1.89v6.076h1.736v1.638zm-6.552-1.638h2.898V16.3l-2.898 3.626z" id="bednumber_204" fill="#1B50AF"/>
        </g>
      </g>
      <g id="cabin_205-206" transform="translate(245)">
        <path id="cabin_hilight_205-206" fill="#D5EEFA" d="M0 0h94v73h51v73H0z"/>
        <g id="bed_205" transform="translate(8 80)">
          <path id="highlight_205" fill="#FFF" d="M0 0h39v39H0z"/>
          <path d="M2 45H0V0h2v35h1v-1a4 4 0 014-4h25a4 4 0 014 4v1h1V0h2v45h-2v-6H2v6zm30-14H7a3 3 0 00-3 3v1h31v-1a3 3 0 00-3-3z" fill="#1B50AF" fill-rule="nonzero"/>
          <path d="M13.991 16.398c0 1.904-1.848 3.892-4.97 5.978h5.208V24H6.767v-1.568c3.262-2.632 5.278-4.326 5.278-5.936 0-.882-.56-1.4-1.498-1.4-.854 0-1.722.518-1.722 2.03H6.949c-.028-2.1 1.456-3.458 3.71-3.458 2.03 0 3.332.966 3.332 2.73zm1.12 2.506c0-3.08 1.372-5.236 4.088-5.236 2.702 0 4.074 2.156 4.074 5.236 0 3.094-1.372 5.278-4.074 5.278-2.716 0-4.088-2.184-4.088-5.278zm6.188 0c0-2.422-.728-3.78-2.1-3.78s-2.114 1.358-2.114 3.78c0 2.436.742 3.822 2.114 3.822 1.372 0 2.1-1.386 2.1-3.822zm8.736 1.764c0-1.386-.938-2.072-1.876-2.072-.896 0-1.54.448-1.736.924l-1.764-.084.672-5.586h6.258v1.624h-4.676l-.28 2.17c.42-.308 1.078-.56 2.016-.56 1.736 0 3.346 1.232 3.346 3.57 0 2.24-1.736 3.528-3.822 3.528-2.38 0-3.64-1.624-3.752-3.374h1.82c.112 1.05.714 1.918 1.96 1.918 1.064 0 1.834-.77 1.834-2.058z" id="bednumber_205" fill="#1B50AF"/>
        </g>
        <g id="bed_206" transform="translate(8 35)">
          <path id="highlight_206" fill="#FFF" d="M0 2h39v37H0z"/>
          <path d="M2 0v2l35-.001V0h2v45h-2v-6H2v6H0V0h2zm35 3.999L2 4v31h1v-1a4 4 0 014-4h25a4 4 0 014 4v1h1V3.999zM32 31H7a3 3 0 00-3 3v1h31v-1a3 3 0 00-3-3z" fill="#1B50AF" fill-rule="nonzero"/>
          <path d="M13.956 16.398c0 1.904-1.848 3.892-4.97 5.978h5.208V24H6.732v-1.568c3.262-2.632 5.278-4.326 5.278-5.936 0-.882-.56-1.4-1.498-1.4-.854 0-1.722.518-1.722 2.03H6.914c-.028-2.1 1.456-3.458 3.71-3.458 2.03 0 3.332.966 3.332 2.73zm1.12 2.506c0-3.08 1.372-5.236 4.088-5.236 2.702 0 4.074 2.156 4.074 5.236 0 3.094-1.372 5.278-4.074 5.278-2.716 0-4.088-2.184-4.088-5.278zm6.188 0c0-2.422-.728-3.78-2.1-3.78s-2.114 1.358-2.114 3.78c0 2.436.742 3.822 2.114 3.822 1.372 0 2.1-1.386 2.1-3.822zm5.026-.672c.434-.546 1.246-.966 2.31-.966 1.876 0 3.444 1.274 3.444 3.472 0 2.086-1.582 3.444-3.78 3.444-2.716 0-3.906-2.184-3.906-5.026 0-2.912 1.078-5.488 4.116-5.488 2.212 0 3.248 1.498 3.36 2.8h-1.89c-.098-.84-.77-1.33-1.596-1.33-1.274 0-2.058 1.204-2.058 3.094zm1.974 4.494c1.05 0 1.82-.784 1.82-2.016 0-1.19-.77-1.974-1.82-1.974-1.064 0-1.862.784-1.862 1.974 0 1.218.798 2.016 1.862 2.016z" id="bednumber_206" fill="#1B50AF"/>
        </g>
      </g>
      <g id="cabin_207-208" transform="translate(342)">
        <path id="cabin_hilight_207-208" fill="#D5EEFA" transform="rotate(-180 72.5 73)" d="M0 0h94v76h51v70H0z"/>
        <g id="bed_207" transform="translate(98 80)">
          <path id="highlight_207" fill="#FFF" d="M0 0h39v39H0z"/>
          <path d="M2 0v35h1v-1a4 4 0 014-4h25a4 4 0 014 4v1h1V0h2v45h-2v-6H2v6H0V0h2zm30 31H7a3 3 0 00-3 3v1h31v-1a3 3 0 00-3-3z" fill="#1B50AF" fill-rule="nonzero"/>
          <path d="M14.782 16.398c0 1.904-1.848 3.892-4.97 5.978h5.208V24H7.558v-1.568c3.262-2.632 5.278-4.326 5.278-5.936 0-.882-.56-1.4-1.498-1.4-.854 0-1.722.518-1.722 2.03H7.74c-.028-2.1 1.456-3.458 3.71-3.458 2.03 0 3.332.966 3.332 2.73zm1.12 2.506c0-3.08 1.372-5.236 4.088-5.236 2.702 0 4.074 2.156 4.074 5.236 0 3.094-1.372 5.278-4.074 5.278-2.716 0-4.088-2.184-4.088-5.278zm6.188 0c0-2.422-.728-3.78-2.1-3.78s-2.114 1.358-2.114 3.78c0 2.436.742 3.822 2.114 3.822 1.372 0 2.1-1.386 2.1-3.822zm2.492-5.054h7.462v1.624c-2.646 2.702-3.934 4.872-4.13 8.526h-2.128c.168-3.528 2.044-6.384 4.312-8.526h-5.516V13.85z" id="bednumber_207" fill="#1B50AF"/>
        </g>
        <g id="bed_208" transform="translate(98 35)">
          <path id="highlight_208" fill="#FFF" d="M0 2h39v37H0z"/>
          <path d="M2 0v2l35-.001V0h2v45h-2v-6H2v6H0V0h2zm35 3.999L2 4v31h1v-1a4 4 0 014-4h25a4 4 0 014 4v1h1V3.999zM32 31H7a3 3 0 00-3 3v1h31v-1a3 3 0 00-3-3z" fill="#1B50AF" fill-rule="nonzero"/>
          <path d="M13.865 16.398c0 1.904-1.848 3.892-4.97 5.978h5.208V24H6.641v-1.568c3.262-2.632 5.278-4.326 5.278-5.936 0-.882-.56-1.4-1.498-1.4-.854 0-1.722.518-1.722 2.03H6.823c-.028-2.1 1.456-3.458 3.71-3.458 2.03 0 3.332.966 3.332 2.73zm1.12 2.506c0-3.08 1.372-5.236 4.088-5.236 2.702 0 4.074 2.156 4.074 5.236 0 3.094-1.372 5.278-4.074 5.278-2.716 0-4.088-2.184-4.088-5.278zm6.188 0c0-2.422-.728-3.78-2.1-3.78s-2.114 1.358-2.114 3.78c0 2.436.742 3.822 2.114 3.822 1.372 0 2.1-1.386 2.1-3.822zm10.556-2.632c0 .91-.364 1.764-1.232 2.296 1.134.644 1.54 1.554 1.54 2.534 0 1.988-1.694 3.08-3.85 3.08-2.142 0-3.836-1.092-3.836-3.08 0-.98.42-1.904 1.554-2.534-.84-.476-1.246-1.386-1.246-2.282 0-1.512 1.386-2.618 3.528-2.618 2.156 0 3.542 1.106 3.542 2.604zm-3.542-1.148c-1.008 0-1.652.546-1.652 1.386 0 .84.644 1.456 1.652 1.456s1.666-.616 1.666-1.456-.658-1.386-1.666-1.386zm-1.862 5.894c0 1.008.728 1.708 1.862 1.708 1.148 0 1.876-.7 1.876-1.708s-.728-1.666-1.876-1.666c-1.134 0-1.862.658-1.862 1.666z" id="bednumber_208" fill="#1B50AF"/>
        </g>
      </g>
      <g id="cabin_209-210" transform="translate(490)">
        <path id="cabin_hilight_209-210" fill="#D5EEFA" d="M0 0h94v73h51v73H0z"/>
        <g id="bed_209" transform="translate(8 80)">
          <path id="highlight_209" fill="#FFF" d="M0 0h39v39H0z"/>
          <path d="M2 0v35h1v-1a4 4 0 014-4h25a4 4 0 014 4v1h1V0h2v45h-2v-6H2v6H0V0h2zm30 31H7a3 3 0 00-3 3v1h31v-1a3 3 0 00-3-3z" fill="#1B50AF" fill-rule="nonzero"/>
          <path d="M13.998 16.398c0 1.904-1.848 3.892-4.97 5.978h5.208V24H6.774v-1.568c3.262-2.632 5.278-4.326 5.278-5.936 0-.882-.56-1.4-1.498-1.4-.854 0-1.722.518-1.722 2.03H6.956c-.028-2.1 1.456-3.458 3.71-3.458 2.03 0 3.332.966 3.332 2.73zm1.12 2.506c0-3.08 1.372-5.236 4.088-5.236 2.702 0 4.074 2.156 4.074 5.236 0 3.094-1.372 5.278-4.074 5.278-2.716 0-4.088-2.184-4.088-5.278zm6.188 0c0-2.422-.728-3.78-2.1-3.78s-2.114 1.358-2.114 3.78c0 2.436.742 3.822 2.114 3.822 1.372 0 2.1-1.386 2.1-3.822zm8.75.714c-.434.546-1.246.966-2.324.966-1.862 0-3.43-1.288-3.43-3.472 0-2.086 1.582-3.444 3.78-3.444 2.716 0 3.906 2.184 3.906 5.026 0 2.912-1.092 5.488-4.116 5.488-2.212 0-3.248-1.512-3.36-2.8h1.89c.098.84.756 1.316 1.596 1.316 1.274 0 2.058-1.204 2.058-3.08zm-1.974-4.48c-1.05 0-1.82.77-1.82 1.988 0 1.19.77 1.974 1.82 1.974s1.848-.784 1.848-1.974c0-1.204-.798-1.988-1.848-1.988z" id="bednumber_209" fill="#1B50AF"/>
        </g>
        <g id="bed_210" transform="translate(8 35)">
          <path id="highlight_210" fill="#FFF" d="M0 2h39v37H0z"/>
          <path d="M2 0v2l35-.001V0h2v45h-2v-6H2v6H0V0h2zm35 3.999L2 4v31h1v-1a4 4 0 014-4h25a4 4 0 014 4v1h1V3.999zM32 31H7a3 3 0 00-3 3v1h31v-1a3 3 0 00-3-3z" fill="#1B50AF" fill-rule="nonzero"/>
          <path d="M15.769 16.398c0 1.904-1.848 3.892-4.97 5.978h5.208V24H8.545v-1.568c3.262-2.632 5.278-4.326 5.278-5.936 0-.882-.56-1.4-1.498-1.4-.854 0-1.722.518-1.722 2.03H8.727c-.028-2.1 1.456-3.458 3.71-3.458 2.03 0 3.332.966 3.332 2.73zM18.513 24v-7.588h-2.184v-1.316c1.47-.042 2.156-.14 2.646-1.246h1.47V24h-1.932zm3.542-5.096c0-3.08 1.372-5.236 4.088-5.236 2.702 0 4.074 2.156 4.074 5.236 0 3.094-1.372 5.278-4.074 5.278-2.716 0-4.088-2.184-4.088-5.278zm6.188 0c0-2.422-.728-3.78-2.1-3.78s-2.114 1.358-2.114 3.78c0 2.436.742 3.822 2.114 3.822 1.372 0 2.1-1.386 2.1-3.822z" id="bednumber_210" fill="#1B50AF"/>
        </g>
      </g>
      <g id="cabin_211-212" transform="translate(587)">
        <path id="cabin_hilight_211-212" fill="#D5EEFA" transform="rotate(-180 72.5 73)" d="M0 0h94v76h51v70H0z"/>
        <g id="bed_211" transform="translate(98 80)">
          <path id="highlight_211" fill="#FFF" d="M0 0h39v39H0z"/>
          <path d="M2 0v35h1v-1a4 4 0 014-4h25a4 4 0 014 4v1h1V0h2v45h-2v-6H2v6H0V0h2zm30 31H7a3 3 0 00-3 3v1h31v-1a3 3 0 00-3-3z" fill="#1B50AF" fill-rule="nonzero"/>
          <path d="M17.827 16.398c0 1.904-1.848 3.892-4.97 5.978h5.208V24h-7.462v-1.568c3.262-2.632 5.278-4.326 5.278-5.936 0-.882-.56-1.4-1.498-1.4-.854 0-1.722.518-1.722 2.03h-1.876c-.028-2.1 1.456-3.458 3.71-3.458 2.03 0 3.332.966 3.332 2.73zM20.571 24v-7.588h-2.184v-1.316c1.47-.042 2.156-.14 2.646-1.246h1.47V24h-1.932zm5.166 0v-7.588h-2.184v-1.316c1.47-.042 2.156-.14 2.646-1.246h1.47V24h-1.932z" id="bednumber_211" fill="#1B50AF"/>
        </g>
        <g id="bed_212" transform="translate(98 35)">
          <path id="highlight_212" fill="#FFF" d="M0 2h39v37H0z"/>
          <path d="M2 0v2l35-.001V0h2v45h-2v-6H2v6H0V0h2zm35 3.999L2 4v31h1v-1a4 4 0 014-4h25a4 4 0 014 4v1h1V3.999zM32 31H7a3 3 0 00-3 3v1h31v-1a3 3 0 00-3-3z" fill="#1B50AF" fill-rule="nonzero"/>
          <path d="M16.357 16.398c0 1.904-1.848 3.892-4.97 5.978h5.208V24H9.133v-1.568c3.262-2.632 5.278-4.326 5.278-5.936 0-.882-.56-1.4-1.498-1.4-.854 0-1.722.518-1.722 2.03H9.315c-.028-2.1 1.456-3.458 3.71-3.458 2.03 0 3.332.966 3.332 2.73zM19.101 24v-7.588h-2.184v-1.316c1.47-.042 2.156-.14 2.646-1.246h1.47V24h-1.932zm10.528-7.602c0 1.904-1.848 3.892-4.97 5.978h5.208V24h-7.462v-1.568c3.262-2.632 5.278-4.326 5.278-5.936 0-.882-.56-1.4-1.498-1.4-.854 0-1.722.518-1.722 2.03h-1.876c-.028-2.1 1.456-3.458 3.71-3.458 2.03 0 3.332.966 3.332 2.73z" id="bednumber_212" fill="#1B50AF"/>
        </g>
      </g>
      <g id="cabin_213-214" transform="translate(735)">
        <path id="cabin_hilight_213-214" fill="#D5EEFA" d="M0 0h94v73h51v73H0z"/>
        <g id="bed_213" transform="translate(8 80)">
          <path id="highlight_213" fill="#FFF" d="M0 0h39v39H0z"/>
          <path d="M2 0v35h1v-1a4 4 0 014-4h25a4 4 0 014 4v1h1V0h2v45h-2v-6H2v6H0V0h2zm30 31H7a3 3 0 00-3 3v1h31v-1a3 3 0 00-3-3z" fill="#1B50AF" fill-rule="nonzero"/>
          <path d="M16.112 16.398c0 1.904-1.848 3.892-4.97 5.978h5.208V24H8.888v-1.568c3.262-2.632 5.278-4.326 5.278-5.936 0-.882-.56-1.4-1.498-1.4-.854 0-1.722.518-1.722 2.03H9.07c-.028-2.1 1.456-3.458 3.71-3.458 2.03 0 3.332.966 3.332 2.73zM18.856 24v-7.588h-2.184v-1.316c1.47-.042 2.156-.14 2.646-1.246h1.47V24h-1.932zm9.072-2.856c0-1.19-1.106-1.666-2.548-1.666h-.406v-1.512h.336c1.456 0 2.366-.532 2.366-1.484 0-.882-.77-1.358-1.61-1.358-1.162 0-1.904.742-2.002 1.792H22.23c.224-2.016 1.624-3.248 3.948-3.248 1.694 0 3.444.812 3.444 2.73 0 .98-.602 1.806-1.372 2.226a2.656 2.656 0 011.638 2.464c0 2.058-1.778 3.094-3.92 3.094-2.324 0-3.696-1.512-3.822-3.374h1.82c.14 1.022.798 1.918 2.058 1.918 1.05 0 1.904-.63 1.904-1.582z" id="bednumber_213" fill="#1B50AF"/>
        </g>
        <g id="bed_214" transform="translate(8 35)">
          <path id="highlight_214" fill="#FFF" d="M0 2h39v37H0z"/>
          <path d="M2 0v2l35-.001V0h2v45h-2v-6H2v6H0V0h2zm35 3.999L2 4v31h1v-1a4 4 0 014-4h25a4 4 0 014 4v1h1V3.999zM32 31H7a3 3 0 00-3 3v1h31v-1a3 3 0 00-3-3z" fill="#1B50AF" fill-rule="nonzero"/>
          <path d="M15.972 16.398c0 1.904-1.848 3.892-4.97 5.978h5.208V24H8.748v-1.568c3.262-2.632 5.278-4.326 5.278-5.936 0-.882-.56-1.4-1.498-1.4-.854 0-1.722.518-1.722 2.03H8.93c-.028-2.1 1.456-3.458 3.71-3.458 2.03 0 3.332.966 3.332 2.73zM18.716 24v-7.588h-2.184v-1.316c1.47-.042 2.156-.14 2.646-1.246h1.47V24h-1.932zm11.76-2.436H28.74V24h-1.918v-2.436H21.81v-1.512l5.04-6.202h1.89v6.076h1.736v1.638zm-6.552-1.638h2.898V16.3l-2.898 3.626z" id="bednumber_214" fill="#1B50AF"/>
        </g>
      </g>
      <g id="cabin_215-216" transform="translate(832)">
        <path id="cabin_hilight_215-216" fill="#D5EEFA" transform="rotate(-180 72.5 73)" d="M0 0h94v76h51v70H0z"/>
        <g id="bed_215" transform="translate(98 80)">
          <path id="highlight_215" fill="#FFF" d="M0 0h39v39H0z"/>
          <path d="M2 0v35h1v-1a4 4 0 014-4h25a4 4 0 014 4v1h1V0h2v45h-2v-6H2v6H0V0h2zm30 31H7a3 3 0 00-3 3v1h31v-1a3 3 0 00-3-3z" fill="#1B50AF" fill-rule="nonzero"/>
          <path d="M16.049 16.398c0 1.904-1.848 3.892-4.97 5.978h5.208V24H8.825v-1.568c3.262-2.632 5.278-4.326 5.278-5.936 0-.882-.56-1.4-1.498-1.4-.854 0-1.722.518-1.722 2.03H9.007c-.028-2.1 1.456-3.458 3.71-3.458 2.03 0 3.332.966 3.332 2.73zM18.793 24v-7.588h-2.184v-1.316c1.47-.042 2.156-.14 2.646-1.246h1.47V24h-1.932zm9.184-3.332c0-1.386-.938-2.072-1.876-2.072-.896 0-1.54.448-1.736.924l-1.764-.084.672-5.586h6.258v1.624h-4.676l-.28 2.17c.42-.308 1.078-.56 2.016-.56 1.736 0 3.346 1.232 3.346 3.57 0 2.24-1.736 3.528-3.822 3.528-2.38 0-3.64-1.624-3.752-3.374h1.82c.112 1.05.714 1.918 1.96 1.918 1.064 0 1.834-.77 1.834-2.058z" id="bednumber_215" fill="#1B50AF"/>
        </g>
        <g id="bed_216" transform="translate(98 35)">
          <path id="highlight_216" fill="#FFF" d="M0 2h39v37H0z"/>
          <path d="M2 0v2l35-.001V0h2v45h-2v-6H2v6H0V0h2zm35 3.999L2 4v31h1v-1a4 4 0 014-4h25a4 4 0 014 4v1h1V3.999zM32 31H7a3 3 0 00-3 3v1h31v-1a3 3 0 00-3-3z" fill="#1B50AF" fill-rule="nonzero"/>
          <path d="M16.014 16.398c0 1.904-1.848 3.892-4.97 5.978h5.208V24H8.79v-1.568c3.262-2.632 5.278-4.326 5.278-5.936 0-.882-.56-1.4-1.498-1.4-.854 0-1.722.518-1.722 2.03H8.972c-.028-2.1 1.456-3.458 3.71-3.458 2.03 0 3.332.966 3.332 2.73zM18.758 24v-7.588h-2.184v-1.316c1.47-.042 2.156-.14 2.646-1.246h1.47V24h-1.932zm5.474-5.768c.434-.546 1.246-.966 2.31-.966 1.876 0 3.444 1.274 3.444 3.472 0 2.086-1.582 3.444-3.78 3.444-2.716 0-3.906-2.184-3.906-5.026 0-2.912 1.078-5.488 4.116-5.488 2.212 0 3.248 1.498 3.36 2.8h-1.89c-.098-.84-.77-1.33-1.596-1.33-1.274 0-2.058 1.204-2.058 3.094zm1.974 4.494c1.05 0 1.82-.784 1.82-2.016 0-1.19-.77-1.974-1.82-1.974-1.064 0-1.862.784-1.862 1.974 0 1.218.798 2.016 1.862 2.016z" id="bednumber_216" fill="#1B50AF"/>
        </g>
      </g>
    </g>
    <g id="Service-badges" transform="translate(367 90)">
      <g id="service-badge" transform="translate(42)">
        <circle stroke="#fff" stroke-width="2" fill="#f2f2f2" cx="29" cy="29" r="28"/>
        <g id="Icon" transform="translate(17 17)">
          <path d="M0 0h24v24H0z"/>
          <path d="M19.5 14.5v-.75c0-.69-.56-1.25-1.25-1.25h-.75v.75c0 .69.56 1.25 1.25 1.25h.75zm3 0v-.75c0-.69-.56-1.25-1.25-1.25h-.75v.75c0 .69.56 1.25 1.25 1.25h.75zm-6 0v-.75c0-.69-.56-1.25-1.25-1.25h-.75v.75c0 .69.56 1.25 1.25 1.25h.75zm-1.357-4.995A3.52 3.52 0 0118.5 7c1.539 0 2.92 1.03 3.355 2.5l-6.713.005zM20.5 0a3 3 0 00-3 3v2.096c-1.999.375-3.685 1.848-4.275 3.841a1.973 1.973 0 00.316 1.757c.383.512.968.806 1.607.806h6.704c.638 0 1.224-.294 1.606-.806.381-.51.496-1.15.317-1.757-.59-1.993-2.277-3.465-4.275-3.84V3a1 1 0 011-1h2.25C23.44 2 24 1.44 24 .75V0h-3.5zm1.288 21.91c-.286 0-.509-.096-.667-.29-.157-.193-.236-.55-.236-1.07 0-.42.065-.729.198-.925a.853.853 0 01.757-.398.86.86 0 01.393.09c.119.06.217.146.299.256.049.067.096.171.141.314l1.282-.285c-.165-.495-.416-.863-.755-1.102-.338-.24-.803-.359-1.395-.359-.757 0-1.342.209-1.755.627-.415.417-.62 1.014-.62 1.791 0 .583.117 1.061.352 1.435.235.374.514.635.838.784.323.148.741.222 1.251.222.421 0 .769-.061 1.04-.183a1.75 1.75 0 00.684-.541c.184-.24.319-.538.405-.895l-1.273-.384c-.064.297-.166.523-.309.68-.142.155-.351.233-.63.233zm-4.42-1.062l-.728-2.627h-1.375l-.726 2.63-.496-2.63h-1.38l1.046 4.699h1.424l.82-2.959.825 2.959H18.2l1.037-4.699h-1.373l-.497 2.627zM4.25 16C3.56 16 3 16.56 3 17.25V18h8v-.75c0-.69-.56-1.25-1.25-1.25h-5.5zm0-11.5C3.56 4.5 3 5.06 3 5.75v.75h8v-.75c0-.69-.56-1.25-1.25-1.25h-5.5zM2 4.25C2 3.56 1.44 3 .75 3H0v21h.75C1.44 24 2 23.44 2 22.75V21h7.75c.69 0 1.25-.56 1.25-1.25V19H2V9.5h7.75c.69 0 1.25-.56 1.25-1.25V7.5H2V4.25z" fill="#1b50af"/>
        </g>
      </g>
      <g id="service-badge" transform="translate(0 74)">
        <circle stroke="#fff" stroke-width="2" fill="#f2f2f2" cx="29" cy="29" r="28"/>
        <g id="Icon" transform="translate(17 17)">
          <path d="M0 0h24v24H0z"/>
          <path d="M19.5 14.5v-.75c0-.69-.56-1.25-1.25-1.25h-.75v.75c0 .69.56 1.25 1.25 1.25h.75zm3 0v-.75c0-.69-.56-1.25-1.25-1.25h-.75v.75c0 .69.56 1.25 1.25 1.25h.75zm-6 0v-.75c0-.69-.56-1.25-1.25-1.25h-.75v.75c0 .69.56 1.25 1.25 1.25h.75zm-1.357-4.995A3.52 3.52 0 0118.5 7c1.539 0 2.92 1.03 3.355 2.5l-6.713.005zM20.5 0a3 3 0 00-3 3v2.096c-1.999.375-3.685 1.848-4.275 3.841a1.973 1.973 0 00.316 1.757c.383.512.968.806 1.607.806h6.704c.638 0 1.224-.294 1.606-.806.381-.51.496-1.15.317-1.757-.59-1.993-2.277-3.465-4.275-3.84V3a1 1 0 011-1h2.25C23.44 2 24 1.44 24 .75V0h-3.5zm1.288 21.91c-.286 0-.509-.096-.667-.29-.157-.193-.236-.55-.236-1.07 0-.42.065-.729.198-.925a.853.853 0 01.757-.398.86.86 0 01.393.09c.119.06.217.146.299.256.049.067.096.171.141.314l1.282-.285c-.165-.495-.416-.863-.755-1.102-.338-.24-.803-.359-1.395-.359-.757 0-1.342.209-1.755.627-.415.417-.62 1.014-.62 1.791 0 .583.117 1.061.352 1.435.235.374.514.635.838.784.323.148.741.222 1.251.222.421 0 .769-.061 1.04-.183a1.75 1.75 0 00.684-.541c.184-.24.319-.538.405-.895l-1.273-.384c-.064.297-.166.523-.309.68-.142.155-.351.233-.63.233zm-4.42-1.062l-.728-2.627h-1.375l-.726 2.63-.496-2.63h-1.38l1.046 4.699h1.424l.82-2.959.825 2.959H18.2l1.037-4.699h-1.373l-.497 2.627zM4.25 16C3.56 16 3 16.56 3 17.25V18h8v-.75c0-.69-.56-1.25-1.25-1.25h-5.5zm0-11.5C3.56 4.5 3 5.06 3 5.75v.75h8v-.75c0-.69-.56-1.25-1.25-1.25h-5.5zM2 4.25C2 3.56 1.44 3 .75 3H0v21h.75C1.44 24 2 23.44 2 22.75V21h7.75c.69 0 1.25-.56 1.25-1.25V19H2V9.5h7.75c.69 0 1.25-.56 1.25-1.25V7.5H2V4.25z" fill="#1b50af"/>
        </g>
      </g>
      <g id="service-badge" transform="translate(287)">
        <circle stroke="#fff" stroke-width="2" fill="#f2f2f2" cx="29" cy="29" r="28"/>
        <g id="Icon" transform="translate(17 17)">
          <path d="M0 0h24v24H0z"/>
          <path d="M19.5 14.5v-.75c0-.69-.56-1.25-1.25-1.25h-.75v.75c0 .69.56 1.25 1.25 1.25h.75zm3 0v-.75c0-.69-.56-1.25-1.25-1.25h-.75v.75c0 .69.56 1.25 1.25 1.25h.75zm-6 0v-.75c0-.69-.56-1.25-1.25-1.25h-.75v.75c0 .69.56 1.25 1.25 1.25h.75zm-1.357-4.995A3.52 3.52 0 0118.5 7c1.539 0 2.92 1.03 3.355 2.5l-6.713.005zM20.5 0a3 3 0 00-3 3v2.096c-1.999.375-3.685 1.848-4.275 3.841a1.973 1.973 0 00.316 1.757c.383.512.968.806 1.607.806h6.704c.638 0 1.224-.294 1.606-.806.381-.51.496-1.15.317-1.757-.59-1.993-2.277-3.465-4.275-3.84V3a1 1 0 011-1h2.25C23.44 2 24 1.44 24 .75V0h-3.5zm1.288 21.91c-.286 0-.509-.096-.667-.29-.157-.193-.236-.55-.236-1.07 0-.42.065-.729.198-.925a.853.853 0 01.757-.398.86.86 0 01.393.09c.119.06.217.146.299.256.049.067.096.171.141.314l1.282-.285c-.165-.495-.416-.863-.755-1.102-.338-.24-.803-.359-1.395-.359-.757 0-1.342.209-1.755.627-.415.417-.62 1.014-.62 1.791 0 .583.117 1.061.352 1.435.235.374.514.635.838.784.323.148.741.222 1.251.222.421 0 .769-.061 1.04-.183a1.75 1.75 0 00.684-.541c.184-.24.319-.538.405-.895l-1.273-.384c-.064.297-.166.523-.309.68-.142.155-.351.233-.63.233zm-4.42-1.062l-.728-2.627h-1.375l-.726 2.63-.496-2.63h-1.38l1.046 4.699h1.424l.82-2.959.825 2.959H18.2l1.037-4.699h-1.373l-.497 2.627zM4.25 16C3.56 16 3 16.56 3 17.25V18h8v-.75c0-.69-.56-1.25-1.25-1.25h-5.5zm0-11.5C3.56 4.5 3 5.06 3 5.75v.75h8v-.75c0-.69-.56-1.25-1.25-1.25h-5.5zM2 4.25C2 3.56 1.44 3 .75 3H0v21h.75C1.44 24 2 23.44 2 22.75V21h7.75c.69 0 1.25-.56 1.25-1.25V19H2V9.5h7.75c.69 0 1.25-.56 1.25-1.25V7.5H2V4.25z" fill="#1b50af"/>
        </g>
      </g>
      <g id="service-badge" transform="translate(245 74)">
        <circle stroke="#fff" stroke-width="2" fill="#f2f2f2" cx="29" cy="29" r="28"/>
        <g id="Icon" transform="translate(17 17)">
          <path d="M0 0h24v24H0z"/>
          <path d="M19.5 14.5v-.75c0-.69-.56-1.25-1.25-1.25h-.75v.75c0 .69.56 1.25 1.25 1.25h.75zm3 0v-.75c0-.69-.56-1.25-1.25-1.25h-.75v.75c0 .69.56 1.25 1.25 1.25h.75zm-6 0v-.75c0-.69-.56-1.25-1.25-1.25h-.75v.75c0 .69.56 1.25 1.25 1.25h.75zm-1.357-4.995A3.52 3.52 0 0118.5 7c1.539 0 2.92 1.03 3.355 2.5l-6.713.005zM20.5 0a3 3 0 00-3 3v2.096c-1.999.375-3.685 1.848-4.275 3.841a1.973 1.973 0 00.316 1.757c.383.512.968.806 1.607.806h6.704c.638 0 1.224-.294 1.606-.806.381-.51.496-1.15.317-1.757-.59-1.993-2.277-3.465-4.275-3.84V3a1 1 0 011-1h2.25C23.44 2 24 1.44 24 .75V0h-3.5zm1.288 21.91c-.286 0-.509-.096-.667-.29-.157-.193-.236-.55-.236-1.07 0-.42.065-.729.198-.925a.853.853 0 01.757-.398.86.86 0 01.393.09c.119.06.217.146.299.256.049.067.096.171.141.314l1.282-.285c-.165-.495-.416-.863-.755-1.102-.338-.24-.803-.359-1.395-.359-.757 0-1.342.209-1.755.627-.415.417-.62 1.014-.62 1.791 0 .583.117 1.061.352 1.435.235.374.514.635.838.784.323.148.741.222 1.251.222.421 0 .769-.061 1.04-.183a1.75 1.75 0 00.684-.541c.184-.24.319-.538.405-.895l-1.273-.384c-.064.297-.166.523-.309.68-.142.155-.351.233-.63.233zm-4.42-1.062l-.728-2.627h-1.375l-.726 2.63-.496-2.63h-1.38l1.046 4.699h1.424l.82-2.959.825 2.959H18.2l1.037-4.699h-1.373l-.497 2.627zM4.25 16C3.56 16 3 16.56 3 17.25V18h8v-.75c0-.69-.56-1.25-1.25-1.25h-5.5zm0-11.5C3.56 4.5 3 5.06 3 5.75v.75h8v-.75c0-.69-.56-1.25-1.25-1.25h-5.5zM2 4.25C2 3.56 1.44 3 .75 3H0v21h.75C1.44 24 2 23.44 2 22.75V21h7.75c.69 0 1.25-.56 1.25-1.25V19H2V9.5h7.75c.69 0 1.25-.56 1.25-1.25V7.5H2V4.25z" fill="#1b50af"/>
        </g>
      </g>
      <g id="service-badge" transform="translate(532)">
        <circle stroke="#fff" stroke-width="2" fill="#f2f2f2" cx="29" cy="29" r="28"/>
        <g id="Icon" transform="translate(17 17)">
          <path d="M0 0h24v24H0z"/>
          <path d="M19.5 14.5v-.75c0-.69-.56-1.25-1.25-1.25h-.75v.75c0 .69.56 1.25 1.25 1.25h.75zm3 0v-.75c0-.69-.56-1.25-1.25-1.25h-.75v.75c0 .69.56 1.25 1.25 1.25h.75zm-6 0v-.75c0-.69-.56-1.25-1.25-1.25h-.75v.75c0 .69.56 1.25 1.25 1.25h.75zm-1.357-4.995A3.52 3.52 0 0118.5 7c1.539 0 2.92 1.03 3.355 2.5l-6.713.005zM20.5 0a3 3 0 00-3 3v2.096c-1.999.375-3.685 1.848-4.275 3.841a1.973 1.973 0 00.316 1.757c.383.512.968.806 1.607.806h6.704c.638 0 1.224-.294 1.606-.806.381-.51.496-1.15.317-1.757-.59-1.993-2.277-3.465-4.275-3.84V3a1 1 0 011-1h2.25C23.44 2 24 1.44 24 .75V0h-3.5zm1.288 21.91c-.286 0-.509-.096-.667-.29-.157-.193-.236-.55-.236-1.07 0-.42.065-.729.198-.925a.853.853 0 01.757-.398.86.86 0 01.393.09c.119.06.217.146.299.256.049.067.096.171.141.314l1.282-.285c-.165-.495-.416-.863-.755-1.102-.338-.24-.803-.359-1.395-.359-.757 0-1.342.209-1.755.627-.415.417-.62 1.014-.62 1.791 0 .583.117 1.061.352 1.435.235.374.514.635.838.784.323.148.741.222 1.251.222.421 0 .769-.061 1.04-.183a1.75 1.75 0 00.684-.541c.184-.24.319-.538.405-.895l-1.273-.384c-.064.297-.166.523-.309.68-.142.155-.351.233-.63.233zm-4.42-1.062l-.728-2.627h-1.375l-.726 2.63-.496-2.63h-1.38l1.046 4.699h1.424l.82-2.959.825 2.959H18.2l1.037-4.699h-1.373l-.497 2.627zM4.25 16C3.56 16 3 16.56 3 17.25V18h8v-.75c0-.69-.56-1.25-1.25-1.25h-5.5zm0-11.5C3.56 4.5 3 5.06 3 5.75v.75h8v-.75c0-.69-.56-1.25-1.25-1.25h-5.5zM2 4.25C2 3.56 1.44 3 .75 3H0v21h.75C1.44 24 2 23.44 2 22.75V21h7.75c.69 0 1.25-.56 1.25-1.25V19H2V9.5h7.75c.69 0 1.25-.56 1.25-1.25V7.5H2V4.25z" fill="#1b50af"/>
        </g>
      </g>
      <g id="service-badge" transform="translate(490 74)">
        <circle stroke="#fff" stroke-width="2" fill="#f2f2f2" cx="29" cy="29" r="28"/>
        <g id="Icon" transform="translate(17 17)">
          <path d="M0 0h24v24H0z"/>
          <path d="M19.5 14.5v-.75c0-.69-.56-1.25-1.25-1.25h-.75v.75c0 .69.56 1.25 1.25 1.25h.75zm3 0v-.75c0-.69-.56-1.25-1.25-1.25h-.75v.75c0 .69.56 1.25 1.25 1.25h.75zm-6 0v-.75c0-.69-.56-1.25-1.25-1.25h-.75v.75c0 .69.56 1.25 1.25 1.25h.75zm-1.357-4.995A3.52 3.52 0 0118.5 7c1.539 0 2.92 1.03 3.355 2.5l-6.713.005zM20.5 0a3 3 0 00-3 3v2.096c-1.999.375-3.685 1.848-4.275 3.841a1.973 1.973 0 00.316 1.757c.383.512.968.806 1.607.806h6.704c.638 0 1.224-.294 1.606-.806.381-.51.496-1.15.317-1.757-.59-1.993-2.277-3.465-4.275-3.84V3a1 1 0 011-1h2.25C23.44 2 24 1.44 24 .75V0h-3.5zm1.288 21.91c-.286 0-.509-.096-.667-.29-.157-.193-.236-.55-.236-1.07 0-.42.065-.729.198-.925a.853.853 0 01.757-.398.86.86 0 01.393.09c.119.06.217.146.299.256.049.067.096.171.141.314l1.282-.285c-.165-.495-.416-.863-.755-1.102-.338-.24-.803-.359-1.395-.359-.757 0-1.342.209-1.755.627-.415.417-.62 1.014-.62 1.791 0 .583.117 1.061.352 1.435.235.374.514.635.838.784.323.148.741.222 1.251.222.421 0 .769-.061 1.04-.183a1.75 1.75 0 00.684-.541c.184-.24.319-.538.405-.895l-1.273-.384c-.064.297-.166.523-.309.68-.142.155-.351.233-.63.233zm-4.42-1.062l-.728-2.627h-1.375l-.726 2.63-.496-2.63h-1.38l1.046 4.699h1.424l.82-2.959.825 2.959H18.2l1.037-4.699h-1.373l-.497 2.627zM4.25 16C3.56 16 3 16.56 3 17.25V18h8v-.75c0-.69-.56-1.25-1.25-1.25h-5.5zm0-11.5C3.56 4.5 3 5.06 3 5.75v.75h8v-.75c0-.69-.56-1.25-1.25-1.25h-5.5zM2 4.25C2 3.56 1.44 3 .75 3H0v21h.75C1.44 24 2 23.44 2 22.75V21h7.75c.69 0 1.25-.56 1.25-1.25V19H2V9.5h7.75c.69 0 1.25-.56 1.25-1.25V7.5H2V4.25z" fill="#1b50af"/>
        </g>
      </g>
      <g id="service-badge" transform="translate(777)">
        <circle stroke="#fff" stroke-width="2" fill="#f2f2f2" cx="29" cy="29" r="28"/>
        <g id="Icon" transform="translate(17 17)">
          <path d="M0 0h24v24H0z"/>
          <path d="M19.5 14.5v-.75c0-.69-.56-1.25-1.25-1.25h-.75v.75c0 .69.56 1.25 1.25 1.25h.75zm3 0v-.75c0-.69-.56-1.25-1.25-1.25h-.75v.75c0 .69.56 1.25 1.25 1.25h.75zm-6 0v-.75c0-.69-.56-1.25-1.25-1.25h-.75v.75c0 .69.56 1.25 1.25 1.25h.75zm-1.357-4.995A3.52 3.52 0 0118.5 7c1.539 0 2.92 1.03 3.355 2.5l-6.713.005zM20.5 0a3 3 0 00-3 3v2.096c-1.999.375-3.685 1.848-4.275 3.841a1.973 1.973 0 00.316 1.757c.383.512.968.806 1.607.806h6.704c.638 0 1.224-.294 1.606-.806.381-.51.496-1.15.317-1.757-.59-1.993-2.277-3.465-4.275-3.84V3a1 1 0 011-1h2.25C23.44 2 24 1.44 24 .75V0h-3.5zm1.288 21.91c-.286 0-.509-.096-.667-.29-.157-.193-.236-.55-.236-1.07 0-.42.065-.729.198-.925a.853.853 0 01.757-.398.86.86 0 01.393.09c.119.06.217.146.299.256.049.067.096.171.141.314l1.282-.285c-.165-.495-.416-.863-.755-1.102-.338-.24-.803-.359-1.395-.359-.757 0-1.342.209-1.755.627-.415.417-.62 1.014-.62 1.791 0 .583.117 1.061.352 1.435.235.374.514.635.838.784.323.148.741.222 1.251.222.421 0 .769-.061 1.04-.183a1.75 1.75 0 00.684-.541c.184-.24.319-.538.405-.895l-1.273-.384c-.064.297-.166.523-.309.68-.142.155-.351.233-.63.233zm-4.42-1.062l-.728-2.627h-1.375l-.726 2.63-.496-2.63h-1.38l1.046 4.699h1.424l.82-2.959.825 2.959H18.2l1.037-4.699h-1.373l-.497 2.627zM4.25 16C3.56 16 3 16.56 3 17.25V18h8v-.75c0-.69-.56-1.25-1.25-1.25h-5.5zm0-11.5C3.56 4.5 3 5.06 3 5.75v.75h8v-.75c0-.69-.56-1.25-1.25-1.25h-5.5zM2 4.25C2 3.56 1.44 3 .75 3H0v21h.75C1.44 24 2 23.44 2 22.75V21h7.75c.69 0 1.25-.56 1.25-1.25V19H2V9.5h7.75c.69 0 1.25-.56 1.25-1.25V7.5H2V4.25z" fill="#1b50af"/>
        </g>
      </g>
      <g id="service-badge" transform="translate(735 74)">
        <circle stroke="#fff" stroke-width="2" fill="#f2f2f2" cx="29" cy="29" r="28"/>
        <g id="Icon" transform="translate(17 17)">
          <path d="M0 0h24v24H0z"/>
          <path d="M19.5 14.5v-.75c0-.69-.56-1.25-1.25-1.25h-.75v.75c0 .69.56 1.25 1.25 1.25h.75zm3 0v-.75c0-.69-.56-1.25-1.25-1.25h-.75v.75c0 .69.56 1.25 1.25 1.25h.75zm-6 0v-.75c0-.69-.56-1.25-1.25-1.25h-.75v.75c0 .69.56 1.25 1.25 1.25h.75zm-1.357-4.995A3.52 3.52 0 0118.5 7c1.539 0 2.92 1.03 3.355 2.5l-6.713.005zM20.5 0a3 3 0 00-3 3v2.096c-1.999.375-3.685 1.848-4.275 3.841a1.973 1.973 0 00.316 1.757c.383.512.968.806 1.607.806h6.704c.638 0 1.224-.294 1.606-.806.381-.51.496-1.15.317-1.757-.59-1.993-2.277-3.465-4.275-3.84V3a1 1 0 011-1h2.25C23.44 2 24 1.44 24 .75V0h-3.5zm1.288 21.91c-.286 0-.509-.096-.667-.29-.157-.193-.236-.55-.236-1.07 0-.42.065-.729.198-.925a.853.853 0 01.757-.398.86.86 0 01.393.09c.119.06.217.146.299.256.049.067.096.171.141.314l1.282-.285c-.165-.495-.416-.863-.755-1.102-.338-.24-.803-.359-1.395-.359-.757 0-1.342.209-1.755.627-.415.417-.62 1.014-.62 1.791 0 .583.117 1.061.352 1.435.235.374.514.635.838.784.323.148.741.222 1.251.222.421 0 .769-.061 1.04-.183a1.75 1.75 0 00.684-.541c.184-.24.319-.538.405-.895l-1.273-.384c-.064.297-.166.523-.309.68-.142.155-.351.233-.63.233zm-4.42-1.062l-.728-2.627h-1.375l-.726 2.63-.496-2.63h-1.38l1.046 4.699h1.424l.82-2.959.825 2.959H18.2l1.037-4.699h-1.373l-.497 2.627zM4.25 16C3.56 16 3 16.56 3 17.25V18h8v-.75c0-.69-.56-1.25-1.25-1.25h-5.5zm0-11.5C3.56 4.5 3 5.06 3 5.75v.75h8v-.75c0-.69-.56-1.25-1.25-1.25h-5.5zM2 4.25C2 3.56 1.44 3 .75 3H0v21h.75C1.44 24 2 23.44 2 22.75V21h7.75c.69 0 1.25-.56 1.25-1.25V19H2V9.5h7.75c.69 0 1.25-.56 1.25-1.25V7.5H2V4.25z" fill="#1b50af"/>
        </g>
      </g>
    </g>
  </g>
</svg>
