<svg viewBox="0 0 1586 237"
  xmlns="http://www.w3.org/2000/svg"
  xmlns:xlink="http://www.w3.org/1999/xlink"
  xmlns:vr="http://vr/wagonmap" preserveAspectRatio="xMinYMin meet">
  <defs>
    <svg id="pet-seat-icon" viewBox="0 0 620 620"
      xmlns="http://www.w3.org/2000/svg" preserveAspectRatio="xMinYMin meet">
      <g fill-rule="evenodd">
        <path d="M42.2 15.868a2.013 2.013 0 01-.716.132H27.548a2 2 0 01-1.02-.279l-7.883-4.669-2.736-6.519A2.5 2.5 0 0013.604 3h-2.676l1.26 3h-1.204a6 6 0 00-6 6v.099l-3.699 1.416a2 2 0 00-1.152 2.584l1.263 3.274A6 6 0 006.906 23h3.078v4.388c0 1.256.395 2.481 1.127 3.501l1.873 2.606V45h1.5a2.5 2.5 0 002.5-2.5v-9.004c0-.837-.263-1.654-.752-2.334l-1.87-2.606a2.002 2.002 0 01-.378-1.169V23a4 4 0 00-4-4H6.906a2 2 0 01-1.867-1.284l-.454-1.18 1.64-.627c1.581-.606 2.787-2.116 2.76-3.81V12c-.019-1.12.883-1.997 2-1.997h2.883l1.09 2.597a4.002 4.002 0 001.65 1.893l7.881 4.669a5.996 5.996 0 003.06.838h13.934c.735 0 1.462-.134 2.148-.397l2.748-1.053a2.5 2.5 0 001.605-2.334v-2.564L42.2 15.868zm4.067 8.562a2.499 2.499 0 00-3.228-1.44l-1.4.537 1.212 3.169c.088.228.133.471.133.715v17.584h1.5a2.5 2.5 0 002.5-2.5V27.41a6.01 6.01 0 00-.397-2.146l-.32-.834zm-9.445 4.117a4.001 4.001 0 00-4.668-1.384l-9.359 3.59a6.001 6.001 0 00-3.853 5.663L18.984 45l1.493-.007a2.501 2.501 0 002.488-2.52l-.023-6.097a2.005 2.005 0 011.288-1.889l9.356-3.589 3.016 4.153a2 2 0 01.382 1.175V45h1.5a2.5 2.5 0 002.5-2.5v-6.277c0-1.266-.4-2.5-1.145-3.524l-3.017-4.152z"/>
      </g>
    </svg>
  </defs>
  <g id="EDS_up" stroke="none" stroke-width="1" fill="none" fill-rule="evenodd">
    <path fill="#FFF" d="M0 0h1586v237H0z"/>
    <g transform="translate(3 2)">
      <path d="M20 4.18h223.538v225.685H20c-11.046 0-20-8.954-20-20V24.18c0-11.045 8.954-20 20-20z" fill="#F2F2F2"/>
      <path d="M1218 5.212L1580 5v76h-71v77h-61.474v72.91H1218c-11.046 0-20-8.954-20-20V25.224c.012-11.04 8.959-19.993 20-20.012z" fill="#F2F2F2" transform="matrix(-1 0 0 1 2778 0)"/>
      <path d="M1560.038 3.724c5.934 0 11.31 2.512 15.2 6.585 3.866 4.046 6.262 9.635 6.262 15.812h0V206.88c0 6.177-2.396 11.766-6.262 15.812-3.89 4.073-9.266 6.585-15.2 6.585h0H22.956c-5.934 0-11.31-2.512-15.2-6.585-3.865-4.046-6.262-9.635-6.262-15.812h0V26.12c0-6.177 2.397-11.766 6.262-15.812 3.89-4.073 9.266-6.585 15.2-6.585h0z" stroke="#DFDFDF" stroke-width="3"/>
      <g transform="translate(243.538 4.18)" fill="#D8D8D8" stroke="#DFDFDF" stroke-linecap="square" stroke-width="3">
        <path d="M135.839 89.857H1.452M1.497 0v222.088M75.497 90.321v131.767"/>
      </g>
      <g id="Stairs" transform="translate(243.494 1.673)">
        <path d="M2.006 1.827h162v13.11l-43.382 77.89H2.006v-91z" stroke="#DCDCDC" stroke-width="3"/>
        <g transform="translate(48.966 3.09)" stroke="#DCDCDC" stroke-linecap="square" stroke-width="2">
          <path d="M0 88.78v-88M15 88.78v-88M30 88.78v-88M46 88.78v-88M61 88.78v-88"/>
        </g>
        <path d="M77.006 37.62l9.192 9.193-9.192 9.192-2.828-2.828 4.349-4.35H41.006v-4h37.55l-4.378-4.378 2.828-2.829z" stroke="#FFF" fill="#DCDCDC"/>
      </g>
      <g id="Stairs" transform="translate(1196 157)">
        <path d="M133.825 1.825v71H2.175V36.73l20.26-34.904h111.39z" stroke="#DCDCDC" stroke-width="3"/>
        <g transform="rotate(180 40.5 35.912)" stroke="#DCDCDC" stroke-linecap="square" stroke-width="2">
          <path d="M0 70.78v-70M14 70.78v-70M28 70.78v-70M42 70.78v-70M56 70.78v-70"/>
        </g>
        <path d="M85.5 27.293l9.192 9.192-9.192 9.193-2.828-2.829L87.02 38.5H60.5v-4h26.55l-4.378-4.379 2.828-2.828z" stroke="#FFF" fill="#DCDCDC" transform="matrix(-1 0 0 1 154.985 0)"/>
      </g>
      <g transform="translate(315.78)">
        <path stroke="#DFDFDF" stroke-width="3" fill="#D8D8D8" stroke-linecap="square" d="M91.447 6.404v24.559"/>
        <g transform="rotate(-90 2.716 2.391)">
          <path fill="#C2D6D6" d="M1.996 0H4.99v102.395H1.996z"/>
          <path fill="#9FC1B7" d="M0 0h2.994v102.395H0z"/>
        </g>
        <g transform="matrix(0 1 1 0 .348 227.893)">
          <path fill="#C2D6D6" d="M1.996 0H4.99v101.35H1.996z"/>
          <path fill="#9FC1B7" d="M0 0h2.994v101.35H0z"/>
        </g>
        <g transform="rotate(-90 67.593 -62.486)">
          <path fill="#C2D6D6" d="M1.996 0H4.99v102.395H1.996z"/>
          <path fill="#9FC1B7" d="M0 0h2.994v102.395H0z"/>
        </g>
        <g transform="matrix(0 1 1 0 130.102 227.893)">
          <path fill="#C2D6D6" d="M1.996 0H4.99v101.35H1.996z"/>
          <path fill="#9FC1B7" d="M0 0h2.994v101.35H0z"/>
        </g>
        <g transform="rotate(-90 132.47 -127.363)">
          <path fill="#C2D6D6" d="M1.996 0H4.99v102.395H1.996z"/>
          <path fill="#9FC1B7" d="M0 0h2.994v102.395H0z"/>
        </g>
        <g transform="matrix(0 1 1 0 259.856 227.893)">
          <path fill="#C2D6D6" d="M1.996 0H4.99v101.35H1.996z"/>
          <path fill="#9FC1B7" d="M0 0h2.994v101.35H0z"/>
        </g>
        <g transform="rotate(-90 197.846 -192.738)">
          <path fill="#C2D6D6" d="M1.996 0H4.99v102.395H1.996z"/>
          <path fill="#9FC1B7" d="M0 0h2.994v102.395H0z"/>
        </g>
        <g transform="matrix(0 1 1 0 390.607 227.893)">
          <path fill="#C2D6D6" d="M1.996 0H4.99v101.35H1.996z"/>
          <path fill="#9FC1B7" d="M0 0h2.994v101.35H0z"/>
        </g>
        <g transform="rotate(-90 262.723 -257.615)">
          <path fill="#C2D6D6" d="M1.996 0H4.99v102.395H1.996z"/>
          <path fill="#9FC1B7" d="M0 0h2.994v102.395H0z"/>
        </g>
        <g transform="matrix(0 1 1 0 520.361 227.893)">
          <path fill="#C2D6D6" d="M1.996 0H4.99v101.35H1.996z"/>
          <path fill="#9FC1B7" d="M0 0h2.994v101.35H0z"/>
        </g>
        <g transform="rotate(-90 327.6 -322.492)">
          <path fill="#C2D6D6" d="M1.996 0H4.99v102.395H1.996z"/>
          <path fill="#9FC1B7" d="M0 0h2.994v102.395H0z"/>
        </g>
        <g transform="matrix(0 1 1 0 650.115 227.893)">
          <path fill="#C2D6D6" d="M1.996 0H4.99v101.35H1.996z"/>
          <path fill="#9FC1B7" d="M0 0h2.994v101.35H0z"/>
        </g>
      </g>
      <path d="M366.786 202.11c2.209 0 4.209.895 5.656 2.343a7.975 7.975 0 012.344 5.657h0v5.031c0 2.21-.896 4.21-2.344 5.657a7.975 7.975 0 01-5.656 2.343h0-23.919c-2.21 0-4.21-.895-5.657-2.343a7.975 7.975 0 01-2.343-5.657h0v-5.031c0-2.21.895-4.21 2.343-5.657a7.975 7.975 0 015.657-2.343h0zM418.687 202.11c2.21 0 4.21.895 5.657 2.343a7.975 7.975 0 012.343 5.657h0v5.031c0 2.21-.895 4.21-2.343 5.657a7.975 7.975 0 01-5.657 2.343h0-23.919c-2.209 0-4.209-.895-5.656-2.343a7.975 7.975 0 01-2.344-5.657h0v-5.031c0-2.21.896-4.21 2.344-5.657a7.975 7.975 0 015.656-2.343h0z" stroke="#DCDCDC" stroke-width="3" fill="#F2F2F2"/>
      <g transform="translate(436.172 150.457)" stroke-width="3">
        <path d="M148.87 1.5c5.204 2.243 9.17 5.34 11.865 9.327 2.746 4.06 4.167 9.028 4.307 14.888.367 15.252-2.962 23.265-6.878 30.958h0l-.349.682c-.233.454-.468.907-.704 1.361h0l-.356.685c-.299.574-.598 1.15-.898 1.732-2.914 5.659-6.82 8.924-11.828 9.613-2.036 1.328-3.696 1.938-5.497 1.938h0H9.308a7.783 7.783 0 01-5.521-2.287 7.783 7.783 0 01-2.287-5.52h0v-2.31c0-2.155.874-4.107 2.287-5.52a7.783 7.783 0 015.52-2.287h129.225c1.46 0 2.828.401 3.998 1.1a7.85 7.85 0 013.264 3.834c.345.01.707-.004 1.087-.042 2.371-.237 3.878-1.287 4.882-2.73 1.167-1.677 1.594-3.997 1.797-6.31.047-.569.082-1.058.114-1.498.038-.53.071-.985.112-1.42.15-1.602-.535-3.093-1.923-4.471-1.406-1.396-3.572-2.688-5.88-3.966h0l-.624-.345-1.25-.689c-2.068-1.146-4.092-2.313-5.472-3.64-2.774-2.665-2.397-13.739.18-32.476l.084-.607z" stroke="#DCDCDC" fill="#F2F2F2"/>
        <path stroke="#DFDFDF" stroke-linecap="round" d="M95.818 9.176l8.894-7.609h36.02"/>
      </g>
      <path d="M379.28 94.083h81.23c15.953-.596 26.8 4.473 32.544 15.207 8.614 16.102 34.457 31.31 44.029 33.098 9.571 1.79 30.839-1.311 57.43 2.722 26.59 4.034 36.371 23.22 37.328 47.373.638 16.101.957 28.029.957 35.781" stroke="#DFDFDF" stroke-width="3" stroke-dasharray="2"/>
      <g transform="translate(290.447 113.798)">
        <path stroke="#DCDCDC" stroke-width="3" d="M1.565 54.427V32.474H40.36v21.953z"/>
        <path stroke="#DCDCDC" stroke-width="2" stroke-linecap="square" d="M19.964 54.422V31.435M10.981 54.422V31.435M28.947 54.422V31.435"/>
        <path d="M1.998 32.918h84.34c6.488 0 11.145 2.068 13.973 6.204l18.465-24.88C111.748 6.491 105.26 2.051 99.313.92 93.366-.212 60.928-.3 1.998.658v32.26z" stroke="#DFDFDF" stroke-width="3" fill="#F2F2F2"/>
      </g>
      <g transform="translate(483.083 18.807)" stroke="#DFDFDF" stroke-width="3">
        <path d="M93.32 1.5v3.791h-3.394v6.792h-7.18V5.291h-3.394V1.5H93.32zM52.398 21.352V35.07H1.5V21.352h50.898zM102.801 12.993l.5 21.577-50.398.5-.5-21.577 50.398-.5z" fill="#F2F2F2"/>
        <ellipse fill="#F2F2F2" cx="13.973" cy="35.525" rx="8.983" ry="9.404"/>
        <ellipse fill="#F2F2F2" cx="65.875" cy="35.525" rx="8.983" ry="9.404"/>
        <ellipse fill="#F2F2F2" cx="40.922" cy="35.525" rx="8.983" ry="9.404"/>
        <ellipse fill="#F2F2F2" cx="91.826" cy="35.525" rx="8.983" ry="9.404"/>
        <path d="M74.854 18.217l.5 3.814-13.468.5-.5-3.814 13.468-.5zM95.814 18.217l.5 3.814-13.468.5-.5-3.814 13.468-.5z" fill="#FFF"/>
      </g>
      <path fill="#DCDCDC" d="M1098 134h3v94h-3zM1098 5h3v94h-3zM1196 5h3v76h-3zM1217 79h3v80h-3zM1268 79h3v80h-3z"/>
      <path fill="#DCDCDC" transform="rotate(90 1184.5 80.5)" d="M1183-6h3v173h-3z"/>
      <path fill="#DCDCDC" transform="rotate(-90 1244 80.5)" d="M1242.5 54.5h3v52h-3z"/>
      <path fill="#DCDCDC" d="M1171 150h3v78h-3z"/>
      <path fill="#DCDCDC" transform="rotate(-90 1136 149.5)" d="M1134.5 111.5h3v76h-3z"/>
    </g>
    <g id="Seats" transform="translate(660 15)">
      <g id="seat_96" transform="translate(0 43)">
        <path d="M.5.5h40.397c.967 0 1.842.392 2.475 1.025A3.489 3.489 0 0144.397 4h0v35c0 .966-.392 1.841-1.025 2.475a3.489 3.489 0 01-2.475 1.025h0H.5V.5z" id="seat_96_shape" stroke="#1B50AF" fill="#FFF" transform="rotate(-180 22.449 21.5)"/>
        <path id="Line" stroke="#1B50AF" fill="#FFF" stroke-linecap="square" d="M35.419 42.5V.488"/>
        <g id="seatnumber_96" transform="translate(9.485 16.392)" fill="#1B50AF">
          <path d="M6.576 6.8c-.496.624-1.424 1.104-2.656 1.104C1.792 7.904 0 6.432 0 3.936 0 1.552 1.808 0 4.32 0c3.104 0 4.464 2.496 4.464 5.744 0 3.328-1.248 6.272-4.704 6.272-2.528 0-3.712-1.728-3.84-3.2H2.4c.112.96.864 1.504 1.824 1.504 1.456 0 2.352-1.376 2.352-3.52zM4.32 1.68c-1.2 0-2.08.88-2.08 2.272 0 1.36.88 2.256 2.08 2.256 1.2 0 2.112-.896 2.112-2.256 0-1.376-.912-2.272-2.112-2.272zm7.952 3.536c.496-.624 1.424-1.104 2.64-1.104 2.144 0 3.936 1.456 3.936 3.968 0 2.384-1.808 3.936-4.32 3.936-3.104 0-4.464-2.496-4.464-5.744C10.064 2.944 11.296 0 14.768 0c2.528 0 3.712 1.712 3.84 3.2h-2.16c-.112-.96-.88-1.52-1.824-1.52-1.456 0-2.352 1.376-2.352 3.536zm2.256 5.136c1.2 0 2.08-.896 2.08-2.304 0-1.36-.88-2.256-2.08-2.256-1.216 0-2.128.896-2.128 2.256 0 1.392.912 2.304 2.128 2.304z"/>
        </g>
        <g id="seatnumber_96-with-service-icon" transform="translate(9.485 16.392)">
          <path d="M6.576 6.8c-.496.624-1.424 1.104-2.656 1.104C1.792 7.904 0 6.432 0 3.936 0 1.552 1.808 0 4.32 0c3.104 0 4.464 2.496 4.464 5.744 0 3.328-1.248 6.272-4.704 6.272-2.528 0-3.712-1.728-3.84-3.2H2.4c.112.96.864 1.504 1.824 1.504 1.456 0 2.352-1.376 2.352-3.52zM4.32 1.68c-1.2 0-2.08.88-2.08 2.272 0 1.36.88 2.256 2.08 2.256 1.2 0 2.112-.896 2.112-2.256 0-1.376-.912-2.272-2.112-2.272zm7.952 3.536c.496-.624 1.424-1.104 2.64-1.104 2.144 0 3.936 1.456 3.936 3.968 0 2.384-1.808 3.936-4.32 3.936-3.104 0-4.464-2.496-4.464-5.744C10.064 2.944 11.296 0 14.768 0c2.528 0 3.712 1.712 3.84 3.2h-2.16c-.112-.96-.88-1.52-1.824-1.52-1.456 0-2.352 1.376-2.352 3.536zm2.256 5.136c1.2 0 2.08-.896 2.08-2.304 0-1.36-.88-2.256-2.08-2.256-1.216 0-2.128.896-2.128 2.256 0 1.392.912 2.304 2.128 2.304z" transform="translate(0 10)"/>
          <use id="pet-seat-icon-seatnumber_96" xlink:href="#pet-seat-icon" transform="translate(0 -12)"/>
        </g>
      </g>
      <g id="seat_95">
        <path d="M.5.5h40.397c.967 0 1.842.392 2.475 1.025A3.489 3.489 0 0144.397 4h0v35c0 .966-.392 1.841-1.025 2.475a3.489 3.489 0 01-2.475 1.025h0H.5V.5z" id="seat_95_shape" stroke="#1B50AF" fill="#FFF" transform="rotate(-180 22.449 21.5)"/>
        <path id="Line" stroke="#1B50AF" fill="#FFF" stroke-linecap="square" d="M35.419 42.5V.488"/>
        <g id="seatnumber_95" transform="translate(9.525 16.392)" fill="#1B50AF">
          <path d="M6.576 6.8c-.496.624-1.424 1.104-2.656 1.104C1.792 7.904 0 6.432 0 3.936 0 1.552 1.808 0 4.32 0c3.104 0 4.464 2.496 4.464 5.744 0 3.328-1.248 6.272-4.704 6.272-2.528 0-3.712-1.728-3.84-3.2H2.4c.112.96.864 1.504 1.824 1.504 1.456 0 2.352-1.376 2.352-3.52zM4.32 1.68c-1.2 0-2.08.88-2.08 2.272 0 1.36.88 2.256 2.08 2.256 1.2 0 2.112-.896 2.112-2.256 0-1.376-.912-2.272-2.112-2.272zM16.512 8c0-1.584-1.072-2.368-2.144-2.368-1.024 0-1.76.512-1.984 1.056l-2.016-.096.768-6.384h7.152v1.856h-5.344l-.32 2.48c.48-.352 1.232-.64 2.304-.64 1.984 0 3.824 1.408 3.824 4.08 0 2.56-1.984 4.032-4.368 4.032-2.72 0-4.16-1.856-4.288-3.856h2.08c.128 1.2.816 2.192 2.24 2.192 1.216 0 2.096-.88 2.096-2.352z"/>
        </g>
        <g id="seatnumber_95-with-service-icon" transform="translate(9.525 16.392)">
          <path d="M6.576 6.8c-.496.624-1.424 1.104-2.656 1.104C1.792 7.904 0 6.432 0 3.936 0 1.552 1.808 0 4.32 0c3.104 0 4.464 2.496 4.464 5.744 0 3.328-1.248 6.272-4.704 6.272-2.528 0-3.712-1.728-3.84-3.2H2.4c.112.96.864 1.504 1.824 1.504 1.456 0 2.352-1.376 2.352-3.52zM4.32 1.68c-1.2 0-2.08.88-2.08 2.272 0 1.36.88 2.256 2.08 2.256 1.2 0 2.112-.896 2.112-2.256 0-1.376-.912-2.272-2.112-2.272zM16.512 8c0-1.584-1.072-2.368-2.144-2.368-1.024 0-1.76.512-1.984 1.056l-2.016-.096.768-6.384h7.152v1.856h-5.344l-.32 2.48c.48-.352 1.232-.64 2.304-.64 1.984 0 3.824 1.408 3.824 4.08 0 2.56-1.984 4.032-4.368 4.032-2.72 0-4.16-1.856-4.288-3.856h2.08c.128 1.2.816 2.192 2.24 2.192 1.216 0 2.096-.88 2.096-2.352z" transform="translate(0 10)"/>
          <use id="pet-seat-icon-seatnumber_95" xlink:href="#pet-seat-icon" transform="translate(0 -12)"/>
        </g>
      </g>
      <g id="seat_94" transform="translate(0 121)">
        <path d="M.5.5h40.397c.967 0 1.842.392 2.475 1.025A3.489 3.489 0 0144.397 4h0v35c0 .966-.392 1.841-1.025 2.475a3.489 3.489 0 01-2.475 1.025h0H.5V.5z" id="seat_94_shape" stroke="#1B50AF" fill="#FFF" transform="rotate(-180 22.449 21.5)"/>
        <path id="Line" stroke="#1B50AF" fill="#FFF" stroke-linecap="square" d="M35.419 42.5V.488"/>
        <g id="seatnumber_94" transform="translate(9.437 16.392)" fill="#1B50AF">
          <path d="M6.576 6.8c-.496.624-1.424 1.104-2.656 1.104C1.792 7.904 0 6.432 0 3.936 0 1.552 1.808 0 4.32 0c3.104 0 4.464 2.496 4.464 5.744 0 3.328-1.248 6.272-4.704 6.272-2.528 0-3.712-1.728-3.84-3.2H2.4c.112.96.864 1.504 1.824 1.504 1.456 0 2.352-1.376 2.352-3.52zM4.32 1.68c-1.2 0-2.08.88-2.08 2.272 0 1.36.88 2.256 2.08 2.256 1.2 0 2.112-.896 2.112-2.256 0-1.376-.912-2.272-2.112-2.272zm15.136 7.344h-1.984v2.784H15.28V9.024H9.552V7.296l5.76-7.088h2.16v6.944h1.984v1.872zm-7.488-1.872h3.312V3.008l-3.312 4.144z"/>
        </g>
        <g id="seatnumber_94-with-service-icon" transform="translate(9.437 16.392)">
          <path d="M6.576 6.8c-.496.624-1.424 1.104-2.656 1.104C1.792 7.904 0 6.432 0 3.936 0 1.552 1.808 0 4.32 0c3.104 0 4.464 2.496 4.464 5.744 0 3.328-1.248 6.272-4.704 6.272-2.528 0-3.712-1.728-3.84-3.2H2.4c.112.96.864 1.504 1.824 1.504 1.456 0 2.352-1.376 2.352-3.52zM4.32 1.68c-1.2 0-2.08.88-2.08 2.272 0 1.36.88 2.256 2.08 2.256 1.2 0 2.112-.896 2.112-2.256 0-1.376-.912-2.272-2.112-2.272zm15.136 7.344h-1.984v2.784H15.28V9.024H9.552V7.296l5.76-7.088h2.16v6.944h1.984v1.872zm-7.488-1.872h3.312V3.008l-3.312 4.144z" transform="translate(0 10)"/>
          <use id="pet-seat-icon-seatnumber_94" xlink:href="#pet-seat-icon" transform="translate(0 -12)"/>
        </g>
      </g>
      <g id="seat_93" transform="translate(0 164)">
        <path d="M.5.5h40.397c.967 0 1.842.392 2.475 1.025A3.489 3.489 0 0144.397 4h0v35c0 .966-.392 1.841-1.025 2.475a3.489 3.489 0 01-2.475 1.025h0H.5V.5z" id="seat_93_shape" stroke="#1B50AF" fill="#FFF" transform="rotate(-180 22.449 21.5)"/>
        <path id="Line" stroke="#1B50AF" fill="#FFF" stroke-linecap="square" d="M35.419 42.5V.488"/>
        <g id="seatnumber_93" transform="translate(9.597 16.392)" fill="#1B50AF">
          <path d="M6.576 6.8c-.496.624-1.424 1.104-2.656 1.104C1.792 7.904 0 6.432 0 3.936 0 1.552 1.808 0 4.32 0c3.104 0 4.464 2.496 4.464 5.744 0 3.328-1.248 6.272-4.704 6.272-2.528 0-3.712-1.728-3.84-3.2H2.4c.112.96.864 1.504 1.824 1.504 1.456 0 2.352-1.376 2.352-3.52zM4.32 1.68c-1.2 0-2.08.88-2.08 2.272 0 1.36.88 2.256 2.08 2.256 1.2 0 2.112-.896 2.112-2.256 0-1.376-.912-2.272-2.112-2.272zm12.064 6.864c0-1.36-1.264-1.904-2.912-1.904h-.464V4.912h.384c1.664 0 2.704-.608 2.704-1.696 0-1.008-.88-1.552-1.84-1.552-1.328 0-2.176.848-2.288 2.048H9.872C10.128 1.408 11.728 0 14.384 0c1.936 0 3.936.928 3.936 3.12 0 1.12-.688 2.064-1.568 2.544a3.035 3.035 0 011.872 2.816c0 2.352-2.032 3.536-4.48 3.536-2.656 0-4.224-1.728-4.368-3.856h2.08c.16 1.168.912 2.192 2.352 2.192 1.2 0 2.176-.72 2.176-1.808z"/>
        </g>
        <g id="seatnumber_93-with-service-icon" transform="translate(9.597 16.392)">
          <path d="M6.576 6.8c-.496.624-1.424 1.104-2.656 1.104C1.792 7.904 0 6.432 0 3.936 0 1.552 1.808 0 4.32 0c3.104 0 4.464 2.496 4.464 5.744 0 3.328-1.248 6.272-4.704 6.272-2.528 0-3.712-1.728-3.84-3.2H2.4c.112.96.864 1.504 1.824 1.504 1.456 0 2.352-1.376 2.352-3.52zM4.32 1.68c-1.2 0-2.08.88-2.08 2.272 0 1.36.88 2.256 2.08 2.256 1.2 0 2.112-.896 2.112-2.256 0-1.376-.912-2.272-2.112-2.272zm12.064 6.864c0-1.36-1.264-1.904-2.912-1.904h-.464V4.912h.384c1.664 0 2.704-.608 2.704-1.696 0-1.008-.88-1.552-1.84-1.552-1.328 0-2.176.848-2.288 2.048H9.872C10.128 1.408 11.728 0 14.384 0c1.936 0 3.936.928 3.936 3.12 0 1.12-.688 2.064-1.568 2.544a3.035 3.035 0 011.872 2.816c0 2.352-2.032 3.536-4.48 3.536-2.656 0-4.224-1.728-4.368-3.856h2.08c.16 1.168.912 2.192 2.352 2.192 1.2 0 2.176-.72 2.176-1.808z" transform="translate(0 10)"/>
          <use id="pet-seat-icon-seatnumber_93" xlink:href="#pet-seat-icon" transform="translate(0 -12)"/>
        </g>
      </g>
      <g id="seat_92" transform="translate(55.872 43)">
        <path d="M40.897.5c.967 0 1.842.392 2.475 1.025A3.489 3.489 0 0144.397 4h0v35c0 .966-.392 1.841-1.025 2.475a3.489 3.489 0 01-2.475 1.025h0H.5V.5z" id="seat_92_shape" stroke="#1B50AF" fill="#FFF" transform="rotate(-180 22.449 21.5)"/>
        <path id="Line" stroke="#1B50AF" fill="#FFF" stroke-linecap="square" d="M35.419 42.5V.488"/>
        <g id="seatnumber_92" transform="translate(9.877 16.392)" fill="#1B50AF">
          <path d="M6.576 6.8c-.496.624-1.424 1.104-2.656 1.104C1.792 7.904 0 6.432 0 3.936 0 1.552 1.808 0 4.32 0c3.104 0 4.464 2.496 4.464 5.744 0 3.328-1.248 6.272-4.704 6.272-2.528 0-3.712-1.728-3.84-3.2H2.4c.112.96.864 1.504 1.824 1.504 1.456 0 2.352-1.376 2.352-3.52zM4.32 1.68c-1.2 0-2.08.88-2.08 2.272 0 1.36.88 2.256 2.08 2.256 1.2 0 2.112-.896 2.112-2.256 0-1.376-.912-2.272-2.112-2.272zm13.728 1.44c0 2.176-2.112 4.448-5.68 6.832h5.952v1.856H9.792v-1.792c3.728-3.008 6.032-4.944 6.032-6.784 0-1.008-.64-1.6-1.712-1.6-.976 0-1.968.592-1.968 2.32H10C9.968 1.552 11.664 0 14.24 0c2.32 0 3.808 1.104 3.808 3.12z"/>
        </g>
        <g id="seatnumber_92-with-service-icon" transform="translate(9.877 16.392)">
          <path d="M6.576 6.8c-.496.624-1.424 1.104-2.656 1.104C1.792 7.904 0 6.432 0 3.936 0 1.552 1.808 0 4.32 0c3.104 0 4.464 2.496 4.464 5.744 0 3.328-1.248 6.272-4.704 6.272-2.528 0-3.712-1.728-3.84-3.2H2.4c.112.96.864 1.504 1.824 1.504 1.456 0 2.352-1.376 2.352-3.52zM4.32 1.68c-1.2 0-2.08.88-2.08 2.272 0 1.36.88 2.256 2.08 2.256 1.2 0 2.112-.896 2.112-2.256 0-1.376-.912-2.272-2.112-2.272zm13.728 1.44c0 2.176-2.112 4.448-5.68 6.832h5.952v1.856H9.792v-1.792c3.728-3.008 6.032-4.944 6.032-6.784 0-1.008-.64-1.6-1.712-1.6-.976 0-1.968.592-1.968 2.32H10C9.968 1.552 11.664 0 14.24 0c2.32 0 3.808 1.104 3.808 3.12z" transform="translate(0 10)"/>
          <use id="pet-seat-icon-seatnumber_92" xlink:href="#pet-seat-icon" transform="translate(0 -12)"/>
        </g>
      </g>
      <g id="seat_91" transform="translate(55.872)">
        <path d="M40.897.5c.967 0 1.842.392 2.475 1.025A3.489 3.489 0 0144.397 4h0v35c0 .966-.392 1.841-1.025 2.475a3.489 3.489 0 01-2.475 1.025h0H.5V.5z" id="seat_91_shape" stroke="#1B50AF" fill="#FFF" transform="rotate(-180 22.449 21.5)"/>
        <path id="Line" stroke="#1B50AF" fill="#FFF" stroke-linecap="square" d="M35.419 42.5V.488"/>
        <g id="seatnumber_91" transform="translate(11.557 16.392)" fill="#1B50AF">
          <path d="M6.576 6.8c-.496.624-1.424 1.104-2.656 1.104C1.792 7.904 0 6.432 0 3.936 0 1.552 1.808 0 4.32 0c3.104 0 4.464 2.496 4.464 5.744 0 3.328-1.248 6.272-4.704 6.272-2.528 0-3.712-1.728-3.84-3.2H2.4c.112.96.864 1.504 1.824 1.504 1.456 0 2.352-1.376 2.352-3.52zM4.32 1.68c-1.2 0-2.08.88-2.08 2.272 0 1.36.88 2.256 2.08 2.256 1.2 0 2.112-.896 2.112-2.256 0-1.376-.912-2.272-2.112-2.272zm7.6 10.128V3.136H9.424V1.632c1.68-.048 2.464-.16 3.024-1.424h1.68v11.6H11.92z"/>
        </g>
        <g id="seatnumber_91-with-service-icon" transform="translate(11.557 16.392)">
          <path d="M6.576 6.8c-.496.624-1.424 1.104-2.656 1.104C1.792 7.904 0 6.432 0 3.936 0 1.552 1.808 0 4.32 0c3.104 0 4.464 2.496 4.464 5.744 0 3.328-1.248 6.272-4.704 6.272-2.528 0-3.712-1.728-3.84-3.2H2.4c.112.96.864 1.504 1.824 1.504 1.456 0 2.352-1.376 2.352-3.52zM4.32 1.68c-1.2 0-2.08.88-2.08 2.272 0 1.36.88 2.256 2.08 2.256 1.2 0 2.112-.896 2.112-2.256 0-1.376-.912-2.272-2.112-2.272zm7.6 10.128V3.136H9.424V1.632c1.68-.048 2.464-.16 3.024-1.424h1.68v11.6H11.92z" transform="translate(0 10)"/>
          <use id="pet-seat-icon-seatnumber_91" xlink:href="#pet-seat-icon" transform="translate(0 -12)"/>
        </g>
      </g>
      <g id="seat_90" transform="translate(55.872 121)">
        <path d="M40.897.5c.967 0 1.842.392 2.475 1.025A3.489 3.489 0 0144.397 4h0v35c0 .966-.392 1.841-1.025 2.475a3.489 3.489 0 01-2.475 1.025h0H.5V.5z" id="seat_90_shape" stroke="#1B50AF" fill="#FFF" transform="rotate(-180 22.449 21.5)"/>
        <path id="Line" stroke="#1B50AF" fill="#FFF" stroke-linecap="square" d="M35.419 42.5V.488"/>
        <g id="seatnumber_90" transform="translate(9.205 16.392)" fill="#1B50AF">
          <path d="M6.576 6.8c-.496.624-1.424 1.104-2.656 1.104C1.792 7.904 0 6.432 0 3.936 0 1.552 1.808 0 4.32 0c3.104 0 4.464 2.496 4.464 5.744 0 3.328-1.248 6.272-4.704 6.272-2.528 0-3.712-1.728-3.84-3.2H2.4c.112.96.864 1.504 1.824 1.504 1.456 0 2.352-1.376 2.352-3.52zM4.32 1.68c-1.2 0-2.08.88-2.08 2.272 0 1.36.88 2.256 2.08 2.256 1.2 0 2.112-.896 2.112-2.256 0-1.376-.912-2.272-2.112-2.272zm5.744 4.304c0-3.52 1.568-5.984 4.672-5.984 3.088 0 4.656 2.464 4.656 5.984 0 3.536-1.568 6.032-4.656 6.032-3.104 0-4.672-2.496-4.672-6.032zm7.072 0c0-2.768-.832-4.32-2.4-4.32s-2.416 1.552-2.416 4.32c0 2.784.848 4.368 2.416 4.368s2.4-1.584 2.4-4.368z"/>
        </g>
        <g id="seatnumber_90-with-service-icon" transform="translate(9.205 16.392)">
          <path d="M6.576 6.8c-.496.624-1.424 1.104-2.656 1.104C1.792 7.904 0 6.432 0 3.936 0 1.552 1.808 0 4.32 0c3.104 0 4.464 2.496 4.464 5.744 0 3.328-1.248 6.272-4.704 6.272-2.528 0-3.712-1.728-3.84-3.2H2.4c.112.96.864 1.504 1.824 1.504 1.456 0 2.352-1.376 2.352-3.52zM4.32 1.68c-1.2 0-2.08.88-2.08 2.272 0 1.36.88 2.256 2.08 2.256 1.2 0 2.112-.896 2.112-2.256 0-1.376-.912-2.272-2.112-2.272zm5.744 4.304c0-3.52 1.568-5.984 4.672-5.984 3.088 0 4.656 2.464 4.656 5.984 0 3.536-1.568 6.032-4.656 6.032-3.104 0-4.672-2.496-4.672-6.032zm7.072 0c0-2.768-.832-4.32-2.4-4.32s-2.416 1.552-2.416 4.32c0 2.784.848 4.368 2.416 4.368s2.4-1.584 2.4-4.368z" transform="translate(0 10)"/>
          <use id="pet-seat-icon-seatnumber_90" xlink:href="#pet-seat-icon" transform="translate(0 -12)"/>
        </g>
      </g>
      <g id="seat_89" transform="translate(55.872 164)">
        <path d="M40.897.5c.967 0 1.842.392 2.475 1.025A3.489 3.489 0 0144.397 4h0v35c0 .966-.392 1.841-1.025 2.475a3.489 3.489 0 01-2.475 1.025h0H.5V.5z" id="seat_89_shape" stroke="#1B50AF" fill="#FFF" transform="rotate(-180 22.449 21.5)"/>
        <path id="Line" stroke="#1B50AF" fill="#FFF" stroke-linecap="square" d="M35.419 42.5V.488"/>
        <g id="seatnumber_89" transform="translate(9.589 16.392)" fill="#1B50AF">
          <path d="M8.432 2.976c0 1.04-.416 2.016-1.408 2.624 1.296.736 1.76 1.776 1.76 2.896 0 2.272-1.936 3.52-4.4 3.52C1.936 12.016 0 10.768 0 8.496 0 7.376.48 6.32 1.776 5.6.816 5.056.352 4.016.352 2.992.352 1.264 1.936 0 4.384 0c2.464 0 4.048 1.264 4.048 2.976zM4.384 1.664c-1.152 0-1.888.624-1.888 1.584 0 .96.736 1.664 1.888 1.664s1.904-.704 1.904-1.664-.752-1.584-1.904-1.584zM2.256 8.4c0 1.152.832 1.952 2.128 1.952 1.312 0 2.144-.8 2.144-1.952s-.832-1.904-2.144-1.904c-1.296 0-2.128.752-2.128 1.904zm14.368-1.6c-.496.624-1.424 1.104-2.656 1.104-2.128 0-3.92-1.472-3.92-3.968 0-2.384 1.808-3.936 4.32-3.936 3.104 0 4.464 2.496 4.464 5.744 0 3.328-1.248 6.272-4.704 6.272-2.528 0-3.712-1.728-3.84-3.2h2.16c.112.96.864 1.504 1.824 1.504 1.456 0 2.352-1.376 2.352-3.52zm-2.256-5.12c-1.2 0-2.08.88-2.08 2.272 0 1.36.88 2.256 2.08 2.256 1.2 0 2.112-.896 2.112-2.256 0-1.376-.912-2.272-2.112-2.272z"/>
        </g>
        <g id="seatnumber_89-with-service-icon" transform="translate(9.589 16.392)">
          <path d="M8.432 2.976c0 1.04-.416 2.016-1.408 2.624 1.296.736 1.76 1.776 1.76 2.896 0 2.272-1.936 3.52-4.4 3.52C1.936 12.016 0 10.768 0 8.496 0 7.376.48 6.32 1.776 5.6.816 5.056.352 4.016.352 2.992.352 1.264 1.936 0 4.384 0c2.464 0 4.048 1.264 4.048 2.976zM4.384 1.664c-1.152 0-1.888.624-1.888 1.584 0 .96.736 1.664 1.888 1.664s1.904-.704 1.904-1.664-.752-1.584-1.904-1.584zM2.256 8.4c0 1.152.832 1.952 2.128 1.952 1.312 0 2.144-.8 2.144-1.952s-.832-1.904-2.144-1.904c-1.296 0-2.128.752-2.128 1.904zm14.368-1.6c-.496.624-1.424 1.104-2.656 1.104-2.128 0-3.92-1.472-3.92-3.968 0-2.384 1.808-3.936 4.32-3.936 3.104 0 4.464 2.496 4.464 5.744 0 3.328-1.248 6.272-4.704 6.272-2.528 0-3.712-1.728-3.84-3.2h2.16c.112.96.864 1.504 1.824 1.504 1.456 0 2.352-1.376 2.352-3.52zm-2.256-5.12c-1.2 0-2.08.88-2.08 2.272 0 1.36.88 2.256 2.08 2.256 1.2 0 2.112-.896 2.112-2.256 0-1.376-.912-2.272-2.112-2.272z" transform="translate(0 10)"/>
          <use id="pet-seat-icon-seatnumber_89" xlink:href="#pet-seat-icon" transform="translate(0 -12)"/>
        </g>
      </g>
      <g id="seat_88" transform="translate(111.744 43)">
        <path d="M.5.5h40.397c.967 0 1.842.392 2.475 1.025A3.489 3.489 0 0144.397 4h0v35c0 .966-.392 1.841-1.025 2.475a3.489 3.489 0 01-2.475 1.025h0H.5V.5z" id="seat_88_shape" stroke="#1B50AF" fill="#FFF" transform="rotate(-180 22.449 21.5)"/>
        <path id="Line" stroke="#1B50AF" fill="#FFF" stroke-linecap="square" d="M35.419 42.5V.488"/>
        <g id="seatnumber_88" transform="translate(9.437 16.392)" fill="#1B50AF">
          <path d="M8.432 2.976c0 1.04-.416 2.016-1.408 2.624 1.296.736 1.76 1.776 1.76 2.896 0 2.272-1.936 3.52-4.4 3.52C1.936 12.016 0 10.768 0 8.496 0 7.376.48 6.32 1.776 5.6.816 5.056.352 4.016.352 2.992.352 1.264 1.936 0 4.384 0c2.464 0 4.048 1.264 4.048 2.976zM4.384 1.664c-1.152 0-1.888.624-1.888 1.584 0 .96.736 1.664 1.888 1.664s1.904-.704 1.904-1.664-.752-1.584-1.904-1.584zM2.256 8.4c0 1.152.832 1.952 2.128 1.952 1.312 0 2.144-.8 2.144-1.952s-.832-1.904-2.144-1.904c-1.296 0-2.128.752-2.128 1.904zm16.432-5.424c0 1.04-.416 2.016-1.408 2.624 1.296.736 1.76 1.776 1.76 2.896 0 2.272-1.936 3.52-4.4 3.52-2.448 0-4.384-1.248-4.384-3.52 0-1.12.48-2.176 1.776-2.896-.96-.544-1.424-1.584-1.424-2.608C10.608 1.264 12.192 0 14.64 0c2.464 0 4.048 1.264 4.048 2.976zM14.64 1.664c-1.152 0-1.888.624-1.888 1.584 0 .96.736 1.664 1.888 1.664s1.904-.704 1.904-1.664-.752-1.584-1.904-1.584zM12.512 8.4c0 1.152.832 1.952 2.128 1.952 1.312 0 2.144-.8 2.144-1.952s-.832-1.904-2.144-1.904c-1.296 0-2.128.752-2.128 1.904z"/>
        </g>
        <g id="seatnumber_88-with-service-icon" transform="translate(9.437 16.392)">
          <path d="M8.432 2.976c0 1.04-.416 2.016-1.408 2.624 1.296.736 1.76 1.776 1.76 2.896 0 2.272-1.936 3.52-4.4 3.52C1.936 12.016 0 10.768 0 8.496 0 7.376.48 6.32 1.776 5.6.816 5.056.352 4.016.352 2.992.352 1.264 1.936 0 4.384 0c2.464 0 4.048 1.264 4.048 2.976zM4.384 1.664c-1.152 0-1.888.624-1.888 1.584 0 .96.736 1.664 1.888 1.664s1.904-.704 1.904-1.664-.752-1.584-1.904-1.584zM2.256 8.4c0 1.152.832 1.952 2.128 1.952 1.312 0 2.144-.8 2.144-1.952s-.832-1.904-2.144-1.904c-1.296 0-2.128.752-2.128 1.904zm16.432-5.424c0 1.04-.416 2.016-1.408 2.624 1.296.736 1.76 1.776 1.76 2.896 0 2.272-1.936 3.52-4.4 3.52-2.448 0-4.384-1.248-4.384-3.52 0-1.12.48-2.176 1.776-2.896-.96-.544-1.424-1.584-1.424-2.608C10.608 1.264 12.192 0 14.64 0c2.464 0 4.048 1.264 4.048 2.976zM14.64 1.664c-1.152 0-1.888.624-1.888 1.584 0 .96.736 1.664 1.888 1.664s1.904-.704 1.904-1.664-.752-1.584-1.904-1.584zM12.512 8.4c0 1.152.832 1.952 2.128 1.952 1.312 0 2.144-.8 2.144-1.952s-.832-1.904-2.144-1.904c-1.296 0-2.128.752-2.128 1.904z" transform="translate(0 10)"/>
          <use id="pet-seat-icon-seatnumber_88" xlink:href="#pet-seat-icon" transform="translate(0 -12)"/>
        </g>
      </g>
      <g id="seat_87" transform="translate(111.744)">
        <path d="M.5.5h40.397c.967 0 1.842.392 2.475 1.025A3.489 3.489 0 0144.397 4h0v35c0 .966-.392 1.841-1.025 2.475a3.489 3.489 0 01-2.475 1.025h0H.5V.5z" id="seat_87_shape" stroke="#1B50AF" fill="#FFF" transform="rotate(-180 22.449 21.5)"/>
        <path id="Line" stroke="#1B50AF" fill="#FFF" stroke-linecap="square" d="M35.419 42.5V.488"/>
        <g id="seatnumber_87" transform="translate(10.485 16.392)" fill="#1B50AF">
          <path d="M8.432 2.976c0 1.04-.416 2.016-1.408 2.624 1.296.736 1.76 1.776 1.76 2.896 0 2.272-1.936 3.52-4.4 3.52C1.936 12.016 0 10.768 0 8.496 0 7.376.48 6.32 1.776 5.6.816 5.056.352 4.016.352 2.992.352 1.264 1.936 0 4.384 0c2.464 0 4.048 1.264 4.048 2.976zM4.384 1.664c-1.152 0-1.888.624-1.888 1.584 0 .96.736 1.664 1.888 1.664s1.904-.704 1.904-1.664-.752-1.584-1.904-1.584zM2.256 8.4c0 1.152.832 1.952 2.128 1.952 1.312 0 2.144-.8 2.144-1.952s-.832-1.904-2.144-1.904c-1.296 0-2.128.752-2.128 1.904zM9.472.208H18v1.856c-3.024 3.088-4.496 5.568-4.72 9.744h-2.432c.192-4.032 2.336-7.296 4.928-9.744H9.472V.208z"/>
        </g>
        <g id="seatnumber_87-with-service-icon" transform="translate(10.485 16.392)">
          <path d="M8.432 2.976c0 1.04-.416 2.016-1.408 2.624 1.296.736 1.76 1.776 1.76 2.896 0 2.272-1.936 3.52-4.4 3.52C1.936 12.016 0 10.768 0 8.496 0 7.376.48 6.32 1.776 5.6.816 5.056.352 4.016.352 2.992.352 1.264 1.936 0 4.384 0c2.464 0 4.048 1.264 4.048 2.976zM4.384 1.664c-1.152 0-1.888.624-1.888 1.584 0 .96.736 1.664 1.888 1.664s1.904-.704 1.904-1.664-.752-1.584-1.904-1.584zM2.256 8.4c0 1.152.832 1.952 2.128 1.952 1.312 0 2.144-.8 2.144-1.952s-.832-1.904-2.144-1.904c-1.296 0-2.128.752-2.128 1.904zM9.472.208H18v1.856c-3.024 3.088-4.496 5.568-4.72 9.744h-2.432c.192-4.032 2.336-7.296 4.928-9.744H9.472V.208z" transform="translate(0 10)"/>
          <use id="pet-seat-icon-seatnumber_87" xlink:href="#pet-seat-icon" transform="translate(0 -12)"/>
        </g>
      </g>
      <g id="seat_86" transform="translate(111.744 121)">
        <path d="M.5.5h40.397c.967 0 1.842.392 2.475 1.025A3.489 3.489 0 0144.397 4h0v35c0 .966-.392 1.841-1.025 2.475a3.489 3.489 0 01-2.475 1.025h0H.5V.5z" id="seat_86_shape" stroke="#1B50AF" fill="#FFF" transform="rotate(-180 22.449 21.5)"/>
        <path id="Line" stroke="#1B50AF" fill="#FFF" stroke-linecap="square" d="M35.419 42.5V.488"/>
        <g id="seatnumber_86" transform="translate(9.54 16.392)" fill="#1B50AF">
          <path d="M8.432 2.976c0 1.04-.416 2.016-1.408 2.624 1.296.736 1.76 1.776 1.76 2.896 0 2.272-1.936 3.52-4.4 3.52C1.936 12.016 0 10.768 0 8.496 0 7.376.48 6.32 1.776 5.6.816 5.056.352 4.016.352 2.992.352 1.264 1.936 0 4.384 0c2.464 0 4.048 1.264 4.048 2.976zM4.384 1.664c-1.152 0-1.888.624-1.888 1.584 0 .96.736 1.664 1.888 1.664s1.904-.704 1.904-1.664-.752-1.584-1.904-1.584zM2.256 8.4c0 1.152.832 1.952 2.128 1.952 1.312 0 2.144-.8 2.144-1.952s-.832-1.904-2.144-1.904c-1.296 0-2.128.752-2.128 1.904zm10.112-3.184c.496-.624 1.424-1.104 2.64-1.104 2.144 0 3.936 1.456 3.936 3.968 0 2.384-1.808 3.936-4.32 3.936-3.104 0-4.464-2.496-4.464-5.744C10.16 2.944 11.392 0 14.864 0c2.528 0 3.712 1.712 3.84 3.2h-2.16c-.112-.96-.88-1.52-1.824-1.52-1.456 0-2.352 1.376-2.352 3.536zm2.256 5.136c1.2 0 2.08-.896 2.08-2.304 0-1.36-.88-2.256-2.08-2.256-1.216 0-2.128.896-2.128 2.256 0 1.392.912 2.304 2.128 2.304z"/>
        </g>
        <g id="seatnumber_86-with-service-icon" transform="translate(9.54 16.392)">
          <path d="M8.432 2.976c0 1.04-.416 2.016-1.408 2.624 1.296.736 1.76 1.776 1.76 2.896 0 2.272-1.936 3.52-4.4 3.52C1.936 12.016 0 10.768 0 8.496 0 7.376.48 6.32 1.776 5.6.816 5.056.352 4.016.352 2.992.352 1.264 1.936 0 4.384 0c2.464 0 4.048 1.264 4.048 2.976zM4.384 1.664c-1.152 0-1.888.624-1.888 1.584 0 .96.736 1.664 1.888 1.664s1.904-.704 1.904-1.664-.752-1.584-1.904-1.584zM2.256 8.4c0 1.152.832 1.952 2.128 1.952 1.312 0 2.144-.8 2.144-1.952s-.832-1.904-2.144-1.904c-1.296 0-2.128.752-2.128 1.904zm10.112-3.184c.496-.624 1.424-1.104 2.64-1.104 2.144 0 3.936 1.456 3.936 3.968 0 2.384-1.808 3.936-4.32 3.936-3.104 0-4.464-2.496-4.464-5.744C10.16 2.944 11.392 0 14.864 0c2.528 0 3.712 1.712 3.84 3.2h-2.16c-.112-.96-.88-1.52-1.824-1.52-1.456 0-2.352 1.376-2.352 3.536zm2.256 5.136c1.2 0 2.08-.896 2.08-2.304 0-1.36-.88-2.256-2.08-2.256-1.216 0-2.128.896-2.128 2.256 0 1.392.912 2.304 2.128 2.304z" transform="translate(0 10)"/>
          <use id="pet-seat-icon-seatnumber_86" xlink:href="#pet-seat-icon" transform="translate(0 -12)"/>
        </g>
      </g>
      <g id="seat_85" transform="translate(111.744 164)">
        <path d="M.5.5h40.397c.967 0 1.842.392 2.475 1.025A3.489 3.489 0 0144.397 4h0v35c0 .966-.392 1.841-1.025 2.475a3.489 3.489 0 01-2.475 1.025h0H.5V.5z" id="seat_85_shape" stroke="#1B50AF" fill="#FFF" transform="rotate(-180 22.449 21.5)"/>
        <path id="Line" stroke="#1B50AF" fill="#FFF" stroke-linecap="square" d="M35.419 42.5V.488"/>
        <g id="seatnumber_85" transform="translate(9.58 16.392)" fill="#1B50AF">
          <path d="M8.432 2.976c0 1.04-.416 2.016-1.408 2.624 1.296.736 1.76 1.776 1.76 2.896 0 2.272-1.936 3.52-4.4 3.52C1.936 12.016 0 10.768 0 8.496 0 7.376.48 6.32 1.776 5.6.816 5.056.352 4.016.352 2.992.352 1.264 1.936 0 4.384 0c2.464 0 4.048 1.264 4.048 2.976zM4.384 1.664c-1.152 0-1.888.624-1.888 1.584 0 .96.736 1.664 1.888 1.664s1.904-.704 1.904-1.664-.752-1.584-1.904-1.584zM2.256 8.4c0 1.152.832 1.952 2.128 1.952 1.312 0 2.144-.8 2.144-1.952s-.832-1.904-2.144-1.904c-1.296 0-2.128.752-2.128 1.904zM16.608 8c0-1.584-1.072-2.368-2.144-2.368-1.024 0-1.76.512-1.984 1.056l-2.016-.096.768-6.384h7.152v1.856H13.04l-.32 2.48c.48-.352 1.232-.64 2.304-.64 1.984 0 3.824 1.408 3.824 4.08 0 2.56-1.984 4.032-4.368 4.032-2.72 0-4.16-1.856-4.288-3.856h2.08c.128 1.2.816 2.192 2.24 2.192 1.216 0 2.096-.88 2.096-2.352z"/>
        </g>
        <g id="seatnumber_85-with-service-icon" transform="translate(9.58 16.392)">
          <path d="M8.432 2.976c0 1.04-.416 2.016-1.408 2.624 1.296.736 1.76 1.776 1.76 2.896 0 2.272-1.936 3.52-4.4 3.52C1.936 12.016 0 10.768 0 8.496 0 7.376.48 6.32 1.776 5.6.816 5.056.352 4.016.352 2.992.352 1.264 1.936 0 4.384 0c2.464 0 4.048 1.264 4.048 2.976zM4.384 1.664c-1.152 0-1.888.624-1.888 1.584 0 .96.736 1.664 1.888 1.664s1.904-.704 1.904-1.664-.752-1.584-1.904-1.584zM2.256 8.4c0 1.152.832 1.952 2.128 1.952 1.312 0 2.144-.8 2.144-1.952s-.832-1.904-2.144-1.904c-1.296 0-2.128.752-2.128 1.904zM16.608 8c0-1.584-1.072-2.368-2.144-2.368-1.024 0-1.76.512-1.984 1.056l-2.016-.096.768-6.384h7.152v1.856H13.04l-.32 2.48c.48-.352 1.232-.64 2.304-.64 1.984 0 3.824 1.408 3.824 4.08 0 2.56-1.984 4.032-4.368 4.032-2.72 0-4.16-1.856-4.288-3.856h2.08c.128 1.2.816 2.192 2.24 2.192 1.216 0 2.096-.88 2.096-2.352z" transform="translate(0 10)"/>
          <use id="pet-seat-icon-seatnumber_85" xlink:href="#pet-seat-icon" transform="translate(0 -12)"/>
        </g>
      </g>
      <g id="seat_84" transform="translate(167.616 43)">
        <path d="M.5.5h40.397c.967 0 1.842.392 2.475 1.025A3.489 3.489 0 0144.397 4h0v35c0 .966-.392 1.841-1.025 2.475a3.489 3.489 0 01-2.475 1.025h0H.5V.5z" id="seat_84_shape" stroke="#1B50AF" fill="#FFF" transform="rotate(-180 22.449 21.5)"/>
        <path id="Line" stroke="#1B50AF" fill="#FFF" stroke-linecap="square" d="M35.419 42.5V.488"/>
        <g id="seatnumber_84" transform="translate(9.493 16.392)" fill="#1B50AF">
          <path d="M8.432 2.976c0 1.04-.416 2.016-1.408 2.624 1.296.736 1.76 1.776 1.76 2.896 0 2.272-1.936 3.52-4.4 3.52C1.936 12.016 0 10.768 0 8.496 0 7.376.48 6.32 1.776 5.6.816 5.056.352 4.016.352 2.992.352 1.264 1.936 0 4.384 0c2.464 0 4.048 1.264 4.048 2.976zM4.384 1.664c-1.152 0-1.888.624-1.888 1.584 0 .96.736 1.664 1.888 1.664s1.904-.704 1.904-1.664-.752-1.584-1.904-1.584zM2.256 8.4c0 1.152.832 1.952 2.128 1.952 1.312 0 2.144-.8 2.144-1.952s-.832-1.904-2.144-1.904c-1.296 0-2.128.752-2.128 1.904zm17.296.624h-1.984v2.784h-2.192V9.024H9.648V7.296l5.76-7.088h2.16v6.944h1.984v1.872zm-7.488-1.872h3.312V3.008l-3.312 4.144z"/>
        </g>
        <g id="seatnumber_84-with-service-icon" transform="translate(9.493 16.392)">
          <path d="M8.432 2.976c0 1.04-.416 2.016-1.408 2.624 1.296.736 1.76 1.776 1.76 2.896 0 2.272-1.936 3.52-4.4 3.52C1.936 12.016 0 10.768 0 8.496 0 7.376.48 6.32 1.776 5.6.816 5.056.352 4.016.352 2.992.352 1.264 1.936 0 4.384 0c2.464 0 4.048 1.264 4.048 2.976zM4.384 1.664c-1.152 0-1.888.624-1.888 1.584 0 .96.736 1.664 1.888 1.664s1.904-.704 1.904-1.664-.752-1.584-1.904-1.584zM2.256 8.4c0 1.152.832 1.952 2.128 1.952 1.312 0 2.144-.8 2.144-1.952s-.832-1.904-2.144-1.904c-1.296 0-2.128.752-2.128 1.904zm17.296.624h-1.984v2.784h-2.192V9.024H9.648V7.296l5.76-7.088h2.16v6.944h1.984v1.872zm-7.488-1.872h3.312V3.008l-3.312 4.144z" transform="translate(0 10)"/>
          <use id="pet-seat-icon-seatnumber_84" xlink:href="#pet-seat-icon" transform="translate(0 -12)"/>
        </g>
      </g>
      <g id="seat_83" transform="translate(167.616)">
        <path d="M.5.5h40.397c.967 0 1.842.392 2.475 1.025A3.489 3.489 0 0144.397 4h0v35c0 .966-.392 1.841-1.025 2.475a3.489 3.489 0 01-2.475 1.025h0H.5V.5z" id="seat_83_shape" stroke="#1B50AF" fill="#FFF" transform="rotate(-180 22.449 21.5)"/>
        <path id="Line" stroke="#1B50AF" fill="#FFF" stroke-linecap="square" d="M35.419 42.5V.488"/>
        <g id="seatnumber_83" transform="translate(9.653 16.392)" fill="#1B50AF">
          <path d="M8.432 2.976c0 1.04-.416 2.016-1.408 2.624 1.296.736 1.76 1.776 1.76 2.896 0 2.272-1.936 3.52-4.4 3.52C1.936 12.016 0 10.768 0 8.496 0 7.376.48 6.32 1.776 5.6.816 5.056.352 4.016.352 2.992.352 1.264 1.936 0 4.384 0c2.464 0 4.048 1.264 4.048 2.976zM4.384 1.664c-1.152 0-1.888.624-1.888 1.584 0 .96.736 1.664 1.888 1.664s1.904-.704 1.904-1.664-.752-1.584-1.904-1.584zM2.256 8.4c0 1.152.832 1.952 2.128 1.952 1.312 0 2.144-.8 2.144-1.952s-.832-1.904-2.144-1.904c-1.296 0-2.128.752-2.128 1.904zm14.224.144c0-1.36-1.264-1.904-2.912-1.904h-.464V4.912h.384c1.664 0 2.704-.608 2.704-1.696 0-1.008-.88-1.552-1.84-1.552-1.328 0-2.176.848-2.288 2.048H9.968C10.224 1.408 11.824 0 14.48 0c1.936 0 3.936.928 3.936 3.12 0 1.12-.688 2.064-1.568 2.544A3.035 3.035 0 0118.72 8.48c0 2.352-2.032 3.536-4.48 3.536-2.656 0-4.224-1.728-4.368-3.856h2.08c.16 1.168.912 2.192 2.352 2.192 1.2 0 2.176-.72 2.176-1.808z"/>
        </g>
        <g id="seatnumber_83-with-service-icon" transform="translate(9.653 16.392)">
          <path d="M8.432 2.976c0 1.04-.416 2.016-1.408 2.624 1.296.736 1.76 1.776 1.76 2.896 0 2.272-1.936 3.52-4.4 3.52C1.936 12.016 0 10.768 0 8.496 0 7.376.48 6.32 1.776 5.6.816 5.056.352 4.016.352 2.992.352 1.264 1.936 0 4.384 0c2.464 0 4.048 1.264 4.048 2.976zM4.384 1.664c-1.152 0-1.888.624-1.888 1.584 0 .96.736 1.664 1.888 1.664s1.904-.704 1.904-1.664-.752-1.584-1.904-1.584zM2.256 8.4c0 1.152.832 1.952 2.128 1.952 1.312 0 2.144-.8 2.144-1.952s-.832-1.904-2.144-1.904c-1.296 0-2.128.752-2.128 1.904zm14.224.144c0-1.36-1.264-1.904-2.912-1.904h-.464V4.912h.384c1.664 0 2.704-.608 2.704-1.696 0-1.008-.88-1.552-1.84-1.552-1.328 0-2.176.848-2.288 2.048H9.968C10.224 1.408 11.824 0 14.48 0c1.936 0 3.936.928 3.936 3.12 0 1.12-.688 2.064-1.568 2.544A3.035 3.035 0 0118.72 8.48c0 2.352-2.032 3.536-4.48 3.536-2.656 0-4.224-1.728-4.368-3.856h2.08c.16 1.168.912 2.192 2.352 2.192 1.2 0 2.176-.72 2.176-1.808z" transform="translate(0 10)"/>
          <use id="pet-seat-icon-seatnumber_83" xlink:href="#pet-seat-icon" transform="translate(0 -12)"/>
        </g>
      </g>
      <g id="seat_82" transform="translate(167.616 121)">
        <path d="M.5.5h40.397c.967 0 1.842.392 2.475 1.025A3.489 3.489 0 0144.397 4h0v35c0 .966-.392 1.841-1.025 2.475a3.489 3.489 0 01-2.475 1.025h0H.5V.5z" id="seat_82_shape" stroke="#1B50AF" fill="#FFF" transform="rotate(-180 22.449 21.5)"/>
        <path id="Line" stroke="#1B50AF" fill="#FFF" stroke-linecap="square" d="M35.419 42.5V.488"/>
        <g id="seatnumber_82" transform="translate(9.933 16.392)" fill="#1B50AF">
          <path d="M8.432 2.976c0 1.04-.416 2.016-1.408 2.624 1.296.736 1.76 1.776 1.76 2.896 0 2.272-1.936 3.52-4.4 3.52C1.936 12.016 0 10.768 0 8.496 0 7.376.48 6.32 1.776 5.6.816 5.056.352 4.016.352 2.992.352 1.264 1.936 0 4.384 0c2.464 0 4.048 1.264 4.048 2.976zM4.384 1.664c-1.152 0-1.888.624-1.888 1.584 0 .96.736 1.664 1.888 1.664s1.904-.704 1.904-1.664-.752-1.584-1.904-1.584zM2.256 8.4c0 1.152.832 1.952 2.128 1.952 1.312 0 2.144-.8 2.144-1.952s-.832-1.904-2.144-1.904c-1.296 0-2.128.752-2.128 1.904zm15.888-5.28c0 2.176-2.112 4.448-5.68 6.832h5.952v1.856H9.888v-1.792c3.728-3.008 6.032-4.944 6.032-6.784 0-1.008-.64-1.6-1.712-1.6-.976 0-1.968.592-1.968 2.32h-2.144C10.064 1.552 11.76 0 14.336 0c2.32 0 3.808 1.104 3.808 3.12z"/>
        </g>
        <g id="seatnumber_82-with-service-icon" transform="translate(9.933 16.392)">
          <path d="M8.432 2.976c0 1.04-.416 2.016-1.408 2.624 1.296.736 1.76 1.776 1.76 2.896 0 2.272-1.936 3.52-4.4 3.52C1.936 12.016 0 10.768 0 8.496 0 7.376.48 6.32 1.776 5.6.816 5.056.352 4.016.352 2.992.352 1.264 1.936 0 4.384 0c2.464 0 4.048 1.264 4.048 2.976zM4.384 1.664c-1.152 0-1.888.624-1.888 1.584 0 .96.736 1.664 1.888 1.664s1.904-.704 1.904-1.664-.752-1.584-1.904-1.584zM2.256 8.4c0 1.152.832 1.952 2.128 1.952 1.312 0 2.144-.8 2.144-1.952s-.832-1.904-2.144-1.904c-1.296 0-2.128.752-2.128 1.904zm15.888-5.28c0 2.176-2.112 4.448-5.68 6.832h5.952v1.856H9.888v-1.792c3.728-3.008 6.032-4.944 6.032-6.784 0-1.008-.64-1.6-1.712-1.6-.976 0-1.968.592-1.968 2.32h-2.144C10.064 1.552 11.76 0 14.336 0c2.32 0 3.808 1.104 3.808 3.12z" transform="translate(0 10)"/>
          <use id="pet-seat-icon-seatnumber_82" xlink:href="#pet-seat-icon" transform="translate(0 -12)"/>
        </g>
      </g>
      <g id="seat_81" transform="translate(167.616 164)">
        <path d="M.5.5h40.397c.967 0 1.842.392 2.475 1.025A3.489 3.489 0 0144.397 4h0v35c0 .966-.392 1.841-1.025 2.475a3.489 3.489 0 01-2.475 1.025h0H.5V.5z" id="seat_81_shape" stroke="#1B50AF" fill="#FFF" transform="rotate(-180 22.449 21.5)"/>
        <path id="Line" stroke="#1B50AF" fill="#FFF" stroke-linecap="square" d="M35.419 42.5V.488"/>
        <g id="seatnumber_81" transform="translate(11.613 16.392)" fill="#1B50AF">
          <path d="M8.432 2.976c0 1.04-.416 2.016-1.408 2.624 1.296.736 1.76 1.776 1.76 2.896 0 2.272-1.936 3.52-4.4 3.52C1.936 12.016 0 10.768 0 8.496 0 7.376.48 6.32 1.776 5.6.816 5.056.352 4.016.352 2.992.352 1.264 1.936 0 4.384 0c2.464 0 4.048 1.264 4.048 2.976zM4.384 1.664c-1.152 0-1.888.624-1.888 1.584 0 .96.736 1.664 1.888 1.664s1.904-.704 1.904-1.664-.752-1.584-1.904-1.584zM2.256 8.4c0 1.152.832 1.952 2.128 1.952 1.312 0 2.144-.8 2.144-1.952s-.832-1.904-2.144-1.904c-1.296 0-2.128.752-2.128 1.904zm9.76 3.408V3.136H9.52V1.632c1.68-.048 2.464-.16 3.024-1.424h1.68v11.6h-2.208z"/>
        </g>
        <g id="seatnumber_81-with-service-icon" transform="translate(11.613 16.392)">
          <path d="M8.432 2.976c0 1.04-.416 2.016-1.408 2.624 1.296.736 1.76 1.776 1.76 2.896 0 2.272-1.936 3.52-4.4 3.52C1.936 12.016 0 10.768 0 8.496 0 7.376.48 6.32 1.776 5.6.816 5.056.352 4.016.352 2.992.352 1.264 1.936 0 4.384 0c2.464 0 4.048 1.264 4.048 2.976zM4.384 1.664c-1.152 0-1.888.624-1.888 1.584 0 .96.736 1.664 1.888 1.664s1.904-.704 1.904-1.664-.752-1.584-1.904-1.584zM2.256 8.4c0 1.152.832 1.952 2.128 1.952 1.312 0 2.144-.8 2.144-1.952s-.832-1.904-2.144-1.904c-1.296 0-2.128.752-2.128 1.904zm9.76 3.408V3.136H9.52V1.632c1.68-.048 2.464-.16 3.024-1.424h1.68v11.6h-2.208z" transform="translate(0 10)"/>
          <use id="pet-seat-icon-seatnumber_81" xlink:href="#pet-seat-icon" transform="translate(0 -12)"/>
        </g>
      </g>
      <g id="seat_80" transform="translate(223.487 43)">
        <path d="M.5.5h40.397c.967 0 1.842.392 2.475 1.025A3.489 3.489 0 0144.397 4h0v35c0 .966-.392 1.841-1.025 2.475a3.489 3.489 0 01-2.475 1.025h0H.5V.5z" id="seat_80_shape" stroke="#1B50AF" fill="#FFF" transform="rotate(-180 22.449 21.5)"/>
        <path id="Line" stroke="#1B50AF" fill="#FFF" stroke-linecap="square" d="M35.419 42.5V.488"/>
        <g id="seatnumber_80" transform="translate(9.26 16.392)" fill="#1B50AF">
          <path d="M8.432 2.976c0 1.04-.416 2.016-1.408 2.624 1.296.736 1.76 1.776 1.76 2.896 0 2.272-1.936 3.52-4.4 3.52C1.936 12.016 0 10.768 0 8.496 0 7.376.48 6.32 1.776 5.6.816 5.056.352 4.016.352 2.992.352 1.264 1.936 0 4.384 0c2.464 0 4.048 1.264 4.048 2.976zM4.384 1.664c-1.152 0-1.888.624-1.888 1.584 0 .96.736 1.664 1.888 1.664s1.904-.704 1.904-1.664-.752-1.584-1.904-1.584zM2.256 8.4c0 1.152.832 1.952 2.128 1.952 1.312 0 2.144-.8 2.144-1.952s-.832-1.904-2.144-1.904c-1.296 0-2.128.752-2.128 1.904zm7.904-2.416C10.16 2.464 11.728 0 14.832 0c3.088 0 4.656 2.464 4.656 5.984 0 3.536-1.568 6.032-4.656 6.032-3.104 0-4.672-2.496-4.672-6.032zm7.072 0c0-2.768-.832-4.32-2.4-4.32s-2.416 1.552-2.416 4.32c0 2.784.848 4.368 2.416 4.368s2.4-1.584 2.4-4.368z"/>
        </g>
        <g id="seatnumber_80-with-service-icon" transform="translate(9.26 16.392)">
          <path d="M8.432 2.976c0 1.04-.416 2.016-1.408 2.624 1.296.736 1.76 1.776 1.76 2.896 0 2.272-1.936 3.52-4.4 3.52C1.936 12.016 0 10.768 0 8.496 0 7.376.48 6.32 1.776 5.6.816 5.056.352 4.016.352 2.992.352 1.264 1.936 0 4.384 0c2.464 0 4.048 1.264 4.048 2.976zM4.384 1.664c-1.152 0-1.888.624-1.888 1.584 0 .96.736 1.664 1.888 1.664s1.904-.704 1.904-1.664-.752-1.584-1.904-1.584zM2.256 8.4c0 1.152.832 1.952 2.128 1.952 1.312 0 2.144-.8 2.144-1.952s-.832-1.904-2.144-1.904c-1.296 0-2.128.752-2.128 1.904zm7.904-2.416C10.16 2.464 11.728 0 14.832 0c3.088 0 4.656 2.464 4.656 5.984 0 3.536-1.568 6.032-4.656 6.032-3.104 0-4.672-2.496-4.672-6.032zm7.072 0c0-2.768-.832-4.32-2.4-4.32s-2.416 1.552-2.416 4.32c0 2.784.848 4.368 2.416 4.368s2.4-1.584 2.4-4.368z" transform="translate(0 10)"/>
          <use id="pet-seat-icon-seatnumber_80" xlink:href="#pet-seat-icon" transform="translate(0 -12)"/>
        </g>
      </g>
      <g id="seat_79" transform="translate(223.487)">
        <path d="M.5.5h40.397c.967 0 1.842.392 2.475 1.025A3.489 3.489 0 0144.397 4h0v35c0 .966-.392 1.841-1.025 2.475a3.489 3.489 0 01-2.475 1.025h0H.5V.5z" id="seat_79_shape" stroke="#1B50AF" fill="#FFF" transform="rotate(-180 22.449 21.5)"/>
        <path id="Line" stroke="#1B50AF" fill="#FFF" stroke-linecap="square" d="M35.419 42.5V.488"/>
        <g id="seatnumber_79" transform="translate(9.853 16.392)" fill="#1B50AF">
          <path d="M0 .208h8.528v1.856c-3.024 3.088-4.496 5.568-4.72 9.744H1.376c.192-4.032 2.336-7.296 4.928-9.744H0V.208zM15.312 6.8c-.496.624-1.424 1.104-2.656 1.104-2.128 0-3.92-1.472-3.92-3.968C8.736 1.552 10.544 0 13.056 0c3.104 0 4.464 2.496 4.464 5.744 0 3.328-1.248 6.272-4.704 6.272-2.528 0-3.712-1.728-3.84-3.2h2.16c.112.96.864 1.504 1.824 1.504 1.456 0 2.352-1.376 2.352-3.52zm-2.256-5.12c-1.2 0-2.08.88-2.08 2.272 0 1.36.88 2.256 2.08 2.256 1.2 0 2.112-.896 2.112-2.256 0-1.376-.912-2.272-2.112-2.272z"/>
        </g>
        <g id="seatnumber_79-with-service-icon" transform="translate(9.853 16.392)">
          <path d="M0 .208h8.528v1.856c-3.024 3.088-4.496 5.568-4.72 9.744H1.376c.192-4.032 2.336-7.296 4.928-9.744H0V.208zM15.312 6.8c-.496.624-1.424 1.104-2.656 1.104-2.128 0-3.92-1.472-3.92-3.968C8.736 1.552 10.544 0 13.056 0c3.104 0 4.464 2.496 4.464 5.744 0 3.328-1.248 6.272-4.704 6.272-2.528 0-3.712-1.728-3.84-3.2h2.16c.112.96.864 1.504 1.824 1.504 1.456 0 2.352-1.376 2.352-3.52zm-2.256-5.12c-1.2 0-2.08.88-2.08 2.272 0 1.36.88 2.256 2.08 2.256 1.2 0 2.112-.896 2.112-2.256 0-1.376-.912-2.272-2.112-2.272z" transform="translate(0 10)"/>
          <use id="pet-seat-icon-seatnumber_79" xlink:href="#pet-seat-icon" transform="translate(0 -12)"/>
        </g>
      </g>
      <g id="seat_78" transform="translate(223.487 121)">
        <path d="M.5.5h40.397c.967 0 1.842.392 2.475 1.025A3.489 3.489 0 0144.397 4h0v35c0 .966-.392 1.841-1.025 2.475a3.489 3.489 0 01-2.475 1.025h0H.5V.5z" id="seat_78_shape" stroke="#1B50AF" fill="#FFF" transform="rotate(-180 22.449 21.5)"/>
        <path id="Line" stroke="#1B50AF" fill="#FFF" stroke-linecap="square" d="M35.419 42.5V.488"/>
        <g id="seatnumber_78" transform="translate(9.7 16.392)" fill="#1B50AF">
          <path d="M0 .208h8.528v1.856c-3.024 3.088-4.496 5.568-4.72 9.744H1.376c.192-4.032 2.336-7.296 4.928-9.744H0V.208zm17.376 2.768c0 1.04-.416 2.016-1.408 2.624 1.296.736 1.76 1.776 1.76 2.896 0 2.272-1.936 3.52-4.4 3.52-2.448 0-4.384-1.248-4.384-3.52 0-1.12.48-2.176 1.776-2.896-.96-.544-1.424-1.584-1.424-2.608C9.296 1.264 10.88 0 13.328 0c2.464 0 4.048 1.264 4.048 2.976zm-4.048-1.312c-1.152 0-1.888.624-1.888 1.584 0 .96.736 1.664 1.888 1.664s1.904-.704 1.904-1.664-.752-1.584-1.904-1.584zM11.2 8.4c0 1.152.832 1.952 2.128 1.952 1.312 0 2.144-.8 2.144-1.952s-.832-1.904-2.144-1.904c-1.296 0-2.128.752-2.128 1.904z"/>
        </g>
        <g id="seatnumber_78-with-service-icon" transform="translate(9.7 16.392)">
          <path d="M0 .208h8.528v1.856c-3.024 3.088-4.496 5.568-4.72 9.744H1.376c.192-4.032 2.336-7.296 4.928-9.744H0V.208zm17.376 2.768c0 1.04-.416 2.016-1.408 2.624 1.296.736 1.76 1.776 1.76 2.896 0 2.272-1.936 3.52-4.4 3.52-2.448 0-4.384-1.248-4.384-3.52 0-1.12.48-2.176 1.776-2.896-.96-.544-1.424-1.584-1.424-2.608C9.296 1.264 10.88 0 13.328 0c2.464 0 4.048 1.264 4.048 2.976zm-4.048-1.312c-1.152 0-1.888.624-1.888 1.584 0 .96.736 1.664 1.888 1.664s1.904-.704 1.904-1.664-.752-1.584-1.904-1.584zM11.2 8.4c0 1.152.832 1.952 2.128 1.952 1.312 0 2.144-.8 2.144-1.952s-.832-1.904-2.144-1.904c-1.296 0-2.128.752-2.128 1.904z" transform="translate(0 10)"/>
          <use id="pet-seat-icon-seatnumber_78" xlink:href="#pet-seat-icon" transform="translate(0 -12)"/>
        </g>
      </g>
      <g id="seat_77" transform="translate(223.487 164)">
        <path d="M.5.5h40.397c.967 0 1.842.392 2.475 1.025A3.489 3.489 0 0144.397 4h0v35c0 .966-.392 1.841-1.025 2.475a3.489 3.489 0 01-2.475 1.025h0H.5V.5z" id="seat_77_shape" stroke="#1B50AF" fill="#FFF" transform="rotate(-180 22.449 21.5)"/>
        <path id="Line" stroke="#1B50AF" fill="#FFF" stroke-linecap="square" d="M35.419 42.5V.488"/>
        <g id="seatnumber_77" transform="translate(10.749 16.6)" fill="#1B50AF">
          <path d="M0 0h8.528v1.856C5.504 4.944 4.032 7.424 3.808 11.6H1.376c.192-4.032 2.336-7.296 4.928-9.744H0V0zm8.16 0h8.528v1.856c-3.024 3.088-4.496 5.568-4.72 9.744H9.536c.192-4.032 2.336-7.296 4.928-9.744H8.16V0z"/>
        </g>
        <g id="seatnumber_77-with-service-icon" transform="translate(10.749 16.6)">
          <path d="M0 0h8.528v1.856C5.504 4.944 4.032 7.424 3.808 11.6H1.376c.192-4.032 2.336-7.296 4.928-9.744H0V0zm8.16 0h8.528v1.856c-3.024 3.088-4.496 5.568-4.72 9.744H9.536c.192-4.032 2.336-7.296 4.928-9.744H8.16V0z" transform="translate(0 10)"/>
          <use id="pet-seat-icon-seatnumber_77" xlink:href="#pet-seat-icon" transform="translate(0 -12)"/>
        </g>
      </g>
      <g id="seat_76" transform="translate(279.36 43)">
        <path d="M.5.5h40.397c.967 0 1.842.392 2.475 1.025A3.489 3.489 0 0144.397 4h0v35c0 .966-.392 1.841-1.025 2.475a3.489 3.489 0 01-2.475 1.025h0H.5V.5z" id="seat_76_shape" stroke="#1B50AF" fill="#FFF" transform="rotate(-180 22.449 21.5)"/>
        <path id="Line" stroke="#1B50AF" fill="#FFF" stroke-linecap="square" d="M35.419 42.5V.488"/>
        <g id="seatnumber_76" transform="translate(9.805 16.392)" fill="#1B50AF">
          <path d="M0 .208h8.528v1.856c-3.024 3.088-4.496 5.568-4.72 9.744H1.376c.192-4.032 2.336-7.296 4.928-9.744H0V.208zm11.056 5.008c.496-.624 1.424-1.104 2.64-1.104 2.144 0 3.936 1.456 3.936 3.968 0 2.384-1.808 3.936-4.32 3.936-3.104 0-4.464-2.496-4.464-5.744C8.848 2.944 10.08 0 13.552 0c2.528 0 3.712 1.712 3.84 3.2h-2.16c-.112-.96-.88-1.52-1.824-1.52-1.456 0-2.352 1.376-2.352 3.536zm2.256 5.136c1.2 0 2.08-.896 2.08-2.304 0-1.36-.88-2.256-2.08-2.256-1.216 0-2.128.896-2.128 2.256 0 1.392.912 2.304 2.128 2.304z"/>
        </g>
        <g id="seatnumber_76-with-service-icon" transform="translate(9.805 16.392)">
          <path d="M0 .208h8.528v1.856c-3.024 3.088-4.496 5.568-4.72 9.744H1.376c.192-4.032 2.336-7.296 4.928-9.744H0V.208zm11.056 5.008c.496-.624 1.424-1.104 2.64-1.104 2.144 0 3.936 1.456 3.936 3.968 0 2.384-1.808 3.936-4.32 3.936-3.104 0-4.464-2.496-4.464-5.744C8.848 2.944 10.08 0 13.552 0c2.528 0 3.712 1.712 3.84 3.2h-2.16c-.112-.96-.88-1.52-1.824-1.52-1.456 0-2.352 1.376-2.352 3.536zm2.256 5.136c1.2 0 2.08-.896 2.08-2.304 0-1.36-.88-2.256-2.08-2.256-1.216 0-2.128.896-2.128 2.256 0 1.392.912 2.304 2.128 2.304z" transform="translate(0 10)"/>
          <use id="pet-seat-icon-seatnumber_76" xlink:href="#pet-seat-icon" transform="translate(0 -12)"/>
        </g>
      </g>
      <g id="seat_75" transform="translate(279.36)">
        <path d="M.5.5h40.397c.967 0 1.842.392 2.475 1.025A3.489 3.489 0 0144.397 4h0v35c0 .966-.392 1.841-1.025 2.475a3.489 3.489 0 01-2.475 1.025h0H.5V.5z" id="seat_75_shape" stroke="#1B50AF" fill="#FFF" transform="rotate(-180 22.449 21.5)"/>
        <path id="Line" stroke="#1B50AF" fill="#FFF" stroke-linecap="square" d="M35.419 42.5V.488"/>
        <g id="seatnumber_75" transform="translate(9.845 16.6)" fill="#1B50AF">
          <path d="M0 0h8.528v1.856C5.504 4.944 4.032 7.424 3.808 11.6H1.376c.192-4.032 2.336-7.296 4.928-9.744H0V0zm15.296 7.792c0-1.584-1.072-2.368-2.144-2.368-1.024 0-1.76.512-1.984 1.056l-2.016-.096L9.92 0h7.152v1.856h-5.344l-.32 2.48c.48-.352 1.232-.64 2.304-.64 1.984 0 3.824 1.408 3.824 4.08 0 2.56-1.984 4.032-4.368 4.032-2.72 0-4.16-1.856-4.288-3.856h2.08c.128 1.2.816 2.192 2.24 2.192 1.216 0 2.096-.88 2.096-2.352z"/>
        </g>
        <g id="seatnumber_75-with-service-icon" transform="translate(9.845 16.6)">
          <path d="M0 0h8.528v1.856C5.504 4.944 4.032 7.424 3.808 11.6H1.376c.192-4.032 2.336-7.296 4.928-9.744H0V0zm15.296 7.792c0-1.584-1.072-2.368-2.144-2.368-1.024 0-1.76.512-1.984 1.056l-2.016-.096L9.92 0h7.152v1.856h-5.344l-.32 2.48c.48-.352 1.232-.64 2.304-.64 1.984 0 3.824 1.408 3.824 4.08 0 2.56-1.984 4.032-4.368 4.032-2.72 0-4.16-1.856-4.288-3.856h2.08c.128 1.2.816 2.192 2.24 2.192 1.216 0 2.096-.88 2.096-2.352z" transform="translate(0 10)"/>
          <use id="pet-seat-icon-seatnumber_75" xlink:href="#pet-seat-icon" transform="translate(0 -12)"/>
        </g>
      </g>
      <g id="seat_74" transform="translate(279.36 121)">
        <path d="M.5.5h40.397c.967 0 1.842.392 2.475 1.025A3.489 3.489 0 0144.397 4h0v35c0 .966-.392 1.841-1.025 2.475a3.489 3.489 0 01-2.475 1.025h0H.5V.5z" id="seat_74_shape" stroke="#1B50AF" fill="#FFF" transform="rotate(-180 22.449 21.5)"/>
        <path id="Line" stroke="#1B50AF" fill="#FFF" stroke-linecap="square" d="M35.419 42.5V.488"/>
        <g id="seatnumber_74" transform="translate(9.757 16.6)" fill="#1B50AF">
          <path d="M0 0h8.528v1.856C5.504 4.944 4.032 7.424 3.808 11.6H1.376c.192-4.032 2.336-7.296 4.928-9.744H0V0zm18.24 8.816h-1.984V11.6h-2.192V8.816H8.336V7.088L14.096 0h2.16v6.944h1.984v1.872zm-7.488-1.872h3.312V2.8l-3.312 4.144z"/>
        </g>
        <g id="seatnumber_74-with-service-icon" transform="translate(9.757 16.6)">
          <path d="M0 0h8.528v1.856C5.504 4.944 4.032 7.424 3.808 11.6H1.376c.192-4.032 2.336-7.296 4.928-9.744H0V0zm18.24 8.816h-1.984V11.6h-2.192V8.816H8.336V7.088L14.096 0h2.16v6.944h1.984v1.872zm-7.488-1.872h3.312V2.8l-3.312 4.144z" transform="translate(0 10)"/>
          <use id="pet-seat-icon-seatnumber_74" xlink:href="#pet-seat-icon" transform="translate(0 -12)"/>
        </g>
      </g>
      <g id="seat_73" transform="translate(279.36 164)">
        <path d="M.5.5h40.397c.967 0 1.842.392 2.475 1.025A3.489 3.489 0 0144.397 4h0v35c0 .966-.392 1.841-1.025 2.475a3.489 3.489 0 01-2.475 1.025h0H.5V.5z" id="seat_73_shape" stroke="#1B50AF" fill="#FFF" transform="rotate(-180 22.449 21.5)"/>
        <path id="Line" stroke="#1B50AF" fill="#FFF" stroke-linecap="square" d="M35.419 42.5V.488"/>
        <g id="seatnumber_73" transform="translate(9.917 16.392)" fill="#1B50AF">
          <path d="M0 .208h8.528v1.856c-3.024 3.088-4.496 5.568-4.72 9.744H1.376c.192-4.032 2.336-7.296 4.928-9.744H0V.208zm15.168 8.336c0-1.36-1.264-1.904-2.912-1.904h-.464V4.912h.384c1.664 0 2.704-.608 2.704-1.696 0-1.008-.88-1.552-1.84-1.552-1.328 0-2.176.848-2.288 2.048H8.656C8.912 1.408 10.512 0 13.168 0c1.936 0 3.936.928 3.936 3.12 0 1.12-.688 2.064-1.568 2.544a3.035 3.035 0 011.872 2.816c0 2.352-2.032 3.536-4.48 3.536-2.656 0-4.224-1.728-4.368-3.856h2.08c.16 1.168.912 2.192 2.352 2.192 1.2 0 2.176-.72 2.176-1.808z"/>
        </g>
        <g id="seatnumber_73-with-service-icon" transform="translate(9.917 16.392)">
          <path d="M0 .208h8.528v1.856c-3.024 3.088-4.496 5.568-4.72 9.744H1.376c.192-4.032 2.336-7.296 4.928-9.744H0V.208zm15.168 8.336c0-1.36-1.264-1.904-2.912-1.904h-.464V4.912h.384c1.664 0 2.704-.608 2.704-1.696 0-1.008-.88-1.552-1.84-1.552-1.328 0-2.176.848-2.288 2.048H8.656C8.912 1.408 10.512 0 13.168 0c1.936 0 3.936.928 3.936 3.12 0 1.12-.688 2.064-1.568 2.544a3.035 3.035 0 011.872 2.816c0 2.352-2.032 3.536-4.48 3.536-2.656 0-4.224-1.728-4.368-3.856h2.08c.16 1.168.912 2.192 2.352 2.192 1.2 0 2.176-.72 2.176-1.808z" transform="translate(0 10)"/>
          <use id="pet-seat-icon-seatnumber_73" xlink:href="#pet-seat-icon" transform="translate(0 -12)"/>
        </g>
      </g>
      <g id="seat_72" transform="translate(335.231 43)">
        <path d="M.5.5h40.397c.967 0 1.842.392 2.475 1.025A3.489 3.489 0 0144.397 4h0v35c0 .966-.392 1.841-1.025 2.475a3.489 3.489 0 01-2.475 1.025h0H.5V.5z" id="seat_72_shape" stroke="#1B50AF" fill="#FFF" transform="rotate(-180 22.449 21.5)"/>
        <path id="Line" stroke="#1B50AF" fill="#FFF" stroke-linecap="square" d="M35.419 42.5V.488"/>
        <g id="seatnumber_72" transform="translate(10.197 16.392)" fill="#1B50AF">
          <path d="M0 .208h8.528v1.856c-3.024 3.088-4.496 5.568-4.72 9.744H1.376c.192-4.032 2.336-7.296 4.928-9.744H0V.208zM16.832 3.12c0 2.176-2.112 4.448-5.68 6.832h5.952v1.856H8.576v-1.792c3.728-3.008 6.032-4.944 6.032-6.784 0-1.008-.64-1.6-1.712-1.6-.976 0-1.968.592-1.968 2.32H8.784C8.752 1.552 10.448 0 13.024 0c2.32 0 3.808 1.104 3.808 3.12z"/>
        </g>
        <g id="seatnumber_72-with-service-icon" transform="translate(10.197 16.392)">
          <path d="M0 .208h8.528v1.856c-3.024 3.088-4.496 5.568-4.72 9.744H1.376c.192-4.032 2.336-7.296 4.928-9.744H0V.208zM16.832 3.12c0 2.176-2.112 4.448-5.68 6.832h5.952v1.856H8.576v-1.792c3.728-3.008 6.032-4.944 6.032-6.784 0-1.008-.64-1.6-1.712-1.6-.976 0-1.968.592-1.968 2.32H8.784C8.752 1.552 10.448 0 13.024 0c2.32 0 3.808 1.104 3.808 3.12z" transform="translate(0 10)"/>
          <use id="pet-seat-icon-seatnumber_72" xlink:href="#pet-seat-icon" transform="translate(0 -12)"/>
        </g>
      </g>
      <g id="seat_71" transform="translate(335.231)">
        <path d="M.5.5h40.397c.967 0 1.842.392 2.475 1.025A3.489 3.489 0 0144.397 4h0v35c0 .966-.392 1.841-1.025 2.475a3.489 3.489 0 01-2.475 1.025h0H.5V.5z" id="seat_71_shape" stroke="#1B50AF" fill="#FFF" transform="rotate(-180 22.449 21.5)"/>
        <path id="Line" stroke="#1B50AF" fill="#FFF" stroke-linecap="square" d="M35.419 42.5V.488"/>
        <g id="seatnumber_71" transform="translate(11.877 16.6)" fill="#1B50AF">
          <path d="M0 0h8.528v1.856C5.504 4.944 4.032 7.424 3.808 11.6H1.376c.192-4.032 2.336-7.296 4.928-9.744H0V0zm10.704 11.6V2.928H8.208V1.424c1.68-.048 2.464-.16 3.024-1.424h1.68v11.6h-2.208z"/>
        </g>
        <g id="seatnumber_71-with-service-icon" transform="translate(11.877 16.6)">
          <path d="M0 0h8.528v1.856C5.504 4.944 4.032 7.424 3.808 11.6H1.376c.192-4.032 2.336-7.296 4.928-9.744H0V0zm10.704 11.6V2.928H8.208V1.424c1.68-.048 2.464-.16 3.024-1.424h1.68v11.6h-2.208z" transform="translate(0 10)"/>
          <use id="pet-seat-icon-seatnumber_71" xlink:href="#pet-seat-icon" transform="translate(0 -12)"/>
        </g>
      </g>
      <g id="seat_70" transform="translate(335.231 121)">
        <path d="M.5.5h40.397c.967 0 1.842.392 2.475 1.025A3.489 3.489 0 0144.397 4h0v35c0 .966-.392 1.841-1.025 2.475a3.489 3.489 0 01-2.475 1.025h0H.5V.5z" id="seat_70_shape" stroke="#1B50AF" fill="#FFF" transform="rotate(-180 22.449 21.5)"/>
        <path id="Line" stroke="#1B50AF" fill="#FFF" stroke-linecap="square" d="M35.419 42.5V.488"/>
        <g id="seatnumber_70" transform="translate(9.525 16.392)" fill="#1B50AF">
          <path d="M0 .208h8.528v1.856c-3.024 3.088-4.496 5.568-4.72 9.744H1.376c.192-4.032 2.336-7.296 4.928-9.744H0V.208zm8.848 5.776C8.848 2.464 10.416 0 13.52 0c3.088 0 4.656 2.464 4.656 5.984 0 3.536-1.568 6.032-4.656 6.032-3.104 0-4.672-2.496-4.672-6.032zm7.072 0c0-2.768-.832-4.32-2.4-4.32s-2.416 1.552-2.416 4.32c0 2.784.848 4.368 2.416 4.368s2.4-1.584 2.4-4.368z"/>
        </g>
        <g id="seatnumber_70-with-service-icon" transform="translate(9.525 16.392)">
          <path d="M0 .208h8.528v1.856c-3.024 3.088-4.496 5.568-4.72 9.744H1.376c.192-4.032 2.336-7.296 4.928-9.744H0V.208zm8.848 5.776C8.848 2.464 10.416 0 13.52 0c3.088 0 4.656 2.464 4.656 5.984 0 3.536-1.568 6.032-4.656 6.032-3.104 0-4.672-2.496-4.672-6.032zm7.072 0c0-2.768-.832-4.32-2.4-4.32s-2.416 1.552-2.416 4.32c0 2.784.848 4.368 2.416 4.368s2.4-1.584 2.4-4.368z" transform="translate(0 10)"/>
          <use id="pet-seat-icon-seatnumber_70" xlink:href="#pet-seat-icon" transform="translate(0 -12)"/>
        </g>
      </g>
      <g id="seat_69" transform="translate(335.231 164)">
        <path d="M.5.5h40.397c.967 0 1.842.392 2.475 1.025A3.489 3.489 0 0144.397 4h0v35c0 .966-.392 1.841-1.025 2.475a3.489 3.489 0 01-2.475 1.025h0H.5V.5z" id="seat_69_shape" stroke="#1B50AF" fill="#FFF" transform="rotate(-180 22.449 21.5)"/>
        <path id="Line" stroke="#1B50AF" fill="#FFF" stroke-linecap="square" d="M35.419 42.5V.488"/>
        <g id="seatnumber_69" transform="translate(9.597 16.392)" fill="#1B50AF">
          <path d="M2.208 5.216c.496-.624 1.424-1.104 2.64-1.104 2.144 0 3.936 1.456 3.936 3.968 0 2.384-1.808 3.936-4.32 3.936C1.36 12.016 0 9.52 0 6.272 0 2.944 1.232 0 4.704 0c2.528 0 3.712 1.712 3.84 3.2h-2.16c-.112-.96-.88-1.52-1.824-1.52-1.456 0-2.352 1.376-2.352 3.536zm2.256 5.136c1.2 0 2.08-.896 2.08-2.304 0-1.36-.88-2.256-2.08-2.256-1.216 0-2.128.896-2.128 2.256 0 1.392.912 2.304 2.128 2.304zM16.512 6.8c-.496.624-1.424 1.104-2.656 1.104-2.128 0-3.92-1.472-3.92-3.968C9.936 1.552 11.744 0 14.256 0c3.104 0 4.464 2.496 4.464 5.744 0 3.328-1.248 6.272-4.704 6.272-2.528 0-3.712-1.728-3.84-3.2h2.16c.112.96.864 1.504 1.824 1.504 1.456 0 2.352-1.376 2.352-3.52zm-2.256-5.12c-1.2 0-2.08.88-2.08 2.272 0 1.36.88 2.256 2.08 2.256 1.2 0 2.112-.896 2.112-2.256 0-1.376-.912-2.272-2.112-2.272z"/>
        </g>
        <g id="seatnumber_69-with-service-icon" transform="translate(9.597 16.392)">
          <path d="M2.208 5.216c.496-.624 1.424-1.104 2.64-1.104 2.144 0 3.936 1.456 3.936 3.968 0 2.384-1.808 3.936-4.32 3.936C1.36 12.016 0 9.52 0 6.272 0 2.944 1.232 0 4.704 0c2.528 0 3.712 1.712 3.84 3.2h-2.16c-.112-.96-.88-1.52-1.824-1.52-1.456 0-2.352 1.376-2.352 3.536zm2.256 5.136c1.2 0 2.08-.896 2.08-2.304 0-1.36-.88-2.256-2.08-2.256-1.216 0-2.128.896-2.128 2.256 0 1.392.912 2.304 2.128 2.304zM16.512 6.8c-.496.624-1.424 1.104-2.656 1.104-2.128 0-3.92-1.472-3.92-3.968C9.936 1.552 11.744 0 14.256 0c3.104 0 4.464 2.496 4.464 5.744 0 3.328-1.248 6.272-4.704 6.272-2.528 0-3.712-1.728-3.84-3.2h2.16c.112.96.864 1.504 1.824 1.504 1.456 0 2.352-1.376 2.352-3.52zm-2.256-5.12c-1.2 0-2.08.88-2.08 2.272 0 1.36.88 2.256 2.08 2.256 1.2 0 2.112-.896 2.112-2.256 0-1.376-.912-2.272-2.112-2.272z" transform="translate(0 10)"/>
          <use id="pet-seat-icon-seatnumber_69" xlink:href="#pet-seat-icon" transform="translate(0 -12)"/>
        </g>
      </g>
      <g id="seat_68" transform="translate(391.103 43)">
        <path d="M.5.5h40.397c.967 0 1.842.392 2.475 1.025A3.489 3.489 0 0144.397 4h0v35c0 .966-.392 1.841-1.025 2.475a3.489 3.489 0 01-2.475 1.025h0H.5V.5z" id="seat_68_shape" stroke="#1B50AF" fill="#FFF" transform="rotate(-180 22.449 21.5)"/>
        <path id="Line" stroke="#1B50AF" fill="#FFF" stroke-linecap="square" d="M35.419 42.5V.488"/>
        <g id="seatnumber_68" transform="translate(9.445 16.392)" fill="#1B50AF">
          <path d="M2.208 5.216c.496-.624 1.424-1.104 2.64-1.104 2.144 0 3.936 1.456 3.936 3.968 0 2.384-1.808 3.936-4.32 3.936C1.36 12.016 0 9.52 0 6.272 0 2.944 1.232 0 4.704 0c2.528 0 3.712 1.712 3.84 3.2h-2.16c-.112-.96-.88-1.52-1.824-1.52-1.456 0-2.352 1.376-2.352 3.536zm2.256 5.136c1.2 0 2.08-.896 2.08-2.304 0-1.36-.88-2.256-2.08-2.256-1.216 0-2.128.896-2.128 2.256 0 1.392.912 2.304 2.128 2.304zm14.112-7.376c0 1.04-.416 2.016-1.408 2.624 1.296.736 1.76 1.776 1.76 2.896 0 2.272-1.936 3.52-4.4 3.52-2.448 0-4.384-1.248-4.384-3.52 0-1.12.48-2.176 1.776-2.896-.96-.544-1.424-1.584-1.424-2.608C10.496 1.264 12.08 0 14.528 0c2.464 0 4.048 1.264 4.048 2.976zm-4.048-1.312c-1.152 0-1.888.624-1.888 1.584 0 .96.736 1.664 1.888 1.664s1.904-.704 1.904-1.664-.752-1.584-1.904-1.584zM12.4 8.4c0 1.152.832 1.952 2.128 1.952 1.312 0 2.144-.8 2.144-1.952s-.832-1.904-2.144-1.904c-1.296 0-2.128.752-2.128 1.904z"/>
        </g>
        <g id="seatnumber_68-with-service-icon" transform="translate(9.445 16.392)">
          <path d="M2.208 5.216c.496-.624 1.424-1.104 2.64-1.104 2.144 0 3.936 1.456 3.936 3.968 0 2.384-1.808 3.936-4.32 3.936C1.36 12.016 0 9.52 0 6.272 0 2.944 1.232 0 4.704 0c2.528 0 3.712 1.712 3.84 3.2h-2.16c-.112-.96-.88-1.52-1.824-1.52-1.456 0-2.352 1.376-2.352 3.536zm2.256 5.136c1.2 0 2.08-.896 2.08-2.304 0-1.36-.88-2.256-2.08-2.256-1.216 0-2.128.896-2.128 2.256 0 1.392.912 2.304 2.128 2.304zm14.112-7.376c0 1.04-.416 2.016-1.408 2.624 1.296.736 1.76 1.776 1.76 2.896 0 2.272-1.936 3.52-4.4 3.52-2.448 0-4.384-1.248-4.384-3.52 0-1.12.48-2.176 1.776-2.896-.96-.544-1.424-1.584-1.424-2.608C10.496 1.264 12.08 0 14.528 0c2.464 0 4.048 1.264 4.048 2.976zm-4.048-1.312c-1.152 0-1.888.624-1.888 1.584 0 .96.736 1.664 1.888 1.664s1.904-.704 1.904-1.664-.752-1.584-1.904-1.584zM12.4 8.4c0 1.152.832 1.952 2.128 1.952 1.312 0 2.144-.8 2.144-1.952s-.832-1.904-2.144-1.904c-1.296 0-2.128.752-2.128 1.904z" transform="translate(0 10)"/>
          <use id="pet-seat-icon-seatnumber_68" xlink:href="#pet-seat-icon" transform="translate(0 -12)"/>
        </g>
      </g>
      <g id="seat_67" transform="translate(391.103)">
        <path d="M.5.5h40.397c.967 0 1.842.392 2.475 1.025A3.489 3.489 0 0144.397 4h0v35c0 .966-.392 1.841-1.025 2.475a3.489 3.489 0 01-2.475 1.025h0H.5V.5z" id="seat_67_shape" stroke="#1B50AF" fill="#FFF" transform="rotate(-180 22.449 21.5)"/>
        <path id="Line" stroke="#1B50AF" fill="#FFF" stroke-linecap="square" d="M35.419 42.5V.488"/>
        <g id="seatnumber_67" transform="translate(10.493 16.392)" fill="#1B50AF">
          <path d="M2.208 5.216c.496-.624 1.424-1.104 2.64-1.104 2.144 0 3.936 1.456 3.936 3.968 0 2.384-1.808 3.936-4.32 3.936C1.36 12.016 0 9.52 0 6.272 0 2.944 1.232 0 4.704 0c2.528 0 3.712 1.712 3.84 3.2h-2.16c-.112-.96-.88-1.52-1.824-1.52-1.456 0-2.352 1.376-2.352 3.536zm2.256 5.136c1.2 0 2.08-.896 2.08-2.304 0-1.36-.88-2.256-2.08-2.256-1.216 0-2.128.896-2.128 2.256 0 1.392.912 2.304 2.128 2.304zM9.36.208h8.528v1.856c-3.024 3.088-4.496 5.568-4.72 9.744h-2.432c.192-4.032 2.336-7.296 4.928-9.744H9.36V.208z"/>
        </g>
        <g id="seatnumber_67-with-service-icon" transform="translate(10.493 16.392)">
          <path d="M2.208 5.216c.496-.624 1.424-1.104 2.64-1.104 2.144 0 3.936 1.456 3.936 3.968 0 2.384-1.808 3.936-4.32 3.936C1.36 12.016 0 9.52 0 6.272 0 2.944 1.232 0 4.704 0c2.528 0 3.712 1.712 3.84 3.2h-2.16c-.112-.96-.88-1.52-1.824-1.52-1.456 0-2.352 1.376-2.352 3.536zm2.256 5.136c1.2 0 2.08-.896 2.08-2.304 0-1.36-.88-2.256-2.08-2.256-1.216 0-2.128.896-2.128 2.256 0 1.392.912 2.304 2.128 2.304zM9.36.208h8.528v1.856c-3.024 3.088-4.496 5.568-4.72 9.744h-2.432c.192-4.032 2.336-7.296 4.928-9.744H9.36V.208z" transform="translate(0 10)"/>
          <use id="pet-seat-icon-seatnumber_67" xlink:href="#pet-seat-icon" transform="translate(0 -12)"/>
        </g>
      </g>
      <g id="seat_66" transform="translate(391.103 121)">
        <path d="M.5.5h40.397c.967 0 1.842.392 2.475 1.025A3.489 3.489 0 0144.397 4h0v35c0 .966-.392 1.841-1.025 2.475a3.489 3.489 0 01-2.475 1.025h0H.5V.5z" id="seat_66_shape" stroke="#1B50AF" fill="#FFF" transform="rotate(-180 22.449 21.5)"/>
        <path id="Line" stroke="#1B50AF" fill="#FFF" stroke-linecap="square" d="M35.419 42.5V.488"/>
        <g id="seatnumber_66" transform="translate(9.549 16.392)" fill="#1B50AF">
          <path d="M2.208 5.216c.496-.624 1.424-1.104 2.64-1.104 2.144 0 3.936 1.456 3.936 3.968 0 2.384-1.808 3.936-4.32 3.936C1.36 12.016 0 9.52 0 6.272 0 2.944 1.232 0 4.704 0c2.528 0 3.712 1.712 3.84 3.2h-2.16c-.112-.96-.88-1.52-1.824-1.52-1.456 0-2.352 1.376-2.352 3.536zm2.256 5.136c1.2 0 2.08-.896 2.08-2.304 0-1.36-.88-2.256-2.08-2.256-1.216 0-2.128.896-2.128 2.256 0 1.392.912 2.304 2.128 2.304zm7.792-5.136c.496-.624 1.424-1.104 2.64-1.104 2.144 0 3.936 1.456 3.936 3.968 0 2.384-1.808 3.936-4.32 3.936-3.104 0-4.464-2.496-4.464-5.744C10.048 2.944 11.28 0 14.752 0c2.528 0 3.712 1.712 3.84 3.2h-2.16c-.112-.96-.88-1.52-1.824-1.52-1.456 0-2.352 1.376-2.352 3.536zm2.256 5.136c1.2 0 2.08-.896 2.08-2.304 0-1.36-.88-2.256-2.08-2.256-1.216 0-2.128.896-2.128 2.256 0 1.392.912 2.304 2.128 2.304z"/>
        </g>
        <g id="seatnumber_66-with-service-icon" transform="translate(9.549 16.392)">
          <path d="M2.208 5.216c.496-.624 1.424-1.104 2.64-1.104 2.144 0 3.936 1.456 3.936 3.968 0 2.384-1.808 3.936-4.32 3.936C1.36 12.016 0 9.52 0 6.272 0 2.944 1.232 0 4.704 0c2.528 0 3.712 1.712 3.84 3.2h-2.16c-.112-.96-.88-1.52-1.824-1.52-1.456 0-2.352 1.376-2.352 3.536zm2.256 5.136c1.2 0 2.08-.896 2.08-2.304 0-1.36-.88-2.256-2.08-2.256-1.216 0-2.128.896-2.128 2.256 0 1.392.912 2.304 2.128 2.304zm7.792-5.136c.496-.624 1.424-1.104 2.64-1.104 2.144 0 3.936 1.456 3.936 3.968 0 2.384-1.808 3.936-4.32 3.936-3.104 0-4.464-2.496-4.464-5.744C10.048 2.944 11.28 0 14.752 0c2.528 0 3.712 1.712 3.84 3.2h-2.16c-.112-.96-.88-1.52-1.824-1.52-1.456 0-2.352 1.376-2.352 3.536zm2.256 5.136c1.2 0 2.08-.896 2.08-2.304 0-1.36-.88-2.256-2.08-2.256-1.216 0-2.128.896-2.128 2.256 0 1.392.912 2.304 2.128 2.304z" transform="translate(0 10)"/>
          <use id="pet-seat-icon-seatnumber_66" xlink:href="#pet-seat-icon" transform="translate(0 -12)"/>
        </g>
      </g>
      <g id="seat_65" transform="translate(391.103 164)">
        <path d="M.5.5h40.397c.967 0 1.842.392 2.475 1.025A3.489 3.489 0 0144.397 4h0v35c0 .966-.392 1.841-1.025 2.475a3.489 3.489 0 01-2.475 1.025h0H.5V.5z" id="seat_65_shape" stroke="#1B50AF" fill="#FFF" transform="rotate(-180 22.449 21.5)"/>
        <path id="Line" stroke="#1B50AF" fill="#FFF" stroke-linecap="square" d="M35.419 42.5V.488"/>
        <g id="seatnumber_65" transform="translate(9.589 16.392)" fill="#1B50AF">
          <path d="M2.208 5.216c.496-.624 1.424-1.104 2.64-1.104 2.144 0 3.936 1.456 3.936 3.968 0 2.384-1.808 3.936-4.32 3.936C1.36 12.016 0 9.52 0 6.272 0 2.944 1.232 0 4.704 0c2.528 0 3.712 1.712 3.84 3.2h-2.16c-.112-.96-.88-1.52-1.824-1.52-1.456 0-2.352 1.376-2.352 3.536zm2.256 5.136c1.2 0 2.08-.896 2.08-2.304 0-1.36-.88-2.256-2.08-2.256-1.216 0-2.128.896-2.128 2.256 0 1.392.912 2.304 2.128 2.304zM16.496 8c0-1.584-1.072-2.368-2.144-2.368-1.024 0-1.76.512-1.984 1.056l-2.016-.096.768-6.384h7.152v1.856h-5.344l-.32 2.48c.48-.352 1.232-.64 2.304-.64 1.984 0 3.824 1.408 3.824 4.08 0 2.56-1.984 4.032-4.368 4.032-2.72 0-4.16-1.856-4.288-3.856h2.08c.128 1.2.816 2.192 2.24 2.192 1.216 0 2.096-.88 2.096-2.352z"/>
        </g>
        <g id="seatnumber_65-with-service-icon" transform="translate(9.589 16.392)">
          <path d="M2.208 5.216c.496-.624 1.424-1.104 2.64-1.104 2.144 0 3.936 1.456 3.936 3.968 0 2.384-1.808 3.936-4.32 3.936C1.36 12.016 0 9.52 0 6.272 0 2.944 1.232 0 4.704 0c2.528 0 3.712 1.712 3.84 3.2h-2.16c-.112-.96-.88-1.52-1.824-1.52-1.456 0-2.352 1.376-2.352 3.536zm2.256 5.136c1.2 0 2.08-.896 2.08-2.304 0-1.36-.88-2.256-2.08-2.256-1.216 0-2.128.896-2.128 2.256 0 1.392.912 2.304 2.128 2.304zM16.496 8c0-1.584-1.072-2.368-2.144-2.368-1.024 0-1.76.512-1.984 1.056l-2.016-.096.768-6.384h7.152v1.856h-5.344l-.32 2.48c.48-.352 1.232-.64 2.304-.64 1.984 0 3.824 1.408 3.824 4.08 0 2.56-1.984 4.032-4.368 4.032-2.72 0-4.16-1.856-4.288-3.856h2.08c.128 1.2.816 2.192 2.24 2.192 1.216 0 2.096-.88 2.096-2.352z" transform="translate(0 10)"/>
          <use id="pet-seat-icon-seatnumber_65" xlink:href="#pet-seat-icon" transform="translate(0 -12)"/>
        </g>
      </g>
    </g>
    <g id="Dynamic-service-areas" transform="translate(660 80)">
      <g id="servicearea_65-96">
        <path d="M0 0h436v78H0z"/>
      </g>
    </g>
    <g id="Service-badges" transform="translate(486 19)">
      <g id="service-badge" transform="translate(720 74)">
        <circle stroke="#fff" stroke-width="2" fill="#f2f2f2" cx="29" cy="29" r="28"/>
        <g id="Icon" transform="translate(17 17)">
          <path d="M0 0h24v24H0z"/>
          <path d="M15.25 3h-6.5c-.69 0-1.25.56-1.25 1.25V5h9v-.75c0-.69-.56-1.25-1.25-1.25zM11 20.25V21h.75c.69 0 1.25-.56 1.25-1.25V19h-.75c-.69 0-1.25.56-1.25 1.25zm-3.5-3.5c0 .69.56 1.25 1.25 1.25h6.5c.69 0 1.25-.56 1.25-1.25V16h-9v.75zm10 4.25a1 1 0 01-1 1h-9a1 1 0 01-1-1V3a1 1 0 011-1h9a1 1 0 011 1v18zm-1-21h-9a3 3 0 00-3 3v18a3 3 0 003 3h9a3 3 0 003-3V3a3 3 0 00-3-3z" fill="#1b50af"/>
        </g>
      </g>
      <g id="service-badge" transform="translate(637)">
        <circle stroke="#fff" stroke-width="2" fill="#f2f2f2" cx="29" cy="29" r="28"/>
        <g id="Icon" transform="translate(17 17)">
          <path d="M0 0h24v24H0z"/>
          <path d="M11 19.75v.75h.75c.69 0 1.25-.56 1.25-1.25v-.75h-.75c-.69 0-1.25.56-1.25 1.25zm4.662-3.096L13.508 14.5h2.732l-.577 2.154zm-7.53.395L7.448 14.5h3.232l-2.548 2.549zM8.751 4l-1-2H15v2H8.75zM19 12.5h-4a4.992 4.992 0 002-3.993V2a2 2 0 00-2-2H7.75a2 2 0 00-1.788 2.894L6.514 4H5.75c-.69 0-1.25.56-1.25 1.25V6H15v2.507c0 .978-.47 1.845-1.197 2.393A1.972 1.972 0 0013 12.5h-2c0-.678-.318-1.236-.803-1.601a2.99 2.99 0 01-1.196-2.392V8.25C9 7.56 8.44 7 7.75 7H7v1.507c0 1.631.787 3.08 2 3.993H5a4 4 0 00-4 4V24h.75C2.44 24 3 23.44 3 22.75V16.5a2 2 0 012-2h.377l.822 3.067c.4 1.486 2.258 1.984 3.347.895l2.548-2.548 2.97 2.97L13.692 24h1.111a1.25 1.25 0 001.208-.926l2.3-8.574H19a2 2 0 012 2v6.25c0 .69.56 1.25 1.25 1.25H23v-7.5a4 4 0 00-4-4z" fill="#1b50af"/>
        </g>
      </g>
      <g id="service-badge" transform="translate(624 143)">
        <circle stroke="#fff" stroke-width="2" fill="#f2f2f2" cx="29" cy="29" r="28"/>
        <g id="Icon/Service/WC" transform="translate(17 17)">
          <path d="M0 0h24v24H0z"/>
          <path d="M19.16 7a5.221 5.221 0 014.78 3.146l-.853.377c-.518.228-1.101.055-1.468-.378A3.221 3.221 0 0019.16 9c-1.781 0-3.23 1.458-3.23 3.25s1.449 3.25 3.23 3.25a3.22 3.22 0 002.46-1.145c.367-.432.95-.605 1.468-.377l.854.376a5.22 5.22 0 01-4.782 3.146c-2.877 0-5.218-2.354-5.218-5.25 0-2.895 2.341-5.25 5.218-5.25zm-12.177.165c1.017 0 1.83.703 1.979 1.709l.951 6.46 1.383-5.572.374-1.511a1.25 1.25 0 011.213-.949h1.083l-.44 1.775-1.671 6.739a1.978 1.978 0 01-1.937 1.519l-.101-.002a1.982 1.982 0 01-1.882-1.707l-.951-6.46-.952 6.46a1.98 1.98 0 01-1.883 1.707c-.968.033-1.805-.577-2.038-1.517L0 7.302h1.083a1.25 1.25 0 011.213.949l.3 1.209 1.457 5.874.952-6.46a1.963 1.963 0 011.978-1.709z" fill="#1b50af"/>
        </g>
      </g>
      <g id="service-badge" transform="translate(0 71)">
        <circle stroke="#fff" stroke-width="2" fill="#f2f2f2" cx="29" cy="29" r="28"/>
        <g id="Icon" transform="translate(17 17)">
          <path d="M0 0h24v24H0z"/>
          <path d="M14.586 20.57L9.58 7.705A4.221 4.221 0 009.218 7h2.48c.925 0 1.755.568 2.091 1.43l5.006 12.865c.097.251.222.483.36.705h-2.478a2.23 2.23 0 01-2.09-1.43zM2 5V3a1 1 0 011-1h2a1 1 0 011 1v2H2zm7-3h2a1 1 0 011 1v2.023c-.101-.007-.2-.023-.303-.023H8V3a1 1 0 011-1zm13.75 20a2.228 2.228 0 01-2.09-1.43L15.652 7.705A4.233 4.233 0 0014 5.686V3a3 3 0 00-3-3H9c-.77 0-1.469.292-2 .768A2.987 2.987 0 005 0H3a3 3 0 00-3 3v19.75C0 23.44.56 24 1.25 24H2v-3.5h4v-.75c0-.69-.56-1.25-1.25-1.25H2V16h4v-.75C6 14.56 5.44 14 4.75 14H2v-2.5h4v-.75c0-.69-.56-1.25-1.25-1.25H2V7h3.625c.926 0 1.756.568 2.092 1.43l5.005 12.865A4.218 4.218 0 0016.677 24H24v-.75c0-.69-.56-1.25-1.25-1.25z" fill="#1b50af"/>
        </g>
      </g>
    </g>
  </g>
</svg>
