<svg viewBox="0 0 1586 237"
  xmlns="http://www.w3.org/2000/svg"
  xmlns:xlink="http://www.w3.org/1999/xlink"
  xmlns:vr="http://vr/wagonmap" preserveAspectRatio="xMinYMin meet">
  <defs>
    <svg id="pet-seat-icon" viewBox="0 0 620 620"
      xmlns="http://www.w3.org/2000/svg" preserveAspectRatio="xMinYMin meet">
      <g fill-rule="evenodd">
        <path d="M42.2 15.868a2.013 2.013 0 01-.716.132H27.548a2 2 0 01-1.02-.279l-7.883-4.669-2.736-6.519A2.5 2.5 0 0013.604 3h-2.676l1.26 3h-1.204a6 6 0 00-6 6v.099l-3.699 1.416a2 2 0 00-1.152 2.584l1.263 3.274A6 6 0 006.906 23h3.078v4.388c0 1.256.395 2.481 1.127 3.501l1.873 2.606V45h1.5a2.5 2.5 0 002.5-2.5v-9.004c0-.837-.263-1.654-.752-2.334l-1.87-2.606a2.002 2.002 0 01-.378-1.169V23a4 4 0 00-4-4H6.906a2 2 0 01-1.867-1.284l-.454-1.18 1.64-.627c1.581-.606 2.787-2.116 2.76-3.81V12c-.019-1.12.883-1.997 2-1.997h2.883l1.09 2.597a4.002 4.002 0 001.65 1.893l7.881 4.669a5.996 5.996 0 003.06.838h13.934c.735 0 1.462-.134 2.148-.397l2.748-1.053a2.5 2.5 0 001.605-2.334v-2.564L42.2 15.868zm4.067 8.562a2.499 2.499 0 00-3.228-1.44l-1.4.537 1.212 3.169c.088.228.133.471.133.715v17.584h1.5a2.5 2.5 0 002.5-2.5V27.41a6.01 6.01 0 00-.397-2.146l-.32-.834zm-9.445 4.117a4.001 4.001 0 00-4.668-1.384l-9.359 3.59a6.001 6.001 0 00-3.853 5.663L18.984 45l1.493-.007a2.501 2.501 0 002.488-2.52l-.023-6.097a2.005 2.005 0 011.288-1.889l9.356-3.589 3.016 4.153a2 2 0 01.382 1.175V45h1.5a2.5 2.5 0 002.5-2.5v-6.277c0-1.266-.4-2.5-1.145-3.524l-3.017-4.152z"/>
      </g>
    </svg>
  </defs>
  <g id="EDS_down" stroke="none" stroke-width="1" fill="none" fill-rule="evenodd">
    <path fill="#FFF" d="M0 0h1586v237H0z"/>
    <g id="Pet-seat-indicators" transform="translate(1361 7)">
      <path id="pet_seat_indicator_53" vr:x="0" vr:y="0" vr:width="57" vr:height="57" d="M0 0h57v57H0z"/>
      <path id="pet_seat_indicator_54" vr:x="0" vr:y="45" vr:width="57" vr:height="67" d="M0 45h57v67H0z"/>
      <path id="pet_seat_indicator_55" vr:x="0" vr:y="166" vr:width="57" vr:height="57" d="M0 166h57v57H0z"/>
      <path id="pet_seat_indicator_56" vr:x="0" vr:y="111" vr:width="57" vr:height="67" d="M0 111h57v67H0z"/>
      <path id="pet_seat_indicator_57" vr:x="56" vr:y="0" vr:width="67" vr:height="57" d="M56 0h67v57H56z"/>
      <path id="pet_seat_indicator_58" vr:x="56" vr:y="45" vr:width="67" vr:height="67" d="M56 45h67v67H56z"/>
      <path id="pet_seat_indicator_59" vr:x="56" vr:y="166" vr:width="67" vr:height="57" d="M56 166h67v57H56z"/>
      <path id="pet_seat_indicator_60" vr:x="56" vr:y="111" vr:width="67" vr:height="67" d="M56 111h67v67H56z"/>
      <path id="pet_seat_indicator_61" vr:x="123" vr:y="0" vr:width="67" vr:height="57" d="M123 0h67v57h-67z"/>
      <path id="pet_seat_indicator_62" vr:x="123" vr:y="45" vr:width="67" vr:height="67" d="M123 45h67v67h-67z"/>
      <path id="pet_seat_indicator_63" vr:x="123" vr:y="166" vr:width="67" vr:height="57" d="M123 166h67v57h-67z"/>
      <path id="pet_seat_indicator_64" vr:x="123" vr:y="111" vr:width="67" vr:height="67" d="M123 111h67v67h-67z"/>
    </g>
    <g transform="translate(1)">
      <g transform="translate(2.186 6)" fill="#F2F2F2">
        <path transform="matrix(-1 0 0 1 2490.627 0)" d="M1214.814 0h61v76h-61z"/>
        <path d="M16 .108h37v73H0v-57c0-8.837 7.163-16 16-16z"/>
        <path d="M1565.814 0h16v84h-32V16c0-8.837 7.163-16 16-16z" transform="matrix(-1 0 0 1 3131.627 0)"/>
        <path d="M1565.814 140h16v84h-32v-68c0-8.837 7.163-16 16-16z" transform="rotate(180 1565.814 182)"/>
        <path d="M16.019 185.127l75.981.089-8.609 24v15.892H0v-23.981c0-8.837 7.163-16 16-16h.019z" transform="matrix(1 0 0 -1 0 410.216)"/>
      </g>
      <g transform="translate(.162 4.106)">
        <path d="M1028.157 1.684h98.446v92.273c0 13.53-5.484 25.78-14.351 34.648-8.867 8.867-21.117 14.352-34.648 14.352-13.729 0-26.074-5.465-34.995-14.308-8.949-8.87-14.452-21.139-14.452-34.692h0V1.684z" stroke="#DFDFDF" stroke-width="3"/>
        <path d="M303.051 154.737c-1.95-18.496-39.275-72.924-101.24-72.924-64.032 0-115.94 48.18-115.94 107.615 0 13.2 2.56 25.844 7.245 37.53M303.135 154.474l-41.99 71.931M385.351 154.474h-83.216" stroke="#DCDCDC" stroke-width="3"/>
        <path fill="#DFDFDF" fill-rule="nonzero" d="M385.838 78.894h-3v148h3z"/>
        <path stroke="#DFDFDF" stroke-width="3" fill="#D8D8D8" stroke-linecap="square" d="M469.182 130.584v94.007"/>
        <path fill="#DFDFDF" fill-rule="nonzero" d="M945.787 138.09h-3v88h3z"/>
        <path stroke="#DFDFDF" stroke-width="3" fill="#D8D8D8" stroke-linecap="square" d="M469.182 4.197v94.007"/>
        <path fill="#DFDFDF" fill-rule="nonzero" d="M56.838 76.894v-3h-56v3zM85.838 188.894v-3h-85v3z"/>
        <path fill="#DFDFDF" fill-rule="nonzero" d="M56.838.894h-3v76h3zM945.787 2.697h-3v88h3z"/>
      </g>
      <path d="M1565.134 5.5c5.008 0 9.547 2.004 12.86 5.254a18.31 18.31 0 015.503 12.774h0L1583.5 210a21.433 21.433 0 01-6.297 15.203A21.433 21.433 0 011562 231.5h0H22a21.433 21.433 0 01-15.203-6.297A21.433 21.433 0 01.5 210h0V27a21.433 21.433 0 016.297-15.203A21.433 21.433 0 0122 5.5h0z" stroke="#DFDFDF" stroke-width="3"/>
      <g id="Stairs" transform="translate(282 3.493)">
        <path d="M12.737 2.263h110v43.569l-20.315 34.905H12.737V2.263z" stroke="#DCDCDC" stroke-width="3"/>
        <g transform="translate(27 2.09)" stroke="#DCDCDC" stroke-linecap="square" stroke-width="2">
          <path d="M0 77.78v-77M14 77.78v-77M28 77.78v-77M42 77.78v-77"/>
        </g>
        <path d="M24.5 31.8l9.192 9.192-9.192 9.192-2.828-2.828 4.349-4.35H-.5v-4h26.55l-4.378-4.378L24.5 31.8z" stroke="#FFF" fill="#DCDCDC"/>
      </g>
      <g id="Stairs" transform="translate(1192 158)">
        <path d="M133.825 1.825v71H2.175V36.73l20.26-34.904h111.39z" stroke="#DCDCDC" stroke-width="3"/>
        <g transform="rotate(180 40.5 35.912)" stroke="#DCDCDC" stroke-linecap="square" stroke-width="2">
          <path d="M0 70.78v-70M14 70.78v-70M28 70.78v-70M42 70.78v-70M56 70.78v-70"/>
        </g>
        <path d="M85.5 27.293l9.192 9.192-9.192 9.193-2.828-2.829L87.02 38.5H60.5v-4h26.55l-4.378-4.379 2.828-2.828z" stroke="#FFF" fill="#DCDCDC" transform="matrix(-1 0 0 1 154.985 0)"/>
      </g>
      <g transform="translate(1232 98)">
        <path d="M8.648 1.531h36.704v43H8.648v-43z" stroke="#DCDCDC" stroke-width="3"/>
        <path stroke="#DCDCDC" stroke-width="2" stroke-linecap="square" d="M27 44.973V3.043M18 44.018V2.088M36 44.018V3.088"/>
        <path d="M24.5 13.347l9.192 9.192-9.192 9.192-2.828-2.828 4.349-4.35H-.5v-4h26.55l-4.378-4.378 2.828-2.828z" stroke="#FFF" fill="#DCDCDC"/>
      </g>
      <g transform="translate(348 98)">
        <path stroke="#DCDCDC" stroke-width="3" d="M1.5 44.5v-43h35v43z"/>
        <path stroke="#DCDCDC" stroke-width="2" stroke-linecap="square" d="M19 44V1M10 45V2M28 45V2"/>
        <path d="M20.485 13.293l-9.192 9.192 9.192 9.193 2.829-2.829-4.35-4.349h26.521v-4h-26.55l4.379-4.379-2.829-2.828z" stroke="#FFF" fill="#DCDCDC"/>
      </g>
      <path fill="#DFDFDF" fill-rule="nonzero" d="M1242 82h-3v77h3z"/>
      <path fill="#DCDCDC" d="M1550 7h3v93h-3zM1550 137h3v93h-3z"/>
      <g transform="translate(1144)">
        <g transform="matrix(-1 0 0 1 38 0)">
          <path d="M36 40V6H2c0 18.778 15.222 34 34 34z" stroke="#F2F2F2" stroke-width="2"/>
          <path fill="#DCDCDC" d="M1 0h3v9H1zM34 0h3v9h-3z"/>
          <path fill="#DCDCDC" d="M0 4h38v3H0z"/>
          <g transform="rotate(-90 9 -1)">
            <path fill="#C2D6D6" d="M2 0h3v18.857H2z"/>
            <path fill="#9FC1B7" d="M0 0h3v18.857H0z"/>
          </g>
        </g>
      </g>
      <g transform="translate(1144 197)">
        <g transform="rotate(180 19 20)">
          <path d="M36 40V6H2c0 18.778 15.222 34 34 34z" stroke="#F2F2F2" stroke-width="2"/>
          <path fill="#DCDCDC" d="M1 0h3v9H1zM34 0h3v9h-3z"/>
          <path fill="#DCDCDC" d="M0 4h38v3H0z"/>
          <g transform="rotate(-90 9 -1)">
            <path fill="#C2D6D6" d="M2 0h3v18.857H2z"/>
            <path fill="#9FC1B7" d="M0 0h3v18.857H0z"/>
          </g>
        </g>
      </g>
      <path fill="#DCDCDC" d="M1357 7h3v93h-3z"/>
      <path fill="#DFDFDF" fill-rule="nonzero" d="M1279 83v-3h-63v3zM1585 91v-3h-34v3zM1585 149v-3h-34v3z"/>
      <path fill="#DFDFDF" fill-rule="nonzero" d="M1218 7h-3v76h3zM1279 7h-3v76h3z"/>
      <path fill="#DCDCDC" d="M1357 137h3v93h-3z"/>
      <g transform="translate(421 197)">
        <g transform="matrix(1 0 0 -1 0 40)">
          <path d="M36 40V6H2c0 18.778 15.222 34 34 34z" stroke="#F2F2F2" stroke-width="2"/>
          <path fill="#DCDCDC" d="M1 0h3v9H1zM34 0h3v9h-3z"/>
          <path fill="#DCDCDC" d="M0 4h38v3H0z"/>
          <g transform="rotate(-90 9 -1)">
            <path fill="#C2D6D6" d="M2 0h3v18.857H2z"/>
            <path fill="#9FC1B7" d="M0 0h3v18.857H0z"/>
          </g>
        </g>
      </g>
      <g transform="translate(421)">
        <path d="M36 40V6H2c0 18.778 15.222 34 34 34z" stroke="#F2F2F2" stroke-width="2"/>
        <path fill="#DCDCDC" d="M1 0h3v9H1zM34 0h3v9h-3z"/>
        <path fill="#DCDCDC" d="M0 4h38v3H0z"/>
        <g transform="rotate(-90 9 -1)">
          <path fill="#C2D6D6" d="M2 0h3v18.857H2z"/>
          <path fill="#9FC1B7" d="M0 0h3v18.857H0z"/>
        </g>
      </g>
      <g transform="translate(1473 4.999)" fill="#E2D2BA" stroke="#E2D2BA" stroke-width="3">
        <path d="M10 154.501c.317 0 .577.261.853.559.56.604 1.085 1.514 1.6 2.676 1.188 2.683 2.247 6.618 3.143 11.498 1.797 9.794 2.904 23.323 2.904 38.267 0 5.938-.175 11.654-.499 17.001h0H2a282.683 282.683 0 01-.499-17.001c0-14.944 1.107-28.473 2.904-38.267.896-4.88 1.955-8.815 3.143-11.498.515-1.162 1.04-2.072 1.6-2.676.276-.298.536-.559.853-.559zM18 1.5c.324 5.504.5 11.387.5 17.501 0 15.36-1.108 29.268-2.906 39.334-.896 5.022-1.957 9.07-3.147 11.831-.517 1.2-1.045 2.138-1.608 2.763-.271.3-.525.572-.839.572-.314 0-.568-.271-.84-.572-.562-.625-1.09-1.563-1.607-2.763-1.19-2.76-2.25-6.81-3.147-11.83C2.608 48.268 1.5 34.361 1.5 19c0-6.114.176-11.997.5-17.501h0z"/>
      </g>
      <g transform="translate(95.61 2)">
        <g transform="rotate(-90 2.624 2.376)">
          <path fill="#C2D6D6" d="M2 0h3v102.363H2z"/>
          <path fill="#9FC1B7" d="M0 0h3v102.363H0z"/>
        </g>
        <g transform="matrix(0 1 1 0 16.286 228)">
          <path fill="#C2D6D6" d="M2 0h3v101.319H2z"/>
          <path fill="#9FC1B7" d="M0 0h3v101.319H0z"/>
        </g>
        <g transform="matrix(0 -1 1 0 384.467 5)">
          <path fill="#C2D6D6" d="M2 .363h3v75H2z"/>
          <path fill="#9FC1B7" d="M0 .363h3v75H0z"/>
        </g>
        <g transform="matrix(0 1 1 0 384.506 228)">
          <path fill="#C2D6D6" d="M2 .325h3v74H2z"/>
          <path fill="#9FC1B7" d="M0 .325h3v74H0z"/>
        </g>
        <g transform="matrix(0 -1 1 0 483.26 5)">
          <path fill="#C2D6D6" d="M2 0h3v102.363H2z"/>
          <path fill="#9FC1B7" d="M0 0h3v102.363H0z"/>
        </g>
        <g transform="rotate(-90 307.51 -302.51)">
          <path fill="#C2D6D6" d="M2 0h3v102.363H2z"/>
          <path fill="#9FC1B7" d="M0 0h3v102.363H0z"/>
        </g>
        <g transform="matrix(0 1 1 0 610.057 228)">
          <path fill="#C2D6D6" d="M2 0h3v101.319H2z"/>
          <path fill="#9FC1B7" d="M0 0h3v101.319H0z"/>
        </g>
        <g transform="matrix(0 1 1 0 483.26 228)">
          <path fill="#C2D6D6" d="M2 0h3v101.319H2z"/>
          <path fill="#9FC1B7" d="M0 0h3v101.319H0z"/>
        </g>
        <g transform="matrix(0 -1 1 0 735.81 5)">
          <path fill="#C2D6D6" d="M2 0h3v102.363H2z"/>
          <path fill="#9FC1B7" d="M0 0h3v102.363H0z"/>
        </g>
        <g transform="matrix(0 1 1 0 735.848 228)">
          <path fill="#C2D6D6" d="M2 0h3v101.319H2z"/>
          <path fill="#9FC1B7" d="M0 0h3v101.319H0z"/>
        </g>
        <g transform="matrix(0 1 1 0 861.64 228)">
          <path fill="#C2D6D6" d="M2 0h3v101.319H2z"/>
          <path fill="#9FC1B7" d="M0 0h3v101.319H0z"/>
        </g>
        <g transform="matrix(0 -1 1 0 1271.232 5)">
          <path fill="#C2D6D6" d="M2 0h3v102.363H2z"/>
          <path fill="#9FC1B7" d="M0 0h3v102.363H0z"/>
        </g>
        <g transform="matrix(0 1 1 0 1270.264 228)">
          <path fill="#C2D6D6" d="M2 0h3v102.363H2z"/>
          <path fill="#9FC1B7" d="M0 0h3v102.363H0z"/>
        </g>
      </g>
    </g>
    <g id="Seats" transform="translate(101 15)">
      <g id="seat_64" transform="translate(1399 121)">
        <path d="M41 .5c.966 0 1.841.392 2.475 1.025A3.489 3.489 0 0144.5 4h0v35c0 .966-.392 1.841-1.025 2.475A3.489 3.489 0 0141 42.5h0H.5V.5z" id="seat_64_shape" stroke="#1B50AF" fill="#FFF" transform="rotate(-180 22.5 21.5)"/>
        <path id="Line" stroke="#1B50AF" fill="#FFF" stroke-linecap="square" d="M35.5 42.5V.488"/>
        <g id="seatnumber_64" transform="translate(9.544 16.392)" fill="#1B50AF">
          <path d="M2.208 5.216c.496-.624 1.424-1.104 2.64-1.104 2.144 0 3.936 1.456 3.936 3.968 0 2.384-1.808 3.936-4.32 3.936C1.36 12.016 0 9.52 0 6.272 0 2.944 1.232 0 4.704 0c2.528 0 3.712 1.712 3.84 3.2h-2.16c-.112-.96-.88-1.52-1.824-1.52-1.456 0-2.352 1.376-2.352 3.536zm2.256 5.136c1.2 0 2.08-.896 2.08-2.304 0-1.36-.88-2.256-2.08-2.256-1.216 0-2.128.896-2.128 2.256 0 1.392.912 2.304 2.128 2.304zM19.44 9.024h-1.984v2.784h-2.192V9.024H9.536V7.296l5.76-7.088h2.16v6.944h1.984v1.872zm-7.488-1.872h3.312V3.008l-3.312 4.144z"/>
        </g>
        <g id="seatnumber_64-with-service-icon" transform="translate(9.544 16.392)">
          <path d="M2.208 5.216c.496-.624 1.424-1.104 2.64-1.104 2.144 0 3.936 1.456 3.936 3.968 0 2.384-1.808 3.936-4.32 3.936C1.36 12.016 0 9.52 0 6.272 0 2.944 1.232 0 4.704 0c2.528 0 3.712 1.712 3.84 3.2h-2.16c-.112-.96-.88-1.52-1.824-1.52-1.456 0-2.352 1.376-2.352 3.536zm2.256 5.136c1.2 0 2.08-.896 2.08-2.304 0-1.36-.88-2.256-2.08-2.256-1.216 0-2.128.896-2.128 2.256 0 1.392.912 2.304 2.128 2.304zM19.44 9.024h-1.984v2.784h-2.192V9.024H9.536V7.296l5.76-7.088h2.16v6.944h1.984v1.872zm-7.488-1.872h3.312V3.008l-3.312 4.144z" transform="translate(0 10)"/>
          <use id="pet-seat-icon-seatnumber_64" xlink:href="#pet-seat-icon" transform="translate(0 -12)"/>
        </g>
      </g>
      <g id="seat_63" transform="translate(1399 164)">
        <path d="M41 .5c.966 0 1.841.392 2.475 1.025A3.489 3.489 0 0144.5 4h0v35c0 .966-.392 1.841-1.025 2.475A3.489 3.489 0 0141 42.5h0H.5V.5z" id="seat_63_shape" stroke="#1B50AF" fill="#FFF" transform="rotate(-180 22.5 21.5)"/>
        <path id="Line" stroke="#1B50AF" fill="#FFF" stroke-linecap="square" d="M35.5 42.5V.488"/>
        <g id="seatnumber_63" transform="translate(9 16)" fill="#1B50AF">
          <path d="M2.912 5.608c.496-.624 1.424-1.104 2.64-1.104 2.144 0 3.936 1.456 3.936 3.968 0 2.384-1.808 3.936-4.32 3.936-3.104 0-4.464-2.496-4.464-5.744C.704 3.336 1.936.392 5.408.392c2.528 0 3.712 1.712 3.84 3.2h-2.16c-.112-.96-.88-1.52-1.824-1.52-1.456 0-2.352 1.376-2.352 3.536zm2.256 5.136c1.2 0 2.08-.896 2.08-2.304 0-1.36-.88-2.256-2.08-2.256-1.216 0-2.128.896-2.128 2.256 0 1.392.912 2.304 2.128 2.304zm11.904-1.808c0-1.36-1.264-1.904-2.912-1.904h-.464V5.304h.384c1.664 0 2.704-.608 2.704-1.696 0-1.008-.88-1.552-1.84-1.552-1.328 0-2.176.848-2.288 2.048H10.56C10.816 1.8 12.416.392 15.072.392c1.936 0 3.936.928 3.936 3.12 0 1.12-.688 2.064-1.568 2.544a3.035 3.035 0 011.872 2.816c0 2.352-2.032 3.536-4.48 3.536-2.656 0-4.224-1.728-4.368-3.856h2.08c.16 1.168.912 2.192 2.352 2.192 1.2 0 2.176-.72 2.176-1.808z"/>
        </g>
        <g id="seatnumber_63-with-service-icon" transform="translate(9 16)">
          <path d="M2.912 5.608c.496-.624 1.424-1.104 2.64-1.104 2.144 0 3.936 1.456 3.936 3.968 0 2.384-1.808 3.936-4.32 3.936-3.104 0-4.464-2.496-4.464-5.744C.704 3.336 1.936.392 5.408.392c2.528 0 3.712 1.712 3.84 3.2h-2.16c-.112-.96-.88-1.52-1.824-1.52-1.456 0-2.352 1.376-2.352 3.536zm2.256 5.136c1.2 0 2.08-.896 2.08-2.304 0-1.36-.88-2.256-2.08-2.256-1.216 0-2.128.896-2.128 2.256 0 1.392.912 2.304 2.128 2.304zm11.904-1.808c0-1.36-1.264-1.904-2.912-1.904h-.464V5.304h.384c1.664 0 2.704-.608 2.704-1.696 0-1.008-.88-1.552-1.84-1.552-1.328 0-2.176.848-2.288 2.048H10.56C10.816 1.8 12.416.392 15.072.392c1.936 0 3.936.928 3.936 3.12 0 1.12-.688 2.064-1.568 2.544a3.035 3.035 0 011.872 2.816c0 2.352-2.032 3.536-4.48 3.536-2.656 0-4.224-1.728-4.368-3.856h2.08c.16 1.168.912 2.192 2.352 2.192 1.2 0 2.176-.72 2.176-1.808z" transform="translate(0 10)"/>
          <use id="pet-seat-icon-seatnumber_63" xlink:href="#pet-seat-icon" transform="translate(0 -12)"/>
        </g>
      </g>
      <g id="seat_62" transform="translate(1399 43)">
        <path d="M41 .5c.966 0 1.841.392 2.475 1.025A3.489 3.489 0 0144.5 4h0v35c0 .966-.392 1.841-1.025 2.475A3.489 3.489 0 0141 42.5h0H.5V.5z" id="seat_62_shape" stroke="#1B50AF" fill="#FFF" transform="rotate(-180 22.5 21.5)"/>
        <path id="Line" stroke="#1B50AF" fill="#FFF" stroke-linecap="square" d="M35.5 42.5V.488"/>
        <g id="seatnumber_62" transform="translate(9 16)" fill="#1B50AF">
          <path d="M3.192 5.608c.496-.624 1.424-1.104 2.64-1.104 2.144 0 3.936 1.456 3.936 3.968 0 2.384-1.808 3.936-4.32 3.936-3.104 0-4.464-2.496-4.464-5.744C.984 3.336 2.216.392 5.688.392c2.528 0 3.712 1.712 3.84 3.2h-2.16c-.112-.96-.88-1.52-1.824-1.52-1.456 0-2.352 1.376-2.352 3.536zm2.256 5.136c1.2 0 2.08-.896 2.08-2.304 0-1.36-.88-2.256-2.08-2.256-1.216 0-2.128.896-2.128 2.256 0 1.392.912 2.304 2.128 2.304zm13.568-7.232c0 2.176-2.112 4.448-5.68 6.832h5.952V12.2H10.76v-1.792c3.728-3.008 6.032-4.944 6.032-6.784 0-1.008-.64-1.6-1.712-1.6-.976 0-1.968.592-1.968 2.32h-2.144c-.032-2.4 1.664-3.952 4.24-3.952 2.32 0 3.808 1.104 3.808 3.12z"/>
        </g>
        <g id="seatnumber_62-with-service-icon" transform="translate(9 16)">
          <path d="M3.192 5.608c.496-.624 1.424-1.104 2.64-1.104 2.144 0 3.936 1.456 3.936 3.968 0 2.384-1.808 3.936-4.32 3.936-3.104 0-4.464-2.496-4.464-5.744C.984 3.336 2.216.392 5.688.392c2.528 0 3.712 1.712 3.84 3.2h-2.16c-.112-.96-.88-1.52-1.824-1.52-1.456 0-2.352 1.376-2.352 3.536zm2.256 5.136c1.2 0 2.08-.896 2.08-2.304 0-1.36-.88-2.256-2.08-2.256-1.216 0-2.128.896-2.128 2.256 0 1.392.912 2.304 2.128 2.304zm13.568-7.232c0 2.176-2.112 4.448-5.68 6.832h5.952V12.2H10.76v-1.792c3.728-3.008 6.032-4.944 6.032-6.784 0-1.008-.64-1.6-1.712-1.6-.976 0-1.968.592-1.968 2.32h-2.144c-.032-2.4 1.664-3.952 4.24-3.952 2.32 0 3.808 1.104 3.808 3.12z" transform="translate(0 10)"/>
          <use id="pet-seat-icon-seatnumber_62" xlink:href="#pet-seat-icon" transform="translate(0 -12)"/>
        </g>
      </g>
      <g id="seat_61" transform="translate(1399)">
        <path d="M41 .5c.966 0 1.841.392 2.475 1.025A3.489 3.489 0 0144.5 4h0v35c0 .966-.392 1.841-1.025 2.475A3.489 3.489 0 0141 42.5h0H.5V.5z" id="seat_61_shape" stroke="#1B50AF" fill="#FFF" transform="rotate(-180 22.5 21.5)"/>
        <path id="Line" stroke="#1B50AF" fill="#FFF" stroke-linecap="square" d="M35.5 42.5V.488"/>
        <g id="seatnumber_61" transform="translate(11 16)" fill="#1B50AF">
          <path d="M2.872 5.608c.496-.624 1.424-1.104 2.64-1.104 2.144 0 3.936 1.456 3.936 3.968 0 2.384-1.808 3.936-4.32 3.936-3.104 0-4.464-2.496-4.464-5.744C.664 3.336 1.896.392 5.368.392c2.528 0 3.712 1.712 3.84 3.2h-2.16c-.112-.96-.88-1.52-1.824-1.52-1.456 0-2.352 1.376-2.352 3.536zm2.256 5.136c1.2 0 2.08-.896 2.08-2.304 0-1.36-.88-2.256-2.08-2.256C3.912 6.184 3 7.08 3 8.44c0 1.392.912 2.304 2.128 2.304zm7.44 1.456V3.528h-2.496V2.024c1.68-.048 2.464-.16 3.024-1.424h1.68v11.6h-2.208z"/>
        </g>
        <g id="seatnumber_61-with-service-icon" transform="translate(11 16)">
          <path d="M2.872 5.608c.496-.624 1.424-1.104 2.64-1.104 2.144 0 3.936 1.456 3.936 3.968 0 2.384-1.808 3.936-4.32 3.936-3.104 0-4.464-2.496-4.464-5.744C.664 3.336 1.896.392 5.368.392c2.528 0 3.712 1.712 3.84 3.2h-2.16c-.112-.96-.88-1.52-1.824-1.52-1.456 0-2.352 1.376-2.352 3.536zm2.256 5.136c1.2 0 2.08-.896 2.08-2.304 0-1.36-.88-2.256-2.08-2.256C3.912 6.184 3 7.08 3 8.44c0 1.392.912 2.304 2.128 2.304zm7.44 1.456V3.528h-2.496V2.024c1.68-.048 2.464-.16 3.024-1.424h1.68v11.6h-2.208z" transform="translate(0 10)"/>
          <use id="pet-seat-icon-seatnumber_61" xlink:href="#pet-seat-icon" transform="translate(0 -12)"/>
        </g>
      </g>
      <g id="seat_60" transform="translate(1322 121)">
        <path d="M41 .5c.966 0 1.841.392 2.475 1.025A3.489 3.489 0 0144.5 4h0v35c0 .966-.392 1.841-1.025 2.475A3.489 3.489 0 0141 42.5h0H.5V.5z" id="seat_60_shape" stroke="#1B50AF" fill="#FFF"/>
        <path id="Line" stroke="#1B50AF" fill="#FFF" stroke-linecap="square" d="M9.5.5v42.012"/>
        <g id="seatnumber_60" transform="translate(17.312 16.392)" fill="#1B50AF">
          <path d="M2.208 5.216c.496-.624 1.424-1.104 2.64-1.104 2.144 0 3.936 1.456 3.936 3.968 0 2.384-1.808 3.936-4.32 3.936C1.36 12.016 0 9.52 0 6.272 0 2.944 1.232 0 4.704 0c2.528 0 3.712 1.712 3.84 3.2h-2.16c-.112-.96-.88-1.52-1.824-1.52-1.456 0-2.352 1.376-2.352 3.536zm2.256 5.136c1.2 0 2.08-.896 2.08-2.304 0-1.36-.88-2.256-2.08-2.256-1.216 0-2.128.896-2.128 2.256 0 1.392.912 2.304 2.128 2.304zm5.584-4.368C10.048 2.464 11.616 0 14.72 0c3.088 0 4.656 2.464 4.656 5.984 0 3.536-1.568 6.032-4.656 6.032-3.104 0-4.672-2.496-4.672-6.032zm7.072 0c0-2.768-.832-4.32-2.4-4.32s-2.416 1.552-2.416 4.32c0 2.784.848 4.368 2.416 4.368s2.4-1.584 2.4-4.368z"/>
        </g>
        <g id="seatnumber_60-with-service-icon" transform="translate(17.312 16.392)">
          <path d="M2.208 5.216c.496-.624 1.424-1.104 2.64-1.104 2.144 0 3.936 1.456 3.936 3.968 0 2.384-1.808 3.936-4.32 3.936C1.36 12.016 0 9.52 0 6.272 0 2.944 1.232 0 4.704 0c2.528 0 3.712 1.712 3.84 3.2h-2.16c-.112-.96-.88-1.52-1.824-1.52-1.456 0-2.352 1.376-2.352 3.536zm2.256 5.136c1.2 0 2.08-.896 2.08-2.304 0-1.36-.88-2.256-2.08-2.256-1.216 0-2.128.896-2.128 2.256 0 1.392.912 2.304 2.128 2.304zm5.584-4.368C10.048 2.464 11.616 0 14.72 0c3.088 0 4.656 2.464 4.656 5.984 0 3.536-1.568 6.032-4.656 6.032-3.104 0-4.672-2.496-4.672-6.032zm7.072 0c0-2.768-.832-4.32-2.4-4.32s-2.416 1.552-2.416 4.32c0 2.784.848 4.368 2.416 4.368s2.4-1.584 2.4-4.368z" transform="translate(0 10)"/>
          <use id="pet-seat-icon-seatnumber_60" xlink:href="#pet-seat-icon" transform="translate(0 -12)"/>
        </g>
      </g>
      <g id="seat_59" transform="translate(1322 164)">
        <path d="M41 .5c.966 0 1.841.392 2.475 1.025A3.489 3.489 0 0144.5 4h0v35c0 .966-.392 1.841-1.025 2.475A3.489 3.489 0 0141 42.5h0H.5V.5z" id="seat_59_shape" stroke="#1B50AF" fill="#FFF"/>
        <path id="Line" stroke="#1B50AF" fill="#FFF" stroke-linecap="square" d="M9.5.5v42.012"/>
        <g id="seatnumber_59" transform="translate(17.712 16.392)" fill="#1B50AF">
          <path d="M6.416 8c0-1.584-1.072-2.368-2.144-2.368-1.024 0-1.76.512-1.984 1.056L.272 6.592 1.04.208h7.152v1.856H2.848l-.32 2.48c.48-.352 1.232-.64 2.304-.64 1.984 0 3.824 1.408 3.824 4.08 0 2.56-1.984 4.032-4.368 4.032-2.72 0-4.16-1.856-4.288-3.856h2.08c.128 1.2.816 2.192 2.24 2.192 1.216 0 2.096-.88 2.096-2.352zM16.4 6.8c-.496.624-1.424 1.104-2.656 1.104-2.128 0-3.92-1.472-3.92-3.968C9.824 1.552 11.632 0 14.144 0c3.104 0 4.464 2.496 4.464 5.744 0 3.328-1.248 6.272-4.704 6.272-2.528 0-3.712-1.728-3.84-3.2h2.16c.112.96.864 1.504 1.824 1.504 1.456 0 2.352-1.376 2.352-3.52zm-2.256-5.12c-1.2 0-2.08.88-2.08 2.272 0 1.36.88 2.256 2.08 2.256 1.2 0 2.112-.896 2.112-2.256 0-1.376-.912-2.272-2.112-2.272z"/>
        </g>
        <g id="seatnumber_59-with-service-icon" transform="translate(17.712 16.392)">
          <path d="M6.416 8c0-1.584-1.072-2.368-2.144-2.368-1.024 0-1.76.512-1.984 1.056L.272 6.592 1.04.208h7.152v1.856H2.848l-.32 2.48c.48-.352 1.232-.64 2.304-.64 1.984 0 3.824 1.408 3.824 4.08 0 2.56-1.984 4.032-4.368 4.032-2.72 0-4.16-1.856-4.288-3.856h2.08c.128 1.2.816 2.192 2.24 2.192 1.216 0 2.096-.88 2.096-2.352zM16.4 6.8c-.496.624-1.424 1.104-2.656 1.104-2.128 0-3.92-1.472-3.92-3.968C9.824 1.552 11.632 0 14.144 0c3.104 0 4.464 2.496 4.464 5.744 0 3.328-1.248 6.272-4.704 6.272-2.528 0-3.712-1.728-3.84-3.2h2.16c.112.96.864 1.504 1.824 1.504 1.456 0 2.352-1.376 2.352-3.52zm-2.256-5.12c-1.2 0-2.08.88-2.08 2.272 0 1.36.88 2.256 2.08 2.256 1.2 0 2.112-.896 2.112-2.256 0-1.376-.912-2.272-2.112-2.272z" transform="translate(0 10)"/>
          <use id="pet-seat-icon-seatnumber_59" xlink:href="#pet-seat-icon" transform="translate(0 -12)"/>
        </g>
      </g>
      <g id="seat_58" transform="translate(1322 43)">
        <path d="M41 .5c.966 0 1.841.392 2.475 1.025A3.489 3.489 0 0144.5 4h0v35c0 .966-.392 1.841-1.025 2.475A3.489 3.489 0 0141 42.5h0H.5V.5z" id="seat_58_shape" stroke="#1B50AF" fill="#FFF"/>
        <path id="Line" stroke="#1B50AF" fill="#FFF" stroke-linecap="square" d="M9.5.5v42.012"/>
        <g id="seatnumber_58" transform="translate(17.56 16.392)" fill="#1B50AF">
          <path d="M6.416 8c0-1.584-1.072-2.368-2.144-2.368-1.024 0-1.76.512-1.984 1.056L.272 6.592 1.04.208h7.152v1.856H2.848l-.32 2.48c.48-.352 1.232-.64 2.304-.64 1.984 0 3.824 1.408 3.824 4.08 0 2.56-1.984 4.032-4.368 4.032-2.72 0-4.16-1.856-4.288-3.856h2.08c.128 1.2.816 2.192 2.24 2.192 1.216 0 2.096-.88 2.096-2.352zm12.048-5.024c0 1.04-.416 2.016-1.408 2.624 1.296.736 1.76 1.776 1.76 2.896 0 2.272-1.936 3.52-4.4 3.52-2.448 0-4.384-1.248-4.384-3.52 0-1.12.48-2.176 1.776-2.896-.96-.544-1.424-1.584-1.424-2.608C10.384 1.264 11.968 0 14.416 0c2.464 0 4.048 1.264 4.048 2.976zm-4.048-1.312c-1.152 0-1.888.624-1.888 1.584 0 .96.736 1.664 1.888 1.664s1.904-.704 1.904-1.664-.752-1.584-1.904-1.584zM12.288 8.4c0 1.152.832 1.952 2.128 1.952 1.312 0 2.144-.8 2.144-1.952s-.832-1.904-2.144-1.904c-1.296 0-2.128.752-2.128 1.904z"/>
        </g>
        <g id="seatnumber_58-with-service-icon" transform="translate(17.56 16.392)">
          <path d="M6.416 8c0-1.584-1.072-2.368-2.144-2.368-1.024 0-1.76.512-1.984 1.056L.272 6.592 1.04.208h7.152v1.856H2.848l-.32 2.48c.48-.352 1.232-.64 2.304-.64 1.984 0 3.824 1.408 3.824 4.08 0 2.56-1.984 4.032-4.368 4.032-2.72 0-4.16-1.856-4.288-3.856h2.08c.128 1.2.816 2.192 2.24 2.192 1.216 0 2.096-.88 2.096-2.352zm12.048-5.024c0 1.04-.416 2.016-1.408 2.624 1.296.736 1.76 1.776 1.76 2.896 0 2.272-1.936 3.52-4.4 3.52-2.448 0-4.384-1.248-4.384-3.52 0-1.12.48-2.176 1.776-2.896-.96-.544-1.424-1.584-1.424-2.608C10.384 1.264 11.968 0 14.416 0c2.464 0 4.048 1.264 4.048 2.976zm-4.048-1.312c-1.152 0-1.888.624-1.888 1.584 0 .96.736 1.664 1.888 1.664s1.904-.704 1.904-1.664-.752-1.584-1.904-1.584zM12.288 8.4c0 1.152.832 1.952 2.128 1.952 1.312 0 2.144-.8 2.144-1.952s-.832-1.904-2.144-1.904c-1.296 0-2.128.752-2.128 1.904z" transform="translate(0 10)"/>
          <use id="pet-seat-icon-seatnumber_58" xlink:href="#pet-seat-icon" transform="translate(0 -12)"/>
        </g>
      </g>
      <g id="seat_57" transform="translate(1322)">
        <path d="M41 .5c.966 0 1.841.392 2.475 1.025A3.489 3.489 0 0144.5 4h0v35c0 .966-.392 1.841-1.025 2.475A3.489 3.489 0 0141 42.5h0H.5V.5z" id="seat_57_shape" stroke="#1B50AF" fill="#FFF"/>
        <path id="Line" stroke="#1B50AF" fill="#FFF" stroke-linecap="square" d="M9.5.5v42.012"/>
        <g id="seatnumber_57" transform="translate(18.608 16.6)" fill="#1B50AF">
          <path d="M6.416 7.792c0-1.584-1.072-2.368-2.144-2.368-1.024 0-1.76.512-1.984 1.056L.272 6.384 1.04 0h7.152v1.856H2.848l-.32 2.48c.48-.352 1.232-.64 2.304-.64 1.984 0 3.824 1.408 3.824 4.08 0 2.56-1.984 4.032-4.368 4.032-2.72 0-4.16-1.856-4.288-3.856h2.08c.128 1.2.816 2.192 2.24 2.192 1.216 0 2.096-.88 2.096-2.352zM9.248 0h8.528v1.856c-3.024 3.088-4.496 5.568-4.72 9.744h-2.432c.192-4.032 2.336-7.296 4.928-9.744H9.248V0z"/>
        </g>
        <g id="seatnumber_57-with-service-icon" transform="translate(18.608 16.6)">
          <path d="M6.416 7.792c0-1.584-1.072-2.368-2.144-2.368-1.024 0-1.76.512-1.984 1.056L.272 6.384 1.04 0h7.152v1.856H2.848l-.32 2.48c.48-.352 1.232-.64 2.304-.64 1.984 0 3.824 1.408 3.824 4.08 0 2.56-1.984 4.032-4.368 4.032-2.72 0-4.16-1.856-4.288-3.856h2.08c.128 1.2.816 2.192 2.24 2.192 1.216 0 2.096-.88 2.096-2.352zM9.248 0h8.528v1.856c-3.024 3.088-4.496 5.568-4.72 9.744h-2.432c.192-4.032 2.336-7.296 4.928-9.744H9.248V0z" transform="translate(0 10)"/>
          <use id="pet-seat-icon-seatnumber_57" xlink:href="#pet-seat-icon" transform="translate(0 -12)"/>
        </g>
      </g>
      <g id="seat_56" transform="translate(1266 121)">
        <path d="M41 .5c.966 0 1.841.392 2.475 1.025A3.489 3.489 0 0144.5 4h0v35c0 .966-.392 1.841-1.025 2.475A3.489 3.489 0 0141 42.5h0H.5V.5z" id="seat_56_shape" stroke="#1B50AF" fill="#FFF"/>
        <path id="Line" stroke="#1B50AF" fill="#FFF" stroke-linecap="square" d="M9.5.5v42.012"/>
        <g id="seatnumber_56" transform="translate(17.664 16.392)" fill="#1B50AF">
          <path d="M6.416 8c0-1.584-1.072-2.368-2.144-2.368-1.024 0-1.76.512-1.984 1.056L.272 6.592 1.04.208h7.152v1.856H2.848l-.32 2.48c.48-.352 1.232-.64 2.304-.64 1.984 0 3.824 1.408 3.824 4.08 0 2.56-1.984 4.032-4.368 4.032-2.72 0-4.16-1.856-4.288-3.856h2.08c.128 1.2.816 2.192 2.24 2.192 1.216 0 2.096-.88 2.096-2.352zm5.728-2.784c.496-.624 1.424-1.104 2.64-1.104 2.144 0 3.936 1.456 3.936 3.968 0 2.384-1.808 3.936-4.32 3.936-3.104 0-4.464-2.496-4.464-5.744C9.936 2.944 11.168 0 14.64 0c2.528 0 3.712 1.712 3.84 3.2h-2.16c-.112-.96-.88-1.52-1.824-1.52-1.456 0-2.352 1.376-2.352 3.536zm2.256 5.136c1.2 0 2.08-.896 2.08-2.304 0-1.36-.88-2.256-2.08-2.256-1.216 0-2.128.896-2.128 2.256 0 1.392.912 2.304 2.128 2.304z"/>
        </g>
        <g id="seatnumber_56-with-service-icon" transform="translate(17.664 16.392)">
          <path d="M6.416 8c0-1.584-1.072-2.368-2.144-2.368-1.024 0-1.76.512-1.984 1.056L.272 6.592 1.04.208h7.152v1.856H2.848l-.32 2.48c.48-.352 1.232-.64 2.304-.64 1.984 0 3.824 1.408 3.824 4.08 0 2.56-1.984 4.032-4.368 4.032-2.72 0-4.16-1.856-4.288-3.856h2.08c.128 1.2.816 2.192 2.24 2.192 1.216 0 2.096-.88 2.096-2.352zm5.728-2.784c.496-.624 1.424-1.104 2.64-1.104 2.144 0 3.936 1.456 3.936 3.968 0 2.384-1.808 3.936-4.32 3.936-3.104 0-4.464-2.496-4.464-5.744C9.936 2.944 11.168 0 14.64 0c2.528 0 3.712 1.712 3.84 3.2h-2.16c-.112-.96-.88-1.52-1.824-1.52-1.456 0-2.352 1.376-2.352 3.536zm2.256 5.136c1.2 0 2.08-.896 2.08-2.304 0-1.36-.88-2.256-2.08-2.256-1.216 0-2.128.896-2.128 2.256 0 1.392.912 2.304 2.128 2.304z" transform="translate(0 10)"/>
          <use id="pet-seat-icon-seatnumber_56" xlink:href="#pet-seat-icon" transform="translate(0 -12)"/>
        </g>
      </g>
      <g id="seat_55" transform="translate(1266 164)">
        <path d="M41 .5c.966 0 1.841.392 2.475 1.025A3.489 3.489 0 0144.5 4h0v35c0 .966-.392 1.841-1.025 2.475A3.489 3.489 0 0141 42.5h0H.5V.5z" id="seat_55_shape" stroke="#1B50AF" fill="#FFF"/>
        <path id="Line" stroke="#1B50AF" fill="#FFF" stroke-linecap="square" d="M9.5.5v42.012"/>
        <g id="seatnumber_55" transform="translate(17.704 16.6)" fill="#1B50AF">
          <path d="M6.416 7.792c0-1.584-1.072-2.368-2.144-2.368-1.024 0-1.76.512-1.984 1.056L.272 6.384 1.04 0h7.152v1.856H2.848l-.32 2.48c.48-.352 1.232-.64 2.304-.64 1.984 0 3.824 1.408 3.824 4.08 0 2.56-1.984 4.032-4.368 4.032-2.72 0-4.16-1.856-4.288-3.856h2.08c.128 1.2.816 2.192 2.24 2.192 1.216 0 2.096-.88 2.096-2.352zm9.968 0c0-1.584-1.072-2.368-2.144-2.368-1.024 0-1.76.512-1.984 1.056l-2.016-.096L11.008 0h7.152v1.856h-5.344l-.32 2.48c.48-.352 1.232-.64 2.304-.64 1.984 0 3.824 1.408 3.824 4.08 0 2.56-1.984 4.032-4.368 4.032-2.72 0-4.16-1.856-4.288-3.856h2.08c.128 1.2.816 2.192 2.24 2.192 1.216 0 2.096-.88 2.096-2.352z"/>
        </g>
        <g id="seatnumber_55-with-service-icon" transform="translate(17.704 16.6)">
          <path d="M6.416 7.792c0-1.584-1.072-2.368-2.144-2.368-1.024 0-1.76.512-1.984 1.056L.272 6.384 1.04 0h7.152v1.856H2.848l-.32 2.48c.48-.352 1.232-.64 2.304-.64 1.984 0 3.824 1.408 3.824 4.08 0 2.56-1.984 4.032-4.368 4.032-2.72 0-4.16-1.856-4.288-3.856h2.08c.128 1.2.816 2.192 2.24 2.192 1.216 0 2.096-.88 2.096-2.352zm9.968 0c0-1.584-1.072-2.368-2.144-2.368-1.024 0-1.76.512-1.984 1.056l-2.016-.096L11.008 0h7.152v1.856h-5.344l-.32 2.48c.48-.352 1.232-.64 2.304-.64 1.984 0 3.824 1.408 3.824 4.08 0 2.56-1.984 4.032-4.368 4.032-2.72 0-4.16-1.856-4.288-3.856h2.08c.128 1.2.816 2.192 2.24 2.192 1.216 0 2.096-.88 2.096-2.352z" transform="translate(0 10)"/>
          <use id="pet-seat-icon-seatnumber_55" xlink:href="#pet-seat-icon" transform="translate(0 -12)"/>
        </g>
      </g>
      <g id="seat_54" transform="translate(1266 43)">
        <path d="M41 .5c.966 0 1.841.392 2.475 1.025A3.489 3.489 0 0144.5 4h0v35c0 .966-.392 1.841-1.025 2.475A3.489 3.489 0 0141 42.5h0H.5V.5z" id="seat_54_shape" stroke="#1B50AF" fill="#FFF"/>
        <path id="Line" stroke="#1B50AF" fill="#FFF" stroke-linecap="square" d="M9.5.5v42.012"/>
        <g id="seatnumber_54" transform="translate(17.616 16.6)" fill="#1B50AF">
          <path d="M6.416 7.792c0-1.584-1.072-2.368-2.144-2.368-1.024 0-1.76.512-1.984 1.056L.272 6.384 1.04 0h7.152v1.856H2.848l-.32 2.48c.48-.352 1.232-.64 2.304-.64 1.984 0 3.824 1.408 3.824 4.08 0 2.56-1.984 4.032-4.368 4.032-2.72 0-4.16-1.856-4.288-3.856h2.08c.128 1.2.816 2.192 2.24 2.192 1.216 0 2.096-.88 2.096-2.352zm12.912 1.024h-1.984V11.6h-2.192V8.816H9.424V7.088L15.184 0h2.16v6.944h1.984v1.872zM11.84 6.944h3.312V2.8L11.84 6.944z"/>
        </g>
        <g id="seatnumber_54-with-service-icon" transform="translate(17.616 16.6)">
          <path d="M6.416 7.792c0-1.584-1.072-2.368-2.144-2.368-1.024 0-1.76.512-1.984 1.056L.272 6.384 1.04 0h7.152v1.856H2.848l-.32 2.48c.48-.352 1.232-.64 2.304-.64 1.984 0 3.824 1.408 3.824 4.08 0 2.56-1.984 4.032-4.368 4.032-2.72 0-4.16-1.856-4.288-3.856h2.08c.128 1.2.816 2.192 2.24 2.192 1.216 0 2.096-.88 2.096-2.352zm12.912 1.024h-1.984V11.6h-2.192V8.816H9.424V7.088L15.184 0h2.16v6.944h1.984v1.872zM11.84 6.944h3.312V2.8L11.84 6.944z" transform="translate(0 10)"/>
          <use id="pet-seat-icon-seatnumber_54" xlink:href="#pet-seat-icon" transform="translate(0 -12)"/>
        </g>
      </g>
      <g id="seat_53" transform="translate(1266)">
        <path d="M41 .5c.966 0 1.841.392 2.475 1.025A3.489 3.489 0 0144.5 4h0v35c0 .966-.392 1.841-1.025 2.475A3.489 3.489 0 0141 42.5h0H.5V.5z" id="seat_53_shape" stroke="#1B50AF" fill="#FFF"/>
        <path id="Line" stroke="#1B50AF" fill="#FFF" stroke-linecap="square" d="M9.5.5v42.012"/>
        <g id="seatnumber_53" transform="translate(17.776 16.392)" fill="#1B50AF">
          <path d="M6.416 8c0-1.584-1.072-2.368-2.144-2.368-1.024 0-1.76.512-1.984 1.056L.272 6.592 1.04.208h7.152v1.856H2.848l-.32 2.48c.48-.352 1.232-.64 2.304-.64 1.984 0 3.824 1.408 3.824 4.08 0 2.56-1.984 4.032-4.368 4.032-2.72 0-4.16-1.856-4.288-3.856h2.08c.128 1.2.816 2.192 2.24 2.192 1.216 0 2.096-.88 2.096-2.352zm9.84.544c0-1.36-1.264-1.904-2.912-1.904h-.464V4.912h.384c1.664 0 2.704-.608 2.704-1.696 0-1.008-.88-1.552-1.84-1.552-1.328 0-2.176.848-2.288 2.048H9.744C10 1.408 11.6 0 14.256 0c1.936 0 3.936.928 3.936 3.12 0 1.12-.688 2.064-1.568 2.544a3.035 3.035 0 011.872 2.816c0 2.352-2.032 3.536-4.48 3.536-2.656 0-4.224-1.728-4.368-3.856h2.08c.16 1.168.912 2.192 2.352 2.192 1.2 0 2.176-.72 2.176-1.808z"/>
        </g>
        <g id="seatnumber_53-with-service-icon" transform="translate(17.776 16.392)">
          <path d="M6.416 8c0-1.584-1.072-2.368-2.144-2.368-1.024 0-1.76.512-1.984 1.056L.272 6.592 1.04.208h7.152v1.856H2.848l-.32 2.48c.48-.352 1.232-.64 2.304-.64 1.984 0 3.824 1.408 3.824 4.08 0 2.56-1.984 4.032-4.368 4.032-2.72 0-4.16-1.856-4.288-3.856h2.08c.128 1.2.816 2.192 2.24 2.192 1.216 0 2.096-.88 2.096-2.352zm9.84.544c0-1.36-1.264-1.904-2.912-1.904h-.464V4.912h.384c1.664 0 2.704-.608 2.704-1.696 0-1.008-.88-1.552-1.84-1.552-1.328 0-2.176.848-2.288 2.048H9.744C10 1.408 11.6 0 14.256 0c1.936 0 3.936.928 3.936 3.12 0 1.12-.688 2.064-1.568 2.544a3.035 3.035 0 011.872 2.816c0 2.352-2.032 3.536-4.48 3.536-2.656 0-4.224-1.728-4.368-3.856h2.08c.16 1.168.912 2.192 2.352 2.192 1.2 0 2.176-.72 2.176-1.808z" transform="translate(0 10)"/>
          <use id="pet-seat-icon-seatnumber_53" xlink:href="#pet-seat-icon" transform="translate(0 -12)"/>
        </g>
      </g>
      <g id="seat_35" transform="translate(784 164)">
        <path d="M48 .5c.966 0 1.841.392 2.475 1.025A3.489 3.489 0 0151.5 4h0v35c0 .966-.392 1.841-1.025 2.475A3.489 3.489 0 0148 42.5h0H.5V.5z" id="seat_35_shape" stroke="#1B50AF" fill="#FFF"/>
        <g id="seat_35_wheelchair" transform="translate(7 11)" fill="#00A149">
          <path d="M7.582 5.23c1.356 0 2.528.947 2.812 2.273l.07.323a.958.958 0 00.936.757h.652c.662 0 1.198.537 1.198 1.198v.719H11.4a2.876 2.876 0 01-2.812-2.274l-.068-.321a.96.96 0 00-.939-.76h-.91c-.29 0-.562.13-.745.356a.953.953 0 00-.192.802l.816 3.834a.958.958 0 00.937.759H10.5c1.358 0 2.512.926 2.806 2.251l1.106 4.936H13.4c-.562 0-1.048-.39-1.17-.937l-.797-3.583a.96.96 0 00-.935-.75H7.488a2.875 2.875 0 01-2.813-2.277l-.343-1.612a3.828 3.828 0 00-2.103 3.41 3.838 3.838 0 003.833 3.833c.868 0 1.666-.292 2.308-.78.447-.342 1.06-.357 1.5-.006l.672.538a5.732 5.732 0 01-4.48 2.164c-3.17 0-5.75-2.579-5.75-5.75A5.75 5.75 0 013.922 9l-.043-.204c-.15-.704-.079-1.451.273-2.08A2.872 2.872 0 016.67 5.23zM7.98.916a1.677 1.677 0 110 3.353 1.677 1.677 0 010-3.353z"/>
        </g>
        <g id="seatnumber_35" transform="translate(26.456 16.392)" fill="#1B50AF">
          <path d="M6.608 8.544c0-1.36-1.264-1.904-2.912-1.904h-.464V4.912h.384c1.664 0 2.704-.608 2.704-1.696 0-1.008-.88-1.552-1.84-1.552-1.328 0-2.176.848-2.288 2.048H.096C.352 1.408 1.952 0 4.608 0c1.936 0 3.936.928 3.936 3.12 0 1.12-.688 2.064-1.568 2.544A3.035 3.035 0 018.848 8.48c0 2.352-2.032 3.536-4.48 3.536C1.712 12.016.144 10.288 0 8.16h2.08c.16 1.168.912 2.192 2.352 2.192 1.2 0 2.176-.72 2.176-1.808zM16.56 8c0-1.584-1.072-2.368-2.144-2.368-1.024 0-1.76.512-1.984 1.056l-2.016-.096.768-6.384h7.152v1.856h-5.344l-.32 2.48c.48-.352 1.232-.64 2.304-.64 1.984 0 3.824 1.408 3.824 4.08 0 2.56-1.984 4.032-4.368 4.032-2.72 0-4.16-1.856-4.288-3.856h2.08c.128 1.2.816 2.192 2.24 2.192 1.216 0 2.096-.88 2.096-2.352z"/>
        </g>
        <g id="seatnumber_35-with-service-icon" transform="translate(26.456 16.392)">
          <path d="M6.608 8.544c0-1.36-1.264-1.904-2.912-1.904h-.464V4.912h.384c1.664 0 2.704-.608 2.704-1.696 0-1.008-.88-1.552-1.84-1.552-1.328 0-2.176.848-2.288 2.048H.096C.352 1.408 1.952 0 4.608 0c1.936 0 3.936.928 3.936 3.12 0 1.12-.688 2.064-1.568 2.544A3.035 3.035 0 018.848 8.48c0 2.352-2.032 3.536-4.48 3.536C1.712 12.016.144 10.288 0 8.16h2.08c.16 1.168.912 2.192 2.352 2.192 1.2 0 2.176-.72 2.176-1.808zM16.56 8c0-1.584-1.072-2.368-2.144-2.368-1.024 0-1.76.512-1.984 1.056l-2.016-.096.768-6.384h7.152v1.856h-5.344l-.32 2.48c.48-.352 1.232-.64 2.304-.64 1.984 0 3.824 1.408 3.824 4.08 0 2.56-1.984 4.032-4.368 4.032-2.72 0-4.16-1.856-4.288-3.856h2.08c.128 1.2.816 2.192 2.24 2.192 1.216 0 2.096-.88 2.096-2.352z" transform="translate(0 10)"/>
          <use id="pet-seat-icon-seatnumber_35" xlink:href="#pet-seat-icon" transform="translate(0 -12)"/>
        </g>
      </g>
      <g id="seat_33" transform="translate(784)">
        <path d="M48 .5c.966 0 1.841.392 2.475 1.025A3.489 3.489 0 0151.5 4h0v35c0 .966-.392 1.841-1.025 2.475A3.489 3.489 0 0148 42.5h0H.5V.5z" id="seat_33_shape" stroke="#1B50AF" fill="#FFF"/>
        <g id="Icon/Accessibility/Wheelchair" transform="translate(7 11)" fill="#00A149">
          <path d="M7.582 5.23c1.356 0 2.528.947 2.812 2.273l.07.323a.958.958 0 00.936.757h.652c.662 0 1.198.537 1.198 1.198v.719H11.4a2.876 2.876 0 01-2.812-2.274l-.068-.321a.96.96 0 00-.939-.76h-.91c-.29 0-.562.13-.745.356a.953.953 0 00-.192.802l.816 3.834a.958.958 0 00.937.759H10.5c1.358 0 2.512.926 2.806 2.251l1.106 4.936H13.4c-.562 0-1.048-.39-1.17-.937l-.797-3.583a.96.96 0 00-.935-.75H7.488a2.875 2.875 0 01-2.813-2.277l-.343-1.612a3.828 3.828 0 00-2.103 3.41 3.838 3.838 0 003.833 3.833c.868 0 1.666-.292 2.308-.78.447-.342 1.06-.357 1.5-.006l.672.538a5.732 5.732 0 01-4.48 2.164c-3.17 0-5.75-2.579-5.75-5.75A5.75 5.75 0 013.922 9l-.043-.204c-.15-.704-.079-1.451.273-2.08A2.872 2.872 0 016.67 5.23zM7.98.916a1.677 1.677 0 110 3.353 1.677 1.677 0 010-3.353z"/>
        </g>
        <g id="seatnumber_33" transform="translate(26.528 16.392)" fill="#1B50AF">
          <path d="M6.608 8.544c0-1.36-1.264-1.904-2.912-1.904h-.464V4.912h.384c1.664 0 2.704-.608 2.704-1.696 0-1.008-.88-1.552-1.84-1.552-1.328 0-2.176.848-2.288 2.048H.096C.352 1.408 1.952 0 4.608 0c1.936 0 3.936.928 3.936 3.12 0 1.12-.688 2.064-1.568 2.544A3.035 3.035 0 018.848 8.48c0 2.352-2.032 3.536-4.48 3.536C1.712 12.016.144 10.288 0 8.16h2.08c.16 1.168.912 2.192 2.352 2.192 1.2 0 2.176-.72 2.176-1.808zm9.824 0c0-1.36-1.264-1.904-2.912-1.904h-.464V4.912h.384c1.664 0 2.704-.608 2.704-1.696 0-1.008-.88-1.552-1.84-1.552-1.328 0-2.176.848-2.288 2.048H9.92C10.176 1.408 11.776 0 14.432 0c1.936 0 3.936.928 3.936 3.12 0 1.12-.688 2.064-1.568 2.544a3.035 3.035 0 011.872 2.816c0 2.352-2.032 3.536-4.48 3.536-2.656 0-4.224-1.728-4.368-3.856h2.08c.16 1.168.912 2.192 2.352 2.192 1.2 0 2.176-.72 2.176-1.808z"/>
        </g>
        <g id="seatnumber_33-with-service-icon" transform="translate(26.528 16.392)">
          <path d="M6.608 8.544c0-1.36-1.264-1.904-2.912-1.904h-.464V4.912h.384c1.664 0 2.704-.608 2.704-1.696 0-1.008-.88-1.552-1.84-1.552-1.328 0-2.176.848-2.288 2.048H.096C.352 1.408 1.952 0 4.608 0c1.936 0 3.936.928 3.936 3.12 0 1.12-.688 2.064-1.568 2.544A3.035 3.035 0 018.848 8.48c0 2.352-2.032 3.536-4.48 3.536C1.712 12.016.144 10.288 0 8.16h2.08c.16 1.168.912 2.192 2.352 2.192 1.2 0 2.176-.72 2.176-1.808zm9.824 0c0-1.36-1.264-1.904-2.912-1.904h-.464V4.912h.384c1.664 0 2.704-.608 2.704-1.696 0-1.008-.88-1.552-1.84-1.552-1.328 0-2.176.848-2.288 2.048H9.92C10.176 1.408 11.776 0 14.432 0c1.936 0 3.936.928 3.936 3.12 0 1.12-.688 2.064-1.568 2.544a3.035 3.035 0 011.872 2.816c0 2.352-2.032 3.536-4.48 3.536-2.656 0-4.224-1.728-4.368-3.856h2.08c.16 1.168.912 2.192 2.352 2.192 1.2 0 2.176-.72 2.176-1.808z" transform="translate(0 10)"/>
          <use id="pet-seat-icon-seatnumber_33" xlink:href="#pet-seat-icon" transform="translate(0 -12)"/>
        </g>
      </g>
      <g id="seat_32" transform="translate(653 120)">
        <path d="M41 .5c.966 0 1.841.392 2.475 1.025A3.489 3.489 0 0144.5 4h0v35c0 .966-.392 1.841-1.025 2.475A3.489 3.489 0 0141 42.5h0H.5V.5z" id="seat_32_shape" stroke="#1B50AF" fill="#FFF"/>
        <path id="Line" stroke="#1B50AF" fill="#FFF" stroke-linecap="square" d="M9.5.5v42.012"/>
        <g id="seatnumber_32" transform="translate(17.808 16.392)" fill="#1B50AF">
          <path d="M6.608 8.544c0-1.36-1.264-1.904-2.912-1.904h-.464V4.912h.384c1.664 0 2.704-.608 2.704-1.696 0-1.008-.88-1.552-1.84-1.552-1.328 0-2.176.848-2.288 2.048H.096C.352 1.408 1.952 0 4.608 0c1.936 0 3.936.928 3.936 3.12 0 1.12-.688 2.064-1.568 2.544A3.035 3.035 0 018.848 8.48c0 2.352-2.032 3.536-4.48 3.536C1.712 12.016.144 10.288 0 8.16h2.08c.16 1.168.912 2.192 2.352 2.192 1.2 0 2.176-.72 2.176-1.808zM18.096 3.12c0 2.176-2.112 4.448-5.68 6.832h5.952v1.856H9.84v-1.792c3.728-3.008 6.032-4.944 6.032-6.784 0-1.008-.64-1.6-1.712-1.6-.976 0-1.968.592-1.968 2.32h-2.144C10.016 1.552 11.712 0 14.288 0c2.32 0 3.808 1.104 3.808 3.12z"/>
        </g>
        <g id="seatnumber_32-with-service-icon" transform="translate(17.808 16.392)">
          <path d="M6.608 8.544c0-1.36-1.264-1.904-2.912-1.904h-.464V4.912h.384c1.664 0 2.704-.608 2.704-1.696 0-1.008-.88-1.552-1.84-1.552-1.328 0-2.176.848-2.288 2.048H.096C.352 1.408 1.952 0 4.608 0c1.936 0 3.936.928 3.936 3.12 0 1.12-.688 2.064-1.568 2.544A3.035 3.035 0 018.848 8.48c0 2.352-2.032 3.536-4.48 3.536C1.712 12.016.144 10.288 0 8.16h2.08c.16 1.168.912 2.192 2.352 2.192 1.2 0 2.176-.72 2.176-1.808zM18.096 3.12c0 2.176-2.112 4.448-5.68 6.832h5.952v1.856H9.84v-1.792c3.728-3.008 6.032-4.944 6.032-6.784 0-1.008-.64-1.6-1.712-1.6-.976 0-1.968.592-1.968 2.32h-2.144C10.016 1.552 11.712 0 14.288 0c2.32 0 3.808 1.104 3.808 3.12z" transform="translate(0 10)"/>
          <use id="pet-seat-icon-seatnumber_32" xlink:href="#pet-seat-icon" transform="translate(0 -12)"/>
        </g>
      </g>
      <g id="seat_31" transform="translate(653 163)">
        <path d="M41 .5c.966 0 1.841.392 2.475 1.025A3.489 3.489 0 0144.5 4h0v35c0 .966-.392 1.841-1.025 2.475A3.489 3.489 0 0141 42.5h0H.5V.5z" id="seat_31_shape" stroke="#1B50AF" fill="#FFF"/>
        <path id="Line" stroke="#1B50AF" fill="#FFF" stroke-linecap="square" d="M9.5.5v42.012"/>
        <g id="seatnumber_31" transform="translate(19.488 16.392)" fill="#1B50AF">
          <path d="M6.608 8.544c0-1.36-1.264-1.904-2.912-1.904h-.464V4.912h.384c1.664 0 2.704-.608 2.704-1.696 0-1.008-.88-1.552-1.84-1.552-1.328 0-2.176.848-2.288 2.048H.096C.352 1.408 1.952 0 4.608 0c1.936 0 3.936.928 3.936 3.12 0 1.12-.688 2.064-1.568 2.544A3.035 3.035 0 018.848 8.48c0 2.352-2.032 3.536-4.48 3.536C1.712 12.016.144 10.288 0 8.16h2.08c.16 1.168.912 2.192 2.352 2.192 1.2 0 2.176-.72 2.176-1.808zm5.36 3.264V3.136H9.472V1.632c1.68-.048 2.464-.16 3.024-1.424h1.68v11.6h-2.208z"/>
        </g>
        <g id="seatnumber_31-with-service-icon" transform="translate(19.488 16.392)">
          <path d="M6.608 8.544c0-1.36-1.264-1.904-2.912-1.904h-.464V4.912h.384c1.664 0 2.704-.608 2.704-1.696 0-1.008-.88-1.552-1.84-1.552-1.328 0-2.176.848-2.288 2.048H.096C.352 1.408 1.952 0 4.608 0c1.936 0 3.936.928 3.936 3.12 0 1.12-.688 2.064-1.568 2.544A3.035 3.035 0 018.848 8.48c0 2.352-2.032 3.536-4.48 3.536C1.712 12.016.144 10.288 0 8.16h2.08c.16 1.168.912 2.192 2.352 2.192 1.2 0 2.176-.72 2.176-1.808zm5.36 3.264V3.136H9.472V1.632c1.68-.048 2.464-.16 3.024-1.424h1.68v11.6h-2.208z" transform="translate(0 10)"/>
          <use id="pet-seat-icon-seatnumber_31" xlink:href="#pet-seat-icon" transform="translate(0 -12)"/>
        </g>
      </g>
      <g id="seat_28" transform="translate(597 120)">
        <path d="M41 .5c.966 0 1.841.392 2.475 1.025A3.489 3.489 0 0144.5 4h0v35c0 .966-.392 1.841-1.025 2.475A3.489 3.489 0 0141 42.5h0H.5V.5z" id="seat_28_shape" stroke="#1B50AF" fill="#FFF"/>
        <path id="Line" stroke="#1B50AF" fill="#FFF" stroke-linecap="square" d="M9.5.5v42.012"/>
        <g id="seatnumber_28" transform="translate(17.608 16.392)" fill="#1B50AF">
          <path d="M8.256 3.12c0 2.176-2.112 4.448-5.68 6.832h5.952v1.856H0v-1.792c3.728-3.008 6.032-4.944 6.032-6.784 0-1.008-.64-1.6-1.712-1.6-.976 0-1.968.592-1.968 2.32H.208C.176 1.552 1.872 0 4.448 0c2.32 0 3.808 1.104 3.808 3.12zm9.808-.144c0 1.04-.416 2.016-1.408 2.624 1.296.736 1.76 1.776 1.76 2.896 0 2.272-1.936 3.52-4.4 3.52-2.448 0-4.384-1.248-4.384-3.52 0-1.12.48-2.176 1.776-2.896-.96-.544-1.424-1.584-1.424-2.608C9.984 1.264 11.568 0 14.016 0c2.464 0 4.048 1.264 4.048 2.976zm-4.048-1.312c-1.152 0-1.888.624-1.888 1.584 0 .96.736 1.664 1.888 1.664s1.904-.704 1.904-1.664-.752-1.584-1.904-1.584zM11.888 8.4c0 1.152.832 1.952 2.128 1.952 1.312 0 2.144-.8 2.144-1.952s-.832-1.904-2.144-1.904c-1.296 0-2.128.752-2.128 1.904z"/>
        </g>
        <g id="seatnumber_28-with-service-icon" transform="translate(17.608 16.392)">
          <path d="M8.256 3.12c0 2.176-2.112 4.448-5.68 6.832h5.952v1.856H0v-1.792c3.728-3.008 6.032-4.944 6.032-6.784 0-1.008-.64-1.6-1.712-1.6-.976 0-1.968.592-1.968 2.32H.208C.176 1.552 1.872 0 4.448 0c2.32 0 3.808 1.104 3.808 3.12zm9.808-.144c0 1.04-.416 2.016-1.408 2.624 1.296.736 1.76 1.776 1.76 2.896 0 2.272-1.936 3.52-4.4 3.52-2.448 0-4.384-1.248-4.384-3.52 0-1.12.48-2.176 1.776-2.896-.96-.544-1.424-1.584-1.424-2.608C9.984 1.264 11.568 0 14.016 0c2.464 0 4.048 1.264 4.048 2.976zm-4.048-1.312c-1.152 0-1.888.624-1.888 1.584 0 .96.736 1.664 1.888 1.664s1.904-.704 1.904-1.664-.752-1.584-1.904-1.584zM11.888 8.4c0 1.152.832 1.952 2.128 1.952 1.312 0 2.144-.8 2.144-1.952s-.832-1.904-2.144-1.904c-1.296 0-2.128.752-2.128 1.904z" transform="translate(0 10)"/>
          <use id="pet-seat-icon-seatnumber_28" xlink:href="#pet-seat-icon" transform="translate(0 -12)"/>
        </g>
      </g>
      <g id="seat_27" transform="translate(597 163)">
        <path d="M41 .5c.966 0 1.841.392 2.475 1.025A3.489 3.489 0 0144.5 4h0v35c0 .966-.392 1.841-1.025 2.475A3.489 3.489 0 0141 42.5h0H.5V.5z" id="seat_27_shape" stroke="#1B50AF" fill="#FFF"/>
        <path id="Line" stroke="#1B50AF" fill="#FFF" stroke-linecap="square" d="M9.5.5v42.012"/>
        <g id="seatnumber_27" transform="translate(18.656 16.392)" fill="#1B50AF">
          <path d="M8.256 3.12c0 2.176-2.112 4.448-5.68 6.832h5.952v1.856H0v-1.792c3.728-3.008 6.032-4.944 6.032-6.784 0-1.008-.64-1.6-1.712-1.6-.976 0-1.968.592-1.968 2.32H.208C.176 1.552 1.872 0 4.448 0c2.32 0 3.808 1.104 3.808 3.12zM8.848.208h8.528v1.856c-3.024 3.088-4.496 5.568-4.72 9.744h-2.432c.192-4.032 2.336-7.296 4.928-9.744H8.848V.208z"/>
        </g>
        <g id="seatnumber_27-with-service-icon" transform="translate(18.656 16.392)">
          <path d="M8.256 3.12c0 2.176-2.112 4.448-5.68 6.832h5.952v1.856H0v-1.792c3.728-3.008 6.032-4.944 6.032-6.784 0-1.008-.64-1.6-1.712-1.6-.976 0-1.968.592-1.968 2.32H.208C.176 1.552 1.872 0 4.448 0c2.32 0 3.808 1.104 3.808 3.12zM8.848.208h8.528v1.856c-3.024 3.088-4.496 5.568-4.72 9.744h-2.432c.192-4.032 2.336-7.296 4.928-9.744H8.848V.208z" transform="translate(0 10)"/>
          <use id="pet-seat-icon-seatnumber_27" xlink:href="#pet-seat-icon" transform="translate(0 -12)"/>
        </g>
      </g>
      <g id="seat_26" transform="translate(597 44)">
        <path d="M41 .5c.966 0 1.841.392 2.475 1.025A3.489 3.489 0 0144.5 4h0v35c0 .966-.392 1.841-1.025 2.475A3.489 3.489 0 0141 42.5h0H.5V.5z" id="seat_26_shape" stroke="#1B50AF" fill="#FFF"/>
        <path id="Line" stroke="#1B50AF" fill="#FFF" stroke-linecap="square" d="M9.5.5v42.012"/>
        <g id="seatnumber_26" transform="translate(17.712 16.392)" fill="#1B50AF">
          <path d="M8.256 3.12c0 2.176-2.112 4.448-5.68 6.832h5.952v1.856H0v-1.792c3.728-3.008 6.032-4.944 6.032-6.784 0-1.008-.64-1.6-1.712-1.6-.976 0-1.968.592-1.968 2.32H.208C.176 1.552 1.872 0 4.448 0c2.32 0 3.808 1.104 3.808 3.12zm3.488 2.096c.496-.624 1.424-1.104 2.64-1.104 2.144 0 3.936 1.456 3.936 3.968 0 2.384-1.808 3.936-4.32 3.936-3.104 0-4.464-2.496-4.464-5.744C9.536 2.944 10.768 0 14.24 0c2.528 0 3.712 1.712 3.84 3.2h-2.16c-.112-.96-.88-1.52-1.824-1.52-1.456 0-2.352 1.376-2.352 3.536zM14 10.352c1.2 0 2.08-.896 2.08-2.304 0-1.36-.88-2.256-2.08-2.256-1.216 0-2.128.896-2.128 2.256 0 1.392.912 2.304 2.128 2.304z"/>
        </g>
        <g id="seatnumber_26-with-service-icon" transform="translate(17.712 16.392)">
          <path d="M8.256 3.12c0 2.176-2.112 4.448-5.68 6.832h5.952v1.856H0v-1.792c3.728-3.008 6.032-4.944 6.032-6.784 0-1.008-.64-1.6-1.712-1.6-.976 0-1.968.592-1.968 2.32H.208C.176 1.552 1.872 0 4.448 0c2.32 0 3.808 1.104 3.808 3.12zm3.488 2.096c.496-.624 1.424-1.104 2.64-1.104 2.144 0 3.936 1.456 3.936 3.968 0 2.384-1.808 3.936-4.32 3.936-3.104 0-4.464-2.496-4.464-5.744C9.536 2.944 10.768 0 14.24 0c2.528 0 3.712 1.712 3.84 3.2h-2.16c-.112-.96-.88-1.52-1.824-1.52-1.456 0-2.352 1.376-2.352 3.536zM14 10.352c1.2 0 2.08-.896 2.08-2.304 0-1.36-.88-2.256-2.08-2.256-1.216 0-2.128.896-2.128 2.256 0 1.392.912 2.304 2.128 2.304z" transform="translate(0 10)"/>
          <use id="pet-seat-icon-seatnumber_26" xlink:href="#pet-seat-icon" transform="translate(0 -12)"/>
        </g>
      </g>
      <g id="seat_25" transform="translate(597 1)">
        <path d="M41 .5c.966 0 1.841.392 2.475 1.025A3.489 3.489 0 0144.5 4h0v35c0 .966-.392 1.841-1.025 2.475A3.489 3.489 0 0141 42.5h0H.5V.5z" id="seat_25_shape" stroke="#1B50AF" fill="#FFF"/>
        <path id="Line" stroke="#1B50AF" fill="#FFF" stroke-linecap="square" d="M9.5.5v42.012"/>
        <g id="seatnumber_25" transform="translate(17.752 16.392)" fill="#1B50AF">
          <path d="M8.256 3.12c0 2.176-2.112 4.448-5.68 6.832h5.952v1.856H0v-1.792c3.728-3.008 6.032-4.944 6.032-6.784 0-1.008-.64-1.6-1.712-1.6-.976 0-1.968.592-1.968 2.32H.208C.176 1.552 1.872 0 4.448 0c2.32 0 3.808 1.104 3.808 3.12zM15.984 8c0-1.584-1.072-2.368-2.144-2.368-1.024 0-1.76.512-1.984 1.056L9.84 6.592l.768-6.384h7.152v1.856h-5.344l-.32 2.48c.48-.352 1.232-.64 2.304-.64 1.984 0 3.824 1.408 3.824 4.08 0 2.56-1.984 4.032-4.368 4.032-2.72 0-4.16-1.856-4.288-3.856h2.08c.128 1.2.816 2.192 2.24 2.192 1.216 0 2.096-.88 2.096-2.352z"/>
        </g>
        <g id="seatnumber_25-with-service-icon" transform="translate(17.752 16.392)">
          <path d="M8.256 3.12c0 2.176-2.112 4.448-5.68 6.832h5.952v1.856H0v-1.792c3.728-3.008 6.032-4.944 6.032-6.784 0-1.008-.64-1.6-1.712-1.6-.976 0-1.968.592-1.968 2.32H.208C.176 1.552 1.872 0 4.448 0c2.32 0 3.808 1.104 3.808 3.12zM15.984 8c0-1.584-1.072-2.368-2.144-2.368-1.024 0-1.76.512-1.984 1.056L9.84 6.592l.768-6.384h7.152v1.856h-5.344l-.32 2.48c.48-.352 1.232-.64 2.304-.64 1.984 0 3.824 1.408 3.824 4.08 0 2.56-1.984 4.032-4.368 4.032-2.72 0-4.16-1.856-4.288-3.856h2.08c.128 1.2.816 2.192 2.24 2.192 1.216 0 2.096-.88 2.096-2.352z" transform="translate(0 10)"/>
          <use id="pet-seat-icon-seatnumber_25" xlink:href="#pet-seat-icon" transform="translate(0 -12)"/>
        </g>
      </g>
      <g id="seat_24" transform="translate(541 120)">
        <path d="M41 .5c.966 0 1.841.392 2.475 1.025A3.489 3.489 0 0144.5 4h0v35c0 .966-.392 1.841-1.025 2.475A3.489 3.489 0 0141 42.5h0H.5V.5z" id="seat_24_shape" stroke="#1B50AF" fill="#FFF"/>
        <path id="Line" stroke="#1B50AF" fill="#FFF" stroke-linecap="square" d="M9.5.5v42.012"/>
        <g id="seatnumber_24" transform="translate(17.664 18.392)" fill="#1B50AF">
          <path d="M8.256 3.12c0 2.176-2.112 4.448-5.68 6.832h5.952v1.856H0v-1.792c3.728-3.008 6.032-4.944 6.032-6.784 0-1.008-.64-1.6-1.712-1.6-.976 0-1.968.592-1.968 2.32H.208C.176 1.552 1.872 0 4.448 0c2.32 0 3.808 1.104 3.808 3.12zm10.672 5.904h-1.984v2.784h-2.192V9.024H9.024V7.296l5.76-7.088h2.16v6.944h1.984v1.872zM11.44 7.152h3.312V3.008L11.44 7.152z"/>
        </g>
        <g id="seatnumber_24-with-service-icon" transform="translate(17.664 18.392)">
          <path d="M8.256 3.12c0 2.176-2.112 4.448-5.68 6.832h5.952v1.856H0v-1.792c3.728-3.008 6.032-4.944 6.032-6.784 0-1.008-.64-1.6-1.712-1.6-.976 0-1.968.592-1.968 2.32H.208C.176 1.552 1.872 0 4.448 0c2.32 0 3.808 1.104 3.808 3.12zm10.672 5.904h-1.984v2.784h-2.192V9.024H9.024V7.296l5.76-7.088h2.16v6.944h1.984v1.872zM11.44 7.152h3.312V3.008L11.44 7.152z" transform="translate(0 10)"/>
          <use id="pet-seat-icon-seatnumber_24" xlink:href="#pet-seat-icon" transform="translate(0 -12)"/>
        </g>
      </g>
      <g id="seat_23" transform="translate(541 163)">
        <path d="M41 .5c.966 0 1.841.392 2.475 1.025A3.489 3.489 0 0144.5 4h0v35c0 .966-.392 1.841-1.025 2.475A3.489 3.489 0 0141 42.5h0H.5V.5z" id="seat_23_shape" stroke="#1B50AF" fill="#FFF"/>
        <path id="Line" stroke="#1B50AF" fill="#FFF" stroke-linecap="square" d="M9.5.5v42.012"/>
        <g id="seatnumber_23" transform="translate(17.824 16.392)" fill="#1B50AF">
          <path d="M8.256 3.12c0 2.176-2.112 4.448-5.68 6.832h5.952v1.856H0v-1.792c3.728-3.008 6.032-4.944 6.032-6.784 0-1.008-.64-1.6-1.712-1.6-.976 0-1.968.592-1.968 2.32H.208C.176 1.552 1.872 0 4.448 0c2.32 0 3.808 1.104 3.808 3.12zm7.6 5.424c0-1.36-1.264-1.904-2.912-1.904h-.464V4.912h.384c1.664 0 2.704-.608 2.704-1.696 0-1.008-.88-1.552-1.84-1.552-1.328 0-2.176.848-2.288 2.048H9.344C9.6 1.408 11.2 0 13.856 0c1.936 0 3.936.928 3.936 3.12 0 1.12-.688 2.064-1.568 2.544a3.035 3.035 0 011.872 2.816c0 2.352-2.032 3.536-4.48 3.536-2.656 0-4.224-1.728-4.368-3.856h2.08c.16 1.168.912 2.192 2.352 2.192 1.2 0 2.176-.72 2.176-1.808z"/>
        </g>
        <g id="seatnumber_23-with-service-icon" transform="translate(17.824 16.392)">
          <path d="M8.256 3.12c0 2.176-2.112 4.448-5.68 6.832h5.952v1.856H0v-1.792c3.728-3.008 6.032-4.944 6.032-6.784 0-1.008-.64-1.6-1.712-1.6-.976 0-1.968.592-1.968 2.32H.208C.176 1.552 1.872 0 4.448 0c2.32 0 3.808 1.104 3.808 3.12zm7.6 5.424c0-1.36-1.264-1.904-2.912-1.904h-.464V4.912h.384c1.664 0 2.704-.608 2.704-1.696 0-1.008-.88-1.552-1.84-1.552-1.328 0-2.176.848-2.288 2.048H9.344C9.6 1.408 11.2 0 13.856 0c1.936 0 3.936.928 3.936 3.12 0 1.12-.688 2.064-1.568 2.544a3.035 3.035 0 011.872 2.816c0 2.352-2.032 3.536-4.48 3.536-2.656 0-4.224-1.728-4.368-3.856h2.08c.16 1.168.912 2.192 2.352 2.192 1.2 0 2.176-.72 2.176-1.808z" transform="translate(0 10)"/>
          <use id="pet-seat-icon-seatnumber_23" xlink:href="#pet-seat-icon" transform="translate(0 -12)"/>
        </g>
      </g>
      <g id="seat_22" transform="translate(541 44)">
        <path d="M41 .5c.966 0 1.841.392 2.475 1.025A3.489 3.489 0 0144.5 4h0v35c0 .966-.392 1.841-1.025 2.475A3.489 3.489 0 0141 42.5h0H.5V.5z" id="seat_22_shape" stroke="#1B50AF" fill="#FFF"/>
        <path id="Line" stroke="#1B50AF" fill="#FFF" stroke-linecap="square" d="M9.5.5v42.012"/>
        <g id="seatnumber_22" transform="translate(18.104 16.392)" fill="#1B50AF">
          <path d="M8.256 3.12c0 2.176-2.112 4.448-5.68 6.832h5.952v1.856H0v-1.792c3.728-3.008 6.032-4.944 6.032-6.784 0-1.008-.64-1.6-1.712-1.6-.976 0-1.968.592-1.968 2.32H.208C.176 1.552 1.872 0 4.448 0c2.32 0 3.808 1.104 3.808 3.12zm9.264 0c0 2.176-2.112 4.448-5.68 6.832h5.952v1.856H9.264v-1.792c3.728-3.008 6.032-4.944 6.032-6.784 0-1.008-.64-1.6-1.712-1.6-.976 0-1.968.592-1.968 2.32H9.472C9.44 1.552 11.136 0 13.712 0c2.32 0 3.808 1.104 3.808 3.12z"/>
        </g>
        <g id="seatnumber_22-with-service-icon" transform="translate(18.104 16.392)">
          <path d="M8.256 3.12c0 2.176-2.112 4.448-5.68 6.832h5.952v1.856H0v-1.792c3.728-3.008 6.032-4.944 6.032-6.784 0-1.008-.64-1.6-1.712-1.6-.976 0-1.968.592-1.968 2.32H.208C.176 1.552 1.872 0 4.448 0c2.32 0 3.808 1.104 3.808 3.12zm9.264 0c0 2.176-2.112 4.448-5.68 6.832h5.952v1.856H9.264v-1.792c3.728-3.008 6.032-4.944 6.032-6.784 0-1.008-.64-1.6-1.712-1.6-.976 0-1.968.592-1.968 2.32H9.472C9.44 1.552 11.136 0 13.712 0c2.32 0 3.808 1.104 3.808 3.12z" transform="translate(0 10)"/>
          <use id="pet-seat-icon-seatnumber_22" xlink:href="#pet-seat-icon" transform="translate(0 -12)"/>
        </g>
      </g>
      <g id="seat_21" transform="translate(541 1)">
        <path d="M41 .5c.966 0 1.841.392 2.475 1.025A3.489 3.489 0 0144.5 4h0v35c0 .966-.392 1.841-1.025 2.475A3.489 3.489 0 0141 42.5h0H.5V.5z" id="seat_21_shape" stroke="#1B50AF" fill="#FFF"/>
        <path id="Line" stroke="#1B50AF" fill="#FFF" stroke-linecap="square" d="M9.5.5v42.012"/>
        <g id="seatnumber_21" transform="translate(19.784 16.392)" fill="#1B50AF">
          <path d="M8.256 3.12c0 2.176-2.112 4.448-5.68 6.832h5.952v1.856H0v-1.792c3.728-3.008 6.032-4.944 6.032-6.784 0-1.008-.64-1.6-1.712-1.6-.976 0-1.968.592-1.968 2.32H.208C.176 1.552 1.872 0 4.448 0c2.32 0 3.808 1.104 3.808 3.12zm3.136 8.688V3.136H8.896V1.632c1.68-.048 2.464-.16 3.024-1.424h1.68v11.6h-2.208z"/>
        </g>
        <g id="seatnumber_21-with-service-icon" transform="translate(19.784 16.392)">
          <path d="M8.256 3.12c0 2.176-2.112 4.448-5.68 6.832h5.952v1.856H0v-1.792c3.728-3.008 6.032-4.944 6.032-6.784 0-1.008-.64-1.6-1.712-1.6-.976 0-1.968.592-1.968 2.32H.208C.176 1.552 1.872 0 4.448 0c2.32 0 3.808 1.104 3.808 3.12zm3.136 8.688V3.136H8.896V1.632c1.68-.048 2.464-.16 3.024-1.424h1.68v11.6h-2.208z" transform="translate(0 10)"/>
          <use id="pet-seat-icon-seatnumber_21" xlink:href="#pet-seat-icon" transform="translate(0 -12)"/>
        </g>
      </g>
      <g id="seat_20" transform="translate(485 120)">
        <path d="M41 .5c.966 0 1.841.392 2.475 1.025A3.489 3.489 0 0144.5 4h0v35c0 .966-.392 1.841-1.025 2.475A3.489 3.489 0 0141 42.5h0H.5V.5z" id="seat_20_shape" stroke="#1B50AF" fill="#FFF"/>
        <path id="Line" stroke="#1B50AF" fill="#FFF" stroke-linecap="square" d="M9.5.5v42.012"/>
        <g id="seatnumber_20" transform="translate(17.432 16.392)" fill="#1B50AF">
          <path d="M8.256 3.12c0 2.176-2.112 4.448-5.68 6.832h5.952v1.856H0v-1.792c3.728-3.008 6.032-4.944 6.032-6.784 0-1.008-.64-1.6-1.712-1.6-.976 0-1.968.592-1.968 2.32H.208C.176 1.552 1.872 0 4.448 0c2.32 0 3.808 1.104 3.808 3.12zm1.28 2.864C9.536 2.464 11.104 0 14.208 0c3.088 0 4.656 2.464 4.656 5.984 0 3.536-1.568 6.032-4.656 6.032-3.104 0-4.672-2.496-4.672-6.032zm7.072 0c0-2.768-.832-4.32-2.4-4.32s-2.416 1.552-2.416 4.32c0 2.784.848 4.368 2.416 4.368s2.4-1.584 2.4-4.368z"/>
        </g>
        <g id="seatnumber_20-with-service-icon" transform="translate(17.432 16.392)">
          <path d="M8.256 3.12c0 2.176-2.112 4.448-5.68 6.832h5.952v1.856H0v-1.792c3.728-3.008 6.032-4.944 6.032-6.784 0-1.008-.64-1.6-1.712-1.6-.976 0-1.968.592-1.968 2.32H.208C.176 1.552 1.872 0 4.448 0c2.32 0 3.808 1.104 3.808 3.12zm1.28 2.864C9.536 2.464 11.104 0 14.208 0c3.088 0 4.656 2.464 4.656 5.984 0 3.536-1.568 6.032-4.656 6.032-3.104 0-4.672-2.496-4.672-6.032zm7.072 0c0-2.768-.832-4.32-2.4-4.32s-2.416 1.552-2.416 4.32c0 2.784.848 4.368 2.416 4.368s2.4-1.584 2.4-4.368z" transform="translate(0 10)"/>
          <use id="pet-seat-icon-seatnumber_20" xlink:href="#pet-seat-icon" transform="translate(0 -12)"/>
        </g>
      </g>
      <g id="seat_19" transform="translate(485 163)">
        <path d="M41 .5c.966 0 1.841.392 2.475 1.025A3.489 3.489 0 0144.5 4h0v35c0 .966-.392 1.841-1.025 2.475A3.489 3.489 0 0141 42.5h0H.5V.5z" id="seat_19_shape" stroke="#1B50AF" fill="#FFF"/>
        <path id="Line" stroke="#1B50AF" fill="#FFF" stroke-linecap="square" d="M9.5.5v42.012"/>
        <g id="seatnumber_19" transform="translate(19.072 16.392)" fill="#1B50AF">
          <path d="M2.496 11.808V3.136H0V1.632c1.68-.048 2.464-.16 3.024-1.424h1.68v11.6H2.496zM13.008 6.8c-.496.624-1.424 1.104-2.656 1.104-2.128 0-3.92-1.472-3.92-3.968C6.432 1.552 8.24 0 10.752 0c3.104 0 4.464 2.496 4.464 5.744 0 3.328-1.248 6.272-4.704 6.272-2.528 0-3.712-1.728-3.84-3.2h2.16c.112.96.864 1.504 1.824 1.504 1.456 0 2.352-1.376 2.352-3.52zm-2.256-5.12c-1.2 0-2.08.88-2.08 2.272 0 1.36.88 2.256 2.08 2.256 1.2 0 2.112-.896 2.112-2.256 0-1.376-.912-2.272-2.112-2.272z"/>
        </g>
        <g id="seatnumber_19-with-service-icon" transform="translate(19.072 16.392)">
          <path d="M2.496 11.808V3.136H0V1.632c1.68-.048 2.464-.16 3.024-1.424h1.68v11.6H2.496zM13.008 6.8c-.496.624-1.424 1.104-2.656 1.104-2.128 0-3.92-1.472-3.92-3.968C6.432 1.552 8.24 0 10.752 0c3.104 0 4.464 2.496 4.464 5.744 0 3.328-1.248 6.272-4.704 6.272-2.528 0-3.712-1.728-3.84-3.2h2.16c.112.96.864 1.504 1.824 1.504 1.456 0 2.352-1.376 2.352-3.52zm-2.256-5.12c-1.2 0-2.08.88-2.08 2.272 0 1.36.88 2.256 2.08 2.256 1.2 0 2.112-.896 2.112-2.256 0-1.376-.912-2.272-2.112-2.272z" transform="translate(0 10)"/>
          <use id="pet-seat-icon-seatnumber_19" xlink:href="#pet-seat-icon" transform="translate(0 -12)"/>
        </g>
      </g>
      <g id="seat_18" transform="translate(485 44)">
        <path d="M41 .5c.966 0 1.841.392 2.475 1.025A3.489 3.489 0 0144.5 4h0v35c0 .966-.392 1.841-1.025 2.475A3.489 3.489 0 0141 42.5h0H.5V.5z" id="seat_18_shape" stroke="#1B50AF" fill="#FFF"/>
        <path id="Line" stroke="#1B50AF" fill="#FFF" stroke-linecap="square" d="M9.5.5v42.012"/>
        <g id="seatnumber_18" transform="translate(18.92 16.392)" fill="#1B50AF">
          <path d="M2.496 11.808V3.136H0V1.632c1.68-.048 2.464-.16 3.024-1.424h1.68v11.6H2.496zm12.576-8.832c0 1.04-.416 2.016-1.408 2.624 1.296.736 1.76 1.776 1.76 2.896 0 2.272-1.936 3.52-4.4 3.52-2.448 0-4.384-1.248-4.384-3.52 0-1.12.48-2.176 1.776-2.896-.96-.544-1.424-1.584-1.424-2.608C6.992 1.264 8.576 0 11.024 0c2.464 0 4.048 1.264 4.048 2.976zm-4.048-1.312c-1.152 0-1.888.624-1.888 1.584 0 .96.736 1.664 1.888 1.664s1.904-.704 1.904-1.664-.752-1.584-1.904-1.584zM8.896 8.4c0 1.152.832 1.952 2.128 1.952 1.312 0 2.144-.8 2.144-1.952s-.832-1.904-2.144-1.904c-1.296 0-2.128.752-2.128 1.904z"/>
        </g>
        <g id="seatnumber_18-with-service-icon" transform="translate(18.92 16.392)">
          <path d="M2.496 11.808V3.136H0V1.632c1.68-.048 2.464-.16 3.024-1.424h1.68v11.6H2.496zm12.576-8.832c0 1.04-.416 2.016-1.408 2.624 1.296.736 1.76 1.776 1.76 2.896 0 2.272-1.936 3.52-4.4 3.52-2.448 0-4.384-1.248-4.384-3.52 0-1.12.48-2.176 1.776-2.896-.96-.544-1.424-1.584-1.424-2.608C6.992 1.264 8.576 0 11.024 0c2.464 0 4.048 1.264 4.048 2.976zm-4.048-1.312c-1.152 0-1.888.624-1.888 1.584 0 .96.736 1.664 1.888 1.664s1.904-.704 1.904-1.664-.752-1.584-1.904-1.584zM8.896 8.4c0 1.152.832 1.952 2.128 1.952 1.312 0 2.144-.8 2.144-1.952s-.832-1.904-2.144-1.904c-1.296 0-2.128.752-2.128 1.904z" transform="translate(0 10)"/>
          <use id="pet-seat-icon-seatnumber_18" xlink:href="#pet-seat-icon" transform="translate(0 -12)"/>
        </g>
      </g>
      <g id="seat_17" transform="translate(485 1)">
        <path d="M41 .5c.966 0 1.841.392 2.475 1.025A3.489 3.489 0 0144.5 4h0v35c0 .966-.392 1.841-1.025 2.475A3.489 3.489 0 0141 42.5h0H.5V.5z" id="seat_17_shape" stroke="#1B50AF" fill="#FFF"/>
        <path id="Line" stroke="#1B50AF" fill="#FFF" stroke-linecap="square" d="M9.5.5v42.012"/>
        <g id="seatnumber_17" transform="translate(19.968 16.6)" fill="#1B50AF">
          <path d="M2.496 11.6V2.928H0V1.424C1.68 1.376 2.464 1.264 3.024 0h1.68v11.6H2.496zM5.856 0h8.528v1.856C11.36 4.944 9.888 7.424 9.664 11.6H7.232c.192-4.032 2.336-7.296 4.928-9.744H5.856V0z"/>
        </g>
        <g id="seatnumber_17-with-service-icon" transform="translate(19.968 16.6)">
          <path d="M2.496 11.6V2.928H0V1.424C1.68 1.376 2.464 1.264 3.024 0h1.68v11.6H2.496zM5.856 0h8.528v1.856C11.36 4.944 9.888 7.424 9.664 11.6H7.232c.192-4.032 2.336-7.296 4.928-9.744H5.856V0z" transform="translate(0 10)"/>
          <use id="pet-seat-icon-seatnumber_17" xlink:href="#pet-seat-icon" transform="translate(0 -12)"/>
        </g>
      </g>
      <g id="seat_16" transform="translate(429 120)">
        <path d="M41 .5c.966 0 1.841.392 2.475 1.025A3.489 3.489 0 0144.5 4h0v35c0 .966-.392 1.841-1.025 2.475A3.489 3.489 0 0141 42.5h0H.5V.5z" id="seat_16_shape" stroke="#1B50AF" fill="#FFF"/>
        <path id="Line" stroke="#1B50AF" fill="#FFF" stroke-linecap="square" d="M9.5.5v42.012"/>
        <g id="seatnumber_16" transform="translate(19.024 16.392)" fill="#1B50AF">
          <path d="M2.496 11.808V3.136H0V1.632c1.68-.048 2.464-.16 3.024-1.424h1.68v11.6H2.496zm6.256-6.592c.496-.624 1.424-1.104 2.64-1.104 2.144 0 3.936 1.456 3.936 3.968 0 2.384-1.808 3.936-4.32 3.936-3.104 0-4.464-2.496-4.464-5.744C6.544 2.944 7.776 0 11.248 0c2.528 0 3.712 1.712 3.84 3.2h-2.16c-.112-.96-.88-1.52-1.824-1.52-1.456 0-2.352 1.376-2.352 3.536zm2.256 5.136c1.2 0 2.08-.896 2.08-2.304 0-1.36-.88-2.256-2.08-2.256-1.216 0-2.128.896-2.128 2.256 0 1.392.912 2.304 2.128 2.304z"/>
        </g>
        <g id="seatnumber_16-with-service-icon" transform="translate(19.024 16.392)">
          <path d="M2.496 11.808V3.136H0V1.632c1.68-.048 2.464-.16 3.024-1.424h1.68v11.6H2.496zm6.256-6.592c.496-.624 1.424-1.104 2.64-1.104 2.144 0 3.936 1.456 3.936 3.968 0 2.384-1.808 3.936-4.32 3.936-3.104 0-4.464-2.496-4.464-5.744C6.544 2.944 7.776 0 11.248 0c2.528 0 3.712 1.712 3.84 3.2h-2.16c-.112-.96-.88-1.52-1.824-1.52-1.456 0-2.352 1.376-2.352 3.536zm2.256 5.136c1.2 0 2.08-.896 2.08-2.304 0-1.36-.88-2.256-2.08-2.256-1.216 0-2.128.896-2.128 2.256 0 1.392.912 2.304 2.128 2.304z" transform="translate(0 10)"/>
          <use id="pet-seat-icon-seatnumber_16" xlink:href="#pet-seat-icon" transform="translate(0 -12)"/>
        </g>
      </g>
      <g id="seat_15" transform="translate(429 163)">
        <path d="M41 .5c.966 0 1.841.392 2.475 1.025A3.489 3.489 0 0144.5 4h0v35c0 .966-.392 1.841-1.025 2.475A3.489 3.489 0 0141 42.5h0H.5V.5z" id="seat_15_shape" stroke="#1B50AF" fill="#FFF"/>
        <path id="Line" stroke="#1B50AF" fill="#FFF" stroke-linecap="square" d="M9.5.5v42.012"/>
        <g id="seatnumber_15" transform="translate(19.064 16.6)" fill="#1B50AF">
          <path d="M2.496 11.6V2.928H0V1.424C1.68 1.376 2.464 1.264 3.024 0h1.68v11.6H2.496zm10.496-3.808c0-1.584-1.072-2.368-2.144-2.368-1.024 0-1.76.512-1.984 1.056l-2.016-.096L7.616 0h7.152v1.856H9.424l-.32 2.48c.48-.352 1.232-.64 2.304-.64 1.984 0 3.824 1.408 3.824 4.08 0 2.56-1.984 4.032-4.368 4.032-2.72 0-4.16-1.856-4.288-3.856h2.08c.128 1.2.816 2.192 2.24 2.192 1.216 0 2.096-.88 2.096-2.352z"/>
        </g>
        <g id="seatnumber_15-with-service-icon" transform="translate(19.064 16.6)">
          <path d="M2.496 11.6V2.928H0V1.424C1.68 1.376 2.464 1.264 3.024 0h1.68v11.6H2.496zm10.496-3.808c0-1.584-1.072-2.368-2.144-2.368-1.024 0-1.76.512-1.984 1.056l-2.016-.096L7.616 0h7.152v1.856H9.424l-.32 2.48c.48-.352 1.232-.64 2.304-.64 1.984 0 3.824 1.408 3.824 4.08 0 2.56-1.984 4.032-4.368 4.032-2.72 0-4.16-1.856-4.288-3.856h2.08c.128 1.2.816 2.192 2.24 2.192 1.216 0 2.096-.88 2.096-2.352z" transform="translate(0 10)"/>
          <use id="pet-seat-icon-seatnumber_15" xlink:href="#pet-seat-icon" transform="translate(0 -12)"/>
        </g>
      </g>
      <g id="seat_14" transform="translate(429 44)">
        <path d="M41 .5c.966 0 1.841.392 2.475 1.025A3.489 3.489 0 0144.5 4h0v35c0 .966-.392 1.841-1.025 2.475A3.489 3.489 0 0141 42.5h0H.5V.5z" id="seat_14_shape" stroke="#1B50AF" fill="#FFF"/>
        <path id="Line" stroke="#1B50AF" fill="#FFF" stroke-linecap="square" d="M9.5.5v42.012"/>
        <g id="seatnumber_14" transform="translate(18.976 16.6)" fill="#1B50AF">
          <path d="M2.496 11.6V2.928H0V1.424C1.68 1.376 2.464 1.264 3.024 0h1.68v11.6H2.496zm13.44-2.784h-1.984V11.6H11.76V8.816H6.032V7.088L11.792 0h2.16v6.944h1.984v1.872zM8.448 6.944h3.312V2.8L8.448 6.944z"/>
        </g>
        <g id="seatnumber_14-with-service-icon" transform="translate(18.976 16.6)">
          <path d="M2.496 11.6V2.928H0V1.424C1.68 1.376 2.464 1.264 3.024 0h1.68v11.6H2.496zm13.44-2.784h-1.984V11.6H11.76V8.816H6.032V7.088L11.792 0h2.16v6.944h1.984v1.872zM8.448 6.944h3.312V2.8L8.448 6.944z" transform="translate(0 10)"/>
          <use id="pet-seat-icon-seatnumber_14" xlink:href="#pet-seat-icon" transform="translate(0 -12)"/>
        </g>
      </g>
      <g id="seat_13" transform="translate(429 1)">
        <path d="M41 .5c.966 0 1.841.392 2.475 1.025A3.489 3.489 0 0144.5 4h0v35c0 .966-.392 1.841-1.025 2.475A3.489 3.489 0 0141 42.5h0H.5V.5z" id="seat_13_shape" stroke="#1B50AF" fill="#FFF"/>
        <path id="Line" stroke="#1B50AF" fill="#FFF" stroke-linecap="square" d="M9.5.5v42.012"/>
        <g id="seatnumber_13" transform="translate(19.136 16.392)" fill="#1B50AF">
          <path d="M2.496 11.808V3.136H0V1.632c1.68-.048 2.464-.16 3.024-1.424h1.68v11.6H2.496zm10.368-3.264c0-1.36-1.264-1.904-2.912-1.904h-.464V4.912h.384c1.664 0 2.704-.608 2.704-1.696 0-1.008-.88-1.552-1.84-1.552-1.328 0-2.176.848-2.288 2.048H6.352C6.608 1.408 8.208 0 10.864 0 12.8 0 14.8.928 14.8 3.12c0 1.12-.688 2.064-1.568 2.544a3.035 3.035 0 011.872 2.816c0 2.352-2.032 3.536-4.48 3.536-2.656 0-4.224-1.728-4.368-3.856h2.08c.16 1.168.912 2.192 2.352 2.192 1.2 0 2.176-.72 2.176-1.808z"/>
        </g>
        <g id="seatnumber_13-with-service-icon" transform="translate(19.136 16.392)">
          <path d="M2.496 11.808V3.136H0V1.632c1.68-.048 2.464-.16 3.024-1.424h1.68v11.6H2.496zm10.368-3.264c0-1.36-1.264-1.904-2.912-1.904h-.464V4.912h.384c1.664 0 2.704-.608 2.704-1.696 0-1.008-.88-1.552-1.84-1.552-1.328 0-2.176.848-2.288 2.048H6.352C6.608 1.408 8.208 0 10.864 0 12.8 0 14.8.928 14.8 3.12c0 1.12-.688 2.064-1.568 2.544a3.035 3.035 0 011.872 2.816c0 2.352-2.032 3.536-4.48 3.536-2.656 0-4.224-1.728-4.368-3.856h2.08c.16 1.168.912 2.192 2.352 2.192 1.2 0 2.176-.72 2.176-1.808z" transform="translate(0 10)"/>
          <use id="pet-seat-icon-seatnumber_13" xlink:href="#pet-seat-icon" transform="translate(0 -12)"/>
        </g>
      </g>
      <g id="seat_12" transform="translate(373 120)">
        <path d="M41 .5c.966 0 1.841.392 2.475 1.025A3.489 3.489 0 0144.5 4h0v35c0 .966-.392 1.841-1.025 2.475A3.489 3.489 0 0141 42.5h0H.5V.5z" id="seat_12_shape" stroke="#1B50AF" fill="#FFF"/>
        <path id="Line" stroke="#1B50AF" fill="#FFF" stroke-linecap="square" d="M9.5.5v42.012"/>
        <g id="seatnumber_12" transform="translate(19.416 16.392)" fill="#1B50AF">
          <path d="M2.496 11.808V3.136H0V1.632c1.68-.048 2.464-.16 3.024-1.424h1.68v11.6H2.496zM14.528 3.12c0 2.176-2.112 4.448-5.68 6.832H14.8v1.856H6.272v-1.792C10 7.008 12.304 5.072 12.304 3.232c0-1.008-.64-1.6-1.712-1.6-.976 0-1.968.592-1.968 2.32H6.48C6.448 1.552 8.144 0 10.72 0c2.32 0 3.808 1.104 3.808 3.12z"/>
        </g>
        <g id="seatnumber_12-with-service-icon" transform="translate(19.416 16.392)">
          <path d="M2.496 11.808V3.136H0V1.632c1.68-.048 2.464-.16 3.024-1.424h1.68v11.6H2.496zM14.528 3.12c0 2.176-2.112 4.448-5.68 6.832H14.8v1.856H6.272v-1.792C10 7.008 12.304 5.072 12.304 3.232c0-1.008-.64-1.6-1.712-1.6-.976 0-1.968.592-1.968 2.32H6.48C6.448 1.552 8.144 0 10.72 0c2.32 0 3.808 1.104 3.808 3.12z" transform="translate(0 10)"/>
          <use id="pet-seat-icon-seatnumber_12" xlink:href="#pet-seat-icon" transform="translate(0 -12)"/>
        </g>
      </g>
      <g id="seat_11" transform="translate(373 163)">
        <path d="M41 .5c.966 0 1.841.392 2.475 1.025A3.489 3.489 0 0144.5 4h0v35c0 .966-.392 1.841-1.025 2.475A3.489 3.489 0 0141 42.5h0H.5V.5z" id="seat_11_shape" stroke="#1B50AF" fill="#FFF"/>
        <path id="Line" stroke="#1B50AF" fill="#FFF" stroke-linecap="square" d="M9.5.5v42.012"/>
        <g id="seatnumber_11" transform="translate(21.096 16.6)" fill="#1B50AF">
          <path d="M2.496 11.6V2.928H0V1.424C1.68 1.376 2.464 1.264 3.024 0h1.68v11.6H2.496zm5.904 0V2.928H5.904V1.424c1.68-.048 2.464-.16 3.024-1.424h1.68v11.6H8.4z"/>
        </g>
        <g id="seatnumber_11-with-service-icon" transform="translate(21.096 16.6)">
          <path d="M2.496 11.6V2.928H0V1.424C1.68 1.376 2.464 1.264 3.024 0h1.68v11.6H2.496zm5.904 0V2.928H5.904V1.424c1.68-.048 2.464-.16 3.024-1.424h1.68v11.6H8.4z" transform="translate(0 10)"/>
          <use id="pet-seat-icon-seatnumber_11" xlink:href="#pet-seat-icon" transform="translate(0 -12)"/>
        </g>
      </g>
      <g id="seat_10" transform="translate(373 44)">
        <path d="M41 .5c.966 0 1.841.392 2.475 1.025A3.489 3.489 0 0144.5 4h0v35c0 .966-.392 1.841-1.025 2.475A3.489 3.489 0 0141 42.5h0H.5V.5z" id="seat_10_shape" stroke="#1B50AF" fill="#FFF"/>
        <path id="Line" stroke="#1B50AF" fill="#FFF" stroke-linecap="square" d="M9.5.5v42.012"/>
        <g id="seatnumber_10" transform="translate(18.744 16.392)" fill="#1B50AF">
          <path d="M2.496 11.808V3.136H0V1.632c1.68-.048 2.464-.16 3.024-1.424h1.68v11.6H2.496zm4.048-5.824C6.544 2.464 8.112 0 11.216 0c3.088 0 4.656 2.464 4.656 5.984 0 3.536-1.568 6.032-4.656 6.032-3.104 0-4.672-2.496-4.672-6.032zm7.072 0c0-2.768-.832-4.32-2.4-4.32S8.8 3.216 8.8 5.984c0 2.784.848 4.368 2.416 4.368s2.4-1.584 2.4-4.368z"/>
        </g>
        <g id="seatnumber_10-with-service-icon" transform="translate(18.744 16.392)">
          <path d="M2.496 11.808V3.136H0V1.632c1.68-.048 2.464-.16 3.024-1.424h1.68v11.6H2.496zm4.048-5.824C6.544 2.464 8.112 0 11.216 0c3.088 0 4.656 2.464 4.656 5.984 0 3.536-1.568 6.032-4.656 6.032-3.104 0-4.672-2.496-4.672-6.032zm7.072 0c0-2.768-.832-4.32-2.4-4.32S8.8 3.216 8.8 5.984c0 2.784.848 4.368 2.416 4.368s2.4-1.584 2.4-4.368z" transform="translate(0 10)"/>
          <use id="pet-seat-icon-seatnumber_10" xlink:href="#pet-seat-icon" transform="translate(0 -12)"/>
        </g>
      </g>
      <g id="seat_9" transform="translate(373 1)">
        <path d="M41 .5c.966 0 1.841.392 2.475 1.025A3.489 3.489 0 0144.5 4h0v35c0 .966-.392 1.841-1.025 2.475A3.489 3.489 0 0141 42.5h0H.5V.5z" id="seat_9_shape" stroke="#1B50AF" fill="#FFF"/>
        <path id="Line" stroke="#1B50AF" fill="#FFF" stroke-linecap="square" d="M9.5.5v42.012"/>
        <g id="seatnumber_9" transform="translate(22.552 16.392)" fill="#1B50AF">
          <path d="M6.576 6.8c-.496.624-1.424 1.104-2.656 1.104C1.792 7.904 0 6.432 0 3.936 0 1.552 1.808 0 4.32 0c3.104 0 4.464 2.496 4.464 5.744 0 3.328-1.248 6.272-4.704 6.272-2.528 0-3.712-1.728-3.84-3.2H2.4c.112.96.864 1.504 1.824 1.504 1.456 0 2.352-1.376 2.352-3.52zM4.32 1.68c-1.2 0-2.08.88-2.08 2.272 0 1.36.88 2.256 2.08 2.256 1.2 0 2.112-.896 2.112-2.256 0-1.376-.912-2.272-2.112-2.272z"/>
        </g>
        <g id="seatnumber_9-with-service-icon" transform="translate(22.552 16.392)">
          <path d="M6.576 6.8c-.496.624-1.424 1.104-2.656 1.104C1.792 7.904 0 6.432 0 3.936 0 1.552 1.808 0 4.32 0c3.104 0 4.464 2.496 4.464 5.744 0 3.328-1.248 6.272-4.704 6.272-2.528 0-3.712-1.728-3.84-3.2H2.4c.112.96.864 1.504 1.824 1.504 1.456 0 2.352-1.376 2.352-3.52zM4.32 1.68c-1.2 0-2.08.88-2.08 2.272 0 1.36.88 2.256 2.08 2.256 1.2 0 2.112-.896 2.112-2.256 0-1.376-.912-2.272-2.112-2.272z" transform="translate(0 10)"/>
          <use id="pet-seat-icon-seatnumber_9" xlink:href="#pet-seat-icon" transform="translate(0 -12)"/>
        </g>
      </g>
      <g id="seat_4" transform="translate(0 158)">
        <path d="M41 .5c.966 0 1.841.392 2.475 1.025A3.489 3.489 0 0144.5 4h0v44c0 .966-.392 1.841-1.025 2.475A3.489 3.489 0 0141 51.5h0H.5V.5z" id="seat_4_shape" stroke="#1B50AF" fill="#FFF"/>
        <path id="Line" stroke="#1B50AF" stroke-linecap="square" d="M9.5.5v51.012"/>
        <g id="seatnumber_4" transform="translate(21 21)" fill="#1B50AF">
          <path d="M7.92 0v6.944h1.984v1.872H7.92V11.6H5.728V8.816H0V7.088L5.76 0h2.16zM5.728 2.8L2.416 6.944h3.312V2.8z"/>
        </g>
        <g id="seatnumber_4-with-service-icon" transform="translate(21 21)">
          <path d="M7.92 0v6.944h1.984v1.872H7.92V11.6H5.728V8.816H0V7.088L5.76 0h2.16zM5.728 2.8L2.416 6.944h3.312V2.8z" transform="translate(0 10)"/>
          <use id="pet-seat-icon-seatnumber_4" xlink:href="#pet-seat-icon" transform="translate(0 -12)"/>
        </g>
      </g>
      <g id="seat_3" transform="translate(0 100)">
        <path d="M15.765 7.22l35.121 17.626a3.496 3.496 0 011.905 3.546h0l-2.616 21.751a3.497 3.497 0 01-2.336 2.892h0L9.293 66.307 15.765 7.22z" id="seat_3_shape" stroke="#1B50AF" fill="#FFF" transform="rotate(19 31.013 36.743)"/>
        <path id="Line" stroke="#1B50AF" stroke-linecap="square" d="M31.75 9.563L9.841 57.856"/>
        <g id="seatnumber_3" transform="translate(29 33)" fill="#1B50AF">
          <path d="M6.608 8.544c0-1.36-1.264-1.904-2.912-1.904h-.464V4.912h.384c1.664 0 2.704-.608 2.704-1.696 0-1.008-.88-1.552-1.84-1.552-1.328 0-2.176.848-2.288 2.048H.096C.352 1.408 1.952 0 4.608 0c1.936 0 3.936.928 3.936 3.12 0 1.12-.688 2.064-1.568 2.544A3.035 3.035 0 018.848 8.48c0 2.352-2.032 3.536-4.48 3.536C1.712 12.016.144 10.288 0 8.16h2.08c.16 1.168.912 2.192 2.352 2.192 1.2 0 2.176-.72 2.176-1.808z"/>
        </g>
        <g id="seatnumber_3-with-service-icon" transform="translate(29 33)">
          <path d="M6.608 8.544c0-1.36-1.264-1.904-2.912-1.904h-.464V4.912h.384c1.664 0 2.704-.608 2.704-1.696 0-1.008-.88-1.552-1.84-1.552-1.328 0-2.176.848-2.288 2.048H.096C.352 1.408 1.952 0 4.608 0c1.936 0 3.936.928 3.936 3.12 0 1.12-.688 2.064-1.568 2.544A3.035 3.035 0 018.848 8.48c0 2.352-2.032 3.536-4.48 3.536C1.712 12.016.144 10.288 0 8.16h2.08c.16 1.168.912 2.192 2.352 2.192 1.2 0 2.176-.72 2.176-1.808z" transform="translate(0 10)"/>
          <use id="pet-seat-icon-seatnumber_3" xlink:href="#pet-seat-icon" transform="translate(0 -12)"/>
        </g>
      </g>
      <g id="seat_2" transform="translate(24 76)">
        <path d="M18.127.55l39.808 8.47c.827.176 1.531.634 2.023 1.26.492.625.772 1.418.748 2.262h0l-.945 33.536a3.497 3.497 0 01-2.158 3.134h0L20.814 64.473 18.127.551z" id="seat_2_shape" stroke="#1B50AF" fill="#FFF" transform="rotate(68 39.404 32.568)"/>
        <path id="Line" stroke="#1B50AF" stroke-linecap="square" d="M8.5 32.5l54-23"/>
        <g id="seatnumber_2" transform="translate(38 29)" fill="#1B50AF">
          <path d="M8.256 3.12c0 2.176-2.112 4.448-5.68 6.832h5.952v1.856H0v-1.792c3.728-3.008 6.032-4.944 6.032-6.784 0-1.008-.64-1.6-1.712-1.6-.976 0-1.968.592-1.968 2.32H.208C.176 1.552 1.872 0 4.448 0c2.32 0 3.808 1.104 3.808 3.12z"/>
        </g>
        <g id="seatnumber_2-with-service-icon" transform="translate(38 29)">
          <path d="M8.256 3.12c0 2.176-2.112 4.448-5.68 6.832h5.952v1.856H0v-1.792c3.728-3.008 6.032-4.944 6.032-6.784 0-1.008-.64-1.6-1.712-1.6-.976 0-1.968.592-1.968 2.32H.208C.176 1.552 1.872 0 4.448 0c2.32 0 3.808 1.104 3.808 3.12z" transform="translate(0 10)"/>
          <use id="pet-seat-icon-seatnumber_2" xlink:href="#pet-seat-icon" transform="translate(0 -12)"/>
        </g>
      </g>
      <g id="seat_1" transform="translate(71 69)">
        <path d="M51.556-.248a3.49 3.49 0 012.547.646 3.49 3.49 0 011.38 2.234h0l6.879 40.397a3.496 3.496 0 01-1.598 3.557h0L26.757 67.8l-6.79-63.704z" id="seat_1_shape" stroke="#1B50AF" fill="#FFF" transform="rotate(112 41.165 33.933)"/>
        <path id="Line" stroke="#1B50AF" stroke-linecap="square" d="M16.5 15.5l58 16"/>
        <g id="seatnumber_1" transform="translate(40 33)" fill="#1B50AF">
          <path d="M2.496 11.6V2.928H0V1.424C1.68 1.376 2.464 1.264 3.024 0h1.68v11.6H2.496z"/>
        </g>
        <g id="seatnumber_1-with-service-icon" transform="translate(40 33)">
          <path d="M2.496 11.6V2.928H0V1.424C1.68 1.376 2.464 1.264 3.024 0h1.68v11.6H2.496z" transform="translate(0 10)"/>
          <use id="pet-seat-icon-seatnumber_1" xlink:href="#pet-seat-icon" transform="translate(0 -12)"/>
        </g>
      </g>
    </g>
    <g id="Dynamic-service-areas" transform="translate(474 80)">
      <g id="servicearea_53-64" transform="translate(893)">
        <path d="M0 0h178v78H0z"/>
      </g>
      <g id="servicearea_9-35">
        <path d="M0 0h470v78H0z"/>
      </g>
    </g>
    <g id="Service-badges" transform="translate(170 13)">
      <g id="service-badge" transform="translate(123 153)">
        <circle stroke="#fff" stroke-width="2" fill="#f2f2f2" cx="29" cy="29" r="28"/>
        <g id="Icon" transform="translate(17 17)">
          <path d="M0 24h24V0H0z"/>
          <path d="M6.955 15.5l1.89-2.648.8 2.648h-2.69zm2.795-7c.69 0 1.25-.56 1.25-1.25V6.5H4.5v.75c0 .69.56 1.25 1.25 1.25h1.036a.998.998 0 01.957.71l.37 1.225-2.786 3.903a1.97 1.97 0 00-.181 2.01c.18.384.481.71.867.916.232.123.494.203.78.224a2.478 2.478 0 01-1.354 1.328 2.499 2.499 0 01-1.42.137 2.484 2.484 0 01-1.29-.685 2.506 2.506 0 01.1-3.629c.244-.218.531-.389.846-.499.186-.065.348-.172.478-.308.216-.228.343-.536.343-.863v-.967a4.464 4.464 0 00-1.997.467c-.426.212-.83.495-1.183.849a4.505 4.505 0 001.088 7.166 4.512 4.512 0 005.276-.802A4.473 4.473 0 008.88 17.5h1.913a1.998 1.998 0 001.632-.843l4.258-6.011 1.502 4.966a1.273 1.273 0 00.451.641c.211.157.47.247.746.247h1.161l-.746-2.47c.154.019.304.052.45.097.2.063.386.158.562.267.258.159.483.362.667.6.323.419.523.936.523 1.506 0 1.378-1.122 2.5-2.5 2.5a2.503 2.503 0 01-2.362-1.679 1.237 1.237 0 00-1.171-.821H15a4.507 4.507 0 004.5 4.5c2.481 0 4.5-2.018 4.5-4.5S21.98 12 19.5 12c-.105 0-.209.008-.312.014l-2.081-6.882A3 3 0 0014.235 3H12v.75c0 .69.56 1.25 1.25 1.25h.985a1 1 0 01.957.71l.759 2.509-4.508 6.317-1.786-5.904a.844.844 0 00-.051-.132h.144z" fill="#1b50af"/>
        </g>
      </g>
      <g id="service-badge" transform="translate(0 138)">
        <circle stroke="#fff" stroke-width="2" fill="#f2f2f2" cx="29" cy="29" r="28"/>
        <g id="Icon" transform="translate(17 17)">
          <path d="M0 24h24V0H0z"/>
          <path d="M12.504 12.008a1.75 1.75 0 100-3.499 1.75 1.75 0 000 3.5zM7.868 9.5h1.033c.59 0 1.1-.412 1.223-.99l.06-.288c.158-.734.083-1.515-.284-2.171A2.996 2.996 0 007.272 4.5H3.226A2.996 2.996 0 00.597 6.051C.23 6.706.156 7.487.312 8.222l1.258 5.902A3.016 3.016 0 004.44 16.5h.064v6.251c0 .69.56 1.25 1.25 1.25h.75v-7.5a2 2 0 00-2.014-2 .99.99 0 01-.964-.792l-1.278-6a.996.996 0 01.2-.838.995.995 0 01.778-.37h4.046a.996.996 0 01.978 1.208L7.868 9.5zm-2.37-6a1.75 1.75 0 100-3.5 1.75 1.75 0 000 3.5zm17.99 11.278l-1.683-7.903A3.014 3.014 0 0018.87 4.5h-.732a3.014 3.014 0 00-2.935 2.375l-.237 1.114A1.25 1.25 0 0016.188 9.5h.5l.472-2.208a1 1 0 01.978-.792h.732a1 1 0 01.978.792l1.705 8a.994.994 0 01-.2.837.997.997 0 01-.778.371h-1.071a2 2 0 00-2 2V24h.75c.69 0 1.25-.56 1.25-1.25V18.5h1.071a2.996 2.996 0 002.629-1.552c.366-.656.44-1.436.285-2.17zM18.505 3.5a1.75 1.75 0 100-3.5 1.75 1.75 0 000 3.5zm-5 9.5h-2a3 3 0 00-3 3v2a3 3 0 003 3v1.75c0 .69.56 1.25 1.25 1.25h.75v-3a2 2 0 00-2-2 1 1 0 01-1-1v-2a1 1 0 011-1h2a1 1 0 011 1v2.009h.75c.69 0 1.25-.56 1.25-1.25V16a3 3 0 00-3-3z" fill="#1b50af"/>
        </g>
      </g>
      <g id="service-badge" transform="translate(197)">
        <circle stroke="#fff" stroke-width="2" fill="#f2f2f2" cx="29" cy="29" r="28"/>
        <g id="Icon/Service/Luggage" transform="translate(17 17)">
          <path d="M0 0h24v24H0z"/>
          <path d="M10 4.25V4a1 1 0 011-1h2a1 1 0 011 1v.25c0 .69.56 1.25 1.25 1.25H16V4a3 3 0 00-3-3h-2a3 3 0 00-3 3v1.5h.75c.69 0 1.25-.56 1.25-1.25zM22 18c0 .552-.448 1-1 1h-3V9.5h-.75c-.69 0-1.25.56-1.25 1.25V19H8v-8.25c0-.69-.56-1.25-1.25-1.25H6V19H3c-.551 0-1-.448-1-1V9.5c0-.552.449-1 1-1h18c.552 0 1 .448 1 1V18zM21 6.5H3c-1.655 0-3 1.346-3 3V18c0 1.654 1.345 3 3 3h1v.75c0 .69.56 1.25 1.25 1.25H6v-2h12v2h.75c.69 0 1.25-.56 1.25-1.25V21h1c1.654 0 3-1.346 3-3V9.5c0-1.654-1.346-3-3-3z" fill="#1b50af"/>
        </g>
      </g>
      <g id="service-badge" transform="translate(185 153)">
        <circle stroke="#fff" stroke-width="2" fill="#f2f2f2" cx="29" cy="29" r="28"/>
        <g id="Icon" transform="translate(17 17)">
          <path d="M0 24h24V0H0z"/>
          <path d="M9.448 11.527c.128-.27.128-.583 0-.854L7.655 6.875a4.014 4.014 0 01-.336-1.101L7.074 4.18 8.15 5.382c.257.288.471.611.636.96l1.555 3.294.905-1.916a1 1 0 000-.853l-.652-1.38a6.017 6.017 0 00-.954-1.439L6.32.337c-.663-.742-1.884-.165-1.734.818l.756 4.923c.088.571.258 1.127.505 1.65l2.697 5.715.904-1.916zm6.008 4.259L14.55 17.7a1 1 0 000 .854l1.374 2.91-1.13.535-1.136-2.407-.905 1.915c-.127.27-.127.584 0 .854l.232.491a2 2 0 002.662.955l1.131-.534a2 2 0 00.954-2.662l-2.277-4.826zM16.68 5.775a4.011 4.011 0 01-.336 1.1L9.205 22l-1.13-.535 7.139-15.123c.164-.349.378-.672.636-.96l1.075-1.202-.245 1.595zM17.68.337l-3.32 3.711a6.017 6.017 0 00-.954 1.44L6.266 20.611a2 2 0 00.955 2.663l1.13.533a2 2 0 002.662-.955l7.14-15.125a6.005 6.005 0 00.505-1.65l.755-4.923c.15-.983-1.07-1.56-1.734-.818zM22.75 20h-.25V0h-.75c-.69 0-1.25.56-1.25 1.25V20h-.25c-.69 0-1.25.56-1.25 1.25V22h1.5v2h.75c.69 0 1.25-.56 1.25-1.25V22H24v-.75c0-.69-.56-1.25-1.25-1.25zm-19 0H3.5V1.25C3.5.56 2.94 0 2.25 0H1.5v20h-.25C.56 20 0 20.56 0 21.25V22h1.5v.75c0 .69.56 1.25 1.25 1.25h.75v-2H5v-.75C5 20.56 4.44 20 3.75 20z" fill="#1b50af"/>
        </g>
      </g>
      <g id="service-badge" transform="translate(788 5)">
        <circle stroke="#fff" stroke-width="2" fill="#f2f2f2" cx="29" cy="29" r="28"/>
        <g id="Icon/Service/Luggage" transform="translate(17 17)">
          <path d="M0 0h24v24H0z"/>
          <path d="M10 4.25V4a1 1 0 011-1h2a1 1 0 011 1v.25c0 .69.56 1.25 1.25 1.25H16V4a3 3 0 00-3-3h-2a3 3 0 00-3 3v1.5h.75c.69 0 1.25-.56 1.25-1.25zM22 18c0 .552-.448 1-1 1h-3V9.5h-.75c-.69 0-1.25.56-1.25 1.25V19H8v-8.25c0-.69-.56-1.25-1.25-1.25H6V19H3c-.551 0-1-.448-1-1V9.5c0-.552.449-1 1-1h18c.552 0 1 .448 1 1V18zM21 6.5H3c-1.655 0-3 1.346-3 3V18c0 1.654 1.345 3 3 3h1v.75c0 .69.56 1.25 1.25 1.25H6v-2h12v2h.75c.69 0 1.25-.56 1.25-1.25V21h1c1.654 0 3-1.346 3-3V9.5c0-1.654-1.346-3-3-3z" fill="#1b50af"/>
        </g>
      </g>
      <g id="service-badge" transform="translate(1075 148)">
        <circle stroke="#fff" stroke-width="2" fill="#f2f2f2" cx="29" cy="29" r="28"/>
        <g id="Icon/Service/Luggage" transform="translate(17 17)">
          <path d="M0 0h24v24H0z"/>
          <path d="M10 4.25V4a1 1 0 011-1h2a1 1 0 011 1v.25c0 .69.56 1.25 1.25 1.25H16V4a3 3 0 00-3-3h-2a3 3 0 00-3 3v1.5h.75c.69 0 1.25-.56 1.25-1.25zM22 18c0 .552-.448 1-1 1h-3V9.5h-.75c-.69 0-1.25.56-1.25 1.25V19H8v-8.25c0-.69-.56-1.25-1.25-1.25H6V19H3c-.551 0-1-.448-1-1V9.5c0-.552.449-1 1-1h18c.552 0 1 .448 1 1V18zM21 6.5H3c-1.655 0-3 1.346-3 3V18c0 1.654 1.345 3 3 3h1v.75c0 .69.56 1.25 1.25 1.25H6v-2h12v2h.75c.69 0 1.25-.56 1.25-1.25V21h1c1.654 0 3-1.346 3-3V9.5c0-1.654-1.346-3-3-3z" fill="#1b50af"/>
        </g>
      </g>
      <g id="service-badge" transform="translate(879)">
        <circle stroke="#fff" stroke-width="2" fill="#f2f2f2" cx="29" cy="29" r="28"/>
        <g id="Icon" transform="translate(17 17)">
          <path d="M0 0h24v24H0z"/>
          <path d="M11.965 13.038l.53-.53-1.98-1.981.329-2.404a3.015 3.015 0 00-1.956-3.229l-.855-.308a3.015 3.015 0 00-3.566 1.24L.453 12.291a2.988 2.988 0 00-.286 2.568c.3.86.961 1.529 1.817 1.837l1.516.546v5.008c0 .69.56 1.25 1.25 1.25h.75v-6.258a2 2 0 00-1.323-1.882l-1.515-.546a.993.993 0 01-.605-.612.995.995 0 01.095-.856l4.014-6.465a1.007 1.007 0 011.188-.413l.856.308c.441.159.716.611.652 1.076l-.328 2.404a2.01 2.01 0 00.567 1.685l1.097 1.097a1.25 1.25 0 001.767 0zM14 11.34v1.16a2 2 0 002 2h1.5a2 2 0 002-2v-1.25c0-.69-.56-1.25-1.25-1.25h-.75v2.5H16v-1.159c0-.53-.211-1.039-.586-1.415l-1.541-1.54-.53.53a1.25 1.25 0 000 1.768l.657.656zm8.75 4.16h-11c-.69 0-1.25.56-1.25 1.25v.75H24v-.75c0-.69-.56-1.25-1.25-1.25zm-.5-1a1.75 1.75 0 100-3.5 1.75 1.75 0 000 3.5zM9.13 3.888A1.75 1.75 0 1010.363.612 1.75 1.75 0 009.13 3.888z" fill="#1b50af"/>
        </g>
      </g>
      <g id="service-badge" transform="translate(879 62)">
        <circle stroke="#fff" stroke-width="2" fill="#f2f2f2" cx="29" cy="29" r="28"/>
        <g id="Icon" transform="translate(17 17)">
          <path d="M0 0h24v24H0z"/>
          <path d="M22.727 4.856c-.064.297-.166.524-.308.679-.143.156-.352.234-.63.234-.287 0-.51-.096-.668-.29-.157-.192-.236-.55-.236-1.07 0-.42.066-.73.198-.925a.852.852 0 01.757-.397c.145 0 .276.03.394.09.117.06.216.145.298.256.049.066.096.17.141.314l1.282-.285c-.164-.496-.416-.864-.755-1.103-.338-.24-.803-.359-1.395-.359-.756 0-1.341.209-1.755.627-.414.417-.62 1.014-.62 1.792 0 .583.117 1.06.352 1.434.235.374.515.635.838.784.324.148.741.222 1.252.222.42 0 .768-.061 1.04-.183s.5-.302.684-.541c.183-.24.319-.538.404-.894l-1.273-.385zm-5.358-.149L16.64 2.08h-1.374l-.727 2.63-.496-2.63h-1.38l1.046 4.699h1.424l.82-2.958.825 2.958h1.424l1.035-4.699h-1.371l-.497 2.627zM8 5.5A1.75 1.75 0 108 2a1.75 1.75 0 000 3.5zm2.63 9H7.486a1 1 0 01-.978-.791l-.851-4.001a.994.994 0 01.201-.837.997.997 0 01.777-.371h.95c.472 0 .88.33.979.792l.072.335A3 3 0 0011.57 12h1.93v-.75c0-.69-.56-1.25-1.25-1.25h-.68a1 1 0 01-.978-.79l-.072-.338A3 3 0 007.586 6.5h-.951a2.996 2.996 0 00-2.629 1.552c-.367.655-.44 1.436-.285 2.17l.046.213A6 6 0 000 16c0 3.308 2.692 6 6 6a5.98 5.98 0 004.674-2.259l-.701-.56c-.459-.367-1.099-.351-1.566.005C7.739 19.696 6.906 20 6 20c-2.205 0-4-1.794-4-4 0-1.528.874-2.887 2.194-3.557l.359 1.682A3 3 0 007.487 16.5h3.142a1 1 0 01.976.783l.832 3.738a1.25 1.25 0 001.22.979h1.054l-1.154-5.151A2.98 2.98 0 0010.63 14.5z" fill="#1b50af"/>
        </g>
      </g>
    </g>
  </g>
</svg>
