<svg viewBox="0 0 1586 237"
  xmlns="http://www.w3.org/2000/svg"
  xmlns:xlink="http://www.w3.org/1999/xlink"
  xmlns:vr="http://vr/wagonmap" preserveAspectRatio="xMinYMin meet">
  <defs>
    <svg id="pet-seat-icon" viewBox="0 0 620 620"
      xmlns="http://www.w3.org/2000/svg" preserveAspectRatio="xMinYMin meet">
      <g fill-rule="evenodd">
        <path d="M42.2 15.868a2.013 2.013 0 01-.716.132H27.548a2 2 0 01-1.02-.279l-7.883-4.669-2.736-6.519A2.5 2.5 0 0013.604 3h-2.676l1.26 3h-1.204a6 6 0 00-6 6v.099l-3.699 1.416a2 2 0 00-1.152 2.584l1.263 3.274A6 6 0 006.906 23h3.078v4.388c0 1.256.395 2.481 1.127 3.501l1.873 2.606V45h1.5a2.5 2.5 0 002.5-2.5v-9.004c0-.837-.263-1.654-.752-2.334l-1.87-2.606a2.002 2.002 0 01-.378-1.169V23a4 4 0 00-4-4H6.906a2 2 0 01-1.867-1.284l-.454-1.18 1.64-.627c1.581-.606 2.787-2.116 2.76-3.81V12c-.019-1.12.883-1.997 2-1.997h2.883l1.09 2.597a4.002 4.002 0 001.65 1.893l7.881 4.669a5.996 5.996 0 003.06.838h13.934c.735 0 1.462-.134 2.148-.397l2.748-1.053a2.5 2.5 0 001.605-2.334v-2.564L42.2 15.868zm4.067 8.562a2.499 2.499 0 00-3.228-1.44l-1.4.537 1.212 3.169c.088.228.133.471.133.715v17.584h1.5a2.5 2.5 0 002.5-2.5V27.41a6.01 6.01 0 00-.397-2.146l-.32-.834zm-9.445 4.117a4.001 4.001 0 00-4.668-1.384l-9.359 3.59a6.001 6.001 0 00-3.853 5.663L18.984 45l1.493-.007a2.501 2.501 0 002.488-2.52l-.023-6.097a2.005 2.005 0 011.288-1.889l9.356-3.589 3.016 4.153a2 2 0 01.382 1.175V45h1.5a2.5 2.5 0 002.5-2.5v-6.277c0-1.266-.4-2.5-1.145-3.524l-3.017-4.152z"/>
      </g>
    </svg>
  </defs>
  <g id="RX" stroke="none" stroke-width="1" fill="none" fill-rule="evenodd">
    <path fill="#FFF" d="M0 0h1586v237H0z"/>
    <g transform="translate(-1)">
      <g transform="translate(0 4.172)" fill="#F2F2F2">
        <path d="M0 147h78.596L139 158.308V227H20c-11.046 0-20-8.954-20-20v-60z"/>
        <path d="M1494 0l90 .335V80h-70c-11.046 0-20-8.954-20-20V0z" transform="rotate(180 1539 40)"/>
        <path d="M1313 45h123v181.38h-75v-78.288c-11.333-1.305-18.2-8.82-20.597-22.541-1.022-4.444-3.709-10.137-12.587-13.946-8.673-3.721-13.612-10.74-14.816-21.054V45z" transform="rotate(180 1374.5 135.69)"/>
        <path d="M0 1l139 .307V81H20C8.954 81 0 72.046 0 61V1z" transform="matrix(1 0 0 -1 0 82)"/>
      </g>
      <path fill="#DCDCDC" d="M138 5h3v81h-3zM138 161h3v69h-3z"/>
      <path fill="#DCDCDC" transform="rotate(90 71 84.864)" d="M69.494 15.864h3.012v138h-3.012z"/>
      <path fill="#DCDCDC" d="M141 161l-.52 2.967-62.222-10.954H2V150h77z"/>
      <path d="M1564 4.736H24c-5.945 0-11.33 2.517-15.227 6.597C4.901 15.387 2.5 20.987 2.5 27.175v181.122c0 6.188 2.4 11.788 6.273 15.842 3.897 4.08 9.282 6.597 15.227 6.597h1540c5.945 0 11.33-2.517 15.227-6.597 3.872-4.054 6.273-9.654 6.273-15.842V27.175c0-6.188-2.4-11.788-6.273-15.842-3.897-4.08-9.282-6.597-15.227-6.597z" stroke="#DFDFDF" stroke-width="3"/>
      <path d="M889 53h3v75.213l46.5 16.926 46.5-16.926V53h3v77l-48 17.776V230h-3v-82.223L889 130V53zM1019 53h3v75.213l46.5 16.926 46.5-16.926V53h3v77l-48 17.776V230h-3v-82.223L1019 130V53zM1149 53h3v75.213l46.5 16.926 46.5-16.926V53h3v77l-48 17.776V230h-3v-82.223L1149 130V53z" fill="#DFDFDF"/>
      <path d="M1116.419 127.698l1.026 2.819-48.864 17.785-.081-.223-.081.223-48.864-17.785 1.026-2.82 47.919 17.442 47.919-17.441zM1246.419 127.698l1.026 2.819-48.864 17.785-.081-.223-.081.223-48.864-17.785 1.026-2.82 47.919 17.442 47.919-17.441z" fill="#DFDFDF"/>
      <path fill="#DCDCDC" d="M1386 47.194h3v80.345h-3zM1312 50.207h3v180h-3z"/>
      <path fill="#DCDCDC" transform="rotate(90 1350 48.7)" d="M1348.494 10.7h3.012v76h-3.012z"/>
      <path fill="#DCDCDC" d="M1495 150h3v80h-3zM1495 6h3v80h-3z"/>
      <path fill="#DFDFDF" transform="rotate(90 1539.5 151.506)" d="M1537.994 107.006h3.012v89h-3.012z"/>
      <path fill="#DCDCDC" transform="rotate(90 1539.5 84.506)" d="M1537.994 40.006h3.012v89h-3.012z"/>
      <path d="M1436 230.108v-44.555c0-12.306-8.398-20.529-16.05-22.414-7.653-1.886-10.33-5.334-12.033-15.823-1.702-10.488-8.946-19.777-21.917-19.777" stroke="#DCDCDC" stroke-width="3"/>
      <g transform="translate(405 3.022)" fill="#F2F2F2" stroke="#DCDCDC" stroke-width="3">
        <path d="M72.5 1.5h-71v20.65c0 3.176 1.287 6.051 3.368 8.133A11.464 11.464 0 0013 33.65h48c3.176 0 6.05-1.287 8.132-3.368A11.464 11.464 0 0072.5 22.15V1.5z"/>
      </g>
      <path stroke="#DCDCDC" stroke-width="3" stroke-linecap="square" d="M823.5 124.5l-21-13"/>
      <path d="M624.071 83H823.5v147.55c-17.307 0-125.906.45-199.429.45V83z" stroke="#DCDCDC" stroke-width="3" fill="#F2F2F2"/>
      <g id="seats" transform="translate(141 6)" stroke-width="3">
        <g transform="translate(35 168)" fill="#D5E9CA" stroke="#D5E9CA">
          <circle cx="9.5" cy="9.5" r="9.5"/>
          <circle cx="47.5" cy="9.5" r="9.5"/>
          <circle cx="84.5" cy="9.5" r="9.5"/>
          <circle cx="122.5" cy="9.5" r="9.5"/>
          <circle cx="160.5" cy="9.5" r="9.5"/>
          <circle cx="197.5" cy="9.5" r="9.5"/>
          <circle cx="235.5" cy="9.5" r="9.5"/>
        </g>
        <path d="M118.5 1.5h-13V18c0 1.243.504 2.368 1.318 3.182A4.486 4.486 0 00110 22.5h4a4.486 4.486 0 003.182-1.318A4.486 4.486 0 00118.5 18V1.5zM221.5 1.5h-13V18c0 1.243.504 2.368 1.318 3.182A4.486 4.486 0 00213 22.5h4a4.486 4.486 0 003.182-1.318A4.486 4.486 0 00221.5 18V1.5zM15.5 1.5h-14v21H11a4.486 4.486 0 003.182-1.318A4.486 4.486 0 0015.5 18V1.5z" stroke="#E2D2BA" fill="#E2D2BA"/>
        <path d="M94.5 1.5h-68V12c0 .69.28 1.315.732 1.768A2.492 2.492 0 0029 14.5h63c.69 0 1.315-.28 1.768-.732A2.492 2.492 0 0094.5 12V1.5zM197.5 1.5h-68V12c0 .69.28 1.315.732 1.768A2.492 2.492 0 00132 14.5h63c.69 0 1.315-.28 1.768-.732A2.492 2.492 0 00197.5 12V1.5zM253.5 1.5h-21V12c0 .69.28 1.315.732 1.768A2.492 2.492 0 00235 14.5h16c.69 0 1.315-.28 1.768-.732A2.492 2.492 0 00253.5 12V1.5zM1.5 33.5v45H12c.69 0 1.315-.28 1.768-.732A2.492 2.492 0 0014.5 76V36c0-.69-.28-1.315-.732-1.768A2.492 2.492 0 0012 33.5H1.5z" stroke="#D5E9CA" fill="#D5E9CA"/>
        <ellipse stroke="#E2D2BA" fill="#E2D2BA" cx="120" cy="90.5" rx="60" ry="14.5"/>
        <ellipse stroke="#E2D2BA" fill="#E2D2BA" cx="236.5" cy="89.5" rx="23.5" ry="11.5"/>
        <path d="M425.53 79.5H381c-12.818 0-20.987 5.185-26.82 14.65-7.623 12.374-11.365 31.786-16.146 56.262l-.562 2.876c-3.4 17.38-6.669 28.526-9.575 35.672-1.895 4.661-3.657 7.665-5.205 9.609-2.603 3.27-4.745 3.8-6.145 3.91L1.5 201.506V222.5h338.303c14.358-63.192 22.6-100.45 24.723-111.776 1.424-7.598 4.268-11.988 7.68-14.577 4.786-3.633 10.827-3.71 16.21-3.647 5.723.067 18.197.045 30.906.023 5.334-.01 10.71-.019 15.646-.022h1.528c-.075-5.122-.803-8.36-2.34-10.33-1.833-2.354-4.804-2.671-8.627-2.671z" stroke="#E2D2BA" fill="#E2D2BA"/>
      </g>
      <g transform="translate(833 53)">
        <g transform="rotate(180 40.5 84)" stroke-width="3">
          <rect stroke="#D5E9CA" fill="#D5E9CA" x="58.5" y="1.5" width="21" height="69" rx="4"/>
          <rect stroke="#D5E9CA" fill="#D5E9CA" x="1.5" y="1.5" width="21" height="69" rx="4"/>
          <rect stroke="#E3D3BC" fill="#E3D3BC" x="29.5" y="1.5" width="22" height="77" rx="4"/>
        </g>
        <g transform="rotate(180 105.5 84)" stroke-width="3">
          <rect stroke="#D5E9CA" fill="#D5E9CA" x="58.5" y="1.5" width="21" height="69" rx="4"/>
          <rect stroke="#D5E9CA" fill="#D5E9CA" x="1.5" y="1.5" width="21" height="69" rx="4"/>
          <rect stroke="#E3D3BC" fill="#E3D3BC" x="29.5" y="1.5" width="22" height="77" rx="4"/>
        </g>
        <g transform="rotate(180 170.5 84)" stroke-width="3">
          <rect stroke="#D5E9CA" fill="#D5E9CA" x="58.5" y="1.5" width="21" height="69" rx="4"/>
          <rect stroke="#D5E9CA" fill="#D5E9CA" x="1.5" y="1.5" width="21" height="69" rx="4"/>
          <rect stroke="#E3D3BC" fill="#E3D3BC" x="29.5" y="1.5" width="22" height="77" rx="4"/>
        </g>
        <g transform="rotate(180 235.5 84)" stroke-width="3">
          <rect stroke="#D5E9CA" fill="#D5E9CA" x="58.5" y="1.5" width="21" height="69" rx="4"/>
          <rect stroke="#D5E9CA" fill="#D5E9CA" x="1.5" y="1.5" width="21" height="69" rx="4"/>
          <rect stroke="#E3D3BC" fill="#E3D3BC" x="29.5" y="1.5" width="22" height="77" rx="4"/>
        </g>
        <g transform="matrix(-1 0 0 1 146 0)" stroke-width="3">
          <rect stroke="#D5E9CA" fill="#D5E9CA" x="58.5" y="1.5" width="21" height="69" rx="4"/>
          <rect stroke="#D5E9CA" fill="#D5E9CA" x="1.5" y="1.5" width="21" height="69" rx="4"/>
          <rect stroke="#E3D3BC" fill="#E3D3BC" x="29.5" y="1.5" width="22" height="77" rx="4"/>
        </g>
        <g transform="matrix(-1 0 0 1 276 0)" stroke-width="3">
          <rect stroke="#D5E9CA" fill="#D5E9CA" x="58.5" y="1.5" width="21" height="69" rx="4"/>
          <rect stroke="#D5E9CA" fill="#D5E9CA" x="1.5" y="1.5" width="21" height="69" rx="4"/>
          <rect stroke="#E3D3BC" fill="#E3D3BC" x="29.5" y="1.5" width="22" height="77" rx="4"/>
        </g>
        <g transform="matrix(-1 0 0 1 406 0)" stroke-width="3">
          <rect stroke="#D5E9CA" fill="#D5E9CA" x="58.5" y="1.5" width="21" height="69" rx="4"/>
          <rect stroke="#D5E9CA" fill="#D5E9CA" x="1.5" y="1.5" width="21" height="69" rx="4"/>
          <rect stroke="#E3D3BC" fill="#E3D3BC" x="29.5" y="1.5" width="22" height="77" rx="4"/>
        </g>
      </g>
      <g transform="translate(160 1)">
        <g transform="translate(0 227.974)">
          <path fill="#C2D6D6" d="M0 2.009h88v3.154H0z"/>
          <path fill="#9FC1B7" d="M0 0h88v3.154H0z"/>
        </g>
        <g>
          <path fill="#C2D6D6" d="M0 0h88v3.154H0z"/>
          <path fill="#9FC1B7" d="M0 2.009h88v3.154H0z"/>
        </g>
        <g transform="translate(115)">
          <path fill="#C2D6D6" d="M0 0h88v3.154H0z"/>
          <path fill="#9FC1B7" d="M0 2.009h88v3.154H0z"/>
        </g>
        <g transform="translate(230)">
          <path fill="#C2D6D6" d="M0 0h88v3.154H0z"/>
          <path fill="#9FC1B7" d="M0 2.009h88v3.154H0z"/>
        </g>
        <g transform="translate(345)">
          <path fill="#C2D6D6" d="M0 0h88v3.154H0z"/>
          <path fill="#9FC1B7" d="M0 2.009h88v3.154H0z"/>
        </g>
        <g transform="translate(460)">
          <path fill="#C2D6D6" d="M0 0h88v3.154H0z"/>
          <path fill="#9FC1B7" d="M0 2.009h88v3.154H0z"/>
        </g>
        <g transform="translate(687)">
          <path fill="#C2D6D6" d="M0 0h88v3.154H0z"/>
          <path fill="#9FC1B7" d="M0 2.009h88v3.154H0z"/>
        </g>
        <g transform="translate(802)">
          <path fill="#C2D6D6" d="M0 0h88v3.154H0z"/>
          <path fill="#9FC1B7" d="M0 2.009h88v3.154H0z"/>
        </g>
        <g transform="translate(917)">
          <path fill="#C2D6D6" d="M0 0h88v3.154H0z"/>
          <path fill="#9FC1B7" d="M0 2.009h88v3.154H0z"/>
        </g>
        <g transform="translate(1032)">
          <path fill="#C2D6D6" d="M0 0h88v3.154H0z"/>
          <path fill="#9FC1B7" d="M0 2.009h88v3.154H0z"/>
        </g>
        <g transform="translate(1147)">
          <path fill="#C2D6D6" d="M0 0h88v3.154H0z"/>
          <path fill="#9FC1B7" d="M0 2.009h88v3.154H0z"/>
        </g>
        <g transform="translate(115 227.974)">
          <path fill="#C2D6D6" d="M0 2.009h88v3.154H0z"/>
          <path fill="#9FC1B7" d="M0 0h88v3.154H0z"/>
        </g>
        <g transform="translate(230 227.974)">
          <path fill="#C2D6D6" d="M0 2.009h88v3.154H0z"/>
          <path fill="#9FC1B7" d="M0 0h88v3.154H0z"/>
        </g>
        <g transform="translate(687 227.974)">
          <path fill="#C2D6D6" d="M0 2.009h88v3.154H0z"/>
          <path fill="#9FC1B7" d="M0 0h88v3.154H0z"/>
        </g>
        <g transform="translate(802 227.974)">
          <path fill="#C2D6D6" d="M0 2.009h88v3.154H0z"/>
          <path fill="#9FC1B7" d="M0 0h88v3.154H0z"/>
        </g>
        <g transform="translate(917 227.974)">
          <path fill="#C2D6D6" d="M0 2.009h88v3.154H0z"/>
          <path fill="#9FC1B7" d="M0 0h88v3.154H0z"/>
        </g>
        <g transform="translate(1032 227.974)">
          <path fill="#C2D6D6" d="M0 2.009h88v3.154H0z"/>
          <path fill="#9FC1B7" d="M0 0h88v3.154H0z"/>
        </g>
        <g transform="translate(1351 227.974)">
          <path fill="#C2D6D6" d="M0 2h32v3.154H0z"/>
          <path fill="#9FC1B7" d="M0 0h32v3.154H0z"/>
        </g>
      </g>
      <g transform="matrix(-1 0 0 1 1487 0)">
        <path d="M36 40V6H2c0 18.778 15.222 34 34 34z" stroke="#F2F2F2" stroke-width="2"/>
        <path fill="#DCDCDC" d="M1 0h3v9H1zM34 0h3v9h-3z"/>
        <path fill="#DCDCDC" d="M0 4h38v3H0z"/>
        <g transform="rotate(-90 9 -1)">
          <g>
            <path fill="#C2D6D6" d="M2 0h3v18.857H2z"/>
            <path fill="#9FC1B7" d="M0 0h3v18.857H0z"/>
          </g>
        </g>
      </g>
      <g transform="rotate(180 743.5 118.5)">
        <path d="M36 40V6H2c0 18.778 15.222 34 34 34z" stroke="#F2F2F2" stroke-width="2"/>
        <path fill="#DCDCDC" d="M1 0h3v9H1zM34 0h3v9h-3z"/>
        <path fill="#DCDCDC" d="M0 4h38v3H0z"/>
        <g transform="rotate(-90 9 -1)">
          <g>
            <path fill="#C2D6D6" d="M2 0h3v18.857H2z"/>
            <path fill="#9FC1B7" d="M0 0h3v18.857H0z"/>
          </g>
        </g>
      </g>
    </g>
    <g id="Service-badges" transform="translate(460 115)">
      <g id="service-badge" transform="translate(1049 48)">
        <circle stroke="#fff" stroke-width="2" fill="#f2f2f2" cx="29" cy="29" r="28"/>
        <g id="badge-gr" stroke-width="1" transform="translate(17 17)">
          <g id="Icon/Service/WC">
            <path d="M0 0h24v24H0z"/>
            <path d="M19.16 7a5.221 5.221 0 014.78 3.146l-.853.377c-.518.228-1.101.055-1.468-.378A3.221 3.221 0 0019.16 9c-1.781 0-3.23 1.458-3.23 3.25s1.449 3.25 3.23 3.25a3.22 3.22 0 002.46-1.145c.367-.432.95-.605 1.468-.377l.854.376a5.22 5.22 0 01-4.782 3.146c-2.877 0-5.218-2.354-5.218-5.25 0-2.895 2.341-5.25 5.218-5.25zm-12.177.165c1.017 0 1.83.703 1.979 1.709l.951 6.46 1.383-5.572.374-1.511a1.25 1.25 0 011.213-.949h1.083l-.44 1.775-1.671 6.739a1.978 1.978 0 01-1.937 1.519l-.101-.002a1.982 1.982 0 01-1.882-1.707l-.951-6.46-.952 6.46a1.98 1.98 0 01-1.883 1.707c-.968.033-1.805-.577-2.038-1.517L0 7.302h1.083a1.25 1.25 0 011.213.949l.3 1.209 1.457 5.874.952-6.46a1.963 1.963 0 011.978-1.709z" fill="#1b50af"/>
          </g>
        </g>
      </g>
      <g id="service-badge" transform="translate(0 5)">
        <circle stroke="#fff" stroke-width="2" fill="#f2f2f2" cx="29" cy="29" r="28"/>
        <g id="badge-gr" stroke-width="1" transform="translate(17 17)">
          <g id="Icon/Service/Restaurant">
            <path d="M0 0h24v24H0z"/>
            <path d="M10.75 0H10v6.5a2 2 0 01-2 2V0h-.75C6.56 0 6 .56 6 1.25V8.5a2 2 0 01-2-2V0h-.75C2.56 0 2 .56 2 1.25V6.5a4 4 0 004 4v12.25c0 .69.56 1.25 1.25 1.25H8V10.5a4 4 0 004-4V1.25C12 .56 11.44 0 10.75 0zM18 13.49h-2V4c0-1.103.896-2 2-2v11.49zM19 0h-1a4 4 0 00-4 4v9.49a2 2 0 002 2h2V24h.75c.69 0 1.25-.56 1.25-1.25V1a1 1 0 00-1-1z" fill="#1b50af"/>
          </g>
        </g>
      </g>
      <g id="service-badge" transform="translate(930)">
        <circle stroke="#fff" stroke-width="2" fill="#f2f2f2" cx="29" cy="29" r="28"/>
        <g id="badge-gr" stroke-width="1" transform="translate(17 17)">
          <g id="Icon/Service/Conductor">
            <path d="M0 0h24v24H0z"/>
            <path d="M11 19.75v.75h.75c.69 0 1.25-.56 1.25-1.25v-.75h-.75c-.69 0-1.25.56-1.25 1.25zm4.662-3.096L13.508 14.5h2.732l-.577 2.154zm-7.53.395L7.448 14.5h3.232l-2.548 2.549zM8.751 4l-1-2H15v2H8.75zM19 12.5h-4a4.992 4.992 0 002-3.993V2a2 2 0 00-2-2H7.75a2 2 0 00-1.788 2.894L6.514 4H5.75c-.69 0-1.25.56-1.25 1.25V6H15v2.507c0 .978-.47 1.845-1.197 2.393A1.972 1.972 0 0013 12.5h-2c0-.678-.318-1.236-.803-1.601a2.99 2.99 0 01-1.196-2.392V8.25C9 7.56 8.44 7 7.75 7H7v1.507c0 1.631.787 3.08 2 3.993H5a4 4 0 00-4 4V24h.75C2.44 24 3 23.44 3 22.75V16.5a2 2 0 012-2h.377l.822 3.067c.4 1.486 2.258 1.984 3.347.895l2.548-2.548 2.97 2.97L13.692 24h1.111a1.25 1.25 0 001.208-.926l2.3-8.574H19a2 2 0 012 2v6.25c0 .69.56 1.25 1.25 1.25H23v-7.5a4 4 0 00-4-4z" fill="#1b50af"/>
          </g>
        </g>
      </g>
    </g>
  </g>
</svg>
