<svg viewBox="0 0 1586 237"
  xmlns="http://www.w3.org/2000/svg"
  xmlns:xlink="http://www.w3.org/1999/xlink"
  xmlns:vr="http://vr/wagonmap" preserveAspectRatio="xMinYMin meet">
  <defs>
    <svg id="pet-seat-icon" viewBox="0 0 620 620"
      xmlns="http://www.w3.org/2000/svg" preserveAspectRatio="xMinYMin meet">
      <g fill-rule="evenodd">
        <path d="M42.2 15.868a2.013 2.013 0 01-.716.132H27.548a2 2 0 01-1.02-.279l-7.883-4.669-2.736-6.519A2.5 2.5 0 0013.604 3h-2.676l1.26 3h-1.204a6 6 0 00-6 6v.099l-3.699 1.416a2 2 0 00-1.152 2.584l1.263 3.274A6 6 0 006.906 23h3.078v4.388c0 1.256.395 2.481 1.127 3.501l1.873 2.606V45h1.5a2.5 2.5 0 002.5-2.5v-9.004c0-.837-.263-1.654-.752-2.334l-1.87-2.606a2.002 2.002 0 01-.378-1.169V23a4 4 0 00-4-4H6.906a2 2 0 01-1.867-1.284l-.454-1.18 1.64-.627c1.581-.606 2.787-2.116 2.76-3.81V12c-.019-1.12.883-1.997 2-1.997h2.883l1.09 2.597a4.002 4.002 0 001.65 1.893l7.881 4.669a5.996 5.996 0 003.06.838h13.934c.735 0 1.462-.134 2.148-.397l2.748-1.053a2.5 2.5 0 001.605-2.334v-2.564L42.2 15.868zm4.067 8.562a2.499 2.499 0 00-3.228-1.44l-1.4.537 1.212 3.169c.088.228.133.471.133.715v17.584h1.5a2.5 2.5 0 002.5-2.5V27.41a6.01 6.01 0 00-.397-2.146l-.32-.834zm-9.445 4.117a4.001 4.001 0 00-4.668-1.384l-9.359 3.59a6.001 6.001 0 00-3.853 5.663L18.984 45l1.493-.007a2.501 2.501 0 002.488-2.52l-.023-6.097a2.005 2.005 0 011.288-1.889l9.356-3.589 3.016 4.153a2 2 0 01.382 1.175V45h1.5a2.5 2.5 0 002.5-2.5v-6.277c0-1.266-.4-2.5-1.145-3.524l-3.017-4.152z"/>
      </g>
    </svg>
  </defs>
  <g id="IM1" stroke="none" stroke-width="1" fill="none" fill-rule="evenodd">
    <path fill="#FFF" d="M0 0h1586v237H0z"/>
    <g id="Pet-seat-indicators" transform="translate(494 7)">
      <path id="pet_seat_indicator_51" vr:x="50" vr:y="0" vr:width="65" vr:height="57" d="M50 0h65v57H50z"/>
      <path id="pet_seat_indicator_52" d="M50 45h65v88H0V82h50z"/>
      <path id="pet_seat_indicator_47" vr:x="114" vr:y="0" vr:width="57" vr:height="57" d="M114 0h57v57h-57z"/>
      <path id="pet_seat_indicator_48" vr:x="114" vr:y="45" vr:width="57" vr:height="88" d="M114 45h57v88h-57z"/>
      <path id="pet_seat_indicator_49" vr:x="58" vr:y="133" vr:width="57" vr:height="90" d="M58 133h57v90H58z"/>
      <path id="pet_seat_indicator_45" vr:x="114" vr:y="133" vr:width="57" vr:height="90" d="M114 133h57v90h-57z"/>
      <path id="pet_seat_indicator_35" vr:x="355" vr:y="0" vr:width="59" vr:height="57" d="M355 0h59v57h-59z"/>
      <path id="pet_seat_indicator_36" vr:x="355" vr:y="45" vr:width="59" vr:height="88" d="M355 45h59v88h-59z"/>
      <path id="pet_seat_indicator_33" vr:x="355" vr:y="133" vr:width="59" vr:height="90" d="M355 133h59v90h-59z"/>
      <path id="pet_seat_indicator_31" vr:x="413" vr:y="0" vr:width="57" vr:height="57" d="M413 0h57v57h-57z"/>
      <path id="pet_seat_indicator_32" vr:x="413" vr:y="45" vr:width="57" vr:height="88" d="M413 45h57v88h-57z"/>
      <path id="pet_seat_indicator_29" vr:x="413" vr:y="133" vr:width="57" vr:height="90" d="M413 133h57v90h-57z"/>
      <path id="pet_seat_indicator_27" vr:x="469" vr:y="0" vr:width="67" vr:height="57" d="M469 0h67v57h-67z"/>
      <path id="pet_seat_indicator_28" vr:x="469" vr:y="45" vr:width="67" vr:height="88" d="M469 45h67v88h-67z"/>
      <path id="pet_seat_indicator_25" vr:x="469" vr:y="133" vr:width="67" vr:height="90" d="M469 133h67v90h-67z"/>
      <path id="pet_seat_indicator_23" vr:x="535" vr:y="0" vr:width="67" vr:height="57" d="M535 0h67v57h-67z"/>
      <path id="pet_seat_indicator_24" vr:x="535" vr:y="45" vr:width="67" vr:height="88" d="M535 45h67v88h-67z"/>
      <path id="pet_seat_indicator_21" vr:x="535" vr:y="133" vr:width="67" vr:height="90" d="M535 133h67v90h-67z"/>
      <path id="pet_seat_indicator_19" vr:x="601" vr:y="0" vr:width="57" vr:height="57" d="M601 0h57v57h-57z"/>
      <path id="pet_seat_indicator_20" vr:x="601" vr:y="45" vr:width="57" vr:height="88" d="M601 45h57v88h-57z"/>
      <path id="pet_seat_indicator_17" vr:x="601" vr:y="133" vr:width="57" vr:height="90" d="M601 133h57v90h-57z"/>
      <path id="pet_seat_indicator_15" vr:x="657" vr:y="0" vr:width="57" vr:height="57" d="M657 0h57v57h-57z"/>
      <path id="pet_seat_indicator_16" vr:x="657" vr:y="45" vr:width="57" vr:height="88" d="M657 45h57v88h-57z"/>
      <path id="pet_seat_indicator_13" vr:x="657" vr:y="133" vr:width="57" vr:height="90" d="M657 133h57v90h-57z"/>
      <path id="pet_seat_indicator_11" vr:x="713" vr:y="0" vr:width="57" vr:height="57" d="M713 0h57v57h-57z"/>
      <path id="pet_seat_indicator_12" vr:x="713" vr:y="45" vr:width="57" vr:height="88" d="M713 45h57v88h-57z"/>
      <path id="pet_seat_indicator_9" vr:x="713" vr:y="133" vr:width="57" vr:height="90" d="M713 133h57v90h-57z"/>
      <path id="pet_seat_indicator_7" vr:x="769" vr:y="0" vr:width="57" vr:height="57" d="M769 0h57v57h-57z"/>
      <path id="pet_seat_indicator_8" vr:x="769" vr:y="45" vr:width="57" vr:height="88" d="M769 45h57v88h-57z"/>
      <path id="pet_seat_indicator_5" vr:x="769" vr:y="133" vr:width="57" vr:height="90" d="M769 133h57v90h-57z"/>
      <path id="pet_seat_indicator_3" vr:x="825" vr:y="0" vr:width="57" vr:height="57" d="M825 0h57v57h-57z"/>
      <path id="pet_seat_indicator_4" vr:x="825" vr:y="45" vr:width="57" vr:height="88" d="M825 45h57v88h-57z"/>
      <path id="pet_seat_indicator_1" vr:x="825" vr:y="133" vr:width="57" vr:height="90" d="M825 133h57v90h-57z"/>
      <path id="pet_seat_indicator_43" vr:x="170" vr:y="0" vr:width="67" vr:height="57" d="M170 0h67v57h-67z"/>
      <path id="pet_seat_indicator_44" vr:x="170" vr:y="45" vr:width="67" vr:height="88" d="M170 45h67v88h-67z"/>
      <path id="pet_seat_indicator_41" vr:x="170" vr:y="133" vr:width="67" vr:height="90" d="M170 133h67v90h-67z"/>
      <path id="pet_seat_indicator_39" vr:x="236" vr:y="0" vr:width="69" vr:height="57" d="M236 0h69v57h-69z"/>
      <path id="pet_seat_indicator_40" vr:x="236" vr:y="45" vr:width="69" vr:height="88" d="M236 45h69v88h-69z"/>
      <path id="pet_seat_indicator_37" vr:x="236" vr:y="133" vr:width="69" vr:height="90" d="M236 133h69v90h-69z"/>
      <path id="pet_seat_indicator_53" vr:x="0" vr:y="133" vr:width="59" vr:height="90" d="M0 133h59v90H0z"/>
    </g>
    <g>
      <g transform="translate(0 5)" fill="#F2F2F2">
        <path d="M80 1h142v225.647H80c-44.183 0-80-35.817-80-80V81C0 36.817 35.817 1 80 1zM287 160.647h30v66h-30zM1446 147h65v79h-65zM287 .647h30v90h-30zM493 .647h50v82h-50zM801 0h47v32h-47zM800 175h48v52h-48z"/>
      </g>
      <path d="M1584.5 210a21.433 21.433 0 01-6.297 15.203A21.433 21.433 0 011563 231.5h0H83c-22.506 0-42.88-9.122-57.63-23.87C10.623 192.88 1.5 172.505 1.5 150h0V87c0-22.506 9.122-42.88 23.87-57.63C40.12 14.623 60.495 5.5 83 5.5h1480a21.433 21.433 0 0115.203 6.297A21.433 21.433 0 011584.5 27h0z" stroke="#DFDFDF" stroke-width="3"/>
      <g transform="matrix(0 1 1 0 325 230)">
        <g>
          <path fill="#C2D6D6" d="M2 0h3v54H2z"/>
          <path fill="#9FC1B7" d="M0 0h3v54H0z"/>
        </g>
      </g>
      <g transform="translate(325 2)">
        <g transform="matrix(0 -1 1 0 86 5)">
          <path fill="#C2D6D6" d="M2 0h3v72H2z"/>
          <path fill="#9FC1B7" d="M0 0h3v72H0z"/>
        </g>
        <g transform="matrix(0 1 1 0 86 228)">
          <path fill="#C2D6D6" d="M2 0h3v72H2z"/>
          <path fill="#9FC1B7" d="M0 0h3v72H0z"/>
        </g>
        <g transform="rotate(-90 114 -109)">
          <path fill="#C2D6D6" d="M2 0h3v39H2z"/>
          <path fill="#9FC1B7" d="M0 0h3v39H0z"/>
        </g>
        <g transform="matrix(0 1 1 0 1022 228)">
          <path fill="#C2D6D6" d="M2 0h3v72H2z"/>
          <path fill="#9FC1B7" d="M0 0h3v72H0z"/>
        </g>
        <g transform="matrix(0 1 1 0 190 228)">
          <path fill="#C2D6D6" d="M2 0h3v72H2z"/>
          <path fill="#9FC1B7" d="M0 0h3v72H0z"/>
        </g>
        <g transform="matrix(0 -1 1 0 1022 5)">
          <path fill="#C2D6D6" d="M2 0h3v72H2z"/>
          <path fill="#9FC1B7" d="M0 0h3v72H0z"/>
        </g>
        <g transform="matrix(0 -1 1 0 294 5)">
          <path fill="#C2D6D6" d="M2 0h3v72H2z"/>
          <path fill="#9FC1B7" d="M0 0h3v72H0z"/>
        </g>
        <g transform="matrix(0 1 1 0 294 228)">
          <path fill="#C2D6D6" d="M2 0h3v72H2z"/>
          <path fill="#9FC1B7" d="M0 0h3v72H0z"/>
        </g>
        <g transform="matrix(0 -1 1 0 398 5)">
          <path fill="#C2D6D6" d="M2 0h3v66H2z"/>
          <path fill="#9FC1B7" d="M0 0h3v66H0z"/>
        </g>
        <g transform="matrix(0 1 1 0 398 228)">
          <path fill="#C2D6D6" d="M2 0h3v66H2z"/>
          <path fill="#9FC1B7" d="M0 0h3v66H0z"/>
        </g>
        <g transform="rotate(-90 271 -266)">
          <g>
            <path fill="#C2D6D6" d="M2 0h3v37H2z"/>
            <path fill="#9FC1B7" d="M0 0h3v37H0z"/>
          </g>
        </g>
        <g transform="matrix(0 1 1 0 537 228)">
          <g>
            <path fill="#C2D6D6" d="M2 0h3v37H2z"/>
            <path fill="#9FC1B7" d="M0 0h3v37H0z"/>
          </g>
        </g>
        <g transform="matrix(0 -1 1 0 606 5)">
          <path fill="#C2D6D6" d="M2 0h3v72H2z"/>
          <path fill="#9FC1B7" d="M0 0h3v72H0z"/>
        </g>
        <g transform="matrix(0 1 1 0 606 228)">
          <path fill="#C2D6D6" d="M2 0h3v72H2z"/>
          <path fill="#9FC1B7" d="M0 0h3v72H0z"/>
        </g>
        <g transform="matrix(0 -1 1 0 710 5)">
          <path fill="#C2D6D6" d="M2 0h3v72H2z"/>
          <path fill="#9FC1B7" d="M0 0h3v72H0z"/>
        </g>
        <g transform="matrix(0 1 1 0 710 228)">
          <path fill="#C2D6D6" d="M2 0h3v72H2z"/>
          <path fill="#9FC1B7" d="M0 0h3v72H0z"/>
        </g>
        <g transform="matrix(0 -1 1 0 814 5)">
          <path fill="#C2D6D6" d="M2 0h3v72H2z"/>
          <path fill="#9FC1B7" d="M0 0h3v72H0z"/>
        </g>
        <g transform="matrix(0 1 1 0 814 228)">
          <path fill="#C2D6D6" d="M2 0h3v72H2z"/>
          <path fill="#9FC1B7" d="M0 0h3v72H0z"/>
        </g>
        <g transform="matrix(0 -1 1 0 918 5)">
          <path fill="#C2D6D6" d="M2 0h3v72H2z"/>
          <path fill="#9FC1B7" d="M0 0h3v72H0z"/>
        </g>
        <g transform="matrix(0 1 1 0 918 228)">
          <path fill="#C2D6D6" d="M2 0h3v72H2z"/>
          <path fill="#9FC1B7" d="M0 0h3v72H0z"/>
        </g>
        <g transform="rotate(-90 2.5 2.5)">
          <path fill="#C2D6D6" d="M2 0h3v54H2z"/>
          <path fill="#9FC1B7" d="M0 0h3v54H0z"/>
        </g>
      </g>
      <path fill="#DCDCDC" d="M315 164h3v66h-3zM220 6h3v224h-3z"/>
      <path fill="#DCDCDC" d="M285 164h33v3h-33z"/>
      <path fill="#DCDCDC" transform="rotate(180 316.5 52)" d="M315 7h3v90h-3z"/>
      <path fill="#DCDCDC" transform="rotate(180 542.5 47.5)" d="M541 7h3v81h-3z"/>
      <path fill="#DCDCDC" transform="rotate(180 286.5 52)" d="M285 7h3v90h-3z"/>
      <path fill="#DCDCDC" transform="rotate(180 286.5 197.5)" d="M285 165h3v65h-3z"/>
      <path fill="#DCDCDC" d="M799 35h50v3h-50zM799 178h50v3h-50z"/>
      <path fill="#DCDCDC" transform="rotate(180 301.5 95.5)" d="M285 94h33v3h-33z"/>
      <path fill="#DCDCDC" transform="rotate(180 518.5 87.5)" d="M493 86h51v3h-51z"/>
      <path fill="#DCDCDC" d="M491 136h3v94h-3zM491 7h3v112h-3zM846 7h3v94h-3z"/>
      <path fill="#DCDCDC" transform="matrix(-1 0 0 1 2891 0)" d="M1444 150h3v80h-3zM1444 7h3v89h-3z"/>
      <path fill="#DCDCDC" transform="rotate(90 1479.5 94.5)" d="M1478 62h3v65h-3z"/>
      <path fill="#DCDCDC" transform="rotate(90 1479.5 151.5)" d="M1478 119h3v65h-3z"/>
      <path fill="#DCDCDC" transform="matrix(-1 0 0 1 3021 0)" d="M1509 7h3v88h-3zM1509 150h3v81h-3z"/>
      <path fill="#DCDCDC" d="M846 178h3v52h-3zM799 178h3v52h-3zM799 7h3v94h-3z"/>
      <g transform="translate(413)">
        <g transform="translate(308 7)" fill="#E2D2BA">
          <path d="M0 0h19v76a4 4 0 01-4 4H4a4 4 0 01-4-4V0z"/>
        </g>
        <g transform="translate(308 190)" fill="#E2D2BA">
          <path d="M0 0h19v36a4 4 0 01-4 4H4a4 4 0 01-4-4V0z" transform="matrix(1 0 0 -1 0 40)"/>
        </g>
        <g transform="translate(0 7)" fill="#E2D2BA">
          <path d="M0 0h19v76a4 4 0 01-4 4H4a4 4 0 01-4-4V0z"/>
        </g>
        <g transform="matrix(1 0 0 -1 0 230)" fill="#E2D2BA">
          <path d="M0 0h19v36a4 4 0 01-4 4H4a4 4 0 01-4-4V0z"/>
        </g>
        <g transform="translate(607 7)" fill="#E2D2BA">
          <path d="M0 0h19v76a4 4 0 01-4 4H4a4 4 0 01-4-4V0z"/>
        </g>
        <g transform="translate(607 190)" fill="#E2D2BA">
          <path d="M0 0h19v36a4 4 0 01-4 4H4a4 4 0 01-4-4V0z" transform="matrix(1 0 0 -1 0 40)"/>
        </g>
        <g transform="translate(1105)">
          <g transform="matrix(-1 0 0 1 38 0)">
            <path d="M36 40V6H2c0 18.778 15.222 34 34 34z" stroke="#F2F2F2" stroke-width="2"/>
            <path fill="#DCDCDC" d="M1 0h3v9H1zM34 0h3v9h-3z"/>
            <path fill="#DCDCDC" d="M0 4h38v3H0z"/>
            <g transform="rotate(-90 9 -1)">
              <path fill="#C2D6D6" d="M2 0h3v18.857H2z"/>
              <path fill="#9FC1B7" d="M0 0h3v18.857H0z"/>
            </g>
          </g>
        </g>
        <g transform="translate(1105 197)">
          <g transform="rotate(180 19 20)">
            <path d="M36 40V6H2c0 18.778 15.222 34 34 34z" stroke="#F2F2F2" stroke-width="2"/>
            <path fill="#DCDCDC" d="M1 0h3v9H1zM34 0h3v9h-3z"/>
            <path fill="#DCDCDC" d="M0 4h38v3H0z"/>
            <g transform="rotate(-90 9 -1)">
              <path fill="#C2D6D6" d="M2 0h3v18.857H2z"/>
              <path fill="#9FC1B7" d="M0 0h3v18.857H0z"/>
            </g>
          </g>
        </g>
        <g transform="translate(75 118)">
          <g transform="matrix(0 1 1 0 -1 1)">
            <path d="M36 40V6H2c0 18.778 15.222 34 34 34z" stroke="#F2F2F2" stroke-width="2"/>
            <path fill="#DCDCDC" d="M1 0h3v9H1zM34 0h3v9h-3z"/>
            <path fill="#DCDCDC" d="M0 4h38v3H0z"/>
            <g transform="rotate(-90 9 -1)">
              <path fill="#C2D6D6" d="M2 0h3v18.857H2z"/>
              <path fill="#9FC1B7" d="M0 0h3v18.857H0z"/>
            </g>
          </g>
        </g>
      </g>
    </g>
    <g id="Seats" transform="translate(362 15)">
      <g id="seat_73" transform="translate(76 164)">
        <path d="M41 .5c.966 0 1.841.392 2.475 1.025A3.489 3.489 0 0144.5 4h0v35c0 .966-.392 1.841-1.025 2.475A3.489 3.489 0 0141 42.5h0H.5V.5z" id="seat_73_shape" stroke="#1B50AF" fill="#FFF" transform="rotate(-180 22.5 21.5)"/>
        <path id="Line" stroke="#1B50AF" fill="#FFF" stroke-linecap="square" d="M35.5 42.5V.488"/>
        <g id="seatnumber_73" transform="translate(9.96 16.392)" fill="#1B50AF">
          <path d="M0 .208h8.528v1.856c-3.024 3.088-4.496 5.568-4.72 9.744H1.376c.192-4.032 2.336-7.296 4.928-9.744H0V.208zm15.168 8.336c0-1.36-1.264-1.904-2.912-1.904h-.464V4.912h.384c1.664 0 2.704-.608 2.704-1.696 0-1.008-.88-1.552-1.84-1.552-1.328 0-2.176.848-2.288 2.048H8.656C8.912 1.408 10.512 0 13.168 0c1.936 0 3.936.928 3.936 3.12 0 1.12-.688 2.064-1.568 2.544a3.035 3.035 0 011.872 2.816c0 2.352-2.032 3.536-4.48 3.536-2.656 0-4.224-1.728-4.368-3.856h2.08c.16 1.168.912 2.192 2.352 2.192 1.2 0 2.176-.72 2.176-1.808z"/>
        </g>
        <g id="seatnumber_73-with-service-icon" transform="translate(9.96 16.392)">
          <path d="M0 .208h8.528v1.856c-3.024 3.088-4.496 5.568-4.72 9.744H1.376c.192-4.032 2.336-7.296 4.928-9.744H0V.208zm15.168 8.336c0-1.36-1.264-1.904-2.912-1.904h-.464V4.912h.384c1.664 0 2.704-.608 2.704-1.696 0-1.008-.88-1.552-1.84-1.552-1.328 0-2.176.848-2.288 2.048H8.656C8.912 1.408 10.512 0 13.168 0c1.936 0 3.936.928 3.936 3.12 0 1.12-.688 2.064-1.568 2.544a3.035 3.035 0 011.872 2.816c0 2.352-2.032 3.536-4.48 3.536-2.656 0-4.224-1.728-4.368-3.856h2.08c.16 1.168.912 2.192 2.352 2.192 1.2 0 2.176-.72 2.176-1.808z" transform="translate(0 10)"/>
          <use id="pet-seat-icon-seatnumber_73" xlink:href="#pet-seat-icon" transform="translate(0 -12)"/>
        </g>
      </g>
      <g id="seat_71" transform="translate(76)">
        <path d="M41 .5c.966 0 1.841.392 2.475 1.025A3.489 3.489 0 0144.5 4h0v35c0 .966-.392 1.841-1.025 2.475A3.489 3.489 0 0141 42.5h0H.5V.5z" id="seat_71_shape" stroke="#1B50AF" fill="#FFF" transform="rotate(-180 22.5 21.5)"/>
        <path id="Line" stroke="#1B50AF" fill="#FFF" stroke-linecap="square" d="M35.5 42.5V.488"/>
        <g id="seatnumber_71" transform="translate(11.92 16.6)" fill="#1B50AF">
          <path d="M0 0h8.528v1.856C5.504 4.944 4.032 7.424 3.808 11.6H1.376c.192-4.032 2.336-7.296 4.928-9.744H0V0zm10.704 11.6V2.928H8.208V1.424c1.68-.048 2.464-.16 3.024-1.424h1.68v11.6h-2.208z"/>
        </g>
        <g id="seatnumber_71-with-service-icon" transform="translate(11.92 16.6)">
          <path d="M0 0h8.528v1.856C5.504 4.944 4.032 7.424 3.808 11.6H1.376c.192-4.032 2.336-7.296 4.928-9.744H0V0zm10.704 11.6V2.928H8.208V1.424c1.68-.048 2.464-.16 3.024-1.424h1.68v11.6h-2.208z" transform="translate(0 10)"/>
          <use id="pet-seat-icon-seatnumber_71" xlink:href="#pet-seat-icon" transform="translate(0 -12)"/>
        </g>
      </g>
      <g id="seat_72" transform="translate(76 43)">
        <path d="M41 .5c.966 0 1.841.392 2.475 1.025A3.489 3.489 0 0144.5 4h0v35c0 .966-.392 1.841-1.025 2.475A3.489 3.489 0 0141 42.5h0H.5V.5z" id="seat_72_shape" stroke="#1B50AF" fill="#FFF" transform="rotate(-180 22.5 21.5)"/>
        <path id="Line" stroke="#1B50AF" fill="#FFF" stroke-linecap="square" d="M35.5 42.5V.488"/>
        <g id="seatnumber_72" transform="translate(10.24 16.392)" fill="#1B50AF">
          <path d="M0 .208h8.528v1.856c-3.024 3.088-4.496 5.568-4.72 9.744H1.376c.192-4.032 2.336-7.296 4.928-9.744H0V.208zM16.832 3.12c0 2.176-2.112 4.448-5.68 6.832h5.952v1.856H8.576v-1.792c3.728-3.008 6.032-4.944 6.032-6.784 0-1.008-.64-1.6-1.712-1.6-.976 0-1.968.592-1.968 2.32H8.784C8.752 1.552 10.448 0 13.024 0c2.32 0 3.808 1.104 3.808 3.12z"/>
        </g>
        <g id="seatnumber_72-with-service-icon" transform="translate(10.24 16.392)">
          <path d="M0 .208h8.528v1.856c-3.024 3.088-4.496 5.568-4.72 9.744H1.376c.192-4.032 2.336-7.296 4.928-9.744H0V.208zM16.832 3.12c0 2.176-2.112 4.448-5.68 6.832h5.952v1.856H8.576v-1.792c3.728-3.008 6.032-4.944 6.032-6.784 0-1.008-.64-1.6-1.712-1.6-.976 0-1.968.592-1.968 2.32H8.784C8.752 1.552 10.448 0 13.024 0c2.32 0 3.808 1.104 3.808 3.12z" transform="translate(0 10)"/>
          <use id="pet-seat-icon-seatnumber_72" xlink:href="#pet-seat-icon" transform="translate(0 -12)"/>
        </g>
      </g>
      <g id="seat_77" transform="translate(0 164)">
        <path d="M41 .5c.966 0 1.841.392 2.475 1.025A3.489 3.489 0 0144.5 4h0v35c0 .966-.392 1.841-1.025 2.475A3.489 3.489 0 0141 42.5h0H.5V.5z" id="seat_77_shape" stroke="#1B50AF" fill="#FFF"/>
        <path id="Line" stroke="#1B50AF" fill="#FFF" stroke-linecap="square" d="M9.5.5v42.012"/>
        <g id="seatnumber_77" transform="translate(18.792 16.6)" fill="#1B50AF">
          <path d="M0 0h8.528v1.856C5.504 4.944 4.032 7.424 3.808 11.6H1.376c.192-4.032 2.336-7.296 4.928-9.744H0V0zm8.16 0h8.528v1.856c-3.024 3.088-4.496 5.568-4.72 9.744H9.536c.192-4.032 2.336-7.296 4.928-9.744H8.16V0z"/>
        </g>
        <g id="seatnumber_77-with-service-icon" transform="translate(18.792 16.6)">
          <path d="M0 0h8.528v1.856C5.504 4.944 4.032 7.424 3.808 11.6H1.376c.192-4.032 2.336-7.296 4.928-9.744H0V0zm8.16 0h8.528v1.856c-3.024 3.088-4.496 5.568-4.72 9.744H9.536c.192-4.032 2.336-7.296 4.928-9.744H8.16V0z" transform="translate(0 10)"/>
          <use id="pet-seat-icon-seatnumber_77" xlink:href="#pet-seat-icon" transform="translate(0 -12)"/>
        </g>
      </g>
      <g id="seat_75">
        <path d="M41 .5c.966 0 1.841.392 2.475 1.025A3.489 3.489 0 0144.5 4h0v35c0 .966-.392 1.841-1.025 2.475A3.489 3.489 0 0141 42.5h0H.5V.5z" id="seat_75_shape" stroke="#1B50AF" fill="#FFF"/>
        <path id="Line" stroke="#1B50AF" fill="#FFF" stroke-linecap="square" d="M9.5.5v42.012"/>
        <g id="seatnumber_75" transform="translate(17.888 16.6)" fill="#1B50AF">
          <path d="M0 0h8.528v1.856C5.504 4.944 4.032 7.424 3.808 11.6H1.376c.192-4.032 2.336-7.296 4.928-9.744H0V0zm15.296 7.792c0-1.584-1.072-2.368-2.144-2.368-1.024 0-1.76.512-1.984 1.056l-2.016-.096L9.92 0h7.152v1.856h-5.344l-.32 2.48c.48-.352 1.232-.64 2.304-.64 1.984 0 3.824 1.408 3.824 4.08 0 2.56-1.984 4.032-4.368 4.032-2.72 0-4.16-1.856-4.288-3.856h2.08c.128 1.2.816 2.192 2.24 2.192 1.216 0 2.096-.88 2.096-2.352z"/>
        </g>
        <g id="seatnumber_75-with-service-icon" transform="translate(17.888 16.6)">
          <path d="M0 0h8.528v1.856C5.504 4.944 4.032 7.424 3.808 11.6H1.376c.192-4.032 2.336-7.296 4.928-9.744H0V0zm15.296 7.792c0-1.584-1.072-2.368-2.144-2.368-1.024 0-1.76.512-1.984 1.056l-2.016-.096L9.92 0h7.152v1.856h-5.344l-.32 2.48c.48-.352 1.232-.64 2.304-.64 1.984 0 3.824 1.408 3.824 4.08 0 2.56-1.984 4.032-4.368 4.032-2.72 0-4.16-1.856-4.288-3.856h2.08c.128 1.2.816 2.192 2.24 2.192 1.216 0 2.096-.88 2.096-2.352z" transform="translate(0 10)"/>
          <use id="pet-seat-icon-seatnumber_75" xlink:href="#pet-seat-icon" transform="translate(0 -12)"/>
        </g>
      </g>
      <g id="seat_76" transform="translate(0 43)">
        <path d="M41 .5c.966 0 1.841.392 2.475 1.025A3.489 3.489 0 0144.5 4h0v35c0 .966-.392 1.841-1.025 2.475A3.489 3.489 0 0141 42.5h0H.5V.5z" id="seat_76_shape" stroke="#1B50AF" fill="#FFF"/>
        <path id="Line" stroke="#1B50AF" fill="#FFF" stroke-linecap="square" d="M9.5.5v42.012"/>
        <g id="seatnumber_76" transform="translate(17.848 16.392)" fill="#1B50AF">
          <path d="M0 .208h8.528v1.856c-3.024 3.088-4.496 5.568-4.72 9.744H1.376c.192-4.032 2.336-7.296 4.928-9.744H0V.208zm11.056 5.008c.496-.624 1.424-1.104 2.64-1.104 2.144 0 3.936 1.456 3.936 3.968 0 2.384-1.808 3.936-4.32 3.936-3.104 0-4.464-2.496-4.464-5.744C8.848 2.944 10.08 0 13.552 0c2.528 0 3.712 1.712 3.84 3.2h-2.16c-.112-.96-.88-1.52-1.824-1.52-1.456 0-2.352 1.376-2.352 3.536zm2.256 5.136c1.2 0 2.08-.896 2.08-2.304 0-1.36-.88-2.256-2.08-2.256-1.216 0-2.128.896-2.128 2.256 0 1.392.912 2.304 2.128 2.304z"/>
        </g>
        <g id="seatnumber_76-with-service-icon" transform="translate(17.848 16.392)">
          <path d="M0 .208h8.528v1.856c-3.024 3.088-4.496 5.568-4.72 9.744H1.376c.192-4.032 2.336-7.296 4.928-9.744H0V.208zm11.056 5.008c.496-.624 1.424-1.104 2.64-1.104 2.144 0 3.936 1.456 3.936 3.968 0 2.384-1.808 3.936-4.32 3.936-3.104 0-4.464-2.496-4.464-5.744C8.848 2.944 10.08 0 13.552 0c2.528 0 3.712 1.712 3.84 3.2h-2.16c-.112-.96-.88-1.52-1.824-1.52-1.456 0-2.352 1.376-2.352 3.536zm2.256 5.136c1.2 0 2.08-.896 2.08-2.304 0-1.36-.88-2.256-2.08-2.256-1.216 0-2.128.896-2.128 2.256 0 1.392.912 2.304 2.128 2.304z" transform="translate(0 10)"/>
          <use id="pet-seat-icon-seatnumber_76" xlink:href="#pet-seat-icon" transform="translate(0 -12)"/>
        </g>
      </g>
      <g id="seat_33" transform="translate(495 164)">
        <path d="M41 .5c.966 0 1.841.392 2.475 1.025A3.489 3.489 0 0144.5 4h0v35c0 .966-.392 1.841-1.025 2.475A3.489 3.489 0 0141 42.5h0H.5V.5z" id="seat_33_shape" stroke="#1B50AF" fill="#FFF"/>
        <path id="Line" stroke="#1B50AF" fill="#FFF" stroke-linecap="square" d="M9.5.5v42.012"/>
        <g id="seatnumber_33" transform="translate(17.528 16.392)" fill="#1B50AF">
          <path d="M6.608 8.544c0-1.36-1.264-1.904-2.912-1.904h-.464V4.912h.384c1.664 0 2.704-.608 2.704-1.696 0-1.008-.88-1.552-1.84-1.552-1.328 0-2.176.848-2.288 2.048H.096C.352 1.408 1.952 0 4.608 0c1.936 0 3.936.928 3.936 3.12 0 1.12-.688 2.064-1.568 2.544A3.035 3.035 0 018.848 8.48c0 2.352-2.032 3.536-4.48 3.536C1.712 12.016.144 10.288 0 8.16h2.08c.16 1.168.912 2.192 2.352 2.192 1.2 0 2.176-.72 2.176-1.808zm9.824 0c0-1.36-1.264-1.904-2.912-1.904h-.464V4.912h.384c1.664 0 2.704-.608 2.704-1.696 0-1.008-.88-1.552-1.84-1.552-1.328 0-2.176.848-2.288 2.048H9.92C10.176 1.408 11.776 0 14.432 0c1.936 0 3.936.928 3.936 3.12 0 1.12-.688 2.064-1.568 2.544a3.035 3.035 0 011.872 2.816c0 2.352-2.032 3.536-4.48 3.536-2.656 0-4.224-1.728-4.368-3.856h2.08c.16 1.168.912 2.192 2.352 2.192 1.2 0 2.176-.72 2.176-1.808z"/>
        </g>
        <g id="seatnumber_33-with-service-icon" transform="translate(17.528 16.392)">
          <path d="M6.608 8.544c0-1.36-1.264-1.904-2.912-1.904h-.464V4.912h.384c1.664 0 2.704-.608 2.704-1.696 0-1.008-.88-1.552-1.84-1.552-1.328 0-2.176.848-2.288 2.048H.096C.352 1.408 1.952 0 4.608 0c1.936 0 3.936.928 3.936 3.12 0 1.12-.688 2.064-1.568 2.544A3.035 3.035 0 018.848 8.48c0 2.352-2.032 3.536-4.48 3.536C1.712 12.016.144 10.288 0 8.16h2.08c.16 1.168.912 2.192 2.352 2.192 1.2 0 2.176-.72 2.176-1.808zm9.824 0c0-1.36-1.264-1.904-2.912-1.904h-.464V4.912h.384c1.664 0 2.704-.608 2.704-1.696 0-1.008-.88-1.552-1.84-1.552-1.328 0-2.176.848-2.288 2.048H9.92C10.176 1.408 11.776 0 14.432 0c1.936 0 3.936.928 3.936 3.12 0 1.12-.688 2.064-1.568 2.544a3.035 3.035 0 011.872 2.816c0 2.352-2.032 3.536-4.48 3.536-2.656 0-4.224-1.728-4.368-3.856h2.08c.16 1.168.912 2.192 2.352 2.192 1.2 0 2.176-.72 2.176-1.808z" transform="translate(0 10)"/>
          <use id="pet-seat-icon-seatnumber_33" xlink:href="#pet-seat-icon" transform="translate(0 -12)"/>
        </g>
      </g>
      <g id="seat_36" transform="translate(495 43)">
        <path d="M41 .5c.966 0 1.841.392 2.475 1.025A3.489 3.489 0 0144.5 4h0v35c0 .966-.392 1.841-1.025 2.475A3.489 3.489 0 0141 42.5h0H.5V.5z" id="seat_36_shape" stroke="#1B50AF" fill="#FFF"/>
        <path id="Line" stroke="#1B50AF" fill="#FFF" stroke-linecap="square" d="M9.5.5v42.012"/>
        <g id="seatnumber_36" transform="translate(17.416 16.392)" fill="#1B50AF">
          <path d="M6.608 8.544c0-1.36-1.264-1.904-2.912-1.904h-.464V4.912h.384c1.664 0 2.704-.608 2.704-1.696 0-1.008-.88-1.552-1.84-1.552-1.328 0-2.176.848-2.288 2.048H.096C.352 1.408 1.952 0 4.608 0c1.936 0 3.936.928 3.936 3.12 0 1.12-.688 2.064-1.568 2.544A3.035 3.035 0 018.848 8.48c0 2.352-2.032 3.536-4.48 3.536C1.712 12.016.144 10.288 0 8.16h2.08c.16 1.168.912 2.192 2.352 2.192 1.2 0 2.176-.72 2.176-1.808zm5.712-3.328c.496-.624 1.424-1.104 2.64-1.104 2.144 0 3.936 1.456 3.936 3.968 0 2.384-1.808 3.936-4.32 3.936-3.104 0-4.464-2.496-4.464-5.744C10.112 2.944 11.344 0 14.816 0c2.528 0 3.712 1.712 3.84 3.2h-2.16c-.112-.96-.88-1.52-1.824-1.52-1.456 0-2.352 1.376-2.352 3.536zm2.256 5.136c1.2 0 2.08-.896 2.08-2.304 0-1.36-.88-2.256-2.08-2.256-1.216 0-2.128.896-2.128 2.256 0 1.392.912 2.304 2.128 2.304z"/>
        </g>
        <g id="seatnumber_36-with-service-icon" transform="translate(17.416 16.392)">
          <path d="M6.608 8.544c0-1.36-1.264-1.904-2.912-1.904h-.464V4.912h.384c1.664 0 2.704-.608 2.704-1.696 0-1.008-.88-1.552-1.84-1.552-1.328 0-2.176.848-2.288 2.048H.096C.352 1.408 1.952 0 4.608 0c1.936 0 3.936.928 3.936 3.12 0 1.12-.688 2.064-1.568 2.544A3.035 3.035 0 018.848 8.48c0 2.352-2.032 3.536-4.48 3.536C1.712 12.016.144 10.288 0 8.16h2.08c.16 1.168.912 2.192 2.352 2.192 1.2 0 2.176-.72 2.176-1.808zm5.712-3.328c.496-.624 1.424-1.104 2.64-1.104 2.144 0 3.936 1.456 3.936 3.968 0 2.384-1.808 3.936-4.32 3.936-3.104 0-4.464-2.496-4.464-5.744C10.112 2.944 11.344 0 14.816 0c2.528 0 3.712 1.712 3.84 3.2h-2.16c-.112-.96-.88-1.52-1.824-1.52-1.456 0-2.352 1.376-2.352 3.536zm2.256 5.136c1.2 0 2.08-.896 2.08-2.304 0-1.36-.88-2.256-2.08-2.256-1.216 0-2.128.896-2.128 2.256 0 1.392.912 2.304 2.128 2.304z" transform="translate(0 10)"/>
          <use id="pet-seat-icon-seatnumber_36" xlink:href="#pet-seat-icon" transform="translate(0 -12)"/>
        </g>
      </g>
      <g id="seat_35" transform="translate(495)">
        <path d="M41 .5c.966 0 1.841.392 2.475 1.025A3.489 3.489 0 0144.5 4h0v35c0 .966-.392 1.841-1.025 2.475A3.489 3.489 0 0141 42.5h0H.5V.5z" id="seat_35_shape" stroke="#1B50AF" fill="#FFF"/>
        <path id="Line" stroke="#1B50AF" fill="#FFF" stroke-linecap="square" d="M9.5.5v42.012"/>
        <g id="seatnumber_35" transform="translate(17.456 16.392)" fill="#1B50AF">
          <path d="M6.608 8.544c0-1.36-1.264-1.904-2.912-1.904h-.464V4.912h.384c1.664 0 2.704-.608 2.704-1.696 0-1.008-.88-1.552-1.84-1.552-1.328 0-2.176.848-2.288 2.048H.096C.352 1.408 1.952 0 4.608 0c1.936 0 3.936.928 3.936 3.12 0 1.12-.688 2.064-1.568 2.544A3.035 3.035 0 018.848 8.48c0 2.352-2.032 3.536-4.48 3.536C1.712 12.016.144 10.288 0 8.16h2.08c.16 1.168.912 2.192 2.352 2.192 1.2 0 2.176-.72 2.176-1.808zM16.56 8c0-1.584-1.072-2.368-2.144-2.368-1.024 0-1.76.512-1.984 1.056l-2.016-.096.768-6.384h7.152v1.856h-5.344l-.32 2.48c.48-.352 1.232-.64 2.304-.64 1.984 0 3.824 1.408 3.824 4.08 0 2.56-1.984 4.032-4.368 4.032-2.72 0-4.16-1.856-4.288-3.856h2.08c.128 1.2.816 2.192 2.24 2.192 1.216 0 2.096-.88 2.096-2.352z"/>
        </g>
        <g id="seatnumber_35-with-service-icon" transform="translate(17.456 16.392)">
          <path d="M6.608 8.544c0-1.36-1.264-1.904-2.912-1.904h-.464V4.912h.384c1.664 0 2.704-.608 2.704-1.696 0-1.008-.88-1.552-1.84-1.552-1.328 0-2.176.848-2.288 2.048H.096C.352 1.408 1.952 0 4.608 0c1.936 0 3.936.928 3.936 3.12 0 1.12-.688 2.064-1.568 2.544A3.035 3.035 0 018.848 8.48c0 2.352-2.032 3.536-4.48 3.536C1.712 12.016.144 10.288 0 8.16h2.08c.16 1.168.912 2.192 2.352 2.192 1.2 0 2.176-.72 2.176-1.808zM16.56 8c0-1.584-1.072-2.368-2.144-2.368-1.024 0-1.76.512-1.984 1.056l-2.016-.096.768-6.384h7.152v1.856h-5.344l-.32 2.48c.48-.352 1.232-.64 2.304-.64 1.984 0 3.824 1.408 3.824 4.08 0 2.56-1.984 4.032-4.368 4.032-2.72 0-4.16-1.856-4.288-3.856h2.08c.128 1.2.816 2.192 2.24 2.192 1.216 0 2.096-.88 2.096-2.352z" transform="translate(0 10)"/>
          <use id="pet-seat-icon-seatnumber_35" xlink:href="#pet-seat-icon" transform="translate(0 -12)"/>
        </g>
      </g>
      <g id="seat_29" transform="translate(551 164)">
        <path d="M41 .5c.966 0 1.841.392 2.475 1.025A3.489 3.489 0 0144.5 4h0v35c0 .966-.392 1.841-1.025 2.475A3.489 3.489 0 0141 42.5h0H.5V.5z" id="seat_29_shape" stroke="#1B50AF" fill="#FFF"/>
        <path id="Line" stroke="#1B50AF" fill="#FFF" stroke-linecap="square" d="M9.5.5v42.012"/>
        <g id="seatnumber_29" transform="translate(17.76 16.392)" fill="#1B50AF">
          <path d="M8.256 3.12c0 2.176-2.112 4.448-5.68 6.832h5.952v1.856H0v-1.792c3.728-3.008 6.032-4.944 6.032-6.784 0-1.008-.64-1.6-1.712-1.6-.976 0-1.968.592-1.968 2.32H.208C.176 1.552 1.872 0 4.448 0c2.32 0 3.808 1.104 3.808 3.12zM16 6.8c-.496.624-1.424 1.104-2.656 1.104-2.128 0-3.92-1.472-3.92-3.968C9.424 1.552 11.232 0 13.744 0c3.104 0 4.464 2.496 4.464 5.744 0 3.328-1.248 6.272-4.704 6.272-2.528 0-3.712-1.728-3.84-3.2h2.16c.112.96.864 1.504 1.824 1.504C15.104 10.32 16 8.944 16 6.8zm-2.256-5.12c-1.2 0-2.08.88-2.08 2.272 0 1.36.88 2.256 2.08 2.256 1.2 0 2.112-.896 2.112-2.256 0-1.376-.912-2.272-2.112-2.272z"/>
        </g>
        <g id="seatnumber_29-with-service-icon" transform="translate(17.76 16.392)">
          <path d="M8.256 3.12c0 2.176-2.112 4.448-5.68 6.832h5.952v1.856H0v-1.792c3.728-3.008 6.032-4.944 6.032-6.784 0-1.008-.64-1.6-1.712-1.6-.976 0-1.968.592-1.968 2.32H.208C.176 1.552 1.872 0 4.448 0c2.32 0 3.808 1.104 3.808 3.12zM16 6.8c-.496.624-1.424 1.104-2.656 1.104-2.128 0-3.92-1.472-3.92-3.968C9.424 1.552 11.232 0 13.744 0c3.104 0 4.464 2.496 4.464 5.744 0 3.328-1.248 6.272-4.704 6.272-2.528 0-3.712-1.728-3.84-3.2h2.16c.112.96.864 1.504 1.824 1.504C15.104 10.32 16 8.944 16 6.8zm-2.256-5.12c-1.2 0-2.08.88-2.08 2.272 0 1.36.88 2.256 2.08 2.256 1.2 0 2.112-.896 2.112-2.256 0-1.376-.912-2.272-2.112-2.272z" transform="translate(0 10)"/>
          <use id="pet-seat-icon-seatnumber_29" xlink:href="#pet-seat-icon" transform="translate(0 -12)"/>
        </g>
      </g>
      <g id="seat_32" transform="translate(551 43)">
        <path d="M41 .5c.966 0 1.841.392 2.475 1.025A3.489 3.489 0 0144.5 4h0v35c0 .966-.392 1.841-1.025 2.475A3.489 3.489 0 0141 42.5h0H.5V.5z" id="seat_32_shape" stroke="#1B50AF" fill="#FFF"/>
        <path id="Line" stroke="#1B50AF" fill="#FFF" stroke-linecap="square" d="M9.5.5v42.012"/>
        <g id="seatnumber_32" transform="translate(17.808 16.392)" fill="#1B50AF">
          <path d="M6.608 8.544c0-1.36-1.264-1.904-2.912-1.904h-.464V4.912h.384c1.664 0 2.704-.608 2.704-1.696 0-1.008-.88-1.552-1.84-1.552-1.328 0-2.176.848-2.288 2.048H.096C.352 1.408 1.952 0 4.608 0c1.936 0 3.936.928 3.936 3.12 0 1.12-.688 2.064-1.568 2.544A3.035 3.035 0 018.848 8.48c0 2.352-2.032 3.536-4.48 3.536C1.712 12.016.144 10.288 0 8.16h2.08c.16 1.168.912 2.192 2.352 2.192 1.2 0 2.176-.72 2.176-1.808zM18.096 3.12c0 2.176-2.112 4.448-5.68 6.832h5.952v1.856H9.84v-1.792c3.728-3.008 6.032-4.944 6.032-6.784 0-1.008-.64-1.6-1.712-1.6-.976 0-1.968.592-1.968 2.32h-2.144C10.016 1.552 11.712 0 14.288 0c2.32 0 3.808 1.104 3.808 3.12z"/>
        </g>
        <g id="seatnumber_32-with-service-icon" transform="translate(17.808 16.392)">
          <path d="M6.608 8.544c0-1.36-1.264-1.904-2.912-1.904h-.464V4.912h.384c1.664 0 2.704-.608 2.704-1.696 0-1.008-.88-1.552-1.84-1.552-1.328 0-2.176.848-2.288 2.048H.096C.352 1.408 1.952 0 4.608 0c1.936 0 3.936.928 3.936 3.12 0 1.12-.688 2.064-1.568 2.544A3.035 3.035 0 018.848 8.48c0 2.352-2.032 3.536-4.48 3.536C1.712 12.016.144 10.288 0 8.16h2.08c.16 1.168.912 2.192 2.352 2.192 1.2 0 2.176-.72 2.176-1.808zM18.096 3.12c0 2.176-2.112 4.448-5.68 6.832h5.952v1.856H9.84v-1.792c3.728-3.008 6.032-4.944 6.032-6.784 0-1.008-.64-1.6-1.712-1.6-.976 0-1.968.592-1.968 2.32h-2.144C10.016 1.552 11.712 0 14.288 0c2.32 0 3.808 1.104 3.808 3.12z" transform="translate(0 10)"/>
          <use id="pet-seat-icon-seatnumber_32" xlink:href="#pet-seat-icon" transform="translate(0 -12)"/>
        </g>
      </g>
      <g id="seat_31" transform="translate(551)">
        <path d="M41 .5c.966 0 1.841.392 2.475 1.025A3.489 3.489 0 0144.5 4h0v35c0 .966-.392 1.841-1.025 2.475A3.489 3.489 0 0141 42.5h0H.5V.5z" id="seat_31_shape" stroke="#1B50AF" fill="#FFF"/>
        <path id="Line" stroke="#1B50AF" fill="#FFF" stroke-linecap="square" d="M9.5.5v42.012"/>
        <g id="seatnumber_31" transform="translate(19.488 16.392)" fill="#1B50AF">
          <path d="M6.608 8.544c0-1.36-1.264-1.904-2.912-1.904h-.464V4.912h.384c1.664 0 2.704-.608 2.704-1.696 0-1.008-.88-1.552-1.84-1.552-1.328 0-2.176.848-2.288 2.048H.096C.352 1.408 1.952 0 4.608 0c1.936 0 3.936.928 3.936 3.12 0 1.12-.688 2.064-1.568 2.544A3.035 3.035 0 018.848 8.48c0 2.352-2.032 3.536-4.48 3.536C1.712 12.016.144 10.288 0 8.16h2.08c.16 1.168.912 2.192 2.352 2.192 1.2 0 2.176-.72 2.176-1.808zm5.36 3.264V3.136H9.472V1.632c1.68-.048 2.464-.16 3.024-1.424h1.68v11.6h-2.208z"/>
        </g>
        <g id="seatnumber_31-with-service-icon" transform="translate(19.488 16.392)">
          <path d="M6.608 8.544c0-1.36-1.264-1.904-2.912-1.904h-.464V4.912h.384c1.664 0 2.704-.608 2.704-1.696 0-1.008-.88-1.552-1.84-1.552-1.328 0-2.176.848-2.288 2.048H.096C.352 1.408 1.952 0 4.608 0c1.936 0 3.936.928 3.936 3.12 0 1.12-.688 2.064-1.568 2.544A3.035 3.035 0 018.848 8.48c0 2.352-2.032 3.536-4.48 3.536C1.712 12.016.144 10.288 0 8.16h2.08c.16 1.168.912 2.192 2.352 2.192 1.2 0 2.176-.72 2.176-1.808zm5.36 3.264V3.136H9.472V1.632c1.68-.048 2.464-.16 3.024-1.424h1.68v11.6h-2.208z" transform="translate(0 10)"/>
          <use id="pet-seat-icon-seatnumber_31" xlink:href="#pet-seat-icon" transform="translate(0 -12)"/>
        </g>
      </g>
      <g id="seat_25" transform="translate(607 164)">
        <path d="M41 .5c.966 0 1.841.392 2.475 1.025A3.489 3.489 0 0144.5 4h0v35c0 .966-.392 1.841-1.025 2.475A3.489 3.489 0 0141 42.5h0H.5V.5z" id="seat_25_shape" stroke="#1B50AF" fill="#FFF"/>
        <path id="Line" stroke="#1B50AF" fill="#FFF" stroke-linecap="square" d="M9.5.5v42.012"/>
        <g id="seatnumber_25" transform="translate(17.752 16.392)" fill="#1B50AF">
          <path d="M8.256 3.12c0 2.176-2.112 4.448-5.68 6.832h5.952v1.856H0v-1.792c3.728-3.008 6.032-4.944 6.032-6.784 0-1.008-.64-1.6-1.712-1.6-.976 0-1.968.592-1.968 2.32H.208C.176 1.552 1.872 0 4.448 0c2.32 0 3.808 1.104 3.808 3.12zM15.984 8c0-1.584-1.072-2.368-2.144-2.368-1.024 0-1.76.512-1.984 1.056L9.84 6.592l.768-6.384h7.152v1.856h-5.344l-.32 2.48c.48-.352 1.232-.64 2.304-.64 1.984 0 3.824 1.408 3.824 4.08 0 2.56-1.984 4.032-4.368 4.032-2.72 0-4.16-1.856-4.288-3.856h2.08c.128 1.2.816 2.192 2.24 2.192 1.216 0 2.096-.88 2.096-2.352z"/>
        </g>
        <g id="seatnumber_25-with-service-icon" transform="translate(17.752 16.392)">
          <path d="M8.256 3.12c0 2.176-2.112 4.448-5.68 6.832h5.952v1.856H0v-1.792c3.728-3.008 6.032-4.944 6.032-6.784 0-1.008-.64-1.6-1.712-1.6-.976 0-1.968.592-1.968 2.32H.208C.176 1.552 1.872 0 4.448 0c2.32 0 3.808 1.104 3.808 3.12zM15.984 8c0-1.584-1.072-2.368-2.144-2.368-1.024 0-1.76.512-1.984 1.056L9.84 6.592l.768-6.384h7.152v1.856h-5.344l-.32 2.48c.48-.352 1.232-.64 2.304-.64 1.984 0 3.824 1.408 3.824 4.08 0 2.56-1.984 4.032-4.368 4.032-2.72 0-4.16-1.856-4.288-3.856h2.08c.128 1.2.816 2.192 2.24 2.192 1.216 0 2.096-.88 2.096-2.352z" transform="translate(0 10)"/>
          <use id="pet-seat-icon-seatnumber_25" xlink:href="#pet-seat-icon" transform="translate(0 -12)"/>
        </g>
      </g>
      <g id="seat_28" transform="translate(607 43)">
        <path d="M41 .5c.966 0 1.841.392 2.475 1.025A3.489 3.489 0 0144.5 4h0v35c0 .966-.392 1.841-1.025 2.475A3.489 3.489 0 0141 42.5h0H.5V.5z" id="seat_28_shape" stroke="#1B50AF" fill="#FFF"/>
        <path id="Line" stroke="#1B50AF" fill="#FFF" stroke-linecap="square" d="M9.5.5v42.012"/>
        <g id="seatnumber_28" transform="translate(17.608 16.392)" fill="#1B50AF">
          <path d="M8.256 3.12c0 2.176-2.112 4.448-5.68 6.832h5.952v1.856H0v-1.792c3.728-3.008 6.032-4.944 6.032-6.784 0-1.008-.64-1.6-1.712-1.6-.976 0-1.968.592-1.968 2.32H.208C.176 1.552 1.872 0 4.448 0c2.32 0 3.808 1.104 3.808 3.12zm9.808-.144c0 1.04-.416 2.016-1.408 2.624 1.296.736 1.76 1.776 1.76 2.896 0 2.272-1.936 3.52-4.4 3.52-2.448 0-4.384-1.248-4.384-3.52 0-1.12.48-2.176 1.776-2.896-.96-.544-1.424-1.584-1.424-2.608C9.984 1.264 11.568 0 14.016 0c2.464 0 4.048 1.264 4.048 2.976zm-4.048-1.312c-1.152 0-1.888.624-1.888 1.584 0 .96.736 1.664 1.888 1.664s1.904-.704 1.904-1.664-.752-1.584-1.904-1.584zM11.888 8.4c0 1.152.832 1.952 2.128 1.952 1.312 0 2.144-.8 2.144-1.952s-.832-1.904-2.144-1.904c-1.296 0-2.128.752-2.128 1.904z"/>
        </g>
        <g id="seatnumber_28-with-service-icon" transform="translate(17.608 16.392)">
          <path d="M8.256 3.12c0 2.176-2.112 4.448-5.68 6.832h5.952v1.856H0v-1.792c3.728-3.008 6.032-4.944 6.032-6.784 0-1.008-.64-1.6-1.712-1.6-.976 0-1.968.592-1.968 2.32H.208C.176 1.552 1.872 0 4.448 0c2.32 0 3.808 1.104 3.808 3.12zm9.808-.144c0 1.04-.416 2.016-1.408 2.624 1.296.736 1.76 1.776 1.76 2.896 0 2.272-1.936 3.52-4.4 3.52-2.448 0-4.384-1.248-4.384-3.52 0-1.12.48-2.176 1.776-2.896-.96-.544-1.424-1.584-1.424-2.608C9.984 1.264 11.568 0 14.016 0c2.464 0 4.048 1.264 4.048 2.976zm-4.048-1.312c-1.152 0-1.888.624-1.888 1.584 0 .96.736 1.664 1.888 1.664s1.904-.704 1.904-1.664-.752-1.584-1.904-1.584zM11.888 8.4c0 1.152.832 1.952 2.128 1.952 1.312 0 2.144-.8 2.144-1.952s-.832-1.904-2.144-1.904c-1.296 0-2.128.752-2.128 1.904z" transform="translate(0 10)"/>
          <use id="pet-seat-icon-seatnumber_28" xlink:href="#pet-seat-icon" transform="translate(0 -12)"/>
        </g>
      </g>
      <g id="seat_27" transform="translate(607)">
        <path d="M41 .5c.966 0 1.841.392 2.475 1.025A3.489 3.489 0 0144.5 4h0v35c0 .966-.392 1.841-1.025 2.475A3.489 3.489 0 0141 42.5h0H.5V.5z" id="seat_27_shape" stroke="#1B50AF" fill="#FFF"/>
        <path id="Line" stroke="#1B50AF" fill="#FFF" stroke-linecap="square" d="M9.5.5v42.012"/>
        <g id="seatnumber_27" transform="translate(18.656 16.392)" fill="#1B50AF">
          <path d="M8.256 3.12c0 2.176-2.112 4.448-5.68 6.832h5.952v1.856H0v-1.792c3.728-3.008 6.032-4.944 6.032-6.784 0-1.008-.64-1.6-1.712-1.6-.976 0-1.968.592-1.968 2.32H.208C.176 1.552 1.872 0 4.448 0c2.32 0 3.808 1.104 3.808 3.12zM8.848.208h8.528v1.856c-3.024 3.088-4.496 5.568-4.72 9.744h-2.432c.192-4.032 2.336-7.296 4.928-9.744H8.848V.208z"/>
        </g>
        <g id="seatnumber_27-with-service-icon" transform="translate(18.656 16.392)">
          <path d="M8.256 3.12c0 2.176-2.112 4.448-5.68 6.832h5.952v1.856H0v-1.792c3.728-3.008 6.032-4.944 6.032-6.784 0-1.008-.64-1.6-1.712-1.6-.976 0-1.968.592-1.968 2.32H.208C.176 1.552 1.872 0 4.448 0c2.32 0 3.808 1.104 3.808 3.12zM8.848.208h8.528v1.856c-3.024 3.088-4.496 5.568-4.72 9.744h-2.432c.192-4.032 2.336-7.296 4.928-9.744H8.848V.208z" transform="translate(0 10)"/>
          <use id="pet-seat-icon-seatnumber_27" xlink:href="#pet-seat-icon" transform="translate(0 -12)"/>
        </g>
      </g>
      <g id="seat_49" transform="translate(196 164)">
        <path d="M41 .5c.966 0 1.841.392 2.475 1.025A3.489 3.489 0 0144.5 4h0v35c0 .966-.392 1.841-1.025 2.475A3.489 3.489 0 0141 42.5h0H.5V.5z" id="seat_49_shape" stroke="#1B50AF" fill="#FFF"/>
        <path id="Line" stroke="#1B50AF" fill="#FFF" stroke-linecap="square" d="M9.5.5v42.012"/>
        <g id="seatnumber_49" transform="translate(17.08 16.392)" fill="#1B50AF">
          <path d="M9.904 9.024H7.92v2.784H5.728V9.024H0V7.296L5.76.208h2.16v6.944h1.984v1.872zM2.416 7.152h3.312V3.008L2.416 7.152zM17.12 6.8c-.496.624-1.424 1.104-2.656 1.104-2.128 0-3.92-1.472-3.92-3.968 0-2.384 1.808-3.936 4.32-3.936 3.104 0 4.464 2.496 4.464 5.744 0 3.328-1.248 6.272-4.704 6.272-2.528 0-3.712-1.728-3.84-3.2h2.16c.112.96.864 1.504 1.824 1.504 1.456 0 2.352-1.376 2.352-3.52zm-2.256-5.12c-1.2 0-2.08.88-2.08 2.272 0 1.36.88 2.256 2.08 2.256 1.2 0 2.112-.896 2.112-2.256 0-1.376-.912-2.272-2.112-2.272z"/>
        </g>
        <g id="seatnumber_49-with-service-icon" transform="translate(17.08 16.392)">
          <path d="M9.904 9.024H7.92v2.784H5.728V9.024H0V7.296L5.76.208h2.16v6.944h1.984v1.872zM2.416 7.152h3.312V3.008L2.416 7.152zM17.12 6.8c-.496.624-1.424 1.104-2.656 1.104-2.128 0-3.92-1.472-3.92-3.968 0-2.384 1.808-3.936 4.32-3.936 3.104 0 4.464 2.496 4.464 5.744 0 3.328-1.248 6.272-4.704 6.272-2.528 0-3.712-1.728-3.84-3.2h2.16c.112.96.864 1.504 1.824 1.504 1.456 0 2.352-1.376 2.352-3.52zm-2.256-5.12c-1.2 0-2.08.88-2.08 2.272 0 1.36.88 2.256 2.08 2.256 1.2 0 2.112-.896 2.112-2.256 0-1.376-.912-2.272-2.112-2.272z" transform="translate(0 10)"/>
          <use id="pet-seat-icon-seatnumber_49" xlink:href="#pet-seat-icon" transform="translate(0 -12)"/>
        </g>
      </g>
      <g id="seat_52" transform="translate(196 43)">
        <path d="M41 .5c.966 0 1.841.392 2.475 1.025A3.489 3.489 0 0144.5 4h0v35c0 .966-.392 1.841-1.025 2.475A3.489 3.489 0 0141 42.5h0H.5V.5z" id="seat_52_shape" stroke="#1B50AF" fill="#FFF"/>
        <path id="Line" stroke="#1B50AF" fill="#FFF" stroke-linecap="square" d="M9.5.5v42.012"/>
        <g id="seatnumber_52" transform="translate(18.056 16.392)" fill="#1B50AF">
          <path d="M6.416 8c0-1.584-1.072-2.368-2.144-2.368-1.024 0-1.76.512-1.984 1.056L.272 6.592 1.04.208h7.152v1.856H2.848l-.32 2.48c.48-.352 1.232-.64 2.304-.64 1.984 0 3.824 1.408 3.824 4.08 0 2.56-1.984 4.032-4.368 4.032-2.72 0-4.16-1.856-4.288-3.856h2.08c.128 1.2.816 2.192 2.24 2.192 1.216 0 2.096-.88 2.096-2.352zM17.92 3.12c0 2.176-2.112 4.448-5.68 6.832h5.952v1.856H9.664v-1.792c3.728-3.008 6.032-4.944 6.032-6.784 0-1.008-.64-1.6-1.712-1.6-.976 0-1.968.592-1.968 2.32H9.872C9.84 1.552 11.536 0 14.112 0c2.32 0 3.808 1.104 3.808 3.12z"/>
        </g>
        <g id="seatnumber_52-with-service-icon" transform="translate(18.056 16.392)">
          <path d="M6.416 8c0-1.584-1.072-2.368-2.144-2.368-1.024 0-1.76.512-1.984 1.056L.272 6.592 1.04.208h7.152v1.856H2.848l-.32 2.48c.48-.352 1.232-.64 2.304-.64 1.984 0 3.824 1.408 3.824 4.08 0 2.56-1.984 4.032-4.368 4.032-2.72 0-4.16-1.856-4.288-3.856h2.08c.128 1.2.816 2.192 2.24 2.192 1.216 0 2.096-.88 2.096-2.352zM17.92 3.12c0 2.176-2.112 4.448-5.68 6.832h5.952v1.856H9.664v-1.792c3.728-3.008 6.032-4.944 6.032-6.784 0-1.008-.64-1.6-1.712-1.6-.976 0-1.968.592-1.968 2.32H9.872C9.84 1.552 11.536 0 14.112 0c2.32 0 3.808 1.104 3.808 3.12z" transform="translate(0 10)"/>
          <use id="pet-seat-icon-seatnumber_52" xlink:href="#pet-seat-icon" transform="translate(0 -12)"/>
        </g>
      </g>
      <g id="seat_51" transform="translate(196)">
        <path d="M41 .5c.966 0 1.841.392 2.475 1.025A3.489 3.489 0 0144.5 4h0v35c0 .966-.392 1.841-1.025 2.475A3.489 3.489 0 0141 42.5h0H.5V.5z" id="seat_51_shape" stroke="#1B50AF" fill="#FFF"/>
        <path id="Line" stroke="#1B50AF" fill="#FFF" stroke-linecap="square" d="M9.5.5v42.012"/>
        <g id="seatnumber_51" transform="translate(19.736 16.6)" fill="#1B50AF">
          <path d="M6.416 7.792c0-1.584-1.072-2.368-2.144-2.368-1.024 0-1.76.512-1.984 1.056L.272 6.384 1.04 0h7.152v1.856H2.848l-.32 2.48c.48-.352 1.232-.64 2.304-.64 1.984 0 3.824 1.408 3.824 4.08 0 2.56-1.984 4.032-4.368 4.032-2.72 0-4.16-1.856-4.288-3.856h2.08c.128 1.2.816 2.192 2.24 2.192 1.216 0 2.096-.88 2.096-2.352zm5.376 3.808V2.928H9.296V1.424c1.68-.048 2.464-.16 3.024-1.424H14v11.6h-2.208z"/>
        </g>
        <g id="seatnumber_51-with-service-icon" transform="translate(19.736 16.6)">
          <path d="M6.416 7.792c0-1.584-1.072-2.368-2.144-2.368-1.024 0-1.76.512-1.984 1.056L.272 6.384 1.04 0h7.152v1.856H2.848l-.32 2.48c.48-.352 1.232-.64 2.304-.64 1.984 0 3.824 1.408 3.824 4.08 0 2.56-1.984 4.032-4.368 4.032-2.72 0-4.16-1.856-4.288-3.856h2.08c.128 1.2.816 2.192 2.24 2.192 1.216 0 2.096-.88 2.096-2.352zm5.376 3.808V2.928H9.296V1.424c1.68-.048 2.464-.16 3.024-1.424H14v11.6h-2.208z" transform="translate(0 10)"/>
          <use id="pet-seat-icon-seatnumber_51" xlink:href="#pet-seat-icon" transform="translate(0 -12)"/>
        </g>
      </g>
      <g id="seat_53" transform="translate(140 164)">
        <path d="M41 .5c.966 0 1.841.392 2.475 1.025A3.489 3.489 0 0144.5 4h0v35c0 .966-.392 1.841-1.025 2.475A3.489 3.489 0 0141 42.5h0H.5V.5z" id="seat_53_shape" stroke="#1B50AF" fill="#FFF"/>
        <path id="Line" stroke="#1B50AF" fill="#FFF" stroke-linecap="square" d="M9.5.5v42.012"/>
        <g id="seatnumber_53" transform="translate(17.776 16.392)" fill="#1B50AF">
          <path d="M6.416 8c0-1.584-1.072-2.368-2.144-2.368-1.024 0-1.76.512-1.984 1.056L.272 6.592 1.04.208h7.152v1.856H2.848l-.32 2.48c.48-.352 1.232-.64 2.304-.64 1.984 0 3.824 1.408 3.824 4.08 0 2.56-1.984 4.032-4.368 4.032-2.72 0-4.16-1.856-4.288-3.856h2.08c.128 1.2.816 2.192 2.24 2.192 1.216 0 2.096-.88 2.096-2.352zm9.84.544c0-1.36-1.264-1.904-2.912-1.904h-.464V4.912h.384c1.664 0 2.704-.608 2.704-1.696 0-1.008-.88-1.552-1.84-1.552-1.328 0-2.176.848-2.288 2.048H9.744C10 1.408 11.6 0 14.256 0c1.936 0 3.936.928 3.936 3.12 0 1.12-.688 2.064-1.568 2.544a3.035 3.035 0 011.872 2.816c0 2.352-2.032 3.536-4.48 3.536-2.656 0-4.224-1.728-4.368-3.856h2.08c.16 1.168.912 2.192 2.352 2.192 1.2 0 2.176-.72 2.176-1.808z"/>
        </g>
        <g id="seatnumber_53-with-service-icon" transform="translate(17.776 16.392)">
          <path d="M6.416 8c0-1.584-1.072-2.368-2.144-2.368-1.024 0-1.76.512-1.984 1.056L.272 6.592 1.04.208h7.152v1.856H2.848l-.32 2.48c.48-.352 1.232-.64 2.304-.64 1.984 0 3.824 1.408 3.824 4.08 0 2.56-1.984 4.032-4.368 4.032-2.72 0-4.16-1.856-4.288-3.856h2.08c.128 1.2.816 2.192 2.24 2.192 1.216 0 2.096-.88 2.096-2.352zm9.84.544c0-1.36-1.264-1.904-2.912-1.904h-.464V4.912h.384c1.664 0 2.704-.608 2.704-1.696 0-1.008-.88-1.552-1.84-1.552-1.328 0-2.176.848-2.288 2.048H9.744C10 1.408 11.6 0 14.256 0c1.936 0 3.936.928 3.936 3.12 0 1.12-.688 2.064-1.568 2.544a3.035 3.035 0 011.872 2.816c0 2.352-2.032 3.536-4.48 3.536-2.656 0-4.224-1.728-4.368-3.856h2.08c.16 1.168.912 2.192 2.352 2.192 1.2 0 2.176-.72 2.176-1.808z" transform="translate(0 10)"/>
          <use id="pet-seat-icon-seatnumber_53" xlink:href="#pet-seat-icon" transform="translate(0 -12)"/>
        </g>
      </g>
      <g id="seat_45" transform="translate(252 164)">
        <path d="M41 .5c.966 0 1.841.392 2.475 1.025A3.489 3.489 0 0144.5 4h0v35c0 .966-.392 1.841-1.025 2.475A3.489 3.489 0 0141 42.5h0H.5V.5z" id="seat_45_shape" stroke="#1B50AF" fill="#FFF"/>
        <path id="Line" stroke="#1B50AF" fill="#FFF" stroke-linecap="square" d="M9.5.5v42.012"/>
        <g id="seatnumber_45" transform="translate(17.072 16.6)" fill="#1B50AF">
          <path d="M9.904 8.816H7.92V11.6H5.728V8.816H0V7.088L5.76 0h2.16v6.944h1.984v1.872zM2.416 6.944h3.312V2.8L2.416 6.944zm14.688.848c0-1.584-1.072-2.368-2.144-2.368-1.024 0-1.76.512-1.984 1.056l-2.016-.096L11.728 0h7.152v1.856h-5.344l-.32 2.48c.48-.352 1.232-.64 2.304-.64 1.984 0 3.824 1.408 3.824 4.08 0 2.56-1.984 4.032-4.368 4.032-2.72 0-4.16-1.856-4.288-3.856h2.08c.128 1.2.816 2.192 2.24 2.192 1.216 0 2.096-.88 2.096-2.352z"/>
        </g>
        <g id="seatnumber_45-with-service-icon" transform="translate(17.072 16.6)">
          <path d="M9.904 8.816H7.92V11.6H5.728V8.816H0V7.088L5.76 0h2.16v6.944h1.984v1.872zM2.416 6.944h3.312V2.8L2.416 6.944zm14.688.848c0-1.584-1.072-2.368-2.144-2.368-1.024 0-1.76.512-1.984 1.056l-2.016-.096L11.728 0h7.152v1.856h-5.344l-.32 2.48c.48-.352 1.232-.64 2.304-.64 1.984 0 3.824 1.408 3.824 4.08 0 2.56-1.984 4.032-4.368 4.032-2.72 0-4.16-1.856-4.288-3.856h2.08c.128 1.2.816 2.192 2.24 2.192 1.216 0 2.096-.88 2.096-2.352z" transform="translate(0 10)"/>
          <use id="pet-seat-icon-seatnumber_45" xlink:href="#pet-seat-icon" transform="translate(0 -12)"/>
        </g>
      </g>
      <g id="seat_48" transform="translate(252 43)">
        <path d="M41 .5c.966 0 1.841.392 2.475 1.025A3.489 3.489 0 0144.5 4h0v35c0 .966-.392 1.841-1.025 2.475A3.489 3.489 0 0141 42.5h0H.5V.5z" id="seat_48_shape" stroke="#1B50AF" fill="#FFF"/>
        <path id="Line" stroke="#1B50AF" fill="#FFF" stroke-linecap="square" d="M9.5.5v42.012"/>
        <g id="seatnumber_48" transform="translate(16.928 16.392)" fill="#1B50AF">
          <path d="M9.904 9.024H7.92v2.784H5.728V9.024H0V7.296L5.76.208h2.16v6.944h1.984v1.872zM2.416 7.152h3.312V3.008L2.416 7.152zm16.768-4.176c0 1.04-.416 2.016-1.408 2.624 1.296.736 1.76 1.776 1.76 2.896 0 2.272-1.936 3.52-4.4 3.52-2.448 0-4.384-1.248-4.384-3.52 0-1.12.48-2.176 1.776-2.896-.96-.544-1.424-1.584-1.424-2.608C11.104 1.264 12.688 0 15.136 0c2.464 0 4.048 1.264 4.048 2.976zm-4.048-1.312c-1.152 0-1.888.624-1.888 1.584 0 .96.736 1.664 1.888 1.664s1.904-.704 1.904-1.664-.752-1.584-1.904-1.584zM13.008 8.4c0 1.152.832 1.952 2.128 1.952 1.312 0 2.144-.8 2.144-1.952s-.832-1.904-2.144-1.904c-1.296 0-2.128.752-2.128 1.904z"/>
        </g>
        <g id="seatnumber_48-with-service-icon" transform="translate(16.928 16.392)">
          <path d="M9.904 9.024H7.92v2.784H5.728V9.024H0V7.296L5.76.208h2.16v6.944h1.984v1.872zM2.416 7.152h3.312V3.008L2.416 7.152zm16.768-4.176c0 1.04-.416 2.016-1.408 2.624 1.296.736 1.76 1.776 1.76 2.896 0 2.272-1.936 3.52-4.4 3.52-2.448 0-4.384-1.248-4.384-3.52 0-1.12.48-2.176 1.776-2.896-.96-.544-1.424-1.584-1.424-2.608C11.104 1.264 12.688 0 15.136 0c2.464 0 4.048 1.264 4.048 2.976zm-4.048-1.312c-1.152 0-1.888.624-1.888 1.584 0 .96.736 1.664 1.888 1.664s1.904-.704 1.904-1.664-.752-1.584-1.904-1.584zM13.008 8.4c0 1.152.832 1.952 2.128 1.952 1.312 0 2.144-.8 2.144-1.952s-.832-1.904-2.144-1.904c-1.296 0-2.128.752-2.128 1.904z" transform="translate(0 10)"/>
          <use id="pet-seat-icon-seatnumber_48" xlink:href="#pet-seat-icon" transform="translate(0 -12)"/>
        </g>
      </g>
      <g id="seat_47" transform="translate(252)">
        <path d="M41 .5c.966 0 1.841.392 2.475 1.025A3.489 3.489 0 0144.5 4h0v35c0 .966-.392 1.841-1.025 2.475A3.489 3.489 0 0141 42.5h0H.5V.5z" id="seat_47_shape" stroke="#1B50AF" fill="#FFF"/>
        <path id="Line" stroke="#1B50AF" fill="#FFF" stroke-linecap="square" d="M9.5.5v42.012"/>
        <g id="seatnumber_47" transform="translate(17.976 16.6)" fill="#1B50AF">
          <path d="M9.904 8.816H7.92V11.6H5.728V8.816H0V7.088L5.76 0h2.16v6.944h1.984v1.872zM2.416 6.944h3.312V2.8L2.416 6.944zM9.968 0h8.528v1.856C15.472 4.944 14 7.424 13.776 11.6h-2.432c.192-4.032 2.336-7.296 4.928-9.744H9.968V0z"/>
        </g>
        <g id="seatnumber_47-with-service-icon" transform="translate(17.976 16.6)">
          <path d="M9.904 8.816H7.92V11.6H5.728V8.816H0V7.088L5.76 0h2.16v6.944h1.984v1.872zM2.416 6.944h3.312V2.8L2.416 6.944zM9.968 0h8.528v1.856C15.472 4.944 14 7.424 13.776 11.6h-2.432c.192-4.032 2.336-7.296 4.928-9.744H9.968V0z" transform="translate(0 10)"/>
          <use id="pet-seat-icon-seatnumber_47" xlink:href="#pet-seat-icon" transform="translate(0 -12)"/>
        </g>
      </g>
      <g id="seat_41" transform="translate(308 164)">
        <path d="M41 .5c.966 0 1.841.392 2.475 1.025A3.489 3.489 0 0144.5 4h0v35c0 .966-.392 1.841-1.025 2.475A3.489 3.489 0 0141 42.5h0H.5V.5z" id="seat_41_shape" stroke="#1B50AF" fill="#FFF"/>
        <path id="Line" stroke="#1B50AF" fill="#FFF" stroke-linecap="square" d="M9.5.5v42.012"/>
        <g id="seatnumber_41" transform="translate(19.104 16.6)" fill="#1B50AF">
          <path d="M9.904 8.816H7.92V11.6H5.728V8.816H0V7.088L5.76 0h2.16v6.944h1.984v1.872zM2.416 6.944h3.312V2.8L2.416 6.944zM12.512 11.6V2.928h-2.496V1.424c1.68-.048 2.464-.16 3.024-1.424h1.68v11.6h-2.208z"/>
        </g>
        <g id="seatnumber_41-with-service-icon" transform="translate(19.104 16.6)">
          <path d="M9.904 8.816H7.92V11.6H5.728V8.816H0V7.088L5.76 0h2.16v6.944h1.984v1.872zM2.416 6.944h3.312V2.8L2.416 6.944zM12.512 11.6V2.928h-2.496V1.424c1.68-.048 2.464-.16 3.024-1.424h1.68v11.6h-2.208z" transform="translate(0 10)"/>
          <use id="pet-seat-icon-seatnumber_41" xlink:href="#pet-seat-icon" transform="translate(0 -12)"/>
        </g>
      </g>
      <g id="seat_44" transform="translate(308 43)">
        <path d="M41 .5c.966 0 1.841.392 2.475 1.025A3.489 3.489 0 0144.5 4h0v35c0 .966-.392 1.841-1.025 2.475A3.489 3.489 0 0141 42.5h0H.5V.5z" id="seat_44_shape" stroke="#1B50AF" fill="#FFF"/>
        <path id="Line" stroke="#1B50AF" fill="#FFF" stroke-linecap="square" d="M9.5.5v42.012"/>
        <g id="seatnumber_44" transform="translate(16.984 16.6)" fill="#1B50AF">
          <path d="M9.904 8.816H7.92V11.6H5.728V8.816H0V7.088L5.76 0h2.16v6.944h1.984v1.872zM2.416 6.944h3.312V2.8L2.416 6.944zm17.632 1.872h-1.984V11.6h-2.192V8.816h-5.728V7.088L15.904 0h2.16v6.944h1.984v1.872zM12.56 6.944h3.312V2.8L12.56 6.944z"/>
        </g>
        <g id="seatnumber_44-with-service-icon" transform="translate(16.984 16.6)">
          <path d="M9.904 8.816H7.92V11.6H5.728V8.816H0V7.088L5.76 0h2.16v6.944h1.984v1.872zM2.416 6.944h3.312V2.8L2.416 6.944zm17.632 1.872h-1.984V11.6h-2.192V8.816h-5.728V7.088L15.904 0h2.16v6.944h1.984v1.872zM12.56 6.944h3.312V2.8L12.56 6.944z" transform="translate(0 10)"/>
          <use id="pet-seat-icon-seatnumber_44" xlink:href="#pet-seat-icon" transform="translate(0 -12)"/>
        </g>
      </g>
      <g id="seat_43" transform="translate(308)">
        <path d="M41 .5c.966 0 1.841.392 2.475 1.025A3.489 3.489 0 0144.5 4h0v35c0 .966-.392 1.841-1.025 2.475A3.489 3.489 0 0141 42.5h0H.5V.5z" id="seat_43_shape" stroke="#1B50AF" fill="#FFF"/>
        <path id="Line" stroke="#1B50AF" fill="#FFF" stroke-linecap="square" d="M9.5.5v42.012"/>
        <g id="seatnumber_43" transform="translate(17.144 16.392)" fill="#1B50AF">
          <path d="M9.904 9.024H7.92v2.784H5.728V9.024H0V7.296L5.76.208h2.16v6.944h1.984v1.872zM2.416 7.152h3.312V3.008L2.416 7.152zm14.56 1.392c0-1.36-1.264-1.904-2.912-1.904H13.6V4.912h.384c1.664 0 2.704-.608 2.704-1.696 0-1.008-.88-1.552-1.84-1.552-1.328 0-2.176.848-2.288 2.048h-2.096C10.72 1.408 12.32 0 14.976 0c1.936 0 3.936.928 3.936 3.12 0 1.12-.688 2.064-1.568 2.544a3.035 3.035 0 011.872 2.816c0 2.352-2.032 3.536-4.48 3.536-2.656 0-4.224-1.728-4.368-3.856h2.08c.16 1.168.912 2.192 2.352 2.192 1.2 0 2.176-.72 2.176-1.808z"/>
        </g>
        <g id="seatnumber_43-with-service-icon" transform="translate(17.144 16.392)">
          <path d="M9.904 9.024H7.92v2.784H5.728V9.024H0V7.296L5.76.208h2.16v6.944h1.984v1.872zM2.416 7.152h3.312V3.008L2.416 7.152zm14.56 1.392c0-1.36-1.264-1.904-2.912-1.904H13.6V4.912h.384c1.664 0 2.704-.608 2.704-1.696 0-1.008-.88-1.552-1.84-1.552-1.328 0-2.176.848-2.288 2.048h-2.096C10.72 1.408 12.32 0 14.976 0c1.936 0 3.936.928 3.936 3.12 0 1.12-.688 2.064-1.568 2.544a3.035 3.035 0 011.872 2.816c0 2.352-2.032 3.536-4.48 3.536-2.656 0-4.224-1.728-4.368-3.856h2.08c.16 1.168.912 2.192 2.352 2.192 1.2 0 2.176-.72 2.176-1.808z" transform="translate(0 10)"/>
          <use id="pet-seat-icon-seatnumber_43" xlink:href="#pet-seat-icon" transform="translate(0 -12)"/>
        </g>
      </g>
      <g id="seat_37" transform="translate(384 164)">
        <path d="M41 .5c.966 0 1.841.392 2.475 1.025A3.489 3.489 0 0144.5 4h0v35c0 .966-.392 1.841-1.025 2.475A3.489 3.489 0 0141 42.5h0H.5V.5z" id="seat_37_shape" stroke="#1B50AF" fill="#FFF" transform="rotate(-180 22.5 21.5)"/>
        <path id="Line" stroke="#1B50AF" fill="#FFF" stroke-linecap="square" d="M35.5 42.5V.488"/>
        <g id="seatnumber_37" transform="translate(10.36 16.392)" fill="#1B50AF">
          <path d="M6.608 8.544c0-1.36-1.264-1.904-2.912-1.904h-.464V4.912h.384c1.664 0 2.704-.608 2.704-1.696 0-1.008-.88-1.552-1.84-1.552-1.328 0-2.176.848-2.288 2.048H.096C.352 1.408 1.952 0 4.608 0c1.936 0 3.936.928 3.936 3.12 0 1.12-.688 2.064-1.568 2.544A3.035 3.035 0 018.848 8.48c0 2.352-2.032 3.536-4.48 3.536C1.712 12.016.144 10.288 0 8.16h2.08c.16 1.168.912 2.192 2.352 2.192 1.2 0 2.176-.72 2.176-1.808zM9.424.208h8.528v1.856c-3.024 3.088-4.496 5.568-4.72 9.744H10.8c.192-4.032 2.336-7.296 4.928-9.744H9.424V.208z"/>
        </g>
        <g id="seatnumber_37-with-service-icon" transform="translate(10.36 16.392)">
          <path d="M6.608 8.544c0-1.36-1.264-1.904-2.912-1.904h-.464V4.912h.384c1.664 0 2.704-.608 2.704-1.696 0-1.008-.88-1.552-1.84-1.552-1.328 0-2.176.848-2.288 2.048H.096C.352 1.408 1.952 0 4.608 0c1.936 0 3.936.928 3.936 3.12 0 1.12-.688 2.064-1.568 2.544A3.035 3.035 0 018.848 8.48c0 2.352-2.032 3.536-4.48 3.536C1.712 12.016.144 10.288 0 8.16h2.08c.16 1.168.912 2.192 2.352 2.192 1.2 0 2.176-.72 2.176-1.808zM9.424.208h8.528v1.856c-3.024 3.088-4.496 5.568-4.72 9.744H10.8c.192-4.032 2.336-7.296 4.928-9.744H9.424V.208z" transform="translate(0 10)"/>
          <use id="pet-seat-icon-seatnumber_37" xlink:href="#pet-seat-icon" transform="translate(0 -12)"/>
        </g>
      </g>
      <g id="seat_39" transform="translate(384)">
        <path d="M41 .5c.966 0 1.841.392 2.475 1.025A3.489 3.489 0 0144.5 4h0v35c0 .966-.392 1.841-1.025 2.475A3.489 3.489 0 0141 42.5h0H.5V.5z" id="seat_39_shape" stroke="#1B50AF" fill="#FFF" transform="rotate(-180 22.5 21.5)"/>
        <path id="Line" stroke="#1B50AF" fill="#FFF" stroke-linecap="square" d="M35.5 42.5V.488"/>
        <g id="seatnumber_39" transform="translate(9.464 16.392)" fill="#1B50AF">
          <path d="M6.608 8.544c0-1.36-1.264-1.904-2.912-1.904h-.464V4.912h.384c1.664 0 2.704-.608 2.704-1.696 0-1.008-.88-1.552-1.84-1.552-1.328 0-2.176.848-2.288 2.048H.096C.352 1.408 1.952 0 4.608 0c1.936 0 3.936.928 3.936 3.12 0 1.12-.688 2.064-1.568 2.544A3.035 3.035 0 018.848 8.48c0 2.352-2.032 3.536-4.48 3.536C1.712 12.016.144 10.288 0 8.16h2.08c.16 1.168.912 2.192 2.352 2.192 1.2 0 2.176-.72 2.176-1.808zM16.576 6.8c-.496.624-1.424 1.104-2.656 1.104-2.128 0-3.92-1.472-3.92-3.968C10 1.552 11.808 0 14.32 0c3.104 0 4.464 2.496 4.464 5.744 0 3.328-1.248 6.272-4.704 6.272-2.528 0-3.712-1.728-3.84-3.2h2.16c.112.96.864 1.504 1.824 1.504 1.456 0 2.352-1.376 2.352-3.52zM14.32 1.68c-1.2 0-2.08.88-2.08 2.272 0 1.36.88 2.256 2.08 2.256 1.2 0 2.112-.896 2.112-2.256 0-1.376-.912-2.272-2.112-2.272z"/>
        </g>
        <g id="seatnumber_39-with-service-icon" transform="translate(9.464 16.392)">
          <path d="M6.608 8.544c0-1.36-1.264-1.904-2.912-1.904h-.464V4.912h.384c1.664 0 2.704-.608 2.704-1.696 0-1.008-.88-1.552-1.84-1.552-1.328 0-2.176.848-2.288 2.048H.096C.352 1.408 1.952 0 4.608 0c1.936 0 3.936.928 3.936 3.12 0 1.12-.688 2.064-1.568 2.544A3.035 3.035 0 018.848 8.48c0 2.352-2.032 3.536-4.48 3.536C1.712 12.016.144 10.288 0 8.16h2.08c.16 1.168.912 2.192 2.352 2.192 1.2 0 2.176-.72 2.176-1.808zM16.576 6.8c-.496.624-1.424 1.104-2.656 1.104-2.128 0-3.92-1.472-3.92-3.968C10 1.552 11.808 0 14.32 0c3.104 0 4.464 2.496 4.464 5.744 0 3.328-1.248 6.272-4.704 6.272-2.528 0-3.712-1.728-3.84-3.2h2.16c.112.96.864 1.504 1.824 1.504 1.456 0 2.352-1.376 2.352-3.52zM14.32 1.68c-1.2 0-2.08.88-2.08 2.272 0 1.36.88 2.256 2.08 2.256 1.2 0 2.112-.896 2.112-2.256 0-1.376-.912-2.272-2.112-2.272z" transform="translate(0 10)"/>
          <use id="pet-seat-icon-seatnumber_39" xlink:href="#pet-seat-icon" transform="translate(0 -12)"/>
        </g>
      </g>
      <g id="seat_40" transform="translate(384 43)">
        <path d="M41 .5c.966 0 1.841.392 2.475 1.025A3.489 3.489 0 0144.5 4h0v35c0 .966-.392 1.841-1.025 2.475A3.489 3.489 0 0141 42.5h0H.5V.5z" id="seat_40_shape" stroke="#1B50AF" fill="#FFF" transform="rotate(-180 22.5 21.5)"/>
        <path id="Line" stroke="#1B50AF" fill="#FFF" stroke-linecap="square" d="M35.5 42.5V.488"/>
        <g id="seatnumber_40" transform="translate(8.752 16.392)" fill="#1B50AF">
          <path d="M9.904 9.024H7.92v2.784H5.728V9.024H0V7.296L5.76.208h2.16v6.944h1.984v1.872zM2.416 7.152h3.312V3.008L2.416 7.152zm8.24-1.168c0-3.52 1.568-5.984 4.672-5.984 3.088 0 4.656 2.464 4.656 5.984 0 3.536-1.568 6.032-4.656 6.032-3.104 0-4.672-2.496-4.672-6.032zm7.072 0c0-2.768-.832-4.32-2.4-4.32s-2.416 1.552-2.416 4.32c0 2.784.848 4.368 2.416 4.368s2.4-1.584 2.4-4.368z"/>
        </g>
        <g id="seatnumber_40-with-service-icon" transform="translate(8.752 16.392)">
          <path d="M9.904 9.024H7.92v2.784H5.728V9.024H0V7.296L5.76.208h2.16v6.944h1.984v1.872zM2.416 7.152h3.312V3.008L2.416 7.152zm8.24-1.168c0-3.52 1.568-5.984 4.672-5.984 3.088 0 4.656 2.464 4.656 5.984 0 3.536-1.568 6.032-4.656 6.032-3.104 0-4.672-2.496-4.672-6.032zm7.072 0c0-2.768-.832-4.32-2.4-4.32s-2.416 1.552-2.416 4.32c0 2.784.848 4.368 2.416 4.368s2.4-1.584 2.4-4.368z" transform="translate(0 10)"/>
          <use id="pet-seat-icon-seatnumber_40" xlink:href="#pet-seat-icon" transform="translate(0 -12)"/>
        </g>
      </g>
      <g id="seat_21" transform="translate(683 164)">
        <path d="M41 .5c.966 0 1.841.392 2.475 1.025A3.489 3.489 0 0144.5 4h0v35c0 .966-.392 1.841-1.025 2.475A3.489 3.489 0 0141 42.5h0H.5V.5z" id="seat_21_shape" stroke="#1B50AF" fill="#FFF" transform="rotate(-180 22.5 21.5)"/>
        <path id="Line" stroke="#1B50AF" fill="#FFF" stroke-linecap="square" d="M35.5 42.5V.488"/>
        <g id="seatnumber_21" transform="translate(11.784 16.392)" fill="#1B50AF">
          <path d="M8.256 3.12c0 2.176-2.112 4.448-5.68 6.832h5.952v1.856H0v-1.792c3.728-3.008 6.032-4.944 6.032-6.784 0-1.008-.64-1.6-1.712-1.6-.976 0-1.968.592-1.968 2.32H.208C.176 1.552 1.872 0 4.448 0c2.32 0 3.808 1.104 3.808 3.12zm3.136 8.688V3.136H8.896V1.632c1.68-.048 2.464-.16 3.024-1.424h1.68v11.6h-2.208z"/>
        </g>
        <g id="seatnumber_21-with-service-icon" transform="translate(11.784 16.392)">
          <path d="M8.256 3.12c0 2.176-2.112 4.448-5.68 6.832h5.952v1.856H0v-1.792c3.728-3.008 6.032-4.944 6.032-6.784 0-1.008-.64-1.6-1.712-1.6-.976 0-1.968.592-1.968 2.32H.208C.176 1.552 1.872 0 4.448 0c2.32 0 3.808 1.104 3.808 3.12zm3.136 8.688V3.136H8.896V1.632c1.68-.048 2.464-.16 3.024-1.424h1.68v11.6h-2.208z" transform="translate(0 10)"/>
          <use id="pet-seat-icon-seatnumber_21" xlink:href="#pet-seat-icon" transform="translate(0 -12)"/>
        </g>
      </g>
      <g id="seat_23" transform="translate(683)">
        <path d="M41 .5c.966 0 1.841.392 2.475 1.025A3.489 3.489 0 0144.5 4h0v35c0 .966-.392 1.841-1.025 2.475A3.489 3.489 0 0141 42.5h0H.5V.5z" id="seat_23_shape" stroke="#1B50AF" fill="#FFF" transform="rotate(-180 22.5 21.5)"/>
        <path id="Line" stroke="#1B50AF" fill="#FFF" stroke-linecap="square" d="M35.5 42.5V.488"/>
        <g id="seatnumber_23" transform="translate(9.824 16.392)" fill="#1B50AF">
          <path d="M8.256 3.12c0 2.176-2.112 4.448-5.68 6.832h5.952v1.856H0v-1.792c3.728-3.008 6.032-4.944 6.032-6.784 0-1.008-.64-1.6-1.712-1.6-.976 0-1.968.592-1.968 2.32H.208C.176 1.552 1.872 0 4.448 0c2.32 0 3.808 1.104 3.808 3.12zm7.6 5.424c0-1.36-1.264-1.904-2.912-1.904h-.464V4.912h.384c1.664 0 2.704-.608 2.704-1.696 0-1.008-.88-1.552-1.84-1.552-1.328 0-2.176.848-2.288 2.048H9.344C9.6 1.408 11.2 0 13.856 0c1.936 0 3.936.928 3.936 3.12 0 1.12-.688 2.064-1.568 2.544a3.035 3.035 0 011.872 2.816c0 2.352-2.032 3.536-4.48 3.536-2.656 0-4.224-1.728-4.368-3.856h2.08c.16 1.168.912 2.192 2.352 2.192 1.2 0 2.176-.72 2.176-1.808z"/>
        </g>
        <g id="seatnumber_23-with-service-icon" transform="translate(9.824 16.392)">
          <path d="M8.256 3.12c0 2.176-2.112 4.448-5.68 6.832h5.952v1.856H0v-1.792c3.728-3.008 6.032-4.944 6.032-6.784 0-1.008-.64-1.6-1.712-1.6-.976 0-1.968.592-1.968 2.32H.208C.176 1.552 1.872 0 4.448 0c2.32 0 3.808 1.104 3.808 3.12zm7.6 5.424c0-1.36-1.264-1.904-2.912-1.904h-.464V4.912h.384c1.664 0 2.704-.608 2.704-1.696 0-1.008-.88-1.552-1.84-1.552-1.328 0-2.176.848-2.288 2.048H9.344C9.6 1.408 11.2 0 13.856 0c1.936 0 3.936.928 3.936 3.12 0 1.12-.688 2.064-1.568 2.544a3.035 3.035 0 011.872 2.816c0 2.352-2.032 3.536-4.48 3.536-2.656 0-4.224-1.728-4.368-3.856h2.08c.16 1.168.912 2.192 2.352 2.192 1.2 0 2.176-.72 2.176-1.808z" transform="translate(0 10)"/>
          <use id="pet-seat-icon-seatnumber_23" xlink:href="#pet-seat-icon" transform="translate(0 -12)"/>
        </g>
      </g>
      <g id="seat_24" transform="translate(683 43)">
        <path d="M41 .5c.966 0 1.841.392 2.475 1.025A3.489 3.489 0 0144.5 4h0v35c0 .966-.392 1.841-1.025 2.475A3.489 3.489 0 0141 42.5h0H.5V.5z" id="seat_24_shape" stroke="#1B50AF" fill="#FFF" transform="rotate(-180 22.5 21.5)"/>
        <path id="Line" stroke="#1B50AF" fill="#FFF" stroke-linecap="square" d="M35.5 42.5V.488"/>
        <g id="seatnumber_24" transform="translate(9.664 16.392)" fill="#1B50AF">
          <path d="M8.256 3.12c0 2.176-2.112 4.448-5.68 6.832h5.952v1.856H0v-1.792c3.728-3.008 6.032-4.944 6.032-6.784 0-1.008-.64-1.6-1.712-1.6-.976 0-1.968.592-1.968 2.32H.208C.176 1.552 1.872 0 4.448 0c2.32 0 3.808 1.104 3.808 3.12zm10.672 5.904h-1.984v2.784h-2.192V9.024H9.024V7.296l5.76-7.088h2.16v6.944h1.984v1.872zM11.44 7.152h3.312V3.008L11.44 7.152z"/>
        </g>
        <g id="seatnumber_24-with-service-icon" transform="translate(9.664 16.392)">
          <path d="M8.256 3.12c0 2.176-2.112 4.448-5.68 6.832h5.952v1.856H0v-1.792c3.728-3.008 6.032-4.944 6.032-6.784 0-1.008-.64-1.6-1.712-1.6-.976 0-1.968.592-1.968 2.32H.208C.176 1.552 1.872 0 4.448 0c2.32 0 3.808 1.104 3.808 3.12zm10.672 5.904h-1.984v2.784h-2.192V9.024H9.024V7.296l5.76-7.088h2.16v6.944h1.984v1.872zM11.44 7.152h3.312V3.008L11.44 7.152z" transform="translate(0 10)"/>
          <use id="pet-seat-icon-seatnumber_24" xlink:href="#pet-seat-icon" transform="translate(0 -12)"/>
        </g>
      </g>
      <g id="seat_17" transform="translate(739 164)">
        <path d="M41 .5c.966 0 1.841.392 2.475 1.025A3.489 3.489 0 0144.5 4h0v35c0 .966-.392 1.841-1.025 2.475A3.489 3.489 0 0141 42.5h0H.5V.5z" id="seat_17_shape" stroke="#1B50AF" fill="#FFF" transform="rotate(-180 22.5 21.5)"/>
        <path id="Line" stroke="#1B50AF" fill="#FFF" stroke-linecap="square" d="M35.5 42.5V.488"/>
        <g id="seatnumber_17" transform="translate(11.968 16.6)" fill="#1B50AF">
          <path d="M2.496 11.6V2.928H0V1.424C1.68 1.376 2.464 1.264 3.024 0h1.68v11.6H2.496zM5.856 0h8.528v1.856C11.36 4.944 9.888 7.424 9.664 11.6H7.232c.192-4.032 2.336-7.296 4.928-9.744H5.856V0z"/>
        </g>
        <g id="seatnumber_17-with-service-icon" transform="translate(11.968 16.6)">
          <path d="M2.496 11.6V2.928H0V1.424C1.68 1.376 2.464 1.264 3.024 0h1.68v11.6H2.496zM5.856 0h8.528v1.856C11.36 4.944 9.888 7.424 9.664 11.6H7.232c.192-4.032 2.336-7.296 4.928-9.744H5.856V0z" transform="translate(0 10)"/>
          <use id="pet-seat-icon-seatnumber_17" xlink:href="#pet-seat-icon" transform="translate(0 -12)"/>
        </g>
      </g>
      <g id="seat_19" transform="translate(739)">
        <path d="M41 .5c.966 0 1.841.392 2.475 1.025A3.489 3.489 0 0144.5 4h0v35c0 .966-.392 1.841-1.025 2.475A3.489 3.489 0 0141 42.5h0H.5V.5z" id="seat_19_shape" stroke="#1B50AF" fill="#FFF" transform="rotate(-180 22.5 21.5)"/>
        <path id="Line" stroke="#1B50AF" fill="#FFF" stroke-linecap="square" d="M35.5 42.5V.488"/>
        <g id="seatnumber_19" transform="translate(11.072 16.392)" fill="#1B50AF">
          <path d="M2.496 11.808V3.136H0V1.632c1.68-.048 2.464-.16 3.024-1.424h1.68v11.6H2.496zM13.008 6.8c-.496.624-1.424 1.104-2.656 1.104-2.128 0-3.92-1.472-3.92-3.968C6.432 1.552 8.24 0 10.752 0c3.104 0 4.464 2.496 4.464 5.744 0 3.328-1.248 6.272-4.704 6.272-2.528 0-3.712-1.728-3.84-3.2h2.16c.112.96.864 1.504 1.824 1.504 1.456 0 2.352-1.376 2.352-3.52zm-2.256-5.12c-1.2 0-2.08.88-2.08 2.272 0 1.36.88 2.256 2.08 2.256 1.2 0 2.112-.896 2.112-2.256 0-1.376-.912-2.272-2.112-2.272z"/>
        </g>
        <g id="seatnumber_19-with-service-icon" transform="translate(11.072 16.392)">
          <path d="M2.496 11.808V3.136H0V1.632c1.68-.048 2.464-.16 3.024-1.424h1.68v11.6H2.496zM13.008 6.8c-.496.624-1.424 1.104-2.656 1.104-2.128 0-3.92-1.472-3.92-3.968C6.432 1.552 8.24 0 10.752 0c3.104 0 4.464 2.496 4.464 5.744 0 3.328-1.248 6.272-4.704 6.272-2.528 0-3.712-1.728-3.84-3.2h2.16c.112.96.864 1.504 1.824 1.504 1.456 0 2.352-1.376 2.352-3.52zm-2.256-5.12c-1.2 0-2.08.88-2.08 2.272 0 1.36.88 2.256 2.08 2.256 1.2 0 2.112-.896 2.112-2.256 0-1.376-.912-2.272-2.112-2.272z" transform="translate(0 10)"/>
          <use id="pet-seat-icon-seatnumber_19" xlink:href="#pet-seat-icon" transform="translate(0 -12)"/>
        </g>
      </g>
      <g id="seat_20" transform="translate(739 43)">
        <path d="M41 .5c.966 0 1.841.392 2.475 1.025A3.489 3.489 0 0144.5 4h0v35c0 .966-.392 1.841-1.025 2.475A3.489 3.489 0 0141 42.5h0H.5V.5z" id="seat_20_shape" stroke="#1B50AF" fill="#FFF" transform="rotate(-180 22.5 21.5)"/>
        <path id="Line" stroke="#1B50AF" fill="#FFF" stroke-linecap="square" d="M35.5 42.5V.488"/>
        <g id="seatnumber_20" transform="translate(9.432 16.392)" fill="#1B50AF">
          <path d="M8.256 3.12c0 2.176-2.112 4.448-5.68 6.832h5.952v1.856H0v-1.792c3.728-3.008 6.032-4.944 6.032-6.784 0-1.008-.64-1.6-1.712-1.6-.976 0-1.968.592-1.968 2.32H.208C.176 1.552 1.872 0 4.448 0c2.32 0 3.808 1.104 3.808 3.12zm1.28 2.864C9.536 2.464 11.104 0 14.208 0c3.088 0 4.656 2.464 4.656 5.984 0 3.536-1.568 6.032-4.656 6.032-3.104 0-4.672-2.496-4.672-6.032zm7.072 0c0-2.768-.832-4.32-2.4-4.32s-2.416 1.552-2.416 4.32c0 2.784.848 4.368 2.416 4.368s2.4-1.584 2.4-4.368z"/>
        </g>
        <g id="seatnumber_20-with-service-icon" transform="translate(9.432 16.392)">
          <path d="M8.256 3.12c0 2.176-2.112 4.448-5.68 6.832h5.952v1.856H0v-1.792c3.728-3.008 6.032-4.944 6.032-6.784 0-1.008-.64-1.6-1.712-1.6-.976 0-1.968.592-1.968 2.32H.208C.176 1.552 1.872 0 4.448 0c2.32 0 3.808 1.104 3.808 3.12zm1.28 2.864C9.536 2.464 11.104 0 14.208 0c3.088 0 4.656 2.464 4.656 5.984 0 3.536-1.568 6.032-4.656 6.032-3.104 0-4.672-2.496-4.672-6.032zm7.072 0c0-2.768-.832-4.32-2.4-4.32s-2.416 1.552-2.416 4.32c0 2.784.848 4.368 2.416 4.368s2.4-1.584 2.4-4.368z" transform="translate(0 10)"/>
          <use id="pet-seat-icon-seatnumber_20" xlink:href="#pet-seat-icon" transform="translate(0 -12)"/>
        </g>
      </g>
      <g id="seat_13" transform="translate(795 164)">
        <path d="M41 .5c.966 0 1.841.392 2.475 1.025A3.489 3.489 0 0144.5 4h0v35c0 .966-.392 1.841-1.025 2.475A3.489 3.489 0 0141 42.5h0H.5V.5z" id="seat_13_shape" stroke="#1B50AF" fill="#FFF" transform="rotate(-180 22.5 21.5)"/>
        <path id="Line" stroke="#1B50AF" fill="#FFF" stroke-linecap="square" d="M35.5 42.5V.488"/>
        <g id="seatnumber_13" transform="translate(11.136 16.392)" fill="#1B50AF">
          <path d="M2.496 11.808V3.136H0V1.632c1.68-.048 2.464-.16 3.024-1.424h1.68v11.6H2.496zm10.368-3.264c0-1.36-1.264-1.904-2.912-1.904h-.464V4.912h.384c1.664 0 2.704-.608 2.704-1.696 0-1.008-.88-1.552-1.84-1.552-1.328 0-2.176.848-2.288 2.048H6.352C6.608 1.408 8.208 0 10.864 0 12.8 0 14.8.928 14.8 3.12c0 1.12-.688 2.064-1.568 2.544a3.035 3.035 0 011.872 2.816c0 2.352-2.032 3.536-4.48 3.536-2.656 0-4.224-1.728-4.368-3.856h2.08c.16 1.168.912 2.192 2.352 2.192 1.2 0 2.176-.72 2.176-1.808z"/>
        </g>
        <g id="seatnumber_13-with-service-icon" transform="translate(11.136 16.392)">
          <path d="M2.496 11.808V3.136H0V1.632c1.68-.048 2.464-.16 3.024-1.424h1.68v11.6H2.496zm10.368-3.264c0-1.36-1.264-1.904-2.912-1.904h-.464V4.912h.384c1.664 0 2.704-.608 2.704-1.696 0-1.008-.88-1.552-1.84-1.552-1.328 0-2.176.848-2.288 2.048H6.352C6.608 1.408 8.208 0 10.864 0 12.8 0 14.8.928 14.8 3.12c0 1.12-.688 2.064-1.568 2.544a3.035 3.035 0 011.872 2.816c0 2.352-2.032 3.536-4.48 3.536-2.656 0-4.224-1.728-4.368-3.856h2.08c.16 1.168.912 2.192 2.352 2.192 1.2 0 2.176-.72 2.176-1.808z" transform="translate(0 10)"/>
          <use id="pet-seat-icon-seatnumber_13" xlink:href="#pet-seat-icon" transform="translate(0 -12)"/>
        </g>
      </g>
      <g id="seat_15" transform="translate(795)">
        <path d="M41 .5c.966 0 1.841.392 2.475 1.025A3.489 3.489 0 0144.5 4h0v35c0 .966-.392 1.841-1.025 2.475A3.489 3.489 0 0141 42.5h0H.5V.5z" id="seat_15_shape" stroke="#1B50AF" fill="#FFF" transform="rotate(-180 22.5 21.5)"/>
        <path id="Line" stroke="#1B50AF" fill="#FFF" stroke-linecap="square" d="M35.5 42.5V.488"/>
        <g id="seatnumber_15" transform="translate(11.064 16.6)" fill="#1B50AF">
          <path d="M2.496 11.6V2.928H0V1.424C1.68 1.376 2.464 1.264 3.024 0h1.68v11.6H2.496zm10.496-3.808c0-1.584-1.072-2.368-2.144-2.368-1.024 0-1.76.512-1.984 1.056l-2.016-.096L7.616 0h7.152v1.856H9.424l-.32 2.48c.48-.352 1.232-.64 2.304-.64 1.984 0 3.824 1.408 3.824 4.08 0 2.56-1.984 4.032-4.368 4.032-2.72 0-4.16-1.856-4.288-3.856h2.08c.128 1.2.816 2.192 2.24 2.192 1.216 0 2.096-.88 2.096-2.352z"/>
        </g>
        <g id="seatnumber_15-with-service-icon" transform="translate(11.064 16.6)">
          <path d="M2.496 11.6V2.928H0V1.424C1.68 1.376 2.464 1.264 3.024 0h1.68v11.6H2.496zm10.496-3.808c0-1.584-1.072-2.368-2.144-2.368-1.024 0-1.76.512-1.984 1.056l-2.016-.096L7.616 0h7.152v1.856H9.424l-.32 2.48c.48-.352 1.232-.64 2.304-.64 1.984 0 3.824 1.408 3.824 4.08 0 2.56-1.984 4.032-4.368 4.032-2.72 0-4.16-1.856-4.288-3.856h2.08c.128 1.2.816 2.192 2.24 2.192 1.216 0 2.096-.88 2.096-2.352z" transform="translate(0 10)"/>
          <use id="pet-seat-icon-seatnumber_15" xlink:href="#pet-seat-icon" transform="translate(0 -12)"/>
        </g>
      </g>
      <g id="seat_16" transform="translate(795 43)">
        <path d="M41 .5c.966 0 1.841.392 2.475 1.025A3.489 3.489 0 0144.5 4h0v35c0 .966-.392 1.841-1.025 2.475A3.489 3.489 0 0141 42.5h0H.5V.5z" id="seat_16_shape" stroke="#1B50AF" fill="#FFF" transform="rotate(-180 22.5 21.5)"/>
        <path id="Line" stroke="#1B50AF" fill="#FFF" stroke-linecap="square" d="M35.5 42.5V.488"/>
        <g id="seatnumber_16" transform="translate(11.024 16.392)" fill="#1B50AF">
          <path d="M2.496 11.808V3.136H0V1.632c1.68-.048 2.464-.16 3.024-1.424h1.68v11.6H2.496zm6.256-6.592c.496-.624 1.424-1.104 2.64-1.104 2.144 0 3.936 1.456 3.936 3.968 0 2.384-1.808 3.936-4.32 3.936-3.104 0-4.464-2.496-4.464-5.744C6.544 2.944 7.776 0 11.248 0c2.528 0 3.712 1.712 3.84 3.2h-2.16c-.112-.96-.88-1.52-1.824-1.52-1.456 0-2.352 1.376-2.352 3.536zm2.256 5.136c1.2 0 2.08-.896 2.08-2.304 0-1.36-.88-2.256-2.08-2.256-1.216 0-2.128.896-2.128 2.256 0 1.392.912 2.304 2.128 2.304z"/>
        </g>
        <g id="seatnumber_16-with-service-icon" transform="translate(11.024 16.392)">
          <path d="M2.496 11.808V3.136H0V1.632c1.68-.048 2.464-.16 3.024-1.424h1.68v11.6H2.496zm6.256-6.592c.496-.624 1.424-1.104 2.64-1.104 2.144 0 3.936 1.456 3.936 3.968 0 2.384-1.808 3.936-4.32 3.936-3.104 0-4.464-2.496-4.464-5.744C6.544 2.944 7.776 0 11.248 0c2.528 0 3.712 1.712 3.84 3.2h-2.16c-.112-.96-.88-1.52-1.824-1.52-1.456 0-2.352 1.376-2.352 3.536zm2.256 5.136c1.2 0 2.08-.896 2.08-2.304 0-1.36-.88-2.256-2.08-2.256-1.216 0-2.128.896-2.128 2.256 0 1.392.912 2.304 2.128 2.304z" transform="translate(0 10)"/>
          <use id="pet-seat-icon-seatnumber_16" xlink:href="#pet-seat-icon" transform="translate(0 -12)"/>
        </g>
      </g>
      <g id="seat_9" transform="translate(851 164)">
        <path d="M41 .5c.966 0 1.841.392 2.475 1.025A3.489 3.489 0 0144.5 4h0v35c0 .966-.392 1.841-1.025 2.475A3.489 3.489 0 0141 42.5h0H.5V.5z" id="seat_9_shape" stroke="#1B50AF" fill="#FFF" transform="rotate(-180 22.5 21.5)"/>
        <path id="Line" stroke="#1B50AF" fill="#FFF" stroke-linecap="square" d="M35.5 42.5V.488"/>
        <g id="seatnumber_9" transform="translate(14.552 16.392)" fill="#1B50AF">
          <path d="M6.576 6.8c-.496.624-1.424 1.104-2.656 1.104C1.792 7.904 0 6.432 0 3.936 0 1.552 1.808 0 4.32 0c3.104 0 4.464 2.496 4.464 5.744 0 3.328-1.248 6.272-4.704 6.272-2.528 0-3.712-1.728-3.84-3.2H2.4c.112.96.864 1.504 1.824 1.504 1.456 0 2.352-1.376 2.352-3.52zM4.32 1.68c-1.2 0-2.08.88-2.08 2.272 0 1.36.88 2.256 2.08 2.256 1.2 0 2.112-.896 2.112-2.256 0-1.376-.912-2.272-2.112-2.272z"/>
        </g>
        <g id="seatnumber_9-with-service-icon" transform="translate(14.552 16.392)">
          <path d="M6.576 6.8c-.496.624-1.424 1.104-2.656 1.104C1.792 7.904 0 6.432 0 3.936 0 1.552 1.808 0 4.32 0c3.104 0 4.464 2.496 4.464 5.744 0 3.328-1.248 6.272-4.704 6.272-2.528 0-3.712-1.728-3.84-3.2H2.4c.112.96.864 1.504 1.824 1.504 1.456 0 2.352-1.376 2.352-3.52zM4.32 1.68c-1.2 0-2.08.88-2.08 2.272 0 1.36.88 2.256 2.08 2.256 1.2 0 2.112-.896 2.112-2.256 0-1.376-.912-2.272-2.112-2.272z" transform="translate(0 10)"/>
          <use id="pet-seat-icon-seatnumber_9" xlink:href="#pet-seat-icon" transform="translate(0 -12)"/>
        </g>
      </g>
      <g id="seat_11" transform="translate(851)">
        <path d="M41 .5c.966 0 1.841.392 2.475 1.025A3.489 3.489 0 0144.5 4h0v35c0 .966-.392 1.841-1.025 2.475A3.489 3.489 0 0141 42.5h0H.5V.5z" id="seat_11_shape" stroke="#1B50AF" fill="#FFF" transform="rotate(-180 22.5 21.5)"/>
        <path id="Line" stroke="#1B50AF" fill="#FFF" stroke-linecap="square" d="M35.5 42.5V.488"/>
        <g id="seatnumber_11" transform="translate(13.096 16.6)" fill="#1B50AF">
          <path d="M2.496 11.6V2.928H0V1.424C1.68 1.376 2.464 1.264 3.024 0h1.68v11.6H2.496zm5.904 0V2.928H5.904V1.424c1.68-.048 2.464-.16 3.024-1.424h1.68v11.6H8.4z"/>
        </g>
        <g id="seatnumber_11-with-service-icon" transform="translate(13.096 16.6)">
          <path d="M2.496 11.6V2.928H0V1.424C1.68 1.376 2.464 1.264 3.024 0h1.68v11.6H2.496zm5.904 0V2.928H5.904V1.424c1.68-.048 2.464-.16 3.024-1.424h1.68v11.6H8.4z" transform="translate(0 10)"/>
          <use id="pet-seat-icon-seatnumber_11" xlink:href="#pet-seat-icon" transform="translate(0 -12)"/>
        </g>
      </g>
      <g id="seat_12" transform="translate(851 43)">
        <path d="M41 .5c.966 0 1.841.392 2.475 1.025A3.489 3.489 0 0144.5 4h0v35c0 .966-.392 1.841-1.025 2.475A3.489 3.489 0 0141 42.5h0H.5V.5z" id="seat_12_shape" stroke="#1B50AF" fill="#FFF" transform="rotate(-180 22.5 21.5)"/>
        <path id="Line" stroke="#1B50AF" fill="#FFF" stroke-linecap="square" d="M35.5 42.5V.488"/>
        <g id="seatnumber_12" transform="translate(11.416 16.392)" fill="#1B50AF">
          <path d="M2.496 11.808V3.136H0V1.632c1.68-.048 2.464-.16 3.024-1.424h1.68v11.6H2.496zM14.528 3.12c0 2.176-2.112 4.448-5.68 6.832H14.8v1.856H6.272v-1.792C10 7.008 12.304 5.072 12.304 3.232c0-1.008-.64-1.6-1.712-1.6-.976 0-1.968.592-1.968 2.32H6.48C6.448 1.552 8.144 0 10.72 0c2.32 0 3.808 1.104 3.808 3.12z"/>
        </g>
        <g id="seatnumber_12-with-service-icon" transform="translate(11.416 16.392)">
          <path d="M2.496 11.808V3.136H0V1.632c1.68-.048 2.464-.16 3.024-1.424h1.68v11.6H2.496zM14.528 3.12c0 2.176-2.112 4.448-5.68 6.832H14.8v1.856H6.272v-1.792C10 7.008 12.304 5.072 12.304 3.232c0-1.008-.64-1.6-1.712-1.6-.976 0-1.968.592-1.968 2.32H6.48C6.448 1.552 8.144 0 10.72 0c2.32 0 3.808 1.104 3.808 3.12z" transform="translate(0 10)"/>
          <use id="pet-seat-icon-seatnumber_12" xlink:href="#pet-seat-icon" transform="translate(0 -12)"/>
        </g>
      </g>
      <g id="seat_5" transform="translate(907 164)">
        <path d="M41 .5c.966 0 1.841.392 2.475 1.025A3.489 3.489 0 0144.5 4h0v35c0 .966-.392 1.841-1.025 2.475A3.489 3.489 0 0141 42.5h0H.5V.5z" id="seat_5_shape" stroke="#1B50AF" fill="#FFF" transform="rotate(-180 22.5 21.5)"/>
        <path id="Line" stroke="#1B50AF" fill="#FFF" stroke-linecap="square" d="M35.5 42.5V.488"/>
        <g id="seatnumber_5" transform="translate(14.688 16.6)" fill="#1B50AF">
          <path d="M6.416 7.792c0-1.584-1.072-2.368-2.144-2.368-1.024 0-1.76.512-1.984 1.056L.272 6.384 1.04 0h7.152v1.856H2.848l-.32 2.48c.48-.352 1.232-.64 2.304-.64 1.984 0 3.824 1.408 3.824 4.08 0 2.56-1.984 4.032-4.368 4.032-2.72 0-4.16-1.856-4.288-3.856h2.08c.128 1.2.816 2.192 2.24 2.192 1.216 0 2.096-.88 2.096-2.352z"/>
        </g>
        <g id="seatnumber_5-with-service-icon" transform="translate(14.688 16.6)">
          <path d="M6.416 7.792c0-1.584-1.072-2.368-2.144-2.368-1.024 0-1.76.512-1.984 1.056L.272 6.384 1.04 0h7.152v1.856H2.848l-.32 2.48c.48-.352 1.232-.64 2.304-.64 1.984 0 3.824 1.408 3.824 4.08 0 2.56-1.984 4.032-4.368 4.032-2.72 0-4.16-1.856-4.288-3.856h2.08c.128 1.2.816 2.192 2.24 2.192 1.216 0 2.096-.88 2.096-2.352z" transform="translate(0 10)"/>
          <use id="pet-seat-icon-seatnumber_5" xlink:href="#pet-seat-icon" transform="translate(0 -12)"/>
        </g>
      </g>
      <g id="seat_7" transform="translate(907)">
        <path d="M.5.5h40.397c.967 0 1.842.392 2.475 1.025A3.489 3.489 0 0144.397 4h0v35c0 .966-.392 1.841-1.025 2.475a3.489 3.489 0 01-2.475 1.025h0H.5V.5z" id="seat_7_shape" stroke="#1B50AF" fill="#FFF" transform="rotate(-180 22.449 21.5)"/>
        <path id="Line" stroke="#1B50AF" fill="#FFF" stroke-linecap="square" d="M35.419 42.5V.488"/>
        <g id="seatnumber_7" transform="translate(14.829 16.6)" fill="#1B50AF">
          <path d="M0 0h8.528v1.856C5.504 4.944 4.032 7.424 3.808 11.6H1.376c.192-4.032 2.336-7.296 4.928-9.744H0V0z"/>
        </g>
        <g id="seatnumber_7-with-service-icon" transform="translate(14.829 16.6)">
          <path d="M0 0h8.528v1.856C5.504 4.944 4.032 7.424 3.808 11.6H1.376c.192-4.032 2.336-7.296 4.928-9.744H0V0z" transform="translate(0 10)"/>
          <use id="pet-seat-icon-seatnumber_7" xlink:href="#pet-seat-icon" transform="translate(0 -12)"/>
        </g>
      </g>
      <g id="seat_8" transform="translate(907 43)">
        <path d="M.5.5h40.397c.967 0 1.842.392 2.475 1.025A3.489 3.489 0 0144.397 4h0v35c0 .966-.392 1.841-1.025 2.475a3.489 3.489 0 01-2.475 1.025h0H.5V.5z" id="seat_8_shape" stroke="#1B50AF" fill="#FFF" transform="rotate(-180 22.449 21.5)"/>
        <path id="Line" stroke="#1B50AF" fill="#FFF" stroke-linecap="square" d="M35.419 42.5V.488"/>
        <g id="seatnumber_8" transform="translate(14.565 16.392)" fill="#1B50AF">
          <path d="M8.432 2.976c0 1.04-.416 2.016-1.408 2.624 1.296.736 1.76 1.776 1.76 2.896 0 2.272-1.936 3.52-4.4 3.52C1.936 12.016 0 10.768 0 8.496 0 7.376.48 6.32 1.776 5.6.816 5.056.352 4.016.352 2.992.352 1.264 1.936 0 4.384 0c2.464 0 4.048 1.264 4.048 2.976zM4.384 1.664c-1.152 0-1.888.624-1.888 1.584 0 .96.736 1.664 1.888 1.664s1.904-.704 1.904-1.664-.752-1.584-1.904-1.584zM2.256 8.4c0 1.152.832 1.952 2.128 1.952 1.312 0 2.144-.8 2.144-1.952s-.832-1.904-2.144-1.904c-1.296 0-2.128.752-2.128 1.904z"/>
        </g>
        <g id="seatnumber_8-with-service-icon" transform="translate(14.565 16.392)">
          <path d="M8.432 2.976c0 1.04-.416 2.016-1.408 2.624 1.296.736 1.76 1.776 1.76 2.896 0 2.272-1.936 3.52-4.4 3.52C1.936 12.016 0 10.768 0 8.496 0 7.376.48 6.32 1.776 5.6.816 5.056.352 4.016.352 2.992.352 1.264 1.936 0 4.384 0c2.464 0 4.048 1.264 4.048 2.976zM4.384 1.664c-1.152 0-1.888.624-1.888 1.584 0 .96.736 1.664 1.888 1.664s1.904-.704 1.904-1.664-.752-1.584-1.904-1.584zM2.256 8.4c0 1.152.832 1.952 2.128 1.952 1.312 0 2.144-.8 2.144-1.952s-.832-1.904-2.144-1.904c-1.296 0-2.128.752-2.128 1.904z" transform="translate(0 10)"/>
          <use id="pet-seat-icon-seatnumber_8" xlink:href="#pet-seat-icon" transform="translate(0 -12)"/>
        </g>
      </g>
      <g id="seat_1" transform="translate(963 164)">
        <path d="M41 .5c.966 0 1.841.392 2.475 1.025A3.489 3.489 0 0144.5 4h0v35c0 .966-.392 1.841-1.025 2.475A3.489 3.489 0 0141 42.5h0H.5V.5z" id="seat_1_shape" stroke="#1B50AF" fill="#FFF" transform="rotate(-180 22.5 21.5)"/>
        <path id="Line" stroke="#1B50AF" fill="#FFF" stroke-linecap="square" d="M35.5 42.5V.488"/>
        <g id="seatnumber_1" transform="translate(16.048 16.6)" fill="#1B50AF">
          <path d="M2.496 11.6V2.928H0V1.424C1.68 1.376 2.464 1.264 3.024 0h1.68v11.6H2.496z"/>
        </g>
        <g id="seatnumber_1-with-service-icon" transform="translate(16.048 16.6)">
          <path d="M2.496 11.6V2.928H0V1.424C1.68 1.376 2.464 1.264 3.024 0h1.68v11.6H2.496z" transform="translate(0 10)"/>
          <use id="pet-seat-icon-seatnumber_1" xlink:href="#pet-seat-icon" transform="translate(0 -12)"/>
        </g>
      </g>
      <g id="seat_3" transform="translate(963)">
        <path d="M41 .5c.966 0 1.841.392 2.475 1.025A3.489 3.489 0 0144.5 4h0v35c0 .966-.392 1.841-1.025 2.475A3.489 3.489 0 0141 42.5h0H.5V.5z" id="seat_3_shape" stroke="#1B50AF" fill="#FFF" transform="rotate(-180 22.5 21.5)"/>
        <path id="Line" stroke="#1B50AF" fill="#FFF" stroke-linecap="square" d="M35.5 42.5V.488"/>
        <g id="seatnumber_3" transform="translate(14.44 16.392)" fill="#1B50AF">
          <path d="M6.608 8.544c0-1.36-1.264-1.904-2.912-1.904h-.464V4.912h.384c1.664 0 2.704-.608 2.704-1.696 0-1.008-.88-1.552-1.84-1.552-1.328 0-2.176.848-2.288 2.048H.096C.352 1.408 1.952 0 4.608 0c1.936 0 3.936.928 3.936 3.12 0 1.12-.688 2.064-1.568 2.544A3.035 3.035 0 018.848 8.48c0 2.352-2.032 3.536-4.48 3.536C1.712 12.016.144 10.288 0 8.16h2.08c.16 1.168.912 2.192 2.352 2.192 1.2 0 2.176-.72 2.176-1.808z"/>
        </g>
        <g id="seatnumber_3-with-service-icon" transform="translate(14.44 16.392)">
          <path d="M6.608 8.544c0-1.36-1.264-1.904-2.912-1.904h-.464V4.912h.384c1.664 0 2.704-.608 2.704-1.696 0-1.008-.88-1.552-1.84-1.552-1.328 0-2.176.848-2.288 2.048H.096C.352 1.408 1.952 0 4.608 0c1.936 0 3.936.928 3.936 3.12 0 1.12-.688 2.064-1.568 2.544A3.035 3.035 0 018.848 8.48c0 2.352-2.032 3.536-4.48 3.536C1.712 12.016.144 10.288 0 8.16h2.08c.16 1.168.912 2.192 2.352 2.192 1.2 0 2.176-.72 2.176-1.808z" transform="translate(0 10)"/>
          <use id="pet-seat-icon-seatnumber_3" xlink:href="#pet-seat-icon" transform="translate(0 -12)"/>
        </g>
      </g>
      <g id="seat_4" transform="translate(963 43)">
        <path d="M41 .5c.966 0 1.841.392 2.475 1.025A3.489 3.489 0 0144.5 4h0v35c0 .966-.392 1.841-1.025 2.475A3.489 3.489 0 0141 42.5h0H.5V.5z" id="seat_4_shape" stroke="#1B50AF" fill="#FFF" transform="rotate(-180 22.5 21.5)"/>
        <path id="Line" stroke="#1B50AF" fill="#FFF" stroke-linecap="square" d="M35.5 42.5V.488"/>
        <g id="seatnumber_4" transform="translate(14.056 16.6)" fill="#1B50AF">
          <path d="M9.904 8.816H7.92V11.6H5.728V8.816H0V7.088L5.76 0h2.16v6.944h1.984v1.872zM2.416 6.944h3.312V2.8L2.416 6.944z"/>
        </g>
        <g id="seatnumber_4-with-service-icon" transform="translate(14.056 16.6)">
          <path d="M9.904 8.816H7.92V11.6H5.728V8.816H0V7.088L5.76 0h2.16v6.944h1.984v1.872zM2.416 6.944h3.312V2.8L2.416 6.944z" transform="translate(0 10)"/>
          <use id="pet-seat-icon-seatnumber_4" xlink:href="#pet-seat-icon" transform="translate(0 -12)"/>
        </g>
      </g>
    </g>
    <g id="Service-badges" transform="translate(225 21)">
      <g id="service-badge" transform="translate(1224)">
        <circle stroke="#fff" stroke-width="2" fill="#f2f2f2" cx="29" cy="29" r="28"/>
        <g id="Icon/Service/WC" transform="translate(17 17)">
          <path d="M0 0h24v24H0z"/>
          <path d="M19.16 7a5.221 5.221 0 014.78 3.146l-.853.377c-.518.228-1.101.055-1.468-.378A3.221 3.221 0 0019.16 9c-1.781 0-3.23 1.458-3.23 3.25s1.449 3.25 3.23 3.25a3.22 3.22 0 002.46-1.145c.367-.432.95-.605 1.468-.377l.854.376a5.22 5.22 0 01-4.782 3.146c-2.877 0-5.218-2.354-5.218-5.25 0-2.895 2.341-5.25 5.218-5.25zm-12.177.165c1.017 0 1.83.703 1.979 1.709l.951 6.46 1.383-5.572.374-1.511a1.25 1.25 0 011.213-.949h1.083l-.44 1.775-1.671 6.739a1.978 1.978 0 01-1.937 1.519l-.101-.002a1.982 1.982 0 01-1.882-1.707l-.951-6.46-.952 6.46a1.98 1.98 0 01-1.883 1.707c-.968.033-1.805-.577-2.038-1.517L0 7.302h1.083a1.25 1.25 0 011.213.949l.3 1.209 1.457 5.874.952-6.46a1.963 1.963 0 011.978-1.709z" fill="#1b50af"/>
        </g>
      </g>
      <g id="service-badge" transform="translate(570 17)">
        <circle stroke="#fff" stroke-width="2" fill="#f2f2f2" cx="29" cy="29" r="28"/>
        <g id="Icon/Service/Coffee" transform="translate(17 17)">
          <path d="M0 0h24v24H0z"/>
          <path d="M16 9c.654 0 1.236.315 1.6.802A3.976 3.976 0 0120 9c2.206 0 4 1.794 4 4s-1.794 4-4 4h-1.25v-.75c0-.69.56-1.25 1.25-1.25 1.103 0 2-.897 2-2s-.897-2-2-2-2 .897-2 2v.046c0 2.39-.742 4.675-2.148 6.61l-1.316 1.812a2.616 2.616 0 00-.3.532H19v.75c0 .69-.56 1.25-1.25 1.25H2.25C1.56 24 1 23.44 1 22.75V22h4.763a2.616 2.616 0 00-.299-.532l-1.316-1.812A11.176 11.176 0 012 13.046V11c0-1.103.897-2 2-2h12zm0 2H4v2.046a9.19 9.19 0 001.766 5.434l1.316 1.811c.376.518.636 1.096.772 1.709h4.292a4.576 4.576 0 01.772-1.709l1.316-1.811A9.19 9.19 0 0016 13.046V11zm.028-11v1.395c0 .591-.176 1.17-.504 1.663l-1.328 1.993a.995.995 0 00-.168.554v.145c0 .69-.56 1.25-1.25 1.25h-.75V5.606c0-.593.175-1.171.504-1.664l1.328-1.993a.999.999 0 00.168-.554V1.25c0-.69.56-1.25 1.25-1.25h.75zm-5 0v1.395c0 .591-.176 1.17-.504 1.663L9.196 5.051a.995.995 0 00-.168.554v.145c0 .69-.56 1.25-1.25 1.25h-.75V5.606c0-.593.175-1.171.504-1.664L8.86 1.948a.999.999 0 00.168-.554V1.25c0-.69.56-1.25 1.25-1.25h.75z" fill="#1b50af"/>
        </g>
      </g>
      <g id="service-badge" transform="translate(1154)">
        <circle stroke="#fff" stroke-width="2" fill="#f2f2f2" cx="29" cy="29" r="28"/>
        <g id="Icon/Service/Luggage" transform="translate(17 17)">
          <path d="M0 0h24v24H0z"/>
          <path d="M10 4.25V4a1 1 0 011-1h2a1 1 0 011 1v.25c0 .69.56 1.25 1.25 1.25H16V4a3 3 0 00-3-3h-2a3 3 0 00-3 3v1.5h.75c.69 0 1.25-.56 1.25-1.25zM22 18c0 .552-.448 1-1 1h-3V9.5h-.75c-.69 0-1.25.56-1.25 1.25V19H8v-8.25c0-.69-.56-1.25-1.25-1.25H6V19H3c-.551 0-1-.448-1-1V9.5c0-.552.449-1 1-1h18c.552 0 1 .448 1 1V18zM21 6.5H3c-1.655 0-3 1.346-3 3V18c0 1.654 1.345 3 3 3h1v.75c0 .69.56 1.25 1.25 1.25H6v-2h12v2h.75c.69 0 1.25-.56 1.25-1.25V21h1c1.654 0 3-1.346 3-3V9.5c0-1.654-1.346-3-3-3z" fill="#1b50af"/>
        </g>
      </g>
      <g id="service-badge">
        <circle stroke="#fff" stroke-width="2" fill="#f2f2f2" cx="29" cy="29" r="28"/>
        <g id="Icon/Service/Luggage" transform="translate(17 17)">
          <path d="M0 0h24v24H0z"/>
          <path d="M10 4.25V4a1 1 0 011-1h2a1 1 0 011 1v.25c0 .69.56 1.25 1.25 1.25H16V4a3 3 0 00-3-3h-2a3 3 0 00-3 3v1.5h.75c.69 0 1.25-.56 1.25-1.25zM22 18c0 .552-.448 1-1 1h-3V9.5h-.75c-.69 0-1.25.56-1.25 1.25V19H8v-8.25c0-.69-.56-1.25-1.25-1.25H6V19H3c-.551 0-1-.448-1-1V9.5c0-.552.449-1 1-1h18c.552 0 1 .448 1 1V18zM21 6.5H3c-1.655 0-3 1.346-3 3V18c0 1.654 1.345 3 3 3h1v.75c0 .69.56 1.25 1.25 1.25H6v-2h12v2h.75c.69 0 1.25-.56 1.25-1.25V21h1c1.654 0 3-1.346 3-3V9.5c0-1.654-1.346-3-3-3z" fill="#1b50af"/>
        </g>
      </g>
      <g id="service-badge" transform="translate(1154 137)">
        <circle stroke="#fff" stroke-width="2" fill="#f2f2f2" cx="29" cy="29" r="28"/>
        <g id="Icon/Service/Luggage" transform="translate(17 17)">
          <path d="M0 0h24v24H0z"/>
          <path d="M10 4.25V4a1 1 0 011-1h2a1 1 0 011 1v.25c0 .69.56 1.25 1.25 1.25H16V4a3 3 0 00-3-3h-2a3 3 0 00-3 3v1.5h.75c.69 0 1.25-.56 1.25-1.25zM22 18c0 .552-.448 1-1 1h-3V9.5h-.75c-.69 0-1.25.56-1.25 1.25V19H8v-8.25c0-.69-.56-1.25-1.25-1.25H6V19H3c-.551 0-1-.448-1-1V9.5c0-.552.449-1 1-1h18c.552 0 1 .448 1 1V18zM21 6.5H3c-1.655 0-3 1.346-3 3V18c0 1.654 1.345 3 3 3h1v.75c0 .69.56 1.25 1.25 1.25H6v-2h12v2h.75c.69 0 1.25-.56 1.25-1.25V21h1c1.654 0 3-1.346 3-3V9.5c0-1.654-1.346-3-3-3z" fill="#1b50af"/>
        </g>
      </g>
      <g id="service-badge" transform="translate(0 137)">
        <circle stroke="#fff" stroke-width="2" fill="#f2f2f2" cx="29" cy="29" r="28"/>
        <g id="Icon/Service/Luggage" transform="translate(17 17)">
          <path d="M0 0h24v24H0z"/>
          <path d="M10 4.25V4a1 1 0 011-1h2a1 1 0 011 1v.25c0 .69.56 1.25 1.25 1.25H16V4a3 3 0 00-3-3h-2a3 3 0 00-3 3v1.5h.75c.69 0 1.25-.56 1.25-1.25zM22 18c0 .552-.448 1-1 1h-3V9.5h-.75c-.69 0-1.25.56-1.25 1.25V19H8v-8.25c0-.69-.56-1.25-1.25-1.25H6V19H3c-.551 0-1-.448-1-1V9.5c0-.552.449-1 1-1h18c.552 0 1 .448 1 1V18zM21 6.5H3c-1.655 0-3 1.346-3 3V18c0 1.654 1.345 3 3 3h1v.75c0 .69.56 1.25 1.25 1.25H6v-2h12v2h.75c.69 0 1.25-.56 1.25-1.25V21h1c1.654 0 3-1.346 3-3V9.5c0-1.654-1.346-3-3-3z" fill="#1b50af"/>
        </g>
      </g>
      <g id="service-badge" transform="translate(169 90)">
        <circle stroke="#fff" stroke-width="2" fill="#f2f2f2" cx="29" cy="29" r="28"/>
        <g id="Icon/Service/NegotiationCabin" transform="translate(17 17)">
          <path d="M0 0h24v24H0z"/>
          <path d="M19.645 5a1.75 1.75 0 100-3.5 1.75 1.75 0 000 3.5zm3.993 2.552A2.998 2.998 0 0021.01 6h-.45a3 3 0 00-2.934 2.373l-.072.337a1 1 0 01-.978.79h-.825c-.69 0-1.25.56-1.25 1.25v.75h2.075a3 3 0 002.934-2.373l.072-.335c.098-.462.507-.792.979-.792h.45c.303 0 .586.136.777.371.19.236.264.54.2.837l-1.186 5.5a1 1 0 01-.979.792H16.68a2.98 2.98 0 00-2.928 2.349L12.598 23h1.054a1.25 1.25 0 001.22-.979l.832-3.738a1 1 0 01.976-.783h3.142a3 3 0 002.935-2.375l1.166-5.403c.156-.734.082-1.514-.285-2.17zM16 7.25C16 6.56 15.44 6 14.75 6h-5.5C8.56 6 8 6.56 8 7.25V8h8v-.75zM12 5a1.75 1.75 0 100-3.5A1.75 1.75 0 0012 5zm-6.5 8.25c0 .69.56 1.25 1.25 1.25h10.5c.69 0 1.25-.56 1.25-1.25v-.75h-13v.75zM4.356 5a1.75 1.75 0 100-3.5 1.75 1.75 0 000 3.5zM7.32 15.5H4.178c-.472 0-.88-.33-.979-.791L2.013 9.207a.994.994 0 01.2-.837A.997.997 0 012.992 8h.45c.472 0 .88.33.979.792l.071.335A3 3 0 007.425 11.5H9.5v-.75c0-.69-.56-1.25-1.25-1.25h-.825a1 1 0 01-.978-.79l-.072-.338A3 3 0 003.442 6H2.99A2.997 2.997 0 00.362 7.552c-.367.655-.44 1.436-.285 2.17l1.166 5.403A3 3 0 004.178 17.5H7.32a1 1 0 01.976.783l.832 3.738a1.25 1.25 0 001.22.979h1.055l-1.155-5.151A2.98 2.98 0 007.321 15.5z" fill="#1b50af"/>
        </g>
      </g>
    </g>
    <g id="Dynamic-service-areas" transform="translate(502 101)">
      <g id="servicearea_37-77">
        <path d="M0 0h289v78H0z"/>
      </g>
      <g id="servicearea_1-36" transform="translate(355)">
        <path d="M0 0h513v78H0z"/>
      </g>
    </g>
  </g>
</svg>
