<svg viewBox="0 0 1586 237"
  xmlns="http://www.w3.org/2000/svg"
  xmlns:xlink="http://www.w3.org/1999/xlink"
  xmlns:vr="http://vr/wagonmap" preserveAspectRatio="xMinYMin meet">
  <defs>
    <svg id="pet-seat-icon" viewBox="0 0 620 620"
      xmlns="http://www.w3.org/2000/svg" preserveAspectRatio="xMinYMin meet">
      <g fill-rule="evenodd">
        <path d="M42.2 15.868a2.013 2.013 0 01-.716.132H27.548a2 2 0 01-1.02-.279l-7.883-4.669-2.736-6.519A2.5 2.5 0 0013.604 3h-2.676l1.26 3h-1.204a6 6 0 00-6 6v.099l-3.699 1.416a2 2 0 00-1.152 2.584l1.263 3.274A6 6 0 006.906 23h3.078v4.388c0 1.256.395 2.481 1.127 3.501l1.873 2.606V45h1.5a2.5 2.5 0 002.5-2.5v-9.004c0-.837-.263-1.654-.752-2.334l-1.87-2.606a2.002 2.002 0 01-.378-1.169V23a4 4 0 00-4-4H6.906a2 2 0 01-1.867-1.284l-.454-1.18 1.64-.627c1.581-.606 2.787-2.116 2.76-3.81V12c-.019-1.12.883-1.997 2-1.997h2.883l1.09 2.597a4.002 4.002 0 001.65 1.893l7.881 4.669a5.996 5.996 0 003.06.838h13.934c.735 0 1.462-.134 2.148-.397l2.748-1.053a2.5 2.5 0 001.605-2.334v-2.564L42.2 15.868zm4.067 8.562a2.499 2.499 0 00-3.228-1.44l-1.4.537 1.212 3.169c.088.228.133.471.133.715v17.584h1.5a2.5 2.5 0 002.5-2.5V27.41a6.01 6.01 0 00-.397-2.146l-.32-.834zm-9.445 4.117a4.001 4.001 0 00-4.668-1.384l-9.359 3.59a6.001 6.001 0 00-3.853 5.663L18.984 45l1.493-.007a2.501 2.501 0 002.488-2.52l-.023-6.097a2.005 2.005 0 011.288-1.889l9.356-3.589 3.016 4.153a2 2 0 01.382 1.175V45h1.5a2.5 2.5 0 002.5-2.5v-6.277c0-1.266-.4-2.5-1.145-3.524l-3.017-4.152z"/>
      </g>
    </svg>
  </defs>
  <g id="TTC" stroke="none" stroke-width="1" fill="none" fill-rule="evenodd">
    <path fill="#FFF" d="M0 0h1586v237H0z"/>
    <g transform="translate(3)">
      <g transform="translate(298 140)" stroke-width="3">
        <path d="M80.5 88.611v-70.5c0-4.556-1.847-8.681-4.833-11.667A16.448 16.448 0 0064 1.61a16.448 16.448 0 00-11.667 4.833A16.448 16.448 0 0047.5 18.11v70.5h33z" stroke="#E2D2BA" fill="#E2D2BA"/>
        <path d="M36 11.5H4c-.69 0-1.315.28-1.768.732A2.492 2.492 0 001.5 14v74.5h37V14c0-.69-.28-1.315-.732-1.768A2.492 2.492 0 0036 11.5zM124 11.5H92c-.69 0-1.315.28-1.768.732A2.492 2.492 0 0089.5 14v74.5h37V14c0-.69-.28-1.315-.732-1.768A2.492 2.492 0 00124 11.5z" stroke="#D5E9CA" fill="#D5E9CA"/>
      </g>
      <g transform="matrix(1 0 0 -1 298 97)" stroke-width="3">
        <path d="M80.5 88.611v-70.5c0-4.556-1.847-8.681-4.833-11.667A16.448 16.448 0 0064 1.61a16.448 16.448 0 00-11.667 4.833A16.448 16.448 0 0047.5 18.11v70.5h33z" stroke="#E2D2BA" fill="#E2D2BA"/>
        <path d="M36 11.5H4c-.69 0-1.315.28-1.768.732A2.492 2.492 0 001.5 14v74.5h37V14c0-.69-.28-1.315-.732-1.768A2.492 2.492 0 0036 11.5zM124 11.5H92c-.69 0-1.315.28-1.768.732A2.492 2.492 0 0089.5 14v74.5h37V14c0-.69-.28-1.315-.732-1.768A2.492 2.492 0 00124 11.5z" stroke="#D5E9CA" fill="#D5E9CA"/>
      </g>
      <g transform="translate(446 140)" stroke-width="3">
        <path d="M80.5 88.611v-70.5c0-4.556-1.847-8.681-4.833-11.667A16.448 16.448 0 0064 1.61a16.448 16.448 0 00-11.667 4.833A16.448 16.448 0 0047.5 18.11v70.5h33z" stroke="#E2D2BA" fill="#E2D2BA"/>
        <path d="M36 11.5H4c-.69 0-1.315.28-1.768.732A2.492 2.492 0 001.5 14v74.5h37V14c0-.69-.28-1.315-.732-1.768A2.492 2.492 0 0036 11.5zM124 11.5H92c-.69 0-1.315.28-1.768.732A2.492 2.492 0 0089.5 14v74.5h37V14c0-.69-.28-1.315-.732-1.768A2.492 2.492 0 00124 11.5z" stroke="#D5E9CA" fill="#D5E9CA"/>
      </g>
      <g transform="matrix(1 0 0 -1 446 97)" stroke-width="3">
        <path d="M80.5 88.611v-70.5c0-4.556-1.847-8.681-4.833-11.667A16.448 16.448 0 0064 1.61a16.448 16.448 0 00-11.667 4.833A16.448 16.448 0 0047.5 18.11v70.5h33z" stroke="#E2D2BA" fill="#E2D2BA"/>
        <path d="M36 11.5H4c-.69 0-1.315.28-1.768.732A2.492 2.492 0 001.5 14v74.5h37V14c0-.69-.28-1.315-.732-1.768A2.492 2.492 0 0036 11.5zM124 11.5H92c-.69 0-1.315.28-1.768.732A2.492 2.492 0 0089.5 14v74.5h37V14c0-.69-.28-1.315-.732-1.768A2.492 2.492 0 00124 11.5z" stroke="#D5E9CA" fill="#D5E9CA"/>
      </g>
      <g transform="translate(594 140)" stroke-width="3">
        <path d="M80.5 88.611v-70.5c0-4.556-1.847-8.681-4.833-11.667A16.448 16.448 0 0064 1.61a16.448 16.448 0 00-11.667 4.833A16.448 16.448 0 0047.5 18.11v70.5h33z" stroke="#E2D2BA" fill="#E2D2BA"/>
        <path d="M36 11.5H4c-.69 0-1.315.28-1.768.732A2.492 2.492 0 001.5 14v74.5h37V14c0-.69-.28-1.315-.732-1.768A2.492 2.492 0 0036 11.5zM124 11.5H92c-.69 0-1.315.28-1.768.732A2.492 2.492 0 0089.5 14v74.5h37V14c0-.69-.28-1.315-.732-1.768A2.492 2.492 0 00124 11.5z" stroke="#D5E9CA" fill="#D5E9CA"/>
      </g>
      <g transform="matrix(1 0 0 -1 594 97)" stroke-width="3">
        <path d="M80.5 88.611v-70.5c0-4.556-1.847-8.681-4.833-11.667A16.448 16.448 0 0064 1.61a16.448 16.448 0 00-11.667 4.833A16.448 16.448 0 0047.5 18.11v70.5h33z" stroke="#E2D2BA" fill="#E2D2BA"/>
        <path d="M36 11.5H4c-.69 0-1.315.28-1.768.732A2.492 2.492 0 001.5 14v74.5h37V14c0-.69-.28-1.315-.732-1.768A2.492 2.492 0 0036 11.5zM124 11.5H92c-.69 0-1.315.28-1.768.732A2.492 2.492 0 0089.5 14v74.5h37V14c0-.69-.28-1.315-.732-1.768A2.492 2.492 0 00124 11.5z" stroke="#D5E9CA" fill="#D5E9CA"/>
      </g>
      <path d="M226 194.75c-2.9 0-5.524 1.175-7.425 3.075a10.467 10.467 0 00-3.075 7.425v26.25h21v-26.25c0-2.9-1.175-5.524-3.075-7.425A10.467 10.467 0 00226 194.75z" stroke="#E2D2BA" stroke-width="3" fill="#E2D2BA"/>
      <path fill="#F2F2F2" d="M82 146h82v86H82zM733 156h49v75h-49zM733 7h49v75h-49zM1324 7h145v85h-145zM1305 187l33-19h131v-22h40v85h-204zM125 6h39v82h-39z"/>
      <path fill="#DCDCDC" d="M1467 145h3v25h-3z"/>
      <path d="M1049.015 104.998h98.825l71.988.002L1324 61V7h1l-1.06 85-95.106 35H1012.29c-44.01 0-38.015-37.671-38.015-52.146 0-9.65-.092-32.268-.275-67.854h37v76.421c0 13.614 1.998 21.579 38.015 21.577z" fill="#E2D2BA"/>
      <path fill="#DCDCDC" d="M1507 145h3v85h-3zM1467 6h3v85h-3z"/>
      <path fill="#DCDCDC" transform="rotate(90 1523.5 146)" d="M1522 89.5h3v113h-3z"/>
      <path fill="#DCDCDC" transform="rotate(90 1451.5 92)" d="M1450-37h3v258h-3z"/>
      <g transform="translate(19)">
        <path fill="#DCDCDC" d="M762 155h3v75h-3zM711 155h3v75h-3z"/>
        <path fill="#DCDCDC" transform="rotate(90 737.5 156.5)" d="M736 132h3v49h-3z"/>
        <path fill="#DCDCDC" transform="rotate(90 737.5 80.5)" d="M736 56h3v49h-3z"/>
        <path fill="#DCDCDC" d="M762 7h3v75h-3zM711 7h3v75h-3zM143 5h3v85h-3zM62 5h3v85h-3zM105 5h3v85h-3z"/>
        <path fill="#DCDCDC" d="M105 87h40v3h-40zM63 145h82v3H63z"/>
        <path fill="#DCDCDC" d="M143 145h3v85h-3zM62 145h3v85h-3z"/>
        <g transform="matrix(0 1 1 0 1400 230)">
          <g>
            <path fill="#C2D6D6" d="M2 0h3v47H2z"/>
            <path fill="#9FC1B7" d="M0 0h3v47H0z"/>
          </g>
        </g>
        <rect stroke="#E2D2BA" stroke-width="3" fill="#E2D2BA" x="193.5" y="45.5" width="25" height="40" rx="4"/>
        <ellipse stroke="#E2D2BA" stroke-width="3" fill="#E2D2BA" transform="rotate(25 944 188.5)" cx="944" cy="188.5" rx="39" ry="22.5"/>
        <ellipse stroke="#E2D2BA" stroke-width="3" fill="#E2D2BA" cx="831" cy="191.5" rx="39" ry="22.5"/>
        <ellipse stroke="#E2D2BA" stroke-width="3" fill="#E2D2BA" cx="831" cy="49.5" rx="39" ry="22.5"/>
        <path d="M1306 99h-3 3z" fill="#DCDCDC" transform="rotate(90 1304.5 99.5)"/>
        <path d="M1233.817 141.549h-3 3z" fill="#DCDCDC" transform="rotate(60 1232.317 142.049)"/>
        <path d="M264.5 8.5h-117v77H175c.69 0 1.315-.28 1.768-.732A2.492 2.492 0 00177.5 83V31.5h57V83c0 .69.28 1.315.732 1.768A2.492 2.492 0 00237 85.5h25c.69 0 1.315-.28 1.768-.732A2.492 2.492 0 00264.5 83V8.5z" stroke="#D5E9CA" stroke-width="3" fill="#D5E9CA"/>
        <g transform="matrix(0 1 1 0 158.5 230.5)">
          <g>
            <path fill="#C2D6D6" d="M2 .294h3v61H2z"/>
            <path fill="#9FC1B7" d="M0 .294h3v61H0z"/>
          </g>
        </g>
        <path stroke="#DCDCDC" stroke-width="3" stroke-linecap="square" d="M1286 231v-44.274l31.723-18.226H1447"/>
        <path stroke="#DCDCDC" stroke-width="3" d="M1305 6.5v85"/>
        <g transform="matrix(1 0 0 -1 0 237)">
          <path d="M44 49V6H1c0 23.748 19.252 43 43 43z" stroke="#F2F2F2" stroke-width="2"/>
          <path fill="#DCDCDC" d="M0 0h3v9H0zM42 0h3v9h-3z"/>
          <path fill="#DCDCDC" d="M0 4h45v3H0z"/>
          <g transform="rotate(-90 7.5 .5)">
            <g>
              <path fill="#C2D6D6" d="M2 .857h3v29H2z"/>
              <path fill="#9FC1B7" d="M0 .857h3v29H0z"/>
            </g>
          </g>
        </g>
        <g>
          <path d="M44 49V6H1c0 23.748 19.252 43 43 43z" stroke="#F2F2F2" stroke-width="2"/>
          <path fill="#DCDCDC" d="M0 0h3v9H0zM42 0h3v9h-3z"/>
          <path fill="#DCDCDC" d="M0 4h45v3H0z"/>
          <g transform="rotate(-90 7.5 .5)">
            <g>
              <path fill="#C2D6D6" d="M2 .857h3v29H2z"/>
              <path fill="#9FC1B7" d="M0 .857h3v29H0z"/>
            </g>
          </g>
        </g>
      </g>
      <path d="M1560 5.724H20c-5.944 0-11.33 2.512-15.226 6.584C.901 16.355-1.5 21.944-1.5 28.12V208.88c0 6.177 2.4 11.766 6.274 15.813 3.897 4.072 9.282 6.584 15.226 6.584h1540c5.944 0 11.33-2.512 15.226-6.584 3.873-4.047 6.274-9.636 6.274-15.813V28.12c0-6.177-2.4-11.766-6.274-15.813-3.897-4.072-9.282-6.584-15.226-6.584z" stroke="#DFDFDF" stroke-width="3"/>
      <g transform="translate(175 2)">
        <g transform="rotate(-90 2.66 2.453)">
          <g>
            <path fill="#C2D6D6" d="M2 .587h3v64H2z"/>
            <path fill="#9FC1B7" d="M0 .587h3v64H0z"/>
          </g>
        </g>
        <g transform="matrix(0 1 1 0 89.206 227.888)">
          <g>
            <path fill="#C2D6D6" d="M2 0h3v83.587H2z"/>
            <path fill="#9FC1B7" d="M0 0h3v83.587H0z"/>
          </g>
        </g>
        <g transform="rotate(-90 47.16 -42.047)">
          <g>
            <path fill="#C2D6D6" d="M1.743 0h2.614v83.587H1.743z"/>
            <path fill="#9FC1B7" d="M0 0h2.614v83.587H0z"/>
          </g>
        </g>
        <g transform="matrix(0 1 1 0 197.206 227.888)">
          <g>
            <path fill="#C2D6D6" d="M2 0h3v83.587H2z"/>
            <path fill="#9FC1B7" d="M0 0h3v83.587H0z"/>
          </g>
        </g>
        <g transform="rotate(-90 101.16 -96.047)">
          <g>
            <path fill="#C2D6D6" d="M2 0h3v83.587H2z"/>
            <path fill="#9FC1B7" d="M0 0h3v83.587H0z"/>
          </g>
        </g>
        <g transform="matrix(0 1 1 0 305.206 227.888)">
          <g>
            <path fill="#C2D6D6" d="M2 0h3v83.587H2z"/>
            <path fill="#9FC1B7" d="M0 0h3v83.587H0z"/>
          </g>
        </g>
        <g transform="rotate(-90 155.16 -150.047)">
          <g>
            <path fill="#C2D6D6" d="M2 0h3v83.587H2z"/>
            <path fill="#9FC1B7" d="M0 0h3v83.587H0z"/>
          </g>
        </g>
        <g transform="matrix(0 1 1 0 413.206 227.888)">
          <g>
            <path fill="#C2D6D6" d="M2 0h3v83.587H2z"/>
            <path fill="#9FC1B7" d="M0 0h3v83.587H0z"/>
          </g>
        </g>
        <g transform="rotate(-90 209.16 -204.047)">
          <g>
            <path fill="#C2D6D6" d="M2 0h3v83.587H2z"/>
            <path fill="#9FC1B7" d="M0 0h3v83.587H0z"/>
          </g>
        </g>
        <g transform="matrix(0 1 1 0 521.206 227.888)">
          <g>
            <path fill="#C2D6D6" d="M2 0h3v31H2z"/>
            <path fill="#9FC1B7" d="M0 0h3v31H0z"/>
          </g>
        </g>
        <g transform="rotate(-90 263.16 -258.047)">
          <g>
            <path fill="#C2D6D6" d="M2 0h3v31H2z"/>
            <path fill="#9FC1B7" d="M0 0h3v31H0z"/>
          </g>
        </g>
        <g transform="matrix(0 1 1 0 1160.946 227.888)">
          <g>
            <path fill="#C2D6D6" d="M2 0h3v49.108H2z"/>
            <path fill="#9FC1B7" d="M0 0h3v49.108H0z"/>
          </g>
        </g>
        <g transform="matrix(0 1 1 0 1078.946 227.888)">
          <g>
            <path fill="#C2D6D6" d="M2 0h3v49.108H2z"/>
            <path fill="#9FC1B7" d="M0 0h3v49.108H0z"/>
          </g>
        </g>
        <g transform="rotate(-90 317.16 -312.047)">
          <g>
            <path fill="#C2D6D6" d="M2 0h3v83.587H2z"/>
            <path fill="#9FC1B7" d="M0 0h3v83.587H0z"/>
          </g>
        </g>
        <g transform="rotate(-90 371.16 -366.047)">
          <g>
            <path fill="#C2D6D6" d="M2 0h3v83.587H2z"/>
            <path fill="#9FC1B7" d="M0 0h3v83.587H0z"/>
          </g>
        </g>
        <g transform="rotate(-90 425.16 -420.047)">
          <g>
            <path fill="#C2D6D6" d="M2 0h3v83.587H2z"/>
            <path fill="#9FC1B7" d="M0 0h3v83.587H0z"/>
          </g>
        </g>
        <g transform="rotate(-90 479.16 -474.047)">
          <g>
            <path fill="#C2D6D6" d="M2 0h3v83.587H2z"/>
            <path fill="#9FC1B7" d="M0 0h3v83.587H0z"/>
          </g>
        </g>
        <g transform="matrix(0 1 1 0 629.206 227.888)">
          <g>
            <path fill="#C2D6D6" d="M2 0h3v83.587H2z"/>
            <path fill="#9FC1B7" d="M0 0h3v83.587H0z"/>
          </g>
        </g>
        <g transform="matrix(0 1 1 0 737.206 227.888)">
          <g>
            <path fill="#C2D6D6" d="M2 0h3v83.587H2z"/>
            <path fill="#9FC1B7" d="M0 0h3v83.587H0z"/>
          </g>
        </g>
        <g transform="matrix(0 1 1 0 845.206 227.888)">
          <g>
            <path fill="#C2D6D6" d="M2 0h3v83.587H2z"/>
            <path fill="#9FC1B7" d="M0 0h3v83.587H0z"/>
          </g>
        </g>
        <g transform="matrix(0 1 1 0 953.206 227.888)">
          <g>
            <path fill="#C2D6D6" d="M2 0h3v83.587H2z"/>
            <path fill="#9FC1B7" d="M0 0h3v83.587H0z"/>
          </g>
        </g>
        <g transform="rotate(-90 542.03 -536.917)">
          <g>
            <path fill="#C2D6D6" d="M2 0h3v49.108H2z"/>
            <path fill="#9FC1B7" d="M0 0h3v49.108H0z"/>
          </g>
        </g>
      </g>
    </g>
    <g id="Service-badges" transform="translate(16 16)">
      <g id="service-badge" transform="translate(1106 5)">
        <circle stroke="#fff" stroke-width="2" fill="#f2f2f2" cx="29" cy="29" r="28"/>
        <g id="badge-gr" stroke-width="1" transform="translate(17 17)">
          <g id="Icon/Service/Restaurant">
            <path d="M0 0h24v24H0z"/>
            <path d="M10.75 0H10v6.5a2 2 0 01-2 2V0h-.75C6.56 0 6 .56 6 1.25V8.5a2 2 0 01-2-2V0h-.75C2.56 0 2 .56 2 1.25V6.5a4 4 0 004 4v12.25c0 .69.56 1.25 1.25 1.25H8V10.5a4 4 0 004-4V1.25C12 .56 11.44 0 10.75 0zM18 13.49h-2V4c0-1.103.896-2 2-2v11.49zM19 0h-1a4 4 0 00-4 4v9.49a2 2 0 002 2h2V24h.75c.69 0 1.25-.56 1.25-1.25V1a1 1 0 00-1-1z" fill="#1b50af"/>
          </g>
        </g>
      </g>
      <g id="service-badge" transform="translate(808 75)">
        <circle stroke="#fff" stroke-width="2" fill="#f2f2f2" cx="29" cy="29" r="28"/>
        <g id="badge-gr" stroke-width="1" transform="translate(17 17)">
          <g id="Icon/Service/Cocktail">
            <path d="M0 0h24v24H0z"/>
            <path d="M20.326 6.414C21.586 5.154 20.693 3 18.912 3h-.804L20.212.896l-.53-.53a1.25 1.25 0 00-1.768 0l-7.37 7.37.53.53a1.25 1.25 0 001.767 0L16.108 5h2.804l-6.954 6.954L5.003 5h4.204c.69 0 1.25-.56 1.25-1.25V3H5.003C3.223 3 2.33 5.154 3.59 6.414l7.369 7.368V22h-3.75c-.69 0-1.25.56-1.25 1.25V24h12v-.75c0-.69-.56-1.25-1.25-1.25h-3.75v-8.218l7.368-7.368z" fill="#1b50af"/>
          </g>
        </g>
      </g>
      <g id="service-badge" transform="translate(157 127)">
        <circle stroke="#fff" stroke-width="2" fill="#f2f2f2" cx="29" cy="29" r="28"/>
        <g id="badge-gr" stroke-width="1" transform="translate(17 17)">
          <g id="Icon/Accessibility/Wheelchair">
            <path d="M0 0h24v24H0z"/>
            <path d="M12.086 6.5a3 3 0 012.934 2.373l.072.337a1 1 0 00.978.79h.68c.69 0 1.25.56 1.25 1.25V12h-1.93a3 3 0 01-2.934-2.373l-.072-.335a1.001 1.001 0 00-.979-.792h-.95a.997.997 0 00-.777.371.994.994 0 00-.201.837l.851 4a1 1 0 00.979.792h3.143a2.98 2.98 0 012.928 2.349L19.21 22h-1.054a1.25 1.25 0 01-1.22-.979l-.832-3.738a1 1 0 00-.976-.783h-3.142a3 3 0 01-2.934-2.375l-.359-1.682A3.994 3.994 0 006.5 16c0 2.206 1.794 4 4 4 .905 0 1.738-.305 2.408-.814.466-.356 1.107-.372 1.565-.006l.701.561A5.98 5.98 0 0110.5 22c-3.309 0-6-2.692-6-6a6 6 0 013.767-5.566l-.045-.212c-.156-.734-.082-1.514.284-2.17A2.996 2.996 0 0111.135 6.5zM12.5 2a1.75 1.75 0 110 3.5 1.75 1.75 0 010-3.5z" fill="#1b50af"/>
          </g>
        </g>
      </g>
      <g id="service-badge" transform="translate(1483)">
        <circle stroke="#fff" stroke-width="2" fill="#f2f2f2" cx="29" cy="29" r="28"/>
        <g id="badge-gr" stroke-width="1" transform="translate(17 17)">
          <g id="Icon/Service/Conductor">
            <path d="M0 0h24v24H0z"/>
            <path d="M11 19.75v.75h.75c.69 0 1.25-.56 1.25-1.25v-.75h-.75c-.69 0-1.25.56-1.25 1.25zm4.662-3.096L13.508 14.5h2.732l-.577 2.154zm-7.53.395L7.448 14.5h3.232l-2.548 2.549zM8.751 4l-1-2H15v2H8.75zM19 12.5h-4a4.992 4.992 0 002-3.993V2a2 2 0 00-2-2H7.75a2 2 0 00-1.788 2.894L6.514 4H5.75c-.69 0-1.25.56-1.25 1.25V6H15v2.507c0 .978-.47 1.845-1.197 2.393A1.972 1.972 0 0013 12.5h-2c0-.678-.318-1.236-.803-1.601a2.99 2.99 0 01-1.196-2.392V8.25C9 7.56 8.44 7 7.75 7H7v1.507c0 1.631.787 3.08 2 3.993H5a4 4 0 00-4 4V24h.75C2.44 24 3 23.44 3 22.75V16.5a2 2 0 012-2h.377l.822 3.067c.4 1.486 2.258 1.984 3.347.895l2.548-2.548 2.97 2.97L13.692 24h1.111a1.25 1.25 0 001.208-.926l2.3-8.574H19a2 2 0 012 2v6.25c0 .69.56 1.25 1.25 1.25H23v-7.5a4 4 0 00-4-4z" fill="#1b50af"/>
          </g>
        </g>
      </g>
      <g id="service-badge" transform="translate(1503 142)">
        <circle stroke="#fff" stroke-width="2" fill="#f2f2f2" cx="29" cy="29" r="28"/>
        <g id="badge-gr" stroke-width="1" transform="translate(17 17)">
          <g id="Icon/Service/PhoneBooth">
            <path d="M0 0h24v24H0z"/>
            <path d="M15.25 3h-6.5c-.69 0-1.25.56-1.25 1.25V5h9v-.75c0-.69-.56-1.25-1.25-1.25zM11 20.25V21h.75c.69 0 1.25-.56 1.25-1.25V19h-.75c-.69 0-1.25.56-1.25 1.25zm-3.5-3.5c0 .69.56 1.25 1.25 1.25h6.5c.69 0 1.25-.56 1.25-1.25V16h-9v.75zm10 4.25a1 1 0 01-1 1h-9a1 1 0 01-1-1V3a1 1 0 011-1h9a1 1 0 011 1v18zm-1-21h-9a3 3 0 00-3 3v18a3 3 0 003 3h9a3 3 0 003-3V3a3 3 0 00-3-3z" fill="#1b50af"/>
          </g>
        </g>
      </g>
      <g id="service-badge" transform="translate(0 145)">
        <circle stroke="#fff" stroke-width="2" fill="#f2f2f2" cx="29" cy="29" r="28"/>
        <g id="badge-gr" stroke-width="1" transform="translate(17 17)">
          <g id="Icon/Accessibility/AccessibleLift">
            <path d="M0 0h24v24H0z"/>
            <path d="M10.086 6.5a3 3 0 012.89 2.194l.043.178.073.338a1 1 0 00.861.783l.117.007h.68c.647 0 1.18.492 1.244 1.122l.006.128V12h-1.93a3 3 0 01-2.89-2.195l-.044-.178-.072-.335a1.001 1.001 0 00-.862-.785l-.117-.007h-.95a.997.997 0 00-.997 1.08l.019.128.851 4a1 1 0 00.862.785l.117.007h3.143a2.98 2.98 0 012.882 2.171l.046.178L17.21 22h-1.054a1.25 1.25 0 01-1.187-.859l-.034-.12-.83-3.738a1.001 1.001 0 00-.861-.776l-.116-.007H9.987a3 3 0 01-2.89-2.197l-.045-.178-.357-1.682A3.994 3.994 0 004.5 16c0 2.206 1.795 4 4 4 .905 0 1.738-.305 2.408-.814a1.273 1.273 0 011.456-.083l.108.077.702.561A5.98 5.98 0 018.5 22c-3.309 0-6-2.692-6-6a6 6 0 013.545-5.471l.222-.095-.046-.212c-.155-.734-.082-1.514.285-2.17a2.997 2.997 0 012.427-1.545l.202-.007h.951zm10.444 0l.47.459-2 1.951-2-1.951.47-.459L19 7.99l1.53-1.49zM10.5 2a1.75 1.75 0 110 3.5 1.75 1.75 0 010-3.5zm8.5.5l2 1.951-.47.459L19 3.42l-1.53 1.49-.47-.459L19 2.5z" fill="#1b50af"/>
          </g>
        </g>
      </g>
      <g id="service-badge" transform="translate(0 5)">
        <circle stroke="#fff" stroke-width="2" fill="#f2f2f2" cx="29" cy="29" r="28"/>
        <g id="badge-gr" stroke-width="1" transform="translate(17 17)">
          <g id="Icon/Accessibility/AccessibleLift">
            <path d="M0 0h24v24H0z"/>
            <path d="M10.086 6.5a3 3 0 012.89 2.194l.043.178.073.338a1 1 0 00.861.783l.117.007h.68c.647 0 1.18.492 1.244 1.122l.006.128V12h-1.93a3 3 0 01-2.89-2.195l-.044-.178-.072-.335a1.001 1.001 0 00-.862-.785l-.117-.007h-.95a.997.997 0 00-.997 1.08l.019.128.851 4a1 1 0 00.862.785l.117.007h3.143a2.98 2.98 0 012.882 2.171l.046.178L17.21 22h-1.054a1.25 1.25 0 01-1.187-.859l-.034-.12-.83-3.738a1.001 1.001 0 00-.861-.776l-.116-.007H9.987a3 3 0 01-2.89-2.197l-.045-.178-.357-1.682A3.994 3.994 0 004.5 16c0 2.206 1.795 4 4 4 .905 0 1.738-.305 2.408-.814a1.273 1.273 0 011.456-.083l.108.077.702.561A5.98 5.98 0 018.5 22c-3.309 0-6-2.692-6-6a6 6 0 013.545-5.471l.222-.095-.046-.212c-.155-.734-.082-1.514.285-2.17a2.997 2.997 0 012.427-1.545l.202-.007h.951zm10.444 0l.47.459-2 1.951-2-1.951.47-.459L19 7.99l1.53-1.49zM10.5 2a1.75 1.75 0 110 3.5 1.75 1.75 0 010-3.5zm8.5.5l2 1.951-.47.459L19 3.42l-1.53 1.49-.47-.459L19 2.5z" fill="#1b50af"/>
          </g>
        </g>
      </g>
      <g id="service-badge" transform="translate(62 5)">
        <circle stroke="#fff" stroke-width="2" fill="#f2f2f2" cx="29" cy="29" r="28"/>
        <g id="badge-gr" stroke-width="1" transform="translate(17 17)">
          <g id="Icon/Service/Luggage">
            <path d="M0 0h24v24H0z"/>
            <path d="M10 4.25V4a1 1 0 011-1h2a1 1 0 011 1v.25c0 .69.56 1.25 1.25 1.25H16V4a3 3 0 00-3-3h-2a3 3 0 00-3 3v1.5h.75c.69 0 1.25-.56 1.25-1.25zM22 18c0 .552-.448 1-1 1h-3V9.5h-.75c-.69 0-1.25.56-1.25 1.25V19H8v-8.25c0-.69-.56-1.25-1.25-1.25H6V19H3c-.551 0-1-.448-1-1V9.5c0-.552.449-1 1-1h18c.552 0 1 .448 1 1V18zM21 6.5H3c-1.655 0-3 1.346-3 3V18c0 1.654 1.345 3 3 3h1v.75c0 .69.56 1.25 1.25 1.25H6v-2h12v2h.75c.69 0 1.25-.56 1.25-1.25V21h1c1.654 0 3-1.346 3-3V9.5c0-1.654-1.346-3-3-3z" fill="#1b50af"/>
          </g>
        </g>
      </g>
    </g>
  </g>
</svg>
