<svg xmlns="http://www.w3.org/2000/svg" height="100%" viewBox="0 0 512 512">
<g>
	<path fill="#FFFFFF" d="M122.453,202.955l-17.697,17.192l-6.725,20.557l-30.966-0.868c0,0,2.12-25.91,6.847-32.835
		c14.272-20.908,16.123-22.355,26.067-34.241c6.651-7.948,23.546-18.513,23.546-18.513c3.709-1.968,7.511-6.608,30.782-5.391
		c20.983,1.095,25.788,8.594,25.788,8.594l28.314,41.462l25.282,36.911c3.033,6.403,4.813,16.5-4.383,22.753
		c-7.123,4.838-18.371,0.674-21.403-4.046l-26.295-39.438l-3.538,40.448l50.563,106.688c1.518,4.551,2.194,15.154-6.952,19.145
		c-12.41,5.414-18.33-3.093-20.859-7.01l-34.042-59.324c0,0,5.176-32.342-11.125-45.847c-11.797-9.774-39.439-9.1-39.439-9.1
		l2.697-4.93L122.453,202.955z"/>
	<circle fill="#FFFFFF" cx="159.165" cy="112.251" r="32.667"/>
	<path fill="#FFFFFF" d="M157.066,344.637c0,16.605-12.634,30.066-28.215,30.066H38.147c-15.584,0-28.217-13.461-28.217-30.066
		v-42.418c0-16.608,12.633-30.068,28.217-30.068h90.704c15.581,0,28.215,13.46,28.215,30.068V344.637z"/>
	<path fill="#FFFFFF" d="M101.616,252.682c-1.231-1.576-6.267-3.071-16.082-3.251c-10.848-0.2-17.544,2.091-19.38,3.419
		c-3.96,2.866-2.865,16.685-2.865,16.685h8.848c0,0-0.401-7.14,1.098-8.68c4.476-4.608,19.115-4.645,23.172,0.338
		c1.357,1.666,1.266,8.342,1.266,8.342h8.342C108.512,254.941,102.674,254.031,101.616,252.682z"/>
	<polygon fill="#FFFFFF" points="456.909,406.598 287.939,406.3 271.254,433.018 464.449,433.018 	"/>
	<polygon fill="#FFFFFF" points="319.539,360.712 291.799,352.254 224.988,456.274 257.348,456.274 	"/>
	<polygon fill="#FFFFFF" points="497.224,457.11 461.282,457.11 402.671,353.091 435.031,353.091 	"/>
	<path fill="#FFFFFF" stroke="#FFFFFF" stroke-width="14" stroke-miterlimit="10" d="M494.057,309.304
		c0,26.808-21.733,48.538-48.543,48.538H279.673c-26.806,0-48.542-21.73-48.542-48.538V78.737c0-26.808,21.735-48.54,48.542-48.54
		h165.841c26.81,0,48.543,21.731,48.543,48.54V309.304z"/>
	<circle fill="currentColor" cx="286.75" cy="288.744" r="26.293"/>
	<path fill="currentColor" d="M466.079,288.744c0,14.52-11.771,26.295-26.294,26.295c-14.518,0-26.29-11.775-26.29-26.295
		c0-14.521,11.772-26.292,26.29-26.292C454.308,262.452,466.079,274.224,466.079,288.744z"/>
	<path fill="currentColor" d="M472.821,184.921c0,13.405-10.867,24.27-24.271,24.27h-171.24c-13.402,0-24.269-10.865-24.269-24.27
		v-61.349c0-13.404,10.867-24.271,24.269-24.271h171.24c13.403,0,24.271,10.867,24.271,24.271V184.921z"/>
	<path fill="currentColor" d="M425.637,63.235c0,4.655-4.31,7.902-7.707,8.428l-111.256-0.076c-5.207,0.076-11.153-1.307-11.153-8.352
		l0,0c0-7.34,5.286-8.426,9.441-8.426h112.246C421.863,54.809,425.637,58.58,425.637,63.235L425.637,63.235z"/>
</g>
</svg>
