<svg xmlns="http://www.w3.org/2000/svg" height="100%" viewBox="0 0 47.25 12">
<g fill="currentColor">
	<path d="M3.495,8.245c0,0.44-0.09,0.854-0.27,1.242c-0.18,0.388-0.426,0.726-0.738,1.014s-0.676,0.517-1.092,0.685
		s-0.86,0.252-1.332,0.252v-1.044c0.328,0,0.636-0.057,0.924-0.168c0.288-0.112,0.54-0.267,0.756-0.462
		c0.216-0.196,0.386-0.425,0.51-0.685s0.186-0.538,0.186-0.834V0.35h1.056V8.245z"/>
	<path d="M6.867,9.218c-0.336,0-0.65-0.064-0.942-0.192s-0.546-0.3-0.762-0.516c-0.216-0.217-0.386-0.471-0.51-0.763
		s-0.186-0.602-0.186-0.93v-3.72h1.02v3.72c0,0.192,0.036,0.372,0.108,0.54c0.072,0.168,0.169,0.314,0.294,0.438
		C6.013,7.92,6.159,8.018,6.327,8.09c0.168,0.071,0.348,0.107,0.54,0.107c0.192,0,0.37-0.036,0.534-0.107
		c0.164-0.072,0.308-0.17,0.432-0.295c0.124-0.123,0.222-0.27,0.294-0.438c0.072-0.168,0.108-0.348,0.108-0.54v-3.72h1.032v3.72
		c0,0.328-0.064,0.638-0.192,0.93c-0.128,0.292-0.3,0.546-0.516,0.763c-0.216,0.216-0.47,0.388-0.762,0.516S7.194,9.218,6.867,9.218
		z"/>
	<path d="M13.502,2.978c0.432,0,0.838,0.082,1.218,0.245c0.38,0.164,0.712,0.387,0.996,0.666C16,4.17,16.224,4.502,16.388,4.885
		c0.164,0.385,0.246,0.793,0.246,1.225v3h-1.032v-3c0-0.288-0.054-0.561-0.162-0.816c-0.108-0.256-0.256-0.479-0.444-0.672
		c-0.188-0.191-0.41-0.342-0.666-0.449c-0.256-0.108-0.532-0.162-0.828-0.162c-0.288,0-0.56,0.054-0.816,0.162
		C12.43,4.279,12.208,4.43,12.02,4.621c-0.188,0.192-0.338,0.416-0.45,0.672c-0.112,0.256-0.168,0.528-0.168,0.816v3h-1.02v-3
		c0-0.432,0.082-0.84,0.246-1.225c0.164-0.383,0.388-0.715,0.672-0.996c0.284-0.279,0.614-0.502,0.99-0.666
		C12.666,3.06,13.07,2.978,13.502,2.978z"/>
	<path d="M20.786,2.965c0.432,0,0.84,0.082,1.224,0.246c0.384,0.164,0.718,0.389,1.002,0.672c0.284,0.285,0.508,0.617,0.672,0.996
		c0.164,0.381,0.246,0.787,0.246,1.219v3h-1.044V8.426c-0.28,0.248-0.598,0.441-0.954,0.582c-0.356,0.14-0.738,0.21-1.146,0.21
		c-0.432,0-0.836-0.083-1.212-0.246c-0.376-0.164-0.706-0.386-0.99-0.666c-0.284-0.28-0.508-0.61-0.672-0.99
		c-0.164-0.38-0.246-0.786-0.246-1.218s0.082-0.838,0.246-1.219C18.076,4.5,18.3,4.168,18.584,3.883
		c0.284-0.283,0.614-0.508,0.99-0.672S20.354,2.965,20.786,2.965z M20.786,3.998c-0.288,0-0.56,0.053-0.816,0.161
		s-0.478,0.259-0.666,0.45s-0.338,0.416-0.45,0.672c-0.112,0.256-0.168,0.528-0.168,0.816c0,0.287,0.056,0.56,0.168,0.816
		c0.112,0.256,0.262,0.478,0.45,0.665c0.188,0.188,0.41,0.338,0.666,0.45s0.528,0.168,0.816,0.168c0.296,0,0.572-0.056,0.828-0.168
		s0.478-0.262,0.666-0.45c0.188-0.188,0.336-0.409,0.444-0.665c0.108-0.257,0.162-0.529,0.162-0.816
		c0-0.288-0.054-0.561-0.162-0.816c-0.108-0.256-0.256-0.48-0.444-0.672s-0.41-0.342-0.666-0.45S21.082,3.998,20.786,3.998z"/>
	<path d="M28.154,2.965c0.432,0,0.84,0.082,1.224,0.246c0.384,0.164,0.718,0.389,1.002,0.672c0.284,0.285,0.508,0.617,0.672,0.996
		c0.164,0.381,0.246,0.787,0.246,1.219v3h-1.044V8.426c-0.28,0.248-0.598,0.441-0.954,0.582c-0.356,0.14-0.738,0.21-1.146,0.21
		c-0.432,0-0.836-0.083-1.212-0.246c-0.376-0.164-0.706-0.386-0.99-0.666c-0.284-0.28-0.508-0.61-0.672-0.99
		c-0.164-0.38-0.246-0.786-0.246-1.218s0.082-0.838,0.246-1.219c0.164-0.379,0.388-0.711,0.672-0.996
		c0.284-0.283,0.614-0.508,0.99-0.672S27.723,2.965,28.154,2.965z M28.154,3.998c-0.288,0-0.56,0.053-0.816,0.161
		s-0.478,0.259-0.666,0.45s-0.338,0.416-0.45,0.672c-0.112,0.256-0.168,0.528-0.168,0.816c0,0.287,0.056,0.56,0.168,0.816
		c0.112,0.256,0.262,0.478,0.45,0.665c0.188,0.188,0.41,0.338,0.666,0.45s0.528,0.168,0.816,0.168c0.296,0,0.572-0.056,0.828-0.168
		s0.478-0.262,0.666-0.45c0.188-0.188,0.336-0.409,0.444-0.665c0.108-0.257,0.162-0.529,0.162-0.816
		c0-0.288-0.054-0.561-0.162-0.816c-0.108-0.256-0.256-0.48-0.444-0.672s-0.41-0.342-0.666-0.45S28.45,3.998,28.154,3.998z"/>
	<path d="M35.606,2.978c0.432,0,0.838,0.082,1.218,0.245c0.38,0.164,0.712,0.387,0.996,0.666c0.284,0.281,0.508,0.613,0.672,0.996
		c0.164,0.385,0.246,0.793,0.246,1.225v3h-1.032v-3c0-0.288-0.054-0.561-0.162-0.816c-0.108-0.256-0.256-0.479-0.444-0.672
		c-0.188-0.191-0.41-0.342-0.666-0.449c-0.256-0.108-0.532-0.162-0.828-0.162c-0.288,0-0.56,0.054-0.816,0.162
		c-0.256,0.107-0.478,0.258-0.666,0.449c-0.188,0.192-0.338,0.416-0.45,0.672c-0.112,0.256-0.168,0.528-0.168,0.816v3h-1.02v-3
		c0-0.432,0.082-0.84,0.246-1.225c0.164-0.383,0.388-0.715,0.672-0.996c0.284-0.279,0.614-0.502,0.99-0.666
		C34.77,3.06,35.174,2.978,35.606,2.978z"/>
	<path d="M39.818,7.682h1.044v1.392h-1.044V7.682z"/>
	<path d="M41.858,1.124c0.088-0.204,0.208-0.38,0.36-0.528c0.152-0.148,0.33-0.266,0.534-0.354c0.204-0.088,0.422-0.132,0.654-0.132
		c0.232,0,0.45,0.05,0.654,0.15c0.204,0.1,0.382,0.234,0.534,0.402c0.152,0.168,0.271,0.366,0.36,0.595
		c0.088,0.228,0.132,0.474,0.132,0.737h-1.032c0-0.239-0.062-0.444-0.186-0.612c-0.124-0.167-0.278-0.251-0.462-0.251
		c-0.184,0-0.338,0.062-0.462,0.186s-0.186,0.278-0.186,0.462v3.229h2.1v1.031h-2.1v3.072h-1.032V1.777
		C41.726,1.545,41.77,1.327,41.858,1.124z"/>
	<path d="M46.07,0.325h1.032v1.392H46.07V0.325z M46.07,3.109h1.032v6H46.07V3.109z"/>
</g>
</svg>
