<?xml version="1.0" encoding="utf-8"?>
<svg version="1.1" xmlns="http://www.w3.org/2000/svg" xmlns:xlink="http://www.w3.org/1999/xlink" x="0px" y="0px" width="312.5px"
	 height="105.333px" viewBox="0 0 312.5 105.333" enable-background="new 0 0 312.5 105.333" xml:space="preserve">
<pattern  x="-56.5" y="-279" width="75" height="80" patternUnits="userSpaceOnUse" id="Rail_Pattern" viewBox="0 -91.041 75 80" overflow="visible">
	<g>
		<polygon fill="none" points="0,-91.041 75,-91.041 75,-11.041 0,-11.041 		"/>
		<g>
			<polygon fill="#939598" points="75,-17.666 0,-17.666 0,0 75,0 			"/>
			<polygon fill="#A7A9AC" points="10,-2.626 8.291,-2.626 3.291,-14.874 5,-14.874 			"/>
			<polygon fill="#BCBEC0" points="0,-14.874 75,-14.874 75,-16.707 0,-16.707 			"/>
			<polygon fill="#A7A9AC" points="20.834,-2.626 19.125,-2.626 14.125,-14.874 15.834,-14.874 			"/>
			<polygon fill="#A7A9AC" points="31.522,-2.626 29.813,-2.626 24.813,-14.874 26.522,-14.874 			"/>
			<polygon fill="#A7A9AC" points="41.906,-2.626 40.197,-2.626 35.197,-14.874 36.906,-14.874 			"/>
			<polygon fill="#A7A9AC" points="52.74,-2.626 51.031,-2.626 46.031,-14.874 47.74,-14.874 			"/>
			<polygon fill="#A7A9AC" points="63.429,-2.626 61.72,-2.626 56.72,-14.874 58.429,-14.874 			"/>
			<polygon fill="#A7A9AC" points="74.417,-2.626 72.708,-2.626 67.708,-14.874 69.417,-14.874 			"/>
		</g>
		<g>
			<polygon fill="#939598" points="75,-57.666 0,-57.666 0,-40 75,-40 			"/>
			<polygon fill="#BCBEC0" points="0,-40.792 75,-40.792 75,-42.626 0,-42.626 			"/>
			<polygon fill="#A7A9AC" points="10,-42.626 8.291,-42.626 3.291,-54.874 5,-54.874 			"/>
			<polygon fill="#BCBEC0" points="0,-54.874 75,-54.874 75,-56.707 0,-56.707 			"/>
			<polygon fill="#A7A9AC" points="20.834,-42.626 19.125,-42.626 14.125,-54.874 15.834,-54.874 			"/>
			<polygon fill="#A7A9AC" points="31.522,-42.626 29.813,-42.626 24.813,-54.874 26.522,-54.874 			"/>
			<polygon fill="#A7A9AC" points="41.906,-42.626 40.197,-42.626 35.197,-54.874 36.906,-54.874 			"/>
			<polygon fill="#A7A9AC" points="52.74,-42.626 51.031,-42.626 46.031,-54.874 47.74,-54.874 			"/>
			<polygon fill="#A7A9AC" points="63.429,-42.626 61.72,-42.626 56.72,-54.874 58.429,-54.874 			"/>
			<polygon fill="#A7A9AC" points="74.417,-42.626 72.708,-42.626 67.708,-54.874 69.417,-54.874 			"/>
		</g>
		<g>
			<polygon fill="#939598" points="75,-97.666 0,-97.666 0,-80 75,-80 			"/>
			<polygon fill="#BCBEC0" points="0,-80.792 75,-80.792 75,-82.626 0,-82.626 			"/>
			<polygon fill="#A7A9AC" points="10,-82.626 8.291,-82.626 3.291,-94.874 5,-94.874 			"/>
			<polygon fill="#A7A9AC" points="20.834,-82.626 19.125,-82.626 14.125,-94.874 15.834,-94.874 			"/>
			<polygon fill="#A7A9AC" points="31.522,-82.626 29.813,-82.626 24.813,-94.874 26.522,-94.874 			"/>
			<polygon fill="#A7A9AC" points="41.906,-82.626 40.197,-82.626 35.197,-94.874 36.906,-94.874 			"/>
			<polygon fill="#A7A9AC" points="52.74,-82.626 51.031,-82.626 46.031,-94.874 47.74,-94.874 			"/>
			<polygon fill="#A7A9AC" points="63.429,-82.626 61.72,-82.626 56.72,-94.874 58.429,-94.874 			"/>
			<polygon fill="#A7A9AC" points="74.417,-82.626 72.708,-82.626 67.708,-94.874 69.417,-94.874 			"/>
		</g>
	</g>
</pattern>
<g id="Platform_back">
	<polygon fill="#D1D3D4" points="256.314,29.999 47.333,47.318 41,27.402 242.848,13.071 	"/>
	<polygon fill="#BCBEC0" points="256.314,29.999 47.333,47.318 47.333,52.93 256.611,35.121 	"/>
	<polygon fill="#A7A9AC" points="47.333,52.93 41.333,33.819 41,27.402 47.333,47.318 	"/>
</g>
<g id="Track1">
	<rect x="-41.113" y="32.322" fill="url(#Rail_Pattern)" width="399.413" height="21.026"/>
</g>
<g id="Track2">
	<rect x="-41.113" y="72.322" fill="url(#Rail_Pattern)" width="399.413" height="21.026"/>
</g>
<g id="Person2">
	<circle id="Head_1_" cx="161.307" cy="12.249" r="1.385"/>
	<path id="Torso_1_" d="M161.307,13.89c-0.465-0.004-1.134-0.256-1.901,0.208c-0.133,0.081-0.264,0.488-0.311,0.703
		c-0.167,0.755-0.461,3.058-0.461,3.058s-0.15,0.542,0.365,0.648c0.312,0.063,0.459-0.289,0.459-0.289l0.627-2.954l-0.047,1.843
		l2.541,0.009l-0.058-1.892l0.663,2.867c0,0,0.127,0.419,0.575,0.304c0.326-0.084,0.335-0.495,0.335-0.495s-0.375-2.475-0.656-3.245
		c-0.06-0.165-0.271-0.442-0.422-0.594C162.568,13.613,161.786,13.895,161.307,13.89z"/>
	<path id="Legs_1_" d="M162.759,23.049c0,0,0.08,0.447-0.439,0.447c-0.511,0-0.519-0.415-0.519-0.415l-0.264-4.479l-0.301,0.006
		l-0.337,4.408c0,0-0.048,0.415-0.471,0.399c-0.402-0.015-0.434-0.399-0.434-0.399l0.06-5.592h2.507L162.759,23.049z"/>
</g>
<g id="Train1">
	<g id="Body_1_">
		<g id="Wheels">

				<ellipse transform="matrix(-0.8542 -0.5199 0.5199 -0.8542 29.5067 135.2288)" fill="#58595B" cx="33.711" cy="63.478" rx="2.992" ry="3.383"/>

				<ellipse transform="matrix(-0.8542 -0.52 0.52 -0.8542 53.1626 140.4597)" fill="#58595B" cx="46.276" cy="62.776" rx="2.991" ry="3.383"/>

				<ellipse transform="matrix(-0.8543 -0.5198 0.5198 -0.8543 130.0914 155.3751)" fill="#58595B" cx="86.825" cy="59.452" rx="2.992" ry="3.383"/>

				<ellipse transform="matrix(-0.8541 -0.52 0.52 -0.8541 153.7325 160.6161)" fill="#58595B" cx="99.39" cy="58.75" rx="2.991" ry="3.384"/>

				<ellipse transform="matrix(-0.8542 -0.52 0.52 -0.8542 180.7458 165.1452)" fill="#58595B" cx="113.529" cy="57.229" rx="2.991" ry="3.383"/>

				<ellipse transform="matrix(-0.8541 -0.52 0.52 -0.8541 204.399 170.3812)" fill="#58595B" cx="126.093" cy="56.527" rx="2.991" ry="3.383"/>

				<ellipse transform="matrix(-0.8541 -0.52 0.52 -0.8541 296.7323 187.4486)" fill="#58595B" cx="174.653" cy="52.112" rx="2.991" ry="3.383"/>
			<path fill="#58595B" d="M184.662,49.854c-0.972,1.598-0.614,3.587,0.796,4.446c1.412,0.858,3.342,0.262,4.313-1.335
				c0.972-1.597,0.616-3.587-0.794-4.448C187.565,47.662,185.633,48.258,184.662,49.854z"/>

				<ellipse transform="matrix(-0.8542 -0.52 0.52 -0.8542 344.3596 197.5633)" fill="#58595B" cx="199.88" cy="50.499" rx="2.992" ry="3.383"/>

				<ellipse transform="matrix(-0.8542 -0.5199 0.5199 -0.8542 368.0369 202.7794)" fill="#58595B" cx="212.445" cy="49.796" rx="2.991" ry="3.384"/>

				<ellipse transform="matrix(-0.8542 -0.5199 0.5199 -0.8542 456.9678 219.101)" fill="#58595B" cx="259.2" cy="45.487" rx="2.992" ry="3.383"/>

				<ellipse transform="matrix(-0.8542 -0.5199 0.5199 -0.8542 480.6302 224.3313)" fill="#58595B" cx="271.765" cy="44.785" rx="2.992" ry="3.383"/>
		</g>
		<path fill="#D1D3D4" d="M106.814,41.365l-65,5.343c0,0-4.575,0.435-6.894,1.229c-2.087,0.715-5.003,3.906-6.39,5.7
			c-2.045,2.646-5.673,10.955-5.673,10.955l82.932-6.207L106.814,41.365z"/>
		<path fill="#E6E7E8" d="M22.857,64.592l-7.488-11.687c3.07-6.491,3.008-6.104,4.505-8.32c2.904-4.298,3.22-3.932,6.205-6.708
			c0.996-0.926,3.427-2.161,4.813-2.533c1.55-0.415,6.931-0.614,6.931-0.614l62.478-5.182l6.514,11.817l-66.401,5.969
			c0,0-4.863,0.241-6.132,0.841c-2.457,1.16-5.763,5.207-7.087,7.399C25.9,57.716,22.857,64.592,22.857,64.592z"/>
		<path fill="#1C75BC" d="M18.795,47.184l6.818,9.964c0,0,2.048-3.6,2.957-4.633c2.467-2.804,4.299-4.434,4.299-4.434l-6.608-9.495
			c0,0-1.979,1.409-4.035,3.761C20.327,44.521,18.795,47.184,18.795,47.184z"/>
		<polygon fill="#D1D3D4" points="193.63,34.269 109.961,41.333 108.999,58.218 191.571,51.154 		"/>
		<path fill="#D1D3D4" d="M282.529,28.651l-85.751,5.585l-1.997,16.751l81.767-6.649c0,0,2.295-0.875,3.158-2.46
			c0.635-1.166,2.426-5.883,2.93-8.57C283.264,29.949,282.531,28.651,282.529,28.651z"/>
		<polygon fill="#E6E7E8" points="186.584,22.271 103.372,29.273 109.961,41.333 193.63,34.269 		"/>
		<path fill="#E6E7E8" d="M271.756,15.361L189.9,22.355l6.878,11.881l85.751-5.585c0,0-5.285-10.37-8.334-12.599
			C273.684,15.679,271.756,15.361,271.756,15.361z"/>
	</g>
	<g id="Doors4_1_">
		<polygon fill="#009444" points="239.14,32.266 234.267,32.729 233.471,47.122 238.478,46.861 		"/>
		<polygon fill="#009444" points="244.201,31.89 239.14,32.266 238.478,46.861 243.539,46.486 		"/>
		<polygon fill="#1C75BC" points="237.799,43.44 234.756,43.542 235.371,33.982 238.288,33.741 		"/>
		<polygon fill="#1C75BC" points="242.76,43.398 239.717,43.5 240.333,33.74 243.25,33.499 		"/>
	</g>
	<g id="Doors3_1_">
		<polygon fill="#009444" points="170.525,37.762 165.653,38.226 164.856,52.619 169.864,52.357 		"/>
		<polygon fill="#009444" points="175.586,37.387 170.525,37.762 169.864,52.357 174.925,51.982 		"/>
		<polygon fill="#1C75BC" points="169.185,48.937 166.142,49.038 166.757,39.479 169.673,39.237 		"/>
		<polygon fill="#1C75BC" points="174.146,48.895 171.103,48.997 171.718,39.237 174.635,38.996 		"/>
	</g>
	<g id="Doors2_1_">
		<polygon fill="#009444" points="139.073,40.306 134.201,40.77 133.404,55.163 138.412,54.901 		"/>
		<polygon fill="#009444" points="144.134,39.931 139.073,40.306 138.412,54.901 143.473,54.526 		"/>
		<polygon fill="#1C75BC" points="137.732,51.48 134.689,51.582 135.305,42.022 138.221,41.781 		"/>
		<polygon fill="#1C75BC" points="142.694,51.438 139.651,51.541 140.266,41.781 143.183,41.54 		"/>
	</g>
	<g id="Doors1_2_">
		<polygon fill="#009444" points="70.41,45.847 65.538,46.311 64.741,60.704 69.749,60.442 		"/>
		<polygon fill="#009444" points="75.471,45.472 70.41,45.847 69.749,60.442 74.81,60.067 		"/>
		<polygon fill="#1C75BC" points="69.069,57.021 66.026,57.123 66.642,47.563 69.558,47.322 		"/>
		<polygon fill="#1C75BC" points="74.031,56.979 70.988,57.082 71.603,47.322 74.52,47.081 		"/>
	</g>
	<g id="Windows_1_">
		<polygon fill="#1C75BC" points="32.823,50.452 37.27,50.254 35.926,57.337 31.401,57.55 		"/>
		<polygon fill="#1C75BC" points="55.684,50.014 60.05,49.746 59.001,55.355 54.464,55.701 		"/>
		<polygon fill="#1C75BC" points="48.424,50.554 52.791,50.287 51.742,55.896 47.205,56.242 		"/>
		<polygon fill="#1C75BC" points="41.253,50.907 45.621,50.64 44.572,56.249 40.034,56.594 		"/>
		<polygon fill="#1C75BC" points="97.47,47.189 101.836,46.922 100.788,52.531 96.25,52.876 		"/>
		<polygon fill="#1C75BC" points="90.211,47.73 94.577,47.463 93.528,53.071 88.991,53.417 		"/>
		<polygon fill="#1C75BC" points="83.041,48.082 87.407,47.815 86.358,53.424 81.821,53.77 		"/>
		<polygon fill="#1C75BC" points="123.918,46.062 128.284,45.793 127.236,51.403 122.699,51.749 		"/>
		<polygon fill="#1C75BC" points="116.66,46.602 121.026,46.334 119.977,51.944 115.44,52.289 		"/>
		<polygon fill="#1C75BC" points="266.637,35.448 271.003,35.181 269.954,40.79 265.417,41.136 		"/>
		<polygon fill="#1C75BC" points="259.377,35.989 263.744,35.721 262.696,41.33 258.158,41.676 		"/>
		<polygon fill="#1C75BC" points="252.207,36.341 256.574,36.074 255.525,41.683 250.988,42.028 		"/>
		<polygon fill="#1C75BC" points="220.802,37.657 225.168,37.389 224.121,42.998 219.583,43.344 		"/>
		<polygon fill="#1C75BC" points="213.544,38.197 217.911,37.93 216.862,43.539 212.324,43.884 		"/>
		<polygon fill="#1C75BC" points="206.373,38.549 210.74,38.282 209.691,43.891 205.154,44.236 		"/>
		<polygon fill="#1C75BC" points="187.205,40.214 191.571,39.946 190.522,45.555 185.985,45.901 		"/>
		<polygon fill="#1C75BC" points="179.946,40.754 184.312,40.486 183.264,46.096 178.726,46.441 		"/>
		<polygon fill="#1C75BC" points="156.038,43.375 160.404,43.108 159.355,48.717 154.818,49.063 		"/>
		<polygon fill="#1C75BC" points="148.778,43.917 153.145,43.649 152.097,49.258 147.56,49.604 		"/>
		<polygon fill="#1C75BC" points="276.037,32.408 280.484,32.21 279.139,39.293 274.615,39.506 		"/>
	</g>
	<g id="Connector1_1_">
		<g>
			<polygon fill="#BCBEC0" points="109.961,41.333 106.814,41.365 105.789,58.385 108.999,58.218 			"/>
			<polygon fill="#BCBEC0" points="109.961,41.333 106.814,41.365 100.3,29.548 103.372,29.273 			"/>
		</g>
	</g>
	<g id="Connector2_1_">
		<polygon fill="#BCBEC0" points="196.778,34.236 193.63,34.269 191.571,51.154 194.782,50.988 		"/>
		<polygon fill="#BCBEC0" points="196.778,34.236 193.63,34.269 186.584,22.271 189.9,22.355 		"/>
	</g>
	<g id="Chassis_1_">
		<polygon fill="#6D6E71" points="276.549,44.338 22.857,64.592 22.495,65.361 276.096,45.15 		"/>
		<polygon fill="#58595B" points="22.495,65.361 14.98,53.726 15.369,52.905 22.857,64.592 		"/>
	</g>
</g>
<g id="Train2">
	<g id="Body">
		<g id="Wheels_1_">

				<ellipse transform="matrix(-0.8542 -0.5199 0.5199 -0.8542 42.1197 170.8219)" fill="#58595B" cx="45.008" cy="79.506" rx="2.992" ry="3.383"/>

				<ellipse transform="matrix(-0.8542 -0.52 0.52 -0.8542 65.7739 176.0529)" fill="#58595B" cx="57.572" cy="78.804" rx="2.991" ry="3.383"/>

				<ellipse transform="matrix(-0.8543 -0.5198 0.5198 -0.8543 142.7057 190.9681)" fill="#58595B" cx="98.122" cy="75.48" rx="2.992" ry="3.383"/>

				<ellipse transform="matrix(-0.8541 -0.52 0.52 -0.8541 166.3425 196.2095)" fill="#58595B" cx="110.687" cy="74.778" rx="2.991" ry="3.384"/>

				<ellipse transform="matrix(-0.8542 -0.52 0.52 -0.8542 193.3572 200.7384)" fill="#58595B" cx="124.825" cy="73.258" rx="2.991" ry="3.383"/>

				<ellipse transform="matrix(-0.8541 -0.52 0.52 -0.8541 217.009 205.9745)" fill="#58595B" cx="137.389" cy="72.555" rx="2.991" ry="3.383"/>

				<ellipse transform="matrix(-0.8541 -0.52 0.52 -0.8541 309.3422 223.042)" fill="#58595B" cx="185.949" cy="68.141" rx="2.991" ry="3.383"/>
			<path fill="#58595B" d="M195.958,65.883c-0.972,1.598-0.614,3.587,0.796,4.446c1.412,0.858,3.342,0.262,4.313-1.335
				c0.972-1.597,0.616-3.587-0.794-4.448C198.862,63.69,196.93,64.287,195.958,65.883z"/>

				<ellipse transform="matrix(-0.8542 -0.52 0.52 -0.8542 356.9712 233.1565)" fill="#58595B" cx="211.177" cy="66.527" rx="2.992" ry="3.383"/>

				<ellipse transform="matrix(-0.8542 -0.5199 0.5199 -0.8542 380.6504 238.3725)" fill="#58595B" cx="223.741" cy="65.825" rx="2.991" ry="3.384"/>

				<ellipse transform="matrix(-0.8542 -0.5199 0.5199 -0.8542 469.5817 254.6944)" fill="#58595B" cx="270.497" cy="61.515" rx="2.992" ry="3.383"/>
			<path fill="#58595B" d="M280.506,59.258c-0.973,1.597-0.613,3.586,0.797,4.445c1.41,0.858,3.342,0.262,4.314-1.334
				c0.971-1.597,0.613-3.587-0.795-4.448C283.408,57.063,281.477,57.661,280.506,59.258z"/>
		</g>
		<path fill="#D1D3D4" d="M118.11,57.394l-65,5.343c0,0-4.575,0.435-6.894,1.229c-2.087,0.715-5.003,3.906-6.39,5.7
			c-2.045,2.646-5.673,10.955-5.673,10.955l82.932-6.207L118.11,57.394z"/>
		<path fill="#E6E7E8" d="M34.153,80.62l-7.488-11.687c3.07-6.491,3.008-6.104,4.505-8.32c2.904-4.298,3.22-3.932,6.205-6.708
			c0.996-0.926,3.427-2.161,4.813-2.533c1.55-0.415,6.931-0.614,6.931-0.614l62.478-5.182l6.514,11.817l-66.401,5.969
			c0,0-4.863,0.241-6.132,0.841c-2.457,1.16-5.763,5.207-7.087,7.399C37.196,73.745,34.153,80.62,34.153,80.62z"/>
		<path fill="#1C75BC" d="M30.091,63.212l6.818,9.964c0,0,2.048-3.6,2.957-4.633c2.467-2.804,4.299-4.434,4.299-4.434l-6.608-9.495
			c0,0-1.979,1.409-4.035,3.761C31.624,60.549,30.091,63.212,30.091,63.212z"/>
		<polygon fill="#D1D3D4" points="204.927,50.297 121.257,57.361 120.295,74.246 202.868,67.182 		"/>
		<path fill="#D1D3D4" d="M293.826,44.679l-85.751,5.585l-1.997,16.751l81.768-6.649c0,0,2.295-0.875,3.158-2.46
			c0.635-1.166,2.426-5.883,2.93-8.57C294.561,45.978,293.828,44.679,293.826,44.679z"/>
		<polygon fill="#E6E7E8" points="197.88,38.299 114.668,45.302 121.257,57.361 204.927,50.297 		"/>
		<path fill="#E6E7E8" d="M283.053,31.39l-81.856,6.994l6.878,11.881l85.751-5.585c0,0-5.285-10.37-8.334-12.599
			C284.98,31.707,283.053,31.39,283.053,31.39z"/>
	</g>
	<g id="Indoor">
		<g id="Indoor1">
			<polygon fill="#58595B" points="86.768,61.5 76.834,62.339 76.038,76.732 86.106,76.096 			"/>
			<polygon fill="#6D6E71" points="86.477,67.905 76.493,68.506 76.038,76.732 86.106,76.096 			"/>
			<polygon fill="#006838" points="85.938,61.57 77.679,62.268 77.271,67.905 85.728,67.485 			"/>
		</g>
		<g id="Indoor2">
			<polygon fill="#58595B" points="155.431,55.976 145.497,56.815 144.701,71.208 154.769,70.571 			"/>
			<polygon fill="#6D6E71" points="155.14,62.381 145.156,62.981 144.701,71.208 154.769,70.571 			"/>
			<polygon fill="#006838" points="154.601,56.046 146.342,56.744 145.934,62.381 154.391,61.961 			"/>
		</g>
		<g id="Indoor3">
			<polygon fill="#58595B" points="186.883,53.415 176.949,54.254 176.153,68.647 186.221,68.011 			"/>
			<polygon fill="#6D6E71" points="186.592,59.82 176.608,60.421 176.153,68.647 186.221,68.011 			"/>
			<polygon fill="#006838" points="186.053,53.485 177.794,54.183 177.386,59.82 185.843,59.4 			"/>
		</g>
		<g id="Indoor4">
			<polygon fill="#58595B" points="255.497,47.875 245.563,48.714 244.767,63.106 254.836,62.47 			"/>
			<polygon fill="#6D6E71" points="255.207,54.28 245.223,54.88 244.767,63.106 254.836,62.47 			"/>
			<polygon fill="#006838" points="254.668,47.945 246.408,48.643 246,54.28 254.457,53.86 			"/>
		</g>
	</g>
	<g id="Doors1_1_">
		<g id="Door_left">
			<polygon fill="#009444" points="81.707,61.875 76.834,62.339 76.038,76.732 81.045,76.471 			"/>
			<polygon fill="#1C75BC" points="80.366,73.05 77.323,73.151 77.938,63.592 80.854,63.351 			"/>
		</g>
		<g id="Door_right">
			<polygon fill="#009444" points="86.768,61.5 81.707,61.875 81.045,76.471 86.106,76.096 			"/>
			<polygon fill="#1C75BC" points="85.327,73.008 82.284,73.11 82.899,63.35 85.816,63.109 			"/>
		</g>
	</g>
	<g id="Doors2">
		<g id="Door_left_3_">
			<polygon fill="#009444" points="150.37,56.339 145.497,56.803 144.701,71.196 149.708,70.935 			"/>
			<polygon fill="#1C75BC" points="149.029,67.514 145.986,67.615 146.601,58.056 149.518,57.814 			"/>
		</g>
		<g id="Door_right_3_">
			<polygon fill="#009444" points="155.431,55.964 150.37,56.339 149.708,70.935 154.769,70.56 			"/>
			<polygon fill="#1C75BC" points="153.99,67.472 150.947,67.574 151.563,57.814 154.479,57.573 			"/>
		</g>
	</g>
	<g id="Doors3">
		<g id="Door_left_2_">
			<polygon fill="#009444" points="181.822,53.791 176.949,54.254 176.153,68.647 181.16,68.386 			"/>
			<polygon fill="#1C75BC" points="180.481,64.965 177.438,65.066 178.053,55.507 180.97,55.266 			"/>
		</g>
		<g id="Door_right_2_">
			<polygon fill="#009444" points="186.883,53.415 181.822,53.791 181.16,68.386 186.221,68.011 			"/>
			<polygon fill="#1C75BC" points="185.442,64.923 182.399,65.025 183.015,55.265 185.932,55.024 			"/>
		</g>
	</g>
	<g id="Doors4">
		<g id="Door_left_1_">
			<polygon fill="#009444" points="250.436,48.294 245.563,48.758 244.767,63.15 249.774,62.889 			"/>
			<polygon fill="#1C75BC" points="249.096,59.468 246.053,59.57 246.668,50.01 249.584,49.769 			"/>
		</g>
		<g id="Door_right_1_">
			<polygon fill="#009444" points="255.497,47.918 250.436,48.294 249.774,62.889 254.836,62.514 			"/>
			<polygon fill="#1C75BC" points="254.057,59.426 251.014,59.528 251.629,49.769 254.546,49.527 			"/>
		</g>
	</g>
	<g id="Windows">
		<polygon fill="#1C75BC" points="44.119,66.48 48.566,66.283 47.222,73.366 42.697,73.579 		"/>
		<polygon fill="#1C75BC" points="66.98,66.042 71.346,65.774 70.298,71.384 65.76,71.729 		"/>
		<polygon fill="#1C75BC" points="59.721,66.583 64.087,66.315 63.039,71.924 58.501,72.27 		"/>
		<polygon fill="#1C75BC" points="52.55,66.935 56.917,66.668 55.868,72.277 51.331,72.623 		"/>
		<polygon fill="#1C75BC" points="108.766,63.217 113.132,62.95 112.084,68.559 107.546,68.905 		"/>
		<polygon fill="#1C75BC" points="101.507,63.758 105.874,63.491 104.825,69.1 100.288,69.446 		"/>
		<polygon fill="#1C75BC" points="94.337,64.11 98.704,63.843 97.655,69.452 93.118,69.798 		"/>
		<polygon fill="#1C75BC" points="135.214,62.09 139.581,61.821 138.533,67.432 133.995,67.777 		"/>
		<polygon fill="#1C75BC" points="127.956,62.63 132.322,62.362 131.273,67.972 126.736,68.317 		"/>
		<polygon fill="#1C75BC" points="277.934,51.477 282.299,51.209 281.25,56.818 276.713,57.164 		"/>
		<polygon fill="#1C75BC" points="270.674,52.017 275.041,51.75 273.992,57.358 269.455,57.704 		"/>
		<polygon fill="#1C75BC" points="263.504,52.37 267.871,52.102 266.822,57.711 262.285,58.057 		"/>
		<polygon fill="#1C75BC" points="232.099,53.685 236.465,53.417 235.417,59.026 230.879,59.372 		"/>
		<polygon fill="#1C75BC" points="224.84,54.226 229.207,53.958 228.159,59.567 223.621,59.913 		"/>
		<polygon fill="#1C75BC" points="217.669,54.578 222.037,54.31 220.987,59.919 216.451,60.265 		"/>
		<polygon fill="#1C75BC" points="198.501,56.242 202.868,55.975 201.819,61.583 197.281,61.929 		"/>
		<polygon fill="#1C75BC" points="191.242,56.782 195.608,56.515 194.56,62.125 190.022,62.469 		"/>
		<polygon fill="#1C75BC" points="167.334,59.404 171.7,59.137 170.652,64.746 166.114,65.091 		"/>
		<polygon fill="#1C75BC" points="160.075,59.945 164.441,59.678 163.393,65.287 158.856,65.632 		"/>
		<polygon fill="#1C75BC" points="287.334,48.436 291.781,48.238 290.436,55.321 285.912,55.534 		"/>
	</g>
	<g id="Connector1">
		<g>
			<polygon fill="#BCBEC0" points="121.257,57.361 118.11,57.394 117.085,74.413 120.295,74.246 			"/>
			<polygon fill="#BCBEC0" points="121.257,57.361 118.11,57.394 111.596,45.577 114.668,45.302 			"/>
		</g>
	</g>
	<g id="Connector2">
		<polygon fill="#BCBEC0" points="208.075,50.265 204.927,50.297 202.868,67.182 206.078,67.016 		"/>
		<polygon fill="#BCBEC0" points="208.075,50.265 204.927,50.297 197.88,38.299 201.197,38.384 		"/>
	</g>
	<g id="Chassis">
		<polygon fill="#6D6E71" points="287.846,60.367 34.153,80.62 33.791,81.389 287.393,61.178 		"/>
		<polygon fill="#58595B" points="33.791,81.389 26.277,69.754 26.665,68.933 34.153,80.62 		"/>
	</g>
</g>
<g id="Platform_front">
	<polygon fill="#A7A9AC" points="60.25,78.954 68.553,96 68.553,100.906 60.25,83.156 	"/>
	<polygon fill="#D1D3D4" points="267.494,63.023 60.275,79 68.578,96.047 279.674,80.067 	"/>
	<polygon fill="#BCBEC0" points="278.943,85.75 68.553,100.906 68.553,96 279.648,80.021 	"/>
</g>
<g id="Person">
	<circle id="Head" cx="151.26" cy="75.689" r="1.385"/>
	<path id="Torso" d="M151.26,77.33c-0.465-0.004-1.134-0.256-1.901,0.208c-0.133,0.081-0.264,0.488-0.311,0.703
		c-0.167,0.755-0.461,3.058-0.461,3.058s-0.15,0.542,0.365,0.648c0.312,0.063,0.459-0.289,0.459-0.289l0.627-2.954l-0.047,1.883
		l2.541,0.009l-0.058-1.932l0.663,2.867c0,0,0.127,0.419,0.575,0.304c0.326-0.084,0.335-0.495,0.335-0.495s-0.375-2.475-0.656-3.245
		c-0.06-0.165-0.271-0.442-0.422-0.594C152.521,77.053,151.74,77.334,151.26,77.33z"/>
	<path id="Legs" d="M152.713,86.489c0,0,0.08,0.447-0.439,0.447c-0.511,0-0.519-0.415-0.519-0.415l-0.264-4.479l-0.301,0.006
		l-0.337,4.408c0,0-0.048,0.415-0.471,0.399c-0.402-0.015-0.434-0.399-0.434-0.399l0.06-5.592h2.507L152.713,86.489z"/>
</g>
</svg>
