<svg xmlns="http://www.w3.org/2000/svg" height="100%" viewBox="0 0 512 512">
<g>
	<path fill="#004994" d="M510.244,455.73c0,29.823-24.177,54-54,54H56.783c-29.823,0-54-24.177-54-54V56.27
		c0-29.823,24.177-54,54-54h399.461c29.823,0,54,24.177,54,54V455.73z"/>
	<path fill="#FFFFFF" d="M125.913,215.441l-17.255,16.763l-6.556,20.044l-30.194-0.846c0,0,2.066-25.263,6.676-32.016
		C92.5,199,94.303,197.588,104,186c6.485-7.75,22.958-18.051,22.958-18.051c3.616-1.919,7.324-6.443,30.015-5.257
		c20.459,1.068,25.143,8.38,25.143,8.38l27.607,40.427l24.65,35.99c2.958,6.244,4.694,16.088-4.272,22.184
		c-6.945,4.72-17.913,0.658-20.87-3.943l-25.637-38.455l-3.45,39.44l49.3,104.024c1.479,4.436,2.14,14.775-6.779,18.666
		c-12.099,5.281-17.872-3.014-20.337-6.834l-33.193-57.843c0,0,5.046-31.533-10.847-44.703c-11.503-9.53-38.455-8.873-38.455-8.873
		l2.629-4.808L125.913,215.441z"/>
	<circle fill="#FFFFFF" cx="161.708" cy="127.001" r="31.852"/>
	<path fill="#FFFFFF" d="M159.662,353.586c0,16.191-12.318,29.316-27.511,29.316H43.712c-15.194,0-27.513-13.125-27.513-29.316
		v-41.359c0-16.194,12.318-29.317,27.513-29.317h88.439c15.193,0,27.511,13.123,27.511,29.317V353.586z"/>
	<path fill="#FFFFFF" d="M105.597,263.927c-1.202-1.536-6.111-2.996-15.682-3.171c-10.576-0.195-17.106,2.039-18.896,3.334
		c-3.862,2.795-2.794,16.27-2.794,16.27h8.627c0,0-0.391-6.961,1.07-8.464c4.364-4.495,18.638-4.53,22.594,0.329
		c1.323,1.625,1.234,8.135,1.234,8.135h8.134C112.32,266.129,106.628,265.241,105.597,263.927z"/>
	<polygon fill="#FFFFFF" points="439.667,414 274.916,413.71 258.646,439.759 427.335,439.438 	"/>
	<polygon fill="#FFFFFF" points="305.729,369.261 278.68,361.013 213.536,462.437 245.088,462.437 	"/>
	<polygon fill="#FFFFFF" points="461.833,361.013 431.833,361.013 388.5,463.908 425.166,463.908 	"/>
	<path fill="#FFFFFF" stroke="#FFFFFF" stroke-width="14" stroke-miterlimit="10" d="M488.24,319.135
		c0,26.137-21.19,47.327-47.329,47.327H279.207c-26.137,0-47.328-21.19-47.328-47.327V94.324c0-26.139,21.191-47.328,47.328-47.328
		h161.704c26.139,0,47.329,21.189,47.329,47.328V319.135z"/>
	<circle fill="#004994" cx="286.109" cy="299.089" r="25.637"/>
	<circle fill="#004994" cx="435.326" cy="299.089" r="25.636"/>
	<path fill="#004994" d="M467.535,197.858c0,13.071-10.597,23.664-23.666,23.664H276.905c-13.067,0-23.663-10.593-23.663-23.664
		v-59.817c0-13.069,10.596-23.665,23.663-23.665h166.964c13.069,0,23.666,10.595,23.666,23.665V197.858z"/>
	<path fill="#004994" d="M413.808,79.209c0,4.538-3.678,8.217,2.781,8.217H306.158c-15.539,0-19.218-3.68-19.218-8.217l0,0
		c0-4.538,3.679-8.216,8.218-8.216h110.431C410.13,70.993,413.808,74.671,413.808,79.209L413.808,79.209z"/>
</g>
</svg>
